<svg xmlns="http://www.w3.org/2000/svg" xmlns:xlink="http://www.w3.org/1999/xlink" width="72" height="72" viewBox="0 0 72 72">
  <defs>
    <linearGradient id="linear-gradient" x1="0.548" y1="1" x2="0.557" gradientUnits="objectBoundingBox">
      <stop offset="0" stop-color="#ff9123"/>
      <stop offset="1" stop-color="#ffcf4a"/>
    </linearGradient>
  </defs>
  <g id="ic" transform="translate(-1409 -624)">
    <rect id="Rectangle_143" data-name="Rectangle 143" width="72" height="72" rx="30" transform="translate(1409 624)" fill="url(#linear-gradient)"/>
    <g id="ic-2" data-name="ic" transform="translate(-1253.707 -262.533)">
      <path id="Path_135" data-name="Path 135" d="M2735.969,1049.257a.715.715,0,0,0-.973.277,1.279,1.279,0,0,1-.815.621,2.689,2.689,0,0,0-1.8,3.227,1.282,1.282,0,0,1-.915,1.641,2.665,2.665,0,0,0-1.541,1.256.715.715,0,0,0,1.25.7,1.278,1.278,0,0,1,.815-.621,3.538,3.538,0,0,0,.775-.388,2.53,2.53,0,0,0,.767-.868,2.662,2.662,0,0,0,.258-1.971,1.282,1.282,0,0,1,.915-1.641,2.663,2.663,0,0,0,1.541-1.256A.715.715,0,0,0,2735.969,1049.257Z" transform="translate(-39.109 -112.927)" fill="#fff"/>
      <path id="Path_136" data-name="Path 136" d="M2685,1025.815a.713.713,0,0,0,.461-.169,1.271,1.271,0,0,1,.979-.291,2.682,2.682,0,0,0,2.819-2.38,1.274,1.274,0,0,1,1.429-1.207,2.655,2.655,0,0,0,1.884-.628.715.715,0,0,0-.923-1.093,1.272,1.272,0,0,1-.979.291,2.682,2.682,0,0,0-2.819,2.38,1.274,1.274,0,0,1-1.429,1.207,2.657,2.657,0,0,0-1.884.628.715.715,0,0,0,.461,1.262Z" transform="translate(-4.268 -90.524)" fill="#fff"/>
      <path id="Path_137" data-name="Path 137" d="M2732.356,903.928a1.274,1.274,0,0,1,.754,1.712,2.682,2.682,0,0,0,1.488,3.376,1.271,1.271,0,0,1,.752.691.715.715,0,0,0,1.309-.577,2.656,2.656,0,0,0-1.417-1.391,1.274,1.274,0,0,1-.754-1.712,2.682,2.682,0,0,0-1.488-3.376,1.271,1.271,0,0,1-.751-.691.715.715,0,1,0-1.309.577A2.656,2.656,0,0,0,2732.356,903.928Z" transform="translate(-39.907)" fill="#fff"/>
      <path id="Path_138" data-name="Path 138" d="M2685.738,953.356a.716.716,0,0,0,.908-.446v0a.715.715,0,0,0-.447-.905c-.3-.1-.392-.244-.58-.581a2.33,2.33,0,0,0-3.2-1.092.955.955,0,0,1-.814.106c-.3-.1-.391-.244-.58-.581a2.328,2.328,0,0,0-1.367-1.236.715.715,0,0,0-.908.446v0a.715.715,0,0,0,.447.906c.3.1.392.244.58.581a2.33,2.33,0,0,0,3.2,1.092.954.954,0,0,1,.814-.106c.3.1.392.244.58.581A2.329,2.329,0,0,0,2685.738,953.356Z" transform="translate(0 -35.986)" fill="#fff"/>
      <path id="Path_139" data-name="Path 139" d="M2800.538,960.3a.716.716,0,0,0-.9.191l-5.408,6.96a.715.715,0,0,0,.564,1.154h1.453l-2.1,4.561a.715.715,0,0,0,1.161.8l5.632-5.753a.715.715,0,0,0-.2-1.144l-1.588-.771,1.729-5.14A.715.715,0,0,0,2800.538,960.3Zm-1.32,7.622-2.049,2.093.842-1.826a.715.715,0,0,0-.65-1.015h-1.108l1.925-2.477-.585,1.741a.715.715,0,0,0,.365.871Z" transform="translate(-88.248 -44.883)" fill="#fff"/>
      <path id="Path_140" data-name="Path 140" d="M2749.241,963.368a7.836,7.836,0,0,0,2.179-5.521,9.575,9.575,0,0,0-2.136-6.155,8.631,8.631,0,0,0-4.915-3.022,6.953,6.953,0,0,0-7.546,3.449,7.927,7.927,0,0,0-2.962-2.951,6.679,6.679,0,0,0-4.619-.655,8.4,8.4,0,0,0-4.868,3.144,10.3,10.3,0,0,0-2.089,6.385c0,4.907,3.849,7.191,6.942,9.025.547.325,1.064.631,1.547.942,3.148,2.029,5.232,4.732,5.515,5.675a.685.685,0,0,0,.656.489h.015a.686.686,0,0,0,.649-.518c.232-.923,2.521-3.7,5.442-5.779.568-.4,1.191-.8,1.85-1.211A20.537,20.537,0,0,0,2749.241,963.368Zm-6.984,3.393a23.171,23.171,0,0,0-5.316,5.241,19.891,19.891,0,0,0-5.425-5.144c-.5-.325-1.031-.638-1.59-.969-3.083-1.829-6.271-3.72-6.271-7.847a8.945,8.945,0,0,1,1.8-5.546,7.034,7.034,0,0,1,4.065-2.642,5.789,5.789,0,0,1,1.183-.125c2.324,0,4.326,1.493,5.5,4.169a.686.686,0,0,0,1.261-.007c1.272-3.013,3.754-4.463,6.635-3.88,3.909.792,5.953,4.54,5.953,7.834,0,3.966-2.988,5.844-5.877,7.66C2743.5,965.932,2742.857,966.334,2742.257,966.762Z" transform="translate(-33.334 -35.82)" fill="#fff"/>
    </g>
  </g>
</svg>
