<svg xmlns="http://www.w3.org/2000/svg" width="25" height="25" viewBox="0 0 25 25"><defs><style>.a,.f{fill:none;}.a,.b{stroke:#317575;}.b{fill:#317575;}.c,.d{fill:#fff;}.d{stroke:#fff;}.e{stroke:none;}</style></defs><g transform="translate(-57 -970)"><g class="a" transform="translate(57 970)"><circle class="e" cx="12.5" cy="12.5" r="12.5"/><circle class="f" cx="12.5" cy="12.5" r="12"/></g><g class="b" transform="translate(60 973)"><circle class="e" cx="9.5" cy="9.5" r="9.5"/><circle class="f" cx="9.5" cy="9.5" r="9"/></g><g transform="translate(-0.5)"><circle class="c" cx="1" cy="1" r="1" transform="translate(68.95 987.5)"/><g transform="translate(66 976)"><g transform="translate(0)"><path class="d" d="M106.853,3.606a3.948,3.948,0,0,0-7.869.028.5.5,0,0,0,1,0,2.941,2.941,0,0,1,5.864,0c0,.008,0,.016,0,.025a2.713,2.713,0,0,1-1.782,2.469,2.529,2.529,0,0,0-1.652,2.334V9.537a.5.5,0,0,0,1,0V8.462a1.6,1.6,0,0,1,1.043-1.483,3.637,3.637,0,0,0,2.391-3.345Q106.854,3.62,106.853,3.606Z" transform="translate(-98.984)"/></g></g></g></g></svg>