<svg xmlns="http://www.w3.org/2000/svg" width="72" height="72" viewBox="0 0 72 72">
  <g id="ic" transform="translate(-1409 -379)">
    <rect id="Rectangle_139" data-name="Rectangle 139" width="72" height="72" rx="30" transform="translate(1409 379)" fill="#b5d16c"/>
    <g id="ic-2" data-name="ic" transform="translate(-489.884 -1903.177)">
      <path id="Path_34" data-name="Path 34" d="M1994.238,2377.306a7.954,7.954,0,0,0-10.446-4.173l-9.1,3.9a.715.715,0,0,0-.192.083l-10.276,4.409a7.954,7.954,0,1,0,6.273,14.618l19.565-8.4a7.954,7.954,0,0,0,4.173-10.446Zm-24.312,17.5a6.5,6.5,0,1,1-5.125-11.943l10.145-4.354.264.076a7.177,7.177,0,0,1,4,10.866l-1.273,1.918Zm23.037-11.957a6.455,6.455,0,0,1-3.472,3.561l-9.115,3.911.043-.065a8.635,8.635,0,0,0-3.519-12.586l7.465-3.2a6.5,6.5,0,0,1,8.6,8.382Z" transform="translate(-36.471 -58.108)" fill="#fff"/>
      <path id="Path_35" data-name="Path 35" d="M1989.495,2406.794l-5.554,2.384a7.941,7.941,0,0,0-2.154,1.368.728.728,0,0,0,.968,1.087,6.484,6.484,0,0,1,1.761-1.118l5.554-2.384a.728.728,0,1,0-.574-1.337Z" transform="translate(-53.11 -83.852)" fill="#fff"/>
      <path id="Path_36" data-name="Path 36" d="M1975.148,2429.97a.727.727,0,0,0-.978.32c-.116.228-.222.464-.315.7a.728.728,0,1,0,1.355.53c.076-.195.163-.388.257-.574A.727.727,0,0,0,1975.148,2429.97Z" transform="translate(-47.294 -101.257)" fill="#fff"/>
      <path id="Path_37" data-name="Path 37" d="M1921.286,2322.938a10.036,10.036,0,0,1-3.48-2.852c-2.241-2.791-3.217-6.505-2.9-11.041.479-6.856-.5-10.357-1.474-12.116a59.478,59.478,0,0,1,7.489,1.854c8.27,2.653,11.98,6.111,13.636,8.544a11.036,11.036,0,0,1,1.453,9.355.728.728,0,0,0,1.409.365,12.554,12.554,0,0,0-.881-9.237s0-.008,0-.012a9.961,9.961,0,0,1,.717-2.919,7.768,7.768,0,0,0,.637-2.8c1.641,1.1,4.429,3.35,5.163,6.359a7.354,7.354,0,0,1-1.485,6.126.728.728,0,1,0,1.186.843,8.739,8.739,0,0,0,1.711-7.321c-1.215-4.967-6.9-7.926-7.138-8.049a.728.728,0,0,0-1.041.812,5.379,5.379,0,0,1-.4,3.529,15.92,15.92,0,0,0-.52,1.6c-2.679-3.571-7.392-6.459-14.033-8.585a57.909,57.909,0,0,0-9.641-2.207.728.728,0,0,0-.4,1.379c.029.014,2.892,1.865,2.157,12.382-.432,6.17,1.542,10,3.274,12.125a11.241,11.241,0,0,0,4,3.215.728.728,0,0,0,.555-1.346Z" transform="translate(0 0)" fill="#fff"/>
      <path id="Path_38" data-name="Path 38" d="M1948.407,2325.853a.728.728,0,1,0-.691,1.281,19.654,19.654,0,0,1,4.486,3.665,18.6,18.6,0,0,1,5.031,11.392.728.728,0,0,0,.725.678l.05,0a.728.728,0,0,0,.676-.776,20.044,20.044,0,0,0-5.415-12.281A20.861,20.861,0,0,0,1948.407,2325.853Z" transform="translate(-27.398 -22.992)" fill="#fff"/>
    </g>
  </g>
</svg>
