<svg id="ic_heart" xmlns="http://www.w3.org/2000/svg" width="31" height="28" viewBox="0 0 31 28">
  <circle id="Ellipse_52" data-name="Ellipse 52" cx="12.5" cy="12.5" r="12.5" fill="#b5d16c"/>
  <g id="Ellipse_53" data-name="Ellipse 53" transform="translate(7 4)" fill="none" stroke="#317575" stroke-width="2">
    <circle cx="12" cy="12" r="12" stroke="none"/>
    <circle cx="12" cy="12" r="11" fill="none"/>
  </g>
  <g id="Polygon_48" data-name="Polygon 48" transform="translate(26 10) rotate(90)" fill="none">
    <path d="M4.285,2.858a2,2,0,0,1,3.43,0l2.468,4.113A2,2,0,0,1,8.468,10H3.532A2,2,0,0,1,1.817,6.971Z" stroke="none"/>
    <path d="M 6.000000476837158 3.887305736541748 C 5.999998569488525 3.887305736541748 5.999996662139893 3.887305736541748 6.000000476837158 3.887295722961426 L 3.532380104064941 7.999985694885254 C 3.532378196716309 7.999989032745361 3.532376289367676 7.999991893768311 3.532374382019043 7.999995231628418 C 3.532376289367676 7.999995231628418 3.532378196716309 7.999995231628418 3.532380104064941 7.999995231628418 L 8.467620849609375 7.999995231628418 C 8.467623710632324 7.999995231628418 8.46762752532959 7.999995231628418 8.467630386352539 7.999995231628418 L 6.000002384185791 3.887305736541748 C 6.000001907348633 3.887305736541748 6.000001430511475 3.887305736541748 6.000000476837158 3.887305736541748 M 5.999999046325684 1.887303352355957 C 6.663290500640869 1.887303352355957 7.32658052444458 2.210970878601074 7.714980602264404 2.858305931091309 L 10.18261051177979 6.971005439758301 C 10.98243045806885 8.304055213928223 10.02221012115479 9.999995231628418 8.467620849609375 9.999995231628418 L 3.532380104064941 9.999995231628418 C 1.977790832519531 9.999995231628418 1.017570495605469 8.304055213928223 1.817390441894531 6.971005439758301 L 4.28501033782959 2.858305931091309 C 4.673415660858154 2.210970878601074 5.336708068847656 1.887303352355957 5.999999046325684 1.887303352355957 Z" stroke="none" fill="#317575"/>
  </g>
</svg>
