<svg xmlns="http://www.w3.org/2000/svg" xmlns:xlink="http://www.w3.org/1999/xlink" width="28" height="26.484" viewBox="0 0 28 26.484"><defs><style>.a,.c{fill:none;stroke-linecap:round;stroke-linejoin:round;}.a{stroke:#317575;}.b{opacity:0.8;fill:url(#a);}.c{stroke:#07315b;stroke-width:1.5px;}</style><linearGradient id="a" x1="0.5" x2="0.5" y2="1" gradientUnits="objectBoundingBox"><stop offset="0" stop-color="#b5d16c"/><stop offset="1" stop-color="#00a03b"/></linearGradient></defs><g transform="translate(0.5 0.671)"><path class="a" d="M-109.5,48.112l-12.105-6.052a.964.964,0,0,0-1.395.862v15.4a.963.963,0,0,0,.533.862l12.967,6.484,12.967-6.484A.963.963,0,0,0-96,58.317v-15.4a.964.964,0,0,0-1.395-.862Z" transform="translate(123 -40.35)"/><path class="b" d="M-109.5,51.029l-8.776-4.388a.7.7,0,0,0-1.012.625v9.811a.7.7,0,0,0,.387.625l9.4,4.7,9.4-4.7a.7.7,0,0,0,.387-.625V47.266a.7.7,0,0,0-1.012-.625Z" transform="translate(123 -40.35)"/><path class="a" d="M-100.894,40.35l-8.775,4.388-8.775-4.388" transform="translate(123 -40.35)"/><path class="c" d="M-109.5,65.663" transform="translate(123 -40.35)"/><path class="c" d="M-109.5,48.112" transform="translate(123 -40.35)"/></g></svg>