<svg id="Component_9_1" data-name="Component 9 – 1" xmlns="http://www.w3.org/2000/svg" xmlns:xlink="http://www.w3.org/1999/xlink" width="112" height="112" viewBox="0 0 112 112">
  <defs>
    <linearGradient id="linear-gradient" y1="1" x2="0.82" y2="0.187" gradientUnits="objectBoundingBox">
      <stop offset="0" stop-color="#750000"/>
      <stop offset="1" stop-color="#e83e33"/>
    </linearGradient>
  </defs>
  <g id="Component_8_1" data-name="Component 8 – 1">
    <path id="Subtraction_7" data-name="Subtraction 7" d="M7600-8597a56,56,0,0,1,56,56,56,56,0,0,1-56,56,56,56,0,0,1-56-56A56,56,0,0,1,7600-8597Z" transform="translate(-7544 8597)" fill="url(#linear-gradient)"/>
  </g>
  <g id="ic_death" transform="translate(-133.65 256.032)">
    <path id="Path_64" data-name="Path 64" d="M0,0H7.489" transform="translate(225.489 -196.5)" fill="none" stroke="#fff" stroke-linecap="round" stroke-width="2"/>
    <path id="Path_63" data-name="Path 63" d="M171.876-196.064h5.308a1.928,1.928,0,0,0,1.876-1.485l1.052-4.459a.746.746,0,0,1,1.457.024l2.608,12.926a1.584,1.584,0,0,0,3.113-.044l4.532-22.519a1.545,1.545,0,0,1,3.023-.108l4.569,21.01a1.583,1.583,0,0,0,3.078-.018l.847-3.6a2.807,2.807,0,0,1,2.733-2.164h7.215" fill="none" stroke="#fff" stroke-linecap="round" stroke-linejoin="round" stroke-width="2"/>
    <circle id="Ellipse_33" data-name="Ellipse 33" cx="28.377" cy="28.377" r="28.377" transform="translate(162.651 -228.032)" stroke-width="2" stroke="#fff" stroke-linecap="round" stroke-linejoin="round" fill="none"/>
  </g>
</svg>
