<svg xmlns="http://www.w3.org/2000/svg" width="82" height="31" viewBox="0 0 82 31"><defs><style>.a{fill:#07315b;}.b{fill:#1a9a60;}.c{fill:#b3dd3d;}.d{fill:#3e695e;}</style></defs><path class="a" d="M271.292,138.854c0,3.187-2.245,6.33-5.687,6.33-3.3,0-5.686-2.735-5.686-6.33,0-3.987,2.727-6.356,5.617-6.356,3.585,0,5.756,3.168,5.756,6.356M270.86,127.6v1.29a9.34,9.34,0,0,0-6.221-2.3c-5.928,0-10.571,5.385-10.571,12.26a13.283,13.283,0,0,0,2.753,8.237,10.444,10.444,0,0,0,8.128,3.975,8.567,8.567,0,0,0,5.912-2.3v1.287a.506.506,0,0,0,.482.526h4.667a.506.506,0,0,0,.482-.526V127.6a.506.506,0,0,0-.482-.526h-4.667a.506.506,0,0,0-.482.526" transform="translate(-194.492 -120.065)"/><path class="a" d="M151.1,140.5a3.3,3.3,0,0,1-2.876-1.309,4.785,4.785,0,0,1-.694-2.947v-8.8h6.032a.487.487,0,0,0,.46-.51V122.4a.487.487,0,0,0-.46-.51h-6.032v-6.075a.51.51,0,0,0-.482-.534h-4.888a.511.511,0,0,0-.482.534v6.075h-3.435a.51.51,0,0,0-.482.534V126.9a.51.51,0,0,0,.482.534h3.435v8.223c0,3.359.479,5.493,1.6,7.135,1.528,2.258,4.11,3.451,7.467,3.451a7.782,7.782,0,0,0,5.131-1.453.861.861,0,0,0,.158-.966c-.123-.194-2.117-3.691-2.117-3.691a.614.614,0,0,0-.886-.2,4.315,4.315,0,0,1-1.932.563" transform="translate(-137.761 -115.282)"/><path class="a" d="M182.321,131.7a4.388,4.388,0,0,1,4.183,3.982h-8.716a4.731,4.731,0,0,1,4.533-3.982m0-5.181a9.684,9.684,0,0,0-7.641,3.679,13.612,13.612,0,0,0-2.841,8.581c0,7.19,4.638,12.211,11.278,12.211a11.483,11.483,0,0,0,7.821-3.09c.091-.087.2-.2.307-.318a.559.559,0,0,0,.045-.689l-2.315-3.329a.455.455,0,0,0-.714-.064c-.134.138-.293.3-.46.443a6.912,6.912,0,0,1-4.551,1.866,5.735,5.735,0,0,1-5.729-5.429h14.239a.712.712,0,0,0,.685-.672c.028-.3.051-.692.051-1.17a13.3,13.3,0,0,0-2.853-8.461,9.375,9.375,0,0,0-7.321-3.558" transform="translate(-154.394 -120.033)"/><path class="b" d="M234.211,148.747l.009-3.359a15.326,15.326,0,0,1,.753-4.461,13.5,13.5,0,0,1,2.231-4.383l1.345-1.881v7.856Z" transform="translate(-185.046 -123.977)"/><path class="c" d="M242.857,130.9l2.856-3.993a.774.774,0,0,1,.95-.3.992.992,0,0,1,.565.94l-.022,4.962-4.349,6.244Z" transform="translate(-189.284 -120.354)"/><path class="d" d="M247.206,137.669l-.012,2.851a15.029,15.029,0,0,1-.714,4.856,14.149,14.149,0,0,1-1.878,3.983l-1.745,2.45v-7.9Z" transform="translate(-189.285 -125.201)"/><path class="a" d="M238.534,149.312v7.9l-2.836,3.982a.777.777,0,0,1-.952.3,1,1,0,0,1-.565-.94l.014-5.006Z" transform="translate(-185.031 -130.6)"/><path class="b" d="M228.676,148.747l-.009-3.359a15.336,15.336,0,0,0-.753-4.461,13.507,13.507,0,0,0-2.231-4.383l-1.345-1.881v7.856Z" transform="translate(-180.206 -123.977)"/><path class="c" d="M220,130.9l-2.856-3.993a.774.774,0,0,0-.95-.3.993.993,0,0,0-.565.94l.022,4.962L220,138.757Z" transform="translate(-175.934 -120.354)"/><path class="d" d="M215.669,137.669l.012,2.851a15.022,15.022,0,0,0,.714,4.856,14.149,14.149,0,0,0,1.878,3.983l1.745,2.45v-7.9Z" transform="translate(-175.956 -125.201)"/><path class="a" d="M224.338,149.312v7.9l2.836,3.982a.776.776,0,0,0,.951.3,1,1,0,0,0,.565-.94l-.014-5.006Z" transform="translate(-180.206 -130.6)"/></svg>