<svg id="Component_35_1" data-name="Component 35 – 1" xmlns="http://www.w3.org/2000/svg" width="72" height="72" viewBox="0 0 72 72">
  <rect id="Rectangle_142" data-name="Rectangle 142" width="72" height="72" rx="30" fill="#be3830"/>
  <g id="ic" transform="translate(-2325.016 -905.029)">
    <g id="Group_226" data-name="Group 226" transform="translate(2336.016 916.029)">
      <path id="Path_129" data-name="Path 129" d="M2358.31,1030.3a20.027,20.027,0,0,1-17.13-19.123h4.3a.758.758,0,0,0,0-1.516h-8.706a.758.758,0,0,0,0,1.516h2.891a21.542,21.542,0,0,0,18.424,20.622.788.788,0,0,0,.112.008.758.758,0,0,0,.11-1.508Z" transform="translate(-2336.016 -985.125)" fill="#fff"/>
      <path id="Path_130" data-name="Path 130" d="M2451.9,1020.078a.758.758,0,1,0-1.5-.183,20.146,20.146,0,0,1-19.237,17.666v-4.254a.758.758,0,1,0-1.516,0v8.705a.758.758,0,1,0,1.516,0v-2.936A21.662,21.662,0,0,0,2451.9,1020.078Z" transform="translate(-2405.112 -992.187)" fill="#fff"/>
      <path id="Path_131" data-name="Path 131" d="M2350.512,938.551a.758.758,0,0,0,.657.846.746.746,0,0,0,.1.006.758.758,0,0,0,.751-.663,20.161,20.161,0,0,1,19.227-17.588v4.34a.758.758,0,1,0,1.516,0v-8.706a.758.758,0,0,0-1.516,0v2.849A21.68,21.68,0,0,0,2350.512,938.551Z" transform="translate(-2346.709 -916.029)" fill="#fff"/>
      <path id="Path_132" data-name="Path 132" d="M2462.714,951.18h-2.891a21.653,21.653,0,0,0-18.782-20.756.758.758,0,0,0-.2,1.5,20.139,20.139,0,0,1,17.465,19.253h-4.3a.758.758,0,0,0,0,1.516h8.706a.758.758,0,0,0,0-1.516Z" transform="translate(-2412.889 -926.647)" fill="#fff"/>
    </g>
    <g id="Group_227" data-name="Group 227" transform="translate(2358.023 930.171)">
      <path id="Path_133" data-name="Path 133" d="M2423.409,983.036h0a1.465,1.465,0,0,1-1.366-1.322l-1.987-9.375a2.273,2.273,0,0,1,.377-1.841,1.266,1.266,0,0,1,.988-.5h3.975a1.265,1.265,0,0,1,.988.5,2.275,2.275,0,0,1,.378,1.841l-1.987,9.375A1.465,1.465,0,0,1,2423.409,983.036Zm-.229-1.486Zm-1.565-9.977a.876.876,0,0,0-.021.44l1.815,8.563,1.815-8.563a.873.873,0,0,0-.021-.44Z" transform="translate(-2420.004 -970)" fill="#fff"/>
    </g>
    <g id="Group_228" data-name="Group 228" transform="translate(2358.24 944.735)">
      <path id="Path_134" data-name="Path 134" d="M2424.021,1031.959a3.188,3.188,0,1,1,3.188-3.188A3.192,3.192,0,0,1,2424.021,1031.959Zm0-4.8a1.616,1.616,0,1,0,1.616,1.616A1.618,1.618,0,0,0,2424.021,1027.155Z" transform="translate(-2420.833 -1025.583)" fill="#fff"/>
    </g>
  </g>
</svg>
