<svg xmlns="http://www.w3.org/2000/svg" width="98.086" height="98.824" viewBox="0 0 98.086 98.824"><defs><style>.a{fill:#e92218;}.b{fill:#c5d3f1;}.c{fill:#fff;}.d{fill:#eaf0ff;}</style></defs><g transform="translate(-85 -2771)"><g transform="translate(85 2771)"><path class="a" d="M34.235-20c21.912,0,48.8,26.993,48.8,48.994S56.147,73.41,34.235,73.41-10,51-10,28.994,12.323-20,34.235-20Z" transform="translate(10 25.414)"/><path class="a" d="M403.964-7652.64c1.962,6.3,18.247,9.456,24.918,26s8.044-3.743-3.336-14.973S402-7658.944,403.964-7652.64Z" transform="translate(-335.918 7658.22)"/><path class="a" d="M470.768-7556.468c-2.64,1.333-3.392,4.043.413,5.731S473.407-7557.8,470.768-7556.468Z" transform="translate(-408.376 7556.606)"/></g><g transform="translate(-599.248 2768.685)"><g transform="translate(722.155 68.521)"><path class="b" d="M11.847,3.668C10.388,1.39,3.225-3.3.584,3.668s4.345,9.741,7.4,9.321S13.307,5.946,11.847,3.668Z" transform="translate(2.038 0) rotate(9)"/><path class="c" d="M4.69,0a5.374,5.374,0,0,1,5.673,5.557c0,3.3-2.362,5-5.666,5S0,8.689,0,5.385,1.386,0,4.69,0Z" transform="translate(2.117 2.955) rotate(-11)"/><path class="d" d="M.177,6.993C.112,6.816.053,6.64,0,6.468a2.426,2.426,0,0,1,1.855.314C4.944,8.3,4.477,8.707,7.1,5.966,9.286,3.685,6.744.878,5.83,0A5.319,5.319,0,0,1,9.972,3.609c1.132,3.1-.509,5.5-3.616,6.633A6.029,6.029,0,0,1,4.3,10.65C2.359,10.65,1.033,9.347.177,6.993Z" transform="translate(4.065 1.304) rotate(9)"/></g><g transform="translate(718.864 27.233) rotate(1)"><path class="c" d="M9.92,0c5.479,0,9.2,5.039,8.934,16.489S15.4,35.326,9.92,35.326,0,17.088,0,11.008,4.441,0,9.92,0Z" transform="translate(0 0)"/><path class="d" d="M0,30.279q.367.3.765.622c3.677,2.96,5.792-1.427,9.379-10.408C13.173,12.908,9.376,2.916,8.125,0c3.488,1.853,5.635,6.864,5.429,15.654C13.285,27.1,10.1,34.493,4.619,34.493,2.951,34.493,1.38,32.8,0,30.279Z" transform="translate(5.3 0.833)"/><path class="b" d="M0,10.374A11,11,0,0,1,6.595,0,14.035,14.035,0,0,0,1.965,12.772c.779,5.9,1.855,12.294,2.516,16.065C1.782,22.953,0,14.224,0,10.374Z" transform="translate(0 0.635)"/></g></g></g></svg>