<svg xmlns="http://www.w3.org/2000/svg" xmlns:xlink="http://www.w3.org/1999/xlink" width="75.522" height="77.095" viewBox="0 0 75.522 77.095">
  <defs>
    <filter id="Rectangle_90" x="8.624" y="8" width="60" height="61" filterUnits="userSpaceOnUse">
      <feOffset dy="6" input="SourceAlpha"/>
      <feGaussianBlur result="blur"/>
      <feFlood flood-color="#f80"/>
      <feComposite operator="in" in2="blur"/>
      <feComposite in="SourceGraphic"/>
    </filter>
  </defs>
  <g id="Group_13427" data-name="Group 13427" transform="translate(-85.376 -21)">
    <rect id="Rectangle_3333" data-name="Rectangle 3333" width="75.522" height="77.095" rx="37.761" transform="translate(85.376 21)" fill="#ffba00" opacity="0.3"/>
    <g transform="matrix(1, 0, 0, 1, 85.38, 21)" filter="url(#Rectangle_90)">
      <rect id="Rectangle_90-2" data-name="Rectangle 90" width="60" height="55" rx="27.5" transform="translate(8.62 8)" fill="#ffba00"/>
    </g>
    <g id="Union_49" data-name="Union 49" transform="matrix(0.629, -0.777, 0.777, 0.629, -8206.773, -2187.688)" fill="#fff">
      <path d="M 3506.214599609375 7905.34228515625 C 3506.0380859375 7905.34228515625 3505.86181640625 7905.33447265625 3505.69091796875 7905.31884765625 C 3503.946533203125 7905.16552734375 3502.405029296875 7904.06103515625 3500.62744140625 7902.4501953125 C 3500.016357421875 7901.8974609375 3495.881103515625 7897.328125 3492.799560546875 7892.8828125 C 3491.794677734375 7891.4326171875 3490.883056640625 7890.00439453125 3490.104736328125 7888.7265625 C 3489.573486328125 7889.93310546875 3488.8564453125 7891.27099609375 3487.829345703125 7892.7197265625 C 3487.501708984375 7893.18115234375 3486.50634765625 7894.58447265625 3484.937255859375 7894.5849609375 C 3484.353759765625 7894.5849609375 3482.9228515625 7894.36572265625 3482.244384765625 7892.333984375 C 3481.45556640625 7889.97265625 3481.812744140625 7885.5087890625 3482.3583984375 7882.404296875 C 3482.713623046875 7880.3818359375 3483.20556640625 7878.51953125 3483.781005859375 7877.0185546875 C 3484.531005859375 7875.06201171875 3485.403564453125 7873.72900390625 3486.447998046875 7872.94384765625 C 3487.708984375 7871.99462890625 3489.5595703125 7871.51318359375 3491.947509765625 7871.51318359375 C 3494.4794921875 7871.51318359375 3497.635498046875 7872.06494140625 3500.6064453125 7873.0263671875 C 3502.406982421875 7873.609375 3505.622802734375 7874.833984375 3506.927001953125 7876.4892578125 C 3507.74755859375 7877.5302734375 3507.673583984375 7878.50244140625 3507.556640625 7878.98876953125 C 3507.395263671875 7879.6572265625 3506.919677734375 7880.583984375 3505.568359375 7881.2138671875 C 3504.945556640625 7881.50439453125 3504.1572265625 7881.72412109375 3503.158203125 7881.88671875 C 3501.990234375 7882.07666015625 3500.638427734375 7882.1728515625 3499.2587890625 7882.24169921875 C 3500.137451171875 7883.390625 3501.045166015625 7884.60009765625 3501.9365234375 7885.81103515625 C 3504.1435546875 7888.81005859375 3506.150390625 7891.6767578125 3507.58740234375 7893.88330078125 C 3510.0869140625 7897.71826171875 3510.685791015625 7899.22216796875 3510.83984375 7900.40234375 C 3510.981201171875 7901.47021484375 3510.76220703125 7902.4892578125 3510.20703125 7903.34912109375 C 3509.7158203125 7904.10986328125 3508.98095703125 7904.6982421875 3508.137451171875 7905.00537109375 C 3507.526611328125 7905.22900390625 3506.879150390625 7905.34228515625 3506.214599609375 7905.34228515625 Z" stroke="none"/>
      <path d="M 3506.214599609375 7903.34228515625 C 3506.646240234375 7903.34228515625 3507.0625 7903.26904296875 3507.45263671875 7903.12646484375 C 3508.27392578125 7902.8271484375 3509.027587890625 7901.9482421875 3508.85693359375 7900.6630859375 C 3508.7578125 7899.9013671875 3508.331298828125 7898.6875 3505.91162109375 7894.974609375 C 3504.4814453125 7892.77880859375 3502.498046875 7889.9482421875 3500.325927734375 7886.99658203125 C 3498.590087890625 7884.638671875 3496.802490234375 7882.30029296875 3495.303466796875 7880.4228515625 C 3499.427734375 7880.173828125 3505.182373046875 7880.30078125 3505.612060546875 7878.521484375 C 3506.197509765625 7876.08740234375 3491.762451171875 7871.44775390625 3487.649658203125 7874.54248046875 C 3483.53564453125 7877.634765625 3482.179443359375 7897.228515625 3486.19775390625 7891.56298828125 C 3488.443359375 7888.3955078125 3489.06640625 7885.81201171875 3489.65576171875 7883.9501953125 C 3490.83740234375 7886.1181640625 3492.524658203125 7888.97509765625 3494.443115234375 7891.7431640625 C 3497.509521484375 7896.16650390625 3501.57373046875 7900.609375 3501.970458984375 7900.96826171875 C 3503.7216796875 7902.55517578125 3504.850341796875 7903.23779296875 3505.867919921875 7903.32666015625 C 3505.984375 7903.33740234375 3506.10009765625 7903.34228515625 3506.214599609375 7903.34228515625 M 3506.214599609375 7907.34228515625 C 3505.978271484375 7907.34228515625 3505.741455078125 7907.33154296875 3505.5107421875 7907.310546875 C 3503.0771484375 7907.0947265625 3501.080078125 7905.5595703125 3499.284423828125 7903.93212890625 C 3498.61865234375 7903.330078125 3494.38037109375 7898.673828125 3491.15576171875 7894.02197265625 C 3490.845947265625 7893.5751953125 3490.544921875 7893.1298828125 3490.253662109375 7892.69091796875 C 3490.009521484375 7893.07861328125 3489.74609375 7893.47412109375 3489.4609375 7893.87646484375 C 3488.185791015625 7895.673828125 3486.6640625 7896.58447265625 3484.9375 7896.5849609375 C 3483.605224609375 7896.5849609375 3482.374755859375 7896.01904296875 3481.47314453125 7894.99072265625 C 3480.984130859375 7894.43310546875 3480.615966796875 7893.771484375 3480.347412109375 7892.9677734375 C 3479.923583984375 7891.69873046875 3479.7421875 7890.02783203125 3479.792724609375 7887.8583984375 C 3479.8349609375 7886.0419921875 3480.041015625 7884.0361328125 3480.388427734375 7882.05810546875 C 3480.765625 7879.91162109375 3481.29296875 7877.92138671875 3481.913330078125 7876.302734375 C 3482.80224609375 7873.984375 3483.892333984375 7872.36279296875 3485.24609375 7871.34521484375 C 3486.860595703125 7870.1298828125 3489.115966796875 7869.51318359375 3491.947509765625 7869.51318359375 C 3494.68017578125 7869.51318359375 3498.060791015625 7870.10009765625 3501.22216796875 7871.12353515625 C 3504.8056640625 7872.28369140625 3507.25341796875 7873.67236328125 3508.497802734375 7875.2509765625 C 3509.4931640625 7876.51416015625 3509.849609375 7878.0078125 3509.501220703125 7879.45654296875 C 3509.2841796875 7880.35595703125 3508.595458984375 7882.009765625 3506.413330078125 7883.02685546875 C 3505.621826171875 7883.3955078125 3504.662109375 7883.66845703125 3503.479248046875 7883.86083984375 C 3503.332275390625 7883.884765625 3503.18310546875 7883.9072265625 3503.0322265625 7883.92822265625 C 3503.204345703125 7884.16015625 3503.3759765625 7884.392578125 3503.547119140625 7884.625 C 3505.7763671875 7887.654296875 3507.80615234375 7890.55419921875 3509.263427734375 7892.79150390625 C 3511.97900390625 7896.95849609375 3512.62646484375 7898.6435546875 3512.822509765625 7900.1396484375 C 3513.21533203125 7903.109375 3511.57080078125 7905.8828125 3508.822265625 7906.884765625 C 3507.99267578125 7907.18798828125 3507.114013671875 7907.34228515625 3506.214599609375 7907.34228515625 Z" stroke="none" fill="#f80"/>
    </g>
  </g>
</svg>
