<svg xmlns="http://www.w3.org/2000/svg" xmlns:xlink="http://www.w3.org/1999/xlink" width="90.527" height="141.5" viewBox="0 0 90.527 141.5">
  <defs>
    <linearGradient id="linear-gradient" x1="0.525" y1="0.101" x2="0.476" y2="1.004" gradientUnits="objectBoundingBox">
      <stop offset="0" stop-color="#f55"/>
      <stop offset="1" stop-color="#922855"/>
    </linearGradient>
    <linearGradient id="linear-gradient-2" x1="0.763" y1="-0.716" x2="0.426" y2="1.015" xlink:href="#linear-gradient"/>
    <linearGradient id="linear-gradient-3" x1="0.535" y1="-0.01" x2="0.477" y2="0.98" gradientUnits="objectBoundingBox">
      <stop offset="0.464" stop-color="#9f8580"/>
      <stop offset="1" stop-color="#534133"/>
    </linearGradient>
    <linearGradient id="linear-gradient-4" x1="2.119" y1="-1.414" x2="-0.434" y2="1.61" gradientUnits="objectBoundingBox">
      <stop offset="0" stop-color="#ffe5b3"/>
      <stop offset="0.169" stop-color="#fadb9e"/>
      <stop offset="0.514" stop-color="#f0c46b"/>
      <stop offset="1" stop-color="#df9f19"/>
    </linearGradient>
    <linearGradient id="linear-gradient-5" x1="3.089" y1="-2.375" x2="0.165" y2="0.75" xlink:href="#linear-gradient-4"/>
    <linearGradient id="linear-gradient-6" x1="3.655" y1="-2.566" x2="-0.256" y2="1.346" xlink:href="#linear-gradient-4"/>
    <linearGradient id="linear-gradient-7" x1="1.059" y1="-0.077" x2="-0.261" y2="1.382" xlink:href="#linear-gradient-4"/>
  </defs>
  <g id="Group_13400" data-name="Group 13400" transform="translate(-1.811 -314.695)">
    <path id="Path_5411" data-name="Path 5411" d="M1540.994,483.288c-4.29-31.55-13.77-61.31-17.549-65.089-5.461-5.459-13.729-2.22-18.721,0-6.724,2.991-7.02,10.141-16.38,63.961-7.021.78-17.463,0-17.463,0-2.817,1.559-2.817,1.559-4.378,3.9-.2,34.169,2.145,56.817,7.8,63.181,6.241,7.019,74.881,7.8,78.781-.781,2.777-6.108,3.127-65.7,3.127-65.7C1549.964,484.5,1540.994,483.288,1540.994,483.288Zm-41.2-.027s-5.184-57.308,4.148-62.721,19.5-1.561,20.28,2.339,4.68,60.84,4.68,60.84S1509.4,484.5,1499.8,483.261Z" transform="translate(-1463.873 -100.506)" fill="url(#linear-gradient)"/>
    <path id="Path_5416" data-name="Path 5416" d="M1519.874,461.124l4.68-6.239s-.007,57.9-3.127,65.7-9.565,6.974-9.853,7S1519.874,461.124,1519.874,461.124Z" transform="translate(-1432.215 -72.634)" fill="url(#linear-gradient-2)"/>
    <path id="Path_5418" data-name="Path 5418" d="M1536.647,489.331c-4.29-31.548-10.652-66.768-14.431-70.549-5.459-5.459-16.848-3-21.839-.78-6.724,2.991-7.021,14.041-16.38,67.861-7.021.78-17.463,0-17.463,0,.3,42.119-2.817,56.16,3.422,63.181s73.32,10.139,77.22,4.68,4.688-64.924,4.688-64.924C1545.617,490.543,1536.647,489.331,1536.647,489.331Zm-41.2-2.366s-2.036-60.474,7.3-65.888,16.351-2.295,17.132,1.605,5.834,66.383,5.834,66.383S1502.219,489.626,1495.447,486.965Z" transform="translate(-1464.206 -100.31)" fill="url(#linear-gradient-3)"/>
    <g id="Group_13399" data-name="Group 13399" transform="translate(34.919 394.865)">
      <g id="Group_13397" data-name="Group 13397" transform="translate(0.78)">
        <path id="Path_5419" data-name="Path 5419" d="M1498.276,472.733l-1.481.458c-.025-.056-.049-.109-.072-.162a1.33,1.33,0,0,0-1.45-.815,1.37,1.37,0,0,0-1.084.763,2.021,2.021,0,0,0-.274,1.025,1.765,1.765,0,0,0,.589,1.382,1.43,1.43,0,0,0,.9.327,1.292,1.292,0,0,0,.776-.169,1.036,1.036,0,0,0,.463-.7l-1.243-.1c0-.031,0-.054,0-.078.027-.322.056-.645.078-.967.005-.063.026-.077.085-.071q1.43.12,2.86.237c.024,0,.048.007.066.009-.012.15-.017.294-.038.436a3.856,3.856,0,0,1-.219.883,2.657,2.657,0,0,1-1.556,1.571,3.7,3.7,0,0,1-3.087-.342,2.72,2.72,0,0,1-1.1-1.471,3.212,3.212,0,0,1,.155-2.375,2.728,2.728,0,0,1,1.82-1.549,3.766,3.766,0,0,1,1.726-.049,2.735,2.735,0,0,1,1.393.683,2.863,2.863,0,0,1,.655.967C1498.244,472.657,1498.257,472.689,1498.276,472.733Z" transform="translate(-1481.428 -456.251)" fill="#81330d"/>
        <path id="Path_5420" data-name="Path 5420" d="M1486.154,473.179c.075-.916.152-1.833.225-2.749,0-.071.027-.087.1-.082.7.061,1.4.114,2.1.177a2.842,2.842,0,0,1,2.323,1.462,2.591,2.591,0,0,1,.068,2.654,2.825,2.825,0,0,1-2.269,1.553,2.853,2.853,0,0,1-.565.005c-.708-.053-1.417-.116-2.126-.17-.071-.007-.094-.024-.087-.1.048-.553.09-1.1.135-1.658.031-.363.06-.727.09-1.091Zm1.658-1.478-.264,3.2a2.786,2.786,0,0,0,.98,0,1.373,1.373,0,0,0,.7-.38,1.667,1.667,0,0,0,.461-1.45,1.461,1.461,0,0,0-.637-1.057,1.788,1.788,0,0,0-.848-.283C1488.078,471.72,1487.945,471.714,1487.812,471.7Z" transform="translate(-1485.923 -456.639)" fill="#81330d"/>
        <path id="Path_5421" data-name="Path 5421" d="M1490.628,473.3l-.245-.354a.937.937,0,0,1,.347-1.374,1.716,1.716,0,0,1,1.22-.143,1.45,1.45,0,0,1,.7.354.872.872,0,0,1,.058,1.241,2.016,2.016,0,0,1-.657.46l-.084.041.528.606.216-.434.831.337a2.492,2.492,0,0,1-.436.793l.468.369-.528.866c-.182-.153-.357-.3-.528-.446-.094-.083-.088-.087-.2-.019a2.036,2.036,0,0,1-1.447.274,1.9,1.9,0,0,1-.792-.3,1.172,1.172,0,0,1-.368-1.581,1.565,1.565,0,0,1,.6-.535C1490.413,473.4,1490.517,473.355,1490.628,473.3Zm1.222,1.508,0-.014c-.254-.289-.506-.579-.761-.867a.064.064,0,0,0-.061-.007.685.685,0,0,0-.363.395.494.494,0,0,0,.162.6.506.506,0,0,0,.344.124A1.041,1.041,0,0,0,1491.85,474.807Zm-.64-2.411a.74.74,0,0,0,.054.209,3.523,3.523,0,0,0,.24.332c.007.009.041.007.056,0q.109-.054.214-.112a.4.4,0,0,0,.2-.436.4.4,0,0,0-.339-.294A.359.359,0,0,0,1491.21,472.4Z" transform="translate(-1483.375 -455.916)" fill="#81330d"/>
        <path id="Path_5422" data-name="Path 5422" d="M1496.648,474.85l-7.782-.7-1.109-7.308,3.361,2.7,3.063-7.252,1.7,7.681,3.79-2.062Z" transform="translate(-1484.635 -462.295)" fill="#81330d"/>
      </g>
      <g id="Group_13398" data-name="Group 13398">
        <path id="Path_5423" data-name="Path 5423" d="M1497.818,472.733l-1.481.458-.073-.162a1.327,1.327,0,0,0-1.449-.815,1.367,1.367,0,0,0-1.084.763,2.04,2.04,0,0,0-.276,1.025,1.772,1.772,0,0,0,.591,1.382,1.425,1.425,0,0,0,.894.327,1.294,1.294,0,0,0,.778-.169,1.041,1.041,0,0,0,.463-.7l-1.243-.1c0-.031,0-.054,0-.078.027-.322.054-.645.078-.967.005-.063.025-.077.085-.071q1.43.12,2.86.237c.024,0,.048.007.066.009-.013.15-.017.294-.037.436a3.961,3.961,0,0,1-.22.883,2.656,2.656,0,0,1-1.556,1.571,3.7,3.7,0,0,1-3.088-.342,2.726,2.726,0,0,1-1.1-1.471,3.221,3.221,0,0,1,.153-2.375,2.732,2.732,0,0,1,1.82-1.549,3.775,3.775,0,0,1,1.728-.049,2.734,2.734,0,0,1,1.392.683,2.863,2.863,0,0,1,.656.967C1497.785,472.657,1497.8,472.689,1497.818,472.733Z" transform="translate(-1480.97 -456.251)" fill="url(#linear-gradient-4)"/>
        <path id="Path_5424" data-name="Path 5424" d="M1485.695,473.179q.115-1.374.226-2.749c.005-.071.027-.087.1-.082.7.061,1.4.114,2.1.177a2.843,2.843,0,0,1,2.324,1.462,2.591,2.591,0,0,1,.068,2.654,2.9,2.9,0,0,1-2.834,1.558c-.71-.053-1.418-.116-2.126-.17-.073-.007-.094-.024-.087-.1.048-.553.09-1.1.135-1.658q.043-.544.09-1.091Zm1.66-1.478-.264,3.2a2.785,2.785,0,0,0,.98,0,1.372,1.372,0,0,0,.7-.38,1.666,1.666,0,0,0,.461-1.45,1.461,1.461,0,0,0-.636-1.057,1.789,1.789,0,0,0-.848-.283C1487.618,471.72,1487.487,471.714,1487.354,471.7Z" transform="translate(-1485.465 -456.639)" fill="url(#linear-gradient-5)"/>
        <path id="Path_5425" data-name="Path 5425" d="M1490.17,473.3l-.245-.354a.937.937,0,0,1,.347-1.374,1.712,1.712,0,0,1,1.219-.143,1.45,1.45,0,0,1,.7.354.873.873,0,0,1,.058,1.241,2,2,0,0,1-.659.46l-.082.041.528.606.216-.434.831.337a2.492,2.492,0,0,1-.436.793l.468.369-.528.866c-.182-.153-.357-.3-.528-.446-.094-.083-.089-.087-.2-.019a2.039,2.039,0,0,1-1.447.274,1.906,1.906,0,0,1-.792-.3,1.17,1.17,0,0,1-.368-1.581,1.566,1.566,0,0,1,.6-.535C1489.955,473.4,1490.059,473.355,1490.17,473.3Zm1.222,1.508,0-.014c-.254-.289-.506-.579-.761-.867a.065.065,0,0,0-.061-.007.68.68,0,0,0-.363.395.494.494,0,0,0,.162.6.507.507,0,0,0,.344.124A1.044,1.044,0,0,0,1491.392,474.807Zm-.64-2.411a.748.748,0,0,0,.054.209,3.523,3.523,0,0,0,.24.332c.007.009.041.007.056,0q.11-.054.214-.112a.4.4,0,0,0,.2-.436.4.4,0,0,0-.337-.294A.359.359,0,0,0,1490.752,472.4Z" transform="translate(-1482.917 -455.916)" fill="url(#linear-gradient-6)"/>
        <path id="Path_5426" data-name="Path 5426" d="M1496.19,474.85l-7.782-.7-1.109-7.308,3.361,2.7,3.063-7.252,1.7,7.681,3.79-2.062Z" transform="translate(-1484.177 -462.295)" fill="url(#linear-gradient-7)"/>
      </g>
    </g>
  </g>
</svg>
