<svg xmlns="http://www.w3.org/2000/svg" xmlns:xlink="http://www.w3.org/1999/xlink" width="92.057" height="97.843" viewBox="0 0 92.057 97.843">
  <defs>
    <linearGradient id="linear-gradient" x1="0.473" y1="-0.043" x2="0.543" y2="0.915" gradientUnits="objectBoundingBox">
      <stop offset="0" stop-color="#d7d2da"/>
      <stop offset="1" stop-color="#1b2139"/>
    </linearGradient>
    <linearGradient id="linear-gradient-2" x1="0.066" y1="0.226" x2="1.213" y2="1.134" gradientUnits="objectBoundingBox">
      <stop offset="0" stop-color="#6d515b"/>
      <stop offset="1" stop-color="#1b2139"/>
    </linearGradient>
    <linearGradient id="linear-gradient-3" x1="0.215" y1="0.052" x2="0.803" y2="1.089" xlink:href="#linear-gradient-2"/>
    <linearGradient id="linear-gradient-4" x1="0.295" y1="-0.054" x2="0.706" y2="0.981" xlink:href="#linear-gradient"/>
    <linearGradient id="linear-gradient-5" x1="0.357" y1="-0.511" x2="0.715" y2="1.677" xlink:href="#linear-gradient"/>
    <linearGradient id="linear-gradient-6" x1="0" y1="0.5" x2="1" y2="0.5" xlink:href="#linear-gradient-2"/>
  </defs>
  <g id="Group_13381" data-name="Group 13381" transform="translate(0)">
    <path id="Path_5337" data-name="Path 5337" d="M1173.977,488.931c7.76-1.118,59.087-7.318,66.189-8.2,7.851-.975,13.261,1.559,14.041,13.26.778,11.675,1.166,35.29.744,43.078s-.676,12.461-12.57,15.723-56.192,9.4-64.583,9.776-11.346-6.864-11.618-16.252-2.729-36.081-3.086-43.912S1166.106,490.067,1173.977,488.931Z" transform="translate(-1163.067 -464.737)" fill="url(#linear-gradient)"/>
    <path id="Path_5338" data-name="Path 5338" d="M1177.51,496.608c-.209-9.358-4.933-19.723,12.17-22.449s11.661-1.823,19.443-2.778,12.068,3.388,12.848,19.768c-1.559,1.559-6.239,1.559-6.239,1.559-1.561-12.48.421-16.928-7.021-16.38s-15.815,2.387-21.247,3.342c-7.613,1.338-3.953,9.94-2.933,16.159A30.2,30.2,0,0,1,1177.51,496.608Z" transform="translate(-1153.452 -471.257)" fill="url(#linear-gradient-2)"/>
    <g id="Group_13379" data-name="Group 13379" transform="translate(1.355 17.994)">
      <path id="Path_5339" data-name="Path 5339" d="M1164.726,504.005a.78.78,0,0,1-.775-.7c-.929-9.3,5.677-12.051,10.726-13.314,3.11-.776,14.628-2,27.966-3.411,13.432-1.425,28.654-3.037,36.835-4.4,4.419-.737,7.608-.31,9.743,1.3a7.766,7.766,0,0,1,2.862,5.619.78.78,0,1,1-1.551.172,6.206,6.206,0,0,0-2.252-4.547c-1.774-1.341-4.567-1.672-8.544-1.009-8.228,1.37-23.475,2.988-36.929,4.412-12.727,1.35-24.747,2.623-27.752,3.374-7.23,1.808-10.177,5.4-9.552,11.646a.781.781,0,0,1-.7.855C1164.779,504,1164.753,504.005,1164.726,504.005Z" transform="translate(-1163.863 -481.827)" fill="url(#linear-gradient-3)"/>
    </g>
    <path id="Path_5340" data-name="Path 5340" d="M1251.445,485.32c-2.354-1.541-5.417-1.827-8.989-1.384-7.1.884-58.429,7.083-66.189,8.2-7.872,1.135-11.241,5.64-10.885,13.471s2.816,34.524,3.086,43.912a29.509,29.509,0,0,0,1.52,9.189,9.746,9.746,0,0,0,6.2,1.6c8.389-.376,52.689-6.517,64.583-9.776s12.148-7.935,12.57-15.723.034-31.4-.744-43.078A25.3,25.3,0,0,0,1251.445,485.32Z" transform="translate(-1161.458 -462.484)" fill="url(#linear-gradient-4)"/>
    <path id="Path_5341" data-name="Path 5341" d="M1233.732,497.146c-19.5,7.02-49.14,7.8-59.281,7.8.78,7.8.78,16.38,1.561,21.06.64,3.847,4.68,7.8,12.48,7.021s35.1-3.9,40.56-6.241,5.459-6.239,5.459-13.26C1234.511,507.273,1233.732,497.146,1233.732,497.146Z" transform="translate(-1155.072 -453.074)" fill="url(#linear-gradient-5)"/>
    <g id="Group_13380" data-name="Group 13380" transform="translate(18.6 43.29)">
      <path id="Path_5342" data-name="Path 5342" d="M1174.773,506.049a.78.78,0,0,1,0-1.559c8.792,0,39.031-.56,59.017-7.754a.78.78,0,0,1,.528,1.467C1214.1,505.483,1183.628,506.049,1174.773,506.049Z" transform="translate(-1173.993 -496.687)" fill="url(#linear-gradient-6)"/>
    </g>
  </g>
</svg>
