<svg xmlns="http://www.w3.org/2000/svg" xmlns:xlink="http://www.w3.org/1999/xlink" width="711" height="1278" viewBox="0 0 711 1278"><defs><style>.a{fill:#fff;stroke:#707070;}.b{fill:#dee8ff;}.c{clip-path:url(#a);}.d{clip-path:url(#b);}.e{clip-path:url(#c);}</style><clipPath id="a"><rect class="a" width="711" height="1278" transform="translate(1209 151)"/></clipPath><clipPath id="b"><rect class="a" width="1920" height="1429"/></clipPath><clipPath id="c"><path class="b" d="M8129.14,3629.324c193.589-177.814,161.074-298.521,334.534-336.23s426.771-1.57,406.12,402.22,72.346,532.733-13.008,678.853-497.743,304.7-801.988,23.458S7935.551,3807.139,8129.14,3629.324Z" transform="translate(-6669.016 -3068.989)"/></clipPath></defs><g class="c" transform="translate(-1209 -151)"><g class="d"><g transform="translate(-11 -55.267)"><path class="b" d="M8129.14,3629.324c193.589-177.814,161.074-298.521,334.534-336.23s426.771-1.57,406.12,402.22,72.346,532.733-13.008,678.853-497.743,304.7-801.988,23.458S7935.551,3807.139,8129.14,3629.324Z" transform="translate(-6672.016 -3072.989)"/></g></g></g></svg>