<svg xmlns="http://www.w3.org/2000/svg" xmlns:xlink="http://www.w3.org/1999/xlink" width="255.348" height="488.301" viewBox="0 0 255.348 488.301">
  <defs>
    <linearGradient id="linear-gradient" x1="0.486" y1="0.217" x2="0.52" y2="1.164" gradientUnits="objectBoundingBox">
      <stop offset="0" stop-color="#c3d7f0"/>
      <stop offset="1" stop-color="#8d99a7"/>
    </linearGradient>
    <linearGradient id="linear-gradient-2" y1="0.5" x2="1" y2="0.5" gradientUnits="objectBoundingBox">
      <stop offset="0" stop-color="#5d7d91"/>
      <stop offset="1" stop-color="#374b6b"/>
    </linearGradient>
    <linearGradient id="linear-gradient-3" x1="0.011" y1="0.393" x2="0.926" y2="0.533" gradientUnits="objectBoundingBox">
      <stop offset="0" stop-color="#535757"/>
      <stop offset="1" stop-color="#0d131b"/>
    </linearGradient>
    <linearGradient id="linear-gradient-4" x1="0.444" y1="-0.068" x2="0.744" y2="0.874" gradientUnits="objectBoundingBox">
      <stop offset="0.219" stop-color="#694538"/>
      <stop offset="1" stop-color="#1c1007"/>
    </linearGradient>
    <linearGradient id="linear-gradient-6" x1="0.011" y1="0.393" x2="0.926" y2="0.533" xlink:href="#linear-gradient-3"/>
    <linearGradient id="linear-gradient-7" x1="0.456" y1="-0.038" x2="0.96" y2="1.675" xlink:href="#linear-gradient-4"/>
    <linearGradient id="linear-gradient-8" x1="0.465" y1="0.997" x2="0.524" y2="0.209" gradientUnits="objectBoundingBox">
      <stop offset="0.365" stop-color="#fabb80"/>
      <stop offset="0.825" stop-color="#faa16c"/>
    </linearGradient>
    <linearGradient id="linear-gradient-9" x1="416.571" y1="-58.28" x2="416.089" y2="-57.418" gradientUnits="objectBoundingBox">
      <stop offset="0.464" stop-color="#fabb80"/>
      <stop offset="1" stop-color="#faa16c"/>
    </linearGradient>
    <linearGradient id="linear-gradient-10" x1="112.448" y1="-10.738" x2="112.458" y2="-11.03" gradientUnits="objectBoundingBox">
      <stop offset="0.641" stop-color="#ffd7a5"/>
      <stop offset="1" stop-color="#faa96c"/>
    </linearGradient>
    <linearGradient id="linear-gradient-11" x1="0.5" y1="2.776" x2="0.5" y2="0.096" xlink:href="#linear-gradient"/>
    <linearGradient id="linear-gradient-12" x1="0.5" y1="2.795" x2="0.5" y2="-1.058" xlink:href="#linear-gradient"/>
    <linearGradient id="linear-gradient-13" x1="1.214" y1="0.156" x2="-0.805" y2="1.091" gradientUnits="objectBoundingBox">
      <stop offset="0.351" stop-color="#694538"/>
      <stop offset="1" stop-color="#1c1007"/>
    </linearGradient>
    <linearGradient id="linear-gradient-14" x1="0.202" y1="-0.038" x2="0.816" y2="0.989" gradientUnits="objectBoundingBox">
      <stop offset="0" stop-color="#b3e571"/>
      <stop offset="0.991" stop-color="#4b8b41"/>
    </linearGradient>
    <radialGradient id="radial-gradient" cx="0.5" cy="0.5" r="1.607" gradientTransform="translate(0.387) scale(0.225 1)" xlink:href="#linear-gradient-3"/>
    <linearGradient id="linear-gradient-15" x1="0.053" y1="0.813" x2="0.579" y2="0.136" gradientUnits="objectBoundingBox">
      <stop offset="0" stop-color="#7b885d"/>
      <stop offset="0.991" stop-color="#556f43"/>
    </linearGradient>
    <linearGradient id="linear-gradient-16" x1="0.576" y1="-0.04" x2="0.423" y2="1.046" xlink:href="#linear-gradient-15"/>
    <linearGradient id="linear-gradient-17" x1="0.527" y1="-0.226" x2="0.486" y2="0.811" gradientUnits="objectBoundingBox">
      <stop offset="0" stop-color="#ddf5f5"/>
      <stop offset="1" stop-color="#c6d9db"/>
    </linearGradient>
    <linearGradient id="linear-gradient-18" x1="-0.011" y1="0.043" x2="1.013" y2="0.958" gradientUnits="objectBoundingBox">
      <stop offset="0.334" stop-color="#faf8eb"/>
      <stop offset="0.571" stop-color="#f3eede"/>
      <stop offset="0.956" stop-color="#e3dac1"/>
    </linearGradient>
    <linearGradient id="linear-gradient-19" x1="0.281" y1="-0.223" x2="0.684" y2="1.136" xlink:href="#linear-gradient-18"/>
    <linearGradient id="linear-gradient-20" x1="0.194" y1="1.019" x2="0.637" y2="0.021" xlink:href="#linear-gradient-2"/>
    <linearGradient id="linear-gradient-21" x1="0.504" y1="0.472" x2="0.653" y2="0.766" xlink:href="#linear-gradient-17"/>
    <linearGradient id="linear-gradient-22" x1="0.808" y1="0.481" x2="0.296" y2="0.8" xlink:href="#linear-gradient-17"/>
    <linearGradient id="linear-gradient-23" x1="0.629" y1="-1.081" x2="0.469" y2="0.882" xlink:href="#linear-gradient-17"/>
    <linearGradient id="linear-gradient-24" x1="0.652" y1="-0.59" x2="0.336" y2="1.724" xlink:href="#linear-gradient-15"/>
    <linearGradient id="linear-gradient-25" x1="0.74" y1="-0.924" x2="0.258" y2="1.858" xlink:href="#linear-gradient-15"/>
    <linearGradient id="linear-gradient-26" x1="0.498" y1="-0.268" x2="0.501" y2="1.182" xlink:href="#linear-gradient-3"/>
    <linearGradient id="linear-gradient-27" x1="0.528" y1="1.787" x2="0.485" y2="-0.853" xlink:href="#linear-gradient-3"/>
    <linearGradient id="linear-gradient-28" x1="0.509" y1="-0.043" x2="0.488" y2="1.26" xlink:href="#linear-gradient-3"/>
    <linearGradient id="linear-gradient-29" y1="0.5" x2="1" y2="0.5" gradientUnits="objectBoundingBox">
      <stop offset="0" stop-color="#9799a1"/>
      <stop offset="1" stop-color="#c6d9db"/>
    </linearGradient>
    <linearGradient id="linear-gradient-30" x1="0.507" y1="1.069" x2="0.465" y2="-0.056" xlink:href="#linear-gradient-29"/>
    <linearGradient id="linear-gradient-31" x1="0.285" y1="0.208" x2="1.026" y2="1.518" gradientUnits="objectBoundingBox">
      <stop offset="0" stop-color="#c3d7f0"/>
      <stop offset="0.571" stop-color="#8d99a7"/>
    </linearGradient>
    <linearGradient id="linear-gradient-32" x1="0.295" y1="0.229" x2="1.001" y2="1.515" xlink:href="#linear-gradient-31"/>
    <linearGradient id="linear-gradient-33" x1="0.281" y1="0.211" x2="0.91" y2="1.656" xlink:href="#linear-gradient-31"/>
    <linearGradient id="linear-gradient-34" x1="0.308" y1="0.152" x2="0.907" y2="1.669" xlink:href="#linear-gradient-31"/>
    <linearGradient id="linear-gradient-35" x1="0.338" y1="0.109" x2="0.884" y2="1.573" xlink:href="#linear-gradient-31"/>
    <linearGradient id="linear-gradient-36" x1="0.321" y1="0.102" x2="0.857" y2="1.412" xlink:href="#linear-gradient-31"/>
    <linearGradient id="linear-gradient-37" x1="0.78" y1="-0.072" x2="0.12" y2="0.977" xlink:href="#linear-gradient-2"/>
    <linearGradient id="linear-gradient-38" x1="-193.031" y1="323.276" x2="-193.446" y2="324.327" xlink:href="#linear-gradient-10"/>
    <linearGradient id="linear-gradient-39" x1="-45.572" y1="57.737" x2="-45.564" y2="57.413" xlink:href="#linear-gradient-10"/>
    <linearGradient id="linear-gradient-40" x1="0.364" y1="-0.183" x2="0.681" y2="1.387" xlink:href="#linear-gradient"/>
    <linearGradient id="linear-gradient-41" x1="0.047" y1="1.004" x2="1.391" y2="-0.602" xlink:href="#linear-gradient"/>
    <linearGradient id="linear-gradient-42" x1="0.188" y1="0.293" x2="1.423" y2="1.628" gradientUnits="objectBoundingBox">
      <stop offset="0.173" stop-color="#694538"/>
      <stop offset="0.379" stop-color="#56382c"/>
      <stop offset="0.793" stop-color="#27170e"/>
      <stop offset="0.882" stop-color="#1c1007"/>
    </linearGradient>
    <linearGradient id="linear-gradient-43" x1="256.774" y1="0.182" x2="256.932" y2="1.538" xlink:href="#linear-gradient"/>
    <linearGradient id="linear-gradient-44" x1="293.817" y1="0.19" x2="294.025" y2="1.493" xlink:href="#linear-gradient"/>
    <linearGradient id="linear-gradient-45" x1="345.425" y1="0.192" x2="345.639" y2="1.478" xlink:href="#linear-gradient"/>
    <linearGradient id="linear-gradient-46" x1="389.525" y1="0.194" x2="389.751" y2="1.468" xlink:href="#linear-gradient"/>
    <linearGradient id="linear-gradient-47" x1="384.563" y1="0.195" x2="384.754" y2="1.463" xlink:href="#linear-gradient"/>
    <linearGradient id="linear-gradient-48" x1="427.825" y1="0.196" x2="428.013" y2="1.399" xlink:href="#linear-gradient"/>
    <linearGradient id="linear-gradient-49" x1="0.862" y1="-0.158" x2="-0.064" y2="0.971" xlink:href="#linear-gradient-2"/>
  </defs>
  <g id="Group_13163" data-name="Group 13163" transform="translate(0 -105.282)">
    <path id="Path_4776" data-name="Path 4776" d="M921.386,368.355c-5.2,9.644,131.278-14.162,132.6-25.183C1055.546,330.136,946.557,321.668,921.386,368.355Z" transform="translate(-879.723 -201.434)" fill="url(#linear-gradient)"/>
    <g id="Group_13143" data-name="Group 13143" transform="translate(45.801 360.467)">
      <g id="Group_13142" data-name="Group 13142" transform="translate(3.615 204.393)">
        <path id="Path_4777" data-name="Path 4777" d="M949.984,587.49v13.969l7.386.8,1.886-14.772Z" transform="translate(-908.951 -587.49)" fill="url(#linear-gradient-2)"/>
        <path id="Path_4778" data-name="Path 4778" d="M976.761,593.757l3.823,18.055H970.109l-.734-2.462-13.934,2.462s-23,0-29.561-4.923a6.367,6.367,0,0,1,1.273-3.284c6.934,0,28.271-1.641,35.657-9.027C965.272,594.578,971.836,598.682,976.761,593.757Z" transform="translate(-925.88 -583.089)" fill="url(#linear-gradient-3)"/>
      </g>
      <path id="Path_4779" data-name="Path 4779" d="M924.087,469.068c-3.282,58.368,18.876,111.871,21.339,124.518s20.517,66.15,20.517,83.66c6.564,1.946,12.536.974,13.654,0,5.517-29.183,11.785-57.395,2.758-68.1-.821-21.4,13.132-106.034,17.234-123.544C975.791,473.931,936.4,463.232,924.087,469.068Z" transform="translate(-923.757 -467.425)" fill="url(#linear-gradient-4)"/>
    </g>
    <g id="Group_13145" data-name="Group 13145" transform="translate(74.708 357.229)">
      <g id="Group_13144" data-name="Group 13144" transform="translate(48.567 207.631)">
        <path id="Path_4780" data-name="Path 4780" d="M993.372,587.49v13.969l7.386.8,1.886-14.772Z" transform="translate(-952.337 -587.49)" fill="url(#linear-gradient-2)"/>
        <path id="Path_4781" data-name="Path 4781" d="M1020.15,593.757l3.823,18.055H1013.5l-.734-2.462-13.934,2.462s-23,0-29.563-4.923a6.363,6.363,0,0,1,1.275-3.284c6.932,0,28.269-1.641,35.656-9.027C1008.659,594.578,1015.225,598.682,1020.15,593.757Z" transform="translate(-969.267 -583.089)" fill="url(#linear-gradient-6)"/>
      </g>
      <path id="Path_4782" data-name="Path 4782" d="M1044.29,465.54c15.594,32.1-1.016,116.735-3.791,143.974,8.4,5.836,10.982,17.81,0,70.191-3.087,2.618-13.443-1.124-14.264-3.069-.821-35.021-24.759-95.593-30.365-108.952s-58.268-49.613-54.986-90.471C990.125,464.568,1044.29,465.54,1044.29,465.54Z" transform="translate(-940.738 -465.523)" fill="url(#linear-gradient-7)"/>
    </g>
    <path id="Path_4784" data-name="Path 4784" d="M1019.927,317.523s-.821,37.751,1.641,49.24c-2.462,47.6-48.015,72.081-62.37,67.3-24.621-8.207-10.67-81.246-5.745-94.378S1019.927,317.523,1019.927,317.523Z" transform="translate(-863.004 -212.241)" fill="url(#linear-gradient-8)"/>
    <g id="Group_13154" data-name="Group 13154" transform="translate(0 172.005)">
      <g id="Group_13153" data-name="Group 13153" transform="translate(21.575 162.464)">
        <path id="Path_4810" data-name="Path 4810" d="M931.2,479.349c-2.533-.8,5.526,15.025,8.869,14.39S948.6,484.817,931.2,479.349Z" transform="translate(-894.643 -433.073)" fill="url(#linear-gradient-9)"/>
        <path id="Path_4811" data-name="Path 4811" d="M918.293,452.153c8.833,16.537,21.477,40.86,21.477,40.86,8.781,5.189,15.129,8.461,14.077,12.412s6.84,18,1.4,19.361-13.781-1.234-13.781-1.234c-.276,2.312-3.015,4.063-4.7,1.862s-11.845-13.261-12.281-16.647,3.713-15.6,3.488-16.943c-1.864-6.416-18.443-36.338-18.443-36.338Z" transform="translate(-909.526 -452.153)" fill="url(#linear-gradient-10)"/>
      </g>
      <path id="Path_4812" data-name="Path 4812" d="M934.778,362.213c-16.371,11.678-40.2,45.367-37.751,104.226,1.641,39.392,40.46,35.177,41.033-3.282S975.013,333.514,934.778,362.213Z" transform="translate(-896.852 -356.718)" fill="url(#linear-gradient-11)"/>
      <path id="Path_4813" data-name="Path 4813" d="M898.856,445.9c3.866,27.879,22.219,65.156,33.262,73.494a37.657,37.657,0,0,0,14.284-9.278c-2.826-35.373-3.727-59.226-15.209-72.951S894.234,412.565,898.856,445.9Z" transform="translate(-895.834 -309.549)" fill="url(#linear-gradient-12)"/>
    </g>
    <path id="Path_4814" data-name="Path 4814" d="M938.919,475.647c.821,6.564-9.027,26.26-16.414,29.544,5.745,10.669,8.231,25.23,8.231,25.23C944.663,528.169,967.643,498.625,938.919,475.647Z" transform="translate(-878.835 -101.183)" fill="url(#linear-gradient-13)"/>
    <g id="Group_13159" data-name="Group 13159" transform="translate(25.27 131.544)">
      <path id="Path_4815" data-name="Path 4815" d="M984.9,363.763l-14.773,9.028-6.949,21.058-4.033-20.954-10.355-14.877s-23.8,41.854,12.72,51.755C985.168,416.187,1010.341,382.639,984.9,363.763Z" transform="translate(-890.997 -315.344)" fill="#a2b2bc"/>
      <path id="Path_4816" data-name="Path 4816" d="M1043.917,336.617c-46.51,96.71-86.375,96.71-71.611,9.6-42.079,28.053-47.953,30.116-47.953,30.116-19.573,35.683-17.17,127.026,12.31,190.4-2.462,12.31,91.934,30.1,128.845-1.641,6.566-100.122,22.483-152.535,48.888-182.074C1079.744,353.71,1055.729,344,1043.917,336.617Z" transform="translate(-911.697 -330.374)" fill="url(#linear-gradient-14)"/>
      <path id="Path_4817" data-name="Path 4817" d="M924.433,469.446c14.283,9.073,73.39,30.54,133.125-4.836-.349,5.57-1,10.582-1,10.582-18.055,20.517-92.735,28.724-128.845,4.923A51.3,51.3,0,0,0,924.433,469.446Z" transform="translate(-902.751 -240.479)" fill="url(#radial-gradient)"/>
      <path id="Path_4818" data-name="Path 4818" d="M1033.276,341.043c-2.373-1.3-7.475-3.3-9.281-4.426-46.51,96.71-86.375,96.71-71.611,9.6q-4.589,3.059-8.61,5.711C924.9,439.6,981.572,449.372,1033.276,341.043Z" transform="translate(-891.775 -330.374)" fill="url(#linear-gradient-15)"/>
      <path id="Path_4819" data-name="Path 4819" d="M964.156,391.853s-27.929,52.865-31.917,58.848c3.989,18.95,26.929,59.846,26.929,59.846,4.988-14.962,26.443-59.368,26.443-59.368C979.116,437.735,965.154,400.829,964.156,391.853Z" transform="translate(-897.269 -291.58)" opacity="0.5" fill="url(#linear-gradient-16)"/>
      <g id="Group_13156" data-name="Group 13156" transform="translate(41.86 18.544)">
        <path id="Path_4820" data-name="Path 4820" d="M1010.215,343.843S957.691,459.89,951.127,459.068s-4.925-110.79-4.925-110.79" transform="translate(-929.449 -343.843)" fill="none" stroke="#283547" stroke-miterlimit="10" stroke-width="0.964"/>
        <g id="Group_13155" data-name="Group 13155" transform="translate(0 118.989)">
          <path id="Path_4821" data-name="Path 4821" d="M937.447,414.08c12.31-.821,34.467,0,39.392.82,2.462,6.566-.821,26.262-.821,26.262-3.284,1.641-37.751-1.643-39.392-2.463C935.8,434.6,936.627,419,937.447,414.08Z" transform="translate(-936.286 -413.74)" fill="url(#linear-gradient-17)"/>
          <path id="Path_4822" data-name="Path 4822" d="M937.932,415.608c6.564-.821,32.006-.821,35.288.821v4.593c-4.923-.489-34.467-1-35.288-1.153Z" transform="translate(-935.13 -412.807)" fill="url(#linear-gradient-18)"/>
          <path id="Path_4823" data-name="Path 4823" d="M938.341,431.865s-.664-9.472,0-12.458c1.817.034,6.9-.262,8.539.558.821,4.1,0,10.669-.82,12.31C944.417,432.275,938.829,431.455,938.341,431.865Z" transform="translate(-935.05 -409.778)" fill="url(#linear-gradient-19)"/>
        </g>
        <path id="Path_4824" data-name="Path 4824" d="M948.8,419.732c1.764-2.6,3.4-9.167.943-9.167S947.857,418.231,948.8,419.732Z" transform="translate(-928.065 -296.981)" fill="url(#linear-gradient-20)"/>
      </g>
      <path id="Path_4825" data-name="Path 4825" d="M1010.7,332.95c-3.284,9.027-44.317,52.522-52.524,57.447,9.848-4.1,13.952-9.028,31.187,12.31,5.744-14.773,24.49-56.913,24.965-61.693C1012.819,334.734,1010.7,332.95,1010.7,332.95Z" transform="translate(-879.05 -332.95)" fill="url(#linear-gradient-21)"/>
      <path id="Path_4826" data-name="Path 4826" d="M962.095,385.084,954.2,340.663l-4.1,4.1-13.13,43.5C951.739,375.953,956.664,376.773,962.095,385.084Z" transform="translate(-893.947 -327.533)" fill="url(#linear-gradient-22)"/>
      <circle id="Ellipse_247" data-name="Ellipse 247" cx="3.283" cy="3.283" r="3.283" transform="translate(79.95 59.088)" fill="url(#linear-gradient-23)"/>
      <path id="Path_4827" data-name="Path 4827" d="M984.7,410.12l-17.114,28.57,12.63,27.11s12.26-24.325,13.14-25.777S985.4,416.148,984.7,410.12Z" transform="translate(-872.439 -278.75)" opacity="0.5" fill="url(#linear-gradient-24)"/>
      <path id="Path_4828" data-name="Path 4828" d="M935.718,434.076c-1,4.988-7.979,20.946-8.976,24.936-2.993-4.986-7.979-24.936-7.979-24.936l8.478-21.392Z" transform="translate(-906.734 -276.949)" opacity="0.5" fill="url(#linear-gradient-25)"/>
      <path id="Path_4829" data-name="Path 4829" d="M947.582,468.881c7.8.78,36.129,1.769,50.434-1.456,2.872,9.93,5.975,30.479,0,34.687s-44.263,4.683-49.654,1.088C941.341,498.52,947.582,468.881,947.582,468.881Z" transform="translate(-888.288 -238.502)" fill="url(#linear-gradient-26)"/>
      <path id="Path_4830" data-name="Path 4830" d="M949.647,474.308l-3.12-5.459s44.782-.417,50.081-1.379c-1.1,2.758-2.5,6.059-2.5,6.059C986.307,476.649,955.107,477.429,949.647,474.308Z" transform="translate(-887.233 -238.471)" fill="url(#linear-gradient-27)"/>
      <path id="Path_4831" data-name="Path 4831" d="M948.36,472.628c10.139,4.419,39.779,3.682,44.46-.737C978,468.208,953.04,471.155,948.36,472.628Z" transform="translate(-885.946 -236.615)" fill="#0d131b"/>
      <path id="Path_4832" data-name="Path 4832" d="M992.488,497.55c-2.339,3.9-39.779,5.459-43.679.78-2-2.4-.781-21.841,0-26.521,3.119.78,31.2,3.12,44.46-.78C994.049,474.929,994.5,494.2,992.488,497.55Z" transform="translate(-886.396 -235.971)" fill="url(#linear-gradient-28)"/>
      <g id="Group_13157" data-name="Group 13157" transform="translate(62.414 235.058)">
        <path id="Path_4833" data-name="Path 4833" d="M970.5,474.306c-8.306,0-16.657-.5-21.5-1.422a.78.78,0,1,1,.29-1.532c9.753,1.845,33.87,2,42.606-.3a.78.78,0,0,1,.4,1.508C987.749,473.76,979.149,474.306,970.5,474.306Z" transform="translate(-948.36 -471.029)" fill="url(#linear-gradient-29)"/>
      </g>
      <path id="Path_4834" data-name="Path 4834" d="M974.954,471.5c-1.478-.017-2.809,10.352-2.257,10.9.78.78,4.68,1.559,4.68,0S976.43,471.514,974.954,471.5Z" transform="translate(-868.943 -235.642)" fill="url(#linear-gradient-30)"/>
      <g id="Group_13158" data-name="Group 13158" transform="translate(107.803 4.178)">
        <path id="Path_4835" data-name="Path 4835" d="M1061.816,384.466c-.952-7.78-45.24-44.9-63.961-49.062-1.559,10.81-2.339,19.957-7.8,34.093,8.58,8.316,51.016,33.39,55.147,35.821S1064.156,403.591,1061.816,384.466Z" transform="translate(-964.465 -335.404)" fill="url(#linear-gradient-31)"/>
        <path id="Path_4836" data-name="Path 4836" d="M995.3,353.966c6.241,0,49.142,33.262,54.6,37.419s3.684,29.5-12.979,28.055-54.816-23.591-53.169-28.991C988.28,375.586,992.959,363.113,995.3,353.966Z" transform="translate(-968.929 -322.367)" fill="url(#linear-gradient-32)"/>
        <path id="Path_4837" data-name="Path 4837" d="M1042.386,400.749c5.332,4.263,5.461,20.789-4.68,23.285s-59.105-2.223-57.72-9.979c3.12-17.463,3.9-29.936,7.021-39.084C993.246,374.97,1039.268,398.255,1042.386,400.749Z" transform="translate(-971.557 -307.615)" fill="url(#linear-gradient-33)"/>
        <path id="Path_4838" data-name="Path 4838" d="M1037.682,406.579c-11.113-2.089-45.839-10.927-55.6-11.092-1.559,12.473-3.9,23.283-4.005,37.971-.1,13.244,58.586,6.2,62.708,4.329C1046.046,435.4,1048.038,408.525,1037.682,406.579Z" transform="translate(-972.876 -293.205)" fill="url(#linear-gradient-34)"/>
        <path id="Path_4839" data-name="Path 4839" d="M980.531,417.468c-.78,9.979-2.339,22.452-4.68,42.411,11.7,2.494,50.7.831,55.381-1.663s17.658-37.474,9.608-38.279S980.531,417.468,980.531,417.468Z" transform="translate(-974.441 -277.767)" fill="url(#linear-gradient-35)"/>
        <path id="Path_4840" data-name="Path 4840" d="M1030.517,439.927c6.428.427,4.046,27.016-4.2,32.271s-47.7,10.492-50.206,8.7c-1.1-9.393.451-38.594.145-39.316C994.364,439.311,1028.923,439.82,1030.517,439.927Z" transform="translate(-974.54 -262.08)" fill="url(#linear-gradient-36)"/>
        <path id="Path_4841" data-name="Path 4841" d="M1007.633,337.7c-3.12,31.98-17.941,63.959-24.96,115.439-2.848,20.879-4.358,89.766-6.079,99.483-4.223-33.606.868-91.372,5.814-118.827S1005.293,344.714,1007.633,337.7Z" transform="translate(-975.023 -333.795)" fill="url(#linear-gradient-37)"/>
      </g>
    </g>
    <g id="Group_13161" data-name="Group 13161" transform="translate(143.188 182.829)">
      <g id="Group_13160" data-name="Group 13160" transform="translate(0 147.275)">
        <path id="Path_4842" data-name="Path 4842" d="M1000.445,477.13c3.277-.177-11.22,16.3-15.03,14.509S977.945,478.347,1000.445,477.13Z" transform="translate(-979.84 -430.247)" fill="url(#linear-gradient-38)"/>
        <path id="Path_4843" data-name="Path 4843" d="M1049.02,449.589c-15.643,17.088-38.235,42.334-38.235,42.334-12.1,3.522-20.7,5.493-20.655,10.546s-13.706,19.458-7.606,22.748,16.875,2.746,16.875,2.746c-.378,2.853,2.365,5.788,5.059,3.67s18.244-12.245,19.8-16.166.333-19.81,1.015-21.354c4.2-7.111,33.216-37.852,33.216-37.852Z" transform="translate(-980.964 -449.589)" fill="url(#linear-gradient-39)"/>
      </g>
      <path id="Path_4844" data-name="Path 4844" d="M1044.732,365.109c16.61,11.959,31.9,51.85,21.562,110.909s-39.275,21.061-48.52-16.979C1006.52,412.733,1025.232,351.068,1044.732,365.109Z" transform="translate(-957.496 -363.076)" fill="url(#linear-gradient-40)"/>
      <path id="Path_4845" data-name="Path 4845" d="M1072.11,458.866c-9.393,25.913-44.472,57.841-56.753,63.574-13.951-3.284-19.4-16.036-19.4-16.036,9.926-33.3,22.573-68.625,36.371-79.426S1083.342,427.882,1072.11,458.866Z" transform="translate(-970.436 -320.957)" fill="url(#linear-gradient-41)"/>
    </g>
    <path id="Path_4846" data-name="Path 4846" d="M986.878,479.985c2.462,14.773,24.667,19.907,34.491,19.8C1004.909,536.508,958.974,527.584,986.878,479.985Z" transform="translate(-839.802 -98.137)" fill="url(#linear-gradient-42)"/>
    <g id="Group_13162" data-name="Group 13162" transform="translate(17.788 147.538)">
      <path id="Path_4847" data-name="Path 4847" d="M916.85,372.325c6.241-9.36,25.739-23.349,44.46-27.3-3.9,6.239-10.92,14.819-10.131,26.155-8.58,7.9-33.317,18.334-37.45,20.644S906.688,387.571,916.85,372.325Z" transform="translate(-905.455 -340.462)" fill="url(#linear-gradient-43)"/>
      <path id="Path_4848" data-name="Path 4848" d="M952.246,359.456c-6.241,0-31.99,15.944-37.45,19.9s-12.48,35.88-2.339,36.66c16.669,1.282,32.871-17.274,33.54-22.621C947.556,380.911,951.456,369.21,952.246,359.456Z" transform="translate(-907.301 -330.327)" fill="url(#linear-gradient-44)"/>
      <path id="Path_4849" data-name="Path 4849" d="M913.051,400.787c-5.332,4.052-9.359,25.995.78,28.365s30.787-5.892,30.421-13.382c-.79-16.116-.01-25.476,1.559-36.355C939.572,379.414,916.172,398.417,913.051,400.787Z" transform="translate(-907.107 -316.31)" fill="url(#linear-gradient-45)"/>
      <path id="Path_4850" data-name="Path 4850" d="M914.353,412.889c11.127-5.546,18.537-14.281,28.3-14.439-.01,11.234-.116,21.458-.01,35.414.1,12.584-24.149,12.8-28.272,11.019C909.108,442.616,904.937,417.583,914.353,412.889Z" transform="translate(-906.284 -302.94)" fill="url(#linear-gradient-46)"/>
      <path id="Path_4851" data-name="Path 4851" d="M941.538,419.336c.78,9.482.78,18.993,3.119,37.957-11.7,2.37-22.619,3.91-27.3,1.539s-11.71-26.378-2.589-30.911C922.008,424.322,941.538,419.336,941.538,419.336Z" transform="translate(-905.172 -288.271)" fill="url(#linear-gradient-47)"/>
      <path id="Path_4852" data-name="Path 4852" d="M916.3,442.006c-6.428.409-2.828,26.482,5.419,31.475s19.339,4.818,21.839,3.12c1.1-8.927-1.382-35.451-1.076-36.137C924.368,438.3,917.889,441.905,916.3,442.006Z" transform="translate(-903.298 -273.916)" fill="url(#linear-gradient-48)"/>
      <path id="Path_4853" data-name="Path 4853" d="M950.754,342.345c-16.62,33.424-17.4,71.643-18.959,99.723s4.346,84.477,1.782,99.958c-5.905-69.655-7.918-90.265-4.123-127.257C932.575,384.349,936.172,362.741,950.754,342.345Z" transform="translate(-893.099 -342.345)" fill="url(#linear-gradient-49)"/>
    </g>
  </g>
</svg>
