<svg xmlns="http://www.w3.org/2000/svg" xmlns:xlink="http://www.w3.org/1999/xlink" width="509.695" height="745.594" viewBox="0 0 509.695 745.594">
  <defs>
    <linearGradient id="linear-gradient" x1="0.562" y1="0.71" x2="0.529" y2="0.467" gradientUnits="objectBoundingBox">
      <stop offset="0" stop-color="#5d7d91"/>
      <stop offset="1" stop-color="#374b6b"/>
    </linearGradient>
    <linearGradient id="linear-gradient-2" x1="0.384" y1="0.29" x2="0.573" y2="0.994" gradientUnits="objectBoundingBox">
      <stop offset="0" stop-color="#ff5553"/>
      <stop offset="1" stop-color="#a64444"/>
    </linearGradient>
    <radialGradient id="radial-gradient" cx="0.416" cy="0.351" r="0.689" gradientTransform="translate(0)" gradientUnits="objectBoundingBox">
      <stop offset="0" stop-color="#fa9bcf"/>
      <stop offset="1" stop-color="#d52151"/>
    </radialGradient>
    <linearGradient id="linear-gradient-3" x1="0.562" y1="0.71" x2="0.529" y2="0.467" xlink:href="#linear-gradient"/>
    <linearGradient id="linear-gradient-5" x1="0.392" y1="1.03" x2="0.558" y2="0.2" gradientUnits="objectBoundingBox">
      <stop offset="0.366" stop-color="#fac38f"/>
      <stop offset="0.827" stop-color="#faa96c"/>
    </linearGradient>
    <radialGradient id="radial-gradient-3" cx="0.383" cy="0.335" r="0.596" gradientTransform="translate(-0.07) scale(1.14 1)" gradientUnits="objectBoundingBox">
      <stop offset="0" stop-color="#ea9d4e"/>
      <stop offset="0.294" stop-color="#e78c47"/>
      <stop offset="0.873" stop-color="#df6037"/>
      <stop offset="0.888" stop-color="#df5f37"/>
    </radialGradient>
    <clipPath id="clip-path">
      <path id="Path_4540" data-name="Path 4540" d="M158.047,397.207c12.5-1.388,19.445-1.388,34.723-6.945-31.943-16.666-19.818-6.554-41.519-4.153-5.126.555-9.87-2.792-8.481,13.877C142.77,399.987,145.322,398.623,158.047,397.207Z" transform="translate(-142.525 -380.875)" fill="none"/>
    </clipPath>
    <linearGradient id="linear-gradient-6" x1="-522.429" y1="164.69" x2="-522.25" y2="165.77" gradientUnits="objectBoundingBox">
      <stop offset="0" stop-color="#fff" stop-opacity="0"/>
      <stop offset="1" stop-color="#fff" stop-opacity="0.6"/>
    </linearGradient>
    <linearGradient id="linear-gradient-7" x1="-22891.998" y1="5560.024" x2="-22890.945" y2="5560.8" xlink:href="#linear-gradient-6"/>
    <linearGradient id="linear-gradient-8" x1="0.486" y1="0.238" x2="0.634" y2="1.36" gradientUnits="objectBoundingBox">
      <stop offset="0.641" stop-color="#ffd7a5"/>
      <stop offset="1" stop-color="#faa96c"/>
    </linearGradient>
    <linearGradient id="linear-gradient-9" x1="0.648" y1="0.979" x2="0.511" y2="0.204" gradientUnits="objectBoundingBox">
      <stop offset="0" stop-color="#212429"/>
      <stop offset="0.198" stop-color="#292f33"/>
      <stop offset="0.689" stop-color="#394547"/>
      <stop offset="1" stop-color="#404e4f"/>
    </linearGradient>
    <linearGradient id="linear-gradient-10" x1="0.478" y1="0.093" x2="0.586" y2="0.888" xlink:href="#linear-gradient-8"/>
    <linearGradient id="linear-gradient-11" x1="-0.381" y1="0.787" x2="0.036" y2="0.653" gradientUnits="objectBoundingBox">
      <stop offset="0" stop-color="#a5457d"/>
      <stop offset="0.995" stop-color="#59192f"/>
    </linearGradient>
    <radialGradient id="radial-gradient-4" cx="0.5" cy="0.5" r="0.418" gradientTransform="translate(-0.291) scale(1.583 1)" gradientUnits="objectBoundingBox">
      <stop offset="0" stop-color="#ee5f3e"/>
      <stop offset="1" stop-color="#d24133"/>
    </radialGradient>
    <radialGradient id="radial-gradient-5" cx="0.279" cy="0.735" r="0.503" gradientTransform="translate(0.043) scale(0.915 1)" xlink:href="#radial-gradient-4"/>
    <radialGradient id="radial-gradient-6" cx="0.488" cy="0.487" r="0.554" gradientTransform="matrix(0.864, 0.048, -0.04, 0.969, -0.746, 0.279)" gradientUnits="objectBoundingBox">
      <stop offset="0" stop-color="#ba3434"/>
      <stop offset="0.465" stop-color="#a92f2f"/>
      <stop offset="0.888" stop-color="#962a2a"/>
    </radialGradient>
    <linearGradient id="linear-gradient-12" x1="0.487" y1="-0.003" x2="0.555" y2="1.095" gradientTransform="matrix(1, 0, 0, 1, 0, 0)" xlink:href="#radial-gradient-4"/>
    <radialGradient id="radial-gradient-7" cx="0.289" cy="0.105" r="0.439" gradientTransform="matrix(2.651, 0.029, -0.095, 1.241, 134.335, 1.206)" xlink:href="#radial-gradient-6"/>
    <radialGradient id="radial-gradient-8" cx="0.5" cy="0.5" r="0.378" gradientTransform="translate(-0.818) scale(2.635 1)" gradientUnits="objectBoundingBox">
      <stop offset="0" stop-color="#ee5f3e"/>
      <stop offset="1" stop-color="#ee5f3e"/>
    </radialGradient>
    <radialGradient id="radial-gradient-9" cx="0.608" cy="0.078" r="0.838" gradientTransform="translate(-3.076) scale(7.152 1)" xlink:href="#radial-gradient-6"/>
    <linearGradient id="linear-gradient-13" x1="0.312" y1="1.012" x2="0.705" y2="0.257" gradientUnits="objectBoundingBox">
      <stop offset="0.142" stop-color="#59192f"/>
      <stop offset="0.768" stop-color="#a5457d"/>
    </linearGradient>
    <linearGradient id="linear-gradient-14" x1="-0.074" y1="0.98" x2="1.093" y2="0.228" xlink:href="#linear-gradient-13"/>
    <clipPath id="clip-path-2">
      <path id="Path_4589" data-name="Path 4589" d="M339.994,418.372c18.936,24.617-10.515,177.424-21.231,201.213,56.35,60.076,84.38,123.432,88.221,266.666C299.39,914.384,221.354,905.43,221.354,905.43c-6.359-117.615-4.58-159.694-10.527-181.5-8.333-30.558-14.568-86.111-8.333-126.39s30.631-137.369,34.065-231.186C278.15,366.223,312.215,382.261,339.994,418.372Z" transform="translate(-199.961 -366.353)" fill="none"/>
    </clipPath>
    <clipPath id="clip-path-3">
      <path id="Path_4615" data-name="Path 4615" d="M176.258,397.26c-15.326,44.862-16.666,152.777,0,209.721,5.956,20.346,10.967,53.9,9.721,72.222s-5.553,163.889-5.553,163.889c-22.225,2.776-40.376-6.775-40.279-12.5,5.75-50.34,24.292-163.135,9.721-181.943s-22.683-35.378-20.834-48.612c3.225-23.05,15.026-97.869,15.28-118.054s-.318-52.8,8.333-63.889C162.244,405.793,176.258,397.26,176.258,397.26Z" transform="translate(-128.774 -397.26)" fill="none"/>
    </clipPath>
    <linearGradient id="linear-gradient-15" x1="0.198" y1="0.039" x2="0.874" y2="1.142" gradientUnits="objectBoundingBox">
      <stop offset="0.185" stop-color="#a5457d"/>
      <stop offset="1" stop-color="#59192f"/>
    </linearGradient>
  </defs>
  <g id="Group_13078" data-name="Group 13078" transform="translate(-43.406 -167.89)">
    <g id="Group_13076" data-name="Group 13076" transform="translate(43.407 -10.122)">
      <g id="Group_12995" data-name="Group 12995" transform="translate(82.956 762.508)">
        <path id="Path_4516" data-name="Path 4516" d="M195.644,562.657c-12.737,41.37-21.807,79.085-7.693,132.462-3.962,12.383-11.549,6.46-14.914,1.385-12.286-55.2-29.548-78.46-1.431-145.287C180.045,552.918,195.644,562.657,195.644,562.657Z" transform="translate(-68.678 -551.217)" fill="url(#linear-gradient)"/>
        <path id="Path_4517" data-name="Path 4517" d="M276.268,608.776c1.273,8.912,0,21.646-6.366,26.738H127.477c10-15.28,41.831-39.473,62.2-47.114,6.369,11.461,44.568,31.834,53.48,34.38C257.168,613.868,273.722,608.776,276.268,608.776Z" transform="translate(-127.477 -475.69)" fill="url(#linear-gradient-2)"/>
        <circle id="Ellipse_207" data-name="Ellipse 207" cx="18.463" cy="18.463" r="18.463" transform="translate(13.818 102.525)" fill="url(#radial-gradient)"/>
      </g>
      <g id="Group_12996" data-name="Group 12996" transform="translate(291.783 762.508)">
        <path id="Path_4518" data-name="Path 4518" d="M264.536,562.657c-12.737,41.37-21.807,79.085-7.693,132.462-3.962,12.383-11.549,6.46-14.917,1.385-12.283-55.2-29.545-78.46-1.428-145.287C248.938,552.918,264.536,562.657,264.536,562.657Z" transform="translate(-137.57 -551.217)" fill="url(#linear-gradient-3)"/>
        <path id="Path_4519" data-name="Path 4519" d="M345.16,608.776c1.273,8.912,0,21.646-6.366,26.738H196.369c10-15.28,41.831-39.473,62.2-47.114,6.369,11.461,44.568,31.834,53.48,34.38C326.06,613.868,342.614,608.776,345.16,608.776Z" transform="translate(-196.369 -475.69)" fill="url(#linear-gradient-2)"/>
        <circle id="Ellipse_208" data-name="Ellipse 208" cx="18.463" cy="18.463" r="18.463" transform="translate(13.818 102.525)" fill="url(#radial-gradient)"/>
      </g>
      <g id="Group_13011" data-name="Group 13011" transform="translate(17.781 0)">
        <path id="Path_4521" data-name="Path 4521" d="M298.833,358.392c33.325,18.521,46.008,27.539,46.008,27.539-7.423,52.207-8.863,164.156-126.011,176.887s-76.4-85.311-53.48-94.226S298.833,358.392,298.833,358.392Z" transform="translate(-37.971 -180.38)" fill="url(#linear-gradient-5)"/>
        <path id="Path_4522" data-name="Path 4522" d="M154.275,398.6c-7.639,21.646,1.91,51.695,36.014,51.637,39.749-.067,86.863-26.808,90.682-58.642" transform="translate(-12.889 -112.935)" fill="none" stroke="#e36d4f" stroke-miterlimit="10" stroke-width="0.42"/>
        <path id="Path_4523" data-name="Path 4523" d="M170.989,408.245c3.877-3.183,17.263-.461,20.1,6.642,1.273,3.183,0,23.565-5.732,26.111-8.078,3.592-25.474,4.459-26.111-1.273C158.142,429.776,167.445,411.161,170.989,408.245Z" transform="translate(2.049 -81.794)" fill="url(#radial-gradient-3)"/>
        <g id="Group_13008" data-name="Group 13008" transform="matrix(-0.998, 0.07, -0.07, -0.998, 161.64, 263.499)">
          <g id="Group_13007" data-name="Group 13007" clip-path="url(#clip-path)">
            <g id="Group_13006" data-name="Group 13006" transform="translate(1.309 -3.92)">
              <path id="Path_4538" data-name="Path 4538" d="M142.957,384.248l3.822,7.639c2.546,1.273,15.28,1.273,19.1-2.546a45.221,45.221,0,0,0-1.273-8.915Z" transform="translate(-142.957 -377.868)" fill="#fff"/>
              <path id="Path_4539" data-name="Path 4539" d="M151.669,381.816c-.615,1.6.658,5.42,1.931,6.693,2.546,0,3.819-1.273,5.662-3.983.7-2.386-2.683-4.944-2.683-4.944Z" transform="translate(-125.585 -379.582)" fill="#fff"/>
            </g>
          </g>
        </g>
        <ellipse id="Ellipse_217" data-name="Ellipse 217" cx="9.253" cy="3.293" rx="9.253" ry="3.293" transform="translate(165.419 343.426) rotate(-62.342)" fill="url(#linear-gradient-6)"/>
        <ellipse id="Ellipse_218" data-name="Ellipse 218" cx="1.574" cy="4.584" rx="1.574" ry="4.584" transform="translate(165.743 355.483) rotate(-87.429)" fill="url(#linear-gradient-7)"/>
      </g>
      <g id="Group_13012" data-name="Group 13012" transform="translate(0 311.131)">
        <path id="Path_4552" data-name="Path 4552" d="M130.671,481.282c-17.827,8.912-21.646,17.827-30.561,22.919,1.273,22.922,7.642,35.653,16.554,39.476,10.188,5.092,25.465,1.273,28.015-12.734s1.273-21.646,5.092-28.015S130.671,481.282,130.671,481.282Z" transform="translate(-100.11 -241.894)" fill="url(#linear-gradient-8)"/>
        <path id="Path_4553" data-name="Path 4553" d="M180.685,540.495c-6.366,7.641-14.007,15.28-34.38,15.28-7.639-12.734-11.461-35.653-11.461-40.746-7.639,6.366-14,3.819-15.28,14.007s14.007,95.5,31.834,137.521c1.273,68.757,0,138.791-7.639,169.352-5.092,1.273-16.5,1.273-16.5,1.273,2.492-35.653,16.5-148.979,8.857-168.079s-38.2-109.509-33.1-140.067,47.111-43.295,56.026-38.2S180.685,540.495,180.685,540.495Z" transform="translate(-95.371 -224.707)" fill="url(#linear-gradient-9)"/>
        <path id="Path_4554" data-name="Path 4554" d="M133.262,493.98c2.595,9.109-8.915,12.734-9.651,30.709-.218,5.271-4.032,12.289-8.609,10.385-3.434-1.428-4.4-19.063-3.386-24.541C101.825,497.681,110.343,469.788,133.262,493.98Z" transform="translate(-84.874 -235.492)" fill="url(#linear-gradient-10)"/>
        <path id="Path_4555" data-name="Path 4555" d="M199.758,402.308C178.209,431.45,174.2,508.455,170.471,552.563c-22.728,33.459-54.753,68.761-61.119,90.406,3.819,8.915,11.458,19.1,21.646,22.919,15.28-11.458,53.48-36.927,70.034-59.846S226.5,467.925,211.216,446.579,192.117,411.223,199.758,402.308Z" transform="translate(-81.337 -402.308)" fill="url(#linear-gradient-11)"/>
      </g>
      <g id="Group_13069" data-name="Group 13069" transform="translate(85.314 197.806)">
        <path id="Path_4556" data-name="Path 4556" d="M181.786,453.4c-62.392,39.473-24.192,106.96-19.1,123.513-22.919,68.76-34.38,94.229-33.107,94.229,12.734,11.458,24.2,24.192,43.3,24.192-7.642,15.28,0,32.51,0,32.51-2.549,32.431-19.1,194.144-16.554,260.358,106.96,29.285,288.64,29.285,377.339,0-2.14-91.683,26.308-275.042-75.559-370.54,7.639-19.1,49.66-170.628,19.1-205.008s-72.58-49.661-112.053-44.568c-8.915,89.133-53.48,174.447-134.974,173.174S177.967,467.4,181.786,453.4Z" transform="translate(-125.76 -360.445)" fill="url(#radial-gradient-4)"/>
        <path id="Path_4557" data-name="Path 4557" d="M458.1,617.66c7.639-19.1,49.66-170.628,19.1-205.008s-72.58-49.661-112.053-44.568c-8.915,89.133-53.48,174.447-134.974,173.174S177.967,467.4,181.786,453.4c-62.392,39.473-24.192,106.96-19.1,123.513-22.919,68.76-34.38,94.229-33.107,94.229,12.734,11.458,24.2,24.192,43.3,24.192,36.926-11.461,72.58-15.28,159.167-5.092C387.133,696.72,436.455,668.59,458.1,617.66Z" transform="translate(-125.76 -360.445)" fill="url(#radial-gradient-5)"/>
        <g id="Group_13013" data-name="Group 13013" transform="translate(156.065 357.482)">
          <path id="Path_4558" data-name="Path 4558" d="M180.366,494.789c-3.353,69.818,4.974,115.414,69.555,115.6s80.722-54.441,76.717-127.53C303.671,491.961,222.115,501.167,180.366,494.789Z" transform="translate(-179.741 -482.855)" fill="url(#radial-gradient-6)"/>
          <path id="Path_4559" data-name="Path 4559" d="M184.211,493.76c-3.41,61.028,3.431,98.393,58.242,98.9s68.809-44.62,66-108.542C277.515,490.044,222.28,497.161,184.211,493.76Z" transform="translate(-172.139 -480.283)" fill="url(#linear-gradient-12)"/>
        </g>
        <path id="Path_4560" data-name="Path 4560" d="M179.074,489.438c-9.642,1.064-34.72-1.688-39.479-3.4,2.483,38.927,2.992,104.611,2.992,104.611C155.788,591.272,173.708,592.215,179.074,489.438Z" transform="translate(-105.221 -118.898)" fill="url(#radial-gradient-7)"/>
        <path id="Path_4561" data-name="Path 4561" d="M172.576,489.722c-8.2,1.273-29.721-2.546-33.819-3.819,3.074,33.107,5.123,89.106,5.123,89.106C155.153,575.036,170.527,577.583,172.576,489.722Z" transform="translate(-106.923 -119.182)" fill="url(#radial-gradient-8)"/>
        <g id="Group_13014" data-name="Group 13014" transform="translate(69.8 179.476)">
          <path id="Path_4562" data-name="Path 4562" d="M206.266,568.566c-11.41-7.239-22.455-15.038-22.813-27.205-1.131-38.318,14.286-88.96,16.475-116.548a110.935,110.935,0,0,1-13.922.655,109.557,109.557,0,0,1-15.9-1.337c-1.406,42.352-23.356,105.159-17.969,118.366C157.9,556.641,166,566.065,178.557,569.63c7.236,22.416-12.561,289.982,0,316.157,12.289,1.749,24.968,3.231,37.9,4.45C215.387,861.016,203.531,589.4,206.266,568.566Z" transform="translate(-151.282 -424.131)" fill="url(#radial-gradient-9)"/>
        </g>
        <path id="Path_4563" data-name="Path 4563" d="M339.994,418.372c18.936,24.617-10.515,177.424-21.231,201.213,56.35,60.076,84.38,123.432,88.221,266.666C299.39,914.384,221.354,905.43,221.354,905.43c-6.359-117.615-4.58-159.694-10.527-181.5-8.333-30.558-14.568-86.111-8.333-126.39s30.631-137.369,34.065-231.186C278.15,366.223,312.215,382.261,339.994,418.372Z" transform="translate(17.397 -362.016)" fill="url(#linear-gradient-13)"/>
        <path id="Path_4564" data-name="Path 4564" d="M176.258,397.26c-15.326,44.862-16.666,152.777,0,209.721,5.956,20.346,10.967,53.9,9.721,72.222s-5.553,163.889-5.553,163.889c-22.225,2.776-40.376-6.775-40.279-12.5,5.75-50.34,24.292-163.135,9.721-181.943s-22.683-35.378-20.834-48.612c3.225-23.05,15.026-97.869,15.28-118.054s-.318-52.8,8.333-63.889C162.244,405.793,176.258,397.26,176.258,397.26Z" transform="translate(-127.2 -299.236)" fill="url(#linear-gradient-14)"/>
        <g id="Group_13041" data-name="Group 13041" transform="translate(217.359 4.337)" opacity="0.2">
          <g id="Group_13040" data-name="Group 13040" clip-path="url(#clip-path-2)">
            <g id="Group_13039" data-name="Group 13039" transform="translate(-22.22 -50.609)">
              <g id="Group_13015" data-name="Group 13015" transform="translate(32.452 4.826)">
                <path id="Path_4565" data-name="Path 4565" d="M208.281,415.572l-4.944-5.556c23.441-20.846,92.962-57.227,95.911-58.766l3.44,6.593C301.976,358.215,231.036,395.338,208.281,415.572Z" transform="translate(-203.337 -351.249)" fill="#211c20"/>
              </g>
              <g id="Group_13016" data-name="Group 13016" transform="translate(21.71 17.011)">
                <path id="Path_4566" data-name="Path 4566" d="M206.671,457.912l-6.878-2.84c6.866-16.626,114.168-91.337,126.378-99.8l4.238,6.114C284.977,392.874,211.206,446.924,206.671,457.912Z" transform="translate(-199.793 -355.269)" fill="#211c20"/>
              </g>
              <g id="Group_13017" data-name="Group 13017" transform="translate(19.961 61.364)">
                <path id="Path_4567" data-name="Path 4567" d="M204.224,482.117l-5.008-5.5C214.327,462.863,348.389,373.69,354.087,369.9l4.119,6.193C356.816,377.018,218.919,468.74,204.224,482.117Z" transform="translate(-199.216 -369.901)" fill="#211c20"/>
              </g>
              <g id="Group_13018" data-name="Group 13018" transform="translate(12.455 107.933)">
                <path id="Path_4568" data-name="Path 4568" d="M201.754,511.772l-5.014-5.5c20.036-18.263,164.59-116.824,170.734-121.01l4.189,6.147C370.163,392.433,221.4,493.858,201.754,511.772Z" transform="translate(-196.74 -385.264)" fill="#211c20"/>
              </g>
              <g id="Group_13019" data-name="Group 13019" transform="translate(2.728 169.785)">
                <path id="Path_4569" data-name="Path 4569" d="M198.9,526.194l-5.365-5.15C204.24,509.892,361.8,409.919,368.5,405.669l3.983,6.281C327.044,440.767,207.272,517.473,198.9,526.194Z" transform="translate(-193.531 -405.669)" fill="#211c20"/>
              </g>
              <g id="Group_13020" data-name="Group 13020" transform="translate(0 228.555)">
                <path id="Path_4570" data-name="Path 4570" d="M196.951,543.924l-4.319-6.053c16.875-12.049,168.448-108.7,174.893-112.813l4,6.272C369.946,432.335,213.668,531.99,196.951,543.924Z" transform="translate(-192.631 -425.057)" fill="#211c20"/>
              </g>
              <g id="Group_13021" data-name="Group 13021" transform="translate(1.14 293.247)">
                <path id="Path_4571" data-name="Path 4571" d="M198.515,557.039l-5.508-5C204.986,538.851,344.5,450.17,350.44,446.4l3.986,6.281C314.244,478.2,207.9,546.705,198.515,557.039Z" transform="translate(-193.007 -446.399)" fill="#211c20"/>
              </g>
              <g id="Group_13022" data-name="Group 13022" transform="translate(22.07 369)">
                <path id="Path_4572" data-name="Path 4572" d="M206.068,618.935l-6.156-4.171c17.918-26.453,172.716-138.612,179.3-143.374l4.359,6.026C381.971,478.574,223.258,593.56,206.068,618.935Z" transform="translate(-199.912 -471.39)" fill="#211c20"/>
              </g>
              <g id="Group_13023" data-name="Group 13023" transform="translate(25.135 406.315)">
                <path id="Path_4573" data-name="Path 4573" d="M207.1,650.069l-6.178-4.147C217.755,620.83,395.27,489.287,402.818,483.7l4.426,5.978C343.66,536.744,220,630.836,207.1,650.069Z" transform="translate(-200.923 -483.7)" fill="#211c20"/>
              </g>
              <g id="Group_13024" data-name="Group 13024" transform="translate(25.417 456.433)">
                <path id="Path_4574" data-name="Path 4574" d="M207.627,662.526l-6.611-3.407c6.144-12.095,169.009-134.474,201.6-158.885l4.459,5.956C329.846,564.038,213,653.411,207.627,662.526Z" transform="translate(-201.016 -500.234)" fill="#211c20"/>
              </g>
              <g id="Group_13025" data-name="Group 13025" transform="translate(60.994 501.171)">
                <path id="Path_4575" data-name="Path 4575" d="M217.927,653.663l-5.174-5.341c10.4-10.082,168.018-128.3,174.72-133.329l4.465,5.95C335.275,563.435,225.987,645.854,217.927,653.663Z" transform="translate(-212.753 -514.993)" fill="#211c20"/>
              </g>
              <g id="Group_13026" data-name="Group 13026" transform="translate(147.733 538.022)">
                <path id="Path_4576" data-name="Path 4576" d="M247.43,608.287l-6.062-4.31c13.049-18.351,94.732-74.447,98.2-76.826l4.207,6.135C342.938,533.861,259.719,591,247.43,608.287Z" transform="translate(-241.368 -527.15)" fill="#211c20"/>
              </g>
              <g id="Group_13027" data-name="Group 13027" transform="translate(83.316)">
                <path id="Path_4577" data-name="Path 4577" d="M327.107,472.373c-4.68-12.3-66.547-76.981-106.99-117.46l5.265-5.256c10.412,10.421,101.925,102.337,108.679,120.067Z" transform="translate(-220.117 -349.657)" fill="#211c20"/>
              </g>
              <g id="Group_13028" data-name="Group 13028" transform="translate(40.937 6.117)">
                <path id="Path_4578" data-name="Path 4578" d="M355.372,519.378c-5.253-21.158-109.509-124.35-149.237-162.325l5.141-5.378c14.78,14.129,144.586,138.8,151.316,165.911Z" transform="translate(-206.136 -351.675)" fill="#211c20"/>
              </g>
              <g id="Group_13029" data-name="Group 13029" transform="translate(15.129 71.164)">
                <path id="Path_4579" data-name="Path 4579" d="M366.922,534.8c-6.541-20.388-124.429-119.443-169.3-155.89l4.689-5.775C219,386.69,365.6,506.32,374,532.525Z" transform="translate(-197.622 -373.134)" fill="#211c20"/>
              </g>
              <g id="Group_13030" data-name="Group 13030" transform="translate(15.029 132.577)">
                <path id="Path_4580" data-name="Path 4580" d="M356.107,550.178c-5.841-12.022-98-97.036-158.518-151.243l4.962-5.541C218.071,407.3,354.44,529.723,362.8,546.929Z" transform="translate(-197.589 -393.394)" fill="#211c20"/>
              </g>
              <g id="Group_13031" data-name="Group 13031" transform="translate(7.821 204.105)">
                <path id="Path_4581" data-name="Path 4581" d="M211.1,663.754l-4.756-5.72c16.76-13.931,141.076-96.526,163.653-111.5-15.75-16.178-113.044-82.583-174.784-123.335l4.1-6.208c28.727,18.96,172.389,114.283,179.4,128.833l1.407,2.922-2.7,1.791C375.93,551.523,228.839,649,211.1,663.754Z" transform="translate(-195.211 -416.991)" fill="#211c20"/>
              </g>
              <g id="Group_13032" data-name="Group 13032" transform="translate(3.531 258.194)">
                <path id="Path_4582" data-name="Path 4582" d="M402.251,569.764c-7.457-9.112-128.745-81.843-208.454-128.509l3.759-6.42c20.415,11.952,199.752,117.142,210.452,130.216Z" transform="translate(-193.796 -434.835)" fill="#211c20"/>
              </g>
              <g id="Group_13033" data-name="Group 13033" transform="translate(8.833 317.921)">
                <path id="Path_4583" data-name="Path 4583" d="M412.975,580.766c-5.038-6.754-67.108-39.176-116.978-65.226-45.629-23.835-88.727-46.347-100.452-55.017l4.423-5.984c11.258,8.327,54.107,30.709,99.473,54.408,70.585,36.872,113.85,59.8,119.5,67.369Z" transform="translate(-195.545 -454.539)" fill="#211c20"/>
              </g>
              <g id="Group_13034" data-name="Group 13034" transform="translate(17.557 385.578)">
                <path id="Path_4584" data-name="Path 4584" d="M416.211,578.89c-10.943-10.713-95.687-45.171-151.764-67.972-41.055-16.693-62.64-25.532-66.023-28.257l4.656-5.8c3.077,2.331,32.752,14.4,64.171,27.169,77.784,31.628,143.077,58.691,154.165,69.546Z" transform="translate(-198.423 -476.859)" fill="#211c20"/>
              </g>
              <g id="Group_13035" data-name="Group 13035" transform="translate(17.981 430.98)">
                <path id="Path_4585" data-name="Path 4585" d="M416.069,591.149C400.779,577.675,216.244,501.67,198.563,499.2l1.027-7.366c10.015,1.4,63.5,22.24,111.167,42.107,22.989,9.582,98.885,41.628,110.231,51.628Z" transform="translate(-198.563 -491.837)" fill="#211c20"/>
              </g>
              <g id="Group_13036" data-name="Group 13036" transform="translate(28.339 486.257)">
                <path id="Path_4586" data-name="Path 4586" d="M415.642,602.031c-21.019-15.311-195.3-82.607-213.662-84.559l.788-7.4c19.576,2.082,194.8,69.591,217.254,85.944Z" transform="translate(-201.98 -510.073)" fill="#211c20"/>
              </g>
              <g id="Group_13037" data-name="Group 13037" transform="translate(29.994 531.42)">
                <path id="Path_4587" data-name="Path 4587" d="M399.428,613.442c-17.951-14.6-172.428-72.771-196.9-81.461l2.492-7.008c14.629,5.2,179.176,66.493,199.1,82.7Z" transform="translate(-202.526 -524.972)" fill="#211c20"/>
              </g>
              <g id="Group_13038" data-name="Group 13038" transform="translate(30.088 584.736)">
                <path id="Path_4588" data-name="Path 4588" d="M305.479,585.48c-10.367-10.3-52.31-21.779-77.369-28.639-15.387-4.213-22.9-6.311-25.553-7.957l3.919-6.323c1.855,1.152,12.91,4.177,23.6,7.105,29.073,7.96,68.891,18.857,80.646,30.536Z" transform="translate(-202.557 -542.561)" fill="#211c20"/>
              </g>
            </g>
          </g>
        </g>
        <path id="Path_4590" data-name="Path 4590" d="M233.813,364.922c-1.855,34.935-36.972,209.985-33.534,255.393,31.879-30.018,60.74-94,66.117-106.936a102.629,102.629,0,0,0-23.789-12.934c17.423-3.074,31.946-13.889,31.946-13.889.782-43.562,1.734-105.426-15.8-117.3C241.74,367.741,233.813,364.922,233.813,364.922Z" transform="translate(17.561 -364.922)" fill="#59192f"/>
        <g id="Group_13068" data-name="Group 13068" transform="translate(1.574 98.024)">
          <g id="Group_13067" data-name="Group 13067" transform="translate(0 0)" clip-path="url(#clip-path-3)">
            <g id="Group_13066" data-name="Group 13066" transform="translate(-70.34 -68.994)" opacity="0.3">
              <g id="Group_13042" data-name="Group 13042" transform="translate(27.775 4.132)">
                <path id="Path_4591" data-name="Path 4591" d="M118.961,430.909l-4.229-4.756c20.058-17.839,79.555-48.976,82.077-50.291l2.946,5.644C199.146,381.825,138.436,413.592,118.961,430.909Z" transform="translate(-114.732 -375.862)" fill="#211c20"/>
              </g>
              <g id="Group_13043" data-name="Group 13043" transform="translate(18.581 14.559)">
                <path id="Path_4592" data-name="Path 4592" d="M117.583,467.141l-5.884-2.428c5.878-14.232,97.7-78.166,108.151-85.411l3.628,5.232C184.6,411.485,121.466,457.741,117.583,467.141Z" transform="translate(-111.699 -379.302)" fill="#211c20"/>
              </g>
              <g id="Group_13044" data-name="Group 13044" transform="translate(17.084 52.513)">
                <path id="Path_4593" data-name="Path 4593" d="M115.491,487.855l-4.286-4.7c12.931-11.77,127.657-88.084,132.534-91.328l3.525,5.3C246.073,397.916,128.068,476.409,115.491,487.855Z" transform="translate(-111.205 -391.823)" fill="#211c20"/>
              </g>
              <g id="Group_13045" data-name="Group 13045" transform="translate(10.661 92.368)">
                <path id="Path_4594" data-name="Path 4594" d="M113.375,513.234l-4.289-4.7C126.231,492.9,249.941,408.554,255.2,404.971l3.586,5.262C257.5,411.106,130.189,497.9,113.375,513.234Z" transform="translate(-109.086 -404.971)" fill="#211c20"/>
              </g>
              <g id="Group_13046" data-name="Group 13046" transform="translate(2.337 145.299)">
                <path id="Path_4595" data-name="Path 4595" d="M110.932,525.577l-4.592-4.407c9.163-9.545,144-95.1,149.737-98.736l3.41,5.377C220.6,452.472,118.1,518.114,110.932,525.577Z" transform="translate(-106.34 -422.433)" fill="#211c20"/>
              </g>
              <g id="Group_13047" data-name="Group 13047" transform="translate(0 195.596)">
                <path id="Path_4596" data-name="Path 4596" d="M109.267,540.748l-3.7-5.18c14.444-10.312,144.156-93.025,149.67-96.542l3.422,5.368C257.312,445.252,123.574,530.536,109.267,540.748Z" transform="translate(-105.569 -439.026)" fill="#211c20"/>
              </g>
              <g id="Group_13048" data-name="Group 13048" transform="translate(0.979 250.955)">
                <path id="Path_4597" data-name="Path 4597" d="M110.6,551.972l-4.711-4.28c10.249-11.285,129.649-87.178,134.726-90.4l3.413,5.374C209.642,484.506,118.635,543.127,110.6,551.972Z" transform="translate(-105.892 -457.289)" fill="#211c20"/>
              </g>
              <g id="Group_13049" data-name="Group 13049" transform="translate(18.888 315.784)">
                <path id="Path_4598" data-name="Path 4598" d="M117.071,604.942l-5.271-3.571c15.335-22.634,147.809-118.621,153.441-122.7l3.732,5.156C267.6,484.823,131.782,583.229,117.071,604.942Z" transform="translate(-111.8 -478.676)" fill="#211c20"/>
              </g>
              <g id="Group_13050" data-name="Group 13050" transform="translate(21.513 347.715)">
                <path id="Path_4599" data-name="Path 4599" d="M117.952,631.587l-5.286-3.547c14.4-21.476,166.317-134.047,172.777-138.83l3.789,5.117C234.815,534.606,128.992,615.127,117.952,631.587Z" transform="translate(-112.666 -489.21)" fill="#211c20"/>
              </g>
              <g id="Group_13051" data-name="Group 13051" transform="translate(21.752 390.61)">
                <path id="Path_4600" data-name="Path 4600" d="M118.4,642.243l-5.659-2.913C118,628.978,257.383,524.249,285.267,503.361l3.819,5.093C222.994,557.959,123,634.443,118.4,642.243Z" transform="translate(-112.745 -503.361)" fill="#211c20"/>
              </g>
              <g id="Group_13052" data-name="Group 13052" transform="translate(52.198 428.895)">
                <path id="Path_4601" data-name="Path 4601" d="M127.221,634.661l-4.432-4.571c8.906-8.63,143.786-109.8,149.524-114.1l3.819,5.089C227.642,557.446,134.117,627.977,127.221,634.661Z" transform="translate(-122.789 -515.991)" fill="#211c20"/>
              </g>
              <g id="Group_13053" data-name="Group 13053" transform="translate(126.429 460.428)">
                <path id="Path_4602" data-name="Path 4602" d="M152.464,595.83l-5.186-3.689c11.167-15.7,81.07-63.71,84.038-65.747l3.6,5.253C234.2,532.138,162.983,581.038,152.464,595.83Z" transform="translate(-147.278 -526.394)" fill="#211c20"/>
              </g>
              <g id="Group_13054" data-name="Group 13054" transform="translate(71.304)">
                <path id="Path_4603" data-name="Path 4603" d="M220.65,479.516c-4-10.521-56.951-65.875-91.558-100.516l4.5-4.5c8.909,8.921,87.227,87.578,93,102.753Z" transform="translate(-129.092 -374.499)" fill="#211c20"/>
              </g>
              <g id="Group_13055" data-name="Group 13055" transform="translate(35.035 5.235)">
                <path id="Path_4604" data-name="Path 4604" d="M244.842,519.746c-4.5-18.112-93.716-106.417-127.715-138.918l4.4-4.6c12.646,12.092,123.732,118.788,129.491,141.986Z" transform="translate(-117.127 -376.226)" fill="#211c20"/>
              </g>
              <g id="Group_13056" data-name="Group 13056" transform="translate(12.949 60.9)">
                <path id="Path_4605" data-name="Path 4605" d="M254.725,532.941c-5.6-17.451-106.484-102.219-144.884-133.41l4.013-4.941c14.28,11.6,139.737,113.98,146.93,136.405Z" transform="translate(-109.841 -394.59)" fill="#211c20"/>
              </g>
              <g id="Group_13057" data-name="Group 13057" transform="translate(12.861 113.459)">
                <path id="Path_4606" data-name="Path 4606" d="M245.469,546.1c-5-10.288-83.862-83.041-135.657-129.43l4.247-4.741c13.286,11.9,129.985,116.666,137.136,131.392Z" transform="translate(-109.812 -411.929)" fill="#211c20"/>
              </g>
              <g id="Group_13058" data-name="Group 13058" transform="translate(6.693 174.669)">
                <path id="Path_4607" data-name="Path 4607" d="M121.372,643.3l-4.068-4.9c14.344-11.919,120.731-82.6,140.049-95.417-13.477-13.847-96.739-70.676-149.576-105.547l3.507-5.314c24.586,16.226,147.53,97.8,153.529,110.255l1.206,2.5-2.316,1.534C262.433,547.254,136.559,630.677,121.372,643.3Z" transform="translate(-107.777 -432.122)" fill="#211c20"/>
              </g>
              <g id="Group_13059" data-name="Group 13059" transform="translate(3.025 220.958)">
                <path id="Path_4608" data-name="Path 4608" d="M284.955,562.862c-6.378-7.8-110.176-70.039-178.388-109.973l3.216-5.5c17.469,10.227,170.946,100.246,180.1,111.437Z" transform="translate(-106.567 -447.393)" fill="#211c20"/>
              </g>
              <g id="Group_13060" data-name="Group 13060" transform="translate(7.563 272.074)">
                <path id="Path_4609" data-name="Path 4609" d="M294.133,572.277c-4.31-5.781-57.43-33.526-100.109-55.82-39.045-20.4-75.929-39.661-85.96-47.081l3.783-5.12c9.636,7.126,46.305,26.278,85.123,46.556,60.409,31.555,97.436,51.179,102.268,57.654Z" transform="translate(-108.064 -464.256)" fill="#211c20"/>
              </g>
              <g id="Group_13061" data-name="Group 13061" transform="translate(15.026 329.97)">
                <path id="Path_4610" data-name="Path 4610" d="M296.9,570.673c-9.363-9.169-81.879-38.654-129.867-58.166-35.141-14.286-53.613-21.852-56.511-24.186l3.986-4.965c2.634,1.995,28.033,12.322,54.923,23.256C236,533.674,291.869,556.836,301.357,566.124Z" transform="translate(-110.526 -483.356)" fill="#211c20"/>
              </g>
              <g id="Group_13062" data-name="Group 13062" transform="translate(15.39 368.825)">
                <path id="Path_4611" data-name="Path 4611" d="M296.785,581.163c-13.086-11.531-171-76.572-186.139-78.685l.882-6.3c16.256,2.267,175.317,67.745,189.464,80.215Z" transform="translate(-110.646 -496.174)" fill="#211c20"/>
              </g>
              <g id="Group_13063" data-name="Group 13063" transform="translate(24.253 416.13)">
                <path id="Path_4612" data-name="Path 4612" d="M296.42,590.477c-17.987-13.1-167.136-70.694-182.85-72.365l.673-6.332c16.757,1.782,166.708,59.554,185.923,73.553Z" transform="translate(-113.57 -511.78)" fill="#211c20"/>
              </g>
              <g id="Group_13064" data-name="Group 13064" transform="translate(25.671 454.778)">
                <path id="Path_4613" data-name="Path 4613" d="M282.544,600.241c-15.365-12.492-147.563-62.277-168.506-69.712l2.131-6c12.522,4.444,153.335,56.905,170.388,70.77Z" transform="translate(-114.038 -524.53)" fill="#211c20"/>
              </g>
              <g id="Group_13065" data-name="Group 13065" transform="translate(25.75 500.407)">
                <path id="Path_4614" data-name="Path 4614" d="M202.142,576.312c-8.872-8.815-44.768-18.642-66.214-24.514-13.165-3.6-19.594-5.4-21.864-6.8l3.353-5.411c1.588.982,11.046,3.574,20.191,6.078,24.883,6.811,58.96,16.141,69.021,26.135Z" transform="translate(-114.064 -539.583)" fill="#211c20"/>
              </g>
            </g>
          </g>
        </g>
        <path id="Path_4616" data-name="Path 4616" d="M184.257,395.427c-26.39,33.334-19.561,154.45-13.947,182.086-24.883-23.892-41.61-80.7-41.61-80.7a39.638,39.638,0,0,0,20.582-14.38,56.224,56.224,0,0,1-21.028-2.995C134.257,455.148,148.146,409.316,184.257,395.427Z" transform="translate(-128.255 -302.959)" fill="#59192f"/>
        <circle id="Ellipse_219" data-name="Ellipse 219" cx="18.75" cy="18.75" r="18.75" transform="translate(226.835 270.245)" fill="#59192f"/>
        <circle id="Ellipse_220" data-name="Ellipse 220" cx="15.972" cy="15.972" r="15.972" transform="translate(242.113 368.857)" fill="#59192f"/>
        <circle id="Ellipse_221" data-name="Ellipse 221" cx="14.583" cy="14.583" r="14.583" transform="translate(250.446 474.412)" fill="#441527"/>
      </g>
      <g id="Group_13075" data-name="Group 13075" transform="translate(386.556 241.166)">
        <path id="Path_4625" data-name="Path 4625" d="M273.047,384.338c37.023,24.786,77.366,132.34,65.9,192.189-29.285,15.277-40.746,12.731-40.746,12.731-31.834-43.292-47.114-72.58-63.665-105.687S231.331,356.415,273.047,384.338Z" transform="translate(-227.634 -379.227)" fill="url(#linear-gradient-15)"/>
      </g>
    </g>
    <path id="Path_4645" data-name="Path 4645" d="M183.863,432.906c17.287-10.679,30.076-25.353,31.989-41.31" transform="translate(113.418 -123.057)" fill="none" stroke="#e36d4f" stroke-miterlimit="10" stroke-width="0.42"/>
  </g>
</svg>
