<svg xmlns="http://www.w3.org/2000/svg" xmlns:xlink="http://www.w3.org/1999/xlink" width="157.864" height="636.714" viewBox="0 0 157.864 636.714">
  <defs>
    <linearGradient id="linear-gradient" x1="0.466" y1="-0.037" x2="0.519" y2="0.903" gradientUnits="objectBoundingBox">
      <stop offset="0" stop-color="#6d515b"/>
      <stop offset="1" stop-color="#1b2139"/>
    </linearGradient>
    <linearGradient id="linear-gradient-2" x1="-0.157" y1="0.899" x2="0.967" y2="0.298" gradientUnits="objectBoundingBox">
      <stop offset="0.465" stop-color="#fff" stop-opacity="0"/>
      <stop offset="1" stop-color="#e4e9eb" stop-opacity="0.4"/>
    </linearGradient>
    <linearGradient id="linear-gradient-3" x1="-0.161" y1="-0.15" x2="0.861" y2="0.934" gradientUnits="objectBoundingBox">
      <stop offset="0" stop-color="#fff" stop-opacity="0"/>
      <stop offset="1" stop-color="#e4e9eb" stop-opacity="0.4"/>
    </linearGradient>
    <linearGradient id="linear-gradient-4" x1="0.474" y1="0.813" x2="0.489" y2="0.525" gradientUnits="objectBoundingBox">
      <stop offset="0.641" stop-color="#ffd7a5"/>
      <stop offset="1" stop-color="#faa96c"/>
    </linearGradient>
    <linearGradient id="linear-gradient-5" x1="0.46" y1="0.81" x2="0.481" y2="0.522" xlink:href="#linear-gradient-4"/>
    <linearGradient id="linear-gradient-6" x1="0.476" y1="1.272" x2="0.514" y2="0.125" gradientUnits="objectBoundingBox">
      <stop offset="0.464" stop-color="#fabb80"/>
      <stop offset="1" stop-color="#faa16c"/>
    </linearGradient>
    <linearGradient id="linear-gradient-7" x1="1.186" y1="0.078" x2="0.623" y2="0.515" gradientUnits="objectBoundingBox">
      <stop offset="0" stop-color="#f55"/>
      <stop offset="1" stop-color="#922855"/>
    </linearGradient>
    <linearGradient id="linear-gradient-8" x1="0.549" y1="0.076" x2="0.374" y2="1.054" xlink:href="#linear-gradient-4"/>
    <linearGradient id="linear-gradient-9" x1="0.53" y1="1.184" x2="0.477" y2="0.108" xlink:href="#linear-gradient-4"/>
    <linearGradient id="linear-gradient-10" x1="0.549" y1="1.186" x2="0.461" y2="0.026" xlink:href="#linear-gradient-4"/>
    <linearGradient id="linear-gradient-11" x1="32.809" y1="-23.306" x2="31.945" y2="-22.061" xlink:href="#linear-gradient-4"/>
    <linearGradient id="linear-gradient-12" x1="17.163" y1="-311.777" x2="15.592" y2="-311.368" gradientUnits="objectBoundingBox">
      <stop offset="0.641" stop-color="#fabb80"/>
      <stop offset="1" stop-color="#faa96c"/>
    </linearGradient>
    <clipPath id="clip-path">
      <path id="Path_5374" data-name="Path 5374" d="M1502.775,280.607c-7.935-8.845-14.213-13.525-14.213-2.606C1493.446,281.9,1500.247,283.993,1502.775,280.607Z" transform="translate(-1488.562 -271.649)" fill="none"/>
    </clipPath>
    <linearGradient id="linear-gradient-13" y1="0.5" x2="1" y2="0.5" gradientUnits="objectBoundingBox">
      <stop offset="0" stop-color="#bb9bb7"/>
      <stop offset="0.671" stop-color="#7b3f3f"/>
    </linearGradient>
    <linearGradient id="linear-gradient-14" x1="58.304" y1="-17.407" x2="58.328" y2="-18.243" gradientUnits="objectBoundingBox">
      <stop offset="0" stop-color="#ddf5f5" stop-opacity="0.4"/>
      <stop offset="1" stop-color="#c6d9db" stop-opacity="0"/>
    </linearGradient>
    <linearGradient id="linear-gradient-15" x1="0.708" y1="-0.065" x2="0.487" y2="0.872" xlink:href="#linear-gradient-12"/>
    <clipPath id="clip-path-2">
      <path id="Path_5379" data-name="Path 5379" d="M1504.051,282.631c4.714-13.665,17.973-19.9,24.213-9.765A41.486,41.486,0,0,1,1504.051,282.631Z" transform="translate(-1504.051 -267.853)" fill="none"/>
    </clipPath>
    <linearGradient id="linear-gradient-17" x1="43.669" y1="-14.219" x2="43.69" y2="-15.055" xlink:href="#linear-gradient-14"/>
    <linearGradient id="linear-gradient-18" x1="0.463" y1="-0.064" x2="0.575" y2="1.27" xlink:href="#linear-gradient-13"/>
    <linearGradient id="linear-gradient-19" x1="0.448" y1="-0.209" x2="0.603" y2="1.701" xlink:href="#linear-gradient-13"/>
    <linearGradient id="linear-gradient-20" y1="0.5" x2="1" y2="0.5" gradientUnits="objectBoundingBox">
      <stop offset="0" stop-color="#fa9ea5"/>
      <stop offset="1" stop-color="#f7496d"/>
    </linearGradient>
    <linearGradient id="linear-gradient-21" x1="0" y1="0.5" x2="1" y2="0.5" xlink:href="#linear-gradient-20"/>
    <linearGradient id="linear-gradient-22" y1="0.5" x2="1" y2="0.5" gradientUnits="objectBoundingBox">
      <stop offset="0" stop-color="#5d7d91"/>
      <stop offset="1" stop-color="#374b6b"/>
    </linearGradient>
    <linearGradient id="linear-gradient-23" y1="0.5" x2="1" y2="0.5" gradientUnits="objectBoundingBox">
      <stop offset="0" stop-color="#b5ffff"/>
      <stop offset="0.675" stop-color="#89c9ff"/>
    </linearGradient>
    <clipPath id="clip-path-3">
      <path id="Path_5398" data-name="Path 5398" d="M1552.657,302.249c-.465,10.766-4.4,17.279,1.2,19.325s31.331,10.628,31.331,17.648-18.719,39-22.619,57.72-16.38,37.44-14.821,42.9c-38.219,16.38-52.708,8.58-54.434,0s2.174-27.3-1.726-31.2-14.039-10.921-16.38-18.721c6.241-9.36,19.5-25.739,18.721-33.54s2.339-24.96,8.58-28.08,19.65-5.361,20.745-10.09a109.57,109.57,0,0,0,1.726-12.131C1530.585,301.781,1548.989,299.595,1552.657,302.249Z" transform="translate(-1475.204 -301.093)" fill="none"/>
    </clipPath>
    <linearGradient id="linear-gradient-24" x1="0" y1="0.5" x2="1" y2="0.5" xlink:href="#linear-gradient-6"/>
    <linearGradient id="linear-gradient-25" x1="0.449" y1="0.019" x2="0.588" y2="0.903" gradientUnits="objectBoundingBox">
      <stop offset="0" stop-color="#404e4f"/>
      <stop offset="0.311" stop-color="#394547"/>
      <stop offset="0.802" stop-color="#292f33"/>
      <stop offset="1" stop-color="#212429"/>
    </linearGradient>
    <linearGradient id="linear-gradient-26" x1="0.413" y1="0.04" x2="0.578" y2="0.912" xlink:href="#linear-gradient-7"/>
    <linearGradient id="linear-gradient-27" x1="0.419" y1="0.041" x2="0.572" y2="0.911" xlink:href="#linear-gradient-7"/>
    <linearGradient id="linear-gradient-28" x1="0.628" y1="0.156" x2="0.346" y2="0.964" xlink:href="#linear-gradient-7"/>
    <linearGradient id="linear-gradient-29" x1="0.524" y1="0.152" x2="0.342" y2="0.953" xlink:href="#linear-gradient-7"/>
    <linearGradient id="linear-gradient-30" x1="0.326" y1="-0.126" x2="0.501" y2="0.762" xlink:href="#linear-gradient-7"/>
    <linearGradient id="linear-gradient-31" x1="0.421" y1="0.108" x2="0.586" y2="0.843" gradientUnits="objectBoundingBox">
      <stop offset="0.219" stop-color="#5f89bf"/>
      <stop offset="1" stop-color="#183773"/>
    </linearGradient>
    <linearGradient id="linear-gradient-32" x1="0.946" y1="0.016" x2="0.003" y2="0.693" xlink:href="#linear-gradient-31"/>
  </defs>
  <g id="Group_13400" data-name="Group 13400" transform="translate(-2.328)">
    <path id="Path_5356" data-name="Path 5356" d="M1562.291,250.852c-.78-21.06-15.6-21.06-24.96-20.28s-39.781,8.58-63.961,41.341c9.361,38.219,17.941,72.54,14.821,115.439,3.12.78,10.92-.78,10.92-.78,1.559-9.359,2.339-28.86,2.339-34.319,2.341,14.039,3.9,24.18,3.9,30.419,3.9,3.9,68.64,88.92,80.341,93.6a107.257,107.257,0,0,0,33.541-11.7c-12.481-42.119-38.039-131.416-31.2-154.44s10.921-39,10.921-39C1592.712,249.293,1568.481,243.563,1562.291,250.852Z" transform="translate(-1459.041 -230.341)" fill="url(#linear-gradient)"/>
    <path id="Path_5357" data-name="Path 5357" d="M1480.429,263.348c29.011,3.12,48.825.167,60.915-8.5-6.239-2.506-12.3-5.609-16.486-5.577,9.573-4.613,19.834-3.934,24.985,0C1546.887,228.282,1519.745,224.348,1480.429,263.348Z" transform="translate(-1454.084 -228.016)" fill="url(#linear-gradient-2)"/>
    <path id="Path_5358" data-name="Path 5358" d="M1535.356,245.6c5.459,5.078,6.631,8.779,6.631,8.779a17.447,17.447,0,0,0-12.481-2.341c4.681,5.461,9.361,13.493,10.141,15.6-4.68.548-13.26-3.12-14.041-5.459,2.341,6.239,5.461,10.919,19.444,12.9,4.132.582,13.7-14.737,13.7-14.737C1552.126,250.477,1545.105,243.838,1535.356,245.6Z" transform="translate(-1422.355 -219.825)" fill="url(#linear-gradient-3)"/>
    <path id="Path_5359" data-name="Path 5359" d="M1529.568,382.44c23.4,11.7,49.24,38.679,49.971,55.219s-11.75,89.082-14.87,103.121c16.38,23.4,23.4,39,22.619,60.842s-29.258,129.635-29.258,129.635-15.982-156.936-15.982-168.636c-17.939-39-44.492-156.948-40.577-177.924C1524.126,377.064,1529.568,382.44,1529.568,382.44Z" transform="translate(-1439.578 -124.807)" fill="url(#linear-gradient-4)"/>
    <path id="Path_5360" data-name="Path 5360" d="M1521.929,384.459c19.926,21.518,28.048,38.543,27.828,55.1s-10.65,95.645-14.569,109.483c15.011,24.3,14.94,32.893,12.909,54.652s-36.638,127.746-36.638,127.746-6.581-151.218-5.912-162.9c-15.675-39.964-23.831-164.142-18.719-184.859C1509.882,377.357,1521.929,384.459,1521.929,384.459Z" transform="translate(-1450.657 -124.486)" fill="url(#linear-gradient-5)"/>
    <path id="Path_5361" data-name="Path 5361" d="M1531.822,289.467c0,12.679-.938,38.5-.938,38.5s-26.213,3.982-27.457,0c1.876-7.1,1.917-16.647,1.9-27.086S1531.822,289.467,1531.822,289.467Z" transform="translate(-1437.931 -188.814)" fill="url(#linear-gradient-6)"/>
    <path id="Path_5362" data-name="Path 5362" d="M1467.1,396.776c-2.453,19.735,41.548-15.083,39.387-22.28S1469.6,376.638,1467.1,396.776Z" transform="translate(-1463.517 -130.789)" fill="#602847"/>
    <path id="Path_5363" data-name="Path 5363" d="M1497.5,324.086c-6.493,11.974-38.453,90.136-29.662,113.7,8.4-22.338,35.863-28.659,39.12-25.486,2.188-25.186,3.519-53.673,6.785-67.769S1506.554,307.388,1497.5,324.086Z" transform="translate(-1463.993 -168.596)" fill="url(#linear-gradient-7)"/>
    <g id="Group_13393" data-name="Group 13393" transform="translate(33.572 32.991)">
      <path id="Path_5364" data-name="Path 5364" d="M1546.554,249.721c-1.561,14.041,3.9,35.1,13.26,28.08.907,18.814-1.854,38.321-7.933,42.5-10.788,7.419-38.868,20.678-45.107,17.558s-21.061-31.98-21.061-35.88,6.24-6.239,3.9-12.48-7.019-20.428-3.9-27.3S1520.033,273.121,1546.554,249.721Z" transform="translate(-1484.674 -249.721)" fill="url(#linear-gradient-8)"/>
      <path id="Path_5365" data-name="Path 5365" d="M1504.749,287.988c-3.9-3.9-2.916-15.432-1.559-19.5.78-2.339,8.58-9.359,15.6-5.459,6.285,3.491,15.185,9.135,12.662,15.488S1508.649,291.888,1504.749,287.988Z" transform="translate(-1472.51 -241.187)" fill="url(#linear-gradient-9)"/>
      <path id="Path_5366" data-name="Path 5366" d="M1504.424,287.364c-.916,2.419-11,2.778-14.9-3.463-2.341-7.8-3.827-19.134-.78-19.5s8.3,1.478,9.608,3.859S1506.067,283.027,1504.424,287.364Z" transform="translate(-1483.022 -239.442)" fill="url(#linear-gradient-10)"/>
      <path id="Path_5367" data-name="Path 5367" d="M1524.448,279.191c-.012-3.905,15.891-25.144,20.69-9.787,3.9,12.48-9.046,20.605-12.805,22.139S1524.477,289.483,1524.448,279.191Z" transform="translate(-1456.739 -239.763)" fill="url(#linear-gradient-11)"/>
      <path id="Path_5368" data-name="Path 5368" d="M1527.438,274.737c4.68,0,5.235,5.264,4.68,8.58,5.77-1.884,8.582-6.241,8.582-10.921C1540.7,261.229,1528.7,271.918,1527.438,274.737Z" transform="translate(-1454.639 -237.295)" fill="url(#linear-gradient-12)"/>
      <path id="Path_5369" data-name="Path 5369" d="M1504.051,282.631c4.714-13.665,17.973-19.9,24.213-9.765A41.486,41.486,0,0,1,1504.051,282.631Z" transform="translate(-1471.065 -236.986)" fill="#fff"/>
      <path id="Path_5370" data-name="Path 5370" d="M1504.051,283.236c7.866-20.307,19.533-19.124,24.213-9.765C1515,263.333,1509.478,275.06,1504.051,283.236Z" transform="translate(-1471.065 -237.591)" fill="#283547"/>
      <path id="Path_5371" data-name="Path 5371" d="M1517.477,270.9c2.339,0,4.68-1.561,6.239-4.681a17.844,17.844,0,0,1-8.747,2.787C1517.642,269.672,1517.477,270.9,1517.477,270.9Z" transform="translate(-1463.397 -238.136)" fill="#283547"/>
      <g id="Group_13388" data-name="Group 13388" transform="translate(1.038 34.717)">
        <path id="Path_5372" data-name="Path 5372" d="M1502.775,280.607c-7.935-8.845-14.213-13.525-14.213-2.606C1493.446,281.9,1500.247,283.993,1502.775,280.607Z" transform="translate(-1482.982 -269.037)" fill="#fff"/>
        <g id="Group_13387" data-name="Group 13387" transform="translate(5.58 2.611)">
          <g id="Group_13386" data-name="Group 13386" clip-path="url(#clip-path)">
            <g id="Group_13385" data-name="Group 13385" transform="translate(3.252 1.668)">
              <ellipse id="Ellipse_290" data-name="Ellipse 290" cx="3.908" cy="4.371" rx="3.908" ry="4.371" transform="translate(0.333)" fill="url(#linear-gradient-13)"/>
              <path id="Path_5373" data-name="Path 5373" d="M1497.508,276.543a3.462,3.462,0,0,1-3.093,3.735,3.392,3.392,0,0,1-3.34-3.461,3.46,3.46,0,0,1,3.095-3.733A3.39,3.39,0,0,1,1497.508,276.543Z" transform="translate(-1490.05 -272.31)" fill="url(#linear-gradient-14)"/>
              <ellipse id="Ellipse_291" data-name="Ellipse 291" cx="1.31" cy="1.465" rx="1.31" ry="1.465" transform="translate(0 0.92)" fill="#fff"/>
            </g>
          </g>
        </g>
        <path id="Path_5375" data-name="Path 5375" d="M1502.795,281.684c-10.725-11.186-13.515-11.186-14.213-2.606C1487.885,264.259,1494.86,269.719,1502.795,281.684Z" transform="translate(-1483.001 -270.115)" fill="#283547"/>
        <path id="Path_5376" data-name="Path 5376" d="M1490.864,274.514c-1.083,1.41-4.184-.781-5.58-2.341,1.4.78,5.507.9,6.278,0A6.576,6.576,0,0,1,1490.864,274.514Z" transform="translate(-1485.284 -268.669)" fill="#283547"/>
      </g>
      <path id="Path_5377" data-name="Path 5377" d="M1498.964,274.568c-.112,3.76-4.234,13.709-8.379,16.2,4.145,4.145,15.754,4.974,18.241.829s-3.194-12.5-4.5-17.025S1499.052,271.634,1498.964,274.568Z" transform="translate(-1480.523 -234.258)" fill="url(#linear-gradient-15)"/>
      <g id="Group_13391" data-name="Group 13391" transform="translate(32.986 30.866)">
        <g id="Group_13390" data-name="Group 13390" clip-path="url(#clip-path-2)">
          <g id="Group_13389" data-name="Group 13389" transform="translate(8.943 1.405)">
            <circle id="Ellipse_292" data-name="Ellipse 292" cx="5.236" cy="5.236" r="5.236" transform="translate(0.446)" fill="url(#linear-gradient-13)"/>
            <path id="Path_5378" data-name="Path 5378" d="M1518.731,273.369a4.313,4.313,0,1,1-4.474-4.145A4.312,4.312,0,0,1,1518.731,273.369Z" transform="translate(-1508.74 -268.297)" fill="url(#linear-gradient-17)"/>
            <circle id="Ellipse_293" data-name="Ellipse 293" cx="1.756" cy="1.756" r="1.756" transform="translate(0 1.103)" fill="#fff"/>
          </g>
        </g>
      </g>
      <path id="Path_5380" data-name="Path 5380" d="M1502.479,272.635c-.364-5.459-2.341-7.021,3.9-9.359s9.359-2.341,12.48,0C1510.279,265.614,1507.521,267.175,1502.479,272.635Z" transform="translate(-1472.579 -241.434)" fill="url(#linear-gradient-18)"/>
      <path id="Path_5381" data-name="Path 5381" d="M1499.983,272.121c-4.673-4.191-9.746-8.044-12.866-6.385,4.68-4.68,11.694-.6,12.866,1.261S1499.983,272.121,1499.983,272.121Z" transform="translate(-1482.958 -239.995)" fill="url(#linear-gradient-19)"/>
      <g id="Group_13392" data-name="Group 13392" transform="translate(18.94 62.402)">
        <path id="Path_5382" data-name="Path 5382" d="M1495.853,289.131c2.829,2.121,3.536,4.242,2.121,5.657,2.121,4.242,12.022,1.415,14.851-2.121C1509.29,289.131,1498.866,288.288,1495.853,289.131Z" transform="translate(-1495.762 -284.655)" fill="#871131"/>
        <path id="Path_5383" data-name="Path 5383" d="M1496.242,288.828s1.534,3.544,1.851,4.045c1.729.5,5.146,1.113,12.277-2.022C1506.247,289.531,1496.242,288.828,1496.242,288.828Z" transform="translate(-1495.489 -284.656)" fill="#fff"/>
        <path id="Path_5384" data-name="Path 5384" d="M1512.863,294.388c-2.829-7.072-18.387-12.022-16.972-3.536C1499.426,294.388,1504.377,288.729,1512.863,294.388Z" transform="translate(-1495.8 -286.377)" fill="url(#linear-gradient-20)"/>
        <path id="Path_5385" data-name="Path 5385" d="M1497.314,293.2c-2.828,3.536,6.365,11.314,14.851-2.121C1508.63,293.2,1498.022,295.325,1497.314,293.2Z" transform="translate(-1495.102 -283.072)" fill="url(#linear-gradient-21)"/>
      </g>
    </g>
    <path id="Path_5386" data-name="Path 5386" d="M1496.8,327.789h46.578V307.607c-6.887-11.285-31.1-2.339-39.273,3.718S1496.8,327.789,1496.8,327.789Z" transform="translate(-1442.602 -179.87)" fill="url(#linear-gradient-22)"/>
    <path id="Path_5387" data-name="Path 5387" d="M1552.657,302.249c-.465,10.766-4.4,17.279,1.2,19.325s31.331,10.628,31.331,17.648-18.719,39-22.619,57.72-16.38,37.44-14.821,42.9c-38.219,16.38-52.708,8.58-54.434,0s2.174-27.3-1.726-31.2-14.039-10.921-16.38-18.721c6.241-9.36,19.5-25.739,18.721-33.54s2.339-24.96,8.58-28.08,19.65-5.361,20.745-10.09a109.57,109.57,0,0,0,1.726-12.131C1530.585,301.781,1548.989,299.595,1552.657,302.249Z" transform="translate(-1457.753 -180.649)" fill="url(#linear-gradient-23)"/>
    <g id="Group_13396" data-name="Group 13396" transform="translate(17.45 120.445)">
      <g id="Group_13395" data-name="Group 13395" clip-path="url(#clip-path-3)">
        <g id="Group_13394" data-name="Group 13394" transform="translate(4.602 -4.382)" opacity="0.1">
          <path id="Path_5388" data-name="Path 5388" d="M1524.18,299.665c0,23.433-22.686,74.364-31.271,88.253a5.434,5.434,0,0,0-.332,5.093,34.919,34.919,0,0,0,11.232,14.038,5.425,5.425,0,0,1,2.17,5.655c-2.719,11.848-5.025,35.771-3.639,40.621" transform="translate(-1467.942 -297.714)" fill="none" stroke="#000" stroke-miterlimit="10" stroke-width="0.916"/>
          <path id="Path_5389" data-name="Path 5389" d="M1524.094,300.352c-2.217,11.826-21.245,71.284-36.508,87.436a5.356,5.356,0,0,0-.877,6.142c3.275,6.237,8.908,10.51,12.626,12.815a5.422,5.422,0,0,1,2.422,5.9c-3,12.18-2.623,36.941-2.623,39.023" transform="translate(-1472.146 -297.232)" fill="none" stroke="#000" stroke-miterlimit="10" stroke-width="0.916"/>
          <path id="Path_5390" data-name="Path 5390" d="M1514.33,311.383c-4.724,13.871-12.586,50.526-30.993,67.839a5.434,5.434,0,0,0-.49,7.386,65.064,65.064,0,0,0,12.672,11.768,5.411,5.411,0,0,1,2.233,5.253c-1.728,11.21-3.243,36.323-1.784,38.563" transform="translate(-1475.294 -289.484)" fill="none" stroke="#000" stroke-miterlimit="10" stroke-width="0.916"/>
          <path id="Path_5391" data-name="Path 5391" d="M1508.457,313.956c-4.116,14.281-14.146,46.574-29.137,63.183a5.423,5.423,0,0,0-.577,6.539c3.563,5.621,10.478,12.041,13.951,14.862a5.414,5.414,0,0,1,2,4.412c-.407,10.646-2.564,30.5-2.057,33.88" transform="translate(-1477.907 -287.677)" fill="none" stroke="#000" stroke-miterlimit="10" stroke-width="0.916"/>
          <path id="Path_5392" data-name="Path 5392" d="M1525.9,299.665c1.086,7.717-21.017,76.047-26.832,88.466a5.441,5.441,0,0,0-.315,3.788,55.166,55.166,0,0,0,9.031,18.05,5.416,5.416,0,0,1,1.074,3.951c-1.481,12.448-5.465,32.375-3.073,38.235" transform="translate(-1463.407 -297.714)" fill="none" stroke="#000" stroke-miterlimit="10" stroke-width="0.916"/>
          <path id="Path_5393" data-name="Path 5393" d="M1526.489,298.519c0,6.241-18.355,88.287-19.667,91.6-2.952,7.46,3.287,21.673,2.508,23.06s-2.429,34.757-2,38.047" transform="translate(-1458.161 -298.519)" fill="none" stroke="#000" stroke-miterlimit="10" stroke-width="0.916"/>
          <path id="Path_5394" data-name="Path 5394" d="M1529.274,303.1c0,8.58-12.815,81.842-13.26,85.8s-3.9,17.161-3.9,20.28-1.171,36.469-1.171,36.469" transform="translate(-1454.705 -295.301)" fill="none" stroke="#000" stroke-miterlimit="10" stroke-width="0.916"/>
          <path id="Path_5395" data-name="Path 5395" d="M1531.342,311.383s-4.937,64.184-6.887,69.5-7.41,20.918-7.41,23.259-3.127,34.493-3.127,34.493" transform="translate(-1452.616 -289.484)" fill="none" stroke="#000" stroke-miterlimit="10" stroke-width="0.916"/>
          <path id="Path_5396" data-name="Path 5396" d="M1538.336,314.775s-9.138,58.908-9.92,62.808-8.58,19.533-8.58,23.026-4.343,31.267-4.343,31.267" transform="translate(-1451.509 -287.102)" fill="none" stroke="#000" stroke-miterlimit="10" stroke-width="0.916"/>
          <path id="Path_5397" data-name="Path 5397" d="M1545.329,316.847c0,2.339-12.48,57.72-13.26,60.06s-7.8,19.5-8.582,22.619-6.53,30.894-6.53,30.894" transform="translate(-1450.48 -285.646)" fill="none" stroke="#000" stroke-miterlimit="10" stroke-width="0.916"/>
        </g>
      </g>
    </g>
    <path id="Path_5399" data-name="Path 5399" d="M1504.608,305.433c-2.809,2.729.315,4.911-.465,8.811s-3.871,4.5-1.546,7.318,30.406,2.043,31.967-1.078-.781-4.3,0-8.779,3.437-8.2.548-9.85S1512.873,297.4,1504.608,305.433Z" transform="translate(-1439.112 -181.412)" fill="url(#linear-gradient-24)"/>
    <path id="Path_5400" data-name="Path 5400" d="M1541.155,381.379c-21.891,10.7-51.966,15.323-54.855-.778-1.881,31.757-6.791,104.8,18.169,189.04,36.66,7.019,67.081,0,87.361-8.58-10.141-28.862,3.483-88.886.78-124.021C1590.269,406.62,1541.155,381.379,1541.155,381.379Z" transform="translate(-1451.138 -124.807)" fill="url(#linear-gradient-25)"/>
    <path id="Path_5401" data-name="Path 5401" d="M1572.233,532.368c-3.846,20.479-21.422,85.9-19.863,90.58s7.02,5.461,7.02,10.141-3.833,5.459-6.207,21.839H1550.4v-13.26c-5.046.017-9.128,4.68-12.546,13.26h-23.7s8.58-4.68,14.039-7.02c3.12-14.039,13.26-27.3,13.26-27.3,0-21.06-3.2-88.241-3.2-88.241C1547.691,539.489,1566.355,537.729,1572.233,532.368Z" transform="translate(-1430.399 -18.214)" fill="url(#linear-gradient-26)"/>
    <path id="Path_5403" data-name="Path 5403" d="M1543.066,533.285c-3.845,20.479-24.543,84.339-22.983,89.019s7.021,5.461,7.021,10.141-3.834,5.459-6.207,21.839h-2.788v-13.26c-5.046.017-9.128,4.68-12.546,13.26h-23.7s8.58-4.68,14.039-7.02c3.12-14.039,13.26-27.3,13.26-27.3,0-21.06-.082-86.68-.082-86.68C1518.523,540.4,1537.188,538.646,1543.066,533.285Z" transform="translate(-1453.077 -17.57)" fill="url(#linear-gradient-27)"/>
    <path id="Path_5406" data-name="Path 5406" d="M1562.027,404.2c-.764,19.872-39.174-20.546-35.88-27.3S1562.807,383.919,1562.027,404.2Z" transform="translate(-1422.115 -128.626)" fill="#602847"/>
    <path id="Path_5407" data-name="Path 5407" d="M1539.934,305.377c8.713,12.116,28.213,23.816,28.213,30.055s-31.371,84.491-31.675,89.436,22.614,25.225,22.614,25.225c-17.459,9.36-46.784,14.089-50.451,13.673-1.876-23.448,4.132-33.09,2.962-42.882s-11.31-26.952-9.751-33.972C1504.958,372.914,1530.442,346.3,1539.934,305.377Z" transform="translate(-1439.156 -177.64)" fill="url(#linear-gradient-28)"/>
    <path id="Path_5408" data-name="Path 5408" d="M1520.034,307.561s-17.534,11.084-22.214,18.321-2.341,25.193-4.681,29.476-19.351,28.111-19.034,31.015,17.56,16.846,17.907,22.357-3.619,36.709-4.365,39.83c7.085,10.921,15.633,11.7,15.633,10.921.78-17.941,3.12-51.481-.78-56.942-6.3-8.818-15.168-10.766-13.261-18.719S1518.849,324.9,1520.034,307.561Z" transform="translate(-1458.529 -176.106)" fill="url(#linear-gradient-29)"/>
    <path id="Path_5413" data-name="Path 5413" d="M1549.994,328.17c4.474,12.866,23.4,95.161,10.919,117-4.68-23.4-30.767-34.071-34.493-31.464,1.907-25.21,5.19-53.539,4.242-67.976S1543.753,310.231,1549.994,328.17Z" transform="translate(-1421.782 -166.478)" fill="url(#linear-gradient-30)"/>
    <path id="Path_5414" data-name="Path 5414" d="M1560.116,316.279c-49.14,105.3-109.28,82.615-53.471-7.053.86-2.274,5.087,0,5.087,0-28.056,68.673,6.895,56.525,44.484,5.493C1558.855,312.495,1560.116,316.279,1560.116,316.279Z" transform="translate(-1451.405 -175.647)" fill="url(#linear-gradient-31)"/>
    <path id="Path_5417" data-name="Path 5417" d="M1510.167,307.222c-12.674,30.055,7.5,45.16,34.557-2.77,8.1,2.421,11.775,2.157,12.4,13.384-10.3,22.927-93,94.439-53.2-7.494A11.392,11.392,0,0,1,1510.167,307.222Z" transform="translate(-1445.136 -178.29)" fill="url(#linear-gradient-32)"/>
  </g>
</svg>
