<svg xmlns="http://www.w3.org/2000/svg" xmlns:xlink="http://www.w3.org/1999/xlink" width="201.125" height="532.742" viewBox="0 0 201.125 532.742">
  <defs>
    <linearGradient id="linear-gradient" x1="0.529" y1="-0.43" x2="0.461" y2="1.41" gradientUnits="objectBoundingBox">
      <stop offset="0" stop-color="#ffd63c"/>
      <stop offset="1" stop-color="#d38527"/>
    </linearGradient>
    <linearGradient id="linear-gradient-2" x1="0.358" y1="1.062" x2="0.507" y2="0.337" gradientUnits="objectBoundingBox">
      <stop offset="0.628" stop-color="#fac38f"/>
      <stop offset="0.959" stop-color="#faa96c"/>
    </linearGradient>
    <linearGradient id="linear-gradient-3" x1="-0.012" y1="-0.126" x2="0.599" y2="0.576" gradientUnits="objectBoundingBox">
      <stop offset="0" stop-color="#ab8faf"/>
      <stop offset="1" stop-color="#374b6b"/>
    </linearGradient>
    <linearGradient id="linear-gradient-4" x1="0.419" y1="0.116" x2="0.683" y2="1.349" gradientUnits="objectBoundingBox">
      <stop offset="0.641" stop-color="#ffd7a5"/>
      <stop offset="1" stop-color="#faa96c"/>
    </linearGradient>
    <linearGradient id="linear-gradient-5" x1="-0.218" y1="-4.92" x2="0.635" y2="1.575" gradientUnits="objectBoundingBox">
      <stop offset="0.766" stop-color="#fac38f"/>
      <stop offset="1" stop-color="#faa96c"/>
    </linearGradient>
    <linearGradient id="linear-gradient-6" x1="0.313" y1="-1.505" x2="0.551" y2="1.061" xlink:href="#linear-gradient-4"/>
    <linearGradient id="linear-gradient-7" x1="0.498" y1="-0.273" x2="0.503" y2="1.185" xlink:href="#linear-gradient-3"/>
    <linearGradient id="linear-gradient-8" x1="0.41" y1="-0.17" x2="0.656" y2="0.749" gradientUnits="objectBoundingBox">
      <stop offset="0" stop-color="#e75555"/>
      <stop offset="1" stop-color="#a64444"/>
    </linearGradient>
    <linearGradient id="linear-gradient-9" x1="0.042" y1="0.211" x2="0.858" y2="0.832" gradientUnits="objectBoundingBox">
      <stop offset="0" stop-color="#5d7d91"/>
      <stop offset="1" stop-color="#374b6b"/>
    </linearGradient>
    <linearGradient id="linear-gradient-10" x1="0.412" y1="-0.32" x2="0.524" y2="1.354" gradientUnits="objectBoundingBox">
      <stop offset="0.004" stop-color="#fff5f5"/>
      <stop offset="1" stop-color="#c6d9db"/>
    </linearGradient>
    <linearGradient id="linear-gradient-11" x1="0.52" y1="-0.017" x2="0.499" y2="0.964" gradientUnits="objectBoundingBox">
      <stop offset="0" stop-color="#cf5555"/>
      <stop offset="1" stop-color="#a64444"/>
    </linearGradient>
    <linearGradient id="linear-gradient-12" x1="42.769" y1="-8.329" x2="42.655" y2="-7.313" gradientUnits="objectBoundingBox">
      <stop offset="0" stop-color="#faa478"/>
      <stop offset="1" stop-color="#f7694d"/>
    </linearGradient>
    <linearGradient id="linear-gradient-13" x1="0.551" y1="-0.025" x2="0.487" y2="0.99" xlink:href="#linear-gradient-12"/>
    <linearGradient id="linear-gradient-14" x1="0.369" y1="0.044" x2="0.877" y2="1.115" xlink:href="#linear-gradient-8"/>
    <linearGradient id="linear-gradient-17" x1="0.524" y1="0.019" x2="0.461" y2="0.896" xlink:href="#linear-gradient-3"/>
    <clipPath id="clip-path">
      <path id="Path_4909" data-name="Path 4909" d="M1872.492,307.912c5.6,2.988,39.78,22.621,40.56,32.76s-8.58,56.94-10.92,72.54,2.341,87.361,2.341,87.361c-19.5,14.039-78,4.68-85.02-10.921-1.559-30.419-.78-144.3,4.68-152.881s21.1-23.283,21.1-23.283C1839.732,343.792,1863.132,335.212,1872.492,307.912Z" transform="translate(-1818.742 -307.912)" fill="none"/>
    </clipPath>
    <linearGradient id="linear-gradient-18" x1="0.529" y1="-1.158" x2="0.229" y2="14.259" xlink:href="#linear-gradient-3"/>
    <linearGradient id="linear-gradient-19" x1="0.5" y1="-0.467" x2="0.5" y2="-0.096" xlink:href="#linear-gradient-3"/>
    <linearGradient id="linear-gradient-20" x1="0.5" y1="-0.85" x2="0.5" y2="-0.383" xlink:href="#linear-gradient-3"/>
    <linearGradient id="linear-gradient-21" x1="0.555" y1="0.065" x2="0.446" y2="0.861" xlink:href="#linear-gradient"/>
    <linearGradient id="linear-gradient-22" x1="0.601" y1="0.001" x2="0.362" y2="0.883" xlink:href="#linear-gradient"/>
    <linearGradient id="linear-gradient-23" x1="0.709" y1="-0.825" x2="0.405" y2="0.869" xlink:href="#linear-gradient"/>
    <linearGradient id="linear-gradient-24" x1="0.667" y1="-0.452" x2="0.458" y2="0.971" xlink:href="#linear-gradient"/>
    <linearGradient id="linear-gradient-25" x1="0.573" y1="-0.028" x2="0.484" y2="0.988" xlink:href="#linear-gradient-11"/>
    <linearGradient id="linear-gradient-26" x1="0.486" y1="-0.271" x2="0.511" y2="1.183" xlink:href="#linear-gradient-3"/>
    <linearGradient id="linear-gradient-27" x1="0.499" y1="-0.27" x2="0.503" y2="1.183" xlink:href="#linear-gradient-3"/>
    <linearGradient id="linear-gradient-28" x1="394.176" y1="-79.964" x2="392.5" y2="-82.298" xlink:href="#linear-gradient-4"/>
    <linearGradient id="linear-gradient-29" x1="94.519" y1="-34.339" x2="94.119" y2="-35.347" xlink:href="#linear-gradient-4"/>
    <linearGradient id="linear-gradient-30" x1="0.729" y1="0.757" x2="-0.299" y2="-0.359" xlink:href="#linear-gradient-4"/>
  </defs>
  <g id="Group_13197" data-name="Group 13197" transform="translate(-49.555 -123.247)">
    <path id="Path_4854" data-name="Path 4854" d="M1829.742,332.374l-2.589-17c5.112-10.039,34.714-25.224,52.674-8.662-2.3,5.825-2.489,18.264-2.489,18.264Z" transform="translate(-1705.904 -162.592)" fill="url(#linear-gradient)"/>
    <path id="Path_4855" data-name="Path 4855" d="M1867.046,291.417c-1.828,5.459-7.288,26.521-8.069,42.9-2.739,16.612-20.973,20.462-24.526,11.4s4.47-40.892,4.47-40.892Z" transform="translate(-1701.416 -168.171)" fill="url(#linear-gradient-2)"/>
    <g id="Group_13166" data-name="Group 13166" transform="translate(73.039 178.838)">
      <path id="Path_4856" data-name="Path 4856" d="M1830.783,326.2c-19.2,20.568-22.621,74.881-22.621,117.782s19.5,28.86,20.28,6.239,5.082-77.28,6.241-83.461C1837.022,354.281,1841.7,314.5,1830.783,326.2Z" transform="translate(-1792.281 -324.073)" fill="url(#linear-gradient-3)"/>
      <g id="Group_13165" data-name="Group 13165" transform="translate(15.851 123.864)">
        <path id="Path_4857" data-name="Path 4857" d="M1808.173,404.8c-.633,9.8,9.37,55.706,14.414,71.464s9.37,10.279,7.928-5.482-5.367-55.91-6.287-65.983S1808.893,393.637,1808.173,404.8Z" transform="translate(-1808.144 -396.834)" fill="url(#linear-gradient-4)"/>
        <g id="Group_13164" data-name="Group 13164" transform="translate(7.073 74.263)">
          <path id="Path_4858" data-name="Path 4858" d="M1829.671,451.54c-.628-2.38-8.723,6.563-5.219,16.475C1826.712,467.489,1832.883,463.681,1829.671,451.54Z" transform="translate(-1804.379 -432.946)" fill="url(#linear-gradient-5)"/>
          <path id="Path_4859" data-name="Path 4859" d="M1831.14,447.15c6.163,7.681,7.657,14.805,5.172,17.917s-3.269,18.658-8.057,18.057c-6.718-.844-8.98-7.329-8.98-7.329-1.2,1.978-6.21-2.577-6.523-5.376s-.931-12.774.2-16.067,8.558-13.406,9.891-13.818C1825.376,439.754,1829.479,445.082,1831.14,447.15Z" transform="translate(-1812.299 -440.457)" fill="url(#linear-gradient-6)"/>
        </g>
      </g>
      <path id="Path_4860" data-name="Path 4860" d="M1834.214,420.548c-7.8.78-20.28-.78-21.839-2.341-3.9-2.339-13.542-30.419-13.542-30.419,8.081-3.12,32.261,14.819,38.5,14.819C1836.555,408.068,1834.214,420.548,1834.214,420.548Z" transform="translate(-1798.833 -279.578)" fill="url(#linear-gradient-7)"/>
    </g>
    <g id="Group_13168" data-name="Group 13168" transform="translate(49.555 321.548)">
      <path id="Path_4861" data-name="Path 4861" d="M1819.862,408.894c-2.46,30.809,6.6,163.127,8.309,180.82s3.471,133.13,1.81,144.051c2.921,4.68,8.547-.056,8.547-.056,3.054-19.444,26.121-98.671,27.234-108.365s-2.341-25.739-7.021-32.76c3.121-31.98,13.26-154.44,16.38-169.261C1857.18,402.264,1819.862,408.894,1819.862,408.894Z" transform="translate(-1760.875 -407.905)" fill="url(#linear-gradient-8)"/>
      <g id="Group_13167" data-name="Group 13167" transform="translate(0 306.565)">
        <path id="Path_4862" data-name="Path 4862" d="M1862.364,602.842l1.859,11.7h-58.949l-7.65-19.5c11.7,3.9,43.68,11.7,45.24,11.7a118.492,118.492,0,0,1-3.12-14.819c7.021-4.681,9.725,0,10.92.78-.73,5.459.78,14.039.78,14.039A16.147,16.147,0,0,1,1862.364,602.842Z" transform="translate(-1776.198 -586.667)" fill="url(#linear-gradient-9)"/>
        <path id="Path_4863" data-name="Path 4863" d="M1818.894,612.408h-33.856c1.146-14.039,12.066-18.719,21.426-19.5C1816.6,599.149,1818.894,612.408,1818.894,612.408Z" transform="translate(-1785.038 -584.534)" fill="url(#linear-gradient-10)"/>
        <path id="Path_4864" data-name="Path 4864" d="M1831.043,608.266c.485-28.4-19.182-25.355-1.417-.882-12.825-11.816-23.87-1.137-1.064.524" transform="translate(-1763.739 -587.989)" fill="none" stroke="#283547" stroke-linecap="round" stroke-linejoin="round" stroke-width="1.029"/>
      </g>
    </g>
    <g id="Group_13170" data-name="Group 13170" transform="translate(164.808 152.602)">
      <path id="Path_4865" data-name="Path 4865" d="M1887.706,327.993c-.735-20.607-3.175-17.487-17.115-19.048s-10.943,3.253-12.492,15.667c3.922,3.767,7.031,1.062,7.031,1.062.78-8.147-3.029-15.318,8.626-14.073s7.826,15.136,7.826,15.136Z" transform="translate(-1848.977 -308.661)" fill="url(#linear-gradient-11)"/>
      <path id="Path_4866" data-name="Path 4866" d="M1891.825,362.545c7.758-.882,15.949-.752,16.1,4.225s1.913,43.35-.982,46.818-11.319,6.135-11.319,6.135Z" transform="translate(-1825.29 -271.11)" fill="url(#linear-gradient-12)"/>
      <path id="Path_4867" data-name="Path 4867" d="M1861.093,319.818c4.518-6.214,62.4,1.476,62.4,13.609s7.8,115.092,1.56,122.111-68.884,7.482-71.492-.158S1854.854,328.4,1861.093,319.818Z" transform="translate(-1852.741 -302.372)" fill="url(#linear-gradient-13)"/>
      <g id="Group_13169" data-name="Group 13169" transform="translate(41.895 23.688)">
        <path id="Path_4868" data-name="Path 4868" d="M1887.151,447.612a40.582,40.582,0,0,1-4.433-.245.778.778,0,0,1,.18-1.546c3.071.359,12.1.65,13.214-2.6,1.731-5.041-1.078-77.753-2-101.647-.237-6.163-.381-9.884-.381-10.463,0-2.126-5.512-5.3-15.73-6.992a.777.777,0,0,1,.254-1.534c7.858,1.3,17.032,4.314,17.032,8.525,0,.55.151,4.469.38,10.4,1.743,45.114,3.536,97.5,1.919,102.212C1896.469,446.977,1891.14,447.612,1887.151,447.612Z" transform="translate(-1877.351 -322.576)" fill="#cf5555"/>
      </g>
    </g>
    <g id="Group_13172" data-name="Group 13172" transform="translate(116.85 331.854)">
      <path id="Path_4869" data-name="Path 4869" d="M1898.039,420.631c7.02,14.041,24.961,75.661,35.88,156.781,10.025,9.744,15.6,17.941,14.821,36.66s-5.194,90.481,1.692,115.441a10.374,10.374,0,0,1-11.052,3.12c-8.58-51.481-28.034-126.394-33.542-143.521s-32.76-115.439-53.82-119.34c-15.6-5.461-27.6-45.674-27.448-53.258S1898.039,420.631,1898.039,420.631Z" transform="translate(-1824.569 -413.958)" fill="url(#linear-gradient-14)"/>
      <g id="Group_13171" data-name="Group 13171" transform="translate(45.805 296.26)">
        <path id="Path_4870" data-name="Path 4870" d="M1928.8,602.842l1.859,11.7h-58.949l-7.65-19.5c11.7,3.9,43.68,11.7,45.24,11.7a118.492,118.492,0,0,1-3.12-14.819c7.021-4.681,9.726,0,10.921.78-.73,5.459.78,14.039.78,14.039A16.147,16.147,0,0,1,1928.8,602.842Z" transform="translate(-1842.636 -586.667)" fill="url(#linear-gradient-9)"/>
        <path id="Path_4871" data-name="Path 4871" d="M1885.332,612.408h-33.856c1.146-14.039,12.066-18.719,21.426-19.5C1883.041,599.149,1885.332,612.408,1885.332,612.408Z" transform="translate(-1851.476 -584.534)" fill="url(#linear-gradient-10)"/>
        <path id="Path_4872" data-name="Path 4872" d="M1897.48,608.266c.485-28.4-19.182-25.355-1.416-.882-12.825-11.816-23.87-1.137-1.064.524" transform="translate(-1830.177 -587.989)" fill="none" stroke="#283547" stroke-linecap="round" stroke-linejoin="round" stroke-width="1.029"/>
      </g>
    </g>
    <g id="Group_13195" data-name="Group 13195" transform="translate(104.387 143.193)">
      <path id="Path_4898" data-name="Path 4898" d="M1872.492,307.912c5.6,2.988,39.78,22.621,40.56,32.76s-8.58,56.94-10.92,72.54,2.341,87.361,2.341,87.361c-19.5,14.039-78,4.68-85.02-10.921-1.559-30.419-.78-144.3,4.68-152.881s21.1-23.283,21.1-23.283C1839.732,343.792,1863.132,335.212,1872.492,307.912Z" transform="translate(-1816.198 -299.778)" fill="url(#linear-gradient-17)"/>
      <g id="Group_13194" data-name="Group 13194" transform="translate(2.544 8.134)">
        <g id="Group_13193" data-name="Group 13193" clip-path="url(#clip-path)">
          <g id="Group_13192" data-name="Group 13192" transform="translate(-33.188 -5.533)" opacity="0.4">
            <g id="Group_13182" data-name="Group 13182" transform="translate(75.1)">
              <path id="Path_4899" data-name="Path 4899" d="M1843.85,514.207c-1.529-39.99-.25-135.248,15.537-209.545l7.628,1.621c-15.626,73.546-16.887,167.972-15.372,207.625Z" transform="translate(-1843.363 -304.662)" fill="#211c20"/>
            </g>
            <g id="Group_13183" data-name="Group 13183" transform="translate(95.347 15.319)">
              <path id="Path_4900" data-name="Path 4900" d="M1855.892,505.255c-3.365-42.805,7.422-144.042,13.6-191.594l7.734,1c-6.137,47.272-16.869,147.815-13.556,189.978Z" transform="translate(-1855.256 -313.661)" fill="#211c20"/>
            </g>
            <g id="Group_13184" data-name="Group 13184" transform="translate(54.42 13.283)">
              <path id="Path_4901" data-name="Path 4901" d="M1831.365,504.427c-1.2-27.261,5-158.214,9.785-191.962l7.723,1.095c-4.6,32.482-10.869,164.234-9.715,190.525Z" transform="translate(-1831.215 -312.465)" fill="#211c20"/>
            </g>
            <g id="Group_13185" data-name="Group 13185" transform="translate(38.286 13.055)">
              <path id="Path_4902" data-name="Path 4902" d="M1823.179,501.3c-3.6-20.309.272-172.526,3.607-188.965l7.645,1.551c-3.134,15.451-6.939,167.043-3.572,186.054Z" transform="translate(-1821.737 -312.331)" fill="#211c20"/>
            </g>
            <g id="Group_13186" data-name="Group 13186" transform="translate(15.023 59.605)">
              <path id="Path_4903" data-name="Path 4903" d="M1811.437,353.978l-3.365-7.036c14.315-6.847,106.114-10.52,131.872-3.429l-2.072,7.519c-10.9-3-36.924-4.251-67.927-3.265C1837.933,348.786,1816.279,351.663,1811.437,353.978Z" transform="translate(-1808.072 -339.676)" fill="#211c20"/>
            </g>
            <g id="Group_13187" data-name="Group 13187" transform="translate(22.27 32.264)">
              <path id="Path_4904" data-name="Path 4904" d="M1815.347,336.658l-3.018-7.192c16.787-7.046,98.428-7.284,117.247-3.078l-1.7,7.613C1909.065,329.8,1829.419,330.753,1815.347,336.658Z" transform="translate(-1812.329 -323.615)" fill="#211c20"/>
            </g>
            <g id="Group_13188" data-name="Group 13188" transform="translate(6.854 87.569)">
              <path id="Path_4905" data-name="Path 4905" d="M1805.881,371.341l-2.608-7.351c24.912-8.84,113.62-9.852,142.383-5.017l-1.294,7.693C1916.973,362.063,1829.389,363,1805.881,371.341Z" transform="translate(-1803.273 -356.102)" fill="#211c20"/>
            </g>
            <g id="Group_13189" data-name="Group 13189" transform="translate(10.91 120.931)">
              <path id="Path_4906" data-name="Path 4906" d="M1807.949,389.61l-2.293-7.455c33.235-10.228,114.6-5.861,143.152-3.314l-.693,7.769C1909.021,383.124,1836.4,380.857,1807.949,389.61Z" transform="translate(-1805.656 -375.7)" fill="#211c20"/>
            </g>
            <g id="Group_13190" data-name="Group 13190" transform="translate(0 151.986)">
              <path id="Path_4907" data-name="Path 4907" d="M1967.776,403.632c-30.5-2.845-158.744-2.029-166.949-.332l-1.58-7.638c10.231-2.116,139.916-2.533,169.254.2Z" transform="translate(-1799.247 -393.942)" fill="#211c20"/>
            </g>
            <g id="Group_13191" data-name="Group 13191" transform="translate(5.202 174.793)">
              <path id="Path_4908" data-name="Path 4908" d="M1926.518,423.211c-9.3-4.63-98.908-8.071-124.215-8.071v-7.8c8.524,0,114.619,2.378,127.691,8.89Z" transform="translate(-1802.303 -407.34)" fill="#211c20"/>
            </g>
          </g>
        </g>
      </g>
      <path id="Path_4910" data-name="Path 4910" d="M1847.184,318.266s-3.9,4.159-5.459,7.54c-1.559-4.159-3.054-7.54-3.054-7.54-6.305-2.339-7.9,1.818-3.982,7.54s14.836,2.6,17.175-1.3S1849.524,318.266,1847.184,318.266Z" transform="translate(-1806.491 -292.973)" fill="url(#linear-gradient-18)"/>
      <path id="Path_4911" data-name="Path 4911" d="M1855.884,305.789s1.648,1.881,1.648,2.834c0,12.48-6.239,24.96-7.019,26.519-3.9-6.239-6.241-7.8-9.361-8.58C1845.052,325,1850.513,323.444,1855.884,305.789Z" transform="translate(-1800.459 -301.269)" fill="url(#linear-gradient-19)"/>
      <path id="Path_4912" data-name="Path 4912" d="M1837.6,309.36l-2.882,3.776c-3.12,5.459-5.461,12.48-3.9,19.5,3.12-6.239,5.459-7.8,9.359-8.58C1837.058,320.155,1836.279,315.475,1837.6,309.36Z" transform="translate(-1808.066 -298.761)" fill="url(#linear-gradient-20)"/>
      <path id="Path_4913" data-name="Path 4913" d="M1865.705,309.36c10.209,16.256,28.148,20.156,28.148,27.956-4.68-4.681-13.328-.1-16.38,30.419-1.559,15.6-2.341,46.867,8.58,43.713-.78,7.734,5.294,73.2,1.478,75.974s-36.578,5.371-40.868,1.733S1845.357,324.3,1865.705,309.36Z" transform="translate(-1797.78 -298.761)" fill="url(#linear-gradient-21)"/>
      <path id="Path_4914" data-name="Path 4914" d="M1839.5,315.258c-5.247,21.558-4.276,162.056-8.083,163.27s-13.307-3.221-14.041-8.582,1.561-131.819,7.02-141.181C1827.394,323.635,1835.107,312.669,1839.5,315.258Z" transform="translate(-1817.248 -294.893)" fill="url(#linear-gradient-22)"/>
      <path id="Path_4915" data-name="Path 4915" d="M1832.284,343.414s-7.272-17.308-8.052-21.988,4.353-11.373,6.467-13.877c1.886,2.8,5.235,11.559,5.235,11.559C1833.592,325.327,1832.538,341.223,1832.284,343.414Z" transform="translate(-1812.399 -300.033)" fill="url(#linear-gradient-23)"/>
      <path id="Path_4916" data-name="Path 4916" d="M1850.2,345.827c7.433-8.279,13.321-13.566,15.027-15.839,2.339-3.12,3.863-21.426-1.578-25.923s-10.122,8.762-10.122,8.762C1856.642,314.388,1850.828,343.563,1850.2,345.827Z" transform="translate(-1794.108 -303.134)" fill="url(#linear-gradient-24)"/>
    </g>
    <path id="Path_4917" data-name="Path 4917" d="M1901.582,327.859,1893,326.3c-11.7-6.241-17.941-10.139-20.28-10.139-7.885,0-60.06,173.159,30.419,134.94-3.119-1.559-8.917-1.66-8.917-1.66-51.144,10.24-24.623-101.3-14.483-127.821C1885.982,325.519,1895.341,331.759,1901.582,327.859Z" transform="translate(-1689.421 -150.793)" fill="url(#linear-gradient-25)"/>
    <path id="Path_4918" data-name="Path 4918" d="M1879.261,327.239c6.326,7.73,20.28,67.861,19.5,131.821-.458,37.567-21.06,9.36-21.84-3.9-1.161-19.715-6.241-77.22-9.361-88.92S1872.24,318.659,1879.261,327.239Z" transform="translate(-1678.02 -143.932)" fill="url(#linear-gradient-26)"/>
    <path id="Path_4919" data-name="Path 4919" d="M1872.852,411.194c-3.12-8.58-2.339-21.061-2.339-21.061,10.139,5.461,26.519-7.8,40.56,2.341-5.046,10.921-9.329,25.326-12.48,25.739S1886.113,419.773,1872.852,411.194Z" transform="translate(-1675.511 -99.966)" fill="url(#linear-gradient-27)"/>
    <g id="Group_13196" data-name="Group 13196" transform="translate(151.269 232.259)">
      <path id="Path_4920" data-name="Path 4920" d="M1860.195,377.414c-1.478,2.157-6.389-9.676.649-18.348C1862.918,360.4,1867.736,366.41,1860.195,377.414Z" transform="translate(-1836.105 -352.917)" fill="url(#linear-gradient-28)"/>
      <path id="Path_4921" data-name="Path 4921" d="M1873.9,388.172c1.958-10.274-.187-17.7-4.067-19.386s-12.357-15.88-16.552-12.929c-5.883,4.137-4.777,11.348-4.777,11.348-2.113-1.26-4.543,5.51-3.444,8.29s5.487,12.449,8.187,14.976,14.7,8.318,16.159,8.04C1872.176,397.982,1873.373,390.94,1873.9,388.172Z" transform="translate(-1844.787 -355.454)" fill="url(#linear-gradient-29)"/>
    </g>
    <path id="Path_4922" data-name="Path 4922" d="M1893.155,442.067c-8.2-7.659-28.521-38.221-35.542-57.721s5.044-8.58,10.323,0,32.576,33.541,37.257,46.8S1899.837,448.306,1893.155,442.067Z" transform="translate(-1686.012 -110.559)" fill="url(#linear-gradient-30)"/>
  </g>
</svg>
