<svg xmlns="http://www.w3.org/2000/svg" xmlns:xlink="http://www.w3.org/1999/xlink" width="213.253" height="664.13" viewBox="0 0 213.253 664.13">
  <defs>
    <linearGradient id="linear-gradient" x1="-0.104" y1="-0.341" x2="0.27" y2="0.483" gradientUnits="objectBoundingBox">
      <stop offset="0" stop-color="#694538"/>
      <stop offset="1" stop-color="#1c1007"/>
    </linearGradient>
    <linearGradient id="linear-gradient-2" x1="0.492" y1="0.72" x2="0.481" y2="0.406" gradientUnits="objectBoundingBox">
      <stop offset="0.641" stop-color="#ffd7a5"/>
      <stop offset="1" stop-color="#faa96c"/>
    </linearGradient>
    <linearGradient id="linear-gradient-3" x1="0.763" y1="0.959" x2="0.204" y2="-0.091" gradientUnits="objectBoundingBox">
      <stop offset="0.219" stop-color="#694538"/>
      <stop offset="1" stop-color="#af6737"/>
    </linearGradient>
    <linearGradient id="linear-gradient-4" x1="-0.035" y1="0.743" x2="1.03" y2="0.297" xlink:href="#linear-gradient"/>
    <linearGradient id="linear-gradient-5" x1="0.381" y1="-0.024" x2="0.582" y2="0.846" gradientUnits="objectBoundingBox">
      <stop offset="0" stop-color="#5da7c7"/>
      <stop offset="1" stop-color="#374b6b"/>
    </linearGradient>
    <linearGradient id="linear-gradient-9" x1="0.504" y1="0.217" x2="0.915" y2="1.451" xlink:href="#linear-gradient-5"/>
    <linearGradient id="linear-gradient-10" x1="-0.504" y1="-0.044" x2="0.948" y2="0.721" xlink:href="#linear-gradient"/>
    <linearGradient id="linear-gradient-11" x1="0.547" y1="0.865" x2="0.489" y2="0.324" gradientUnits="objectBoundingBox">
      <stop offset="0.464" stop-color="#fabb80"/>
      <stop offset="1" stop-color="#faa16c"/>
    </linearGradient>
    <linearGradient id="linear-gradient-12" x1="0.589" y1="0.155" x2="0.475" y2="0.938" gradientUnits="objectBoundingBox">
      <stop offset="0.334" stop-color="#faf8eb"/>
      <stop offset="0.571" stop-color="#f3eede"/>
      <stop offset="0.956" stop-color="#e3dac1"/>
    </linearGradient>
    <linearGradient id="linear-gradient-13" x1="0.949" y1="0.129" x2="0.161" y2="0.844" gradientUnits="objectBoundingBox">
      <stop offset="0" stop-color="#69abbf"/>
      <stop offset="0.235" stop-color="#669bae"/>
      <stop offset="0.699" stop-color="#617282"/>
      <stop offset="0.884" stop-color="#5f616f"/>
    </linearGradient>
    <linearGradient id="linear-gradient-14" x1="78.213" y1="-5.045" x2="76.829" y2="-4.337" xlink:href="#linear-gradient-13"/>
    <linearGradient id="linear-gradient-15" x1="0.238" y1="0.219" x2="0.719" y2="1.429" xlink:href="#linear-gradient"/>
    <linearGradient id="linear-gradient-16" x1="0.356" y1="0.233" x2="1.001" y2="1.41" xlink:href="#linear-gradient"/>
    <linearGradient id="linear-gradient-17" y1="0.5" x2="1" y2="0.5" gradientUnits="objectBoundingBox">
      <stop offset="0" stop-color="#ff4541"/>
      <stop offset="1" stop-color="#a64444"/>
    </linearGradient>
    <linearGradient id="linear-gradient-18" x1="-0.048" y1="0.621" x2="0.972" y2="0.241" xlink:href="#linear-gradient-17"/>
    <linearGradient id="linear-gradient-19" x1="0.193" y1="-0.089" x2="0.605" y2="0.913" xlink:href="#linear-gradient-17"/>
    <linearGradient id="linear-gradient-20" x1="0.497" y1="0.104" x2="0.503" y2="0.896" xlink:href="#linear-gradient-2"/>
    <linearGradient id="linear-gradient-21" x1="0.492" y1="0.64" x2="0.621" y2="-0.094" xlink:href="#linear-gradient-2"/>
    <linearGradient id="linear-gradient-22" x1="0.395" y1="0.988" x2="0.551" y2="0.166" xlink:href="#linear-gradient-2"/>
    <linearGradient id="linear-gradient-23" x1="0.795" y1="-0.279" x2="0.175" y2="1.096" xlink:href="#linear-gradient-2"/>
    <linearGradient id="linear-gradient-24" y1="0.5" x2="1" y2="0.5" gradientUnits="objectBoundingBox">
      <stop offset="0" stop-color="#5d7d91"/>
      <stop offset="1" stop-color="#374b6b"/>
    </linearGradient>
    <clipPath id="clip-path">
      <path id="Path_5138" data-name="Path 5138" d="M771.557,265.137c1.561-10.141.78-14.041-3.9-14.041s-7.019,9.359-7.8,13.26A6.665,6.665,0,0,0,771.557,265.137Z" transform="translate(-759.857 -251.096)" fill="none"/>
    </clipPath>
    <linearGradient id="linear-gradient-26" x1="39.754" y1="-17.854" x2="39.776" y2="-18.689" gradientUnits="objectBoundingBox">
      <stop offset="0" stop-color="#ddf5f5" stop-opacity="0.4"/>
      <stop offset="1" stop-color="#c6d9db" stop-opacity="0"/>
    </linearGradient>
    <linearGradient id="linear-gradient-27" x1="1.694" y1="-0.044" x2="0.57" y2="0.494" gradientUnits="objectBoundingBox">
      <stop offset="0.641" stop-color="#fabb80"/>
      <stop offset="1" stop-color="#faa96c"/>
    </linearGradient>
    <linearGradient id="linear-gradient-28" x1="0.414" y1="0.149" x2="0.591" y2="0.873" gradientUnits="objectBoundingBox">
      <stop offset="0" stop-color="#fff" stop-opacity="0"/>
      <stop offset="1" stop-color="#e4e9eb"/>
    </linearGradient>
    <linearGradient id="linear-gradient-29" x1="-883.895" y1="-2136.187" x2="-883.342" y2="-2134.579" gradientUnits="objectBoundingBox">
      <stop offset="0" stop-color="#fff" stop-opacity="0.2"/>
      <stop offset="1" stop-color="#fff"/>
    </linearGradient>
    <linearGradient id="linear-gradient-30" x1="0.395" y1="1.049" x2="0.534" y2="0.363" xlink:href="#linear-gradient-2"/>
    <linearGradient id="linear-gradient-31" x1="0.579" y1="-0.182" x2="0.46" y2="0.687" gradientUnits="objectBoundingBox">
      <stop offset="0.641" stop-color="#fabb80"/>
      <stop offset="1" stop-color="#faa16c"/>
    </linearGradient>
    <linearGradient id="linear-gradient-34" x1="39.755" y1="-17.717" x2="39.777" y2="-18.553" xlink:href="#linear-gradient-26"/>
    <linearGradient id="linear-gradient-35" x1="0.488" y1="0.882" x2="0.522" y2="0.147" xlink:href="#linear-gradient-24"/>
    <linearGradient id="linear-gradient-36" x1="0.482" y1="0.953" x2="0.517" y2="0.075" xlink:href="#linear-gradient-24"/>
    <linearGradient id="linear-gradient-38" x1="-775.485" y1="-1840.908" x2="-774.932" y2="-1839.3" xlink:href="#linear-gradient-29"/>
    <linearGradient id="linear-gradient-39" x1="0.508" y1="0.208" x2="0.489" y2="0.663" gradientUnits="objectBoundingBox">
      <stop offset="0" stop-color="#ddf5f5"/>
      <stop offset="1" stop-color="#c6d9db"/>
    </linearGradient>
    <linearGradient id="linear-gradient-40" x1="0.66" y1="0.388" x2="0.287" y2="0.834" xlink:href="#linear-gradient-39"/>
    <linearGradient id="linear-gradient-41" x1="0.504" y1="0.181" x2="0.489" y2="0.949" xlink:href="#linear-gradient-39"/>
    <linearGradient id="linear-gradient-42" x1="0.498" y1="0.478" x2="0.389" y2="1.122" gradientUnits="objectBoundingBox">
      <stop offset="0.443" stop-color="#ddf5f5"/>
      <stop offset="1" stop-color="#c6d9db"/>
    </linearGradient>
    <linearGradient id="linear-gradient-43" x1="-0.118" y1="0.939" x2="0.813" y2="0.047" xlink:href="#linear-gradient-2"/>
    <linearGradient id="linear-gradient-44" x1="0.012" y1="-0.367" x2="0.852" y2="1.095" xlink:href="#linear-gradient"/>
    <linearGradient id="linear-gradient-45" x1="-51.359" y1="-189.543" x2="-51.284" y2="-187.927" xlink:href="#linear-gradient"/>
    <linearGradient id="linear-gradient-46" x1="-3.42" y1="-217.294" x2="-3.361" y2="-215.214" xlink:href="#linear-gradient"/>
    <linearGradient id="linear-gradient-47" x1="-33.214" y1="-77.136" x2="-33.091" y2="-75.47" xlink:href="#linear-gradient"/>
    <linearGradient id="linear-gradient-48" x1="-33.475" y1="-143.129" x2="-33.402" y2="-141.293" xlink:href="#linear-gradient-3"/>
  </defs>
  <g id="Group_13276" data-name="Group 13276" transform="translate(-10.79)">
    <g id="Group_13273" data-name="Group 13273" transform="translate(0 23.164)">
      <path id="Path_5101" data-name="Path 5101" d="M740.18,382.7l-9.559,185.619L779.6,572.2l-27.07-185.378Z" transform="translate(-695.371 -119.23)" fill="url(#linear-gradient)"/>
      <g id="Group_13257" data-name="Group 13257" transform="translate(28.355 306.976)">
        <g id="Group_13255" data-name="Group 13255" transform="translate(0 230.685)">
          <path id="Path_5102" data-name="Path 5102" d="M784.625,550.2c.781,28.08,8.58,75.661,8.58,80.341-10.919.78-36.66,6.241-44.46,4.68s-23.4-5.459-17.16,5.461c18.721,0,74.881,1.559,74.881,1.559,0-14.039-8.58-69.42-6.241-88.92S784.625,550.2,784.625,550.2Z" transform="translate(-724.059 -543.766)" fill="url(#linear-gradient-2)"/>
          <path id="Path_5103" data-name="Path 5103" d="M812.718,610.031l-3.12-20.28-19.5-2.341-2.339,7.6a183.2,183.2,0,0,1-31.98,8c-13.261-6.241-26.633-6.741-28.08-3.12a10.513,10.513,0,0,0,0,8.58c3.177.318,17.238,5.2,33.54,5.461C784.96,614.316,812.718,610.031,812.718,610.031Z" transform="translate(-726.412 -513.113)" fill="url(#linear-gradient-3)"/>
          <path id="Path_5104" data-name="Path 5104" d="M814.719,608.095c1.277-3.12,0-9.045,0-9.045s-54.882,9.045-86.862.465c-1.561,3.12-1.544,2.867-.781,3.12C748.137,609.656,769.976,608.095,814.719,608.095Z" transform="translate(-726.57 -504.938)" fill="url(#linear-gradient-4)"/>
        </g>
        <g id="Group_13256" data-name="Group 13256" transform="translate(21.566)">
          <path id="Path_5105" data-name="Path 5105" d="M739.239,408.256c10.919,74.881,18.254,115.007,20.826,140.185s2.572,108.637,4.133,160.118c19.5,4.68,53.04,2.341,53.04,2.341-8.58-55.381-19.783-218.271-15.352-255.776S739.239,408.256,739.239,408.256Z" transform="translate(-739.239 -408.256)" fill="url(#linear-gradient-5)"/>
        </g>
      </g>
      <g id="Group_13259" data-name="Group 13259" transform="translate(67.561 302.714)">
        <g id="Group_13258" data-name="Group 13258" transform="translate(20.855 234.947)">
          <path id="Path_5106" data-name="Path 5106" d="M819.906,550.2c.78,28.08,8.58,75.661,8.58,80.341-10.919.78-36.66,6.241-44.46,4.68s-23.4-5.459-17.16,5.461c18.721,0,74.881,1.559,74.881,1.559,0-14.039-8.58-69.42-6.241-88.92S819.906,550.2,819.906,550.2Z" transform="translate(-759.341 -543.766)" fill="url(#linear-gradient-2)"/>
          <path id="Path_5107" data-name="Path 5107" d="M848,610.031l-3.12-20.28-19.5-2.341-2.341,7.6a183.163,183.163,0,0,1-31.98,8c-13.26-6.241-26.632-6.741-28.079-3.12a10.513,10.513,0,0,0,0,8.58c3.177.318,17.238,5.2,33.54,5.461C820.241,614.316,848,610.031,848,610.031Z" transform="translate(-761.693 -513.113)" fill="url(#linear-gradient-3)"/>
          <path id="Path_5108" data-name="Path 5108" d="M850,608.095c1.277-3.12,0-9.045,0-9.045s-54.884,9.045-86.862.465c-1.561,3.12-1.544,2.867-.781,3.12C783.418,609.656,805.257,608.095,850,608.095Z" transform="translate(-761.852 -504.938)" fill="url(#linear-gradient-4)"/>
        </g>
        <path id="Path_5109" data-name="Path 5109" d="M852.392,408.627c12.95,39.608-2.807,102.376,0,140.8S867.681,697.837,866.9,713.437c-33.54.78-52.26-3.9-52.26-3.9-.78-73.32-8.629-147.941-14.455-169.131S750.083,457.6,749.6,426.395,852.392,408.627,852.392,408.627Z" transform="translate(-749.601 -405.752)" fill="url(#linear-gradient-9)"/>
      </g>
      <g id="Group_13261" data-name="Group 13261" transform="translate(11.598 106.517)">
        <path id="Path_5110" data-name="Path 5110" d="M777.751,326.512c-5.454,2.012-42.61,38.42-51.693,52.451S715,401.357,725.025,401.477s41.277-35.959,47.923-46.53S777.751,326.512,777.751,326.512Z" transform="translate(-715.599 -265.209)" fill="url(#linear-gradient-10)"/>
        <path id="Path_5111" data-name="Path 5111" d="M820.913,290.5c-3.9,15.6-14.819,42.119-1.559,53.04-17.941,22.619-41.34,46.02-60.84,34.319s17.939-58.052,17.939-58.052Z" transform="translate(-691.331 -290.501)" fill="url(#linear-gradient-11)"/>
        <path id="Path_5112" data-name="Path 5112" d="M836.628,323.4c17.939,10.141,30.1,27.9,31.432,36.96s-14.272,78.482-18.952,86.282c11.7,10.919,24.18,15.6,13.26,33.54-24.96,28.86-81.12,23.4-104.521,10.921s-27.3-21.061-24.18-31.98,12.48-32.76,12.48-32.76c.78-27.3,10.141-78,14.041-85.8s14.819-20.28,14.819-20.28C766.823,345.874,791.386,379.564,836.628,323.4Z" transform="translate(-705.484 -269.584)" fill="url(#linear-gradient-12)"/>
        <path id="Path_5113" data-name="Path 5113" d="M819.333,328.307c-16.38,31.2-63.181,148.2-31.2,170.041-3.332,2.092-9.128-.029-9.128-.029-20.512-23.371-.9-104.572,34.869-173.912C815.215,326.126,819.333,328.307,819.333,328.307Z" transform="translate(-678.83 -266.687)" fill="url(#linear-gradient-13)"/>
        <path id="Path_5114" data-name="Path 5114" d="M766.543,323.949c-15.6,95.941-31.2,156.781-8.582,166.92a15.49,15.49,0,0,1-8.58-3.12c-19.5-15.6-3.624-68.627,11.7-159.12C764.477,325.522,766.543,323.949,766.543,323.949Z" transform="translate(-700.14 -267.009)" fill="url(#linear-gradient-14)"/>
        <path id="Path_5115" data-name="Path 5115" d="M803.05,321.658c-24.18,70.979-22.549,168.052-16.38,203.58s4.741,108.926,4.741,108.926c36.6,3.395,82.984-5.23,91.382-6.768C860.588,568.161,845.951,494.039,833,464.815c-8.059-18.19-10.744-38.924-10.207-58.282s16.758-43.3,6.305-59.41S803.05,321.658,803.05,321.658Z" transform="translate(-670.347 -268.618)" fill="url(#linear-gradient-15)"/>
        <path id="Path_5116" data-name="Path 5116" d="M789.356,318.285c-10.112,33.323-23.387,54.1-31.967,109.483-4.171,26.923-7.119,48.641-3.9,81.12s7.02,116.022,5.461,120.8c-21.061,4.879-42.223-1.437-42.223-1.437,12.582-34.343,20.382-141.984,21.943-165.385S753.46,340.623,789.356,318.285Z" transform="translate(-716.727 -270.987)" fill="url(#linear-gradient-16)"/>
        <g id="Group_13260" data-name="Group 13260" transform="translate(39.433 42.279)">
          <path id="Path_5117" data-name="Path 5117" d="M762.18,328.607s-20.4,80.233-22.289,97.837c3.57,7.463,12.929-1.9,16.829,2.783,7.021-71.761,9.559-93.6,17.16-110.761C769.583,317.687,762.18,328.607,762.18,328.607Z" transform="translate(-739.891 -313.166)" fill="url(#linear-gradient-17)"/>
          <path id="Path_5118" data-name="Path 5118" d="M755.818,324.235c-1.17,40.337,26.911,44.967,65.13-3.757,6.241-4.266,7.439,5.7,7.439,5.7-1.978,15.777-83.8,92.366-74.869,5.322C753.869,326.353,755.818,324.235,755.818,324.235Z" transform="translate(-730.798 -312.471)" fill="url(#linear-gradient-18)"/>
          <path id="Path_5119" data-name="Path 5119" d="M758.149,323.543c3.165,4.04,6.409,35.611,32.843,29.222-12.648,8.285-33.958,13.724-37.692-19.342S757.368,322.547,758.149,323.543Z" transform="translate(-731.179 -315.336)" fill="url(#linear-gradient-19)"/>
        </g>
      </g>
      <g id="Group_13272" data-name="Group 13272" transform="translate(11.597)">
        <path id="Path_5131" data-name="Path 5131" d="M848.529,229.147c13.144,1.917,0,67.859,2.341,85.02-31.98,42.119-114.079,13.26-113.981,0s42.126-60.409,57.774-61.405C797.876,237.51,811.089,223.686,848.529,229.147Z" transform="translate(-702.565 -227.931)" fill="url(#linear-gradient-20)"/>
        <path id="Path_5132" data-name="Path 5132" d="M837.6,274.608c5.156-12.608,2.339-46.8-34.321-30.421-7.021,0-17.309-6.995-53.5,36.284-19.351,14.015-16.695,32.241,6.706,31.909S830.579,291.768,837.6,274.608Z" transform="translate(-702.555 -219.572)" fill="url(#linear-gradient-21)"/>
        <path id="Path_5133" data-name="Path 5133" d="M775.183,246.525c4.542.252-.8,18.079-1.959,19.96s-10.6,8.9-13.292,2.661S761.144,245.745,775.183,246.525Z" transform="translate(-686.94 -214.889)" fill="url(#linear-gradient-22)"/>
        <path id="Path_5134" data-name="Path 5134" d="M799.755,267.715c.3-4.736,12.48-18.721,29.641-9.359,14.116,7.7-16.382,23.4-21.061,24.96S798.976,280.195,799.755,267.715Z" transform="translate(-658.472 -208.779)" fill="url(#linear-gradient-23)"/>
        <g id="Group_13267" data-name="Group 13267" transform="translate(73.423 37.876)">
          <path id="Path_5135" data-name="Path 5135" d="M771.557,265.137c1.561-10.141.78-14.041-3.9-14.041s-7.019,9.359-7.8,13.26A6.665,6.665,0,0,0,771.557,265.137Z" transform="translate(-759.857 -249.537)" fill="#fff"/>
          <path id="Path_5136" data-name="Path 5136" d="M759.857,265c.781-13.26,6.241-14.819,8.58-14.819s6.241,2.339,3.12,15.6c.78-12.482-1.559-14.041-3.9-14.041S761.418,255.639,759.857,265Z" transform="translate(-759.857 -250.18)" fill="url(#linear-gradient-24)"/>
          <g id="Group_13266" data-name="Group 13266" transform="translate(0 1.559)">
            <g id="Group_13265" data-name="Group 13265" clip-path="url(#clip-path)">
              <g id="Group_13264" data-name="Group 13264" transform="translate(3.065 5.593)">
                <circle id="Ellipse_267" data-name="Ellipse 267" cx="5.786" cy="5.786" r="5.786" transform="translate(0.493)" fill="url(#linear-gradient-24)"/>
                <path id="Path_5137" data-name="Path 5137" d="M772.075,259.565a4.766,4.766,0,1,1-4.944-4.581A4.767,4.767,0,0,1,772.075,259.565Z" transform="translate(-761.033 -253.96)" fill="url(#linear-gradient-26)"/>
                <circle id="Ellipse_268" data-name="Ellipse 268" cx="1.94" cy="1.94" r="1.94" transform="translate(0 1.218)" fill="#fff"/>
              </g>
            </g>
          </g>
        </g>
        <path id="Path_5139" data-name="Path 5139" d="M802.928,265.153c7.8-1.561,10.139,3.12,8.58,7.02,8.58-7.02,12.48-9.361,11.767-11.824C822.028,256.047,805.267,262.033,802.928,265.153Z" transform="translate(-656.183 -206.217)" fill="url(#linear-gradient-27)"/>
        <g id="Group_13268" data-name="Group 13268" transform="translate(52.363 39.436)">
          <ellipse id="Ellipse_269" data-name="Ellipse 269" cx="7.774" cy="8.112" rx="7.774" ry="8.112" transform="translate(1.352 2.028)" fill="url(#linear-gradient-28)"/>
          <path id="Path_5140" data-name="Path 5140" d="M756.951,251.1c-5.413,0-9.465,4.491-9.465,10.141s4.052,10.139,9.465,10.139,9.463-4.491,9.463-10.139S762.365,251.1,756.951,251.1Zm-.339,18.253a8.12,8.12,0,1,1,7.775-8.112A7.95,7.95,0,0,1,756.612,269.349Z" transform="translate(-747.486 -251.096)" fill="#283547"/>
          <ellipse id="Ellipse_270" data-name="Ellipse 270" cx="3.479" cy="2.569" rx="3.479" ry="2.569" transform="matrix(0.894, -0.448, 0.448, 0.894, 2.296, 5.956)" fill="url(#linear-gradient-29)"/>
        </g>
        <path id="Path_5141" data-name="Path 5141" d="M754.32,268.335c-.78,3.9-4.68,9.361-5.459,10.141,5.459,2.339,17.939,2.339,19.5,2.339-6.241,0-15.6-3.119-15.6-3.119.78-2.341,3.119-7.8,3.119-9.361S754.32,268.335,754.32,268.335Z" transform="translate(-694.157 -200.039)" fill="#e36d4f"/>
        <path id="Path_5142" data-name="Path 5142" d="M779.676,269.968c-.182-14.041.6-27.3,11.518-24.18s8.563,17.16,7.4,23.4S779.858,279.328,779.676,269.968Z" transform="translate(-672.529 -215.712)" fill="url(#linear-gradient-30)"/>
        <path id="Path_5143" data-name="Path 5143" d="M792.652,256.941c-2.162-3.245-4.68,3.9-10.919,4.681s-42.6-5.528-45.092,5.815S762.232,281.9,773.933,278c5.459,5.459,15.5,3.119,15.549-3.9S794.213,259.281,792.652,256.941Z" transform="translate(-702.849 -208.146)" fill="url(#linear-gradient-31)"/>
        <g id="Group_13270" data-name="Group 13270" transform="translate(107.709 38.656)">
          <path id="Path_5145" data-name="Path 5145" d="M780.032,265.595c1.559-12.48,5.459-14.041,10.139-14.041s7.021,7.8,7.021,13.261C791.733,274.175,779.253,274.954,780.032,265.595Z" transform="translate(-779.998 -249.995)" fill="#fff"/>
          <path id="Path_5146" data-name="Path 5146" d="M797.178,265.459c0-13.261-3.9-14.821-7.8-14.821s-9.359,3.12-9.359,15.6c1.559-10.921,5.459-13.062,8.58-13.161S796.4,254.538,797.178,265.459Z" transform="translate(-779.983 -250.638)" fill="url(#linear-gradient-24)"/>
          <g id="Group_13269" data-name="Group 13269" transform="translate(3.099 7.153)">
            <circle id="Ellipse_271" data-name="Ellipse 271" cx="5.786" cy="5.786" r="5.786" transform="translate(0.493)" fill="url(#linear-gradient-24)"/>
            <path id="Path_5147" data-name="Path 5147" d="M792.234,260.023a4.765,4.765,0,1,1-4.944-4.581A4.766,4.766,0,0,1,792.234,260.023Z" transform="translate(-781.193 -254.419)" fill="url(#linear-gradient-34)"/>
            <circle id="Ellipse_272" data-name="Ellipse 272" cx="1.94" cy="1.94" r="1.94" transform="translate(0 1.218)" fill="#fff"/>
          </g>
        </g>
        <path id="Path_5148" data-name="Path 5148" d="M778.7,244.967c-.78,3.9,2.237,9.2,3.069,8.888,2.443-3.735,11.118-6.884,17.675.695-2.487-9.024-10.714-12.536-15.34-11.06a6.157,6.157,0,0,0-1.5,3.818l-.78-3.12Z" transform="translate(-673.292 -217.232)" fill="url(#linear-gradient-35)"/>
        <path id="Path_5149" data-name="Path 5149" d="M778.579,245.349c-.182,1.241-2.346,8.261-3.214,8.261-.955-3.12-5.573-9.361-14.141,0,3.146-6.241,9.39-8.721,13.672-8.261,1.544.921,1.195,2.01,1.195,2.01l.7-2.063Z" transform="translate(-685.474 -215.734)" fill="url(#linear-gradient-36)"/>
        <g id="Group_13271" data-name="Group 13271" transform="translate(83.564 41.776)">
          <ellipse id="Ellipse_273" data-name="Ellipse 273" cx="8.97" cy="9.36" rx="8.97" ry="9.36" transform="translate(1.56 2.339)" fill="url(#linear-gradient-28)"/>
          <path id="Path_5150" data-name="Path 5150" d="M776.734,252.471c-6.248,0-10.92,5.182-10.92,11.7s4.673,11.7,10.92,11.7,10.919-5.182,10.919-11.7S782.98,252.471,776.734,252.471Zm-.391,21.06a9.369,9.369,0,1,1,8.971-9.36A9.171,9.171,0,0,1,776.343,273.531Z" transform="translate(-765.814 -252.471)" fill="#283547"/>
          <ellipse id="Ellipse_274" data-name="Ellipse 274" cx="4.014" cy="2.964" rx="4.014" ry="2.964" transform="matrix(0.894, -0.448, 0.448, 0.894, 2.648, 6.872)" fill="url(#linear-gradient-38)"/>
        </g>
        <path id="Path_5151" data-name="Path 5151" d="M758.1,257.573c2.47-3.291,12.042-2.511,13.956.609v1.825c-4.467-3.386-10.047-3.764-13.956-.844A3.61,3.61,0,0,1,758.1,257.573Z" transform="translate(-687.716 -208.606)" fill="#283547"/>
        <path id="Path_5152" data-name="Path 5152" d="M758.169,272.642c-5.633,17.343,17.762,24.742,58.5,10.139,9.36-3.9,24.96-5.95,24.96-5.95,1.561,1.27,1.244,10.083,1.244,10.083,1.876-1.793,5.776-11.933,5.776-14.272,1.559-4.68,6.688-7.8,6.688-7.8,1.112,5.459,4.617,14.564,9.494,13.912,8.2,3.376,6.6,42.514,3.789,50.182a52.213,52.213,0,0,1-24.781,14.218,23.737,23.737,0,0,0-.967-13.82c-3.583,13.508-15.309,30.818-50.4,34.253,4.707-4.83,6.828-12.18,5.371-16.463-6.035,14.058-27.2,28.479-28.758,43.3-20.28-17.939-49.92-49.92-47.581-67.081a70.874,70.874,0,0,0-4.68,7.02C716.05,307.741,718.763,275.085,758.169,272.642Z" transform="translate(-716.726 -202.006)" fill="url(#linear-gradient-39)"/>
        <path id="Path_5153" data-name="Path 5153" d="M802.419,286.582c3.59,14.472,6.05,41.987-30.28,53.969,6.118-8.8,10.469-18.438,11.249-21.559-3.9,7.8-13.4,13.542-13.723,13.791.924-8.862,4.363-19.1,12.943-31.265.78,6.089,0,8.115,0,8.115C787.289,304.954,794.929,300.97,802.419,286.582Z" transform="translate(-679.545 -186.737)" fill="url(#linear-gradient-40)"/>
        <path id="Path_5154" data-name="Path 5154" d="M759.927,283.628c-15.6,7.021-24.96,27.3-24.18,39.78-7.021-7.8-9.359-22.621-9.359-24.18-4.68,15.6-3.9,33.54,24.18,57.72,11.7-8.58,33.334-19.5,42.017-45.24a37.762,37.762,0,0,1-19.293,9.807c3.015-5.907,1.455-14.487,1.455-14.487-4.68,3.119-11.7,4.68-13.26,6.239C757.588,303.128,757.588,291.428,759.927,283.628Z" transform="translate(-711.464 -188.812)" fill="url(#linear-gradient-41)"/>
        <path id="Path_5155" data-name="Path 5155" d="M802.691,274.33c8.665,6.467,11.537,34.614-1.988,47.841-5.992-12.546-5.311-26.984-5.311-26.984a9.666,9.666,0,0,1,5.046,6.672C802,293.279,800.265,278.782,802.691,274.33Z" transform="translate(-661.493 -195.342)" fill="url(#linear-gradient-42)"/>
        <path id="Path_5156" data-name="Path 5156" d="M799.9,358.315c-1.559,17.442-5.459,47.861-14.821,47.861-15.9,0-5.735-124.414-5.735-144.887" transform="translate(-674.995 -204.501)" fill="none" stroke="#283547" stroke-linecap="round" stroke-miterlimit="10" stroke-width="0.916"/>
      </g>
    </g>
    <g id="Group_13274" data-name="Group 13274" transform="translate(10.79 137.19)">
      <path id="Path_5157" data-name="Path 5157" d="M721.935,376.287C725.651,361.5,729.9,338.1,729.9,338.1c-4.249-7.017-9.142-19.4-1.626-28.809s17.076-17.275,19.706-13.343-9.177,8.779-13.023,14.936a35.241,35.241,0,0,1,9.414.7s6.239,14.039,6.239,16.38-10.139,14.819-11.7,17.939-7.255,41.859-7.255,41.859Z" transform="translate(-712.262 -294.912)" fill="url(#linear-gradient-43)"/>
      <path id="Path_5158" data-name="Path 5158" d="M744.713,327.511c-.356,11.545-7.759,59.863-9.261,66.722s-17.8,19.257-19.122-.2S731.2,320.741,731.2,320.741Z" transform="translate(-716.253 -276.771)" fill="url(#linear-gradient-44)"/>
    </g>
    <g id="Group_13275" data-name="Group 13275" transform="translate(78.164)">
      <path id="Path_5159" data-name="Path 5159" d="M817.587,224.069c-6.782-9.858-24.141-10.7-27.093-9.111s-8.4,4.9-10.606,8.13C780.538,229.789,813,229.312,817.587,224.069Z" transform="translate(-738.932 -214.323)" fill="url(#linear-gradient-45)"/>
      <path id="Path_5160" data-name="Path 5160" d="M814.994,233.312c-25.033-3.238-56.974-3.536-59.071,3.589s31.841,15.985,61.523,18.367c33.039,2.651,52.586.775,52.866-5.322S839.257,236.451,814.994,233.312Z" transform="translate(-755.83 -202.526)" fill="url(#linear-gradient-46)"/>
      <path id="Path_5161" data-name="Path 5161" d="M774.28,241.611c1.976-11.5,8.883-20.049,10.452-22.7.439,6.157,6.374,3.02,9.324,1.793s33.528-5.274,36.856,1.016-.577,29.716-.577,29.716C815.438,253.277,783.039,250.116,774.28,241.611Z" transform="translate(-742.871 -211.54)" fill="url(#linear-gradient-47)"/>
      <path id="Path_5162" data-name="Path 5162" d="M776.227,228.03c6.212,8.13,33.868,13.663,55.284,9.366a37.2,37.2,0,0,0-.092,6.975c-11.84,4.435-48.98.483-57.408-9.651A53.245,53.245,0,0,1,776.227,228.03Z" transform="translate(-743.061 -204.696)" fill="url(#linear-gradient-48)"/>
    </g>
  </g>
</svg>
