<svg xmlns="http://www.w3.org/2000/svg" xmlns:xlink="http://www.w3.org/1999/xlink" width="168.15" height="496.582" viewBox="0 0 168.15 496.582">
  <defs>
    <linearGradient id="linear-gradient" x1="-3.126" y1="0.316" x2="-2.897" y2="1.108" gradientUnits="objectBoundingBox">
      <stop offset="0" stop-color="#737d83"/>
      <stop offset="1" stop-color="#191121"/>
    </linearGradient>
    <linearGradient id="linear-gradient-2" x1="-0.006" y1="0.234" x2="0.745" y2="0.622" gradientUnits="objectBoundingBox">
      <stop offset="0" stop-color="#d993bf"/>
      <stop offset="1" stop-color="#ed5b89"/>
    </linearGradient>
    <linearGradient id="linear-gradient-3" x1="0.029" y1="0.087" x2="0.844" y2="0.624" gradientUnits="objectBoundingBox">
      <stop offset="0.004" stop-color="#fff5f5"/>
      <stop offset="1" stop-color="#c6d9db"/>
    </linearGradient>
    <linearGradient id="linear-gradient-4" x1="0.489" y1="0.058" x2="0.725" y2="1.076" xlink:href="#linear-gradient"/>
    <linearGradient id="linear-gradient-5" x1="2.08" y1="-0.054" x2="-0.119" y2="0.724" gradientUnits="objectBoundingBox">
      <stop offset="0.511" stop-color="#fac38f"/>
      <stop offset="1" stop-color="#faa96c"/>
    </linearGradient>
    <linearGradient id="linear-gradient-6" x1="3.303" y1="-0.618" x2="0.23" y2="0.629" gradientUnits="objectBoundingBox">
      <stop offset="0.641" stop-color="#ffd7a5"/>
      <stop offset="1" stop-color="#faa96c"/>
    </linearGradient>
    <linearGradient id="linear-gradient-7" x1="535.728" y1="139.024" x2="535.174" y2="139.838" xlink:href="#linear-gradient-2"/>
    <linearGradient id="linear-gradient-8" x1="641.445" y1="167.684" x2="640.895" y2="168.498" xlink:href="#linear-gradient-2"/>
    <linearGradient id="linear-gradient-9" x1="685.059" y1="182.006" x2="684.518" y2="182.82" xlink:href="#linear-gradient-2"/>
    <linearGradient id="linear-gradient-10" x1="626.431" y1="128.469" x2="626.045" y2="129.348" xlink:href="#linear-gradient-2"/>
    <linearGradient id="linear-gradient-11" x1="375.322" y1="-372.019" x2="375.655" y2="-370.745" xlink:href="#linear-gradient-2"/>
    <linearGradient id="linear-gradient-12" x1="387.478" y1="-420.879" x2="387.761" y2="-419.691" xlink:href="#linear-gradient-2"/>
    <linearGradient id="linear-gradient-13" x1="469.276" y1="-452.889" x2="469.577" y2="-451.767" xlink:href="#linear-gradient-2"/>
    <linearGradient id="linear-gradient-14" x1="0.477" y1="0.475" x2="0.588" y2="0.076" xlink:href="#linear-gradient-6"/>
    <linearGradient id="linear-gradient-15" x1="0.489" y1="-0.073" x2="0.51" y2="0.897" xlink:href="#linear-gradient-2"/>
    <linearGradient id="linear-gradient-16" x1="0.492" y1="-0.041" x2="0.507" y2="0.888" xlink:href="#linear-gradient-2"/>
    <linearGradient id="linear-gradient-17" x1="0.493" y1="-0.034" x2="0.506" y2="0.892" xlink:href="#linear-gradient-2"/>
    <linearGradient id="linear-gradient-18" x1="0.496" y1="-0.096" x2="0.505" y2="0.891" xlink:href="#linear-gradient-2"/>
    <linearGradient id="linear-gradient-19" x1="0.495" y1="-0.094" x2="0.505" y2="0.888" xlink:href="#linear-gradient-2"/>
    <linearGradient id="linear-gradient-20" x1="0.494" y1="-0.09" x2="0.506" y2="0.899" xlink:href="#linear-gradient-2"/>
    <linearGradient id="linear-gradient-21" x1="0.494" y1="-0.093" x2="0.506" y2="0.906" xlink:href="#linear-gradient-2"/>
    <linearGradient id="linear-gradient-22" x1="0.494" y1="-0.096" x2="0.506" y2="0.896" xlink:href="#linear-gradient-2"/>
    <linearGradient id="linear-gradient-23" x1="0.494" y1="-0.093" x2="0.507" y2="0.89" xlink:href="#linear-gradient-2"/>
    <linearGradient id="linear-gradient-24" x1="0.855" y1="-0.033" x2="0.226" y2="0.887" gradientUnits="objectBoundingBox">
      <stop offset="0" stop-color="#c3577f"/>
      <stop offset="1" stop-color="#ad298d"/>
    </linearGradient>
    <linearGradient id="linear-gradient-25" x1="0.094" y1="0.25" x2="0.784" y2="0.673" xlink:href="#linear-gradient-2"/>
    <linearGradient id="linear-gradient-26" x1="0.029" y1="0.087" x2="0.844" y2="0.624" gradientUnits="objectBoundingBox">
      <stop offset="0" stop-color="#fff5f5"/>
      <stop offset="1" stop-color="#c6d9db"/>
    </linearGradient>
    <linearGradient id="linear-gradient-27" x1="0.1" y1="-0.014" x2="0.654" y2="0.914" xlink:href="#linear-gradient-6"/>
    <linearGradient id="linear-gradient-28" x1="0.795" y1="0.168" x2="0.54" y2="0.455" gradientUnits="objectBoundingBox">
      <stop offset="0" stop-color="#5d7d91"/>
      <stop offset="1" stop-color="#374b6b"/>
    </linearGradient>
    <linearGradient id="linear-gradient-29" x1="0.553" y1="-0.193" x2="0.488" y2="0.844" xlink:href="#linear-gradient-28"/>
    <clipPath id="clip-path">
      <circle id="Ellipse_284" data-name="Ellipse 284" cx="24.96" cy="24.96" r="24.96" fill="none"/>
    </clipPath>
    <linearGradient id="linear-gradient-30" x1="352.423" y1="-217.052" x2="349.862" y2="-214.033" gradientUnits="objectBoundingBox">
      <stop offset="0" stop-color="#ffe5b3"/>
      <stop offset="0.169" stop-color="#fadb9e"/>
      <stop offset="0.514" stop-color="#f0c46b"/>
      <stop offset="1" stop-color="#df9f19"/>
    </linearGradient>
    <linearGradient id="linear-gradient-31" x1="398.21" y1="-224" x2="395.322" y2="-220.903" xlink:href="#linear-gradient-30"/>
    <linearGradient id="linear-gradient-32" x1="530.27" y1="-289.427" x2="526.419" y2="-285.415" xlink:href="#linear-gradient-30"/>
    <linearGradient id="linear-gradient-33" x1="182.082" y1="-103.6" x2="180.761" y2="-102.152" xlink:href="#linear-gradient-30"/>
  </defs>
  <g id="Group_13355" data-name="Group 13355" transform="translate(0 -100.711)">
    <g id="Group_13293" data-name="Group 13293" transform="translate(0 2.078)">
      <path id="Path_5163" data-name="Path 5163" d="M1677.662,382.366c9.56,12.163,8.027,38.989,4.113,44.687-2.366.475-2.509-1.561-2.509-1.561,2.5-5.221,5.444-26.558-2.964-37.981C1675.034,385.786,1677.039,381.571,1677.662,382.366Z" transform="translate(-1562.571 -168.329)" fill="#283547"/>
      <g id="Group_13278" data-name="Group 13278" transform="translate(15.581 246.514)">
        <path id="Path_5164" data-name="Path 5164" d="M1669.892,415.464c25.654,20.142,41.11,16.8,34.561,46.534s-19.2,70.95-22.762,80.829c23.6,19.686,17.212,40.342,4.772,75.7s-17.495,69.331-11.185,82.775c-6.159,13.968-17.141-1.088-17.12-1.918.135-39.031,3.025-99.754-5.55-122.39s-22.347-72.285-20.757-101.007c2.365-42.714,5.442-66.422,6.828-74.58C1646,407.4,1650.053,411.651,1669.892,415.464Z" transform="translate(-1609.171 -401.403)" fill="url(#linear-gradient)"/>
        <g id="Group_13277" data-name="Group 13277" transform="translate(0 291.167)">
          <path id="Path_5165" data-name="Path 5165" d="M1684.555,573.44c2.491,13.285,24.909,27.4,24.078,40.684-23.247,4.15-70.574,15.774-89.669-8.3,13.283-3.321,42.366-12.153,45.676-27.663C1675.41,579.517,1676.253,569.288,1684.555,573.44Z" transform="translate(-1618.133 -572.442)" fill="url(#linear-gradient-2)"/>
          <path id="Path_5166" data-name="Path 5166" d="M1710.636,594.875c0,10.793-5.776,18.266-12.436,19.1-8.338,0-16.624-.829-19.114-4.981-4.567,4.566-6.678,4.981-12.471,4.981s-38.175,2.492-48.139-20.757c4.981-1.66,39.023,7.473,42.344,10.795,7.472,3.321,12.454,5.611,20.757-6.844,6.643,7.472,12.455,2.691,12.455,2.691S1700.674,582.421,1710.636,594.875Z" transform="translate(-1618.476 -559.835)" fill="url(#linear-gradient-3)"/>
          <path id="Path_5167" data-name="Path 5167" d="M1645.507,591.748c-20.757-17.435-3.2-26.8.473-1.36,1.544-14.715,17.836-14.38,1.209-.283" transform="translate(-1606.484 -570.824)" fill="none" stroke="#283547" stroke-linecap="round" stroke-linejoin="round" stroke-width="0.975"/>
        </g>
      </g>
      <path id="Path_5168" data-name="Path 5168" d="M1689.877,404.4c26.146,19.5,62.059,27.186,56.247,57.078s-17.435,71.4-20.757,81.365c24.078,19.1,22.3,30.823,10.733,66.473s-19.866,78.825-13.224,92.11c-5.812,14.114-16.606,1.309-16.606.48-.829-39.023,0-101.775-9.133-124.191s-21.71-73.9-33.687-100.049-15.175-57.933-13.99-66.121C1660.129,415.1,1682.618,412.084,1689.877,404.4Z" transform="translate(-1581.295 -152.784)" fill="url(#linear-gradient-4)"/>
      <g id="Group_13279" data-name="Group 13279" transform="translate(3.681 147.392)">
        <path id="Path_5169" data-name="Path 5169" d="M1664.524,343.979c-11.156,4.166-36.6,34.158-48.857,56.174s5.213,25.881,16.805,9.913,27.765-31.493,32.957-38.07S1680.048,338.185,1664.524,343.979Z" transform="translate(-1611.486 -343.176)" fill="url(#linear-gradient-5)"/>
        <path id="Path_5170" data-name="Path 5170" d="M1613.11,392.109c4.118,5.538,27.195,33.214,34.072,36.313s11.487-.788,6.181-8.82-23.22-33.325-27.246-36.757S1606.791,383.609,1613.11,392.109Z" transform="translate(-1611.406 -316.157)" fill="url(#linear-gradient-6)"/>
      </g>
      <g id="Group_13280" data-name="Group 13280" transform="translate(0 145.347)">
        <path id="Path_5171" data-name="Path 5171" d="M1650.183,343.494c-7.473,2.717-19.848,16.787-21.233,20.515s12.7,20.677,17.556,18.172,14.376-14.958,16.991-20.678S1669.506,336.465,1650.183,343.494Z" transform="translate(-1595.606 -341.975)" fill="url(#linear-gradient-7)"/>
        <path id="Path_5172" data-name="Path 5172" d="M1651.823,375.052c3.842-7.71-9.258-27.032-17.035-21.633A38.306,38.306,0,0,0,1621.9,369.1c-.933,2.485,16.63,18.867,19.209,16.773S1650.087,378.533,1651.823,375.052Z" transform="translate(-1600.518 -334.596)" fill="url(#linear-gradient-8)"/>
        <path id="Path_5173" data-name="Path 5173" d="M1644.779,379.033c2.579-7.148-13.578-20.052-18.4-17.2s-9.766,11.985-10.032,15.563,14.562,17.1,17.749,14.7S1642.8,384.515,1644.779,379.033Z" transform="translate(-1604.396 -328.309)" fill="url(#linear-gradient-9)"/>
        <path id="Path_5174" data-name="Path 5174" d="M1626.7,399.457c6.394-5.049,13.828-12.218,14.017-16.909s-15.873-18.3-21.312-11.659-10.983,18-7.838,22.42S1624.415,401.266,1626.7,399.457Z" transform="translate(-1608.386 -322.927)" fill="url(#linear-gradient-10)"/>
        <path id="Path_5175" data-name="Path 5175" d="M1633.355,382.953c-3.083-2.313-19.5-11.7-23.4-2.341-2.739,6.573,4.2,18.236,6.241,17.939s20.333-5.121,20.28-7.8S1636.475,385.292,1633.355,382.953Z" transform="translate(-1609.323 -317.698)" fill="url(#linear-gradient-11)"/>
        <path id="Path_5176" data-name="Path 5176" d="M1632.363,383.083c-2.719-1.423-23.314,2.439-20.745,9.519,1.532,4.222,7.368,9.9,10.575,9.618s15.456-7.284,15.5-10.788C1637.743,387.871,1634.629,384.268,1632.363,383.083Z" transform="translate(-1607.867 -313.308)" fill="url(#linear-gradient-12)"/>
        <path id="Path_5177" data-name="Path 5177" d="M1634.446,388.125c-1.881-.752-19.5,4.68-17.655,10.663.972,3.149,5.17,7.79,7.514,7.276s14.017-7.579,14.041-9.36S1638.016,389.553,1634.446,388.125Z" transform="translate(-1604.174 -309.61)" fill="url(#linear-gradient-13)"/>
      </g>
      <g id="Group_13281" data-name="Group 13281" transform="translate(34.524 98.633)">
        <path id="Path_5178" data-name="Path 5178" d="M1708.8,314.534c-6.643,9.133-13.285,32.382-9.964,38.194s26.568,9.962,29.89,19.1-16.6,51.477-27.4,65.591-10.114,24.549-5.08,31.987c-28.86,10.921-51.378,11.188-56.36.4-.831-19.928,1.66-65.167,2.49-66.422-4.152-12.471-4.152-34.873,5.812-41.513s27.4-11.625,27.4-11.625c0-9.962.831-22.417.831-22.417Z" transform="translate(-1622.498 -314.534)" fill="url(#linear-gradient-14)"/>
        <path id="Path_5179" data-name="Path 5179" d="M1669.081,386.339c1.661-4.152,13.285-33.211,25.739-44" transform="translate(-1601.877 -295.008)" fill="none" stroke="#c0717c" stroke-linecap="round" stroke-miterlimit="10" stroke-width="0.975"/>
        <path id="Path_5180" data-name="Path 5180" d="M1662.234,337.945c-6.643,6.643-19.1,35.7-22.417,42.344" transform="translate(-1622.429 -298.091)" fill="none" stroke="#c0717c" stroke-linecap="round" stroke-miterlimit="10" stroke-width="0.975"/>
        <path id="Path_5181" data-name="Path 5181" d="M1717.565,390.758c-7.472,1.662-19.926-12.454-19.1-21.587-19.1,7.473-45.665,7.473-49.818-8.3-17.435,17.435-31.549,32.646-1.66,52.854-.831,3.057-1.387,6.144,0,7.349,10.667,9.273,55.627,5.388,55.627,5.388Z" transform="translate(-1629.604 -281.992)" fill="url(#linear-gradient-15)"/>
      </g>
      <g id="Group_13282" data-name="Group 13282" transform="translate(32.277 104.552)">
        <path id="Path_5182" data-name="Path 5182" d="M1653.731,327.34c-3.12,2.339-3.12,13.774,0,14.819,14.039,8.58,38.684-1.227,42.743-5.294s7.6-18.748-1.209-18.852C1685.433,317.9,1657.564,323.176,1653.731,327.34Z" transform="translate(-1612.054 -318.011)" fill="url(#linear-gradient-16)"/>
        <path id="Path_5183" data-name="Path 5183" d="M1654.253,334.014c-3.207,1.374-4.358,10.492-3.12,14.821,1.559,5.459,39.544,7.71,46.8-3.9,3.9-6.241,3.355-17.338,0-16.38C1692.473,330.114,1663.613,342.594,1654.253,334.014Z" transform="translate(-1612.577 -310.646)" fill="url(#linear-gradient-17)"/>
        <path id="Path_5184" data-name="Path 5184" d="M1701.795,338.051c-10.139,7.019-22.619,7.8-35.88,6.239-5.422-.638-10.139-4.68-10.139-7.02-5.461-.78-11.05,4.189-11.7,7.02s7.021,12.48,17.939,14.821,42.121,6.239,56.94-12.48C1721.745,343.105,1704.835,335.945,1701.795,338.051Z" transform="translate(-1617.219 -304.542)" fill="url(#linear-gradient-18)"/>
        <path id="Path_5185" data-name="Path 5185" d="M1723.673,343.135c6.13,1.779,13.537,9.492,9.5,15.277s-34.959,23.869-66.521,16.371c-24.878-5.909-28.778-14.446-28.778-17.609-3.12-7.02,7.8-18.721,10.92-15.6s9.874,12.778,24.827,15.359S1712.754,351.715,1723.673,343.135Z" transform="translate(-1621.938 -301.826)" fill="url(#linear-gradient-19)"/>
        <path id="Path_5186" data-name="Path 5186" d="M1722.636,359.884c6.665,0,8.668,20.495,0,26.172-14.819,9.708-56.94,6.588-70.979-1.21s-15.861-7.414-17.161-13.261c-5.459-5.459-.78-20.28,7.021-21.06,5.3,3.735,8.358,11.613,28.86,15.6C1698.457,371.584,1716.4,359.884,1722.636,359.884Z" transform="translate(-1625.581 -295.175)" fill="url(#linear-gradient-20)"/>
        <path id="Path_5187" data-name="Path 5187" d="M1723.45,377.716c6.239,2.341-4.637,21.678-10.141,24.18-8.58,3.9-78.247-.475-83.459-18.721-3.12-10.921.78-17.16,7.019-20.28,3.253,2.47,10.141,11.7,31.98,16.38C1700.572,386.072,1716.6,375.147,1723.45,377.716Z" transform="translate(-1627.954 -286.487)" fill="url(#linear-gradient-21)"/>
        <path id="Path_5188" data-name="Path 5188" d="M1714.021,391.8c3.136,3.251-.266,14.245-6.174,17.686-27.416,2.981-62.068,3.44-72.988-7.48-6.241-3.12-9.288-23.68-3.475-27.05C1646.911,389.275,1685.543,398.752,1714.021,391.8Z" transform="translate(-1628.283 -278.016)" fill="url(#linear-gradient-22)"/>
        <path id="Path_5189" data-name="Path 5189" d="M1633.156,389.929c13.323,8.862,46.8,17.16,72.391,8.081,2.638,2.557,7.17,12.2,1.709,17.658-16.38,10.141-51.828,18.07-68.424-1.1C1632.16,406.634,1627.695,396.948,1633.156,389.929Z" transform="translate(-1626.58 -267.5)" fill="url(#linear-gradient-23)"/>
        <path id="Path_5190" data-name="Path 5190" d="M1673.009,321.161c-1.33,4.746-8.4,14.63-3.3,33.868s-19.865,32.5-27.864,53.442c-5.43,14.218-10.263,48.612,8.228,64.144-5.917-10.275-16.189-26.885-6.469-60.908,7.8-27.3,33.541-35.88,28.29-56.678C1667.825,338.935,1673.009,321.161,1673.009,321.161Z" transform="translate(-1622.205 -315.798)" fill="url(#linear-gradient-24)"/>
      </g>
      <g id="Group_13283" data-name="Group 13283" transform="translate(75.991 541.002)">
        <path id="Path_5191" data-name="Path 5191" d="M1720.042,575.391c2.491,13.285,24.907,27.4,24.078,40.683-23.249,4.152-70.574,15.776-89.671-8.3,13.285-3.321,42.368-12.153,45.677-27.663C1710.9,581.468,1711.738,571.239,1720.042,575.391Z" transform="translate(-1653.62 -574.393)" fill="url(#linear-gradient-25)"/>
        <path id="Path_5192" data-name="Path 5192" d="M1746.122,596.826c0,10.793-5.776,18.266-12.436,19.1-8.338,0-16.623-.829-19.114-4.981-4.567,4.566-6.678,4.981-12.473,4.981s-38.175,2.491-48.137-20.757c4.981-1.66,39.023,7.473,42.344,10.795,7.471,3.32,12.454,5.611,20.757-6.843,6.643,7.472,12.454,2.691,12.454,2.691S1736.158,584.372,1746.122,596.826Z" transform="translate(-1653.962 -561.786)" fill="url(#linear-gradient-26)"/>
        <path id="Path_5193" data-name="Path 5193" d="M1680.993,593.7c-20.757-17.435-3.206-26.8.473-1.36,1.544-14.715,17.836-14.38,1.209-.283" transform="translate(-1641.971 -572.775)" fill="none" stroke="#283547" stroke-linecap="round" stroke-linejoin="round" stroke-width="0.975"/>
      </g>
      <path id="Path_5230" data-name="Path 5230" d="M1633.644,408.624c1.023-2.812,3.321-10.793,7.472-9.133,2.276.911,15.433,14.163,14.945,16.606-3.321,2.49-10.051-5.477-11.252-5.23,4.239,3.817,7.931,10.211,7.931,11.041s-3.321,5.812-6.643,4.981-7.524-1.44-10.4-2.8S1630.323,417.757,1633.644,408.624Z" transform="translate(-1593.355 -156.39)" fill="url(#linear-gradient-27)"/>
    </g>
    <circle id="Ellipse_282" data-name="Ellipse 282" cx="24.96" cy="24.96" r="24.96" transform="translate(73.156 250.093)" fill="url(#linear-gradient-28)"/>
    <path id="Path_5272" data-name="Path 5272" d="M1662.348,409.795c-4.336,7.926,30.273,35.9,30.273,35.9-4.833,2.732-11.993,2.708-19.145,2.283-9.08-.541-19.243-8.8-20.883-20.832-1.67-12.271,5.271-19.412,4.493-19.005C1656.815,412.68,1661.1,410.251,1662.348,409.795Z" transform="translate(-1579.115 -148.09)" fill="url(#linear-gradient-29)"/>
    <circle id="Ellipse_283" data-name="Ellipse 283" cx="24.96" cy="24.96" r="24.96" transform="translate(79.771 249.281)" fill="#283547"/>
    <path id="Path_5273" data-name="Path 5273" d="M1649.692,340.5c-18.721,51.481-7.021,98.28,18.458,120.9a18.224,18.224,0,0,1-1.3,4.68c-35.88-31.2-34.3-88.658-21.06-124.021A3.469,3.469,0,0,1,1649.692,340.5Z" transform="translate(-1589.78 -195.677)" fill="#283547"/>
    <path id="Path_5274" data-name="Path 5274" d="M1684.38,428.875" transform="translate(-1556.607 -133.516)" fill="none" stroke="#000" stroke-miterlimit="10" stroke-width="0.458"/>
    <path id="Path_5275" data-name="Path 5275" d="M1655.514,410.547" transform="translate(-1576.881 -146.389)" fill="none" stroke="#000" stroke-miterlimit="10" stroke-width="0.458"/>
    <g id="Group_13351" data-name="Group 13351" transform="translate(79.771 249.281)" opacity="0.4">
      <g id="Group_13350" data-name="Group 13350" clip-path="url(#clip-path)">
        <g id="Group_13349" data-name="Group 13349" transform="translate(-13.842 -15.407)">
          <g id="Group_13337" data-name="Group 13337" transform="translate(5.926 17.003)">
            <path id="Path_5276" data-name="Path 5276" d="M1718.194,446.86c-5.98-8-51.694-36.427-66.661-43.09l.456-1.025c15.045,6.7,61.053,35.353,67.1,43.442Z" transform="translate(-1651.533 -402.745)"/>
          </g>
          <g id="Group_13338" data-name="Group 13338" transform="translate(12.676 8.902)">
            <path id="Path_5277" data-name="Path 5277" d="M1718.853,440.454c-5.951-8.818-50.515-36.083-63.354-41.433l.431-1.035c13.266,5.528,57.66,32.661,63.855,41.842Z" transform="translate(-1655.498 -397.986)"/>
          </g>
          <g id="Group_13339" data-name="Group 13339" transform="translate(23.959 2.666)">
            <path id="Path_5278" data-name="Path 5278" d="M1715.57,431.191c-5.64-6.028-38.873-31.218-53.444-35.8l.337-1.071c14.715,4.625,48.241,30.024,53.927,36.1Z" transform="translate(-1662.126 -394.323)"/>
          </g>
          <g id="Group_13340" data-name="Group 13340" transform="translate(0 37.232)">
            <path id="Path_5279" data-name="Path 5279" d="M1709.636,452.512a3.992,3.992,0,0,1-.5-.039l.148-1.113.113.014c-4.113-4.573-57.048-34.561-60.861-35.64l.043-.146-.128.206c-.38-.278-.489-.572-.32-.875s.473-.369.913-.192c1.963.788,17.314,9.067,32.523,17.779,29.771,17.056,29.359,18.622,29.161,19.374C1710.588,452.4,1710.065,452.512,1709.636,452.512Z" transform="translate(-1648.052 -414.628)"/>
          </g>
          <g id="Group_13341" data-name="Group 13341" transform="translate(0.24 47.111)">
            <path id="Path_5280" data-name="Path 5280" d="M1700.024,450.528c-5.4,0-51.36-28.85-51.831-29.154l.61-.943c9.628,6.232,48.181,29.536,51.067,29.042l.547.965A.683.683,0,0,1,1700.024,450.528Z" transform="translate(-1648.193 -420.431)"/>
          </g>
          <g id="Group_13342" data-name="Group 13342" transform="translate(1.597 25.195)">
            <path id="Path_5281" data-name="Path 5281" d="M1714.575,449.452c-4.595-5.349-54.815-35.411-65.584-40.9l.511-1c9.209,4.692,61.032,35.467,65.925,41.163Z" transform="translate(-1648.99 -407.557)"/>
          </g>
          <g id="Group_13343" data-name="Group 13343" transform="translate(16.009 4.484)">
            <path id="Path_5282" data-name="Path 5282" d="M1658.562,465.027l-1.106-.186c1.646-9.964,29.3-56.581,39.58-69.451l.876.7C1687.689,408.9,1660.192,455.174,1658.562,465.027Z" transform="translate(-1657.456 -395.391)"/>
          </g>
          <g id="Group_13344" data-name="Group 13344" transform="translate(8.457 0.386)">
            <path id="Path_5283" data-name="Path 5283" d="M1654.135,459.648l-1.115-.129c1.275-11,28.2-55.522,37.433-66.534l.86.722C1682.377,404.362,1655.359,449.076,1654.135,459.648Z" transform="translate(-1653.02 -392.984)"/>
          </g>
          <g id="Group_13345" data-name="Group 13345" transform="translate(1.823)">
            <path id="Path_5284" data-name="Path 5284" d="M1650.2,449.929l-1.081-.3c2.252-8.01,20.328-45.989,31.264-56.869l.792.8C1670.349,404.326,1652.437,441.982,1650.2,449.929Z" transform="translate(-1649.123 -392.757)"/>
          </g>
          <g id="Group_13346" data-name="Group 13346" transform="translate(31.848 19.698)">
            <path id="Path_5285" data-name="Path 5285" d="M1667.557,466.309a.744.744,0,0,1-.577-.257c-.521-.575-1.607-1.777,16.974-30.622,9.492-14.736,19.31-29.149,20.69-30.753.308-.357.611-.441.9-.249s.33.5.119.926l-.145-.071.043.058c-2.891,2.712-36.083,53.7-37.63,59.65l.1-.065.644.921A2.182,2.182,0,0,1,1667.557,466.309Z" transform="translate(-1666.76 -404.328)"/>
          </g>
          <g id="Group_13347" data-name="Group 13347" transform="translate(42.344 28.667)">
            <path id="Path_5286" data-name="Path 5286" d="M1672.972,459.995l-.046,0,.145-1.112c2.652-.923,26.187-39.317,31.87-49.283l.973.557C1705.628,410.656,1676.593,459.995,1672.972,459.995Z" transform="translate(-1672.926 -409.597)"/>
          </g>
          <g id="Group_13348" data-name="Group 13348" transform="translate(23.569 9.79)">
            <path id="Path_5287" data-name="Path 5287" d="M1662.988,465.65l-1.091-.257c1.725-7.315,33.569-58.484,39.586-66.885l.913.652C1695.36,408.983,1664.609,458.781,1662.988,465.65Z" transform="translate(-1661.897 -398.508)"/>
          </g>
        </g>
      </g>
    </g>
    <g id="Group_13354" data-name="Group 13354" transform="translate(97.006 256.201)">
      <g id="Group_13352" data-name="Group 13352" transform="translate(0.766)">
        <path id="Path_5288" data-name="Path 5288" d="M1678.848,415.1l-1.365.732c-.036-.049-.068-.1-.1-.145a1.328,1.328,0,0,0-1.578-.523,1.378,1.378,0,0,0-.919.957,2.051,2.051,0,0,0-.073,1.059,1.766,1.766,0,0,0,.844,1.243,1.419,1.419,0,0,0,.94.152,1.315,1.315,0,0,0,.732-.315,1.035,1.035,0,0,0,.32-.771l-1.24.136c-.005-.031-.012-.053-.014-.077-.036-.322-.07-.644-.109-.965-.007-.061.01-.08.07-.085q1.427-.156,2.851-.315l.067,0c.017.148.041.291.047.434a3.866,3.866,0,0,1-.047.909,2.659,2.659,0,0,1-1.226,1.84,3.7,3.7,0,0,1-3.095.254,2.723,2.723,0,0,1-1.365-1.232,3.211,3.211,0,0,1-.3-2.359,2.733,2.733,0,0,1,1.49-1.869,3.772,3.772,0,0,1,1.686-.378,2.73,2.73,0,0,1,1.5.4,2.9,2.9,0,0,1,.829.826C1678.8,415.033,1678.823,415.062,1678.848,415.1Z" transform="translate(-1662.244 -400.321)" fill="#81330d"/>
        <path id="Path_5289" data-name="Path 5289" d="M1667.064,417.732q-.151-1.371-.3-2.742c-.009-.072.012-.09.08-.1.7-.075,1.4-.155,2.1-.23a2.847,2.847,0,0,1,2.561.992,2.589,2.589,0,0,1,.575,2.591,2.831,2.831,0,0,1-1.931,1.959,3.07,3.07,0,0,1-.553.112c-.707.083-1.413.158-2.119.238-.073.009-.1-.005-.105-.082-.058-.552-.123-1.1-.184-1.651-.041-.363-.082-.727-.121-1.089Zm1.346-1.769.353,3.194a2.787,2.787,0,0,0,.963-.186,1.393,1.393,0,0,0,.616-.507,1.672,1.672,0,0,0,.175-1.512,1.462,1.462,0,0,0-.827-.916,1.808,1.808,0,0,0-.887-.116C1668.672,415.933,1668.543,415.95,1668.41,415.963Z" transform="translate(-1666.757 -399.714)" fill="#81330d"/>
        <path id="Path_5290" data-name="Path 5290" d="M1671.424,417.015l-.308-.3a.935.935,0,0,1,.078-1.413,1.7,1.7,0,0,1,1.169-.375,1.455,1.455,0,0,1,.754.213.872.872,0,0,1,.3,1.207,2.01,2.01,0,0,1-.558.579l-.073.054.633.494.129-.466.88.172a2.484,2.484,0,0,1-.276.861l.53.272-.351.952c-.208-.114-.408-.223-.6-.337-.107-.063-.1-.066-.194.02a2.053,2.053,0,0,1-1.369.545,1.89,1.89,0,0,1-.834-.14,1.17,1.17,0,0,1-.664-1.481,1.56,1.56,0,0,1,.483-.638C1671.233,417.158,1671.327,417.092,1671.424,417.015Zm1.488,1.246-.005-.014c-.3-.235-.608-.47-.912-.7a.065.065,0,0,0-.061,0,.686.686,0,0,0-.281.458.537.537,0,0,0,.635.613A1.033,1.033,0,0,0,1672.911,418.261Zm-1.088-2.244a.712.712,0,0,0,.092.2,3.553,3.553,0,0,0,.3.279c.009.009.041,0,.056-.012.065-.048.128-.1.189-.151a.4.4,0,0,0,.114-.466.4.4,0,0,0-.39-.223A.355.355,0,0,0,1671.824,416.017Z" transform="translate(-1664.063 -399.515)" fill="#81330d"/>
        <path id="Path_5291" data-name="Path 5291" d="M1677.515,417.724l-7.772.8-2.487-6.961,3.816,2.012,1.619-7.7,3.142,7.213,3.325-2.749Z" transform="translate(-1666.406 -405.873)" fill="#81330d"/>
      </g>
      <g id="Group_13353" data-name="Group 13353" transform="translate(0 0.149)">
        <path id="Path_5292" data-name="Path 5292" d="M1678.4,415.189l-1.367.732c-.034-.049-.068-.1-.1-.145a1.331,1.331,0,0,0-1.58-.523,1.367,1.367,0,0,0-.917.955,2.023,2.023,0,0,0-.073,1.061,1.764,1.764,0,0,0,.843,1.243,1.422,1.422,0,0,0,.941.15,1.3,1.3,0,0,0,.73-.313,1.04,1.04,0,0,0,.32-.773l-1.24.138c0-.031-.012-.055-.013-.077-.036-.322-.07-.643-.109-.965-.007-.061.01-.08.07-.087.952-.1,1.9-.209,2.852-.313.024,0,.048,0,.068-.005.015.15.039.293.046.436a3.874,3.874,0,0,1-.046.909,2.655,2.655,0,0,1-1.226,1.839,3.695,3.695,0,0,1-3.1.255,2.723,2.723,0,0,1-1.365-1.232,3.214,3.214,0,0,1-.3-2.359,2.733,2.733,0,0,1,1.49-1.869,3.748,3.748,0,0,1,1.685-.378,2.717,2.717,0,0,1,1.5.4,2.9,2.9,0,0,1,.829.824C1678.354,415.121,1678.373,415.148,1678.4,415.189Z" transform="translate(-1661.794 -400.408)" fill="url(#linear-gradient-30)"/>
        <path id="Path_5293" data-name="Path 5293" d="M1666.613,417.818q-.151-1.371-.3-2.741c-.007-.071.012-.092.082-.1.7-.075,1.4-.157,2.1-.23a2.844,2.844,0,0,1,2.56.991,2.591,2.591,0,0,1,.575,2.593,2.828,2.828,0,0,1-1.93,1.958,2.9,2.9,0,0,1-.553.114c-.706.083-1.413.157-2.119.238-.072.008-.1-.005-.105-.082-.058-.552-.123-1.1-.184-1.653-.041-.363-.08-.725-.121-1.088Zm1.346-1.767.353,3.192a2.792,2.792,0,0,0,.965-.184,1.4,1.4,0,0,0,.615-.507,1.671,1.671,0,0,0,.176-1.513,1.456,1.456,0,0,0-.827-.914,1.786,1.786,0,0,0-.885-.116C1668.224,416.019,1668.093,416.036,1667.96,416.051Z" transform="translate(-1666.307 -399.802)" fill="url(#linear-gradient-31)"/>
        <path id="Path_5294" data-name="Path 5294" d="M1670.973,417.1l-.306-.3a.937.937,0,0,1,.077-1.415,1.7,1.7,0,0,1,1.169-.373,1.443,1.443,0,0,1,.756.211.875.875,0,0,1,.295,1.209,2.006,2.006,0,0,1-.558.577l-.073.056.635.492.128-.466.88.174a2.48,2.48,0,0,1-.276.86l.531.272-.352.953c-.208-.116-.408-.223-.6-.337-.107-.063-.1-.068-.194.019a2.037,2.037,0,0,1-1.369.545,1.9,1.9,0,0,1-.834-.138,1.175,1.175,0,0,1-.664-1.483,1.562,1.562,0,0,1,.484-.637C1670.784,417.246,1670.876,417.178,1670.973,417.1Zm1.49,1.246-.007-.014c-.3-.235-.608-.472-.912-.7a.072.072,0,0,0-.061.005.674.674,0,0,0-.279.458.492.492,0,0,0,.272.557.5.5,0,0,0,.361.056A1.037,1.037,0,0,0,1672.463,418.349Zm-1.09-2.244a.724.724,0,0,0,.094.2,3.091,3.091,0,0,0,.3.279c.009.009.041,0,.054-.012.064-.049.127-.1.189-.151a.387.387,0,0,0-.274-.691A.357.357,0,0,0,1671.373,416.105Z" transform="translate(-1663.613 -399.602)" fill="url(#linear-gradient-32)"/>
        <path id="Path_5295" data-name="Path 5295" d="M1677.066,417.811l-7.772.8-2.487-6.961,3.816,2.012,1.619-7.7,3.142,7.213,3.325-2.749Z" transform="translate(-1665.957 -405.961)" fill="url(#linear-gradient-33)"/>
      </g>
    </g>
  </g>
</svg>
