<svg xmlns="http://www.w3.org/2000/svg" xmlns:xlink="http://www.w3.org/1999/xlink" width="350.144" height="411.062" viewBox="0 0 350.144 411.062">
  <defs>
    <linearGradient id="linear-gradient" x1="-148.426" y1="140.959" x2="-148.295" y2="142.215" gradientUnits="objectBoundingBox">
      <stop offset="0.641" stop-color="#ffd7a5"/>
      <stop offset="1" stop-color="#faa96c"/>
    </linearGradient>
    <linearGradient id="linear-gradient-2" x1="0.207" y1="-0.113" x2="0.595" y2="0.79" gradientUnits="objectBoundingBox">
      <stop offset="0.219" stop-color="#694538"/>
      <stop offset="1" stop-color="#1c1007"/>
    </linearGradient>
    <linearGradient id="linear-gradient-3" x1="0.474" y1="-0.233" x2="0.786" y2="7.518" xlink:href="#linear-gradient-2"/>
    <linearGradient id="linear-gradient-4" x1="-215.42" y1="186.275" x2="-215.347" y2="187.205" xlink:href="#linear-gradient"/>
    <linearGradient id="linear-gradient-5" x1="9.944" y1="-2.817" x2="9.932" y2="-1.96" gradientUnits="objectBoundingBox">
      <stop offset="0.219" stop-color="#1967b3"/>
      <stop offset="1" stop-color="#183773"/>
    </linearGradient>
    <linearGradient id="linear-gradient-6" x1="0.511" y1="-1.769" x2="0.501" y2="0.25" xlink:href="#linear-gradient-5"/>
    <linearGradient id="linear-gradient-7" x1="0.456" y1="-0.088" x2="0.623" y2="0.88" gradientUnits="objectBoundingBox">
      <stop offset="0" stop-color="#6d85c7"/>
      <stop offset="1" stop-color="#283547"/>
    </linearGradient>
    <linearGradient id="linear-gradient-8" x1="0" y1="0.5" x2="1" y2="0.5" xlink:href="#linear-gradient-2"/>
    <linearGradient id="linear-gradient-9" x1="0.401" y1="-0.186" x2="0.859" y2="0.894" xlink:href="#linear-gradient-7"/>
    <linearGradient id="linear-gradient-11" x1="0.495" y1="0.928" x2="0.501" y2="0.146" gradientUnits="objectBoundingBox">
      <stop offset="0.334" stop-color="#faf8eb"/>
      <stop offset="0.486" stop-color="#edebe1"/>
      <stop offset="0.766" stop-color="#cbccc7"/>
      <stop offset="1" stop-color="#abadaf"/>
    </linearGradient>
    <linearGradient id="linear-gradient-12" x1="0.463" y1="0.848" x2="0.708" y2="-0.371" gradientUnits="objectBoundingBox">
      <stop offset="0" stop-color="#f13b43"/>
      <stop offset="1" stop-color="#a64444"/>
    </linearGradient>
    <linearGradient id="linear-gradient-13" x1="0.25" y1="2.543" x2="0.52" y2="0.056" xlink:href="#linear-gradient-12"/>
    <radialGradient id="radial-gradient" cx="0.355" cy="0.492" fy="0.35438084602355957" r="0.846" gradientTransform="translate(-0.003) scale(1.007 1)" gradientUnits="objectBoundingBox">
      <stop offset="0" stop-color="#e7d557"/>
      <stop offset="1" stop-color="#ab8541"/>
    </radialGradient>
    <clipPath id="clip-path">
      <path id="Path_4942" data-name="Path 4942" d="M772.32,424.356c-25.739-42.121-79.561-54.211-106.861-61.232a77.441,77.441,0,0,0-12.064.948c-17.275,88.153-26.247,118.458-56.043,138.4-34-21.884-37.39-71.332-33.9-102.737-29.367,16.276-53.7,33.448-59.456,41,2.341,13.26,11.7,47.579,27.3,75.659,1.561,17.161-14.88,66.313-11.7,81.9,7.8,38.219,53.77,29.968,79.561,27.3,22.621-2.339,122.3,26.146,150.54-14.039,20.28-28.86-20.28-82.681-25.74-107.641S739.56,444.637,772.32,424.356Z" transform="translate(-503.998 -363.123)" fill="none"/>
    </clipPath>
    <radialGradient id="radial-gradient-2" cx="0.522" cy="0.184" r="1.38" gradientTransform="translate(-1.228) scale(3.457 1)" gradientUnits="objectBoundingBox">
      <stop offset="0" stop-color="#ffffd7"/>
      <stop offset="1" stop-color="#f1d579"/>
    </radialGradient>
    <radialGradient id="radial-gradient-3" cx="-0.384" cy="0.512" r="0.79" gradientTransform="translate(-1.021) scale(3.041 1)" xlink:href="#radial-gradient-2"/>
    <radialGradient id="radial-gradient-4" cx="-1.135" cy="0.447" r="0.896" gradientTransform="translate(-1.064) scale(3.129 1)" xlink:href="#radial-gradient-2"/>
    <radialGradient id="radial-gradient-5" cx="1.545" cy="0.424" r="0.961" gradientTransform="translate(-1.495) scale(3.99 1)" xlink:href="#radial-gradient-2"/>
    <linearGradient id="linear-gradient-14" x1="0.499" y1="0.067" x2="0.502" y2="0.995" xlink:href="#linear-gradient-5"/>
    <linearGradient id="linear-gradient-15" x1="0.608" y1="0.051" x2="0.407" y2="1.024" xlink:href="#linear-gradient-2"/>
    <linearGradient id="linear-gradient-16" x1="4.493" y1="-6.384" x2="0.835" y2="-0.077" xlink:href="#linear-gradient-2"/>
    <linearGradient id="linear-gradient-17" x1="3.916" y1="-6.043" x2="0.78" y2="-0.037" xlink:href="#linear-gradient-2"/>
    <linearGradient id="linear-gradient-18" x1="12.31" y1="-6.638" x2="1.327" y2="0" xlink:href="#linear-gradient-2"/>
    <linearGradient id="linear-gradient-19" x1="5.15" y1="-5.859" x2="0.759" y2="0.146" xlink:href="#linear-gradient-2"/>
    <linearGradient id="linear-gradient-20" x1="11.906" y1="-5.194" x2="0.922" y2="0.289" xlink:href="#linear-gradient-2"/>
    <linearGradient id="linear-gradient-21" x1="7.924" y1="-6.234" x2="0.605" y2="0.405" xlink:href="#linear-gradient-2"/>
    <linearGradient id="linear-gradient-22" x1="5.943" y1="-5.184" x2="0.453" y2="0.549" xlink:href="#linear-gradient-2"/>
    <linearGradient id="linear-gradient-23" x1="3.182" y1="-5.101" x2="0.437" y2="0.632" xlink:href="#linear-gradient-2"/>
    <linearGradient id="linear-gradient-24" x1="7.447" y1="-4.941" x2="0.126" y2="0.793" xlink:href="#linear-gradient-2"/>
    <linearGradient id="linear-gradient-25" x1="5.537" y1="-5.009" x2="0.046" y2="0.997" xlink:href="#linear-gradient-2"/>
    <linearGradient id="linear-gradient-26" x1="0.497" y1="0.067" x2="0.504" y2="0.995" xlink:href="#linear-gradient-5"/>
    <linearGradient id="linear-gradient-27" x1="1.503" y1="-8.964" x2="0.534" y2="0.175" xlink:href="#linear-gradient-2"/>
    <linearGradient id="linear-gradient-28" x1="1.301" y1="-8.461" x2="0.527" y2="0.196" xlink:href="#linear-gradient-2"/>
    <linearGradient id="linear-gradient-29" x1="1.248" y1="-9.673" x2="0.52" y2="0.227" xlink:href="#linear-gradient-2"/>
    <linearGradient id="linear-gradient-30" x1="1.991" y1="-8.435" x2="0.527" y2="0.341" xlink:href="#linear-gradient-2"/>
    <linearGradient id="linear-gradient-31" x1="1.159" y1="-7.868" x2="0.515" y2="0.312" xlink:href="#linear-gradient-2"/>
    <linearGradient id="linear-gradient-32" x1="1.435" y1="-9.317" x2="0.499" y2="0.507" xlink:href="#linear-gradient-2"/>
    <linearGradient id="linear-gradient-33" x1="1.606" y1="-7.886" x2="0.493" y2="0.554" xlink:href="#linear-gradient-2"/>
    <linearGradient id="linear-gradient-34" x1="1.099" y1="-7.502" x2="0.482" y2="0.734" xlink:href="#linear-gradient-2"/>
    <linearGradient id="linear-gradient-35" x1="0.501" y1="0.137" x2="0.458" y2="1.006" xlink:href="#linear-gradient-2"/>
    <linearGradient id="linear-gradient-36" x1="0.197" y1="-0.871" x2="0.489" y2="0.451" xlink:href="#linear-gradient-2"/>
    <linearGradient id="linear-gradient-37" x1="0.766" y1="-0.323" x2="0.215" y2="1.382" xlink:href="#linear-gradient-2"/>
    <linearGradient id="linear-gradient-38" x1="0.706" y1="-1.267" x2="0.446" y2="0.961" xlink:href="#linear-gradient-2"/>
    <linearGradient id="linear-gradient-39" x1="0.156" y1="-1.38" x2="0.513" y2="0.57" xlink:href="#linear-gradient-2"/>
  </defs>
  <g id="Group_13254" data-name="Group 13254" transform="translate(0 -91.512)">
    <path id="Path_4923" data-name="Path 4923" d="M494.766,474.006c-12.056-1.793-20.963-3.827-27.226-.368-4.68,2.339-4.811,21.654-1.689,26.695,3.314,6.127,12.306,9.577,18.5,3.457s8.234-10.393,12.383-12.24S494.766,474.006,494.766,474.006Z" transform="translate(-453.89 -194.924)" fill="url(#linear-gradient)"/>
    <g id="Group_13198" data-name="Group 13198" transform="translate(0 295.873)">
      <path id="Path_4924" data-name="Path 4924" d="M487.418,492.282c3.687,61.652,14.441,151.655,41.825,191.316H511.452c-25.808-36.611-32.745-189.66-32.4-191.316S487.418,492.282,487.418,492.282Z" transform="translate(-443.135 -476.898)" fill="url(#linear-gradient-2)"/>
      <path id="Path_4925" data-name="Path 4925" d="M460.681,482.942c-3.12,4.576-4.681,16.017,1.559,21.356,13.26,3.052,49.92-.763,56.16-6.864,3.12-6.1,3.447-12.379-3.737-12.291C504.2,492.182,464.581,484.467,460.681,482.942Z" transform="translate(-457.95 -482.942)" fill="url(#linear-gradient-3)"/>
    </g>
    <path id="Path_4926" data-name="Path 4926" d="M493.059,487.04c-1.9,5.471-8.932,3.248-15.612,11.99-1.958,2.564-6.329,4.739-7.955,2.179-1.219-1.92,4.491-11.089,6.918-13.477C476.018,477.86,490.075,466.881,493.059,487.04Z" transform="translate(-449.962 -192.137)" fill="url(#linear-gradient-4)"/>
    <g id="Group_13199" data-name="Group 13199" transform="translate(38.075 162.072)">
      <path id="Path_4927" data-name="Path 4927" d="M501.95,419.121c-5.436,18.641,2.62,69.275,5.621,86.151s33.32,23.217,44.911-8.176,18.995-48.353,8.653-68.472S510.23,390.724,501.95,419.121Z" transform="translate(-466.413 -404.344)" fill="url(#linear-gradient-5)"/>
      <path id="Path_4928" data-name="Path 4928" d="M480.316,483.807c6.05,3.951,6.9,19.448,3.655,21.61,27.3,4.681,50.943-8.483,63.516-15.464,23.671-13.146,8.609-41.067-23.9-29.674S480.316,483.807,480.316,483.807Z" transform="translate(-480.316 -366.935)" fill="url(#linear-gradient-6)"/>
    </g>
    <g id="Group_13200" data-name="Group 13200" transform="translate(113.414 336.434)">
      <path id="Path_4929" data-name="Path 4929" d="M613.569,553.569c-17.16,4.68-21.06,7.8-24.96,18.719s-9.359,39-5.459,45.242,16.38,31.2,18.719,44.46c-2.339,4.68-12.48,3.9-12.48,3.9-3.12-17.939-16.38-35.879-17.939-37.44-9.361,6.241-19.5-4.68-22.621-25.739s-25.74-57.72-24.18-95.941c25.739,8.58,79.561-9.094,88.92,45.373" transform="translate(-524.572 -506.768)" fill="url(#linear-gradient-7)"/>
      <path id="Path_4930" data-name="Path 4930" d="M604.943,612.408s-.017-9.359-2.356-11.7c-6.241.781-15.287,3.221-22.464,1.61-11.234-1.66-17.316-9.41-25.116-9.41-5.461,0-14.821,3.9-21.492,12.529-4.927,6.372,0,6.971,0,6.971,8.233-1.559,53.472,1.561,57.372-3.12a8.391,8.391,0,0,0,3.966,3.12Z" transform="translate(-519.829 -446.268)" fill="url(#linear-gradient-8)"/>
    </g>
    <g id="Group_13201" data-name="Group 13201" transform="translate(152.491 340.623)">
      <path id="Path_4931" data-name="Path 4931" d="M690.267,511.28c-2.339,35.1-37.44,102.96-31.98,111.539s18.721,31.98,19.5,42.121c-7.02,1.559-15.816,0-15.816,0-6.023-21.061-15.384-28.08-19.284-31.98-11.7,3.9-18.719-10.141-19.5-28.86-.822-19.732-3.12-38.221-18.721-42.9s-40.56,14.039-56.94-40.56C605.247,502.7,690.267,511.28,690.267,511.28Z" transform="translate(-547.527 -509.229)" fill="url(#linear-gradient-9)"/>
      <path id="Path_4932" data-name="Path 4932" d="M659.01,612.408s-.017-9.359-2.358-11.7c-6.239.781-15.287,3.221-22.462,1.61-11.234-1.66-17.316-9.41-25.116-9.41-5.461,0-14.821,3.9-21.492,12.529-4.927,6.372,0,6.971,0,6.971,8.231-1.559,53.472,1.561,57.373-3.12a8.391,8.391,0,0,0,3.965,3.12Z" transform="translate(-520.933 -450.457)" fill="url(#linear-gradient-8)"/>
    </g>
    <g id="Group_13226" data-name="Group 13226" transform="translate(75.531 91.512)">
      <path id="Path_4934" data-name="Path 4934" d="M627.733,386.284c14.194,6.082-9.359,102.96-49.92,109.2s-52.26-78.349-39.78-91.045S616.813,381.6,627.733,386.284Z" transform="translate(-480.573 -347.284)" fill="url(#linear-gradient-11)"/>
      <g id="Group_13202" data-name="Group 13202" transform="translate(82.42 57.034)">
        <path id="Path_4935" data-name="Path 4935" d="M561.655,414.4l-10.921,44.46,19.5,22.619L587.357,457.8s-12.443-14.538-16.343-44.959A42.6,42.6,0,0,0,561.655,414.4Z" transform="translate(-550.734 -384.851)" fill="url(#linear-gradient-12)"/>
        <path id="Path_4936" data-name="Path 4936" d="M553.131,403.027c-3.1,3.052,2.772,22.919,6.672,25.258s10.454,2.341,12.247,0,17.463-22.205,12.357-29.042S556.6,399.607,553.131,403.027Z" transform="translate(-549.662 -396.398)" fill="url(#linear-gradient-13)"/>
      </g>
      <path id="Path_4937" data-name="Path 4937" d="M772.32,424.356c-25.739-42.121-79.561-54.211-106.861-61.232a77.441,77.441,0,0,0-12.064.948c-17.275,88.153-26.247,118.458-56.043,138.4-34-21.884-37.39-71.332-33.9-102.737-29.367,16.276-53.7,33.448-59.456,41,2.341,13.26,11.7,47.579,27.3,75.659,1.561,17.161-14.88,66.313-11.7,81.9,7.8,38.219,53.77,29.968,79.561,27.3,22.621-2.339,122.3,26.146,150.54-14.039,20.28-28.86-20.28-82.681-25.74-107.641S739.56,444.637,772.32,424.356Z" transform="translate(-501.139 -362.735)" fill="url(#radial-gradient)"/>
      <g id="Group_13205" data-name="Group 13205" transform="translate(2.859 0.388)" opacity="0.4">
        <g id="Group_13204" data-name="Group 13204" clip-path="url(#clip-path)">
          <g id="Group_13203" data-name="Group 13203" transform="translate(9.835 -1.614)">
            <path id="Path_4938" data-name="Path 4938" d="M552.505,429.3c-10.141,33.168,6.239,40.189,2.69,81.529-1.006,11.712-23.739,63.96,11.746,71.761,13.249.78,25.549,1.992,25.549,1.992-25.164-16.812-11.125-44.111-11.9-76.091-.5-20.29-10.141-51.481,8.58-80.34C578.415,426.629,552.505,429.3,552.505,429.3Z" transform="translate(-483.559 -316.165)" fill="url(#radial-gradient-2)"/>
            <path id="Path_4939" data-name="Path 4939" d="M643.723,362.175C618.173,398.5,585.248,452.886,582.6,492.384s2.812,52.277,1.253,68.508-8.066,60.27,8.837,70.23c12.745,5.882,21.582,5.049,21.582,5.049,10.92-10.689,21.06-42.669,3.9-75.429-10.371-19.8-9.753-47.7-5.652-74.879,5.652-37.441,43.524-93.188,58.908-107.435C657.737,372.554,643.723,362.175,643.723,362.175Z" transform="translate(-459.526 -362.175)" fill="url(#radial-gradient-3)"/>
            <path id="Path_4940" data-name="Path 4940" d="M689.755,397.494c-8.347-11.412-16.331-16.32-16.331-16.32-37.373,39.084-63.113,82.765-60.774,119.425,1.74,27.244,8.58,31.2,19.5,56.94s1.1,62.8-4.132,65.328c25.425-2.736,27.881-5.616,27.881-5.616,9.79-16.031,16.811-43.331-2.542-68.507-15.842-20.61-22.767-43.464-21.208-59.065S640.5,437.13,689.755,397.494Z" transform="translate(-437.624 -348.831)" fill="url(#radial-gradient-4)"/>
            <path id="Path_4941" data-name="Path 4941" d="M530.361,388.51c0,23.475,21.931,77.477,27.346,94.936s10.093,40.08,1.513,62.7c-4.668,12.3-24.96,49.29,7.021,67.546a89.221,89.221,0,0,1-22.6-1.593c-33.557-29.292-10.156-57.372-5.476-78.432,4.569-20.563,7.8-35.1-5.459-61.62s-23.218-66.894-22.92-70.108S530.361,388.51,530.361,388.51Z" transform="translate(-509.775 -343.679)" fill="url(#radial-gradient-5)"/>
          </g>
        </g>
      </g>
      <path id="Path_4943" data-name="Path 4943" d="M713.67,418.257c-4.68-12.48-24.18-39.624-61.622-48.672C620.07,419.35,574.483,467.5,598.835,588.348c21.407,6.92,84.787,5.056,101.761-9.588-5.052-19.146-39.052-78.919-34.506-102.784C672.328,443.217,718.179,430.284,713.67,418.257Z" transform="translate(-439.369 -358.196)" fill="url(#linear-gradient-14)"/>
      <path id="Path_4944" data-name="Path 4944" d="M622.027,362.9c15.849,1.561,46.8,2.341,46.8,14.821-21.839,2.341-33.54,57.72-35.1,78-9.359,4.29-42.119,9.361-50.117,8.149C587.123,447.568,609.811,383.955,622.027,362.9Z" transform="translate(-445.225 -362.895)" fill="url(#linear-gradient-15)"/>
      <g id="Group_13216" data-name="Group 13216" transform="translate(136.239 89.7)">
        <g id="Group_13206" data-name="Group 13206" transform="translate(0 9.362)">
          <path id="Path_4945" data-name="Path 4945" d="M583.13,436.686a.841.841,0,0,1-.17-.019.781.781,0,0,1-.592-.931l3.12-14.039a.78.78,0,0,1,1.524.337l-3.12,14.041A.783.783,0,0,1,583.13,436.686Z" transform="translate(-582.349 -421.087)" fill="url(#linear-gradient-16)"/>
        </g>
        <g id="Group_13207" data-name="Group 13207" transform="translate(3.12 9.361)">
          <path id="Path_4946" data-name="Path 4946" d="M584.963,437.466a.8.8,0,0,1-.2-.026.781.781,0,0,1-.557-.953l3.9-14.821a.781.781,0,0,1,1.51.4l-3.9,14.819A.78.78,0,0,1,584.963,437.466Z" transform="translate(-584.182 -421.086)" fill="url(#linear-gradient-17)"/>
        </g>
        <g id="Group_13208" data-name="Group 13208" transform="translate(13.261 10.141)">
          <path id="Path_4947" data-name="Path 4947" d="M590.919,436.365a.78.78,0,0,1-.78-.78V422.324a.78.78,0,0,1,1.559,0v13.261A.78.78,0,0,1,590.919,436.365Z" transform="translate(-590.139 -421.544)" fill="url(#linear-gradient-18)"/>
        </g>
        <g id="Group_13209" data-name="Group 13209" transform="translate(17.16 8.58)">
          <path id="Path_4948" data-name="Path 4948" d="M593.212,437.008a.748.748,0,0,1-.123-.01.78.78,0,0,1-.65-.892l2.341-14.821a.78.78,0,1,1,1.541.243l-2.339,14.821A.781.781,0,0,1,593.212,437.008Z" transform="translate(-592.43 -420.627)" fill="url(#linear-gradient-19)"/>
        </g>
        <g id="Group_13210" data-name="Group 13210" transform="translate(25.741 7.02)">
          <path id="Path_4949" data-name="Path 4949" d="M598.25,437.652a.78.78,0,0,1-.78-.78V420.491a.78.78,0,0,1,1.559,0v16.382A.779.779,0,0,1,598.25,437.652Z" transform="translate(-597.47 -419.711)" fill="url(#linear-gradient-20)"/>
        </g>
        <g id="Group_13211" data-name="Group 13211" transform="translate(30.421 7.021)">
          <path id="Path_4950" data-name="Path 4950" d="M601,434.531l-.048,0a.78.78,0,0,1-.732-.824l.78-13.26a.78.78,0,0,1,1.558.09l-.78,13.261A.782.782,0,0,1,601,434.531Z" transform="translate(-600.219 -419.711)" fill="url(#linear-gradient-21)"/>
        </g>
        <g id="Group_13212" data-name="Group 13212" transform="translate(36.661 4.682)">
          <path id="Path_4951" data-name="Path 4951" d="M604.665,435.5c-.026,0-.051,0-.078,0a.78.78,0,0,1-.7-.855l1.559-15.6a.78.78,0,0,1,1.553.157l-1.559,15.6A.781.781,0,0,1,604.665,435.5Z" transform="translate(-603.885 -418.338)" fill="url(#linear-gradient-22)"/>
        </g>
        <g id="Group_13213" data-name="Group 13213" transform="translate(39.001 3.902)">
          <path id="Path_4952" data-name="Path 4952" d="M606.041,435.039a.792.792,0,0,1-.225-.034.78.78,0,0,1-.524-.97l4.681-15.6a.779.779,0,0,1,1.493.448l-4.68,15.6A.778.778,0,0,1,606.041,435.039Z" transform="translate(-605.259 -417.879)" fill="url(#linear-gradient-23)"/>
        </g>
        <g id="Group_13214" data-name="Group 13214" transform="translate(48.361 2.342)">
          <path id="Path_4953" data-name="Path 4953" d="M612.316,434.121a.78.78,0,0,1-.778-.74l-.78-15.6a.78.78,0,0,1,1.558-.078l.78,15.6a.78.78,0,0,1-.739.819Z" transform="translate(-610.757 -416.963)" fill="url(#linear-gradient-24)"/>
        </g>
        <g id="Group_13215" data-name="Group 13215" transform="translate(50.702)">
          <path id="Path_4954" data-name="Path 4954" d="M614.471,431.969a.781.781,0,0,1-.775-.7l-1.559-14.819a.78.78,0,1,1,1.551-.163l1.559,14.821a.779.779,0,0,1-.693.856A.7.7,0,0,1,614.471,431.969Z" transform="translate(-612.132 -415.587)" fill="url(#linear-gradient-25)"/>
        </g>
      </g>
      <path id="Path_4955" data-name="Path 4955" d="M540.2,390.565c-3.747,17.335,13.963,141.278,0,179.688-12.327,2.72-20.369,2.15-27.306,0,6.406-18.341,19.582-63.77,11.782-80.15s-25.62-56.371-21.839-67.081C507.518,409.762,540.2,390.565,540.2,390.565Z" transform="translate(-502.319 -343.461)" fill="url(#linear-gradient-26)"/>
      <g id="Group_13225" data-name="Group 13225" transform="translate(30.382 160.132)">
        <g id="Group_13217" data-name="Group 13217" transform="translate(28.106 8.48)">
          <path id="Path_4956" data-name="Path 4956" d="M538.029,474.442a.587.587,0,0,0,.134.005.612.612,0,0,0,.567-.655l-.829-11.281a.614.614,0,0,0-1.224.089l.829,11.281A.613.613,0,0,0,538.029,474.442Z" transform="translate(-536.676 -461.942)" fill="url(#linear-gradient-27)"/>
        </g>
        <g id="Group_13218" data-name="Group 13218" transform="translate(25.071 8.035)">
          <path id="Path_4957" data-name="Path 4957" d="M536.766,474.878a.608.608,0,0,0,.157,0,.614.614,0,0,0,.541-.679l-1.347-11.976a.614.614,0,0,0-1.221.138l1.348,11.976A.614.614,0,0,0,536.766,474.878Z" transform="translate(-534.893 -461.681)" fill="url(#linear-gradient-28)"/>
        </g>
        <g id="Group_13219" data-name="Group 13219" transform="translate(20.553 7.932)">
          <path id="Path_4958" data-name="Path 4958" d="M532.763,473.16a.614.614,0,0,0,.7-.519l1.51-10.318a.614.614,0,0,0-1.216-.179l-1.508,10.32A.613.613,0,0,0,532.763,473.16Z" transform="translate(-532.239 -461.62)" fill="url(#linear-gradient-29)"/>
        </g>
        <g id="Group_13220" data-name="Group 13220" transform="translate(15.448 6.008)">
          <path id="Path_4959" data-name="Path 4959" d="M529.9,473.51a.612.612,0,0,0,.7-.615l-.133-11.8a.614.614,0,0,0-1.227.014l.134,11.8A.613.613,0,0,0,529.9,473.51Z" transform="translate(-529.24 -460.49)" fill="url(#linear-gradient-30)"/>
        </g>
        <g id="Group_13221" data-name="Group 13221" transform="translate(10.841 6.019)">
          <path id="Path_4960" data-name="Path 4960" d="M527.058,474.464a.613.613,0,0,0,.7-.518l1.864-12.747a.613.613,0,1,0-1.214-.177l-1.864,12.747A.611.611,0,0,0,527.058,474.464Z" transform="translate(-526.534 -460.496)" fill="url(#linear-gradient-31)"/>
        </g>
        <g id="Group_13222" data-name="Group 13222" transform="translate(8.522 4.43)">
          <path id="Path_4961" data-name="Path 4961" d="M525.7,471.19l.036.005a.614.614,0,0,0,.664-.558l.9-10.408a.613.613,0,0,0-1.222-.106l-.9,10.408A.613.613,0,0,0,525.7,471.19Z" transform="translate(-525.172 -459.563)" fill="url(#linear-gradient-32)"/>
        </g>
        <g id="Group_13223" data-name="Group 13223" transform="translate(5.602 2.778)">
          <path id="Path_4962" data-name="Path 4962" d="M523.98,472.13a.378.378,0,0,0,.061.005.613.613,0,0,0,.642-.584l.562-12.318a.613.613,0,0,0-1.226-.056l-.562,12.318A.614.614,0,0,0,523.98,472.13Z" transform="translate(-523.457 -458.593)" fill="url(#linear-gradient-33)"/>
        </g>
        <g id="Group_13224" data-name="Group 13224">
          <path id="Path_4963" data-name="Path 4963" d="M520.513,470.778a.624.624,0,0,0,.17.055.613.613,0,0,0,.7-.511l2-12.652a.614.614,0,0,0-1.212-.192l-2,12.652A.613.613,0,0,0,520.513,470.778Z" transform="translate(-520.166 -456.961)" fill="url(#linear-gradient-34)"/>
        </g>
      </g>
      <path id="Path_4964" data-name="Path 4964" d="M560.564,385.347s-29.551,3.817-33.54,9.36c-28.08,17.941.165,92.361-1.478,113.65,4.515,6.7,27.217,9.591,28,8.03C552.764,489.868,530.145,405.627,560.564,385.347Z" transform="translate(-493.745 -347.126)" fill="url(#linear-gradient-35)"/>
      <ellipse id="Ellipse_256" data-name="Ellipse 256" cx="4.089" cy="4.721" rx="4.089" ry="4.721" transform="translate(163.585 216.167) rotate(-20.702)" fill="url(#linear-gradient-36)"/>
      <ellipse id="Ellipse_257" data-name="Ellipse 257" cx="4.089" cy="3.814" rx="4.089" ry="3.814" transform="translate(160.327 120.365) rotate(-20.702)" fill="url(#linear-gradient-37)"/>
      <ellipse id="Ellipse_258" data-name="Ellipse 258" cx="4.089" cy="3.814" rx="4.089" ry="3.814" transform="translate(156.427 153.905) rotate(-20.702)" fill="url(#linear-gradient-38)"/>
      <ellipse id="Ellipse_259" data-name="Ellipse 259" cx="4.089" cy="3.814" rx="4.089" ry="3.814" transform="translate(157.207 189.785) rotate(-20.702)" fill="url(#linear-gradient-39)"/>
    </g>
  </g>
</svg>
