<svg xmlns="http://www.w3.org/2000/svg" xmlns:xlink="http://www.w3.org/1999/xlink" width="150.945" height="194.911" viewBox="0 0 150.945 194.911">
  <defs>
    <linearGradient id="linear-gradient" x1="0.739" y1="0.024" x2="0.401" y2="0.693" gradientUnits="objectBoundingBox">
      <stop offset="0.546" stop-color="#5d7d91"/>
      <stop offset="1" stop-color="#374b6b"/>
    </linearGradient>
    <linearGradient id="linear-gradient-2" x1="0.506" y1="0.518" x2="0.518" y2="0.961" gradientUnits="objectBoundingBox">
      <stop offset="0" stop-color="#5d7d91"/>
      <stop offset="1" stop-color="#374b6b"/>
    </linearGradient>
    <linearGradient id="linear-gradient-3" x1="0.517" y1="-0.037" x2="0.484" y2="0.805" xlink:href="#linear-gradient"/>
    <linearGradient id="linear-gradient-4" x1="0.904" y1="0.68" x2="0.269" y2="0.145" gradientUnits="objectBoundingBox">
      <stop offset="0" stop-color="#5d7d91"/>
      <stop offset="1" stop-color="#c78579"/>
    </linearGradient>
    <linearGradient id="linear-gradient-5" x1="0.497" y1="0.07" x2="0.52" y2="0.947" xlink:href="#linear-gradient-2"/>
    <linearGradient id="linear-gradient-6" x1="0.475" y1="0.101" x2="0.517" y2="0.882" gradientUnits="objectBoundingBox">
      <stop offset="0" stop-color="#79ab7f"/>
      <stop offset="1" stop-color="#c9b941"/>
    </linearGradient>
    <linearGradient id="linear-gradient-7" x1="0.469" y1="0.089" x2="0.521" y2="0.902" xlink:href="#linear-gradient-6"/>
    <linearGradient id="linear-gradient-8" x1="0.511" y1="1.066" x2="0.493" y2="0.397" xlink:href="#linear-gradient-2"/>
    <linearGradient id="linear-gradient-9" x1="0.518" y1="1.208" x2="0.491" y2="0.324" xlink:href="#linear-gradient-2"/>
    <linearGradient id="linear-gradient-10" x1="0.515" y1="-0.762" x2="0.487" y2="1.811" gradientUnits="objectBoundingBox">
      <stop offset="0.3" stop-color="#9da9b5"/>
      <stop offset="1" stop-color="#374b6b"/>
    </linearGradient>
    <linearGradient id="linear-gradient-11" x1="0.477" y1="0.195" x2="0.522" y2="0.967" gradientUnits="objectBoundingBox">
      <stop offset="0" stop-color="#cf5555"/>
      <stop offset="1" stop-color="#a64444"/>
    </linearGradient>
    <linearGradient id="linear-gradient-12" x1="0.512" y1="-0.776" x2="0.486" y2="1.79" gradientUnits="objectBoundingBox">
      <stop offset="0" stop-color="#9da9b5"/>
      <stop offset="1" stop-color="#374b6b"/>
    </linearGradient>
    <linearGradient id="linear-gradient-13" x1="0.511" y1="-0.757" x2="0.485" y2="1.809" xlink:href="#linear-gradient-12"/>
    <linearGradient id="linear-gradient-14" x1="0.742" y1="-0.099" x2="0.474" y2="0.687" xlink:href="#linear-gradient"/>
  </defs>
  <g id="Group_13077" data-name="Group 13077" transform="translate(0 -5.179)">
    <path id="Path_4627" data-name="Path 4627" d="M226.885,370.821c-10.188,25.411-35.653,55.972-38.2,61.064-1.273,19.1-8.915,28.015-3.819,36.926s26.6,3.225,29.215-2.843,0-28.609,0-28.609c6.438-8.021,35.723-32.213,40.819-39.855S226.885,370.821,226.885,370.821Z" transform="translate(-181.044 -273.34)" fill="url(#linear-gradient)"/>
    <path id="Path_4628" data-name="Path 4628" d="M196.39,386.02c-1.273,15.28,7.408,29.173,20.142,40.631,1.273-1.273,2.47-4.714,2.47-4.714a85.68,85.68,0,0,0,20.679,17c17.827-3.956,53.48-17.26,58.575-40.179s3.98-33.2-3.74-40.155S196.39,386.02,196.39,386.02Z" transform="translate(-154.368 -300.054)" fill="url(#linear-gradient-2)"/>
    <path id="Path_4629" data-name="Path 4629" d="M201.581,356.219c11.249-15.853,98.048-29.288,110.782,8.912S272.89,444.08,242.329,444.08,173.569,395.692,201.581,356.219Z" transform="translate(-163.381 -335.192)" fill="url(#linear-gradient-3)"/>
    <path id="Path_4631" data-name="Path 4631" d="M219.37,377.041c-10.185-1.273-26.738-15.28-36.926-31.834,20.373-2.546,39.476,2.549,47.114,8.915C227.012,369.4,219.37,377.041,219.37,377.041Z" transform="translate(-182.444 -326.728)" fill="url(#linear-gradient-4)"/>
    <path id="Path_4633" data-name="Path 4633" d="M234.651,349.167c-15.28-5.1-40.746-7.642-52.207-2.549,25.468,5.1,43.756,13.816,45.435,17.733C231.238,360.722,234.651,355.533,234.651,349.167Z" transform="translate(-182.444 -328.139)" fill="url(#linear-gradient-5)"/>
    <path id="Path_4634" data-name="Path 4634" d="M211.849,384.544c0-15.28,15.28-45.841,45.841-22.922C256.417,373.083,238.59,397.276,211.849,384.544Z" transform="translate(-122.716 -308.764)" fill="url(#linear-gradient-6)"/>
    <path id="Path_4635" data-name="Path 4635" d="M223.973,379.692c-2.546-14.223-15.28-33.619-30.561-19.4C192.139,379.323,208.693,389.507,223.973,379.692Z" transform="translate(-160.305 -304.815)" fill="url(#linear-gradient-7)"/>
    <path id="Path_4636" data-name="Path 4636" d="M216.71,379.781c-2.188-8.387.815-18.836,3.146-22.3,4.038,3.468,7.857,14.926,5.826,21.395C222.1,381.218,218.8,381.318,216.71,379.781Z" transform="translate(-114.385 -300.444)" fill="#283547"/>
    <path id="Path_4637" data-name="Path 4637" d="M197.689,375.652c-1.273-5.1-1-13.665.521-17.266,3.395,3.2,6.893,11.967,5.844,18.539C201.508,378.2,200.235,376.925,197.689,375.652Z" transform="translate(-153.121 -298.598)" fill="#283547"/>
    <path id="Path_4638" data-name="Path 4638" d="M257.69,363.84c-7.639-11.458-43.292-26.738-45.841,22.922C219.491,365.113,225.856,351.109,257.69,363.84Z" transform="translate(-122.716 -310.981)" fill="url(#linear-gradient-8)"/>
    <path id="Path_4639" data-name="Path 4639" d="M223.927,380.857c0-24.935-17.827-33.328-30.561-19.4C207.373,357.489,216.285,358.3,223.927,380.857Z" transform="translate(-160.259 -305.979)" fill="url(#linear-gradient-9)"/>
    <circle id="Ellipse_222" data-name="Ellipse 222" cx="2.547" cy="2.547" r="2.547" transform="translate(40.748 61.773)" fill="#fff"/>
    <path id="Path_4640" data-name="Path 4640" d="M205.216,378.258c3.007,4.007,15.8,5.556,19.445,0s-4.3-14.1-9.785-13.3S201.051,372.7,205.216,378.258Z" transform="translate(-138.475 -285.357)" fill="url(#linear-gradient-10)"/>
    <path id="Path_4641" data-name="Path 4641" d="M204.758,367.876c-1.273-6.369,14.007-10.188,17.827,0-3.819-1.273-7.639,0-8.912,3.819C211.26,370.071,211.127,366.6,204.758,367.876Z" transform="translate(-137.271 -292.096)" fill="url(#linear-gradient-11)"/>
    <path id="Path_4642" data-name="Path 4642" d="M225.721,366.14c1.312,7.369-8.876,23.922-22.883,13.738S214.223,357.5,225.721,366.14Z" transform="translate(-149.358 -288.816)" fill="url(#linear-gradient-12)"/>
    <path id="Path_4643" data-name="Path 4643" d="M207.668,366.14c-1.313,7.369,8.875,23.922,22.883,13.738S219.166,357.5,207.668,366.14Z" transform="translate(-131.439 -288.816)" fill="url(#linear-gradient-13)"/>
    <circle id="Ellipse_223" data-name="Ellipse 223" cx="3.183" cy="3.183" r="3.183" transform="translate(99.321 60.5)" fill="#fff"/>
    <path id="Path_4644" data-name="Path 4644" d="M232.535,435.441c-1.837,16.472-3.11,16.472-15.841,17.745s-16.554-14-14.007-22.919S232.438,410,237.3,403.579s44.932-35.626,50.364-33.756c5.768,50.852-5.214,56.92-12.625,58.682S242.011,427.884,232.535,435.441Z" transform="translate(-142.838 -275.54)" fill="url(#linear-gradient-14)"/>
  </g>
</svg>
