<svg xmlns="http://www.w3.org/2000/svg" xmlns:xlink="http://www.w3.org/1999/xlink" width="75.047" height="80.527" viewBox="0 0 75.047 80.527"><defs><style>.a{stroke:#fdfdff;stroke-width:2px;fill:url(#a);}.b,.c{fill:#fcffb1;}.b{opacity:0.5;}.d,.f{fill:#fff;}.e{fill:#f90;}.g,.h{stroke:none;}.h{fill:#f90;}.i{filter:url(#b);}</style><linearGradient id="a" x1="0.5" x2="0.5" y2="1" gradientUnits="objectBoundingBox"><stop offset="0" stop-color="#fd0"/><stop offset="1" stop-color="#ffba00"/></linearGradient><filter id="b" x="0" y="0" width="75.047" height="80.527" filterUnits="userSpaceOnUse"><feOffset dx="2" dy="2" input="SourceAlpha"/><feGaussianBlur result="c"/><feFlood flood-color="#0f426d" flood-opacity="0.149"/><feComposite operator="in" in2="c"/><feComposite in="SourceGraphic"/></filter></defs><g transform="translate(1.007 1.031)"><g class="i" transform="matrix(1, 0, 0, 1, -1.01, -1.03)"><path class="a" d="M-595.994,123.424s2.178-26.135,28.313-29.4,44.647,23.957,42.469,39.2-17.423,37.024-39.2,37.024S-597.083,136.723-595.994,123.424Z" transform="translate(597.08 -92.72)"/></g><path class="b" d="M-3355.13-6939.682c-19.027-4.157,0,16,10.207,17.264s16.507,20.792,8.568,22.3-16.254,27.343-8.568,25.326,16.507-17.261,17.263-27.847S-3336.1-6935.523-3355.13-6939.682Z" transform="translate(3396.999 6941.551)"/><path class="c" d="M6.343.281C6.343-1.3.56,3.961.029,12.291S6.343,1.866,6.343.281Z" transform="matrix(-0.259, 0.966, -0.966, -0.259, 55.953, 10.484)"/><path class="d" d="M3867.554,8988.793s1.636-19.605,19.054-26.977l.3.053s-27.7,30.879-4.279,54.941,38.759,5.324,47.277-6.389,7.665-17.674,7.665-17.674l.908,2.16a18.922,18.922,0,0,1-.143,3.688c-2.176,15.242-17.422,37.021-39.2,37.021S3866.465,9002.092,3867.554,8988.793Z" transform="translate(-3867.479 -8959.122)"/><path class="e" d="M3867.55,8986.477s1.564-17.923,18.214-24.658l.286.047s-26.482,28.227-4.09,50.221,37.05,4.868,45.192-5.842,7.328-16.152,7.328-16.152l.868,1.973a16.613,16.613,0,0,1-.136,3.371c-2.081,13.934-16.655,33.841-37.473,33.841S3866.51,8998.631,3867.55,8986.477Z" transform="translate(-3865.996 -8957.642)"/><path class="c" d="M-3374.454-6933.065c0-1.778-6.252,4.131-6.825,13.479S-3374.454-6931.286-3374.454-6933.065Z" transform="translate(3386.785 6947.834)"/><path class="b" d="M.429,13.989C-1.951,10.335,5.582.254,22.634,0s5.948,18.523,5.948,18.523S2.809,17.644.429,13.989Z" transform="translate(15.264 41.339) rotate(47)"/><g class="f" transform="translate(1061.7 -8876.617) rotate(6)"><path class="g" d="M -82.67485809326172 8984.4091796875 C -84.94901275634766 8984.4091796875 -87.60967254638672 8982.5087890625 -91.39733123779297 8978.125 C -92.83050537109375 8979.552734375 -94.19565582275391 8980.826171875 -95.34880828857422 8981.80859375 C -97.89030456542969 8983.9736328125 -98.9727783203125 8984.4091796875 -99.89555358886719 8984.4091796875 C -100.707649230957 8984.4091796875 -101.4372100830078 8984.005859375 -101.8471298217773 8983.3310546875 C -102.7881546020508 8981.787109375 -102.4153594970703 8979.7001953125 -100.7056350708008 8976.955078125 C -99.63287353515625 8975.232421875 -98.18688201904297 8973.5 -97.27457427978516 8972.5390625 C -97.14182281494141 8972.3994140625 -96.87558746337891 8972.0634765625 -96.54323577880859 8971.630859375 C -97.16006469726563 8970.8173828125 -97.71086120605469 8970.0966796875 -97.92751312255859 8969.865234375 C -98.83959197998047 8968.9052734375 -100.283805847168 8967.173828125 -101.3559646606445 8965.4521484375 C -103.0649108886719 8962.70703125 -103.4381103515625 8960.6201171875 -102.4968948364258 8959.0732421875 C -102.0867233276367 8958.3994140625 -101.3580017089844 8957.998046875 -100.5473480224609 8957.998046875 C -99.59001159667969 8957.998046875 -98.44572448730469 8958.4755859375 -95.70320129394531 8960.8544921875 C -94.41613006591797 8961.9716796875 -92.90960693359375 8963.40234375 -91.3472900390625 8964.98828125 C -87.24288940429688 8960.1103515625 -84.40222930908203 8957.998046875 -82.02326965332031 8957.998046875 C -81.47037506103516 8957.998046875 -80.94599151611328 8958.111328125 -80.46469116210938 8958.3359375 C -79.6751708984375 8958.7041015625 -79.11967468261719 8959.41015625 -78.93949127197266 8960.2744140625 C -78.64675903320313 8961.677734375 -79.30422210693359 8963.4375 -81.13787841796875 8966.1572265625 C -82.19230651855469 8967.720703125 -83.632568359375 8969.578125 -85.34681701660156 8971.58984375 C -83.79637145996094 8973.4501953125 -82.50257873535156 8975.158203125 -81.56329345703125 8976.5888671875 C -79.89378356933594 8979.1318359375 -79.30460357666016 8980.7939453125 -79.59322357177734 8982.146484375 C -79.77613067626953 8983.00390625 -80.33036041259766 8983.705078125 -81.11376953125 8984.0712890625 C -81.59019470214844 8984.294921875 -82.11679077148438 8984.4091796875 -82.67485809326172 8984.4091796875 Z"/><path class="h" d="M -82.67485809326172 8982.4091796875 C -82.41912078857422 8982.4091796875 -82.18050384521484 8982.3623046875 -81.960205078125 8982.2587890625 C -80.28976440429688 8981.478515625 -83.65285491943359 8976.580078125 -87.98262023925781 8971.576171875 C -83.34764099121094 8966.322265625 -79.55606842041016 8960.966796875 -81.30943298339844 8960.1484375 C -81.52928924560547 8960.0458984375 -81.76811981201172 8959.998046875 -82.02326965332031 8959.998046875 C -84.39727783203125 8959.998046875 -88.18304443359375 8964.1865234375 -91.22459411621094 8967.99609375 C -95.75502014160156 8963.205078125 -100.272331237793 8959.2666015625 -100.7883224487305 8960.11328125 C -101.9488220214844 8962.0205078125 -98.05158996582031 8966.8310546875 -96.475341796875 8968.490234375 C -96.07735443115234 8968.912109375 -95.19235992431641 8970.107421875 -94.03237915039063 8971.6328125 C -94.87084197998047 8972.7412109375 -95.50479888916016 8973.580078125 -95.8245849609375 8973.9169921875 C -97.40081787109375 8975.576171875 -101.2995376586914 8980.38671875 -100.1375503540039 8982.29296875 C -100.089958190918 8982.37109375 -100.0083999633789 8982.4091796875 -99.89585113525391 8982.4091796875 C -98.8515625 8982.4091796875 -95.14570617675781 8979.1669921875 -91.27919006347656 8975.15234375 C -88.35282135009766 8978.7421875 -84.89619445800781 8982.4091796875 -82.67485809326172 8982.4091796875 M -82.67485809326172 8986.4091796875 C -85.27223968505859 8986.4091796875 -87.95309448242188 8984.8037109375 -91.49311828613281 8981.0126953125 C -92.40367126464844 8981.8798828125 -93.26436614990234 8982.66015625 -94.0517578125 8983.3310546875 C -96.71894836425781 8985.603515625 -98.24808502197266 8986.4091796875 -99.89524078369141 8986.4091796875 C -99.89542388916016 8986.4091796875 -99.89585876464844 8986.4091796875 -99.89604949951172 8986.4091796875 C -101.4126968383789 8986.4091796875 -102.7809982299805 8985.646484375 -103.5566635131836 8984.369140625 C -104.1666641235352 8983.365234375 -104.7371597290039 8981.6630859375 -104.0022201538086 8979.2490234375 C -103.6884613037109 8978.2177734375 -103.1654586791992 8977.1220703125 -102.4033508300781 8975.8974609375 C -101.3887939453125 8974.2685546875 -100.0998306274414 8972.6689453125 -99.1072998046875 8971.5751953125 C -99.23102569580078 8971.41796875 -99.32975006103516 8971.296875 -99.389404296875 8971.23046875 C -100.4125747680664 8970.1513671875 -101.9078903198242 8968.349609375 -103.0538024902344 8966.5087890625 C -103.8156509399414 8965.28515625 -104.3385391235352 8964.189453125 -104.6523208618164 8963.158203125 C -105.3884429931641 8960.740234375 -104.8156127929688 8959.037109375 -104.205451965332 8958.0341796875 C -103.4292297363281 8956.7587890625 -102.0618438720703 8955.998046875 -100.5473480224609 8955.998046875 C -98.85124206542969 8955.998046875 -97.24066162109375 8956.873046875 -94.39265441894531 8959.34375 C -93.4967041015625 8960.12109375 -92.49967193603516 8961.0439453125 -91.45323944091797 8962.0625 C -90.62261199951172 8961.140625 -89.84536743164063 8960.3408203125 -89.11083221435547 8959.6513671875 C -86.45442199707031 8957.158203125 -84.20230102539063 8955.998046875 -82.02326965332031 8955.998046875 C -81.17633819580078 8955.998046875 -80.36774444580078 8956.173828125 -79.61994171142578 8956.5224609375 C -78.25254821777344 8957.1611328125 -77.29174041748047 8958.37890625 -76.98162078857422 8959.8662109375 C -76.71865081787109 8961.126953125 -76.93411254882813 8962.505859375 -77.64031219482422 8964.0810546875 C -78.06002044677734 8965.0166015625 -78.66165924072266 8966.0615234375 -79.47962188720703 8967.2744140625 C -80.45893096923828 8968.7275390625 -81.63076782226563 8970.240234375 -82.751953125 8971.60546875 C -81.61528778076172 8973.0263671875 -80.64619445800781 8974.341796875 -79.89140319824219 8975.4912109375 C -77.90058898925781 8978.5234375 -77.22646331787109 8980.638671875 -77.63726043701172 8982.5634765625 C -77.95216369628906 8984.0390625 -78.91051483154297 8985.2490234375 -80.26676940917969 8985.8828125 C -81.01332092285156 8986.232421875 -81.82341766357422 8986.4091796875 -82.67485809326172 8986.4091796875 Z"/></g></g></svg>