<svg xmlns="http://www.w3.org/2000/svg" width="95.49" height="182.463" viewBox="0 0 95.49 182.463"><defs><style>.a{fill:#ddf2f6;}.b,.d{fill:#fff;}.c{fill:#ffbc0f;}.d{stroke:rgba(0,0,0,0);stroke-miterlimit:10;}</style></defs><g transform="translate(-151.851 -466.383)"><path class="a" d="M247.083,557.615V466.383c-50.048,0-95.232,41.183-95.232,91.232s45.184,91.231,95.232,91.231Z" transform="translate(0 0)"/><path class="b" d="M1169.631,3840.024a17.476,17.476,0,0,1-13.59-6.474,12.479,12.479,0,0,1-2.145,1.564,12.347,12.347,0,0,1-16.874-4.521,12.536,12.536,0,0,1-.915-1.957,10.092,10.092,0,0,1-4.514,1.057,10.219,10.219,0,0,1-8.863-5.113,10.227,10.227,0,0,1,8.845-15.337,10.279,10.279,0,0,1,1.9.179,12.47,12.47,0,0,1,1.885-5.31,12.212,12.212,0,0,1,4.217-4.016,12.349,12.349,0,0,1,14.188,1.291,12.355,12.355,0,0,1,19.084-5.523v43.86A17.426,17.426,0,0,1,1169.631,3840.024Z" transform="translate(-925.513 -3203)"/><path class="c" d="M247.453,581.445l-.225-.029V524.71l.225.029V492.717a3.068,3.068,0,0,0-2.611,1.59c-2.367,4.239-5.458,10.4-6.888,15.847a84.727,84.727,0,0,0-10.918-9.228,3.118,3.118,0,0,0-4.943,2.617c.2,6.654,1,17.167,3.97,22.866-.22.171-.435.35-.652.526-.191-.161-.386-.324-.593-.488-4.862-3.864-13.961-6.517-19.97-7.941a3.117,3.117,0,0,0-3.562,4.312c2.712,6.021,7.434,15.313,12.317,19.489-.037.086-.074.171-.11.257-6.393.009-15.46,3.091-21.237,5.35a3.118,3.118,0,0,0-.472,5.574c5.291,3.186,13.648,7.656,19.826,8.3l.052,0c.009.034.019.067.027.1-4.951,4.093-9.762,13.56-12.51,19.659a3.118,3.118,0,0,0,3.562,4.313c5.666-1.343,14.077-3.78,19.1-7.293.125.115.249.232.375.345-2.782,5.789-3.553,15.935-3.746,22.418a3.118,3.118,0,0,0,4.944,2.617c4.682-3.387,11.449-8.8,14.765-13.939.055,6.413,3.556,15.7,6.065,21.546a3.093,3.093,0,0,0,3.214,1.863Z" transform="translate(-0.37 2.312)"/><path class="d" d="M1121.975,3821.478a93.578,93.578,0,0,1,24.711-35.631,14.5,14.5,0,0,1,8.144,13.036,14.654,14.654,0,0,1-.219,2.525,12,12,0,1,1-8.6,21.074,14.5,14.5,0,0,1-24.031-1Z" transform="translate(-964.49 -3294)"/></g></svg>