<svg xmlns="http://www.w3.org/2000/svg" xmlns:xlink="http://www.w3.org/1999/xlink" width="127.965" height="105.728" viewBox="0 0 127.965 105.728">
  <defs>
    <linearGradient id="linear-gradient" x1="0.244" y1="-0.078" x2="0.665" y2="0.873" gradientUnits="objectBoundingBox">
      <stop offset="0" stop-color="#6d515b"/>
      <stop offset="1" stop-color="#1b2139"/>
    </linearGradient>
    <linearGradient id="linear-gradient-2" x1="0.739" y1="0.191" x2="0.008" y2="0.621" gradientUnits="objectBoundingBox">
      <stop offset="0.641" stop-color="#ffd7a5"/>
      <stop offset="1" stop-color="#faa96c"/>
    </linearGradient>
    <linearGradient id="linear-gradient-3" x1="-0.036" y1="0.636" x2="0.971" y2="0.424" xlink:href="#linear-gradient"/>
  </defs>
  <g id="Group_13725" data-name="Group 13725" transform="translate(0)">
    <path id="Path_4773" data-name="Path 4773" d="M410.1,362.981c4.646.567,21.053,20.575,19.07,75.41-.991,27.382-24.424,19.8-27.571.558C398.483,419.907,387.647,360.235,410.1,362.981Z" transform="translate(-301.37 -362.889)" fill="url(#linear-gradient)"/>
    <path id="Path_4774" data-name="Path 4774" d="M414.9,410.422c-17.842,1.444-43.922,3.8-43.922,3.8-8.442-3.575-15.861-5.2-18.627-2.731s-13.154,13.687-11.7,17.939,6.241.78,6.241.78c-1.781,1.215,3.7,4.045,6.239,4.68a15.066,15.066,0,0,0,9.359-.78c3-1.217,13.837-12.056,15.056-12.505,6.185-1.609,38.752-3.825,38.752-3.825Z" transform="translate(-340.511 -329.583)" fill="url(#linear-gradient-2)"/>
    <path id="Path_4775" data-name="Path 4775" d="M429.231,406.633c-14.827-.626-43.68,1.284-64.74,6.743.054,1.9-.78,10.141.78,13.261,21.841,2.339,57.2,1.593,70.627.23C451.726,425.259,458.107,407.852,429.231,406.633Z" transform="translate(-323.792 -332.246)" fill="url(#linear-gradient-3)"/>
  </g>
</svg>
