<svg xmlns="http://www.w3.org/2000/svg" xmlns:xlink="http://www.w3.org/1999/xlink" width="169.131" height="155.405" viewBox="0 0 169.131 155.405">
  <defs>
    <linearGradient id="linear-gradient" x1="0.303" y1="0.071" x2="0.628" y2="0.869" gradientUnits="objectBoundingBox">
      <stop offset="0.219" stop-color="#1967b3"/>
      <stop offset="1" stop-color="#183773"/>
    </linearGradient>
    <linearGradient id="linear-gradient-2" x1="0.263" y1="-0.191" x2="0.717" y2="1.016" gradientUnits="objectBoundingBox">
      <stop offset="0" stop-color="#ececef"/>
      <stop offset="0.21" stop-color="#dfdfe2"/>
      <stop offset="0.596" stop-color="#bdbec1"/>
      <stop offset="0.956" stop-color="#999b9d"/>
    </linearGradient>
    <linearGradient id="linear-gradient-3" x1="0.939" y1="1.517" x2="0.265" y2="-0.255" gradientUnits="objectBoundingBox">
      <stop offset="0" stop-color="#faf8ff"/>
      <stop offset="0.157" stop-color="#eeecf2"/>
      <stop offset="0.446" stop-color="#d1cfd0"/>
      <stop offset="0.624" stop-color="#bdbbb9"/>
    </linearGradient>
    <linearGradient id="linear-gradient-4" x1="0.479" y1="-0.374" x2="0.5" y2="0.401" xlink:href="#linear-gradient-2"/>
    <linearGradient id="linear-gradient-5" x1="0.495" y1="-0.133" x2="0.507" y2="0.787" gradientUnits="objectBoundingBox">
      <stop offset="0.334" stop-color="#faf8ff"/>
      <stop offset="0.491" stop-color="#eeecf2"/>
      <stop offset="0.779" stop-color="#d1cfd0"/>
      <stop offset="0.956" stop-color="#bdbbb9"/>
    </linearGradient>
    <clipPath id="clip-path">
      <path id="Path_5071" data-name="Path 5071" d="M714.213,449.543c-33.616-4.126-80.54-12.378-135.866-5.674,34.316,14.443,42.72,23.726,36.417,50.03,29.415-1.547,49.724-6.7,67.934-2.579,11.709,2.654,23.111,10.832,40.62,8.253-4.2-4.127-6.3-8.769-4.2-13.409S731.722,466.047,714.213,449.543Z" transform="translate(-578.347 -441.334)" fill="none"/>
    </clipPath>
    <clipPath id="clip-path-2">
      <path id="Path_5012" data-name="Path 5012" d="M606.322,458.028s2.8,11.138,0,15.112c6.3-.824,34.36-3.529,36.09-3.646,2.057-3.846,1.028-10.95-1.074-11.981C630.133,456.481,606.322,458.028,606.322,458.028Z" transform="translate(-606.322 -457.158)" fill="none"/>
    </clipPath>
    <clipPath id="clip-path-3">
      <path id="Path_5061" data-name="Path 5061" d="M644.76,478.5c3.9,1.2,17.234,5.565,20.721,5.96-.73-4.37,10.49-15.6,4.887-31.584a96.727,96.727,0,0,0-12.017-1.592c3.612,8.811,1.438,17.3-.975,22.34-4.83-1.267-8.583-1.89-8.583-1.89C648.658,472.988,644.76,478.5,644.76,478.5Z" transform="translate(-644.76 -451.281)" fill="none"/>
    </clipPath>
    <linearGradient id="linear-gradient-6" x1="0.515" y1="-0.286" x2="0.48" y2="1.56" xlink:href="#linear-gradient-2"/>
    <linearGradient id="linear-gradient-7" x1="0.518" y1="-0.29" x2="0.473" y2="1.646" xlink:href="#linear-gradient-2"/>
    <linearGradient id="linear-gradient-8" x1="0.522" y1="-0.253" x2="0.465" y2="1.67" xlink:href="#linear-gradient-2"/>
    <linearGradient id="linear-gradient-9" x1="0.527" y1="-0.244" x2="0.458" y2="1.681" xlink:href="#linear-gradient-2"/>
    <linearGradient id="linear-gradient-10" x1="0.545" y1="-0.147" x2="0.453" y2="0.971" xlink:href="#linear-gradient-2"/>
    <linearGradient id="linear-gradient-11" x1="0.55" y1="-0.239" x2="0.441" y2="1.336" xlink:href="#linear-gradient-2"/>
    <linearGradient id="linear-gradient-12" x1="0.572" y1="-0.239" x2="0.423" y2="0.943" xlink:href="#linear-gradient-2"/>
    <linearGradient id="linear-gradient-13" x1="0.579" y1="-0.198" x2="0.383" y2="0.925" xlink:href="#linear-gradient-2"/>
    <linearGradient id="linear-gradient-14" x1="0.593" y1="-0.32" x2="0.4" y2="1.152" xlink:href="#linear-gradient-2"/>
    <linearGradient id="linear-gradient-15" x1="-115.867" y1="359.413" x2="-115.551" y2="357.924" gradientUnits="objectBoundingBox">
      <stop offset="0.641" stop-color="#ffd7a5"/>
      <stop offset="1" stop-color="#faa96c"/>
    </linearGradient>
    <linearGradient id="linear-gradient-16" x1="0.098" y1="0.896" x2="0.99" y2="0.078" xlink:href="#linear-gradient"/>
  </defs>
  <g id="Group_13725" data-name="Group 13725" transform="translate(-203.191 -145.952)">
    <path id="Path_4933" data-name="Path 4933" d="M686.7,404.179c10.844,16.106,18.557,66.795,20.826,83.784s-24.687,32.242-45.27,5.858-32.792-40.293-29.054-62.6S670.179,379.641,686.7,404.179Z" transform="translate(-335.335 -248.922)" fill="url(#linear-gradient)"/>
    <g id="Group_13245" data-name="Group 13245" transform="translate(203.191 225.042)">
      <path id="Path_4965" data-name="Path 4965" d="M598.685,513.484c-26.613-20.631-21.712-54.155-19.609-70.661C611.991,447.981,630.9,477.381,598.685,513.484Z" transform="translate(-577.309 -440.288)" fill="url(#linear-gradient-2)"/>
      <path id="Path_4966" data-name="Path 4966" d="M592.509,488.476c-5.252-6.387-14.356-19.15-4.552-35.654,21.712,2.579,37.819,5.672,37.819,5.672l-6.593,28.577Z" transform="translate(-572.885 -433.265)" fill="url(#linear-gradient-3)"/>
      <path id="Path_4967" data-name="Path 4967" d="M701.019,482.22c4.2,7.737,4.2,22.7,2.8,27.336-19.609-3.611-64.9-10.738-78.909-9.191s-32.76,5.745-32.76,5.745c14.356-17.975,19.223-45.037-5.989-53.289,30.816,0,111.354,5.156,111.354,5.156Z" transform="translate(-571.091 -433.265)" fill="url(#linear-gradient-4)"/>
      <path id="Path_4968" data-name="Path 4968" d="M714.213,449.543c-33.616-4.126-80.54-12.378-135.866-5.674,34.316,14.443,42.72,23.726,36.417,50.03,29.415-1.547,49.724-6.7,67.934-2.579,11.709,2.654,23.111,10.832,40.62,8.253-4.2-4.127-6.3-8.769-4.2-13.409S731.722,466.047,714.213,449.543Z" transform="translate(-576.581 -441.334)" fill="url(#linear-gradient-5)"/>
      <g id="Group_13244" data-name="Group 13244" transform="translate(1.767)">
        <g id="Group_13243" data-name="Group 13243" clip-path="url(#clip-path)">
          <g id="Group_13242" data-name="Group 13242" transform="translate(10.504 -2.238)">
            <g id="Group_13229" data-name="Group 13229" transform="translate(37.119 29.176)">
              <g id="Group_13228" data-name="Group 13228">
                <g id="Group_13227" data-name="Group 13227" clip-path="url(#clip-path-2)">
                  <path id="Path_4969" data-name="Path 4969" d="M606.642,456.76l-.321.058v-.058Z" transform="translate(-606.322 -457.437)" fill="#c9cacc"/>
                  <path id="Path_4970" data-name="Path 4970" d="M608.716,456.76l-2.395.433v-.375l.321-.058Z" transform="translate(-606.322 -457.437)" fill="#c8c9cb"/>
                  <path id="Path_4971" data-name="Path 4971" d="M610.79,456.76l-4.469.809v-.375l2.395-.433Z" transform="translate(-606.322 -457.437)" fill="#c7c8ca"/>
                  <path id="Path_4972" data-name="Path 4972" d="M612.865,456.76l-6.543,1.184v-.375l4.469-.809Z" transform="translate(-606.322 -457.437)" fill="#c6c7c9"/>
                  <path id="Path_4973" data-name="Path 4973" d="M614.939,456.76l-8.617,1.559v-.375l6.543-1.184Z" transform="translate(-606.322 -457.437)" fill="#c5c5c8"/>
                  <path id="Path_4974" data-name="Path 4974" d="M617.013,456.76,606.322,458.7v-.375l8.617-1.559Z" transform="translate(-606.322 -457.437)" fill="#c3c4c7"/>
                  <path id="Path_4975" data-name="Path 4975" d="M619.087,456.76l-12.765,2.31V458.7l10.691-1.935Z" transform="translate(-606.322 -457.437)" fill="#c2c3c6"/>
                  <path id="Path_4976" data-name="Path 4976" d="M621.161,456.76l-14.839,2.685v-.375l12.765-2.31Z" transform="translate(-606.322 -457.437)" fill="#c1c2c5"/>
                  <path id="Path_4977" data-name="Path 4977" d="M623.235,456.76l-16.913,3.061v-.375l14.839-2.685Z" transform="translate(-606.322 -457.437)" fill="#c0c1c4"/>
                  <path id="Path_4978" data-name="Path 4978" d="M625.309,456.76,606.322,460.2v-.375l16.913-3.061Z" transform="translate(-606.322 -457.437)" fill="#bfc0c3"/>
                  <path id="Path_4979" data-name="Path 4979" d="M627.383,456.76l-21.062,3.811V460.2l18.988-3.436Z" transform="translate(-606.322 -457.437)" fill="#bebfc1"/>
                  <path id="Path_4980" data-name="Path 4980" d="M629.457,456.76l-23.136,4.187v-.375l21.062-3.811Z" transform="translate(-606.322 -457.437)" fill="#bdbec0"/>
                  <path id="Path_4981" data-name="Path 4981" d="M631.531,456.76l-25.21,4.562v-.375l23.136-4.187Z" transform="translate(-606.322 -457.437)" fill="#bcbdbf"/>
                  <path id="Path_4982" data-name="Path 4982" d="M633.606,456.76,606.322,461.7v-.375l25.21-4.562Z" transform="translate(-606.322 -457.437)" fill="#bbbcbe"/>
                  <path id="Path_4983" data-name="Path 4983" d="M635.68,456.76l-29.358,5.313V461.7l27.284-4.937Z" transform="translate(-606.322 -457.437)" fill="#b9bbbd"/>
                  <path id="Path_4984" data-name="Path 4984" d="M637.754,456.76l-31.432,5.688v-.375l29.358-5.313Z" transform="translate(-606.322 -457.437)" fill="#b8babc"/>
                  <path id="Path_4985" data-name="Path 4985" d="M639.828,456.76l-33.506,6.063v-.375l31.432-5.688Z" transform="translate(-606.322 -457.437)" fill="#b7b8bb"/>
                  <path id="Path_4986" data-name="Path 4986" d="M641.9,456.76l-35.58,6.439v-.375l33.506-6.063Z" transform="translate(-606.322 -457.437)" fill="#b6b7ba"/>
                  <path id="Path_4987" data-name="Path 4987" d="M643.976,456.76l-37.655,6.814V463.2l35.58-6.439Z" transform="translate(-606.322 -457.437)" fill="#b5b6b8"/>
                  <path id="Path_4988" data-name="Path 4988" d="M644.194,456.76l.106.317-37.978,6.872v-.375l37.655-6.814Z" transform="translate(-606.322 -457.437)" fill="#b4b5b7"/>
                  <path id="Path_4989" data-name="Path 4989" d="M644.3,456.947l.118.354-38.1,6.894v-.375Z" transform="translate(-606.322 -457.306)" fill="#b2b4b6"/>
                  <path id="Path_4990" data-name="Path 4990" d="M644.417,457.154l.05.151v.215l-38.146,6.9v-.375Z" transform="translate(-606.322 -457.16)" fill="#b1b3b5"/>
                  <path id="Path_4991" data-name="Path 4991" d="M644.468,457.745l-38.146,6.9v-.375l38.146-6.9Z" transform="translate(-606.322 -457.009)" fill="#b0b2b4"/>
                  <path id="Path_4992" data-name="Path 4992" d="M644.468,457.965l-38.146,6.9v-.375l38.146-6.9Z" transform="translate(-606.322 -456.854)" fill="#afb0b3"/>
                  <path id="Path_4993" data-name="Path 4993" d="M644.468,458.186l-38.146,6.9v-.375l38.146-6.9Z" transform="translate(-606.322 -456.699)" fill="#aeafb2"/>
                  <path id="Path_4994" data-name="Path 4994" d="M644.468,458.406l-38.146,6.9v-.375l38.146-6.9Z" transform="translate(-606.322 -456.544)" fill="#adaeb0"/>
                  <path id="Path_4995" data-name="Path 4995" d="M644.468,458.627l-38.146,6.9v-.375l38.146-6.9Z" transform="translate(-606.322 -456.389)" fill="#abadaf"/>
                  <path id="Path_4996" data-name="Path 4996" d="M644.468,458.847l-38.146,6.9v-.375l38.146-6.9Z" transform="translate(-606.322 -456.235)" fill="#aaacae"/>
                  <path id="Path_4997" data-name="Path 4997" d="M644.468,459.068l-38.146,6.9V465.6l38.146-6.9Z" transform="translate(-606.322 -456.08)" fill="#a9abad"/>
                  <path id="Path_4998" data-name="Path 4998" d="M644.468,459.288l-38.146,6.9v-.375l38.146-6.9Z" transform="translate(-606.322 -455.925)" fill="#a8a9ac"/>
                  <path id="Path_4999" data-name="Path 4999" d="M644.468,459.509l-38.146,6.9v-.375l38.146-6.9Z" transform="translate(-606.322 -455.77)" fill="#a7a8aa"/>
                  <path id="Path_5000" data-name="Path 5000" d="M644.468,459.729l-38.146,6.9v-.375l38.146-6.9Z" transform="translate(-606.322 -455.615)" fill="#a5a7a9"/>
                  <path id="Path_5001" data-name="Path 5001" d="M644.468,459.95l-38.146,6.9v-.375l38.146-6.9Z" transform="translate(-606.322 -455.46)" fill="#a4a6a8"/>
                  <path id="Path_5002" data-name="Path 5002" d="M644.468,460.17l-38.146,6.9V466.7l38.146-6.9Z" transform="translate(-606.322 -455.306)" fill="#a3a5a7"/>
                  <path id="Path_5003" data-name="Path 5003" d="M644.468,460.391l-38.146,6.9v-.375l38.146-6.9Z" transform="translate(-606.322 -455.151)" fill="#a2a3a6"/>
                  <path id="Path_5004" data-name="Path 5004" d="M644.468,460.611l-38.146,6.9v-.375l38.146-6.9Z" transform="translate(-606.322 -454.996)" fill="#a0a2a4"/>
                  <path id="Path_5005" data-name="Path 5005" d="M644.468,460.832l-38.146,6.9v-.375l38.146-6.9Z" transform="translate(-606.322 -454.841)" fill="#9fa1a3"/>
                  <path id="Path_5006" data-name="Path 5006" d="M644.468,461.052l-38.146,6.9v-.375l38.146-6.9Z" transform="translate(-606.322 -454.686)" fill="#9ea0a2"/>
                  <path id="Path_5007" data-name="Path 5007" d="M644.468,461.273l-38.146,6.9V467.8l38.146-6.9Z" transform="translate(-606.322 -454.531)" fill="#9d9fa1"/>
                  <path id="Path_5008" data-name="Path 5008" d="M644.468,461.493l-38.146,6.9v-.375l38.146-6.9Z" transform="translate(-606.322 -454.376)" fill="#9c9d9f"/>
                  <path id="Path_5009" data-name="Path 5009" d="M644.468,461.714l-38.146,6.9v-.375l38.146-6.9Z" transform="translate(-606.322 -454.222)" fill="#9a9c9e"/>
                  <path id="Path_5010" data-name="Path 5010" d="M644.468,461.934l-38.146,6.9v-.375l38.146-6.9Z" transform="translate(-606.322 -454.067)" fill="#999b9d"/>
                  <path id="Path_5011" data-name="Path 5011" d="M606.322,468.682l38.146-6.9v8.115H606.322Z" transform="translate(-606.322 -453.912)" fill="#999b9d"/>
                </g>
              </g>
            </g>
            <g id="Group_13232" data-name="Group 13232" transform="translate(102.554 19.172)">
              <g id="Group_13231" data-name="Group 13231">
                <g id="Group_13230" data-name="Group 13230" clip-path="url(#clip-path-3)">
                  <path id="Path_5013" data-name="Path 5013" d="M664.676,451.443l-3.833-.162h3.833Z" transform="translate(-633.464 -451.281)" fill="#cecfd1"/>
                  <path id="Path_5014" data-name="Path 5014" d="M669.51,451.938l-15.551-.657h11.718l3.833.162Z" transform="translate(-638.299 -451.281)" fill="#cdced0"/>
                  <path id="Path_5015" data-name="Path 5015" d="M674.345,452.433l-27.269-1.152h11.718l15.551.657Z" transform="translate(-643.133 -451.281)" fill="#cccdcf"/>
                  <path id="Path_5016" data-name="Path 5016" d="M675.687,452.928l-30.523-1.29.028-.358h3.226l27.269,1.152Z" transform="translate(-644.476 -451.281)" fill="#cbccce"/>
                  <path id="Path_5017" data-name="Path 5017" d="M675.7,453.276l-30.561-1.291.038-.494,30.523,1.29Z" transform="translate(-644.492 -451.133)" fill="#cacbcd"/>
                  <path id="Path_5018" data-name="Path 5018" d="M675.719,453.568l-30.6-1.293.038-.494,30.561,1.291Z" transform="translate(-644.507 -450.93)" fill="#c9cacc"/>
                  <path id="Path_5019" data-name="Path 5019" d="M675.735,453.859,645.1,452.564l.038-.494,30.6,1.293Z" transform="translate(-644.523 -450.726)" fill="#c8c9cb"/>
                  <path id="Path_5020" data-name="Path 5020" d="M675.751,454.151l-30.676-1.3.038-.493,30.638,1.295Z" transform="translate(-644.539 -450.523)" fill="#c7c8ca"/>
                  <path id="Path_5021" data-name="Path 5021" d="M675.767,454.442l-30.715-1.3.038-.494,30.676,1.3Z" transform="translate(-644.555 -450.319)" fill="#c6c7c9"/>
                  <path id="Path_5022" data-name="Path 5022" d="M675.782,454.734l-30.753-1.3.038-.494,30.715,1.3Z" transform="translate(-644.571 -450.115)" fill="#c5c5c8"/>
                  <path id="Path_5023" data-name="Path 5023" d="M675.8,455.025l-30.792-1.3.038-.493,30.753,1.3Z" transform="translate(-644.587 -449.912)" fill="#c3c4c7"/>
                  <path id="Path_5024" data-name="Path 5024" d="M675.814,455.317l-30.83-1.3.038-.494,30.792,1.3Z" transform="translate(-644.603 -449.708)" fill="#c2c3c6"/>
                  <path id="Path_5025" data-name="Path 5025" d="M675.83,455.608l-30.869-1.3.038-.494,30.83,1.3Z" transform="translate(-644.619 -449.505)" fill="#c1c2c5"/>
                  <path id="Path_5026" data-name="Path 5026" d="M675.846,455.9l-30.907-1.306.038-.493,30.869,1.3Z" transform="translate(-644.634 -449.301)" fill="#c0c1c4"/>
                  <path id="Path_5027" data-name="Path 5027" d="M675.862,456.191l-30.945-1.308.038-.494,30.907,1.306Z" transform="translate(-644.65 -449.097)" fill="#bfc0c3"/>
                  <path id="Path_5028" data-name="Path 5028" d="M675.878,456.483l-30.984-1.309.038-.494,30.945,1.308Z" transform="translate(-644.666 -448.894)" fill="#bebfc1"/>
                  <path id="Path_5029" data-name="Path 5029" d="M675.894,456.774l-31.022-1.311.039-.493,30.984,1.309Z" transform="translate(-644.682 -448.69)" fill="#bdbec0"/>
                  <path id="Path_5030" data-name="Path 5030" d="M675.909,457.066l-31.061-1.312.038-.494,31.022,1.311Z" transform="translate(-644.698 -448.486)" fill="#bcbdbf"/>
                  <path id="Path_5031" data-name="Path 5031" d="M675.925,457.357l-31.1-1.314.038-.494,31.061,1.313Z" transform="translate(-644.714 -448.283)" fill="#bbbcbe"/>
                  <path id="Path_5032" data-name="Path 5032" d="M675.941,457.649,644.8,456.333l.038-.494,31.1,1.314Z" transform="translate(-644.729 -448.079)" fill="#b9bbbd"/>
                  <path id="Path_5033" data-name="Path 5033" d="M675.957,457.941l-31.176-1.317.038-.494,31.138,1.316Z" transform="translate(-644.745 -447.876)" fill="#b8babc"/>
                  <path id="Path_5034" data-name="Path 5034" d="M675.972,458.232l-31.212-1.319v-.034l.036-.46,31.176,1.317Z" transform="translate(-644.76 -447.672)" fill="#b7b8bb"/>
                  <path id="Path_5035" data-name="Path 5035" d="M675.972,458.524,644.76,457.2v-.5l31.212,1.319Z" transform="translate(-644.76 -447.468)" fill="#b6b7ba"/>
                  <path id="Path_5036" data-name="Path 5036" d="M675.972,458.814,644.76,457.5V457l31.212,1.319Z" transform="translate(-644.76 -447.264)" fill="#b5b6b8"/>
                  <path id="Path_5037" data-name="Path 5037" d="M675.972,459.105l-31.212-1.319v-.5l31.212,1.319Z" transform="translate(-644.76 -447.06)" fill="#b4b5b7"/>
                  <path id="Path_5038" data-name="Path 5038" d="M675.972,459.4l-31.212-1.319v-.5l31.212,1.319Z" transform="translate(-644.76 -446.855)" fill="#b2b4b6"/>
                  <path id="Path_5039" data-name="Path 5039" d="M675.972,459.687l-31.212-1.319v-.5l31.212,1.319Z" transform="translate(-644.76 -446.651)" fill="#b1b3b5"/>
                  <path id="Path_5040" data-name="Path 5040" d="M675.972,459.978l-31.212-1.319v-.5l31.212,1.319Z" transform="translate(-644.76 -446.447)" fill="#b0b2b4"/>
                  <path id="Path_5041" data-name="Path 5041" d="M675.972,460.269,644.76,458.95v-.5l31.212,1.319Z" transform="translate(-644.76 -446.243)" fill="#afb0b3"/>
                  <path id="Path_5042" data-name="Path 5042" d="M675.972,460.56l-31.212-1.319v-.5l31.212,1.319Z" transform="translate(-644.76 -446.038)" fill="#aeafb2"/>
                  <path id="Path_5043" data-name="Path 5043" d="M675.972,460.85l-31.212-1.319v-.5l31.212,1.319Z" transform="translate(-644.76 -445.834)" fill="#adaeb0"/>
                  <path id="Path_5044" data-name="Path 5044" d="M675.972,461.141l-31.212-1.319v-.5l31.212,1.319Z" transform="translate(-644.76 -445.63)" fill="#abadaf"/>
                  <path id="Path_5045" data-name="Path 5045" d="M675.972,461.432l-31.212-1.319v-.5l31.212,1.319Z" transform="translate(-644.76 -445.426)" fill="#aaacae"/>
                  <path id="Path_5046" data-name="Path 5046" d="M675.972,461.723,644.76,460.4v-.5l31.212,1.319Z" transform="translate(-644.76 -445.221)" fill="#a9abad"/>
                  <path id="Path_5047" data-name="Path 5047" d="M675.972,462.014l-31.212-1.319v-.5l31.212,1.319Z" transform="translate(-644.76 -445.017)" fill="#a8a9ac"/>
                  <path id="Path_5048" data-name="Path 5048" d="M675.972,462.3l-31.212-1.319v-.5l31.212,1.319Z" transform="translate(-644.76 -444.813)" fill="#a7a8aa"/>
                  <path id="Path_5049" data-name="Path 5049" d="M675.972,462.6l-31.212-1.319v-.5l31.212,1.319Z" transform="translate(-644.76 -444.608)" fill="#a5a7a9"/>
                  <path id="Path_5050" data-name="Path 5050" d="M675.972,462.886l-31.212-1.319v-.5l31.212,1.319Z" transform="translate(-644.76 -444.404)" fill="#a4a6a8"/>
                  <path id="Path_5051" data-name="Path 5051" d="M675.972,463.177l-31.212-1.319v-.5l31.212,1.319Z" transform="translate(-644.76 -444.2)" fill="#a3a5a7"/>
                  <path id="Path_5052" data-name="Path 5052" d="M675.972,463.468l-31.212-1.319v-.5l31.212,1.319Z" transform="translate(-644.76 -443.996)" fill="#a2a3a6"/>
                  <path id="Path_5053" data-name="Path 5053" d="M675.972,463.759,644.76,462.44v-.5l31.212,1.319Z" transform="translate(-644.76 -443.791)" fill="#a0a2a4"/>
                  <path id="Path_5054" data-name="Path 5054" d="M675.972,464.05l-31.212-1.319v-.5l31.212,1.319Z" transform="translate(-644.76 -443.587)" fill="#9fa1a3"/>
                  <path id="Path_5055" data-name="Path 5055" d="M675.972,464.341l-31.212-1.319v-.5l31.212,1.319Z" transform="translate(-644.76 -443.383)" fill="#9ea0a2"/>
                  <path id="Path_5056" data-name="Path 5056" d="M675.972,464.632l-31.212-1.319v-.5l31.212,1.319Z" transform="translate(-644.76 -443.178)" fill="#9d9fa1"/>
                  <path id="Path_5057" data-name="Path 5057" d="M675.972,464.922,644.76,463.6v-.5l31.212,1.319Z" transform="translate(-644.76 -442.974)" fill="#9c9d9f"/>
                  <path id="Path_5058" data-name="Path 5058" d="M675.972,465.213l-31.212-1.319v-.5l31.212,1.319Z" transform="translate(-644.76 -442.77)" fill="#9a9c9e"/>
                  <path id="Path_5059" data-name="Path 5059" d="M675.972,465.5l-31.212-1.319v-.5l31.212,1.319Z" transform="translate(-644.76 -442.565)" fill="#999b9d"/>
                  <path id="Path_5060" data-name="Path 5060" d="M644.76,463.981l31.212,1.319v10.237H644.76Z" transform="translate(-644.76 -442.361)" fill="#999b9d"/>
                </g>
              </g>
            </g>
            <g id="Group_13233" data-name="Group 13233" transform="translate(0 0.648)">
              <path id="Path_5062" data-name="Path 5062" d="M621.636,465.234c-.388,0-.7-.232-.7-.516,0-2.1-3.837-6.985-11.171-12.279-7.858-5.671-16.862-9.688-24.7-11.021-.376-.065-.611-.342-.524-.62a.74.74,0,0,1,.841-.386c18.019,3.063,36.96,18.789,36.96,24.306C622.336,465,622.023,465.234,621.636,465.234Z" transform="translate(-584.517 -440.399)" fill="url(#linear-gradient-6)"/>
            </g>
            <g id="Group_13234" data-name="Group 13234" transform="translate(17.195 0.648)">
              <path id="Path_5063" data-name="Path 5063" d="M622.945,464.126a.679.679,0,0,1-.688-.422c-2-7.855-17.909-19.126-27.232-22.321-.352-.119-.5-.427-.341-.684a.824.824,0,0,1,.931-.25c9.581,3.284,25.945,14.923,28.019,23.067.072.279-.179.548-.56.6A.832.832,0,0,1,622.945,464.126Z" transform="translate(-594.618 -440.4)" fill="url(#linear-gradient-7)"/>
            </g>
            <g id="Group_13235" data-name="Group 13235" transform="translate(31.009 0.001)">
              <path id="Path_5064" data-name="Path 5064" d="M625.024,463.964a.674.674,0,0,1-.689-.427c-1.331-5.611-11.428-19.293-21.189-22.531-.352-.117-.509-.424-.351-.683a.818.818,0,0,1,.926-.259c10.325,3.427,20.583,17.35,21.994,23.295.066.281-.189.548-.57.6A.956.956,0,0,1,625.024,463.964Z" transform="translate(-602.733 -440.019)" fill="url(#linear-gradient-8)"/>
            </g>
            <g id="Group_13236" data-name="Group 13236" transform="translate(44.822)">
              <path id="Path_5065" data-name="Path 5065" d="M629.159,463.964a.7.7,0,0,1-.676-.385c-.124-.347-.255-.722-.4-1.118-2.089-5.977-5.975-17.1-16.875-21.473-.34-.136-.466-.449-.281-.7a.843.843,0,0,1,.95-.206c11.435,4.584,15.421,15.992,17.563,22.122.138.395.269.768.393,1.113.1.276-.126.557-.5.63A.908.908,0,0,1,629.159,463.964Z" transform="translate(-610.847 -440.019)" fill="url(#linear-gradient-9)"/>
            </g>
            <g id="Group_13237" data-name="Group 13237" transform="translate(67.233 0.647)">
              <path id="Path_5066" data-name="Path 5066" d="M636.186,481.779a.838.838,0,0,1-.225-.029c-.368-.09-.563-.383-.439-.654,4.637-10.04-2.756-36.4-11.142-39.728-.34-.134-.468-.448-.284-.7a.837.837,0,0,1,.948-.209c9.666,3.832,16.314,31.2,11.8,40.967A.719.719,0,0,1,636.186,481.779Z" transform="translate(-624.012 -440.399)" fill="url(#linear-gradient-10)"/>
            </g>
            <g id="Group_13238" data-name="Group 13238" transform="translate(76.203 1.722)">
              <path id="Path_5067" data-name="Path 5067" d="M640.622,470.387h-.032c-.386-.014-.686-.254-.669-.538.667-10.793-5.88-23.092-10.514-28.007a.437.437,0,0,1,.175-.718.865.865,0,0,1,.974.129c4.744,5.03,11.445,17.612,10.764,28.642A.64.64,0,0,1,640.622,470.387Z" transform="translate(-629.281 -441.03)" fill="url(#linear-gradient-11)"/>
            </g>
            <g id="Group_13239" data-name="Group 13239" transform="translate(87.647 4.258)">
              <path id="Path_5068" data-name="Path 5068" d="M641.5,481.72a.91.91,0,0,1-.242-.032c-.363-.1-.548-.395-.415-.662,4.993-9.981,2.441-30.409-4.707-37.687a.435.435,0,0,1,.157-.72.871.871,0,0,1,.977.116c8.115,8.26,9.659,29.112,4.887,38.648A.726.726,0,0,1,641.5,481.72Z" transform="translate(-636.003 -442.52)" fill="url(#linear-gradient-12)"/>
            </g>
            <g id="Group_13240" data-name="Group 13240" transform="translate(97.347 3.226)">
              <path id="Path_5069" data-name="Path 5069" d="M642.4,483.177a.925.925,0,0,1-.325-.06c-.344-.133-.475-.444-.294-.7,6.877-9.623,6.906-32.622.049-39.692a.435.435,0,0,1,.163-.718.871.871,0,0,1,.977.119c7.225,7.45,7.252,30.692.049,40.771A.761.761,0,0,1,642.4,483.177Z" transform="translate(-641.701 -441.914)" fill="url(#linear-gradient-13)"/>
            </g>
            <g id="Group_13241" data-name="Group 13241" transform="translate(105.051 5.29)">
              <path id="Path_5070" data-name="Path 5070" d="M651.831,474.588c-.026,0-.049,0-.075,0-.385-.029-.664-.283-.623-.567,1.454-10.172-.126-24.694-4.8-30.1a.443.443,0,0,1,.216-.712.861.861,0,0,1,.967.158c4.826,5.585,6.486,20.416,5.008,30.761A.659.659,0,0,1,651.831,474.588Z" transform="translate(-646.227 -443.127)" fill="url(#linear-gradient-14)"/>
            </g>
          </g>
        </g>
      </g>
    </g>
    <path id="Path_5099" data-name="Path 5099" d="M658.536,473.053c-8.112-2.887-24.732-7.729-28.441-5.454-11.394,6.157-23.734,8.335-24.8,14.053-1.088,5.817,9.278,8.306,10.141,8.58-.121,3.611,8.787,9.819,11.7,9.359,15.818-2.5,12.945,4.084,25.5-8.718S658.536,473.053,658.536,473.053Z" transform="translate(-354.521 -198.258)" fill="url(#linear-gradient-15)"/>
    <path id="Path_5100" data-name="Path 5100" d="M629.085,486.054c7.02,1.709,12.48,14.819,10.141,17.939,27.3-4.68,54.431-21.208,63.961-31.98,17.939-20.28-5.565-41.588-32.423-20.014S629.085,486.054,629.085,486.054Z" transform="translate(-337.754 -215.14)" fill="url(#linear-gradient-16)"/>
  </g>
</svg>
