<svg xmlns="http://www.w3.org/2000/svg" xmlns:xlink="http://www.w3.org/1999/xlink" width="39.648" height="225.361" viewBox="0 0 39.648 225.361">
  <defs>
    <linearGradient id="linear-gradient" x1="1.093" y1="0.069" x2="0.29" y2="0.813" gradientUnits="objectBoundingBox">
      <stop offset="0.641" stop-color="#ffd7a5"/>
      <stop offset="1" stop-color="#faa96c"/>
    </linearGradient>
    <linearGradient id="linear-gradient-2" x1="0.648" y1="0.256" x2="0.413" y2="0.992" xlink:href="#linear-gradient"/>
    <linearGradient id="linear-gradient-3" x1="0.037" y1="-0.025" x2="0.887" y2="0.88" gradientUnits="objectBoundingBox">
      <stop offset="0" stop-color="#694538"/>
      <stop offset="1" stop-color="#1c1007"/>
    </linearGradient>
    <linearGradient id="linear-gradient-4" x1="-3.736" y1="26.745" x2="-3.437" y2="25.992" xlink:href="#linear-gradient-3"/>
  </defs>
  <g id="Group_13725" data-name="Group 13725" transform="translate(-71 2)">
    <path id="Path_5127" data-name="Path 5127" d="M811.794,446.338c2.044-1.93.167,18.8-3.12,19.5S797.753,459.6,811.794,446.338Z" transform="translate(-726.862 -255.763)" fill="url(#linear-gradient)"/>
    <path id="Path_5128" data-name="Path 5128" d="M819.969,409.631c-2.339,21.839-5.459,53.82-5.459,53.82-6.241,9.361-10.921,15.6-8.58,19.5s0,22.621,5.459,21.841,12.2-7.1,12.2-7.1c1.059,2.422,4.179,3.2,4.959.083s6.241-19.5,5.461-23.4-8.835-15.577-9.1-17.148c-.526-7.824,4.251-47.592,4.251-47.592Z" transform="translate(-725.678 -281.455)" fill="url(#linear-gradient-2)"/>
    <path id="Path_5129" data-name="Path 5129" d="M811.264,334.794c17.73,10.764,27.869,72.367,27.869,90.325,0,10.919-11.387,20.147-17.16,6.239s-16.38-61.62-19.5-70.2S797.465,326.419,811.264,334.794Z" transform="translate(-729.242 -335.163)" fill="url(#linear-gradient-3)"/>
    <path id="Path_5130" data-name="Path 5130" d="M824.839,479.439c8.525-37.886,10.028-75.829,7.405-88.439s-17.139-8.541-18.1,9.76-.9,58.9-4.678,74.091C817.241,472.786,824.839,479.439,824.839,479.439Z" transform="translate(-722.766 -299.659)" fill="url(#linear-gradient-4)"/>
  </g>
</svg>
