<svg xmlns="http://www.w3.org/2000/svg" xmlns:xlink="http://www.w3.org/1999/xlink" width="100.321" height="207.858" viewBox="0 0 100.321 207.858">
  <defs>
    <linearGradient id="linear-gradient" x1="0.27" y1="0.986" x2="0.744" y2="0.083" gradientUnits="objectBoundingBox">
      <stop offset="0.641" stop-color="#ffd7a5"/>
      <stop offset="1" stop-color="#faa96c"/>
    </linearGradient>
    <linearGradient id="linear-gradient-2" x1="1.081" y1="-0.217" x2="0.118" y2="0.918" gradientUnits="objectBoundingBox">
      <stop offset="0.04" stop-color="#59192f"/>
      <stop offset="0.877" stop-color="#a5457d"/>
    </linearGradient>
  </defs>
  <g id="Group_13725" data-name="Group 13725" transform="translate(442.061 72.554)">
    <path id="Path_4624" data-name="Path 4624" d="M259.645,476.843C249.46,488.3,230.361,512.5,231.634,520.138c2.546,22.919-.106,34.935,8.615,40.519,8.872,5.684,24.98-7.478,26.008-8.718,5.881,2.61,15.038.03,16.311-5.062s15.28-19.1,2.546-48.388S259.645,476.843,259.645,476.843Z" transform="translate(-673.634 -426.77)" fill="url(#linear-gradient)"/>
    <path id="Path_4626" data-name="Path 4626" d="M288.815,436.173c-31.24-7.963-45.841,109.506-49.661,127.333,3.819,19.1,30.561,16.554,30.561,16.554C286.268,557.14,353.756,452.727,288.815,436.173Z" transform="translate(-658.235 -508.341)" fill="url(#linear-gradient-2)"/>
  </g>
</svg>
