<svg xmlns="http://www.w3.org/2000/svg" xmlns:xlink="http://www.w3.org/1999/xlink" width="123.767" height="124.145" viewBox="0 0 123.767 124.145">
  <defs>
    <linearGradient id="linear-gradient" x1="0.594" y1="0.039" x2="0.31" y2="1.06" gradientUnits="objectBoundingBox">
      <stop offset="0.641" stop-color="#ffd7a5"/>
      <stop offset="1" stop-color="#faa96c"/>
    </linearGradient>
    <linearGradient id="linear-gradient-2" x1="0.658" y1="1.042" x2="0.398" y2="-0.025" gradientUnits="objectBoundingBox">
      <stop offset="0.395" stop-color="#ffd7a5"/>
      <stop offset="1" stop-color="#faa96c"/>
    </linearGradient>
    <clipPath id="clip-path">
      <path id="Path_5303" data-name="Path 5303" d="M1132.706,257.9c-4.68-7.02-14.155-12.482-11.7-.781C1121.124,260.236,1127.247,263.356,1132.706,257.9Z" transform="translate(-1120.608 -250.299)" fill="none"/>
    </clipPath>
    <linearGradient id="linear-gradient-3" y1="0.5" x2="1" y2="0.5" gradientUnits="objectBoundingBox">
      <stop offset="0" stop-color="#db8937"/>
      <stop offset="1" stop-color="#973143"/>
    </linearGradient>
    <linearGradient id="linear-gradient-4" x1="57.584" y1="-22.864" x2="57.605" y2="-23.7" gradientUnits="objectBoundingBox">
      <stop offset="0" stop-color="#ddf5f5" stop-opacity="0.4"/>
      <stop offset="1" stop-color="#c6d9db" stop-opacity="0"/>
    </linearGradient>
    <linearGradient id="linear-gradient-5" x1="0.634" y1="0.062" x2="0.445" y2="1.153" gradientUnits="objectBoundingBox">
      <stop offset="0.345" stop-color="#fabb80"/>
      <stop offset="1" stop-color="#faa16c"/>
    </linearGradient>
    <linearGradient id="linear-gradient-6" x1="0.449" y1="1.001" x2="0.511" y2="0.128" gradientUnits="objectBoundingBox">
      <stop offset="0.341" stop-color="#ffd7a5"/>
      <stop offset="1" stop-color="#faa96c"/>
    </linearGradient>
    <linearGradient id="linear-gradient-8" x1="48.06" y1="-18.747" x2="48.082" y2="-19.582" xlink:href="#linear-gradient-4"/>
    <linearGradient id="linear-gradient-9" x1="0.004" y1="-0.052" x2="0.849" y2="1.214" gradientUnits="objectBoundingBox">
      <stop offset="0" stop-color="#c38951"/>
      <stop offset="1" stop-color="#a73d2a"/>
    </linearGradient>
    <linearGradient id="linear-gradient-10" x1="0.703" y1="-0.323" x2="0.286" y2="1.291" xlink:href="#linear-gradient-9"/>
    <clipPath id="clip-path-2">
      <path id="Path_5318" data-name="Path 5318" d="M1126.405,268.059c8.58.78,20.436-1.246,25.817-3.354-5.616,9.045-18.018,14.273-23.479,13.493C1123.036,277.382,1125.623,273.518,1126.405,268.059Z" transform="translate(-1125.14 -264.705)" fill="none"/>
    </clipPath>
    <linearGradient id="linear-gradient-11" x1="0.341" y1="-0.02" x2="0.583" y2="0.684" xlink:href="#linear-gradient-9"/>
    <linearGradient id="linear-gradient-12" x1="0.401" y1="-0.092" x2="0.554" y2="0.845" xlink:href="#linear-gradient-9"/>
    <linearGradient id="linear-gradient-13" x1="-50.505" y1="47.69" x2="-51.142" y2="49.103" xlink:href="#linear-gradient"/>
    <linearGradient id="linear-gradient-14" x1="-79.156" y1="101.199" x2="-80.251" y2="101.738" gradientUnits="objectBoundingBox">
      <stop offset="0.641" stop-color="#fabb80"/>
      <stop offset="1" stop-color="#faa96c"/>
    </linearGradient>
  </defs>
  <g id="Group_13384" data-name="Group 13384" transform="translate(-14.369)">
    <path id="Path_5299" data-name="Path 5299" d="M1185.539,223.6c10.92,9.361,6.183,48.845,4.68,61.621-1.559,13.26-29.64,35.88-41.34,38.219s-23.4,4.68-22.621-1.559,4.68-33.541,3.12-39.78-31.2-27.3-9.36-46.019C1129.379,229.845,1185.539,223.6,1185.539,223.6Z" transform="translate(-1077.118 -201.744)" fill="url(#linear-gradient)"/>
    <path id="Path_5300" data-name="Path 5300" d="M1131.425,246.774c2.034,4.069,4.68,14.821,2.341,16.38s-4.249,3.469-7.584,1.345-11.137-14.364-10.357-16.824S1129.865,243.653,1131.425,246.774Z" transform="translate(-1074.485 -186.693)" fill="url(#linear-gradient-2)"/>
    <g id="Group_13359" data-name="Group 13359" transform="translate(49.136 66.732)">
      <path id="Path_5301" data-name="Path 5301" d="M1132.706,257.9c-4.68-7.02-14.155-12.482-11.7-.781C1121.124,260.236,1127.247,263.356,1132.706,257.9Z" transform="translate(-1120.223 -249.727)" fill="#fff"/>
      <g id="Group_13358" data-name="Group 13358" transform="translate(0.385 0.571)">
        <g id="Group_13357" data-name="Group 13357" clip-path="url(#clip-path)">
          <g id="Group_13356" data-name="Group 13356" transform="translate(2.445 1.917)">
            <circle id="Ellipse_286" data-name="Ellipse 286" cx="3.977" cy="3.977" r="3.977" transform="translate(0.339)" fill="url(#linear-gradient-3)"/>
            <path id="Path_5302" data-name="Path 5302" d="M1129.205,254.988a3.276,3.276,0,1,1-3.4-3.149A3.278,3.278,0,0,1,1129.205,254.988Z" transform="translate(-1121.615 -251.135)" fill="url(#linear-gradient-4)"/>
            <circle id="Ellipse_287" data-name="Ellipse 287" cx="1.334" cy="1.334" r="1.334" transform="translate(0 0.837)" fill="#fff"/>
          </g>
        </g>
      </g>
      <path id="Path_5304" data-name="Path 5304" d="M1132.865,258.132c-8.58-7.8-12.48-8.582-11.7-.781C1117.267,244.871,1128.965,250.332,1132.865,258.132Z" transform="translate(-1120.382 -249.963)" fill="#945c38"/>
    </g>
    <path id="Path_5309" data-name="Path 5309" d="M1145.169,268.658c-2.523,3.784-27.3,8.58-31.2,6.241,7.019-4.68,21.06-16.38,21.839-21.06s3.9-3.9,4.68-.781S1146.73,266.319,1145.169,268.658Z" transform="translate(-1075.749 -182.837)" fill="url(#linear-gradient-5)"/>
    <path id="Path_5310" data-name="Path 5310" d="M1133.135,245.389c-3.546,1.619-.577,17.078,1.912,19.633s21.989,1.776,24.33-3.686,4.68-12.48.78-14.819S1137.314,243.481,1133.135,245.389Z" transform="translate(-1063.436 -187.217)" fill="url(#linear-gradient-6)"/>
    <path id="Path_5311" data-name="Path 5311" d="M1132.756,257.687c12.48-14.819,23.549-6.239,24.645,0C1152.571,263.927,1139,263.148,1132.756,257.687Z" transform="translate(-1062.555 -183.566)" fill="#fff"/>
    <g id="Group_13362" data-name="Group 13362" transform="translate(80.001 67.594)">
      <circle id="Ellipse_288" data-name="Ellipse 288" cx="4.774" cy="4.774" r="4.774" transform="translate(0.407)" fill="url(#linear-gradient-3)"/>
      <path id="Path_5312" data-name="Path 5312" d="M1147.108,254.746a3.932,3.932,0,1,1-4.079-3.779A3.932,3.932,0,0,1,1147.108,254.746Z" transform="translate(-1137.997 -250.122)" fill="url(#linear-gradient-8)"/>
      <circle id="Ellipse_289" data-name="Ellipse 289" cx="1.601" cy="1.601" r="1.601" transform="translate(0 1.005)" fill="#fff"/>
    </g>
    <path id="Path_5313" data-name="Path 5313" d="M1132.756,257.828c11.7-13.26,22.769-9.359,24.645,0C1151.79,250.809,1146.016,248.469,1132.756,257.828Z" transform="translate(-1062.555 -183.708)" fill="#945c38"/>
    <path id="Path_5314" data-name="Path 5314" d="M1129.09,241.016c0,4.1,3.279,9.014,7.376,9.834s21.848-.821,27.724,0c-.541-3.279-7.237-6.557-11.334-6.557s-18.85-1.638-18.85-1.638c-.819.417.82,4.515,1.639,5.126C1134.006,246.544,1130.729,245.932,1129.09,241.016Z" transform="translate(-1065.13 -189.515)" fill="url(#linear-gradient-9)"/>
    <path id="Path_5315" data-name="Path 5315" d="M1132.346,243.765c0,4.5-.78,6.239-4.68,6.239s-9.526-3.143-11.782,1.939c-1.394-6.215,1.709-7.814,11.816-7.216C1129.193,245.142,1131.566,244.727,1132.346,243.765Z" transform="translate(-1074.627 -187.584)" fill="url(#linear-gradient-10)"/>
    <path id="Path_5316" data-name="Path 5316" d="M1126.405,268.059c8.58.78,20.436-1.246,25.817-3.354-5.616,9.045-18.018,14.273-23.479,13.493C1123.036,277.382,1125.623,273.518,1126.405,268.059Z" transform="translate(-1067.904 -172.877)" fill="#871131"/>
    <g id="Group_13364" data-name="Group 13364" transform="translate(57.236 91.828)">
      <g id="Group_13363" data-name="Group 13363" clip-path="url(#clip-path-2)">
        <path id="Path_5317" data-name="Path 5317" d="M1127.348,268.7a17.39,17.39,0,0,1,.625,5.313c5.461,0,14.821-2.341,20.28-4.68,3.9-4.68,3.284-5.328,3.284-5.328Z" transform="translate(-1123.589 -265.198)" fill="#fff"/>
      </g>
    </g>
    <path id="Path_5319" data-name="Path 5319" d="M1197.131,227.164c0,4.68,0,8.58-5.461,10.141s-52.657,20.1-71.178,20.578c.4,3.3.38,10.018,4.189,15.389-16.56-12.657-27.074-18.962-24.27-26.608,8.58-23.4,75.661-39.78,82.68-35.1S1197.131,223.263,1197.131,227.164Z" transform="translate(-1085.59 -210.763)" fill="url(#linear-gradient-11)"/>
    <path id="Path_5320" data-name="Path 5320" d="M1156.095,227.685c7.448-12.846,24.784-7.982,31.023-5.643.781,13.261-4.68,29.641-7.8,33.541,6.241,4.68,8.638,8.556-.751,13.638-6.268,3.522-14.848,2.742-16.409-1.939-3.9,1.561-4.68,6.241-4.68,11.7a4.821,4.821,0,0,1-5.459-.78c-.781-17.16,8.58-22.238,8.58-22.238C1152.8,247.783,1150.811,237.227,1156.095,227.685Z" transform="translate(-1049.058 -204.861)" fill="url(#linear-gradient-12)"/>
    <path id="Path_5321" data-name="Path 5321" d="M1156.44,256.009c.807-3.822,11.256-15.318,24.112-5.645,10.577,7.957-14.991,18.663-18.988,19.374S1154.314,266.079,1156.44,256.009Z" transform="translate(-1046.392 -185.604)" fill="url(#linear-gradient-13)"/>
    <path id="Path_5326" data-name="Path 5326" d="M1158.775,254.261c6.539-.339,7.885,3.752,6.149,6.741,6.5.221,11.636-5.517,11.178-7.579C1174.54,246.4,1161.053,252,1158.775,254.261Z" transform="translate(-1044.281 -183.203)" fill="url(#linear-gradient-14)"/>
  </g>
</svg>
