<svg xmlns="http://www.w3.org/2000/svg" xmlns:xlink="http://www.w3.org/1999/xlink" width="135.045" height="142.213" viewBox="0 0 135.045 142.213">
  <defs>
    <linearGradient id="linear-gradient" x1="0.523" y1="-0.015" x2="0.453" y2="1.191" gradientUnits="objectBoundingBox">
      <stop offset="0" stop-color="#5d7d91"/>
      <stop offset="1" stop-color="#374b6b"/>
    </linearGradient>
    <linearGradient id="linear-gradient-2" x1="0.57" y1="0.115" x2="0.181" y2="1.009" gradientUnits="objectBoundingBox">
      <stop offset="0" stop-color="#cfb191"/>
      <stop offset="1" stop-color="#835f6f"/>
    </linearGradient>
    <linearGradient id="linear-gradient-3" x1="0.571" y1="0.128" x2="0.385" y2="1.147" gradientUnits="objectBoundingBox">
      <stop offset="0.641" stop-color="#ffd7a5"/>
      <stop offset="1" stop-color="#faa96c"/>
    </linearGradient>
    <linearGradient id="linear-gradient-4" x1="0.455" y1="0.972" x2="0.56" y2="0.145" gradientUnits="objectBoundingBox">
      <stop offset="0.352" stop-color="#ffd7a5"/>
      <stop offset="1" stop-color="#faa96c"/>
    </linearGradient>
    <linearGradient id="linear-gradient-5" x1="0.416" y1="1.048" x2="0.568" y2="0.078" gradientUnits="objectBoundingBox">
      <stop offset="0.489" stop-color="#ffd7a5"/>
      <stop offset="1" stop-color="#faa96c"/>
    </linearGradient>
    <linearGradient id="linear-gradient-6" x1="0.523" y1="0.092" x2="0.43" y2="0.943" xlink:href="#linear-gradient-2"/>
    <clipPath id="clip-path">
      <path id="Path_4793" data-name="Path 4793" d="M964.477,304.045c-.821-7.386,4.925-14.773,22.98,1.641C983.353,308.969,970.223,312.253,964.477,304.045Z" transform="translate(-964.402 -295.816)" fill="none"/>
    </clipPath>
    <linearGradient id="linear-gradient-7" x1="0" y1="0.5" x2="1" y2="0.5" xlink:href="#linear-gradient-2"/>
    <linearGradient id="linear-gradient-8" x1="42.407" y1="-17.792" x2="42.429" y2="-18.628" gradientUnits="objectBoundingBox">
      <stop offset="0" stop-color="#ddf5f5" stop-opacity="0.4"/>
      <stop offset="1" stop-color="#c6d9db" stop-opacity="0"/>
    </linearGradient>
    <clipPath id="clip-path-2">
      <path id="Path_4795" data-name="Path 4795" d="M957.693,303.1c-.507-12.412-10.355-9.13-14.458-.1C948.979,308.744,954.916,307.307,957.693,303.1Z" transform="translate(-943.235 -294.968)" fill="none"/>
    </clipPath>
    <linearGradient id="linear-gradient-10" x1="45.837" y1="-19.485" x2="45.859" y2="-20.321" xlink:href="#linear-gradient-8"/>
    <linearGradient id="linear-gradient-11" x1="0.566" y1="0.183" x2="0.459" y2="0.922" xlink:href="#linear-gradient-2"/>
    <linearGradient id="linear-gradient-12" x1="0.577" y1="0.084" x2="0.423" y2="1.071" xlink:href="#linear-gradient-2"/>
    <linearGradient id="linear-gradient-14" x1="0.454" y1="0.09" x2="0.585" y2="1.086" gradientUnits="objectBoundingBox">
      <stop offset="0" stop-color="#fff" stop-opacity="0"/>
      <stop offset="1" stop-color="#e4e9eb"/>
    </linearGradient>
    <linearGradient id="linear-gradient-15" x1="0.564" y1="0.19" x2="0.363" y2="1.214" xlink:href="#linear-gradient-3"/>
    <linearGradient id="linear-gradient-16" x1="1.165" y1="0.181" x2="0.31" y2="0.55" gradientUnits="objectBoundingBox">
      <stop offset="0.641" stop-color="#fabb80"/>
      <stop offset="1" stop-color="#faa16c"/>
    </linearGradient>
    <linearGradient id="linear-gradient-17" x1="0.899" y1="-0.253" x2="0.184" y2="1.032" gradientUnits="objectBoundingBox">
      <stop offset="0.256" stop-color="#fff" stop-opacity="0"/>
      <stop offset="1" stop-color="#e4e9eb"/>
    </linearGradient>
    <linearGradient id="linear-gradient-18" x1="0.514" y1="-0.231" x2="0.478" y2="1.162" xlink:href="#linear-gradient"/>
    <linearGradient id="linear-gradient-19" x1="0.515" y1="-0.314" x2="0.475" y2="1.342" xlink:href="#linear-gradient"/>
    <linearGradient id="linear-gradient-20" x1="0.639" y1="-0.009" x2="0.491" y2="0.762" gradientUnits="objectBoundingBox">
      <stop offset="0.345" stop-color="#fabb80"/>
      <stop offset="1" stop-color="#faa16c"/>
    </linearGradient>
    <linearGradient id="linear-gradient-21" x1="0.542" y1="0.148" x2="0.488" y2="1.237" xlink:href="#linear-gradient"/>
    <linearGradient id="linear-gradient-22" x1="-849.461" y1="-1748.336" x2="-848.908" y2="-1746.728" gradientUnits="objectBoundingBox">
      <stop offset="0" stop-color="#fff" stop-opacity="0.2"/>
      <stop offset="1" stop-color="#fff"/>
    </linearGradient>
    <linearGradient id="linear-gradient-23" x1="-863.851" y1="-1733.158" x2="-863.297" y2="-1731.55" xlink:href="#linear-gradient-22"/>
  </defs>
  <g id="Group_13152" data-name="Group 13152" transform="translate(0 0)">
    <path id="Path_4783" data-name="Path 4783" d="M932.629,299.818l26.148-7.432-2,2.58-24.149,7.316Z" transform="translate(-931.944 -229.896)" fill="url(#linear-gradient)"/>
    <path id="Path_4785" data-name="Path 4785" d="M964.4,260.373c0-7.567-15.592.821-17.234,13.951s-2.462,37.751,1.643,36.11S964.4,266.937,964.4,260.373Z" transform="translate(-922.68 -254.392)" fill="url(#linear-gradient-2)"/>
    <path id="Path_4786" data-name="Path 4786" d="M965.128,263.6c-2.462,52.524-31.185,80.427-32.006,92.737s17.234,24.619,17.234,24.619c-3.284,7.386,7.945,13.952,19.7,13.952,14.771,0,56.627-9.028,62.371-24.621s17.235-75.5,12.31-91.915C1032.423,261.142,991.39,255.4,965.128,263.6Z" transform="translate(-931.617 -252.7)" fill="url(#linear-gradient-3)"/>
    <path id="Path_4787" data-name="Path 4787" d="M970.377,283.408c-5.492,2.353-9.028,29.544-6.566,34.467,17.235,9.85,27.083,5.745,28.724,1.643s4.1-15.594.821-19.7S976.122,280.947,970.377,283.408Z" transform="translate(-910.603 -236.394)" fill="url(#linear-gradient-4)"/>
    <path id="Path_4788" data-name="Path 4788" d="M963.27,282.866c4.7,2.005-2.986,27.535-4.366,30.591s-12.047,7.981-16.15-1.047C944.394,300.921,958.782,280.949,963.27,282.866Z" transform="translate(-924.833 -236.673)" fill="url(#linear-gradient-5)"/>
    <path id="Path_4789" data-name="Path 4789" d="M1039.2,307.174c-4.1,5.364-17.234,18.394-23.8,16.1s11.489-45.694,4.1-52.739-27.083,12.883-49.24,9.051-24.795-14.547-20.605-19.536,74.769-7.291,92,1.907C1044.119,288.013,1039.2,307.174,1039.2,307.174Z" transform="translate(-921.155 -255.678)" fill="url(#linear-gradient-6)"/>
    <path id="Path_4790" data-name="Path 4790" d="M964.477,304.045c-.821-7.386,4.925-14.773,22.98,1.641C983.353,308.969,970.223,312.253,964.477,304.045Z" transform="translate(-909.629 -227.487)" fill="#fff"/>
    <path id="Path_4791" data-name="Path 4791" d="M957.693,303.1c-.507-12.412-10.355-9.13-14.458-.1C948.979,308.744,954.916,307.307,957.693,303.1Z" transform="translate(-924.495 -228.083)" fill="#fff"/>
    <g id="Group_13148" data-name="Group 13148" transform="translate(54.773 68.328)">
      <g id="Group_13147" data-name="Group 13147" clip-path="url(#clip-path)">
        <g id="Group_13146" data-name="Group 13146" transform="translate(5.514 1.76)">
          <circle id="Ellipse_241" data-name="Ellipse 241" cx="5.377" cy="5.377" r="5.377" transform="translate(0.458)" fill="url(#linear-gradient-7)"/>
          <path id="Path_4792" data-name="Path 4792" d="M977.321,301.666a4.429,4.429,0,1,1-4.595-4.256A4.43,4.43,0,0,1,977.321,301.666Z" transform="translate(-967.061 -296.458)" fill="url(#linear-gradient-8)"/>
          <circle id="Ellipse_242" data-name="Ellipse 242" cx="1.803" cy="1.803" r="1.803" transform="translate(0 1.132)" fill="#fff"/>
        </g>
      </g>
    </g>
    <g id="Group_13151" data-name="Group 13151" transform="translate(18.74 66.885)">
      <g id="Group_13150" data-name="Group 13150" clip-path="url(#clip-path-2)">
        <g id="Group_13149" data-name="Group 13149" transform="translate(5.43 1.579)">
          <circle id="Ellipse_243" data-name="Ellipse 243" cx="4.973" cy="4.973" r="4.973" transform="translate(0.424)" fill="url(#linear-gradient-7)"/>
          <path id="Path_4794" data-name="Path 4794" d="M955.375,300.349a4.095,4.095,0,1,1-4.247-3.936A4.095,4.095,0,0,1,955.375,300.349Z" transform="translate(-945.888 -295.533)" fill="url(#linear-gradient-10)"/>
          <circle id="Ellipse_244" data-name="Ellipse 244" cx="1.667" cy="1.667" r="1.667" transform="translate(0 1.047)" fill="#fff"/>
        </g>
      </g>
    </g>
    <path id="Path_4796" data-name="Path 4796" d="M987.484,306.3c-11.489-13.13-24.621-16.414-22.98-1.641C967.787,297.275,968.608,293.173,987.484,306.3Z" transform="translate(-909.655 -228.104)" fill="#283547"/>
    <path id="Path_4797" data-name="Path 4797" d="M943.235,303.363c7.386-13.952,15.784-9.644,14.458.1C955.039,294.233,949.8,294.335,943.235,303.363Z" transform="translate(-924.495 -228.445)" fill="#283547"/>
    <path id="Path_4798" data-name="Path 4798" d="M967.98,278.474c-2.959,0-2.717,12.671-2.717,12.671,9.283.46,26.424,15.464,27.7,13.707s-17.6-22.273-19.242-23.1a25.3,25.3,0,0,0-4.923,4.925l1.787-6.251S968.8,278.474,967.98,278.474Z" transform="translate(-909.027 -239.667)" fill="url(#linear-gradient-11)"/>
    <path id="Path_4799" data-name="Path 4799" d="M963.723,280.351c.821,2.55-1.094,9.569-1.779,10.163-3.828-1.275-13.232,5.808-15.164,7.3A34.207,34.207,0,0,1,959.621,282.9a5.479,5.479,0,0,1,2.324,2.186,30.267,30.267,0,0,0,0-3.9Z" transform="translate(-922.005 -238.349)" fill="url(#linear-gradient-12)"/>
    <path id="Path_4800" data-name="Path 4800" d="M984.971,302.71l26.148-7.432-2,2.58-24.149,7.316Z" transform="translate(-895.182 -227.865)" fill="url(#linear-gradient)"/>
    <path id="Path_4801" data-name="Path 4801" d="M961.2,299.925l.439,7.484a3.252,3.252,0,0,0,2.884,3.039l29.265,3.279a3.253,3.253,0,0,0,3.379-2.021l3.24-8.078a3.25,3.25,0,0,0-2.751-4.45l-32.947-2.683A3.249,3.249,0,0,0,961.2,299.925Z" transform="translate(-911.879 -227.018)" fill="url(#linear-gradient-14)"/>
    <path id="Path_4802" data-name="Path 4802" d="M996.942,301.291c3-6.748,24.97-9.972,27.258-2.113s-3.2,20.168-11.944,21.809-17.9-.148-19.068-5S993.66,308.678,996.942,301.291Z" transform="translate(-889.675 -228.355)" fill="url(#linear-gradient-15)"/>
    <path id="Path_4803" data-name="Path 4803" d="M1000.388,301.891c5.191,3.177,5.345,9.647-1.57,10.541,8.679,1.716,14.545-1.343,16.886-8.132S1003.947,299.481,1000.388,301.891Z" transform="translate(-885.456 -224.798)" fill="url(#linear-gradient-16)"/>
    <path id="Path_4804" data-name="Path 4804" d="M965.249,296.048l-28.615-.65a3.133,3.133,0,0,0-3.165,3.619l1.2,7.6a3.129,3.129,0,0,0,3.093,2.642h26a3.13,3.13,0,0,0,3.068-2.506l1.418-6.952A3.132,3.132,0,0,0,965.249,296.048Z" transform="translate(-931.38 -227.782)" fill="url(#linear-gradient-17)"/>
    <path id="Path_4805" data-name="Path 4805" d="M965.289,297.329c.089,0,.179,0,.269.012l32.947,2.683a3.25,3.25,0,0,1,2.751,4.45l-3.24,8.078A3.252,3.252,0,0,1,995,314.593a3.294,3.294,0,0,1-.364-.02l-29.265-3.279a3.252,3.252,0,0,1-2.884-3.039l-.439-7.484a3.25,3.25,0,0,1,3.24-3.442m0-2.051A5.3,5.3,0,0,0,960,300.891l.439,7.483a5.294,5.294,0,0,0,4.7,4.959l29.265,3.277a5.288,5.288,0,0,0,5.51-3.294l3.241-8.079a5.3,5.3,0,0,0-4.491-7.257L965.725,295.3c-.146-.012-.293-.017-.436-.017Z" transform="translate(-912.725 -227.865)" fill="url(#linear-gradient-18)"/>
    <path id="Path_4806" data-name="Path 4806" d="M937.408,296.244h.073l28.615.65a3.132,3.132,0,0,1,3,3.757l-1.418,6.952a3.13,3.13,0,0,1-3.068,2.506h-26a3.129,3.129,0,0,1-3.093-2.642l-1.2-7.6a3.132,3.132,0,0,1,3.092-3.619m0-2.053a5.184,5.184,0,0,0-5.117,5.992l1.2,7.6a5.159,5.159,0,0,0,5.121,4.375h26a5.2,5.2,0,0,0,5.078-4.149l1.418-6.954a5.182,5.182,0,0,0-4.961-6.217l-28.615-.65-.121,0Z" transform="translate(-932.227 -228.628)" fill="url(#linear-gradient-19)"/>
    <path id="Path_4807" data-name="Path 4807" d="M967.8,295.347c4.186,0,0,13.13,3.284,19.7-9.028,9.028-25.442,4.925-25.442-3.282s12.31-5.745,15.593-8.207S962.88,295.347,967.8,295.347Z" transform="translate(-922.802 -227.816)" fill="url(#linear-gradient-20)"/>
    <path id="Path_4808" data-name="Path 4808" d="M954.482,299.484c1.641-2.463,8.207-2.463,10.669,0v1.743c-2.462-1.743-8.154-2.361-11.053,0A1.684,1.684,0,0,0,954.482,299.484Z" transform="translate(-916.866 -226.208)" fill="url(#linear-gradient-21)"/>
    <path id="Path_4809" data-name="Path 4809" d="M942.753,318.57c4.1-1.047,19.7,2.235,48.35-1.047C965.731,326.551,950.96,322.446,942.753,318.57Z" transform="translate(-924.833 -212.241)" fill="#c1845b"/>
    <ellipse id="Ellipse_245" data-name="Ellipse 245" cx="4.014" cy="2.964" rx="4.014" ry="2.964" transform="matrix(0.894, -0.448, 0.448, 0.894, 2.749, 71.222)" fill="url(#linear-gradient-22)"/>
    <ellipse id="Ellipse_246" data-name="Ellipse 246" cx="4.014" cy="2.964" rx="4.014" ry="2.964" transform="matrix(0.894, -0.448, 0.448, 0.894, 49.55, 73.562)" fill="url(#linear-gradient-23)"/>
  </g>
</svg>
