<svg xmlns="http://www.w3.org/2000/svg" width="53.086" height="53.824" viewBox="0 0 53.086 53.824"><defs><style>.a{fill:#0f426d;}.b{fill:#cacaca;}.c{fill:#fff;}.d{fill:#ebebeb;}</style></defs><g transform="translate(-5.969 -13)"><g transform="translate(5.969 13)"><path class="a" d="M13.941-20C25.8-20,40.35-5.3,40.35,6.684S25.8,30.875,13.941,30.875-10,18.667-10,6.684,2.082-20,13.941-20Z" transform="translate(10 22.949)"/><path class="a" d="M403.868-7653.795c1.062,3.434,9.876,5.15,13.486,14.163s4.354-2.039-1.805-8.154S402.806-7657.229,403.868-7653.795Z" transform="translate(-367.04 7656.834)"/><path class="a" d="M469.753-7556.531c-1.429.726-1.836,2.2.224,3.122S471.181-7557.257,469.753-7556.531Z" transform="translate(-435.985 7556.606)"/></g><g transform="translate(-698.477 -18.741)"><path class="b" d="M.758,0S-1.561,7.453,1.915,10.1s8.456.933,10.116-2.75S11.668,5.9,11.668,5.9,7.31,9.422,6.636,9.008a26.691,26.691,0,0,1-3.58-3.942C2.952,4.755.758,0,.758,0Z" transform="translate(720.981 62.72) rotate(9)"/><path class="c" d="M6.729,1.149C4.242,4.05-3.328,10.18,1.671,16.782S16.681,12.4,16.681,12.4s-2.59-3.523-5.906,0c-1.691,1.8-2.649,2.544-3.869,1.742-.887-.552-2.159-2.547,2.106-6.05C17.715.943,9.216-1.752,6.729,1.149Z" transform="translate(718.497 56.777) rotate(-11)"/><path class="c" d="M8.334,2.581c-1.027-1.6-6.065-4.9-7.923,0S3.467,9.433,5.618,9.138,9.36,4.183,8.334,2.581Z" transform="translate(729.113 44.727) rotate(9)"/><path class="c" d="M3.3,0A3.781,3.781,0,0,1,7.29,3.909c0,2.324-1.662,3.515-3.986,3.515S0,6.112,0,3.788.975,0,3.3,0Z" transform="translate(729.168 46.805) rotate(-11)"/><path class="d" d="M.124,4.919C.079,4.794.037,4.671,0,4.55a1.7,1.7,0,0,1,1.3.221C3.478,5.836,3.15,6.125,5,4.2c1.535-1.6-.252-3.58-.9-4.2A3.741,3.741,0,0,1,7.015,2.539c.8,2.183-.358,3.871-2.544,4.666a4.233,4.233,0,0,1-1.444.287C1.659,7.492.726,6.575.124,4.919Z" transform="translate(730.538 45.645) rotate(9)"/><path class="d" d="M1.461,15.212c-2.955-1.435-.822-5.169,1.085-9.8C3.9,2.11,3.327.6,2.883,0c2.329.02,4.211,2.2.747,8.06-2.809,4.749-.931,6.189.09,6.4a2.029,2.029,0,0,0,.605.058,2.837,2.837,0,0,1-1.916.919A2.156,2.156,0,0,1,1.461,15.212Z" transform="translate(726.562 54.472) rotate(9)"/></g></g></svg>