<svg xmlns="http://www.w3.org/2000/svg" xmlns:xlink="http://www.w3.org/1999/xlink" width="75.047" height="80.527" viewBox="0 0 75.047 80.527"><defs><style>.a{stroke:#fdfdff;stroke-width:2px;fill:url(#a);}.b{fill:#fff;}.c{fill:#f90;}.d{fill:#fcffb1;opacity:0.5;}.e{fill:#fddc59;}.f{fill:rgba(189,113,0,0.5);}.g{fill:#cacaca;}.h{fill:#ebebeb;}.i{filter:url(#b);}</style><linearGradient id="a" x1="0.5" x2="0.5" y2="1" gradientUnits="objectBoundingBox"><stop offset="0" stop-color="#fb0"/><stop offset="1" stop-color="#ffba00"/></linearGradient><filter id="b" x="0" y="0" width="75.047" height="80.527" filterUnits="userSpaceOnUse"><feOffset dx="2" dy="2" input="SourceAlpha"/><feGaussianBlur result="c"/><feFlood flood-color="#0f426d" flood-opacity="0.149"/><feComposite operator="in" in2="c"/><feComposite in="SourceGraphic"/></filter></defs><g transform="translate(-436.845 -19.892)"><g transform="translate(437.852 20.923)"><g class="i" transform="matrix(1, 0, 0, 1, -1.01, -1.03)"><path class="a" d="M-595.994,123.424s2.178-26.135,28.313-29.4,44.647,23.957,42.469,39.2-17.423,37.024-39.2,37.024S-597.083,136.723-595.994,123.424Z" transform="translate(597.08 -92.72)"/></g><path class="b" d="M6.343.281C6.343-1.3.56,3.961.029,12.291S6.343,1.866,6.343.281Z" transform="matrix(-0.259, 0.966, -0.966, -0.259, 55.953, 10.484)"/><path class="b" d="M3867.554,8988.793s1.636-19.605,19.054-26.977l.3.053s-27.7,30.879-4.279,54.941,38.759,5.324,47.277-6.389,7.665-17.674,7.665-17.674l.908,2.16a18.922,18.922,0,0,1-.143,3.688c-2.176,15.242-17.422,37.021-39.2,37.021S3866.465,9002.092,3867.554,8988.793Z" transform="translate(-3867.479 -8959.122)"/><path class="c" d="M3867.55,8986.477s1.564-17.923,18.214-24.658l.286.047s-26.482,28.227-4.09,50.221,37.05,4.868,45.192-5.842,7.328-16.152,7.328-16.152l.868,1.973a16.613,16.613,0,0,1-.136,3.371c-2.081,13.934-16.655,33.841-37.473,33.841S3866.51,8998.631,3867.55,8986.477Z" transform="translate(-3865.996 -8957.642)"/><path class="d" d="M-3355.13-6939.682c-19.027-4.157,0,16,10.207,17.264s16.507,20.792,8.568,22.3-16.254,27.343-8.568,25.326,16.507-17.261,17.263-27.847S-3336.1-6935.523-3355.13-6939.682Z" transform="translate(3396.999 6941.551)"/><path class="e" d="M-3374.454-6933.065c0-1.778-6.252,4.131-6.825,13.479S-3374.454-6931.286-3374.454-6933.065Z" transform="translate(3386.785 6947.834)"/><path class="d" d="M.429,13.989C-1.951,10.335,5.582.254,22.634,0s5.948,18.523,5.948,18.523S2.809,17.644.429,13.989Z" transform="translate(15.264 41.339) rotate(47)"/></g><g transform="translate(-262.651 -12.008)"><path class="f" d="M808.332-8887.115c-4.046,2.182,1.25,6.451,9.877,6.451s14.459-1.763,11.96-2.784S812.378-8889.3,808.332-8887.115Z" transform="matrix(0.995, -0.105, 0.105, 0.995, 849.55, 9009.856)"/><path class="g" d="M823.026-8898.222s-3.552,11.414,1.772,15.467,12.952,1.43,15.495-4.211-.556-2.226-.556-2.226-6.675,5.4-7.708,4.767a40.885,40.885,0,0,1-5.483-6.037C826.388-8890.938,823.026-8898.222,823.026-8898.222Z" transform="translate(-1481.435 8732.388) rotate(9)"/><path class="b" d="M10.306,1.759C6.5,6.2-5.1,15.591,2.56,25.7s22.989-6.713,22.989-6.713-3.967-5.4-9.045,0c-2.59,2.752-4.058,3.9-5.926,2.668-1.358-.846-3.306-3.9,3.225-9.266C27.133,1.444,14.115-2.684,10.306,1.759Z" transform="translate(718.497 63.184) rotate(-11)"/><path class="b" d="M839.949-8911.678c-1.572-2.454-9.29-7.509-12.135,0s4.681,10.5,7.975,10.043S841.521-8909.224,839.949-8911.678Z" transform="translate(-1476.956 8721.19) rotate(9)"/><path class="b" d="M5.054,0a5.79,5.79,0,0,1,6.112,5.987c0,3.56-2.545,5.384-6.105,5.384S0,9.362,0,5.8,1.493,0,5.054,0Z" transform="translate(734.841 47.911) rotate(-11)"/><path class="h" d="M-99.484,8968.818c-.07-.191-.133-.381-.19-.566a2.61,2.61,0,0,1,2,.338c3.329,1.633,2.826,2.074,5.655-.879,2.352-2.457-.387-5.482-1.372-6.428a5.731,5.731,0,0,1,4.463,3.889c1.219,3.344-.549,5.93-3.9,7.146a6.494,6.494,0,0,1-2.212.439C-97.132,8972.758-98.561,8971.354-99.484,8968.818Z" transform="translate(2237.24 -8789.229) rotate(9)"/><path class="h" d="M2.238,23.3C-2.288,21.1.98,15.383,3.9,8.285,5.978,3.231,5.1.915,4.416,0c3.567.031,6.45,3.371,1.144,12.345-4.3,7.274-1.426,9.479.137,9.809a3.107,3.107,0,0,0,.927.089A4.345,4.345,0,0,1,3.691,23.65,3.3,3.3,0,0,1,2.238,23.3Z" transform="translate(730.85 59.654) rotate(9)"/></g></g></svg>