<svg xmlns="http://www.w3.org/2000/svg" width="215.086" height="215.823" viewBox="0 0 215.086 215.823"><defs><style>.a{fill:#0f426d;}.b{fill:#8baeff;}.c{fill:#dee8ff;}.d{fill:#fff;}</style></defs><g transform="translate(-852.457 -2140.088)"><g transform="translate(852.457 2140.088)"><path class="a" d="M87-20c48.049,0,107,58.951,107,107s-58.951,97-107,97-97-48.951-97-97S38.951-20,87-20Z" transform="translate(10 31.824)"/><path class="a" d="M404.215-7649.637c4.3,13.768,40.013,20.651,54.641,56.792s17.64-8.175-7.314-32.7S399.912-7663.4,404.215-7649.637Z" transform="translate(-255 7661.824)"/><path class="a" d="M473.406-7556.3c-5.788,2.911-7.438,8.829.906,12.517S479.194-7559.215,473.406-7556.3Z" transform="translate(-336.592 7556.607)"/></g><g transform="translate(-1225 -556.094)"><path class="b" d="M1124.058,9537.943c1.537-39.671,33.685-74.347,73.355-75.882,40.925-1.585,70.679,31.432,74.078,71.261l3.388-.115a6.272,6.272,0,0,1,4.769,10.583l-7.479,7.894a4.2,4.2,0,0,1-5.93.159l-9.271-8.784a5.425,5.425,0,0,1,3.544-9.36l3.3-.113a63.891,63.891,0,0,0-65.9-56.375c-33.113,1.285-62.475,28.12-63.758,61.23-1.406,36.325,30.263,66.324,66.281,66.324a63.693,63.693,0,0,0,28.731-6.819,6.317,6.317,0,0,1,5.8,11.224c-10.656,5.4-22.466,5.7-34.532,5.7C1157.285,9614.872,1122.373,9581.458,1124.058,9537.943Z" transform="translate(976.419 -6729.823)"/><path class="c" d="M2216.067,2777.187c0,3.567-1.9,6.459-5.466,6.459a6.459,6.459,0,0,1-6.46-6.459c0-3.568,2.892-5.466,6.46-5.466S2216.067,2773.619,2216.067,2777.187Z" transform="translate(-33.384 -13.799)"/><path class="c" d="M2216.067,2911.893c0,3.568-1.9,6.46-5.466,6.46a6.46,6.46,0,0,1-6.46-6.46c0-3.568,2.892-5.466,6.46-5.466S2216.067,2908.325,2216.067,2911.893Z" transform="translate(-33.384 -55.608)"/><path class="c" d="M2277.954,2851c-3.567,0-6.46-1.9-6.46-5.466a6.46,6.46,0,0,1,6.46-6.46c3.567,0,5.466,2.892,5.466,6.46S2281.521,2851,2277.954,2851Z" transform="translate(-54.288 -34.704)"/><path class="c" d="M2143.247,2851c-3.567,0-6.46-1.9-6.46-5.466a6.46,6.46,0,0,1,6.46-6.46c3.568,0,5.467,2.892,5.467,6.46S2146.815,2851,2143.247,2851Z" transform="translate(-12.48 -34.704)"/></g><path class="d" d="M28.105.33Q27.17.275,25.52.248t-3-.055Q21.175.165,20.02.165q-1.54,0-4.565.11a26.1,26.1,0,0,1-7.1-.5Q4.51-1.21,3.41-4.235a6.508,6.508,0,0,1,.715-5.775q1.045-1.7,7.948-9.213t7.4-8.552a2.905,2.905,0,0,0,.165-1.87A2.921,2.921,0,0,0,16.5-32.23a5.443,5.443,0,0,0-2.667.715,5.2,5.2,0,0,0-2.008,1.925,5.106,5.106,0,0,0-.275.88,2.171,2.171,0,0,0-.082.33q-.028.165-.055.358a2.538,2.538,0,0,0-.027.358l-.275,1.43a4.059,4.059,0,0,1-1.788,2.392,3.494,3.494,0,0,1-2.887.44A3.919,3.919,0,0,1,4.043-25.19a3.754,3.754,0,0,1-.467-2.97,3.065,3.065,0,0,0,.165-.77q.22-1.155.22-1.21a8.918,8.918,0,0,1,1.21-3.41,12.481,12.481,0,0,1,4.9-4.813,13.249,13.249,0,0,1,6.49-1.732,11.186,11.186,0,0,1,6.71,2.282,10.522,10.522,0,0,1,3.9,6.353,10.929,10.929,0,0,1-.715,7.095q-1.21,2.42-11.99,14.3L12.76-8.47a6.133,6.133,0,0,0-.77.935,22.225,22.225,0,0,0,3.135,0q3.245-.11,4.9-.11l8.195.165a3.768,3.768,0,0,1,2.7,1.21,3.785,3.785,0,0,1,1.073,2.778A3.7,3.7,0,0,1,30.8-.77,3.785,3.785,0,0,1,28.105.33ZM50.71,0a3.95,3.95,0,0,1-2.695-1.018A3.577,3.577,0,0,1,46.86-3.85l.055-5.94q-4.95-.055-8.305-.33a9.242,9.242,0,0,1-4.538-1.512,4.041,4.041,0,0,1-1.732-3.492,5.967,5.967,0,0,1,.495-2.475,9.923,9.923,0,0,1,1.6-2.365A93.419,93.419,0,0,0,46.2-36.9q1.65-3.08,4.18-3.08a3.781,3.781,0,0,1,2.613,1.018,3.368,3.368,0,0,1,1.182,2.448q.33,8.47.495,18.975l3.9-.165a3.493,3.493,0,0,1,2.805,1.155,4.014,4.014,0,0,1,.99,2.7,4.014,4.014,0,0,1-.99,2.695,3.493,3.493,0,0,1-2.805,1.155l-3.96.11q0,3.3-.055,6.16A3.586,3.586,0,0,1,53.35-.99,3.942,3.942,0,0,1,50.71,0ZM42.185-17.38a38.3,38.3,0,0,1,4.785-.055q0-4.015-.055-5.83Z" transform="translate(919 2275.912)"/></g></svg>