<svg xmlns="http://www.w3.org/2000/svg" width="215.086" height="215.824" viewBox="0 0 215.086 215.824"><defs><style>.a{fill:#dee8ff;}.b{fill:#ff99c9;}.c{fill:#ae3939;}.d{fill:#ffba00;}</style></defs><g transform="translate(-744.914 -430)"><g transform="translate(-522.339 -1764.177)"><g transform="translate(1267.253 2194.176)"><path class="a" d="M87-20c48.049,0,107,58.951,107,107s-58.951,97-107,97-97-48.951-97-97S38.951-20,87-20Z" transform="translate(10 31.824)"/><path class="a" d="M404.215-7649.637c4.3,13.768,40.013,20.651,54.641,56.792s17.64-8.175-7.314-32.7S399.912-7663.4,404.215-7649.637Z" transform="translate(-255 7661.824)"/><path class="a" d="M473.406-7556.3c-5.788,2.911-7.438,8.829.906,12.517S479.194-7559.215,473.406-7556.3Z" transform="translate(-336.592 7556.607)"/></g></g><g transform="translate(901.578 20.608)"><path class="b" d="M.645,476.536s8.758,9.926,10.8,16.641.729,10.072,5.693,10.072,3.941,11.24,3.8,16.641,1.9,9.78-2.044,10.656-.876-4.087-11.385,7.007S-19.5,554.923-19.5,554.923s-2.773,10.072-10.8,12.116-16.641,0-16.641,0l-4.087-13.576-18.246,1.46s-1.314,4.816-5.693,5.108S-79.5,566.6-79.5,566.6l-22.771-.437s-16.495-27.3-18.394-34.449a56.861,56.861,0,0,1-2.043-11.24s-8.175-5.986-7.737-11.679,9.051-7.59,9.051-7.59-2.628-26.422,28.9-37.077,75.177,2.919,75.177,2.919,8.9-5.4,17.224-4.087a41.5,41.5,0,0,1,13.138,4.087S6.046,478,.645,476.536Z" transform="translate(0 14.736)"/><path class="c" d="M-98.16,466.888s-5.363,6.242,3.5,5.146,18.282-1.532,27.808.329,11.385-.767,4.706-3.175S-91.481,461.742-98.16,466.888Z" transform="translate(21.949 18.033)"/><path class="c" d="M-66.039,472.048s.875-3.648,10.8-4.816,11.094.583,11.094.583-.95,12.919-9.343,13.284S-70.126,476.938-66.039,472.048Z" transform="translate(45.299 19.588)"/><ellipse class="c" cx="4.16" cy="4.051" rx="4.16" ry="4.051" transform="translate(-1.947 513.386)"/><path class="d" d="M-63.959,446.54c6.485,8.025,3.9,20.869-4.127,27.354A18.683,18.683,0,0,1-94.36,471.1c-6.485-8.027-6.314-21.124,1.713-27.609S-70.444,438.513-63.959,446.54Z" transform="translate(22.52 0)"/></g></g></svg>