<svg xmlns="http://www.w3.org/2000/svg" width="215.086" height="215.824" viewBox="0 0 215.086 215.824"><defs><style>.a{fill:#8baeff;}.b{fill:none;}.c{fill:#ebf1ff;}.d{fill:#c9d8fa;}.e{fill:#dee8ff;}.f{fill:#fff;}.g{fill:#b0c3ee;}.h{fill:#ffed00;}.i{fill:#fffacb;}.j{fill:#0f426d;}</style></defs><g transform="translate(-1545.312 -2194.176)"><g transform="translate(1545.312 2194.176)"><path class="a" d="M87-20c48.049,0,107,58.951,107,107s-58.951,97-107,97-97-48.951-97-97S38.951-20,87-20Z" transform="translate(10 31.824)"/><path class="a" d="M404.215-7649.637c4.3,13.768,40.013,20.651,54.641,56.792s17.64-8.175-7.314-32.7S399.912-7663.4,404.215-7649.637Z" transform="translate(-255 7661.824)"/><path class="a" d="M473.406-7556.3c-5.788,2.911-7.438,8.829.906,12.517S479.194-7559.215,473.406-7556.3Z" transform="translate(-336.592 7556.607)"/></g><g transform="translate(570.802 -1193.981)"><g transform="translate(1006.198 3473.766)"><path class="b" d="M1178.832,3572.226a10.3,10.3,0,0,0-7.227,9.832v3.364a15.781,15.781,0,0,0-8.275-13.881l3.227,1.138a16.2,16.2,0,0,0,10.163.2Z" transform="translate(-1119.504 -3544.27)"/><path class="c" d="M1058.3,3547.67v43.655a8.335,8.335,0,0,1-9.854,8.2,8.742,8.742,0,0,1-1.063-.271l-30.736-10.01a10.953,10.953,0,0,1-7.547-9.848l-2.9-55.69a4.284,4.284,0,0,1,3.2-4.376,4.224,4.224,0,0,1,2.574.134l21,7.818,15.039,5.6a15.422,15.422,0,0,1,2,.909A15.781,15.781,0,0,1,1058.3,3547.67Z" transform="translate(-1006.198 -3506.519)"/><path class="d" d="M1104.94,3492.12l-2.9.9-28.218,8.708-2.111.653a16.2,16.2,0,0,1-10.164-.2l-3.227-1.138a15.458,15.458,0,0,0-2-.909l-15.039-5.6-21-7.818a4.224,4.224,0,0,0-2.574-.134l25.149-10.961a22.141,22.141,0,0,1,14.927-1l47.108,13.43A2.125,2.125,0,0,1,1104.94,3492.12Z" transform="translate(-1014.499 -3473.766)"/></g><path class="e" d="M1238.4,3580.041a19.147,19.147,0,0,1-9.059,16.378l-27.71,17.17a5.646,5.646,0,0,1-8.635-4.808v-48.344a10.3,10.3,0,0,1,7.227-9.832l28.218-8.708a7.561,7.561,0,0,1,9.767,6.607,5.7,5.7,0,0,1,.028.58Z" transform="translate(-134.701 -48.882)"/><path class="d" d="M1174.327,3784.7c-7,4.131-15.315,1.754-16.657,1.328a8.335,8.335,0,0,0,9.854-8.2v1.325A5.661,5.661,0,0,0,1174.327,3784.7Z" transform="translate(-109.225 -219.257)"/><path class="f" d="M1176.72,3572.879l2.111-.653a10.3,10.3,0,0,0-7.227,9.832v3.364a15.781,15.781,0,0,0-8.275-13.881l3.227,1.138A16.2,16.2,0,0,0,1176.72,3572.879Z" transform="translate(-113.306 -70.504)"/><path class="g" d="M1329.951,3536.334s-.033.07-.1.2a7.561,7.561,0,0,0-9.767-6.607l2.9-.9a2.125,2.125,0,0,0-.045-4.075C1329.153,3525.507,1329.951,3536.334,1329.951,3536.334Z" transform="translate(-226.336 -36.915)"/></g><path class="h" d="M1678.8,2248.564c0,9.106-21.552,26.256-23.4,42.42s7.409,35.528,28.624,37.211,28.288-22.395,24.415-34.012-19.96-17.163-21.383-31.96S1678.8,2239.458,1678.8,2248.564Z" transform="translate(8 -1.46)"/><path class="i" d="M1677.6,2273.78c-1.988-1.447-9.5,8.546-7.3,19.2s11.322,16.4,17.834,15.272,3.8-3.829-.6-7.129-10.32-6.128-8.617-14.707S1679.584,2275.227,1677.6,2273.78Z" transform="translate(2684.169 4966.012) rotate(-164)"/><path class="j" d="M-79.624,8993.32c-9.418,9.779-18.4,17.473-19.478,15.7-2.555-4.191,6.018-14.77,9.484-18.419.7-.74,2.1-2.585,3.941-5.022-2.551-3.354-4.5-5.984-5.372-6.908-3.466-3.65-12.035-14.228-9.484-18.422,1.135-1.864,11.068,6.8,21.029,17.335,7.407-9.278,16.821-19.58,21.8-17.257,3.855,1.8-4.482,13.576-14.674,25.127,9.521,11,16.916,21.775,13.243,23.49a3.632,3.632,0,0,1-1.571.332C-65.589,9009.277-73.189,9001.216-79.624,8993.32Z" transform="translate(-1483.005 -6103.006) rotate(-21)"/></g></svg>