<svg xmlns="http://www.w3.org/2000/svg" xmlns:xlink="http://www.w3.org/1999/xlink" width="118" height="144" viewBox="0 0 118 144">
  <defs>
    <clipPath id="clip-path">
      <rect width="118" height="144" fill="none"/>
    </clipPath>
    <linearGradient id="linear-gradient" x1="0.5" y1="1" x2="0.5" gradientUnits="objectBoundingBox">
      <stop offset="0" stop-color="#6ea94a"/>
      <stop offset="1" stop-color="#86d342"/>
    </linearGradient>
    <linearGradient id="linear-gradient-2" x1="0.209" y1="0.554" x2="1.841" y2="0.326" gradientUnits="objectBoundingBox">
      <stop offset="0" stop-color="#6ea94a"/>
      <stop offset="1" stop-color="#43d342"/>
    </linearGradient>
  </defs>
  <g id="leaf" clip-path="url(#clip-path)">
    <g id="leaf-2" data-name="leaf" transform="translate(0 0)">
      <path id="Path_16" data-name="Path 16" d="M1872.582,728.01c0,3.677,15.716,3.75,15.716,3.75s0,50.323-52.747,70.79l-36.139-10.379-9.149,22.67h-2.052l8.449-24.436s-15.087-21.024-15.087-44.468c0,0,9.149-19.21,19.819-29.879,0,0,10.067,31.38,15.257,31.38,5.166,0-7.628-35.105-7.628-35.105s12.263-18.8,47.437-26.928c0,0-2.487,13.5,0,15.993,2.51,2.516,8.183-21.218,8.183-21.218s19.385-9.338,34.932-9.338c0,0,.338,25.354-10.453,42.58C1889.118,713.421,1872.582,724.357,1872.582,728.01Z" transform="translate(-1781.572 -670.841)" fill-rule="evenodd" fill="url(#linear-gradient)"/>
      <path id="Path_17" data-name="Path 17" d="M1868.765,728.01c0,3.677,15.716,3.75,15.716,3.75s0,50.323-52.747,70.79l-36.139-10.379s36.6-82.524,100.16-121.33c0,0,.338,25.354-10.453,42.58C1885.3,713.421,1868.765,724.357,1868.765,728.01Z" transform="translate(-1777.755 -670.841)" fill-rule="evenodd" fill="url(#linear-gradient-2)"/>
    </g>
  </g>
</svg>
