<svg xmlns="http://www.w3.org/2000/svg" width="244" height="63.32" viewBox="0 0 244 63.32"><defs><style>.a,.b{fill:#00457c;}.a,.c{fill-rule:evenodd;}.c{fill:#0f426d;opacity:0.5;}</style></defs><path class="a" d="M323.58,89.146h-18.2V64.53h17.868l.616,4.309H313.39v5.539h9.857v4.309H313.39V84.84h10.854Z" transform="translate(-217.924 -46.068)"/><path class="b" d="M197.457,178.88h1.06v1.107h.43a3.769,3.769,0,0,1,1.827.418,2.845,2.845,0,0,1,1.18,1.182,3.622,3.622,0,0,1,.41,1.74,3.568,3.568,0,0,1-.458,1.817,2.969,2.969,0,0,1-1.254,1.2,4.165,4.165,0,0,1-1.882.4h-.252v1.385h-1.06v-1.385h-.286a4.1,4.1,0,0,1-1.879-.4,2.937,2.937,0,0,1-1.243-1.207,3.8,3.8,0,0,1-.034-3.522,2.945,2.945,0,0,1,1.191-1.19,3.726,3.726,0,0,1,1.827-.426h.412Zm0,2h-.349a2.364,2.364,0,0,0-1.764.649,2.419,2.419,0,0,0-.644,1.777,2.5,2.5,0,0,0,.684,1.88,2.648,2.648,0,0,0,1.927.667h.146Zm1.06,4.972h.155a2.625,2.625,0,0,0,1.922-.672,2.5,2.5,0,0,0,.687-1.874,2.433,2.433,0,0,0-.636-1.782,2.37,2.37,0,0,0-1.773-.644h-.355Z" transform="translate(-138.155 -127.702)"/><path class="b" d="M233.388,193.659l-.2-.958h-.052a2.863,2.863,0,0,1-1.005.858,3.081,3.081,0,0,1-1.251.223,2.252,2.252,0,0,1-1.572-.515,1.884,1.884,0,0,1-.573-1.471q0-2.043,3.268-2.14l1.146-.037V189.2a1.7,1.7,0,0,0-.344-1.17,1.39,1.39,0,0,0-1.091-.381,4.474,4.474,0,0,0-1.907.518l-.315-.781a4.8,4.8,0,0,1,1.094-.423,4.713,4.713,0,0,1,1.191-.154,2.575,2.575,0,0,1,1.787.535,2.234,2.234,0,0,1,.573,1.717v4.6Zm-2.308-.718a2.072,2.072,0,0,0,1.5-.524,1.93,1.93,0,0,0,.544-1.465v-.607l-1.022.043a3.717,3.717,0,0,0-1.756.378,1.144,1.144,0,0,0-.538,1.041,1.058,1.058,0,0,0,.335.844,1.4,1.4,0,0,0,.931.289Z" transform="translate(-163.224 -133.363)"/><path class="b" d="M259.179,193.744a2.906,2.906,0,0,1-1.2-.243,2.253,2.253,0,0,1-.914-.747h-.074a9.172,9.172,0,0,1,.074,1.119v2.772H256.04v-9.762h.848l.143.921h.049a2.342,2.342,0,0,1,.916-.8,2.76,2.76,0,0,1,1.2-.246,2.49,2.49,0,0,1,2.071.916,4.03,4.03,0,0,1,.73,2.575,3.975,3.975,0,0,1-.742,2.575,2.5,2.5,0,0,1-2.076.918Zm-.149-6.117a1.808,1.808,0,0,0-1.495.572,2.935,2.935,0,0,0-.473,1.82v.24a3.346,3.346,0,0,0,.473,2.031,1.845,1.845,0,0,0,1.521.612,1.576,1.576,0,0,0,1.369-.707,3.336,3.336,0,0,0,.5-1.948,3.211,3.211,0,0,0-.5-1.934,1.624,1.624,0,0,0-1.389-.687Z" transform="translate(-182.714 -133.325)"/><path class="b" d="M287.661,192.982l.192-.572.263-.724,1.827-4.446h1.3v6.726h-.9V188.4l-.123.358-.367.941-1.718,4.266h-.859l-1.741-4.292a12.667,12.667,0,0,1-.45-1.285v5.565h-.911V187.24h1.249l1.767,4.274A15.205,15.205,0,0,1,287.661,192.982Z" transform="translate(-202.788 -133.67)"/><path class="b" d="M319.568,193.659l-.2-.958h-.049a2.889,2.889,0,0,1-1.008.858,3.07,3.07,0,0,1-1.252.223,2.264,2.264,0,0,1-1.572-.515,1.884,1.884,0,0,1-.573-1.471q0-2.043,3.268-2.14l1.146-.037V189.2a1.715,1.715,0,0,0-.341-1.17,1.4,1.4,0,0,0-1.094-.381,4.474,4.474,0,0,0-1.907.518l-.312-.781a4.832,4.832,0,0,1,1.091-.423,4.713,4.713,0,0,1,1.191-.154,2.569,2.569,0,0,1,1.787.535,2.224,2.224,0,0,1,.573,1.717v4.6Zm-2.308-.718a2.066,2.066,0,0,0,1.5-.524,1.933,1.933,0,0,0,.547-1.465v-.607l-1.022.043a3.731,3.731,0,0,0-1.758.378,1.144,1.144,0,0,0-.538,1.041,1.058,1.058,0,0,0,.335.844A1.4,1.4,0,0,0,317.26,192.941Z" transform="translate(-224.723 -133.363)"/><path class="b" d="M348.851,196.269h-1.022v-2.332H342.27V187.2h1.022v5.859h3.583V187.2H347.9v5.859h.954Z" transform="translate(-244.249 -133.642)"/><path class="b" d="M372.852,193.783a3.106,3.106,0,0,1-2.363-.91,3.536,3.536,0,0,1-.859-2.526,3.856,3.856,0,0,1,.8-2.575,2.665,2.665,0,0,1,2.156-.958,2.55,2.55,0,0,1,2,.833,3.188,3.188,0,0,1,.739,2.2v.647h-4.651a2.67,2.67,0,0,0,.6,1.8,2.075,2.075,0,0,0,1.6.612,5.446,5.446,0,0,0,2.156-.455v.91a5.42,5.42,0,0,1-1.025.338A5.914,5.914,0,0,1,372.852,193.783Zm-.286-6.131a1.679,1.679,0,0,0-1.3.529,2.445,2.445,0,0,0-.573,1.465h3.525a2.245,2.245,0,0,0-.43-1.479,1.519,1.519,0,0,0-1.217-.515Z" transform="translate(-263.774 -133.364)"/><path class="b" d="M402.19,188.891a1.278,1.278,0,0,1-.378,1,2.071,2.071,0,0,1-1.06.458v.054a2.189,2.189,0,0,1,1.257.506,1.43,1.43,0,0,1,.4,1.067,1.7,1.7,0,0,1-.693,1.453,3.4,3.4,0,0,1-2.022.509H396.72V187.2h2.961Q402.19,187.2,402.19,188.891Zm-1,.1a.729.729,0,0,0-.384-.7,2.485,2.485,0,0,0-1.146-.206H397.74v1.9h1.718a2.775,2.775,0,0,0,1.335-.232.827.827,0,0,0,.4-.761Zm.192,2.921a.858.858,0,0,0-.415-.8,2.818,2.818,0,0,0-1.375-.249h-1.853v2.217h1.876q1.764,0,1.764-1.173Z" transform="translate(-283.105 -133.642)"/><path class="b" d="M426.218,188.073h-2.182v5.865h-1.031v-5.865H420.84V187.2h5.378Z" transform="translate(-300.318 -133.642)"/><path class="b" d="M445.459,187.171v4.271l-.043,1.107-.017.352,3.649-5.742h1.274V193.9h-.954v-4.12l.02-.813.029-.8-3.643,5.722H444.5v-6.718Z" transform="translate(-317.202 -133.613)"/><path class="b" d="M472.3,187.2v2.458q0,1.182,1.349,1.182a3.345,3.345,0,0,0,1.071-.172,5.409,5.409,0,0,0,1.146-.572v-2.9h1.022v6.738h-1.022v-3.05a4.831,4.831,0,0,1-1.2.624,3.907,3.907,0,0,1-1.246.183,2.241,2.241,0,0,1-1.581-.529,1.847,1.847,0,0,1-.573-1.431V187.2Z" transform="translate(-336.3 -133.642)"/><path class="b" d="M501.519,193.783a3.1,3.1,0,0,1-2.36-.91,3.536,3.536,0,0,1-.859-2.526,3.856,3.856,0,0,1,.8-2.575,2.665,2.665,0,0,1,2.156-.958,2.55,2.55,0,0,1,2,.833,3.2,3.2,0,0,1,.736,2.2v.647H499.36a2.685,2.685,0,0,0,.6,1.8,2.083,2.083,0,0,0,1.6.612,5.423,5.423,0,0,0,2.154-.455v.91a5.4,5.4,0,0,1-1.022.338A5.945,5.945,0,0,1,501.519,193.783Zm-.286-6.131a1.673,1.673,0,0,0-1.3.529,2.445,2.445,0,0,0-.573,1.465h3.528a2.23,2.23,0,0,0-.432-1.479,1.51,1.51,0,0,0-1.214-.515Z" transform="translate(-355.594 -133.364)"/><path class="b" d="M527.15,193.754a2.877,2.877,0,0,1-2.268-.9,3.708,3.708,0,0,1-.8-2.549,3.82,3.82,0,0,1,.813-2.612,2.938,2.938,0,0,1,2.326-.921,4.667,4.667,0,0,1,.971.1,3.334,3.334,0,0,1,.765.246l-.315.858a5.1,5.1,0,0,0-.739-.223,3.243,3.243,0,0,0-.707-.089q-2.053,0-2.056,2.618a3.128,3.128,0,0,0,.5,1.905,1.745,1.745,0,0,0,1.486.664,4.563,4.563,0,0,0,1.718-.36v.924a3.709,3.709,0,0,1-1.693.338Z" transform="translate(-373.991 -133.335)"/><path class="b" d="M551.365,187.2h1.123l-2.913,3.25,3.15,3.488h-1.194l-3.079-3.413v3.413H547.43V187.2h1.022v3.276Z" transform="translate(-390.654 -133.642)"/><path class="b" d="M574.266,193.659l-.2-.958h-.046a2.909,2.909,0,0,1-1.005.858,3.1,3.1,0,0,1-1.254.223,2.264,2.264,0,0,1-1.572-.515,1.893,1.893,0,0,1-.573-1.471q0-2.043,3.271-2.14l1.146-.037V189.2a1.715,1.715,0,0,0-.341-1.17,1.4,1.4,0,0,0-1.091-.381,4.477,4.477,0,0,0-1.91.518l-.312-.781a4.832,4.832,0,0,1,1.091-.423,4.713,4.713,0,0,1,1.191-.154,2.569,2.569,0,0,1,1.787.535,2.224,2.224,0,0,1,.573,1.717v4.6Zm-2.308-.718a2.08,2.08,0,0,0,1.5-.524,1.941,1.941,0,0,0,.544-1.465v-.607l-1.022.043a3.731,3.731,0,0,0-1.758.378,1.144,1.144,0,0,0-.538,1.041,1.058,1.058,0,0,0,.335.844A1.407,1.407,0,0,0,571.957,192.941Z" transform="translate(-406.481 -133.363)"/><path class="b" d="M595.188,193.924H594l1.939-2.847a2.088,2.088,0,0,1-1.2-.667,1.867,1.867,0,0,1-.415-1.245,1.81,1.81,0,0,1,.621-1.453,2.579,2.579,0,0,1,1.735-.526h3v6.738h-1.02v-2.692h-1.718Zm.129-4.746c0,.778.573,1.167,1.7,1.167h1.644v-2.289h-1.853Q595.317,188.071,595.317,189.178Z" transform="translate(-423.887 -133.628)"/><path class="b" d="M640.718,187.2h1.12l-2.913,3.25,3.15,3.488h-1.194l-3.079-3.413v3.413H636.78V187.2H637.8v3.276Z" transform="translate(-454.416 -133.642)"/><path class="b" d="M665.639,190.272a3.723,3.723,0,0,1-.831,2.575,2.937,2.937,0,0,1-2.291.924,3.05,3.05,0,0,1-1.607-.423,2.81,2.81,0,0,1-1.083-1.219,4.233,4.233,0,0,1-.381-1.857,3.739,3.739,0,0,1,.825-2.575,2.917,2.917,0,0,1,2.291-.918,2.865,2.865,0,0,1,2.251.938A3.734,3.734,0,0,1,665.639,190.272Zm-5.138,0a3.2,3.2,0,0,0,.516,1.968,2.056,2.056,0,0,0,3.044,0,3.162,3.162,0,0,0,.518-1.971,3.121,3.121,0,0,0-.518-1.951,1.822,1.822,0,0,0-1.535-.667,1.794,1.794,0,0,0-1.515.658A3.128,3.128,0,0,0,660.5,190.272Z" transform="translate(-470.591 -133.338)"/><path class="b" d="M691.028,192.982l.192-.572.263-.724,1.83-4.446h1.3v6.726h-.9V188.4l-.123.358-.358.941-1.741,4.266h-.859l-1.744-4.292a12.689,12.689,0,0,1-.45-1.285v5.565h-.911V187.24h1.251l1.764,4.274A14.445,14.445,0,0,1,691.028,192.982Z" transform="translate(-490.625 -133.67)"/><path class="b" d="M722.017,193.938H721V187.2h5.662v6.738h-1.034v-5.854H722.02Z" transform="translate(-514.516 -133.642)"/><path class="b" d="M750.538,193.659l-.2-.958h-.049a2.889,2.889,0,0,1-1.008.858,3.07,3.07,0,0,1-1.252.223,2.264,2.264,0,0,1-1.572-.515,1.884,1.884,0,0,1-.573-1.471q0-2.043,3.268-2.14l1.146-.037V189.2a1.715,1.715,0,0,0-.341-1.17,1.4,1.4,0,0,0-1.094-.381,4.474,4.474,0,0,0-1.907.518l-.312-.781a4.832,4.832,0,0,1,1.091-.423,4.713,4.713,0,0,1,1.191-.154,2.562,2.562,0,0,1,1.787.535,2.224,2.224,0,0,1,.573,1.717v4.6Zm-2.308-.718a2.072,2.072,0,0,0,1.5-.524,1.93,1.93,0,0,0,.544-1.465v-.607l-1.019.043a3.731,3.731,0,0,0-1.758.378,1.144,1.144,0,0,0-.538,1.041,1.058,1.058,0,0,0,.335.844A1.4,1.4,0,0,0,748.23,192.941Z" transform="translate(-532.27 -133.363)"/><path class="b" d="M774.255,187.2v2.821h3.777V187.2h1.02v6.738h-1.02V190.9h-3.78v3.038H773.23V187.2Z" transform="translate(-551.789 -133.642)"/><path class="b" d="M803.2,187.2v4.271l-.043,1.119-.017.352,3.649-5.742h1.274v6.738h-.954v-4.12l.017-.813.031-.8-3.643,5.722H802.24V187.2Z" transform="translate(-572.491 -133.642)"/><path class="b" d="M829.444,193.924H828.25l1.933-2.847a2.088,2.088,0,0,1-1.2-.667,1.867,1.867,0,0,1-.415-1.245,1.81,1.81,0,0,1,.621-1.453,2.579,2.579,0,0,1,1.735-.526h3.007v6.738h-1.02v-2.692H831.2Zm.129-4.746c0,.778.573,1.167,1.7,1.167h1.644v-2.289h-1.853Q829.573,188.071,829.573,189.178Z" transform="translate(-591.052 -133.628)"/><path class="a" d="M410.422,64.53h-10.8v24.6h8.019V80.658l1.9-.017c.879,0,2.6-.074,3.382-.152,5.848-.572,8.878-3.307,8.878-7.945C421.8,67.554,418.544,64.53,410.422,64.53Zm-1.956,12.64h-.839v-8.9h2.1a4.242,4.242,0,0,1,4.064,4.292C413.787,75.6,411.224,77.17,408.466,77.17Z" transform="translate(-285.175 -46.068)"/><path class="a" d="M699.671,89.146,689.8,76.337l10.47-11.807h-7.744l-9.488,10.323V64.53H675.03V89.146h8.007V78.715L690.8,89.146Z" transform="translate(-481.712 -46.068)"/><path class="a" d="M211.639,76.1v-.192a5.8,5.8,0,0,0,5.052-5.636c0-4.005-3.689-5.722-9.141-5.722H193.6V89.169h14.528c6.014,0,9.5-2.515,9.5-6.818C217.625,78.231,214.423,76.432,211.639,76.1Zm-10.023-7.816h2.95c2.317,0,3.826,1.259,3.826,3.242,0,2.12-1.887,3.53-4.413,3.53h-2.363Zm3.21,17.192h-3.219v-7.35h3.021c2.431,0,4.37,1.322,4.37,3.53a3.871,3.871,0,0,1-4.181,3.819Z" transform="translate(-138.156 -46.082)"/><path class="a" d="M506.958,64.53l.69,4.312h-7.813V89.286h-8.368V68.842H484.01l.659-4.312Z" transform="translate(-345.397 -46.068)"/><path class="a" d="M601.617,89.146h-18.2V64.53h17.865l.616,4.309H591.427v5.539h9.857v4.309h-9.857V84.84h10.854Z" transform="translate(-416.337 -46.068)"/><path class="a" d="M0,113.707c11.9,0,22.584-2.352,29.919-6.157,6.3,3.267,10.124,7.57,10.124,12.3,0,10.208-17.928,18.485-40.042,18.485Z" transform="translate(0 -76.78)"/><path class="c" d="M0,0C21.23.223,38.258,7.9,38.258,17.349c0,4.712-4.238,8.986-11.123,12.114C20,26.427,10.47,24.6,0,24.6Z"/><path class="a" d="M788.849,81.726a9.487,9.487,0,0,1-6.114,2.415c-4.009,0-6.71-2.666-6.71-8.835,0-6.246,2.709-8.912,6.71-8.912a9.4,9.4,0,0,1,6,2.4l2.9-3.316a15.051,15.051,0,0,0-9.494-3.1c-8.64,0-14.732,5.05-14.732,12.932s6.091,12.917,14.732,12.917a14.9,14.9,0,0,0,9.342-2.958Z" transform="translate(-547.635 -44.533)"/></svg>