<svg xmlns="http://www.w3.org/2000/svg" width="97.231" height="182.463" viewBox="0 0 97.231 182.463"><defs><style>.a{fill:#0a1233;}.b{fill:#eeedf0;}.c{fill:#ffbc0f;}.d{fill:#dfdfde;}</style></defs><g transform="translate(-295.511 -466.383)"><path class="a" d="M295.511,557.615V466.383c50.048,0,97.231,41.183,97.231,91.232s-47.183,91.231-97.231,91.231Z"/><path class="b" d="M295.511,573.536V531.915c21.172,0,41.622,20.45,41.622,41.622s-20.45,38.593-41.622,38.593Z" transform="translate(0 -15.921)"/><path class="c" d="M321.161,499.048s4.768-6.958,5.8-4.381-.774,3.865,1.159,5.025a31.654,31.654,0,0,1,3.738,2.706s-.644,3.479-3.738,2.448.516,4.768-1.03,4.9-3.866-4.252-3.866-4.252-2.834,3.608-4.767,2.061,2.577-2.964,1.8-4.381-5.412-2.191-4.768-3.608S321.161,499.048,321.161,499.048Z" transform="translate(-4.839 -6.733)"/><path class="c" d="M376.739,564.763s3.327-.41,2.831.575-1.355.787-1.192,1.668a12.538,12.538,0,0,1,.177,1.826s-1.206.723-1.712-.469-1.285,1.408-1.731.981.25-2.271.25-2.271-1.821.1-1.868-.878,1.561-.011,1.78-.615-.771-2.189-.179-2.37S376.739,564.763,376.739,564.763Z" transform="translate(-18.946 -23.521)"/><path class="c" d="M374.107,529.015s3.328-.41,2.831.575-1.355.787-1.192,1.668a12.662,12.662,0,0,1,.177,1.826s-1.207.723-1.713-.469-1.285,1.408-1.73.981.25-2.271.25-2.271-1.821.105-1.869-.878,1.562-.011,1.781-.615-.771-2.189-.179-2.37S374.107,529.015,374.107,529.015Z" transform="translate(-18.306 -14.836)"/><path class="c" d="M381.649,628.413s.846,5.635-.851,4.835-1.4-2.267-2.886-1.951a21.4,21.4,0,0,1-3.093.382s-1.283-2.017.721-2.931-2.45-2.12-1.744-2.9,3.868.323,3.868.323-.259-3.089,1.409-3.214.089,2.652,1.124,3,3.685-1.408,4.018-.411S381.649,628.413,381.649,628.413Z" transform="translate(-19.001 -38.041)"/><path class="c" d="M320.77,660.5s.379,2.526-.382,2.167-.626-1.016-1.294-.874a9.621,9.621,0,0,1-1.387.171s-.575-.9.323-1.313-1.1-.951-.782-1.3,1.734.145,1.734.145-.116-1.385.631-1.441.04,1.189.5,1.343,1.651-.631,1.8-.184S320.77,660.5,320.77,660.5Z" transform="translate(-5.273 -46.567)"/><path class="c" d="M361.418,659.838s-2.115,1.432-2.12.591.647-1,.23-1.545a9.65,9.65,0,0,1-.753-1.176s.567-.909,1.324-.276.384-1.4.834-1.266.617,1.627.617,1.627,1.2-.7,1.572-.052-1.055.55-.994,1.035,1.282,1.217.943,1.545S361.418,659.838,361.418,659.838Z" transform="translate(-15.371 -46.107)"/><path class="d" d="M322.339,558.862a6.063,6.063,0,0,1-5.75,5.8c-2.757,0-4.993-2.6-4.993-5.8s2.236-5.8,4.993-5.8A6.062,6.062,0,0,1,322.339,558.862Z" transform="translate(-3.908 -21.06)"/><path class="d" d="M333.534,567.678a3.5,3.5,0,0,1-1.384,4.508,3.386,3.386,0,0,1-3.112-5.93A3.5,3.5,0,0,1,333.534,567.678Z" transform="translate(-7.797 -24.185)"/><path class="d" d="M312.572,613.049a6.063,6.063,0,0,1-2.4,7.807c-2.442,1.282-5.628.021-7.116-2.815s-.715-6.173,1.727-7.455A6.062,6.062,0,0,1,312.572,613.049Z" transform="translate(-1.65 -34.897)"/><path class="d" d="M310.242,591.13c-3.411-1.162-5-5.55-3.92-8.725a6.541,6.541,0,0,1,12.352,4.209C317.592,589.789,313.653,592.292,310.242,591.13Z" transform="translate(-2.545 -27.212)"/><path class="d" d="M324.944,612.027c-1.008-.344-2.248.621-2.638,1.767a1.943,1.943,0,1,0,3.649,1.243C326.344,613.892,325.951,612.37,324.944,612.027Z" transform="translate(-6.478 -35.368)"/></g></svg>