<svg xmlns="http://www.w3.org/2000/svg" width="66.757" height="70.658" viewBox="0 0 66.757 70.658">
  <g id="Group_12991" data-name="Group 12991" transform="translate(-1309.599 -13.442)">
    <path id="Path_4510" data-name="Path 4510" d="M1270.039,99.991h49.656l-3.993-8.5-45.663,8.5" transform="translate(45.263 -16.438)" fill="#b3c5f0"/>
    <g id="Group_12990" data-name="Group 12990" transform="translate(1309.599 13.442)">
      <g id="Group_12989" data-name="Group 12989">
        <g id="Path_4509" data-name="Path 4509" transform="translate(5 9.364)" fill="#fff">
          <path d="M 1.287346005439758 59.09295272827148 L -2.849824666976929 2.000000715255737 L 51.45268630981445 2.000000715255737 L 47.0227165222168 54.37575149536133 L 1.287346005439758 59.09295272827148 Z" stroke="none"/>
          <path d="M -0.6996574401855469 3.999996185302734 L 3.133094787597656 56.8919677734375 L 45.16946792602539 52.55628967285156 L 49.27638626098633 3.999996185302734 L -0.6996574401855469 3.999996185302734 M -5 -3.814697265625e-06 L 53.62898635864258 -3.814697265625e-06 L 48.8759651184082 56.19521713256836 L -0.5584144592285156 61.2939338684082 L -5 -3.814697265625e-06 Z" stroke="none" fill="#ffba00"/>
        </g>
        <path id="Union_47" data-name="Union 47" d="M.713,30.42V28.05L23.65,26.734l-.573,4.41Zm0-13.408,31.526,2.049v3.685L1.5,23.873Zm0-3.6V11.038L33.476,9.722l-.818,4.409ZM0,0,32.763,2.047V5.733L.818,6.859Z" transform="translate(12.219 23.947)" fill="#b3c5f0"/>
        <path id="Path_4511" data-name="Path 4511" d="M1272.9,36.3l2.866,46.789L1311.3,79.4l3.686-43.1Z" transform="translate(-1264.88 -19.401)" fill="none" stroke="#ffba00" stroke-width="1"/>
        <g id="icons_bg" transform="translate(36.432)">
          <path id="Path_4322" data-name="Path 4322" d="M3.676-20c6.774,0,15.086,8.4,15.086,15.243S10.45,9.062,3.676,9.062-10,2.088-10-4.757-3.1-20,3.676-20Z" transform="translate(10 21.684)" fill="#0f426d"/>
          <path id="Path_4323" data-name="Path 4323" d="M403.82-7654.388c.607,1.962,5.641,2.942,7.7,8.09s2.487-1.165-1.031-4.657S403.213-7656.348,403.82-7654.388Z" transform="translate(-382.782 7656.123)" fill="#0f426d"/>
          <path id="Path_4324" data-name="Path 4324" d="M469.24-7556.563c-.816.415-1.049,1.259.128,1.783S470.056-7556.978,469.24-7556.563Z" transform="translate(-449.95 7556.606)" fill="#0f426d"/>
        </g>
      </g>
      <g id="ic_nav_info" transform="translate(44.459 7.418)">
        <path id="Path_4392" data-name="Path 4392" d="M.433,0s-1.325,4.257.661,5.768A3.884,3.884,0,0,0,6.873,4.2c.948-2.1-.207-.83-.207-.83S4.176,5.382,3.791,5.146A15.247,15.247,0,0,1,1.746,2.894C1.686,2.716.433,0,.433,0Z" transform="translate(1.418 10.278) rotate(9)" fill="#cacaca"/>
        <path id="Path_4387" data-name="Path 4387" d="M3.844.656C2.423,2.313-1.9,5.815.955,9.586s8.574-2.5,8.574-2.5a2.055,2.055,0,0,0-3.374,0c-.966,1.026-1.513,1.453-2.21,1-.507-.316-1.233-1.455,1.2-3.456C10.12.538,5.264-1,3.844.656Z" transform="translate(0 6.884) rotate(-11)" fill="#fff"/>
        <path id="Path_4393" data-name="Path 4393" d="M4.761,1.474c-.586-.915-3.465-2.8-4.526,0S1.981,5.388,3.209,5.22,5.347,2.389,4.761,1.474Z" transform="translate(6.064 0) rotate(9)" fill="#fff"/>
        <path id="Path_4388" data-name="Path 4388" d="M1.885,0a2.16,2.16,0,0,1,2.28,2.233c0,1.328-.949,2.008-2.277,2.008S0,3.491,0,2.164.557,0,1.885,0Z" transform="translate(6.095 1.187) rotate(-11)" fill="#fff"/>
        <path id="Path_4389" data-name="Path 4389" d="M.071,2.81C.045,2.739.021,2.668,0,2.6a.973.973,0,0,1,.745.126C1.987,3.334,1.8,3.5,2.854,2.4,3.731,1.481,2.71.353,2.343,0A2.137,2.137,0,0,1,4.007,1.45,1.989,1.989,0,0,1,2.554,4.116a2.418,2.418,0,0,1-.825.164C.948,4.28.415,3.756.071,2.81Z" transform="translate(6.878 0.524) rotate(9)" fill="#ebebeb"/>
        <path id="Path_4397" data-name="Path 4397" d="M.835,8.69c-1.688-.82-.469-2.953.62-5.6C2.23,1.205,1.9.341,1.647,0c1.33.012,2.406,1.257.427,4.6-1.6,2.713-.532,3.535.051,3.658a1.159,1.159,0,0,0,.346.033,1.62,1.62,0,0,1-1.094.525A1.232,1.232,0,0,1,.835,8.69Z" transform="translate(4.607 5.567) rotate(9)" fill="#ebebeb"/>
      </g>
    </g>
  </g>
</svg>
