<svg xmlns="http://www.w3.org/2000/svg" xmlns:xlink="http://www.w3.org/1999/xlink" width="260.824" height="254.991" viewBox="0 0 260.824 254.991">
  <defs>
    <linearGradient id="linear-gradient" x1="113.193" y1="-10.384" x2="113.794" y2="-11.126" gradientUnits="objectBoundingBox">
      <stop offset="0" stop-color="#fff" stop-opacity="0"/>
      <stop offset="1" stop-color="#e4e9eb"/>
    </linearGradient>
    <clipPath id="clip-path">
      <rect id="Rectangle_3036" data-name="Rectangle 3036" width="155.319" height="99.958" transform="translate(0 2.586) rotate(-0.954)" fill="none"/>
    </clipPath>
    <linearGradient id="linear-gradient-2" x1="113.193" y1="-10.384" x2="113.794" y2="-11.126" gradientUnits="objectBoundingBox">
      <stop offset="0" stop-color="#ddf5f5"/>
      <stop offset="1" stop-color="#c6d9db"/>
    </linearGradient>
    <linearGradient id="linear-gradient-3" x1="124.804" y1="701.51" x2="124.884" y2="702.044" gradientUnits="objectBoundingBox">
      <stop offset="0" stop-color="#faa478"/>
      <stop offset="1" stop-color="#f7694d"/>
    </linearGradient>
    <linearGradient id="linear-gradient-4" x1="343.563" y1="-17.892" x2="343.643" y2="-17.366" xlink:href="#linear-gradient-3"/>
    <radialGradient id="radial-gradient" cx="0.477" cy="0.281" r="0.725" gradientTransform="translate(0.006) scale(0.987 1)" xlink:href="#linear-gradient-3"/>
    <linearGradient id="linear-gradient-5" x1="0.467" y1="0.23" x2="0.545" y2="0.811" xlink:href="#linear-gradient-3"/>
    <linearGradient id="linear-gradient-6" x1="0.495" y1="0.418" x2="0.518" y2="0.946" gradientUnits="objectBoundingBox">
      <stop offset="0" stop-color="#fff" stop-opacity="0.302"/>
      <stop offset="0.991" stop-color="#e4e9eb" stop-opacity="0.8"/>
    </linearGradient>
  </defs>
  <g id="Group_13074" data-name="Group 13074" transform="matrix(0.996, 0.087, -0.087, 0.996, 20.469, 0)">
    <g id="Group_13073" data-name="Group 13073" transform="translate(3.586 82.119)">
      <g id="Group_13072" data-name="Group 13072">
        <path id="Path_4618" data-name="Path 4618" d="M143.7,128.63c5.79-6.632,14.429-17.79,15.535-30.849,0,0-46.087-41.385-69.918-61.016S38.5,19.294,27.417,9.278l2.722-3.119L23.625,0,11.813,13.534,0,27.072l6.984,5.623,2.722-3.119C21.131,39.2,22.646,66.226,45.32,87.184S115.238,148.2,115.238,148.2C128.027,145.335,137.912,135.265,143.7,128.63Z" fill="url(#linear-gradient)"/>
        <g id="Group_13071" data-name="Group 13071" transform="translate(9.17 51.948)">
          <g id="Group_13070" data-name="Group 13070" transform="translate(0 0)" clip-path="url(#clip-path)">
            <path id="Path_4619" data-name="Path 4619" d="M143.7,128.63c5.79-6.632,14.429-17.79,15.535-30.849,0,0-46.087-41.385-69.918-61.016S38.5,19.294,27.417,9.278l2.722-3.119L23.625,0,11.813,13.534,0,27.072l6.984,5.623,2.722-3.119C21.131,39.2,22.646,66.226,45.32,87.184S115.238,148.2,115.238,148.2C128.027,145.335,137.912,135.265,143.7,128.63Z" transform="translate(-9.17 -51.948)" fill="url(#linear-gradient-2)"/>
          </g>
        </g>
      </g>
      <path id="Path_4617" data-name="Path 4617" d="M18.192,56.475a20.163,20.163,0,0,0,21.243-4.383c.943-.9,1.955-1.794,3.025-2.677a51.576,51.576,0,0,1,8.012-5.507,15.1,15.1,0,0,0,7.905-11.4A29.388,29.388,0,0,0,51.3,9.67,27.521,27.521,0,0,0,12.942,6.224c-13.9,11.388-17.4,28.533-6.587,41.625A29.341,29.341,0,0,0,18.192,56.475Z" transform="translate(98.907 39.339)" fill="url(#linear-gradient-3)"/>
      <path id="Path_4621" data-name="Path 4621" d="M33.2.161A20.156,20.156,0,0,0,13.684,9.621c-.694,1.1-1.455,2.216-2.276,3.334A51.839,51.839,0,0,1,4.99,20.261,15.1,15.1,0,0,0,.122,33.256a29.393,29.393,0,0,0,12.461,20.4A27.525,27.525,0,0,0,50.616,47.59C61.3,33.141,60.483,15.663,46.794,5.623A29.338,29.338,0,0,0,33.2.161Z" transform="translate(174.816 41.373)" fill="url(#linear-gradient-4)"/>
      <path id="Path_4622" data-name="Path 4622" d="M21.589,67.016a23.916,23.916,0,0,0,25.2-5.2c1.119-1.064,2.319-2.128,3.592-3.177A61.324,61.324,0,0,1,59.892,52.1a17.913,17.913,0,0,0,9.382-13.531,34.878,34.878,0,0,0-8.4-27.1,32.665,32.665,0,0,0-45.52-4.092C-1.142,20.9-5.285,41.245,7.543,56.78A34.787,34.787,0,0,0,21.589,67.016Z" transform="translate(134.401 11.704)" fill="url(#radial-gradient)"/>
      <path id="Path_4620" data-name="Path 4620" d="M71.921,14.5A26.189,26.189,0,0,0,47.008,1.315c-1.685.118-3.441.179-5.244.179A67.238,67.238,0,0,1,29.178.381a19.625,19.625,0,0,0-17.36,4.886A38.209,38.209,0,0,0,.014,34.006,35.775,35.775,0,0,0,35.6,69.2C58.96,69.3,76.647,55,76.647,32.936A38.084,38.084,0,0,0,71.921,14.5Z" transform="translate(118.228 72.751)" fill="url(#linear-gradient-5)"/>
    </g>
    <path id="Path_4623" data-name="Path 4623" d="M147.818,13.426C130.191-8.608,99.849,3.117,99.849,3.117L0,107.485c12.319,23.647,34.22,48.284,43.8,60.6s70.1,67.812,76.111,66.757,49.809-5.165,62.128-13.377,48.642-47.066,56.669-66.593C251.841,122.92,213.517,95.545,147.818,13.426Zm6.845,57.484c-12.319,15.056-62.959,0-65.18-21.2S106.651,4.323,120.637,10.57C163.256,29.615,166.981,55.854,154.662,70.91Z" transform="translate(0)" fill="url(#linear-gradient-6)"/>
  </g>
</svg>
