<svg xmlns="http://www.w3.org/2000/svg" xmlns:xlink="http://www.w3.org/1999/xlink" width="190.534" height="137.152" viewBox="0 0 190.534 137.152">
  <defs>
    <linearGradient id="linear-gradient" x1="-0.032" y1="0.39" x2="0.227" y2="0.439" gradientUnits="objectBoundingBox">
      <stop offset="0" stop-color="#faa478"/>
      <stop offset="1" stop-color="#f7694d"/>
    </linearGradient>
    <linearGradient id="linear-gradient-2" x1="0.594" y1="1.588" x2="0.441" y2="-0.144" xlink:href="#linear-gradient"/>
    <linearGradient id="linear-gradient-3" x1="0.065" y1="0.776" x2="1.036" y2="0.058" xlink:href="#linear-gradient"/>
    <linearGradient id="linear-gradient-4" x1="0.439" y1="0.23" x2="0.579" y2="0.713" gradientUnits="objectBoundingBox">
      <stop offset="0.316" stop-color="#ffa478"/>
      <stop offset="1" stop-color="#f7694d"/>
    </linearGradient>
    <linearGradient id="linear-gradient-5" y1="0.5" x2="1" y2="0.5" gradientUnits="objectBoundingBox">
      <stop offset="0" stop-color="#ddf5f5"/>
      <stop offset="1" stop-color="#c6d9db"/>
    </linearGradient>
    <linearGradient id="linear-gradient-7" x1="0.392" y1="-0.066" x2="0.514" y2="0.859" xlink:href="#linear-gradient-5"/>
  </defs>
  <g id="Group_13291" data-name="Group 13291" transform="translate(0)">
    <path id="Path_5212" data-name="Path 5212" d="M1827.494,481.092c4.983,8.3,4.152,20.067,0,24.563-24.907,11.484-142.806,59.294-154.43,66.768-14.945,7.472-37.363-45.665-14.945-51.477S1827.494,481.092,1827.494,481.092Z" transform="translate(-1648.635 -435.989)" fill="url(#linear-gradient)"/>
    <path id="Path_5213" data-name="Path 5213" d="M1671.448,536.237c-6.9,3.968-24.332-15.129-15.2-23.431C1667.873,511.975,1674.193,528.946,1671.448,536.237Z" transform="translate(-1645.105 -413.736)" fill="url(#linear-gradient-2)"/>
    <path id="Path_5214" data-name="Path 5214" d="M1822.9,481.092c4.983,8.3,4.152,20.067,0,24.563-24.907,11.484-142.806,59.294-154.43,66.768,7.472-12.454-4.983-36.532-13.285-37.363C1678.428,526.076,1822.9,481.092,1822.9,481.092Z" transform="translate(-1644.037 -435.989)" fill="url(#linear-gradient-3)"/>
    <path id="Path_5215" data-name="Path 5215" d="M1808.01,465.485c18.69,4.981,28.026,21.587,27.2,37.361-69.742,37.363-146.958,64.762-159.413,68.084,1.662-18.266-8.3-37.363-21.586-39.023C1691.567,524.434,1777.491,488.732,1808.01,465.485Z" transform="translate(-1644.722 -446.951)" fill="url(#linear-gradient-4)"/>
    <path id="Path_5216" data-name="Path 5216" d="M1722.641,480.02a37.794,37.794,0,0,0,7.512-3.868c22.946,2.6,32.12,33.591,21.3,43.417-3.362,1.389-5.366,2.271-5.366,2.271C1753.1,502,1743.658,480.461,1722.641,480.02Z" transform="translate(-1596.657 -439.459)" fill="url(#linear-gradient-5)"/>
    <path id="Path_5217" data-name="Path 5217" d="M1676.714,498.913c4.734.066,30.361,21.172,19.686,43.19,3.554-1.626,7.341-3.126,7.341-3.126,4.4-18.859-1.248-34.221-20.176-42.523A58.366,58.366,0,0,1,1676.714,498.913Z" transform="translate(-1628.914 -425.199)" fill="url(#linear-gradient-5)"/>
    <path id="Path_5218" data-name="Path 5218" d="M1762.41,491.291s-66.156-39.2-74.328-36.566-11.368,73.587-11.368,73.587l6.85-2.458s-1.375-66.625,6.618-66.315,64.715,35.62,64.715,35.62Z" transform="translate(-1628.914 -454.597)" fill="url(#linear-gradient-7)"/>
  </g>
</svg>
