<svg xmlns="http://www.w3.org/2000/svg" xmlns:xlink="http://www.w3.org/1999/xlink" width="75.047" height="80.527" viewBox="0 0 75.047 80.527"><defs><style>.a{stroke:#fdfdff;stroke-width:2px;fill:url(#a);}.b{fill:#fff;}.c{fill:#f90;}.d{fill:#fcffb1;opacity:0.5;}.e{fill:#fddc59;}.f{fill:rgba(189,113,0,0.5);}.g{fill:#00ade2;}.h{fill:#0f426d;}.i{fill:#ff5e00;}.j{fill:#1f77c9;}.k{fill:#d2e9ff;}.l{filter:url(#b);}</style><linearGradient id="a" x1="0.5" x2="0.5" y2="1" gradientUnits="objectBoundingBox"><stop offset="0" stop-color="#fb0"/><stop offset="1" stop-color="#ffba00"/></linearGradient><filter id="b" x="0" y="0" width="75.047" height="80.527" filterUnits="userSpaceOnUse"><feOffset dx="2" dy="2" input="SourceAlpha"/><feGaussianBlur result="c"/><feFlood flood-color="#0f426d" flood-opacity="0.149"/><feComposite operator="in" in2="c"/><feComposite in="SourceGraphic"/></filter></defs><g transform="translate(-436.845 1.031)"><g transform="translate(437.852)"><g class="l" transform="matrix(1, 0, 0, 1, -1.01, -1.03)"><path class="a" d="M-595.994,123.424s2.178-26.135,28.313-29.4,44.647,23.957,42.469,39.2-17.423,37.024-39.2,37.024S-597.083,136.723-595.994,123.424Z" transform="translate(597.08 -92.72)"/></g><path class="b" d="M6.343.281C6.343-1.3.56,3.961.029,12.291S6.343,1.866,6.343.281Z" transform="matrix(-0.259, 0.966, -0.966, -0.259, 55.953, 10.484)"/><path class="b" d="M3867.554,8988.793s1.636-19.605,19.054-26.977l.3.053s-27.7,30.879-4.279,54.941,38.759,5.324,47.277-6.389,7.665-17.674,7.665-17.674l.908,2.16a18.922,18.922,0,0,1-.143,3.688c-2.176,15.242-17.422,37.021-39.2,37.021S3866.465,9002.092,3867.554,8988.793Z" transform="translate(-3867.479 -8959.122)"/><path class="c" d="M3867.55,8986.477s1.564-17.923,18.214-24.658l.286.047s-26.482,28.227-4.09,50.221,37.05,4.868,45.192-5.842,7.328-16.152,7.328-16.152l.868,1.973a16.613,16.613,0,0,1-.136,3.371c-2.081,13.934-16.655,33.841-37.473,33.841S3866.51,8998.631,3867.55,8986.477Z" transform="translate(-3865.996 -8957.642)"/><path class="d" d="M-3355.13-6939.682c-19.027-4.157,0,16,10.207,17.264s16.507,20.792,8.568,22.3-16.254,27.343-8.568,25.326,16.507-17.261,17.263-27.847S-3336.1-6935.523-3355.13-6939.682Z" transform="translate(3396.999 6941.551)"/><path class="e" d="M-3374.454-6933.065c0-1.778-6.252,4.131-6.825,13.479S-3374.454-6931.286-3374.454-6933.065Z" transform="translate(3386.785 6947.834)"/><path class="d" d="M.429,13.99C-1.951,10.336,5.583.254,22.634,0s5.948,18.523,5.948,18.523S2.81,17.644.429,13.99Z" transform="translate(15.264 41.338) rotate(47)"/></g><g transform="translate(445.915 11.409)"><path class="f" d="M621.27-8891.371l-49.337,15.624-6.754-11.333Z" transform="translate(-560.815 8926.151)"/><path class="g" d="M561.308-8862.3l45.188-7.61,6.183,32.345-48.042,7.61Z" transform="translate(-552.225 8873.533)"/><path class="h" d="M-96.337,8979.664l-1.123-10.906,45.187-7.609,2.237,11.7c-4.986,2.578-13.565,6.465-22.039,7.711a60.221,60.221,0,0,1-8.707.6A86.935,86.935,0,0,1-96.337,8979.664Z" transform="translate(106.543 -8957.525)"/><path class="i" d="M-91.813,8977.23l-1.125-10.907,22.546-3.8,4.137,15.387c-.432.076-.863.147-1.295.211a60.411,60.411,0,0,1-8.709.595A86.816,86.816,0,0,1-91.813,8977.23Z" transform="translate(102.019 -8955.092)"/><path class="j" d="M567.7-8831.875l-8.575-4.555-3.845-29.679,9.2,1.939Z" transform="translate(-555.285 8875.466)"/><path class="k" d="M609.589-8868.689c-.455-.164-10.738-3.623-10.738-3.623l-43.537,9.424,9.5,2.043Z" transform="translate(-555.271 8872.313)"/></g></g></svg>