<svg xmlns="http://www.w3.org/2000/svg" width="67.96" height="63.282" viewBox="0 0 67.96 63.282"><defs><style>.a{fill:#f0d8b3;}.b{fill:#ffba00;}.c{fill:#cacaca;}.d{fill:#fff;}.e{fill:#ebebeb;}</style></defs><g transform="translate(-794.32 -976.958)"><path class="a" d="M-627.929-2583.833c14.694-.944-12.957,8.337-6.3,10.225s7.291,1.469,15.473,0,41.29-2.308,43.3-4.2-4.766-12.588-4.766-12.588S-642.623-2582.889-627.929-2583.833Z" transform="translate(1435.073 3612.584)"/><path class="b" d="M122.076,37.008v9.251a3.908,3.908,0,0,1-3.91,3.91c-54.2,0-3.554-.129-53.739-.129a3.908,3.908,0,0,1-3.91-3.91V36.54a6.49,6.49,0,0,1,2.271-4.947,8.695,8.695,0,0,0,0-13.278,6.49,6.49,0,0,1-2.271-4.947V3.78a3.908,3.908,0,0,1,3.91-3.91c50.443,0-.717.129,53.739.129a3.908,3.908,0,0,1,3.91,3.91V13.5a5.685,5.685,0,0,1-2.475,4.632,8.691,8.691,0,0,0,0,14.248A5.685,5.685,0,0,1,122.076,37.008Z" transform="translate(734.41 994.076) rotate(-8)"/><g transform="translate(3.674 -1.03)"><path class="c" d="M.72,0s-2.2,7.078,1.1,9.591A6.458,6.458,0,0,0,11.427,6.98c1.577-3.5-.345-1.38-.345-1.38S6.943,8.948,6.3,8.555A25.35,25.35,0,0,1,2.9,4.812C2.8,4.516.72,0,.72,0Z" transform="translate(817.497 1009.44) rotate(9)"/><path class="d" d="M6.391,1.091C4.029,3.846-3.16,9.668,1.587,15.939s14.256-4.163,14.256-4.163-2.46-3.346-5.609,0c-1.606,1.706-2.516,2.416-3.675,1.654-.842-.525-2.05-2.419,2-5.746C16.825.9,8.753-1.664,6.391,1.091Z" transform="translate(815.139 1003.796) rotate(-11)"/><path class="d" d="M7.915,2.451C6.94.929,2.155-2.206.391,2.451s2.9,6.508,4.946,6.228S8.89,3.972,7.915,2.451Z" transform="translate(825.221 992.351) rotate(9)"/><path class="d" d="M3.134,0a3.591,3.591,0,0,1,3.79,3.712c0,2.208-1.578,3.338-3.786,3.338S0,5.805,0,3.6.926,0,3.134,0Z" transform="translate(825.274 994.325) rotate(-11)"/><path class="e" d="M.118,4.672C.075,4.554.036,4.436,0,4.321a1.618,1.618,0,0,1,1.239.21C3.3,5.543,2.991,5.817,4.746,3.986,6.2,2.462,4.506.586,3.9,0A3.553,3.553,0,0,1,6.663,2.412c.756,2.073-.34,3.677-2.416,4.431a4.02,4.02,0,0,1-1.371.273C1.576,7.115.69,6.245.118,4.672Z" transform="translate(826.575 993.223) rotate(9)"/><path class="e" d="M1.388,14.448c-2.807-1.363-.78-4.909,1.03-9.31C3.707,2,3.16.568,2.739,0c2.212.019,4,2.091.71,7.655-2.668,4.511-.884,5.878.085,6.083a1.927,1.927,0,0,0,.575.055,2.694,2.694,0,0,1-1.819.872A2.048,2.048,0,0,1,1.388,14.448Z" transform="translate(822.798 1001.606) rotate(9)"/></g></g></svg>