<svg xmlns="http://www.w3.org/2000/svg" width="643.967" height="335.756" viewBox="0 0 643.967 335.756"><defs><style>.a{fill:#f0d8b3;}.b,.h{fill:#fff;}.c{fill:#ffba00;}.d{fill:#ff1818;}.e{fill:#dee8ff;}.f{fill:#0f426d;}.g{fill:none;stroke:#fff;stroke-miterlimit:10;}.h{font-size:34px;font-family:BalsamiqSans-Bold, Balsamiq Sans;font-weight:700;}.i,.j{stroke:none;}.j{fill:#fff;}</style></defs><g transform="translate(-1081.41 -1630.448)"><path class="a" d="M-693-2494.245v7.4s122.466.637,196.466-4.117,65.987-24.41,99.534-14.9,36.717,7.4,77.923,0S-111.137-2517.49-101-2527s-24-63.393-24-63.393Z" transform="translate(1813 4448)"/><g transform="translate(-2315.076 1138.085) rotate(-8)"><g transform="translate(3283 1045)"><path class="b" d="M3428.045,1099.012c0,3.52-3.739,9.2-8.961,13.121-3.4,2.56-7.428,4.379-11.454,4.379-7.815,0-7.091-18.8-6.316-27.606.236-2.712.472-4.48.472-4.48C3403.252,1075.684,3428.045,1093.184,3428.045,1099.012Z" transform="translate(-3202.342 -1019.663)"/><path class="c" d="M3897.788,1231.373v46.589a19.682,19.682,0,0,1-19.69,19.69H3611.229a17.038,17.038,0,0,1-14.856-8.371,18.547,18.547,0,0,0-32.171,0,17.038,17.038,0,0,1-14.856,8.371H3302.69a19.682,19.682,0,0,1-19.69-19.69v-48.29a32.683,32.683,0,0,1,11.437-24.912,43.787,43.787,0,0,0,0-66.869A32.683,32.683,0,0,1,3283,1112.98v-48.29a19.682,19.682,0,0,1,19.69-19.69h248.947a13.461,13.461,0,0,1,12.06,7.411,18.533,18.533,0,0,0,33.182,0,13.461,13.461,0,0,1,12.06-7.411H3878.1a19.682,19.682,0,0,1,19.69,19.69v48.274a28.63,28.63,0,0,1-12.464,23.328,43.771,43.771,0,0,0,0,71.754A28.63,28.63,0,0,1,3897.788,1231.373Zm-312.447-146.791a5.053,5.053,0,1,0-5.053,5.053A5.046,5.046,0,0,0,3585.341,1084.582Zm0,37.056a5.053,5.053,0,1,0-5.053,5.053A5.046,5.046,0,0,0,3585.341,1121.638Zm0,37.056a5.053,5.053,0,1,0-5.053,5.053A5.046,5.046,0,0,0,3585.341,1158.694Zm0,37.056a5.053,5.053,0,1,0-5.053,5.053A5.046,5.046,0,0,0,3585.341,1195.749Zm0,37.056a5.053,5.053,0,1,0-5.053,5.053A5.046,5.046,0,0,0,3585.341,1232.8Zm0,37.056a5.053,5.053,0,1,0-5.053,5.053A5.046,5.046,0,0,0,3585.341,1269.861Zm-77.766-104.918a41.134,41.134,0,0,0,25.669-38.134c0-22.722-18.41-43.069-41.132-43.069-12.851,0-25.568,6.518-34.192,16.288a66.117,66.117,0,0,0-21.644-3.655c-25.046,0-49.806,14.233-64.578,34.714-45.191,7.394-17.736,68.5-19.572,81.354-1.954,13.677,23.446-5.862,23.446,7.815a22.747,22.747,0,0,1-2.139,9.045,6.094,6.094,0,0,0,8.506,7.849c3.891-2.206,7.849-4.531,11.538-6.872a81.537,81.537,0,0,0,42.8,12.633,71.589,71.589,0,0,0,71.585-71.585C3507.861,1169.187,3507.76,1167.048,3507.575,1164.943Z" transform="translate(-3283 -1045)"/><g class="d" transform="translate(-3216.324 -1029.26)"><path class="i" d="M 3425.435546875 1155.217529296875 C 3417.93505859375 1155.217529296875 3410.271484375 1153.333984375 3403.27294921875 1149.770385742188 C 3396.113525390625 1146.136352539063 3389.936279296875 1140.928344726563 3385.4130859375 1134.71142578125 C 3383.070068359375 1131.490966796875 3381.207275390625 1128.044799804688 3379.876953125 1124.46875 C 3378.482421875 1120.72021484375 3377.677734375 1116.838745117188 3377.48486328125 1112.931762695313 C 3377.447998046875 1112.302490234375 3377.43017578125 1111.692993164063 3377.43017578125 1111.06884765625 C 3377.43017578125 1105.880981445313 3378.493408203125 1100.689208984375 3380.590087890625 1095.637573242188 C 3382.56640625 1090.876342773438 3385.3935546875 1086.390502929688 3388.992431640625 1082.304809570313 C 3393.57080078125 1077.118408203125 3399.258544921875 1072.7890625 3405.442626953125 1069.782348632813 C 3408.601806640625 1068.246459960938 3411.8759765625 1067.060180664063 3415.174072265625 1066.256469726563 C 3418.59521484375 1065.422729492188 3422.0478515625 1065 3425.435546875 1065 C 3431.395751953125 1065 3437.204833984375 1066.281372070313 3442.70166015625 1068.808471679688 C 3447.927978515625 1071.211303710938 3452.640869140625 1074.626831054688 3456.70947265625 1078.960205078125 C 3460.728271484375 1083.240356445313 3463.892333984375 1088.1728515625 3466.1142578125 1093.620727539063 C 3468.40576171875 1099.240234375 3469.56787109375 1105.110595703125 3469.56787109375 1111.06884765625 C 3469.56787109375 1120.02685546875 3466.900634765625 1128.652587890625 3461.854248046875 1136.013427734375 C 3459.4228515625 1139.560302734375 3456.4931640625 1142.72900390625 3453.146728515625 1145.431274414063 C 3449.77099609375 1148.1572265625 3446.029052734375 1150.361694335938 3442.0244140625 1151.983154296875 C 3436.74365234375 1154.12890625 3431.161376953125 1155.217529296875 3425.435546875 1155.217529296875 Z M 3418.71484375 1094.627685546875 C 3418.64794921875 1095.161865234375 3418.4658203125 1096.683471679688 3418.28466796875 1098.76416015625 C 3417.97509765625 1102.283447265625 3417.6669921875 1107.49755859375 3417.95703125 1112.36572265625 C 3418.109130859375 1114.92041015625 3418.410888671875 1117.10107421875 3418.853759765625 1118.84716796875 C 3419.40771484375 1121.030883789063 3420.061279296875 1122.075805664063 3420.51171875 1122.567749023438 C 3420.924072265625 1123.017944335938 3421.25 1123.110107421875 3421.6123046875 1123.110107421875 C 3424.598876953125 1123.110107421875 3428.02587890625 1121.768920898438 3431.261962890625 1119.333740234375 C 3433.498291015625 1117.652954101563 3435.542236328125 1115.524291992188 3437.018798828125 1113.339111328125 C 3438.4599609375 1111.205932617188 3438.998046875 1109.549438476563 3439.025634765625 1108.679321289063 C 3438.974365234375 1108.500122070313 3438.62548828125 1107.516479492188 3436.742919921875 1105.515747070313 C 3435.22265625 1103.900146484375 3433.133056640625 1102.095947265625 3430.859375 1100.435668945313 C 3428.502685546875 1098.71484375 3426.107421875 1097.251831054688 3423.9326171875 1096.205078125 C 3420.963623046875 1094.77587890625 3419.419921875 1094.62158203125 3418.89404296875 1094.62158203125 C 3418.82470703125 1094.62158203125 3418.76513671875 1094.6240234375 3418.71484375 1094.627685546875 Z"/><path class="j" d="M 3425.435546875 1152.217529296875 C 3430.90966796875 1152.217529296875 3436.13134765625 1151.139526367188 3440.8984375 1149.202514648438 C 3455.95654296875 1143.105102539063 3466.56787109375 1128.316772460938 3466.56787109375 1111.06884765625 C 3466.56787109375 1088.346923828125 3448.15771484375 1068 3425.435546875 1068 C 3412.58447265625 1068 3399.86767578125 1074.518432617188 3391.24365234375 1084.287841796875 C 3384.64111328125 1091.783081054688 3380.43017578125 1101.198486328125 3380.43017578125 1111.06884765625 C 3380.43017578125 1111.6416015625 3380.44677734375 1112.197387695313 3380.48046875 1112.77001953125 C 3381.20458984375 1127.55859375 3391.32763671875 1140.3427734375 3404.63427734375 1147.097045898438 C 3411.0517578125 1150.36474609375 3418.22705078125 1152.217529296875 3425.435546875 1152.217529296875 M 3418.89404296875 1091.62158203125 C 3425.90625 1091.62158203125 3442.02685546875 1103.910522460938 3442.02685546875 1108.609741210938 C 3442.02685546875 1112.1298828125 3438.28759765625 1117.80615234375 3433.06591796875 1121.730834960938 C 3429.66357421875 1124.291137695313 3425.63818359375 1126.110107421875 3421.6123046875 1126.110107421875 C 3413.796875 1126.110107421875 3414.52099609375 1107.312744140625 3415.2958984375 1098.503662109375 C 3415.5322265625 1095.791870117188 3415.767578125 1094.023193359375 3415.767578125 1094.023193359375 C 3416.051513671875 1092.330200195313 3417.2099609375 1091.62158203125 3418.89404296875 1091.62158203125 M 3425.435546875 1158.217529296875 C 3417.46435546875 1158.217529296875 3409.329833984375 1156.221069335938 3401.911865234375 1152.44384765625 C 3385.787109375 1144.259155273438 3375.276123046875 1129.168212890625 3374.487548828125 1113.0634765625 C 3374.4501953125 1112.431274414063 3374.43017578125 1111.76025390625 3374.43017578125 1111.06884765625 C 3374.43017578125 1100.253662109375 3378.802490234375 1089.334228515625 3386.741455078125 1080.32177734375 C 3396.870361328125 1068.847534179688 3411.333984375 1062 3425.435546875 1062 C 3450.98388671875 1062 3472.56787109375 1084.470825195313 3472.56787109375 1111.06884765625 C 3472.56787109375 1130.376342773438 3461.020751953125 1147.527709960938 3443.150390625 1154.763916015625 C 3437.5126953125 1157.0546875 3431.55029296875 1158.217529296875 3425.435546875 1158.217529296875 Z M 3421.34033203125 1098.279052734375 C 3421.318115234375 1098.517822265625 3421.295654296875 1098.7666015625 3421.273193359375 1099.024536132813 C 3420.2119140625 1111.08984375 3421.314453125 1117.96728515625 3422.41064453125 1120.068359375 C 3424.57275390625 1119.847412109375 3427.041748046875 1118.755004882813 3429.458251953125 1116.936645507813 C 3433.2802734375 1114.063842773438 3435.35791015625 1110.639038085938 3435.891845703125 1109.110107421875 C 3433.873046875 1105.9482421875 3425.970458984375 1100.213623046875 3421.34033203125 1098.279052734375 Z"/></g><path class="b" d="M3462.688,1117.065c.185,2.105.286,4.245.286,6.384a71.589,71.589,0,0,1-71.585,71.585,81.537,81.537,0,0,1-42.8-12.633,82.051,82.051,0,0,0,13.374-10.022c11.723-11.723,46.892-3.908,62.523-7.815,11.959-2.981,6.771-27.674,1.937-49.6a46.13,46.13,0,0,0,20.8,5.12A41,41,0,0,0,3462.688,1117.065Z" transform="translate(-3238.114 -997.123)"/><path class="e" d="M3445.906,1128.978c4.834,21.93,10.022,46.623-1.937,49.6-15.631,3.907-50.8-3.908-62.523,7.815a82.058,82.058,0,0,1-13.374,10.022c-3.689,2.341-7.647,4.666-11.538,6.872a6.094,6.094,0,0,1-8.506-7.849,22.748,22.748,0,0,0,2.139-9.045c0-13.677-25.4,5.861-23.446-7.815,1.835-12.852-25.619-73.96,19.572-81.354a61.315,61.315,0,0,1,9.736-.724c30.941,0,52.08-2.729,65.723-1.853C3422.476,1109.439,3432.6,1122.223,3445.906,1128.978Z" transform="translate(-3257.595 -1011.141)"/><path class="b" d="M3421.882,1079.155c-6.6,7.5-10.813,16.911-10.813,26.781,0,.573.017,1.128.05,1.7-13.643-.876-34.782,1.853-65.723,1.853a61.344,61.344,0,0,0-9.736.724c14.772-20.482,39.532-34.714,64.578-34.714A66.118,66.118,0,0,1,3421.882,1079.155Z" transform="translate(-3246.962 -1024.127)"/><path class="e" d="M579.33,194.58a25.374,25.374,0,0,0-16.58-.64c-10.01,2.83-16.62,9.98-22.34,18.09-1.45,2.05-4.42,4.47-2.93,6.88,1.57,2.52,5.27,2.06,7.08,2.12,17.1-.4,28.34-8.34,36.27-21.74C582.24,196.91,582.29,195.73,579.33,194.58Zm-5.5,7.7c-7.8,10.02-15.55,14.08-28.92,14.66,5.43-4.51,10.76-7.04,15.89-9.87,1.3-.73,2.69-1.29,3.95-2.08.6-.38,1.69-.81,1.15-1.83-.58-1.08-1.58-.98-2.57-.44q-7.155,3.87-14.34,7.72c-.69.37-1.41.71-2.33,1.18,4.34-8.62,15.53-15.28,24.59-14.8,1.66.08,3.72-.02,4.58,1.38C576.93,200,574.78,201.05,573.83,202.28Z" transform="translate(-451.034 -66.961) rotate(8)"/><path class="e" d="M628.18,100.74c-5.78-.02-8.53,2.73-8.53,8.53.01,5.33,3.45,8.91,8.55,8.88a9.044,9.044,0,0,0,8.86-8.79C637.1,104.42,633.32,100.75,628.18,100.74Zm-.2,13.72c-2.63-.9-5.11-2-4.89-5.25.22-3.19,2.25-5.14,5.43-5.01,3.12.12,4.69,2.56,4.64,5.33C633.1,112.48,630.9,114.02,627.98,114.46Z" transform="translate(-371.797 -28.464) rotate(8)"/><path class="e" d="M461.16,259.39c.12-10.77-.17-11.72-9.03-5.61-.14.09-.31.14-.45.22-8.91,5.25-8.94,5.3-.06,10.46,2.77,1.6,6.03,4.87,8.67,3.34C462.9,266.29,460.73,261.91,461.16,259.39Zm-3.62,2.92c-2.144,1.482-3.642-.808-5.743-1.937a1.347,1.347,0,0,1-.355-2.134c1.85-1.887,3.628-3.121,5.558-2.239C458.85,256.83,458.76,261.47,457.54,262.31Z" transform="translate(-363.214 -256.584) rotate(8)"/><path class="f" d="M1880.5,9000.4c-6.068-5.675-6-13.859.214-20.388,4.386-4.608,9.935-7.524,15.64-10.056,14.143-6.27,28.877-10.214,44.484-9.949,5.93.1,11.249,1.883,14.689,7.264,4.107,6.424,1.6,14.219-3.327,19.566-4.666,5.064-10.9,7.63-17.118,10.094a138.051,138.051,0,0,1-28.713,7.49c-3.194.524-6.4.371-9.576.629-1.042.1-2.072.151-3.086.151C1888.832,9005.205,1884.317,9003.968,1880.5,9000.4Zm29.2-32.134c-9.177,3.1-18.316,6.536-25.622,13.012-7.135,6.315-6.224,14.282,1.89,18.908,3.135,1.784,6.721,2.056,10.323,1.823,6.476-.7,12.957-1.153,19.361-2.691a4.12,4.12,0,0,0,3.6-3.843,31.69,31.69,0,0,0-6.841-25.9c-.509-.636-1.044-1.438-2.01-1.438A2.155,2.155,0,0,0,1909.7,8968.27Zm29.019-5.129c-8.014.086-14.815,1.571-21.617,3.073-2.17.479-2.184,1.262-1.032,2.865,5.544,7.729,8.279,16.225,6.5,25.749-.507,2.684.565,2.784,2.515,2.106,3.847-1.338,7.773-2.5,11.48-4.142,5.179-2.286,10.284-4.719,14.043-9.265,5.058-6.119,4.726-13.966-1.151-17.844a16.4,16.4,0,0,0-8.992-2.64A16.023,16.023,0,0,0,1938.721,8963.141Zm-53.483,24.006c-1.632-1.16-.367-2.187.332-2.983a29.151,29.151,0,0,1,10.1-7.045c1.677-.763,3.147-2.128,5.438-2.114a1.309,1.309,0,0,1,1.484,1.08,1.841,1.841,0,0,1-1.258,2.089c-2.157,1.08-4.5,1.849-6.536,3.108a64.249,64.249,0,0,0-6.835,5.117c-.617.511-1.117,1.1-1.784,1.1A1.634,1.634,0,0,1,1885.238,8987.146Zm35.832-18.008c.014-.782.339-1.777,1.5-1.771s1.583.9,1.983,1.8c-.379.914-.679,1.882-1.884,1.923h-.079C1921.313,8971.1,1921.051,8970.027,1921.07,8969.139Zm7.927.443c-.759-.025-1.677-.391-1.564-1.624.086-1.013.846-1.14,1.525-1.485.725.385,1.6.618,1.564,1.738a1.45,1.45,0,0,1-1.495,1.371Zm12.526-.391a1.694,1.694,0,0,1-1.757-1.87,1.822,1.822,0,0,1,1.977-1.75,1.841,1.841,0,0,1,1.757,1.95,1.721,1.721,0,0,1-1.8,1.676C1941.644,8969.2,1941.584,8969.2,1941.523,8969.191Zm-8.006-1.438c-.193-1.226.519-1.816,1.65-2.167a1.878,1.878,0,0,1,1.837,1.861,1.561,1.561,0,0,1-1.6,1.717h-.1A1.583,1.583,0,0,1,1933.517,8967.753Z" transform="matrix(0.848, 0.53, -0.53, 0.848, 3257.637, -8502.584)"/></g><g transform="translate(3575.235 1079.529)"><circle class="g" cx="5.053" cy="5.053" r="5.053"/><circle class="g" cx="5.053" cy="5.053" r="5.053" transform="translate(0 37.056)"/><circle class="g" cx="5.053" cy="5.053" r="5.053" transform="translate(0 74.111)"/><circle class="g" cx="5.053" cy="5.053" r="5.053" transform="translate(0 111.167)"/><circle class="g" cx="5.053" cy="5.053" r="5.053" transform="translate(0 148.223)"/><circle class="g" cx="5.053" cy="5.053" r="5.053" transform="translate(0 185.278)"/></g></g><path class="b" d="M128.072,37.555c-1.958-3.211,4.611-11.314,7.264-14.109.539-.566,1.608-1.982,3.019-3.848-1.954-2.568-3.445-4.585-4.116-5.294-2.653-2.794-9.218-10.9-7.264-14.11.868-1.426,8.478,5.211,16.108,13.279,5.676-7.1,12.888-15,16.7-13.218,2.955,1.379-3.433,10.4-11.24,19.247,7.292,8.43,12.956,16.683,10.142,17.994a2.817,2.817,0,0,1-1.2.252c-3.743,0-9.563-6.174-14.492-12.224-6.515,6.764-12.757,12.226-14.516,12.226A.435.435,0,0,1,128.072,37.555Zm-37.45,0c-1.958-3.211,4.607-11.314,7.264-14.109.539-.566,1.6-1.982,3.019-3.848-1.954-2.568-3.445-4.585-4.116-5.294-2.653-2.794-9.218-10.9-7.264-14.11C90.393-1.232,98,5.4,105.633,13.473c5.676-7.1,12.884-15,16.7-13.218,2.951,1.379-3.433,10.4-11.24,19.247,7.292,8.43,12.956,16.683,10.142,17.994a2.817,2.817,0,0,1-1.2.252c-3.743,0-9.563-6.174-14.5-12.224C99.029,32.288,92.787,37.75,91.029,37.75A.435.435,0,0,1,90.622,37.555Zm-51.72,0c-1.954-3.211,4.611-11.314,7.268-14.109.539-.566,1.6-1.982,3.019-3.848-1.954-2.568-3.445-4.585-4.116-5.294-2.653-2.794-9.218-10.9-7.264-14.11.868-1.426,8.478,5.211,16.108,13.279,5.672-7.1,12.884-15,16.7-13.218,2.955,1.379-3.433,10.4-11.24,19.247,7.3,8.43,12.96,16.683,10.146,17.994a2.822,2.822,0,0,1-1.206.252c-3.739,0-9.563-6.174-14.492-12.224C47.309,32.288,41.066,37.75,39.308,37.75A.435.435,0,0,1,38.9,37.555Zm-37.45,0C-.505,34.344,6.063,26.24,8.716,23.445c.539-.566,1.608-1.982,3.019-3.848C9.782,17.029,8.294,15.013,7.623,14.3,4.966,11.51-1.6,3.406.359.193,1.227-1.232,8.837,5.4,16.467,13.473c5.672-7.1,12.884-15,16.7-13.218,2.955,1.379-3.433,10.4-11.24,19.247,7.292,8.43,12.96,16.683,10.146,17.994a2.848,2.848,0,0,1-1.206.252c-3.743,0-9.563-6.174-14.492-12.224C9.86,32.288,3.617,37.75,1.859,37.75A.435.435,0,0,1,1.452,37.555Zm69.9-18.68c.257-3.764,13.7-3.478,19.384,0,2.9,1.771-2.265,2.714-7.988,2.714C77.248,21.589,71.229,20.718,71.355,18.875Z" transform="translate(1465.225 1791.539) rotate(-8)"/><text class="h" transform="translate(1533.977 1763.717) rotate(-8)"><tspan x="-62.628" y="0">ПРОМО</tspan></text></g></svg>