<svg xmlns="http://www.w3.org/2000/svg" width="98.5" height="98.824" viewBox="0 0 98.5 98.824"><defs><style>.a{fill:#5fbe5f;}.b{fill:#fff;}</style></defs><g transform="translate(0 0)"><path class="a" d="M34.235-20c21.912,0,48.8,26.993,48.8,48.994S56.147,73.41,34.235,73.41-10,51-10,28.994,12.323-20,34.235-20Z" transform="translate(10 25.414)"/><path class="a" d="M403.964-7652.64c1.962,6.3,18.247,9.456,24.918,26s8.044-3.743-3.336-14.973S402-7658.944,403.964-7652.64Z" transform="translate(-335.504 7658.22)"/><path class="a" d="M470.768-7556.468c-2.64,1.333-3.392,4.043.413,5.731S473.407-7557.8,470.768-7556.468Z" transform="translate(-407.962 7556.606)"/><g transform="translate(28 37.836)"><path class="b" d="M-3386.2-7982.827c-2.919,5.137,6.247,18.428,15.517,15.379s25.524-26.685,20.718-29.833-18.066,20.552-22.375,21.381C-3379.471-7973.746-3383.284-7987.964-3386.2-7982.827Z" transform="translate(3386.756 7997.569)"/></g></g></svg>