<svg id="reward" xmlns="http://www.w3.org/2000/svg" xmlns:xlink="http://www.w3.org/1999/xlink" width="267.801" height="217.327" viewBox="0 0 267.801 217.327">
  <defs>
    <linearGradient id="linear-gradient" x1="0.5" x2="0.5" y2="1" gradientUnits="objectBoundingBox">
      <stop offset="0" stop-color="#dee8ff"/>
      <stop offset="1" stop-color="#fff"/>
    </linearGradient>
  </defs>
  <g id="bg" transform="translate(-634.634 -345.479)">
    <g id="icons_bg" transform="translate(683.923 372.646)">
      <path id="Path_4322" data-name="Path 4322" d="M69.553-20c39.406,0,87.754,48.348,87.754,87.754s-48.348,79.553-87.754,79.553S-10,107.16-10,67.754,30.146-20,69.553-20Z" transform="translate(10 29.697)" fill="#8baeff"/>
      <path id="Path_4323" data-name="Path 4323" d="M404.132-7650.633c3.529,11.292,32.816,16.937,44.813,46.577s14.467-6.7-6-26.817S400.6-7661.924,404.132-7650.633Z" transform="translate(-281.756 7660.628)" fill="#8baeff"/>
      <path id="Path_4324" data-name="Path 4324" d="M472.534-7556.358c-4.747,2.388-6.1,7.241.743,10.266S477.281-7558.746,472.534-7556.358Z" transform="translate(-360.328 7556.607)" fill="#8baeff"/>
    </g>
    <path id="Polygon_23" data-name="Polygon 23" d="M21.363,24.492a8,8,0,0,1,15.275,0L54.763,82.618A8,8,0,0,1,47.125,93H10.875A8,8,0,0,1,3.237,82.618Z" transform="translate(735.893 454.081) rotate(43)" opacity="0.5" fill="url(#linear-gradient)"/>
    <path id="Polygon_26" data-name="Polygon 26" d="M21.248,30.392c2.048-8.03,13.455-8.03,15.5,0l18.7,73.328A8,8,0,0,1,47.7,113.7H10.3a8,8,0,0,1-7.752-9.977Z" transform="translate(748.05 493.335) rotate(-67)" opacity="0.5" fill="url(#linear-gradient)"/>
    <path id="Polygon_24" data-name="Polygon 24" d="M15.546,25.782a4,4,0,0,1,7.908,0l14.84,96.766a4,4,0,0,1-3.954,4.606H4.66a4,4,0,0,1-3.954-4.606Z" transform="matrix(0.225, 0.974, -0.974, 0.225, 758.53, 451.21)" opacity="0.5" fill="url(#linear-gradient)"/>
    <path id="Polygon_25" data-name="Polygon 25" d="M15.563,22.01a4,4,0,0,1,7.875,0L38.158,104.3a4,4,0,0,1-3.937,4.7H4.779a4,4,0,0,1-3.937-4.7Z" transform="translate(795.438 470.669) rotate(-101)" opacity="0.5" fill="url(#linear-gradient)"/>
    <path id="Polygon_27" data-name="Polygon 27" d="M5.435,20.181a1,1,0,0,1,2,0l5.383,108.769a1,1,0,0,1-1,1.049H1.051a1,1,0,0,1-1-1.049Z" transform="translate(785.848 464.219) rotate(-120)" fill="#fff" opacity="0.5"/>
    <path id="Polygon_28" data-name="Polygon 28" d="M5.435,16.527a1,1,0,0,1,2,0L12.8,105.463a1,1,0,0,1-1,1.06H1.062a1,1,0,0,1-1-1.06Z" transform="translate(762.068 457.785) rotate(90)" fill="#fff" opacity="0.5"/>
    <path id="ic_circle" d="M628.18,100.74c-5.78-.02-8.53,2.73-8.53,8.53.01,5.33,3.45,8.91,8.55,8.88a9.044,9.044,0,0,0,8.86-8.79C637.1,104.42,633.32,100.75,628.18,100.74Zm-.2,13.72c-2.63-.9-5.11-2-4.89-5.25.22-3.19,2.25-5.14,5.43-5.01,3.12.12,4.69,2.56,4.64,5.33C633.1,112.48,630.9,114.02,627.98,114.46Z" transform="translate(201.862 444.656)" fill="#ffba00"/>
    <path id="ic_triangle" data-name="ic+triangle" d="M461.16,259.39c.12-10.77-.17-11.72-9.03-5.61-.14.09-.31.14-.45.22-8.91,5.25-8.94,5.3-.06,10.46,2.77,1.6,6.03,4.87,8.67,3.34C462.9,266.29,460.73,261.91,461.16,259.39Zm-3.62,2.92c-2.144,1.482-3.642-.808-5.743-1.937a1.347,1.347,0,0,1-.355-2.134c1.85-1.887,3.628-3.121,5.558-2.239C458.85,256.83,458.76,261.47,457.54,262.31Z" transform="translate(193.944 220.656)" fill="#b3c5f0"/>
    <path id="ic_triangle-2" data-name="ic+triangle" d="M461.16,259.39c.12-10.77-.17-11.72-9.03-5.61-.14.09-.31.14-.45.22-8.91,5.25-8.94,5.3-.06,10.46,2.77,1.6,6.03,4.87,8.67,3.34C462.9,266.29,460.73,261.91,461.16,259.39Zm-3.62,2.92c-2.144,1.482-3.642-.808-5.743-1.937a1.347,1.347,0,0,1-.355-2.134c1.85-1.887,3.628-3.121,5.558-2.239C458.85,256.83,458.76,261.47,457.54,262.31Z" transform="translate(938.018 -61.372) rotate(93)" fill="#ffba00"/>
    <path id="ic_med" d="M491.458,583.768c-.9,0-1.807-.069-2.695.015-1.876.178-2.332-.672-2.417-2.463-.44-8.832-.494-8.825-9.164-8.832-.9,0-1.807-.008-2.7-.008-4.648.008-5.868,1.228-5.914,5.937a22.392,22.392,0,0,0,.015,2.695c.232,1.977-.479,2.9-2.556,2.679a25.619,25.619,0,0,0-3.081-.023c-4.478.031-5.381.911-5.52,5.4-.031,1.158,0,2.316,0,3.474,0,8.639,0,8.686,8.616,9.242,1.683.108,2.455.4,2.579,2.347.571,8.856.641,8.848,9.5,8.8.772,0,1.536,0,2.308-.008,4.849-.039,5.891-1.058,5.968-5.837.085-5.219.085-5.219,5.358-5.25,4.617-.023,5.659-1.042,5.721-5.59.008-1.158,0-2.316,0-3.474,0-1.027.008-2.054,0-3.088C497.442,584.524,496.7,583.783,491.458,583.768Zm2.308,6.8a11.422,11.422,0,0,0-.015,1.544c0,5.628,0,5.628-5.775,5.628-5.458,0-5.5.046-5.52,5.675a6.442,6.442,0,0,0,.008,1.158c.595,3.59-.594,5.3-4.493,4.571a27.737,27.737,0,0,0-4.609-.116c-.062-1.884-.031-3.775-.2-5.644-.154-1.753.865-3.9-1.49-5.011-2.671-1.289-5.536-.54-8.307-.672-1.637-.077-2.409-.54-2.146-2.231a2.146,2.146,0,0,0,0-.386c-.239-7.157-.232-7.311,6.871-7.142,3.3.085,4.2-1.189,4.2-4.254.008-7.69.679-8.137,8.446-7.088,1.2.162,1.976.432,1.861,1.807a11.45,11.45,0,0,0,.008,1.15c.224,8.145.224,8.207,8.57,8.446C493.087,588.06,494.122,588.454,493.767,590.569Z" transform="translate(489.336 -291.508) rotate(9)" fill="#b3c5f0"/>
    <path id="ic_circle-2" data-name="ic_circle" d="M628.18,100.74c-5.78-.02-8.53,2.73-8.53,8.53.01,5.33,3.45,8.91,8.55,8.88a9.044,9.044,0,0,0,8.86-8.79C637.1,104.42,633.32,100.75,628.18,100.74Zm-.2,13.72c-2.63-.9-5.11-2-4.89-5.25.22-3.19,2.25-5.14,5.43-5.01,3.12.12,4.69,2.56,4.64,5.33C633.1,112.48,630.9,114.02,627.98,114.46Z" transform="translate(91.862 254.656)" fill="#b3c5f0"/>
  </g>
  <g id="icons" transform="translate(-634.634 -345.479)">
    <g id="Group_13554" data-name="Group 13554" transform="translate(634.634 342.479)">
      <g id="Group_13529" data-name="Group 13529" transform="translate(-3987.19 -3975.703)">
        <g id="Group_13502" data-name="Group 13502" transform="translate(4101.163 4146.655)">
          <path id="Path_5761" data-name="Path 5761" d="M4160.93,4360.821c-1.379,2.385-7.177,11.356-15.191,9.227-3.207-.851-4.033-2.826-3.744-5.043.248,1.333,1.308,2.44,3.744,2.993,7.293,1.657,12.747-4.548,14.713-7.218C4160.611,4360.8,4160.771,4360.81,4160.93,4360.821Z" transform="translate(-4141.941 -4360.78)" fill="#002b5e"/>
        </g>
        <g id="Group_13503" data-name="Group 13503" transform="translate(4101.161 4142.4)">
          <path id="Path_5762" data-name="Path 5762" d="M4160.449,4354.884c-1.966,2.67-7.42,8.875-14.713,7.218-2.435-.553-3.5-1.66-3.743-2.993-.528-2.917,2.859-6.9,4.335-8.479a.423.423,0,0,0,.054.046,7.434,7.434,0,0,0,1.434.927A37.575,37.575,0,0,0,4160.449,4354.884Z" transform="translate(-4141.938 -4350.63)" fill="#00408a"/>
        </g>
        <g id="Group_13504" data-name="Group 13504" transform="translate(4123.76 4146.843)">
          <path id="Path_5763" data-name="Path 5763" d="M4216.033,4368.259c-5.6,4-17.3,2.276-20.183-6.992q1.552.026,3.085-.038h0c2.8,7.529,12.583,8.87,17.324,5.483a3.3,3.3,0,0,0,1.455-2.079A3.551,3.551,0,0,1,4216.033,4368.259Z" transform="translate(-4195.85 -4361.229)" fill="#002b5e"/>
        </g>
        <g id="Group_13505" data-name="Group 13505" transform="translate(4126.849 4142.442)">
          <path id="Path_5764" data-name="Path 5764" d="M4222,4358.535a3.3,3.3,0,0,1-1.455,2.079c-4.741,3.387-14.524,2.045-17.324-5.483a47.23,47.23,0,0,0,9.457-1.333,7.04,7.04,0,0,0,3.588-2.637c.109-.138.218-.285.332-.432C4218.021,4351.8,4222.569,4355.483,4222,4358.535Z" transform="translate(-4203.22 -4350.729)" fill="#00408a"/>
        </g>
        <g id="Group_13506" data-name="Group 13506" transform="translate(4090.221 4112.005)">
          <path id="Path_5765" data-name="Path 5765" d="M4216.173,4285.83c-.5,3.433-3.144,20.112-8.371,27.2-.113.146-.222.293-.331.432a7.045,7.045,0,0,1-3.588,2.637,47.137,47.137,0,0,1-9.457,1.333h0q-1.534.064-3.085.038c-.294,0-.591-.009-.885-.021-1.484-7.4-2.213-21.219-2.372-24.568,8.6.591,16.075-.21,19.248-1.115C4209.529,4291.141,4212.845,4289.07,4216.173,4285.83Z" transform="translate(-4157.799 -4282.598)" fill="#25a9e1"/>
          <path id="Path_5766" data-name="Path 5766" d="M4145.907,4312.824a.778.778,0,0,1-.138-.013c-.159-.012-.318-.025-.478-.042a37.587,37.587,0,0,1-12.635-3.282,7.5,7.5,0,0,1-1.433-.926.512.512,0,0,1-.055-.046c-6.493-5.265-13.057-23.583-15.329-30.395,7.4,6.33,18.07,9.117,27.75,10.073.117,2.545.737,15.116,2.083,23.3q.05.3.1.591l.012.063c.025.168.055.323.088.482v0C4145.882,4312.7,4145.895,4312.761,4145.907,4312.824Z" transform="translate(-4115.84 -4278.12)" fill="#25a9e1"/>
        </g>
        <g id="Group_13507" data-name="Group 13507" transform="translate(4092.02 4051.106)">
          <path id="Path_5767" data-name="Path 5767" d="M4185.945,4137.479s-.356-4.095,3.115-4.582,5.5,2.05,3.471,4.582S4186.453,4139.5,4185.945,4137.479Z" transform="translate(-4158.351 -4132.837)" fill="#fff"/>
          <path id="Path_5768" data-name="Path 5768" d="M4130.748,4168.762a.838.838,0,0,1-.792.872c-.017,0-.05,0-.1,0-.687,0-4.493-.222-7.876-4.909,0,0,0-.008,0-.013a19.683,19.683,0,0,1-1.757-2.976.765.765,0,0,1-.084-.31c.117-.114.239-.222.356-.327.209-.193.419-.374.625-.554a.837.837,0,0,1,.612.461c3.4,7.021,7.964,6.95,8.157,6.95A.831.831,0,0,1,4130.748,4168.762Z" transform="translate(-4120.129 -4148.934)" fill="#fff"/>
          <path id="Path_5769" data-name="Path 5769" d="M4187.505,4163.391c-2.9,4.46-10.375,13.494-23.319,13.494-12.89,0-19.178-9.2-21.517-13.8a42.568,42.568,0,0,0,18.3,6.464C4173.5,4171.079,4181.922,4168.279,4187.505,4163.391Z" transform="translate(-4133.221 -4150.408)" fill="#fff"/>
          <path id="Path_5770" data-name="Path 5770" d="M4231.082,4198.991c-.118.331-.252.666-.4,1a15.786,15.786,0,0,1-2.477,3.885,1.834,1.834,0,0,0-1.828.172s-1.676,2.934-3.772,2.1a3.034,3.034,0,0,1-.281-.126,10.912,10.912,0,0,1-1.043-.562c-.134-.075-.268-.155-.406-.239-.286-.168-.575-.348-.872-.529a11.789,11.789,0,0,0-3.073-1.437c-2.016-2.72-4.456-7.905-.192-13.875.046-.063.087-.125.133-.185.168-.235.336-.465.5-.683a33.538,33.538,0,0,1,5.483-6.137c.264-.213.507-.394.729-.549,1.354-.931,1.958-.83,1.958-.83a24.81,24.81,0,0,1,4.7,6.875c.143.306.277.62.4.943A14.455,14.455,0,0,1,4231.082,4198.991Z" transform="translate(-4174.874 -4160.807)" fill="#fff"/>
        </g>
        <g id="Group_13508" data-name="Group 13508" transform="translate(4131.528 4071.292)">
          <path id="Path_5771" data-name="Path 5771" d="M4231.082,4198.991c-.118.331-.252.666-.4,1a15.786,15.786,0,0,1-2.477,3.885,1.834,1.834,0,0,0-1.828.172s-1.676,2.934-3.772,2.1a3.034,3.034,0,0,1-.281-.126,10.912,10.912,0,0,1-1.043-.562c-.134-.075-.268-.155-.406-.239-.286-.168-.575-.348-.872-.529a11.789,11.789,0,0,0-3.073-1.437c-2.016-2.72-4.456-7.905-.192-13.875.046-.063.087-.125.133-.185.168-.235.336-.465.5-.683a33.538,33.538,0,0,1,5.483-6.137c.264-.213.507-.394.729-.549,1.354-.931,1.958-.83,1.958-.83a24.81,24.81,0,0,1,4.7,6.875c.143.306.277.62.4.943A14.455,14.455,0,0,1,4231.082,4198.991Z" transform="translate(-4214.382 -4180.992)" fill="#5db051"/>
        </g>
        <g id="Group_13509" data-name="Group 13509" transform="translate(4101.468 4063.787)">
          <path id="Path_5772" data-name="Path 5772" d="M4187.505,4163.391c-2.9,4.46-10.375,13.494-23.319,13.494-12.89,0-19.178-9.2-21.517-13.8a42.568,42.568,0,0,0,18.3,6.464C4173.5,4171.079,4181.922,4168.279,4187.505,4163.391Z" transform="translate(-4142.67 -4163.089)" fill="#8b8b8b"/>
        </g>
        <g id="Group_13510" data-name="Group 13510" transform="translate(4089.961 4013.143)">
          <path id="Path_5773" data-name="Path 5773" d="M4170.761,4098.279a10.807,10.807,0,0,1-1.748-.143,12.236,12.236,0,0,1-9.9-11.3,6.822,6.822,0,0,1-1.48.171,5.677,5.677,0,0,1-3.412-1.119,12.61,12.61,0,0,1-1.329,2.963,13.307,13.307,0,0,1-3.287,3.651,12.277,12.277,0,0,1-7.478,2.607,11.915,11.915,0,0,1-1.882-.151,12.509,12.509,0,0,1-8.22-5.315,12.892,12.892,0,0,1-2.268-9.339,11.619,11.619,0,0,1,.5-1.983,23.336,23.336,0,0,1-5.408-2.972,22.7,22.7,0,0,0-2.222,2.025c-1.463,1.723.788,4.242.788,4.242.612,1.233-1.58,3.3-3.534,4.829-.021,2.746-3.345,9.469-4.661,13.276a33.227,33.227,0,0,0,6.652,8.6,35.694,35.694,0,0,0,4.854,3.807,42.582,42.582,0,0,0,18.3,6.464c12.529,1.525,20.954-1.274,26.538-6.162a23.97,23.97,0,0,0,2.415-2.436c4.536-5.261,6.636-12.118,7.411-18.595A11.963,11.963,0,0,1,4170.761,4098.279Zm-19.3,5.81c-2.029,2.532-6.079,2.024-6.585,0,0,0-.356-4.095,3.115-4.582S4153.483,4101.558,4151.458,4104.089Z" transform="translate(-4115.22 -4061.484)" fill="#fde5c7"/>
          <path id="Path_5774" data-name="Path 5774" d="M4192.531,4137.479c-2.029,2.532-6.078,2.025-6.586,0,0,0-.356-4.095,3.115-4.582S4194.555,4134.947,4192.531,4137.479Z" transform="translate(-4156.292 -4094.874)" fill="#fde5c7"/>
          <path id="Path_5775" data-name="Path 5775" d="M4175.305,4076.773a10.121,10.121,0,0,1-.13,1.593c0,.012,0,.021,0,.033a11.037,11.037,0,0,1-2.213,4.947c-.189.247-.39.482-.608.717l0,0a11.605,11.605,0,0,1-1.51,1.387,11.312,11.312,0,0,1-2.305,1.375,10.208,10.208,0,0,1-.96.364h0a9.983,9.983,0,0,1-4.8.395,10.827,10.827,0,0,1-7.118-4.62,11.184,11.184,0,0,1-1.987-8.107,11.377,11.377,0,0,1,4.338-7.088,10.626,10.626,0,0,1,6.464-2.264,9.854,9.854,0,0,1,1.606.13,10.829,10.829,0,0,1,7.118,4.62A11.493,11.493,0,0,1,4175.305,4076.773Z" transform="translate(-4137.474 -4055.769)" fill="#fde5c7"/>
          <path id="Path_5776" data-name="Path 5776" d="M4124.611,4079.148c.612,1.232-1.58,3.3-3.533,4.829,0-.629-.159-1.048-.562-1.182a11.42,11.42,0,0,1-3.236-2.39,77.816,77.816,0,0,1,6.69-9.306,18.644,18.644,0,0,0,2.075,1.782,22.712,22.712,0,0,0-2.222,2.024C4122.36,4076.629,4124.611,4079.148,4124.611,4079.148Z" transform="translate(-4116.417 -4059.016)" fill="#fde5c7"/>
          <path id="Path_5777" data-name="Path 5777" d="M4193.553,4062.782a12.071,12.071,0,0,0-9.008-7.4,10.983,10.983,0,0,0-4.682.256h0a4.647,4.647,0,0,1-1.744.629,12.1,12.1,0,0,0-6.933,9c-.034.2-.059.407-.08.608a4.1,4.1,0,0,1-4.522-1.1,12.964,12.964,0,0,0-2.323-8.975,12.506,12.506,0,0,0-8.22-5.315,12.106,12.106,0,0,0-9.36,2.457,13.313,13.313,0,0,0-3.823,4.628,20.857,20.857,0,0,1-4.829-2.549,16.962,16.962,0,0,1-2.234-1.891v0c.788-.88,1.605-1.74,2.448-2.565,6.589-6.417,14.914-10.769,24.048-6.728,8.4,3.714,12.232,3.232,13.77,1.232a27.482,27.482,0,0,0,4.238,6.334,18.334,18.334,0,0,0,3.425,2.951h0a14.977,14.977,0,0,0,6.979,2.465c.691.063,1.354.1,1.987.117A40.622,40.622,0,0,1,4193.553,4062.782Z" transform="translate(-4127.167 -4042.272)" fill="#fde5c7"/>
          <path id="Path_5778" data-name="Path 5778" d="M4243.835,4089.07c-.88,5.378-6.22,9.348-11.439,8.5a9.519,9.519,0,0,1-2.607-.83,9.892,9.892,0,0,1-1.014-.57,10.5,10.5,0,0,1-2.239-1.937l0,0c-.167-.188-.323-.381-.474-.583l0,0a10.376,10.376,0,0,1-2.163-6.615c0-.146.008-.293.021-.44.021-.251.05-.5.092-.75a10.453,10.453,0,0,1,10.015-8.615,8.61,8.61,0,0,1,1.425.118A10.47,10.47,0,0,1,4243.835,4089.07Z" transform="translate(-4178.335 -4062.57)" fill="#fde5c7"/>
        </g>
        <g id="Group_13511" data-name="Group 13511" transform="translate(4117.878 4035.304)">
          <path id="Path_5779" data-name="Path 5779" d="M4189.386,4100.556c-.188.247-.39.482-.608.716l0,0a11.5,11.5,0,0,1-1.509,1.388,11.334,11.334,0,0,1-2.305,1.375c-.315.138-.638.259-.96.364h0c-1.719-.759-2.595-3.081-1.979-5.449.671-2.578,2.846-4.243,4.862-3.718C4188.82,4095.739,4189.905,4098.086,4189.386,4100.556Z" transform="translate(-4181.82 -4095.14)" fill="#fff"/>
        </g>
        <g id="Group_13512" data-name="Group 13512" transform="translate(4137.58 4037.819)">
          <path id="Path_5780" data-name="Path 5780" d="M4236.318,4106.849a4.852,4.852,0,0,1-3.664,3.781,9.906,9.906,0,0,1-1.015-.57,10.484,10.484,0,0,1-2.238-1.937l0,0c-.168-.189-.323-.382-.474-.583l0,0a5.8,5.8,0,0,1,.1-2.578c.67-2.578,2.846-4.242,4.862-3.718S4236.989,4104.275,4236.318,4106.849Z" transform="translate(-4228.818 -4101.14)" fill="#fff"/>
        </g>
        <g id="Group_13513" data-name="Group 13513" transform="translate(4097.515 4021.205)">
          <path id="Path_5781" data-name="Path 5781" d="M4236.76,4074.789a4.639,4.639,0,0,0,1.744-.629A11.7,11.7,0,0,0,4236.76,4074.789Z" transform="translate(-4193.367 -4068.855)"/>
          <path id="Path_5782" data-name="Path 5782" d="M4192.071,4073.957v0a12.071,12.071,0,0,0-9.008-7.4,10.977,10.977,0,0,0-4.682.256h0a4.644,4.644,0,0,1-1.744.629,12.1,12.1,0,0,0-6.933,9c-.033.2-.059.407-.08.608a4.1,4.1,0,0,1-4.522-1.1,12.966,12.966,0,0,0-2.323-8.975,12.508,12.508,0,0,0-8.22-5.315,12.105,12.105,0,0,0-9.36,2.457,13.3,13.3,0,0,0-3.823,4.628,20.837,20.837,0,0,1-4.829-2.549,16.9,16.9,0,0,1-2.234-1.891c-.365.4-.721.813-1.069,1.224a18.723,18.723,0,0,0,2.075,1.781,23.326,23.326,0,0,0,5.407,2.972,11.673,11.673,0,0,0-.5,1.983,12.887,12.887,0,0,0,2.267,9.339,12.509,12.509,0,0,0,8.221,5.315,11.909,11.909,0,0,0,1.882.151,12.282,12.282,0,0,0,7.479-2.607,13.3,13.3,0,0,0,3.286-3.651,12.562,12.562,0,0,0,1.329-2.963,5.678,5.678,0,0,0,3.412,1.119,6.787,6.787,0,0,0,1.48-.172,12.237,12.237,0,0,0,9.9,11.3,10.7,10.7,0,0,0,1.749.143,11.963,11.963,0,0,0,10.626-6.878l0,0a11.7,11.7,0,0,0,.981-3.144A11.433,11.433,0,0,0,4192.071,4073.957Zm-28.684,2.083c0,.013,0,.021,0,.034a11.028,11.028,0,0,1-2.213,4.946c-.189.248-.39.482-.608.717l0,0a11.565,11.565,0,0,1-1.509,1.387,11.3,11.3,0,0,1-2.306,1.375,10.212,10.212,0,0,1-.96.365h0a9.979,9.979,0,0,1-4.8.394,10.828,10.828,0,0,1-7.117-4.619,11.184,11.184,0,0,1-1.987-8.107,11.376,11.376,0,0,1,4.339-7.088,10.624,10.624,0,0,1,6.464-2.264,9.842,9.842,0,0,1,1.6.13,10.827,10.827,0,0,1,7.118,4.619,11.494,11.494,0,0,1,2.117,6.514A10.062,10.062,0,0,1,4163.387,4076.04Zm27.8,3.9c-.88,5.378-6.221,9.348-11.439,8.5a9.516,9.516,0,0,1-2.607-.83,9.9,9.9,0,0,1-1.015-.57,10.524,10.524,0,0,1-2.238-1.937l0,0c-.168-.188-.323-.381-.474-.583l0,0a10.379,10.379,0,0,1-2.163-6.615c0-.147.009-.293.021-.44.021-.251.05-.5.092-.75a10.451,10.451,0,0,1,10.014-8.614,8.6,8.6,0,0,1,1.425.117A10.471,10.471,0,0,1,4191.187,4079.943Z" transform="translate(-4133.24 -4061.506)"/>
        </g>
        <g id="Group_13514" data-name="Group 13514" transform="translate(4071.732 4028.04)">
          <path id="Path_5783" data-name="Path 5783" d="M4158.757,4129.063a48.728,48.728,0,0,0-9.863-17.434c-.058-.071-.117-.138-.176-.205a24.118,24.118,0,0,1-2.415,2.435c-2.9,4.46-10.375,13.494-23.319,13.494-12.89,0-19.178-9.2-21.517-13.8a35.752,35.752,0,0,1-4.854-3.806,34.219,34.219,0,0,0-3.613,2.742.833.833,0,0,1,.612.461c3.4,7.021,7.964,6.95,8.157,6.95a.837.837,0,0,1,.075,1.673c-.017,0-.05,0-.1,0-.687,0-4.494-.222-7.876-4.909,0,0,0-.008,0-.013a19.773,19.773,0,0,1-1.757-2.976.769.769,0,0,1-.084-.31.848.848,0,0,1,.231-.637c-1.581-4.008-2.993-8.149-2.8-9.7a10.047,10.047,0,0,1,.512-1.89c1.316-3.807,4.64-10.53,4.661-13.276,0-.628-.159-1.048-.562-1.182a11.406,11.406,0,0,1-3.236-2.389c-.465.754-.9,1.48-1.3,2.171-1.3,2.23-2.255,4.087-2.825,5.24-.4.8-.6,1.266-.6,1.266a36.892,36.892,0,0,1-1.156-12.877q.056-.8.15-1.635c.021-.218.046-.436.075-.658-.289.541-.516.968-.649,1.228a35.1,35.1,0,0,0-7.222,10.588c-2.516,6.288-7.126,12.156-5.03,26.828a26.413,26.413,0,0,0,8.727,16.5,36.208,36.208,0,0,0,.914,15.773,25.638,25.638,0,0,0,8.317,13.045c7.4,6.33,18.07,9.117,27.75,10.073.855.088,1.7.155,2.531.214,8.6.591,16.076-.209,19.249-1.115,2.2-.629,5.517-2.7,8.845-5.94a40.483,40.483,0,0,0,7.877-10.735,16.439,16.439,0,0,0,6.753-8.895C4165.95,4136.6,4161.465,4131.322,4158.757,4129.063Zm-9.825,16.683c-.2.1-.411.193-.625.29a.829.829,0,0,1-.339.076.841.841,0,0,1-.768-.5.772.772,0,0,1-.067-.268c-.846.251-1.211.637-.675,1.71,1.677,3.354-2.1,11.318-2.1,11.318s-10.9-1.677-12.156-2.935.419-2.515.419-2.515a6.1,6.1,0,0,1-2.1-3.353,1.953,1.953,0,0,1,1.257-2.516,2.535,2.535,0,0,1,.419-3.353,1.879,1.879,0,0,1,1.869-.377c-2.017-2.721-4.456-7.906-.193-13.875.046-.062.088-.125.134-.184.167-.235.335-.466.5-.684a33.524,33.524,0,0,1,5.482-6.136c.265-.214.507-.395.73-.549,1.354-.931,1.957-.83,1.957-.83a24.819,24.819,0,0,1,4.7,6.875c.142.306.276.62.4.943a14.451,14.451,0,0,1,.441,10.178c-.118.332-.252.667-.4,1a15.773,15.773,0,0,1-2.478,3.886,10.21,10.21,0,0,1,1.941.826.842.842,0,0,1,.331-.268c7.135-3.169,7.219-7.734,7.219-7.927a.843.843,0,0,1,.834-.838h0a.874.874,0,0,1,.277.047.839.839,0,0,1,.562.775C4156.522,4136.792,4156.514,4142.1,4148.932,4145.746Z" transform="translate(-4071.732 -4077.81)" fill="#fff"/>
          <path id="Path_5784" data-name="Path 5784" d="M4227.835,4237.712c1.676,3.354-2.1,11.317-2.1,11.317s-10.9-1.676-12.156-2.934.419-2.516.419-2.516a6.094,6.094,0,0,1-2.1-3.353,1.953,1.953,0,0,1,1.258-2.515,2.536,2.536,0,0,1,.419-3.354,1.881,1.881,0,0,1,1.87-.377,11.766,11.766,0,0,1,3.073,1.438c.3.181.586.361.872.529.138.084.272.164.406.239a10.912,10.912,0,0,0,1.043.562c.1.05.189.088.281.126,2.1.838,3.772-2.1,3.772-2.1a1.833,1.833,0,0,1,1.828-.172,10.148,10.148,0,0,1,1.94.826.814.814,0,0,0-.159.57C4227.663,4236.253,4227.3,4236.639,4227.835,4237.712Z" transform="translate(-4153.109 -4168.468)" fill="#fdd29d"/>
        </g>
        <g id="Group_13515" data-name="Group 13515" transform="translate(4135.518 4037.157)">
          <path id="Path_5785" data-name="Path 5785" d="M4223.9,4100c0-.147.008-.293.021-.44A.826.826,0,0,1,4223.9,4100Z" transform="translate(-4223.9 -4099.56)"/>
        </g>
        <g id="Group_13516" data-name="Group 13516" transform="translate(4119.604 4051.106)">
          <path id="Path_5786" data-name="Path 5786" d="M4192.531,4137.479c-2.029,2.532-6.078,2.025-6.586,0,0,0-.356-4.095,3.115-4.582S4194.555,4134.947,4192.531,4137.479Z" transform="translate(-4185.935 -4132.837)" fill="#bf5d5a"/>
        </g>
        <g id="Group_13517" data-name="Group 13517" transform="translate(4109.532 4014.834)">
          <path id="Path_5787" data-name="Path 5787" d="M4162.913,4049.219a14.6,14.6,0,0,1,5.223-2.624,8.745,8.745,0,0,1,5.756.438,3.762,3.762,0,0,1,2.324,2.69,1.14,1.14,0,0,1-.146.807,1.225,1.225,0,0,1-.768.418c-1.9.4-3.749-.793-5.668-1.117a2.7,2.7,0,0,0-1-.018,4.115,4.115,0,0,0-1.368.715c-1.023.676-3.1,1.92-4.393,1.55C4161.275,4051.622,4161.922,4049.963,4162.913,4049.219Z" transform="translate(-4161.906 -4046.307)" fill="#967953"/>
        </g>
        <g id="Group_13518" data-name="Group 13518" transform="translate(4090.825 4021.433)">
          <path id="Path_5788" data-name="Path 5788" d="M4124.611,4079.148c.612,1.232-1.58,3.3-3.533,4.829,0-.629-.159-1.048-.562-1.182a11.42,11.42,0,0,1-3.236-2.39,77.816,77.816,0,0,1,6.69-9.306,18.644,18.644,0,0,0,2.075,1.782,22.712,22.712,0,0,0-2.222,2.024C4122.36,4076.629,4124.611,4079.148,4124.611,4079.148Z" transform="translate(-4117.28 -4067.306)" fill="#fac785"/>
          <path id="Path_5789" data-name="Path 5789" d="M4138.024,4066.51a16.957,16.957,0,0,1-2.234-1.89v0c.788-.88,1.605-1.74,2.448-2.565a2.837,2.837,0,0,1,1.114,1.245C4139.864,4064.318,4139.106,4065.433,4138.024,4066.51Z" transform="translate(-4128.031 -4062.05)" fill="#fac785"/>
        </g>
        <g id="Group_13519" data-name="Group 13519" transform="translate(4139.873 4022.272)">
          <path id="Path_5790" data-name="Path 5790" d="M4240.929,4067a8.455,8.455,0,0,0-3.856,1.287h0a4.642,4.642,0,0,1-1.744.629.907.907,0,0,1-.968-.52c-.323-.7.591-2.582,1.022-3.119a3.689,3.689,0,0,1,1.534-1.015q.289-.119.591-.213A18.331,18.331,0,0,0,4240.929,4067Z" transform="translate(-4234.289 -4064.05)" fill="#967953"/>
        </g>
        <g id="Group_13520" data-name="Group 13520" transform="translate(4092.018 4062.966)">
          <path id="Path_5791" data-name="Path 5791" d="M4121.967,4165.053a19.691,19.691,0,0,1-1.756-2.976.755.755,0,0,1-.084-.311.845.845,0,0,1,.23-.637c.042.1.083.206.126.31C4120.978,4162.693,4121.489,4163.926,4121.967,4165.053Z" transform="translate(-4120.125 -4161.13)" fill="#fff"/>
        </g>
        <g id="Group_13521" data-name="Group 13521" transform="translate(4084.561 3992.12)">
          <path id="Path_5792" data-name="Path 5792" d="M4156.625,4015.938c-1.539,2-5.375,2.481-13.77-1.232-9.134-4.041-17.459.311-24.048,6.728-.842.826-1.66,1.685-2.448,2.565v0c-.365.4-.721.813-1.069,1.224a77.777,77.777,0,0,0-6.69,9.306c-.466.754-.9,1.48-1.3,2.171-1.3,2.23-2.255,4.087-2.825,5.24-.4.8-.6,1.266-.6,1.266a36.9,36.9,0,0,1-1.157-12.877q.056-.8.15-1.635c.021-.218.046-.436.075-.658a44.832,44.832,0,0,1,6.2-17.719c-7.382-4.708-8.82-14.076-4.011-9.868,2.314,2.025,6.179,2.2,10.244,1.568q1.283-1.415,2.75-2.825c15.887-15.275,29.325-2.272,35.446,5.9-.055.067-.1.138-.156.206-.092.113-.176.23-.26.348A41.284,41.284,0,0,0,4156.625,4015.938Z" transform="translate(-4102.335 -3992.12)" fill="#c57612"/>
        </g>
        <g id="Group_13522" data-name="Group 13522" transform="translate(4135.379 3999.939)">
          <path id="Path_5793" data-name="Path 5793" d="M4257.926,4030.313s-1.484,8.673-14.252,8.325c-.633-.017-1.295-.055-1.987-.118a14.98,14.98,0,0,1-6.979-2.465h0a18.331,18.331,0,0,1-3.424-2.951,27.464,27.464,0,0,1-4.238-6.334,41.291,41.291,0,0,1-3.471-10.287c.084-.117.168-.234.26-.348.051-.067.1-.139.156-.206C4237.231,3998.653,4257.926,4030.313,4257.926,4030.313Z" transform="translate(-4223.57 -4010.773)" fill="#a15c04"/>
        </g>
        <g id="Group_13523" data-name="Group 13523" transform="translate(4117.971 4122.078)">
          <path id="Path_5794" data-name="Path 5794" d="M4186.944,4326.932q-1.295-.037-2.586-.15c-.012-.063-.025-.126-.033-.189v0c-.034-.16-.063-.315-.088-.482l-.013-.063q-.05-.289-.1-.591c-1.345-8.187-1.965-20.758-2.083-23.3.855.088,1.7.155,2.532.214C4184.731,4305.713,4185.461,4319.529,4186.944,4326.932Z" transform="translate(-4182.04 -4302.15)" fill="#0071bc"/>
        </g>
        <g id="Group_13524" data-name="Group 13524" transform="translate(4147.129 4085.97)">
          <path id="Path_5795" data-name="Path 5795" d="M4253.4,4226.016c-.2.1-.411.193-.624.289a.831.831,0,0,1-.34.075.842.842,0,0,1-.768-.5.77.77,0,0,1-.066-.268.812.812,0,0,1,.159-.57.845.845,0,0,1,.331-.269c7.134-3.169,7.219-7.733,7.219-7.926a.842.842,0,0,1,.834-.838h0a.855.855,0,0,1,.276.046.839.839,0,0,1,.562.775C4260.994,4217.062,4260.986,4222.373,4253.4,4226.016Z" transform="translate(-4251.6 -4216.01)" fill="#25a9e1"/>
        </g>
        <g id="Group_13525" data-name="Group 13525" transform="translate(4092.018 4062.71)">
          <path id="Path_5796" data-name="Path 5796" d="M4130.745,4168.744a.838.838,0,0,1-.792.872c-.017,0-.05,0-.1,0-.687,0-4.493-.222-7.876-4.909,0,0,0-.009,0-.013a19.715,19.715,0,0,1-1.756-2.976.76.76,0,0,1-.084-.311.846.846,0,0,1,.23-.637.756.756,0,0,1,.238-.171.842.842,0,0,1,1.124.39c3.4,7.021,7.964,6.95,8.157,6.95A.831.831,0,0,1,4130.745,4168.744Z" transform="translate(-4120.125 -4160.52)" fill="#25a9e1"/>
        </g>
        <g id="Group_13528" data-name="Group 13528" transform="translate(4134.017 4072.125)">
          <g id="Group_13526" data-name="Group 13526" transform="translate(0 6.686)">
            <path id="Path_5797" data-name="Path 5797" d="M4224.323,4215.638c-.285-.167-.574-.348-.872-.528-.4-5.86-1.471-13.665-3.131-15.5.167-.234.335-.464.5-.683C4223.225,4201.4,4224.1,4212.2,4224.323,4215.638Z" transform="translate(-4220.32 -4198.93)" fill="#7be86b"/>
          </g>
          <g id="Group_13527" data-name="Group 13527" transform="translate(4.41)">
            <path id="Path_5798" data-name="Path 5798" d="M4240.64,4200.146c-.118.331-.252.666-.4,1-2.373.747-6.175,2.26-8,4.725-.134.44-.256.881-.361,1.3a10.865,10.865,0,0,1-1.044-.562,7.2,7.2,0,0,1,.356-.684c.721-4.531,2.473-16.872,1.215-22.4.265-.214.508-.394.73-.55,1.182,4.5.226,13.678-.583,19.529a89.935,89.935,0,0,1,7.244-13.484c.143.306.277.62.4.942a84.407,84.407,0,0,0-7.3,13.984A21.408,21.408,0,0,1,4240.64,4200.146Z" transform="translate(-4230.839 -4182.979)" fill="#7be86b"/>
          </g>
        </g>
        <path id="Path_5799" data-name="Path 5799" d="M4188.618,4099.3a2.317,2.317,0,0,0-.972-.038,1.885,1.885,0,1,1-2.683,2.647c-.024.079-.05.157-.071.237-.5,1.928.285,3.81,1.765,4.268a11.306,11.306,0,0,0,2.306-1.375,11.535,11.535,0,0,0,1.509-1.388l0,0,.012-.046C4191,4101.626,4190.165,4099.7,4188.618,4099.3Z" transform="translate(-65.638 -62.21)" fill="#00408a"/>
        <path id="Path_5800" data-name="Path 5800" d="M4234.329,4109.569a1.883,1.883,0,0,1-1.354-3.2,3.279,3.279,0,0,0-2.96,2.689,4.029,4.029,0,0,0,0,2.1l0,0a10.523,10.523,0,0,0,2.238,1.936,3.3,3.3,0,0,0,2.922-2.691,4.234,4.234,0,0,0,.136-1.121A1.871,1.871,0,0,1,4234.329,4109.569Z" transform="translate(-91.852 -66.36)" fill="#00408a"/>
      </g>
      <g id="Group_13530" data-name="Group 13530" transform="translate(82.606 120.693)">
        <path id="Path_5801" data-name="Path 5801" d="M4268.864,4358.547c7.922,7.631,33.535-13.786,28.175-36.245C4292.733,4317.987,4255.876,4330.908,4268.864,4358.547Z" transform="translate(-4246.476 -4300.016)" fill="#1b9a1b"/>
        <path id="Path_5802" data-name="Path 5802" d="M4301,4293s21.906,13.025,22.5,45.587" transform="translate(-4292.862 -4288.395)" fill="none" stroke="#34632d" stroke-miterlimit="10" stroke-width="2"/>
        <path id="Path_5803" data-name="Path 5803" d="M4321.988,4288.712s15.87,14.02,10.623,16.825-4.909-7.7-14.995-13.5S4316.1,4281.858,4321.988,4288.712Z" transform="translate(-4310.119 -4285.221)" fill="#87773e"/>
        <path id="Path_5804" data-name="Path 5804" d="M4326.925,4363.319c9.262-5.935-5.625-35.819-28.714-35.819C4293.015,4330.687,4297.027,4369.535,4326.925,4363.319Z" transform="translate(-4296.29 -4302.469)" fill="#5fbe5f"/>
      </g>
    </g>
  </g>
  <g id="stars" transform="translate(-2807.517 -2143.083)">
    <g id="star" transform="translate(2885.805 2315.298)">
      <g id="Group_13491" data-name="Group 13491">
        <g id="Path_5752" data-name="Path 5752" transform="translate(-2702.16 -3953.653)" fill="#ffd500">
          <path d="M 2717.61279296875 3974.1533203125 C 2717.1728515625 3974.1533203125 2716.746337890625 3974.046630859375 2716.34521484375 3973.835693359375 L 2713.362060546875 3972.266845703125 C 2713.115966796875 3972.1376953125 2712.838623046875 3972.0693359375 2712.560302734375 3972.0693359375 C 2712.281982421875 3972.0693359375 2712.004638671875 3972.1376953125 2711.75830078125 3972.266845703125 L 2708.775146484375 3973.835693359375 C 2708.3740234375 3974.04638671875 2707.94775390625 3974.1533203125 2707.507568359375 3974.1533203125 C 2706.70458984375 3974.1533203125 2705.94287109375 3973.7958984375 2705.41748046875 3973.1728515625 C 2704.896728515625 3972.554931640625 2704.685791015625 3971.770751953125 2704.82421875 3970.96484375 L 2705.393798828125 3967.64306640625 C 2705.48974609375 3967.083984375 2705.304443359375 3966.513916015625 2704.898193359375 3966.11767578125 L 2702.48486328125 3963.765380859375 C 2701.7373046875 3963.036865234375 2701.47314453125 3961.96728515625 2701.795654296875 3960.97412109375 C 2702.118408203125 3959.98095703125 2702.960693359375 3959.27099609375 2703.994140625 3959.120849609375 L 2707.3291015625 3958.635986328125 C 2707.890869140625 3958.55419921875 2708.3759765625 3958.201904296875 2708.626708984375 3957.693359375 L 2710.118408203125 3954.6708984375 C 2710.58056640625 3953.734619140625 2711.516357421875 3953.1533203125 2712.560302734375 3953.1533203125 C 2713.604248046875 3953.1533203125 2714.5400390625 3953.734619140625 2715.001953125 3954.670654296875 L 2716.49365234375 3957.693359375 C 2716.74462890625 3958.201904296875 2717.229736328125 3958.55419921875 2717.791259765625 3958.635986328125 L 2721.12646484375 3959.120849609375 C 2722.15966796875 3959.270751953125 2723.001953125 3959.98095703125 2723.32470703125 3960.97412109375 C 2723.647216796875 3961.96728515625 2723.38330078125 3963.03662109375 2722.635498046875 3963.765380859375 L 2720.22216796875 3966.117919921875 C 2719.815673828125 3966.513916015625 2719.630615234375 3967.083984375 2719.726318359375 3967.64306640625 L 2720.29638671875 3970.96484375 C 2720.434326171875 3971.770751953125 2720.2236328125 3972.554931640625 2719.70263671875 3973.172607421875 C 2719.17724609375 3973.7958984375 2718.41552734375 3974.1533203125 2717.61279296875 3974.1533203125 Z" stroke="none"/>
          <path d="M 2712.560302734375 3953.653076171875 C 2711.767578125 3953.653076171875 2710.974609375 3954.066162109375 2710.56689453125 3954.89208984375 L 2709.0751953125 3957.91455078125 C 2708.75146484375 3958.57080078125 2708.12548828125 3959.025390625 2707.401123046875 3959.130859375 L 2704.06591796875 3959.61572265625 C 2702.242431640625 3959.88037109375 2701.514404296875 3962.12158203125 2702.833984375 3963.4072265625 L 2705.247314453125 3965.759765625 C 2705.77099609375 3966.2705078125 2706.01025390625 3967.00634765625 2705.88671875 3967.7275390625 L 2705.31689453125 3971.04931640625 C 2705.00537109375 3972.865966796875 2706.910888671875 3974.250732421875 2708.54248046875 3973.39306640625 L 2711.52587890625 3971.82421875 C 2712.173828125 3971.484619140625 2712.94775390625 3971.484619140625 2713.5947265625 3971.82421875 L 2716.577880859375 3973.39306640625 C 2718.20751953125 3974.251220703125 2720.11474609375 3972.86572265625 2719.803466796875 3971.04931640625 L 2719.233642578125 3967.7275390625 C 2719.10986328125 3967.00634765625 2719.34912109375 3966.2705078125 2719.873046875 3965.759765625 L 2722.28662109375 3963.4072265625 C 2723.60595703125 3962.12158203125 2722.8779296875 3959.88037109375 2721.054443359375 3959.61572265625 L 2717.71923828125 3959.130859375 C 2716.9951171875 3959.025390625 2716.369140625 3958.57080078125 2716.045166015625 3957.91455078125 L 2714.5537109375 3954.89208984375 C 2714.14599609375 3954.066162109375 2713.35302734375 3953.653076171875 2712.560302734375 3953.653076171875 M 2712.560302734375 3952.653076171875 C 2713.796142578125 3952.653076171875 2714.903564453125 3953.341552734375 2715.450439453125 3954.449462890625 L 2716.94189453125 3957.471923828125 C 2717.1201171875 3957.8330078125 2717.464599609375 3958.083251953125 2717.86328125 3958.141357421875 L 2721.1982421875 3958.626220703125 C 2722.421142578125 3958.8037109375 2723.418212890625 3959.64404296875 2723.800048828125 3960.819580078125 C 2724.18212890625 3961.9951171875 2723.86962890625 3963.260986328125 2722.984619140625 3964.12353515625 L 2720.571044921875 3966.475830078125 C 2720.28271484375 3966.757080078125 2720.151123046875 3967.16162109375 2720.21923828125 3967.558349609375 L 2720.7890625 3970.880126953125 C 2720.9501953125 3971.8203125 2720.693359375 3972.7734375 2720.084716796875 3973.495361328125 C 2719.464111328125 3974.231201171875 2718.563232421875 3974.6533203125 2717.61279296875 3974.6533203125 C 2717.0908203125 3974.6533203125 2716.5859375 3974.527099609375 2716.112548828125 3974.278076171875 L 2713.129150390625 3972.709228515625 C 2712.955078125 3972.617919921875 2712.758056640625 3972.5693359375 2712.560302734375 3972.5693359375 C 2712.362548828125 3972.5693359375 2712.16552734375 3972.617919921875 2711.99072265625 3972.709716796875 L 2709.0078125 3974.278076171875 C 2708.5341796875 3974.527099609375 2708.029541015625 3974.6533203125 2707.507568359375 3974.6533203125 C 2706.556884765625 3974.6533203125 2705.65576171875 3974.231201171875 2705.035400390625 3973.4951171875 C 2704.4267578125 3972.7734375 2704.170166015625 3971.8203125 2704.331298828125 3970.88037109375 L 2704.901123046875 3967.558349609375 C 2704.968994140625 3967.161865234375 2704.83740234375 3966.7568359375 2704.549072265625 3966.4755859375 L 2702.135986328125 3964.123291015625 C 2701.2509765625 3963.260986328125 2700.938232421875 3961.9951171875 2701.3203125 3960.819580078125 C 2701.7021484375 3959.64404296875 2702.69921875 3958.8037109375 2703.92236328125 3958.6259765625 L 2707.25732421875 3958.141357421875 C 2707.656005859375 3958.083251953125 2708.000244140625 3957.8330078125 2708.178466796875 3957.47216796875 L 2709.670166015625 3954.449462890625 C 2710.217041015625 3953.341552734375 2711.324462890625 3952.653076171875 2712.560302734375 3952.653076171875 Z" stroke="none" fill="#fff"/>
        </g>
        <path id="Path_5753" data-name="Path 5753" d="M2720.675,3965.023l1.309,2.5a1.947,1.947,0,0,0,1.469,1l2.927.4a1.809,1.809,0,0,1,1.081,3.131l-2.451,1.943a1.769,1.769,0,0,0-.561,1.625l.833,2.743a1.929,1.929,0,0,1-2.83,1.936l-2.617-1.3a2.059,2.059,0,0,0-1.815,0l-2.618,1.3a1.929,1.929,0,0,1-2.83-1.936l.5-2.743a1.77,1.77,0,0,0-.561-1.625l-2.117-1.943a1.809,1.809,0,0,1,1.081-3.131l3.26-.4a1.946,1.946,0,0,0,1.469-1l.975-2.5A2.007,2.007,0,0,1,2720.675,3965.023Z" transform="translate(-2708.526 -3962.274)" fill="#ffb300"/>
        <path id="Path_5753_-_Outline" data-name="Path 5753 - Outline" d="M2717.26,3962a2.392,2.392,0,0,1,1.164.3,2.205,2.205,0,0,1,.881.9l1.309,2.5a1.611,1.611,0,0,0,1.218.829l2.926.4a2.231,2.231,0,0,1,1.865,1.531,2.077,2.077,0,0,1,.033,1.134,2.142,2.142,0,0,1-.636,1.044l-.009.008-.01.008-2.441,1.935a1.439,1.439,0,0,0-.453,1.294l.833,2.742,0,.019a2.054,2.054,0,0,1-.453,1.711,2.315,2.315,0,0,1-.794.609,2.36,2.36,0,0,1-2.06-.026l-2.617-1.3a1.727,1.727,0,0,0-1.52,0l-2.617,1.3a2.36,2.36,0,0,1-2.06.026,2.322,2.322,0,0,1-.794-.609,2.055,2.055,0,0,1-.453-1.711l.5-2.743a1.438,1.438,0,0,0-.458-1.319l-2.118-1.943a2.138,2.138,0,0,1-.636-1.044,2.073,2.073,0,0,1,.033-1.134,2.23,2.23,0,0,1,1.864-1.531h0l3.258-.4a1.613,1.613,0,0,0,1.208-.813l.975-2.495.009-.016a2.2,2.2,0,0,1,.881-.9A2.391,2.391,0,0,1,2717.26,3962Zm8.317,8.135a1.408,1.408,0,0,0,.409-1.479,1.57,1.57,0,0,0-1.318-1.069l-2.927-.4a2.281,2.281,0,0,1-1.719-1.18l-1.309-2.5a1.674,1.674,0,0,0-2.9-.016l-.975,2.495-.009.016a2.28,2.28,0,0,1-1.719,1.18h0l-3.258.4a1.569,1.569,0,0,0-1.316,1.068,1.409,1.409,0,0,0,.417,1.486l2.118,1.943a2.1,2.1,0,0,1,.664,1.93l-.5,2.743a1.4,1.4,0,0,0,.308,1.164,1.69,1.69,0,0,0,2.046.413l2.617-1.3a2.392,2.392,0,0,1,2.112,0l2.617,1.3a1.691,1.691,0,0,0,2.046-.413,1.4,1.4,0,0,0,.312-1.146l-.833-2.742,0-.019a2.1,2.1,0,0,1,.664-1.93l.009-.008.009-.008Z" transform="translate(-2706.86 -3960.607)" fill="#fff"/>
        <path id="Path_5754" data-name="Path 5754" d="M2764.608,3975.244c-2.286-.326-1.633-4.734-3.265-4.408-.437.087-.84.176-.916.762s.681,3.693,2.5,3.952c2.1.3,3.448.15,3.6,1.05a.668.668,0,0,1-.45.6s-2.72,1.491-2.887,3.826a4.431,4.431,0,0,0,.7,3.245c.826.515,1.474.914,1.851.443.653-.816-.326-2.285-.816-4.081s3.116-3.592,3.116-3.592a.728.728,0,0,0,.49-.653C2768.363,3975.407,2766.894,3975.571,2764.608,3975.244Z" transform="translate(-2750.702 -3967.955)" fill="#ffe97a"/>
        <path id="Path_5755" data-name="Path 5755" d="M2721.922,3966.972a1.913,1.913,0,0,0-3.345.024l-.936,2.43a1.869,1.869,0,0,1-1.41.978l-3.131.39a1.767,1.767,0,0,0-1.038,3.049l2.033,1.891a1.737,1.737,0,0,1,.539,1.582l-.48,2.671a1.723,1.723,0,0,0,.676,1.7,4.884,4.884,0,0,1,.221-3.176c.961-2.436.961-4.061-.8-4.873s-1.762-2.274,1.122-2.436,3.524-.65,3.844-3.411C2719.433,3965.916,2720.9,3966.133,2721.922,3966.972Z" transform="translate(-2709.938 -3963.94)" fill="#ffe41f"/>
      </g>
    </g>
    <g id="star-2" data-name="star" transform="translate(2930.81 2315.297)">
      <g id="Path_5749" data-name="Path 5749" transform="translate(-2547.16 -3953.653)" fill="#ffd500">
        <path d="M 2562.3916015625 3974.1533203125 C 2561.95556640625 3974.1533203125 2561.533203125 3974.046142578125 2561.13623046875 3973.834228515625 L 2558.19580078125 3972.265380859375 C 2557.954833984375 3972.136962890625 2557.68359375 3972.069091796875 2557.411376953125 3972.069091796875 C 2557.13916015625 3972.069091796875 2556.867919921875 3972.136962890625 2556.626708984375 3972.265380859375 L 2553.6865234375 3973.834228515625 C 2553.28955078125 3974.0458984375 2552.8671875 3974.1533203125 2552.431396484375 3974.1533203125 C 2551.645263671875 3974.1533203125 2550.896728515625 3973.80126953125 2550.3779296875 3973.1875 C 2549.854248046875 3972.56787109375 2549.641357421875 3971.77880859375 2549.77880859375 3970.966064453125 L 2550.340576171875 3967.644287109375 C 2550.435302734375 3967.08349609375 2550.252685546875 3966.51220703125 2549.851806640625 3966.11572265625 L 2547.473388671875 3963.76318359375 C 2546.7314453125 3963.029296875 2546.47314453125 3961.95458984375 2546.7998046875 3960.9580078125 C 2547.1220703125 3959.974609375 2547.9521484375 3959.270751953125 2548.9658203125 3959.12109375 L 2552.253662109375 3958.63671875 C 2552.8037109375 3958.554931640625 2553.280029296875 3958.203369140625 2553.527099609375 3957.696044921875 L 2554.996826171875 3954.674072265625 C 2555.452880859375 3953.736083984375 2556.378173828125 3953.1533203125 2557.411376953125 3953.1533203125 C 2558.4443359375 3953.1533203125 2559.36962890625 3953.736083984375 2559.825927734375 3954.674072265625 L 2561.296142578125 3957.6962890625 C 2561.542724609375 3958.203369140625 2562.01904296875 3958.554931640625 2562.56982421875 3958.63671875 L 2565.856689453125 3959.12109375 C 2566.87060546875 3959.270751953125 2567.700927734375 3959.974609375 2568.023193359375 3960.958251953125 C 2568.349853515625 3961.95458984375 2568.091552734375 3963.029296875 2567.349609375 3963.76318359375 L 2564.970947265625 3966.11572265625 C 2564.570068359375 3966.51171875 2564.387451171875 3967.083251953125 2564.48193359375 3967.64453125 L 2565.043701171875 3970.966064453125 C 2565.18115234375 3971.779052734375 2564.96826171875 3972.56787109375 2564.4443359375 3973.1875 C 2563.92578125 3973.80126953125 2563.177490234375 3974.1533203125 2562.3916015625 3974.1533203125 Z" stroke="none"/>
        <path d="M 2557.411376953125 3953.6533203125 C 2556.6298828125 3953.6533203125 2555.84814453125 3954.06640625 2555.446533203125 3954.892822265625 L 2553.9765625 3957.9150390625 C 2553.6572265625 3958.57080078125 2553.040283203125 3959.025390625 2552.326416015625 3959.13134765625 L 2549.038818359375 3959.61572265625 C 2547.24169921875 3959.880859375 2546.52392578125 3962.12109375 2547.824951171875 3963.40771484375 L 2550.203369140625 3965.76025390625 C 2550.719482421875 3966.2705078125 2550.95556640625 3967.00634765625 2550.83349609375 3967.7275390625 L 2550.271728515625 3971.04931640625 C 2549.964599609375 3972.86572265625 2551.84423828125 3974.249755859375 2553.451171875 3973.39306640625 L 2556.3916015625 3971.82421875 C 2557.0302734375 3971.48388671875 2557.79248046875 3971.48388671875 2558.43115234375 3971.82421875 L 2561.37158203125 3973.39306640625 C 2562.977783203125 3974.250732421875 2564.857421875 3972.865966796875 2564.55078125 3971.04931640625 L 2563.989013671875 3967.7275390625 C 2563.867431640625 3967.00634765625 2564.10302734375 3966.2705078125 2564.619384765625 3965.76025390625 L 2566.998046875 3963.40771484375 C 2568.299072265625 3962.12109375 2567.581298828125 3959.880859375 2565.78369140625 3959.61572265625 L 2562.496337890625 3959.13134765625 C 2561.782470703125 3959.025390625 2561.16552734375 3958.57080078125 2560.846435546875 3957.9150390625 L 2559.376220703125 3954.892822265625 C 2558.974365234375 3954.06640625 2558.19287109375 3953.6533203125 2557.411376953125 3953.6533203125 M 2557.411376953125 3952.6533203125 C 2558.637451171875 3952.6533203125 2559.73486328125 3953.343994140625 2560.275390625 3954.45556640625 L 2561.74560546875 3957.4775390625 C 2561.920166015625 3957.836181640625 2562.255615234375 3958.084716796875 2562.64306640625 3958.14208984375 L 2565.929443359375 3958.62646484375 C 2567.13232421875 3958.8037109375 2568.11669921875 3959.6376953125 2568.498291015625 3960.802490234375 C 2568.88427734375 3961.980224609375 2568.578857421875 3963.250732421875 2567.701171875 3964.11865234375 L 2565.322509765625 3966.47119140625 C 2565.037353515625 3966.753173828125 2564.907470703125 3967.16064453125 2564.97509765625 3967.561279296875 L 2565.536865234375 3970.882568359375 C 2565.696533203125 3971.829345703125 2565.4375 3972.787353515625 2564.826171875 3973.510498046875 C 2564.212158203125 3974.23681640625 2563.32470703125 3974.6533203125 2562.3916015625 3974.6533203125 C 2561.87255859375 3974.6533203125 2561.37109375 3974.526123046875 2560.90087890625 3974.275390625 L 2557.96044921875 3972.70654296875 C 2557.791748046875 3972.61669921875 2557.601806640625 3972.569091796875 2557.411376953125 3972.569091796875 C 2557.220947265625 3972.569091796875 2557.031005859375 3972.61669921875 2556.862060546875 3972.70654296875 L 2553.921875 3974.275390625 C 2553.451904296875 3974.526123046875 2552.9501953125 3974.6533203125 2552.431396484375 3974.6533203125 C 2551.497802734375 3974.6533203125 2550.610107421875 3974.23681640625 2549.99609375 3973.51025390625 C 2549.384765625 3972.786865234375 2549.125732421875 3971.829345703125 2549.28564453125 3970.8828125 L 2549.847412109375 3967.560791015625 C 2549.915283203125 3967.160400390625 2549.785400390625 3966.753173828125 2549.500244140625 3966.471435546875 L 2547.121826171875 3964.11865234375 C 2546.244140625 3963.250732421875 2545.938720703125 3961.97998046875 2546.32470703125 3960.802490234375 C 2546.706298828125 3959.6376953125 2547.6904296875 3958.8037109375 2548.892822265625 3958.62646484375 L 2552.1806640625 3958.14208984375 C 2552.567138671875 3958.084716796875 2552.90283203125 3957.836181640625 2553.077392578125 3957.477294921875 L 2554.54736328125 3954.455322265625 C 2555.087646484375 3953.343994140625 2556.18505859375 3952.6533203125 2557.411376953125 3952.6533203125 Z" stroke="none" fill="#fff"/>
      </g>
      <path id="Path_5750" data-name="Path 5750" d="M2565.52,3965.024l1.29,2.5a1.92,1.92,0,0,0,1.448,1l2.884.4a1.815,1.815,0,0,1,1.066,3.132l-2.416,1.943a1.784,1.784,0,0,0-.553,1.625l.822,2.743a1.906,1.906,0,0,1-2.79,1.936l-2.58-1.3a2,2,0,0,0-1.789,0l-2.58,1.3a1.906,1.906,0,0,1-2.79-1.936l.492-2.743a1.786,1.786,0,0,0-.552-1.625l-2.088-1.943a1.815,1.815,0,0,1,1.066-3.132l3.214-.4a1.921,1.921,0,0,0,1.448-1l.961-2.5A1.964,1.964,0,0,1,2565.52,3965.024Z" transform="translate(-2553.545 -3962.274)" fill="#fff"/>
      <path id="Path_5751" data-name="Path 5751" d="M2565.5,3965a1.964,1.964,0,0,0-3.433.024l-.961,2.5a1.918,1.918,0,0,1-1.448,1l-3.214.4a1.815,1.815,0,0,0-1.066,3.131l2.088,1.943a1.785,1.785,0,0,1,.552,1.625l-.492,2.743a1.771,1.771,0,0,0,.693,1.743,5.021,5.021,0,0,1,.227-3.263c.987-2.5.987-4.171-.822-5s-1.809-2.335,1.151-2.5,3.618-.667,3.947-3.5C2562.949,3963.918,2564.455,3964.141,2565.5,3965Z" transform="translate(-2553.545 -3962.278)" fill="#dedede"/>
    </g>
    <g id="star-3" data-name="star" transform="translate(2908.307 2315.298)">
      <g id="Group_13491-2" data-name="Group 13491">
        <g id="Path_5752-2" data-name="Path 5752" transform="translate(-2702.16 -3953.653)" fill="#ffd500">
          <path d="M 2717.61279296875 3974.1533203125 C 2717.1728515625 3974.1533203125 2716.746337890625 3974.046630859375 2716.34521484375 3973.835693359375 L 2713.362060546875 3972.266845703125 C 2713.115966796875 3972.1376953125 2712.838623046875 3972.0693359375 2712.560302734375 3972.0693359375 C 2712.281982421875 3972.0693359375 2712.004638671875 3972.1376953125 2711.75830078125 3972.266845703125 L 2708.775146484375 3973.835693359375 C 2708.3740234375 3974.04638671875 2707.94775390625 3974.1533203125 2707.507568359375 3974.1533203125 C 2706.70458984375 3974.1533203125 2705.94287109375 3973.7958984375 2705.41748046875 3973.1728515625 C 2704.896728515625 3972.554931640625 2704.685791015625 3971.770751953125 2704.82421875 3970.96484375 L 2705.393798828125 3967.64306640625 C 2705.48974609375 3967.083984375 2705.304443359375 3966.513916015625 2704.898193359375 3966.11767578125 L 2702.48486328125 3963.765380859375 C 2701.7373046875 3963.036865234375 2701.47314453125 3961.96728515625 2701.795654296875 3960.97412109375 C 2702.118408203125 3959.98095703125 2702.960693359375 3959.27099609375 2703.994140625 3959.120849609375 L 2707.3291015625 3958.635986328125 C 2707.890869140625 3958.55419921875 2708.3759765625 3958.201904296875 2708.626708984375 3957.693359375 L 2710.118408203125 3954.6708984375 C 2710.58056640625 3953.734619140625 2711.516357421875 3953.1533203125 2712.560302734375 3953.1533203125 C 2713.604248046875 3953.1533203125 2714.5400390625 3953.734619140625 2715.001953125 3954.670654296875 L 2716.49365234375 3957.693359375 C 2716.74462890625 3958.201904296875 2717.229736328125 3958.55419921875 2717.791259765625 3958.635986328125 L 2721.12646484375 3959.120849609375 C 2722.15966796875 3959.270751953125 2723.001953125 3959.98095703125 2723.32470703125 3960.97412109375 C 2723.647216796875 3961.96728515625 2723.38330078125 3963.03662109375 2722.635498046875 3963.765380859375 L 2720.22216796875 3966.117919921875 C 2719.815673828125 3966.513916015625 2719.630615234375 3967.083984375 2719.726318359375 3967.64306640625 L 2720.29638671875 3970.96484375 C 2720.434326171875 3971.770751953125 2720.2236328125 3972.554931640625 2719.70263671875 3973.172607421875 C 2719.17724609375 3973.7958984375 2718.41552734375 3974.1533203125 2717.61279296875 3974.1533203125 Z" stroke="none"/>
          <path d="M 2712.560302734375 3953.653076171875 C 2711.767578125 3953.653076171875 2710.974609375 3954.066162109375 2710.56689453125 3954.89208984375 L 2709.0751953125 3957.91455078125 C 2708.75146484375 3958.57080078125 2708.12548828125 3959.025390625 2707.401123046875 3959.130859375 L 2704.06591796875 3959.61572265625 C 2702.242431640625 3959.88037109375 2701.514404296875 3962.12158203125 2702.833984375 3963.4072265625 L 2705.247314453125 3965.759765625 C 2705.77099609375 3966.2705078125 2706.01025390625 3967.00634765625 2705.88671875 3967.7275390625 L 2705.31689453125 3971.04931640625 C 2705.00537109375 3972.865966796875 2706.910888671875 3974.250732421875 2708.54248046875 3973.39306640625 L 2711.52587890625 3971.82421875 C 2712.173828125 3971.484619140625 2712.94775390625 3971.484619140625 2713.5947265625 3971.82421875 L 2716.577880859375 3973.39306640625 C 2718.20751953125 3974.251220703125 2720.11474609375 3972.86572265625 2719.803466796875 3971.04931640625 L 2719.233642578125 3967.7275390625 C 2719.10986328125 3967.00634765625 2719.34912109375 3966.2705078125 2719.873046875 3965.759765625 L 2722.28662109375 3963.4072265625 C 2723.60595703125 3962.12158203125 2722.8779296875 3959.88037109375 2721.054443359375 3959.61572265625 L 2717.71923828125 3959.130859375 C 2716.9951171875 3959.025390625 2716.369140625 3958.57080078125 2716.045166015625 3957.91455078125 L 2714.5537109375 3954.89208984375 C 2714.14599609375 3954.066162109375 2713.35302734375 3953.653076171875 2712.560302734375 3953.653076171875 M 2712.560302734375 3952.653076171875 C 2713.796142578125 3952.653076171875 2714.903564453125 3953.341552734375 2715.450439453125 3954.449462890625 L 2716.94189453125 3957.471923828125 C 2717.1201171875 3957.8330078125 2717.464599609375 3958.083251953125 2717.86328125 3958.141357421875 L 2721.1982421875 3958.626220703125 C 2722.421142578125 3958.8037109375 2723.418212890625 3959.64404296875 2723.800048828125 3960.819580078125 C 2724.18212890625 3961.9951171875 2723.86962890625 3963.260986328125 2722.984619140625 3964.12353515625 L 2720.571044921875 3966.475830078125 C 2720.28271484375 3966.757080078125 2720.151123046875 3967.16162109375 2720.21923828125 3967.558349609375 L 2720.7890625 3970.880126953125 C 2720.9501953125 3971.8203125 2720.693359375 3972.7734375 2720.084716796875 3973.495361328125 C 2719.464111328125 3974.231201171875 2718.563232421875 3974.6533203125 2717.61279296875 3974.6533203125 C 2717.0908203125 3974.6533203125 2716.5859375 3974.527099609375 2716.112548828125 3974.278076171875 L 2713.129150390625 3972.709228515625 C 2712.955078125 3972.617919921875 2712.758056640625 3972.5693359375 2712.560302734375 3972.5693359375 C 2712.362548828125 3972.5693359375 2712.16552734375 3972.617919921875 2711.99072265625 3972.709716796875 L 2709.0078125 3974.278076171875 C 2708.5341796875 3974.527099609375 2708.029541015625 3974.6533203125 2707.507568359375 3974.6533203125 C 2706.556884765625 3974.6533203125 2705.65576171875 3974.231201171875 2705.035400390625 3973.4951171875 C 2704.4267578125 3972.7734375 2704.170166015625 3971.8203125 2704.331298828125 3970.88037109375 L 2704.901123046875 3967.558349609375 C 2704.968994140625 3967.161865234375 2704.83740234375 3966.7568359375 2704.549072265625 3966.4755859375 L 2702.135986328125 3964.123291015625 C 2701.2509765625 3963.260986328125 2700.938232421875 3961.9951171875 2701.3203125 3960.819580078125 C 2701.7021484375 3959.64404296875 2702.69921875 3958.8037109375 2703.92236328125 3958.6259765625 L 2707.25732421875 3958.141357421875 C 2707.656005859375 3958.083251953125 2708.000244140625 3957.8330078125 2708.178466796875 3957.47216796875 L 2709.670166015625 3954.449462890625 C 2710.217041015625 3953.341552734375 2711.324462890625 3952.653076171875 2712.560302734375 3952.653076171875 Z" stroke="none" fill="#fff"/>
        </g>
        <path id="Path_5753-2" data-name="Path 5753" d="M2720.675,3965.023l1.309,2.5a1.947,1.947,0,0,0,1.469,1l2.927.4a1.809,1.809,0,0,1,1.081,3.131l-2.451,1.943a1.769,1.769,0,0,0-.561,1.625l.833,2.743a1.929,1.929,0,0,1-2.83,1.936l-2.617-1.3a2.059,2.059,0,0,0-1.815,0l-2.618,1.3a1.929,1.929,0,0,1-2.83-1.936l.5-2.743a1.77,1.77,0,0,0-.561-1.625l-2.117-1.943a1.809,1.809,0,0,1,1.081-3.131l3.26-.4a1.946,1.946,0,0,0,1.469-1l.975-2.5A2.007,2.007,0,0,1,2720.675,3965.023Z" transform="translate(-2708.526 -3962.274)" fill="#ffb300"/>
        <path id="Path_5753_-_Outline-2" data-name="Path 5753 - Outline" d="M2717.26,3962a2.392,2.392,0,0,1,1.164.3,2.205,2.205,0,0,1,.881.9l1.309,2.5a1.611,1.611,0,0,0,1.218.829l2.926.4a2.231,2.231,0,0,1,1.865,1.531,2.077,2.077,0,0,1,.033,1.134,2.142,2.142,0,0,1-.636,1.044l-.009.008-.01.008-2.441,1.935a1.439,1.439,0,0,0-.453,1.294l.833,2.742,0,.019a2.054,2.054,0,0,1-.453,1.711,2.315,2.315,0,0,1-.794.609,2.36,2.36,0,0,1-2.06-.026l-2.617-1.3a1.727,1.727,0,0,0-1.52,0l-2.617,1.3a2.36,2.36,0,0,1-2.06.026,2.322,2.322,0,0,1-.794-.609,2.055,2.055,0,0,1-.453-1.711l.5-2.743a1.438,1.438,0,0,0-.458-1.319l-2.118-1.943a2.138,2.138,0,0,1-.636-1.044,2.073,2.073,0,0,1,.033-1.134,2.23,2.23,0,0,1,1.864-1.531h0l3.258-.4a1.613,1.613,0,0,0,1.208-.813l.975-2.495.009-.016a2.2,2.2,0,0,1,.881-.9A2.391,2.391,0,0,1,2717.26,3962Zm8.317,8.135a1.408,1.408,0,0,0,.409-1.479,1.57,1.57,0,0,0-1.318-1.069l-2.927-.4a2.281,2.281,0,0,1-1.719-1.18l-1.309-2.5a1.674,1.674,0,0,0-2.9-.016l-.975,2.495-.009.016a2.28,2.28,0,0,1-1.719,1.18h0l-3.258.4a1.569,1.569,0,0,0-1.316,1.068,1.409,1.409,0,0,0,.417,1.486l2.118,1.943a2.1,2.1,0,0,1,.664,1.93l-.5,2.743a1.4,1.4,0,0,0,.308,1.164,1.69,1.69,0,0,0,2.046.413l2.617-1.3a2.392,2.392,0,0,1,2.112,0l2.617,1.3a1.691,1.691,0,0,0,2.046-.413,1.4,1.4,0,0,0,.312-1.146l-.833-2.742,0-.019a2.1,2.1,0,0,1,.664-1.93l.009-.008.009-.008Z" transform="translate(-2706.86 -3960.607)" fill="#fff"/>
        <path id="Path_5754-2" data-name="Path 5754" d="M2764.608,3975.244c-2.286-.326-1.633-4.734-3.265-4.408-.437.087-.84.176-.916.762s.681,3.693,2.5,3.952c2.1.3,3.448.15,3.6,1.05a.668.668,0,0,1-.45.6s-2.72,1.491-2.887,3.826a4.431,4.431,0,0,0,.7,3.245c.826.515,1.474.914,1.851.443.653-.816-.326-2.285-.816-4.081s3.116-3.592,3.116-3.592a.728.728,0,0,0,.49-.653C2768.363,3975.407,2766.894,3975.571,2764.608,3975.244Z" transform="translate(-2750.702 -3967.955)" fill="#ffe97a"/>
        <path id="Path_5755-2" data-name="Path 5755" d="M2721.922,3966.972a1.913,1.913,0,0,0-3.345.024l-.936,2.43a1.869,1.869,0,0,1-1.41.978l-3.131.39a1.767,1.767,0,0,0-1.038,3.049l2.033,1.891a1.737,1.737,0,0,1,.539,1.582l-.48,2.671a1.723,1.723,0,0,0,.676,1.7,4.884,4.884,0,0,1,.221-3.176c.961-2.436.961-4.061-.8-4.873s-1.762-2.274,1.122-2.436,3.524-.65,3.844-3.411C2719.433,3965.916,2720.9,3966.133,2721.922,3966.972Z" transform="translate(-2709.938 -3963.94)" fill="#ffe41f"/>
      </g>
    </g>
    <g id="star-4" data-name="star" transform="translate(2953.312 2315.297)">
      <g id="Path_5749-2" data-name="Path 5749" transform="translate(-2547.16 -3953.653)" fill="#ffd500">
        <path d="M 2562.3916015625 3974.1533203125 C 2561.95556640625 3974.1533203125 2561.533203125 3974.046142578125 2561.13623046875 3973.834228515625 L 2558.19580078125 3972.265380859375 C 2557.954833984375 3972.136962890625 2557.68359375 3972.069091796875 2557.411376953125 3972.069091796875 C 2557.13916015625 3972.069091796875 2556.867919921875 3972.136962890625 2556.626708984375 3972.265380859375 L 2553.6865234375 3973.834228515625 C 2553.28955078125 3974.0458984375 2552.8671875 3974.1533203125 2552.431396484375 3974.1533203125 C 2551.645263671875 3974.1533203125 2550.896728515625 3973.80126953125 2550.3779296875 3973.1875 C 2549.854248046875 3972.56787109375 2549.641357421875 3971.77880859375 2549.77880859375 3970.966064453125 L 2550.340576171875 3967.644287109375 C 2550.435302734375 3967.08349609375 2550.252685546875 3966.51220703125 2549.851806640625 3966.11572265625 L 2547.473388671875 3963.76318359375 C 2546.7314453125 3963.029296875 2546.47314453125 3961.95458984375 2546.7998046875 3960.9580078125 C 2547.1220703125 3959.974609375 2547.9521484375 3959.270751953125 2548.9658203125 3959.12109375 L 2552.253662109375 3958.63671875 C 2552.8037109375 3958.554931640625 2553.280029296875 3958.203369140625 2553.527099609375 3957.696044921875 L 2554.996826171875 3954.674072265625 C 2555.452880859375 3953.736083984375 2556.378173828125 3953.1533203125 2557.411376953125 3953.1533203125 C 2558.4443359375 3953.1533203125 2559.36962890625 3953.736083984375 2559.825927734375 3954.674072265625 L 2561.296142578125 3957.6962890625 C 2561.542724609375 3958.203369140625 2562.01904296875 3958.554931640625 2562.56982421875 3958.63671875 L 2565.856689453125 3959.12109375 C 2566.87060546875 3959.270751953125 2567.700927734375 3959.974609375 2568.023193359375 3960.958251953125 C 2568.349853515625 3961.95458984375 2568.091552734375 3963.029296875 2567.349609375 3963.76318359375 L 2564.970947265625 3966.11572265625 C 2564.570068359375 3966.51171875 2564.387451171875 3967.083251953125 2564.48193359375 3967.64453125 L 2565.043701171875 3970.966064453125 C 2565.18115234375 3971.779052734375 2564.96826171875 3972.56787109375 2564.4443359375 3973.1875 C 2563.92578125 3973.80126953125 2563.177490234375 3974.1533203125 2562.3916015625 3974.1533203125 Z" stroke="none"/>
        <path d="M 2557.411376953125 3953.6533203125 C 2556.6298828125 3953.6533203125 2555.84814453125 3954.06640625 2555.446533203125 3954.892822265625 L 2553.9765625 3957.9150390625 C 2553.6572265625 3958.57080078125 2553.040283203125 3959.025390625 2552.326416015625 3959.13134765625 L 2549.038818359375 3959.61572265625 C 2547.24169921875 3959.880859375 2546.52392578125 3962.12109375 2547.824951171875 3963.40771484375 L 2550.203369140625 3965.76025390625 C 2550.719482421875 3966.2705078125 2550.95556640625 3967.00634765625 2550.83349609375 3967.7275390625 L 2550.271728515625 3971.04931640625 C 2549.964599609375 3972.86572265625 2551.84423828125 3974.249755859375 2553.451171875 3973.39306640625 L 2556.3916015625 3971.82421875 C 2557.0302734375 3971.48388671875 2557.79248046875 3971.48388671875 2558.43115234375 3971.82421875 L 2561.37158203125 3973.39306640625 C 2562.977783203125 3974.250732421875 2564.857421875 3972.865966796875 2564.55078125 3971.04931640625 L 2563.989013671875 3967.7275390625 C 2563.867431640625 3967.00634765625 2564.10302734375 3966.2705078125 2564.619384765625 3965.76025390625 L 2566.998046875 3963.40771484375 C 2568.299072265625 3962.12109375 2567.581298828125 3959.880859375 2565.78369140625 3959.61572265625 L 2562.496337890625 3959.13134765625 C 2561.782470703125 3959.025390625 2561.16552734375 3958.57080078125 2560.846435546875 3957.9150390625 L 2559.376220703125 3954.892822265625 C 2558.974365234375 3954.06640625 2558.19287109375 3953.6533203125 2557.411376953125 3953.6533203125 M 2557.411376953125 3952.6533203125 C 2558.637451171875 3952.6533203125 2559.73486328125 3953.343994140625 2560.275390625 3954.45556640625 L 2561.74560546875 3957.4775390625 C 2561.920166015625 3957.836181640625 2562.255615234375 3958.084716796875 2562.64306640625 3958.14208984375 L 2565.929443359375 3958.62646484375 C 2567.13232421875 3958.8037109375 2568.11669921875 3959.6376953125 2568.498291015625 3960.802490234375 C 2568.88427734375 3961.980224609375 2568.578857421875 3963.250732421875 2567.701171875 3964.11865234375 L 2565.322509765625 3966.47119140625 C 2565.037353515625 3966.753173828125 2564.907470703125 3967.16064453125 2564.97509765625 3967.561279296875 L 2565.536865234375 3970.882568359375 C 2565.696533203125 3971.829345703125 2565.4375 3972.787353515625 2564.826171875 3973.510498046875 C 2564.212158203125 3974.23681640625 2563.32470703125 3974.6533203125 2562.3916015625 3974.6533203125 C 2561.87255859375 3974.6533203125 2561.37109375 3974.526123046875 2560.90087890625 3974.275390625 L 2557.96044921875 3972.70654296875 C 2557.791748046875 3972.61669921875 2557.601806640625 3972.569091796875 2557.411376953125 3972.569091796875 C 2557.220947265625 3972.569091796875 2557.031005859375 3972.61669921875 2556.862060546875 3972.70654296875 L 2553.921875 3974.275390625 C 2553.451904296875 3974.526123046875 2552.9501953125 3974.6533203125 2552.431396484375 3974.6533203125 C 2551.497802734375 3974.6533203125 2550.610107421875 3974.23681640625 2549.99609375 3973.51025390625 C 2549.384765625 3972.786865234375 2549.125732421875 3971.829345703125 2549.28564453125 3970.8828125 L 2549.847412109375 3967.560791015625 C 2549.915283203125 3967.160400390625 2549.785400390625 3966.753173828125 2549.500244140625 3966.471435546875 L 2547.121826171875 3964.11865234375 C 2546.244140625 3963.250732421875 2545.938720703125 3961.97998046875 2546.32470703125 3960.802490234375 C 2546.706298828125 3959.6376953125 2547.6904296875 3958.8037109375 2548.892822265625 3958.62646484375 L 2552.1806640625 3958.14208984375 C 2552.567138671875 3958.084716796875 2552.90283203125 3957.836181640625 2553.077392578125 3957.477294921875 L 2554.54736328125 3954.455322265625 C 2555.087646484375 3953.343994140625 2556.18505859375 3952.6533203125 2557.411376953125 3952.6533203125 Z" stroke="none" fill="#fff"/>
      </g>
      <path id="Path_5750-2" data-name="Path 5750" d="M2565.52,3965.024l1.29,2.5a1.92,1.92,0,0,0,1.448,1l2.884.4a1.815,1.815,0,0,1,1.066,3.132l-2.416,1.943a1.784,1.784,0,0,0-.553,1.625l.822,2.743a1.906,1.906,0,0,1-2.79,1.936l-2.58-1.3a2,2,0,0,0-1.789,0l-2.58,1.3a1.906,1.906,0,0,1-2.79-1.936l.492-2.743a1.786,1.786,0,0,0-.552-1.625l-2.088-1.943a1.815,1.815,0,0,1,1.066-3.132l3.214-.4a1.921,1.921,0,0,0,1.448-1l.961-2.5A1.964,1.964,0,0,1,2565.52,3965.024Z" transform="translate(-2553.545 -3962.274)" fill="#fff"/>
      <path id="Path_5751-2" data-name="Path 5751" d="M2565.5,3965a1.964,1.964,0,0,0-3.433.024l-.961,2.5a1.918,1.918,0,0,1-1.448,1l-3.214.4a1.815,1.815,0,0,0-1.066,3.131l2.088,1.943a1.785,1.785,0,0,1,.552,1.625l-.492,2.743a1.771,1.771,0,0,0,.693,1.743,5.021,5.021,0,0,1,.227-3.263c.987-2.5.987-4.171-.822-5s-1.809-2.335,1.151-2.5,3.618-.667,3.947-3.5C2562.949,3963.918,2564.455,3964.141,2565.5,3965Z" transform="translate(-2553.545 -3962.278)" fill="#dedede"/>
    </g>
    <g id="star-5" data-name="star" transform="translate(2975.814 2315.297)">
      <g id="Path_5749-3" data-name="Path 5749" transform="translate(-2547.16 -3953.653)" fill="#ffd500">
        <path d="M 2562.3916015625 3974.1533203125 C 2561.95556640625 3974.1533203125 2561.533203125 3974.046142578125 2561.13623046875 3973.834228515625 L 2558.19580078125 3972.265380859375 C 2557.954833984375 3972.136962890625 2557.68359375 3972.069091796875 2557.411376953125 3972.069091796875 C 2557.13916015625 3972.069091796875 2556.867919921875 3972.136962890625 2556.626708984375 3972.265380859375 L 2553.6865234375 3973.834228515625 C 2553.28955078125 3974.0458984375 2552.8671875 3974.1533203125 2552.431396484375 3974.1533203125 C 2551.645263671875 3974.1533203125 2550.896728515625 3973.80126953125 2550.3779296875 3973.1875 C 2549.854248046875 3972.56787109375 2549.641357421875 3971.77880859375 2549.77880859375 3970.966064453125 L 2550.340576171875 3967.644287109375 C 2550.435302734375 3967.08349609375 2550.252685546875 3966.51220703125 2549.851806640625 3966.11572265625 L 2547.473388671875 3963.76318359375 C 2546.7314453125 3963.029296875 2546.47314453125 3961.95458984375 2546.7998046875 3960.9580078125 C 2547.1220703125 3959.974609375 2547.9521484375 3959.270751953125 2548.9658203125 3959.12109375 L 2552.253662109375 3958.63671875 C 2552.8037109375 3958.554931640625 2553.280029296875 3958.203369140625 2553.527099609375 3957.696044921875 L 2554.996826171875 3954.674072265625 C 2555.452880859375 3953.736083984375 2556.378173828125 3953.1533203125 2557.411376953125 3953.1533203125 C 2558.4443359375 3953.1533203125 2559.36962890625 3953.736083984375 2559.825927734375 3954.674072265625 L 2561.296142578125 3957.6962890625 C 2561.542724609375 3958.203369140625 2562.01904296875 3958.554931640625 2562.56982421875 3958.63671875 L 2565.856689453125 3959.12109375 C 2566.87060546875 3959.270751953125 2567.700927734375 3959.974609375 2568.023193359375 3960.958251953125 C 2568.349853515625 3961.95458984375 2568.091552734375 3963.029296875 2567.349609375 3963.76318359375 L 2564.970947265625 3966.11572265625 C 2564.570068359375 3966.51171875 2564.387451171875 3967.083251953125 2564.48193359375 3967.64453125 L 2565.043701171875 3970.966064453125 C 2565.18115234375 3971.779052734375 2564.96826171875 3972.56787109375 2564.4443359375 3973.1875 C 2563.92578125 3973.80126953125 2563.177490234375 3974.1533203125 2562.3916015625 3974.1533203125 Z" stroke="none"/>
        <path d="M 2557.411376953125 3953.6533203125 C 2556.6298828125 3953.6533203125 2555.84814453125 3954.06640625 2555.446533203125 3954.892822265625 L 2553.9765625 3957.9150390625 C 2553.6572265625 3958.57080078125 2553.040283203125 3959.025390625 2552.326416015625 3959.13134765625 L 2549.038818359375 3959.61572265625 C 2547.24169921875 3959.880859375 2546.52392578125 3962.12109375 2547.824951171875 3963.40771484375 L 2550.203369140625 3965.76025390625 C 2550.719482421875 3966.2705078125 2550.95556640625 3967.00634765625 2550.83349609375 3967.7275390625 L 2550.271728515625 3971.04931640625 C 2549.964599609375 3972.86572265625 2551.84423828125 3974.249755859375 2553.451171875 3973.39306640625 L 2556.3916015625 3971.82421875 C 2557.0302734375 3971.48388671875 2557.79248046875 3971.48388671875 2558.43115234375 3971.82421875 L 2561.37158203125 3973.39306640625 C 2562.977783203125 3974.250732421875 2564.857421875 3972.865966796875 2564.55078125 3971.04931640625 L 2563.989013671875 3967.7275390625 C 2563.867431640625 3967.00634765625 2564.10302734375 3966.2705078125 2564.619384765625 3965.76025390625 L 2566.998046875 3963.40771484375 C 2568.299072265625 3962.12109375 2567.581298828125 3959.880859375 2565.78369140625 3959.61572265625 L 2562.496337890625 3959.13134765625 C 2561.782470703125 3959.025390625 2561.16552734375 3958.57080078125 2560.846435546875 3957.9150390625 L 2559.376220703125 3954.892822265625 C 2558.974365234375 3954.06640625 2558.19287109375 3953.6533203125 2557.411376953125 3953.6533203125 M 2557.411376953125 3952.6533203125 C 2558.637451171875 3952.6533203125 2559.73486328125 3953.343994140625 2560.275390625 3954.45556640625 L 2561.74560546875 3957.4775390625 C 2561.920166015625 3957.836181640625 2562.255615234375 3958.084716796875 2562.64306640625 3958.14208984375 L 2565.929443359375 3958.62646484375 C 2567.13232421875 3958.8037109375 2568.11669921875 3959.6376953125 2568.498291015625 3960.802490234375 C 2568.88427734375 3961.980224609375 2568.578857421875 3963.250732421875 2567.701171875 3964.11865234375 L 2565.322509765625 3966.47119140625 C 2565.037353515625 3966.753173828125 2564.907470703125 3967.16064453125 2564.97509765625 3967.561279296875 L 2565.536865234375 3970.882568359375 C 2565.696533203125 3971.829345703125 2565.4375 3972.787353515625 2564.826171875 3973.510498046875 C 2564.212158203125 3974.23681640625 2563.32470703125 3974.6533203125 2562.3916015625 3974.6533203125 C 2561.87255859375 3974.6533203125 2561.37109375 3974.526123046875 2560.90087890625 3974.275390625 L 2557.96044921875 3972.70654296875 C 2557.791748046875 3972.61669921875 2557.601806640625 3972.569091796875 2557.411376953125 3972.569091796875 C 2557.220947265625 3972.569091796875 2557.031005859375 3972.61669921875 2556.862060546875 3972.70654296875 L 2553.921875 3974.275390625 C 2553.451904296875 3974.526123046875 2552.9501953125 3974.6533203125 2552.431396484375 3974.6533203125 C 2551.497802734375 3974.6533203125 2550.610107421875 3974.23681640625 2549.99609375 3973.51025390625 C 2549.384765625 3972.786865234375 2549.125732421875 3971.829345703125 2549.28564453125 3970.8828125 L 2549.847412109375 3967.560791015625 C 2549.915283203125 3967.160400390625 2549.785400390625 3966.753173828125 2549.500244140625 3966.471435546875 L 2547.121826171875 3964.11865234375 C 2546.244140625 3963.250732421875 2545.938720703125 3961.97998046875 2546.32470703125 3960.802490234375 C 2546.706298828125 3959.6376953125 2547.6904296875 3958.8037109375 2548.892822265625 3958.62646484375 L 2552.1806640625 3958.14208984375 C 2552.567138671875 3958.084716796875 2552.90283203125 3957.836181640625 2553.077392578125 3957.477294921875 L 2554.54736328125 3954.455322265625 C 2555.087646484375 3953.343994140625 2556.18505859375 3952.6533203125 2557.411376953125 3952.6533203125 Z" stroke="none" fill="#fff"/>
      </g>
      <path id="Path_5750-3" data-name="Path 5750" d="M2565.52,3965.024l1.29,2.5a1.92,1.92,0,0,0,1.448,1l2.884.4a1.815,1.815,0,0,1,1.066,3.132l-2.416,1.943a1.784,1.784,0,0,0-.553,1.625l.822,2.743a1.906,1.906,0,0,1-2.79,1.936l-2.58-1.3a2,2,0,0,0-1.789,0l-2.58,1.3a1.906,1.906,0,0,1-2.79-1.936l.492-2.743a1.786,1.786,0,0,0-.552-1.625l-2.088-1.943a1.815,1.815,0,0,1,1.066-3.132l3.214-.4a1.921,1.921,0,0,0,1.448-1l.961-2.5A1.964,1.964,0,0,1,2565.52,3965.024Z" transform="translate(-2553.545 -3962.274)" fill="#fff"/>
      <path id="Path_5751-3" data-name="Path 5751" d="M2565.5,3965a1.964,1.964,0,0,0-3.433.024l-.961,2.5a1.918,1.918,0,0,1-1.448,1l-3.214.4a1.815,1.815,0,0,0-1.066,3.131l2.088,1.943a1.785,1.785,0,0,1,.552,1.625l-.492,2.743a1.771,1.771,0,0,0,.693,1.743,5.021,5.021,0,0,1,.227-3.263c.987-2.5.987-4.171-.822-5s-1.809-2.335,1.151-2.5,3.618-.667,3.947-3.5C2562.949,3963.918,2564.455,3964.141,2565.5,3965Z" transform="translate(-2553.545 -3962.278)" fill="#dedede"/>
    </g>
  </g>
</svg>
