<svg id="reward" xmlns="http://www.w3.org/2000/svg" xmlns:xlink="http://www.w3.org/1999/xlink" width="267.801" height="217.327" viewBox="0 0 267.801 217.327">
  <defs>
    <linearGradient id="linear-gradient" x1="0.5" x2="0.5" y2="1" gradientUnits="objectBoundingBox">
      <stop offset="0" stop-color="#dee8ff"/>
      <stop offset="1" stop-color="#fff"/>
    </linearGradient>
  </defs>
  <g id="bg" transform="translate(-634.634 -345.479)">
    <g id="icons_bg" transform="translate(683.923 372.646)">
      <path id="Path_4322" data-name="Path 4322" d="M69.553-20c39.406,0,87.754,48.348,87.754,87.754s-48.348,79.553-87.754,79.553S-10,107.16-10,67.754,30.146-20,69.553-20Z" transform="translate(10 29.697)" fill="#8baeff"/>
      <path id="Path_4323" data-name="Path 4323" d="M404.132-7650.633c3.529,11.292,32.816,16.937,44.813,46.577s14.467-6.7-6-26.817S400.6-7661.924,404.132-7650.633Z" transform="translate(-281.756 7660.628)" fill="#8baeff"/>
      <path id="Path_4324" data-name="Path 4324" d="M472.534-7556.358c-4.747,2.388-6.1,7.241.743,10.266S477.281-7558.746,472.534-7556.358Z" transform="translate(-360.328 7556.607)" fill="#8baeff"/>
    </g>
    <path id="Polygon_23" data-name="Polygon 23" d="M21.363,24.492a8,8,0,0,1,15.275,0L54.763,82.618A8,8,0,0,1,47.125,93H10.875A8,8,0,0,1,3.237,82.618Z" transform="translate(735.893 454.081) rotate(43)" opacity="0.5" fill="url(#linear-gradient)"/>
    <path id="Polygon_26" data-name="Polygon 26" d="M21.248,30.392c2.048-8.03,13.455-8.03,15.5,0l18.7,73.328A8,8,0,0,1,47.7,113.7H10.3a8,8,0,0,1-7.752-9.977Z" transform="translate(748.05 493.335) rotate(-67)" opacity="0.5" fill="url(#linear-gradient)"/>
    <path id="Polygon_24" data-name="Polygon 24" d="M15.546,25.782a4,4,0,0,1,7.908,0l14.84,96.766a4,4,0,0,1-3.954,4.606H4.66a4,4,0,0,1-3.954-4.606Z" transform="matrix(0.225, 0.974, -0.974, 0.225, 758.53, 451.21)" opacity="0.5" fill="url(#linear-gradient)"/>
    <path id="Polygon_25" data-name="Polygon 25" d="M15.536,29.189a4,4,0,0,1,7.927,0l14.92,109.874A4,4,0,0,1,34.42,143.6H4.58a4,4,0,0,1-3.964-4.538Z" transform="translate(761.473 477.271) rotate(-101)" opacity="0.5" fill="url(#linear-gradient)"/>
    <path id="Polygon_27" data-name="Polygon 27" d="M5.435,20.181a1,1,0,0,1,2,0l5.383,108.769a1,1,0,0,1-1,1.049H1.051a1,1,0,0,1-1-1.049Z" transform="translate(785.848 464.219) rotate(-120)" fill="#fff" opacity="0.5"/>
    <path id="Polygon_28" data-name="Polygon 28" d="M5.435,16.527a1,1,0,0,1,2,0L12.8,105.463a1,1,0,0,1-1,1.06H1.062a1,1,0,0,1-1-1.06Z" transform="translate(762.068 457.785) rotate(90)" fill="#fff" opacity="0.5"/>
    <path id="ic_circle" d="M628.18,100.74c-5.78-.02-8.53,2.73-8.53,8.53.01,5.33,3.45,8.91,8.55,8.88a9.044,9.044,0,0,0,8.86-8.79C637.1,104.42,633.32,100.75,628.18,100.74Zm-.2,13.72c-2.63-.9-5.11-2-4.89-5.25.22-3.19,2.25-5.14,5.43-5.01,3.12.12,4.69,2.56,4.64,5.33C633.1,112.48,630.9,114.02,627.98,114.46Z" transform="translate(201.862 444.656)" fill="#ffba00"/>
    <path id="ic_triangle" data-name="ic+triangle" d="M461.16,259.39c.12-10.77-.17-11.72-9.03-5.61-.14.09-.31.14-.45.22-8.91,5.25-8.94,5.3-.06,10.46,2.77,1.6,6.03,4.87,8.67,3.34C462.9,266.29,460.73,261.91,461.16,259.39Zm-3.62,2.92c-2.144,1.482-3.642-.808-5.743-1.937a1.347,1.347,0,0,1-.355-2.134c1.85-1.887,3.628-3.121,5.558-2.239C458.85,256.83,458.76,261.47,457.54,262.31Z" transform="translate(193.944 220.656)" fill="#b3c5f0"/>
    <path id="ic_triangle-2" data-name="ic+triangle" d="M461.16,259.39c.12-10.77-.17-11.72-9.03-5.61-.14.09-.31.14-.45.22-8.91,5.25-8.94,5.3-.06,10.46,2.77,1.6,6.03,4.87,8.67,3.34C462.9,266.29,460.73,261.91,461.16,259.39Zm-3.62,2.92c-2.144,1.482-3.642-.808-5.743-1.937a1.347,1.347,0,0,1-.355-2.134c1.85-1.887,3.628-3.121,5.558-2.239C458.85,256.83,458.76,261.47,457.54,262.31Z" transform="translate(938.018 -61.372) rotate(93)" fill="#ffba00"/>
    <path id="ic_med" d="M491.458,583.768c-.9,0-1.807-.069-2.695.015-1.876.178-2.332-.672-2.417-2.463-.44-8.832-.494-8.825-9.164-8.832-.9,0-1.807-.008-2.7-.008-4.648.008-5.868,1.228-5.914,5.937a22.392,22.392,0,0,0,.015,2.695c.232,1.977-.479,2.9-2.556,2.679a25.619,25.619,0,0,0-3.081-.023c-4.478.031-5.381.911-5.52,5.4-.031,1.158,0,2.316,0,3.474,0,8.639,0,8.686,8.616,9.242,1.683.108,2.455.4,2.579,2.347.571,8.856.641,8.848,9.5,8.8.772,0,1.536,0,2.308-.008,4.849-.039,5.891-1.058,5.968-5.837.085-5.219.085-5.219,5.358-5.25,4.617-.023,5.659-1.042,5.721-5.59.008-1.158,0-2.316,0-3.474,0-1.027.008-2.054,0-3.088C497.442,584.524,496.7,583.783,491.458,583.768Zm2.308,6.8a11.422,11.422,0,0,0-.015,1.544c0,5.628,0,5.628-5.775,5.628-5.458,0-5.5.046-5.52,5.675a6.442,6.442,0,0,0,.008,1.158c.595,3.59-.594,5.3-4.493,4.571a27.737,27.737,0,0,0-4.609-.116c-.062-1.884-.031-3.775-.2-5.644-.154-1.753.865-3.9-1.49-5.011-2.671-1.289-5.536-.54-8.307-.672-1.637-.077-2.409-.54-2.146-2.231a2.146,2.146,0,0,0,0-.386c-.239-7.157-.232-7.311,6.871-7.142,3.3.085,4.2-1.189,4.2-4.254.008-7.69.679-8.137,8.446-7.088,1.2.162,1.976.432,1.861,1.807a11.45,11.45,0,0,0,.008,1.15c.224,8.145.224,8.207,8.57,8.446C493.087,588.06,494.122,588.454,493.767,590.569Z" transform="translate(489.336 -291.508) rotate(9)" fill="#b3c5f0"/>
    <path id="ic_circle-2" data-name="ic_circle" d="M628.18,100.74c-5.78-.02-8.53,2.73-8.53,8.53.01,5.33,3.45,8.91,8.55,8.88a9.044,9.044,0,0,0,8.86-8.79C637.1,104.42,633.32,100.75,628.18,100.74Zm-.2,13.72c-2.63-.9-5.11-2-4.89-5.25.22-3.19,2.25-5.14,5.43-5.01,3.12.12,4.69,2.56,4.64,5.33C633.1,112.48,630.9,114.02,627.98,114.46Z" transform="translate(91.862 254.656)" fill="#b3c5f0"/>
  </g>
  <g id="icons" transform="translate(-634.634 -345.479)">
    <g id="Group_13548" data-name="Group 13548" transform="translate(-694.865 -4.517)">
      <g id="Group_13543" data-name="Group 13543" transform="translate(1372.41 367.528)">
        <path id="Path_5823" data-name="Path 5823" d="M1608.062,961.5a45.405,45.405,0,0,0-86.38,0C1550.211,970.186,1579.022,969.609,1608.062,961.5Z" transform="translate(-1490.334 -811.957)" fill="#ffba00"/>
        <g id="Group_13542" data-name="Group 13542">
          <g id="Group_13539" data-name="Group 13539" transform="translate(22.844 16.994)">
            <g id="Group_13538" data-name="Group 13538">
              <path id="Path_5824" data-name="Path 5824" d="M1762.311,674.483c-.007.181-.713,18.4-3.068,40.515-2.466,23.133-2.143,20.487-3.625,27.027a7.163,7.163,0,0,0,7.175,0c1.777-8.03,1.08-4.405,3.411-26.285,2.383-22.366,3.1-40.809,3.1-40.993Z" transform="translate(-1697.987 -627.015)" fill="#825729"/>
              <path id="Path_5825" data-name="Path 5825" d="M1601.063,509.041c-.113-.157-.231-.314-.353-.471-4.555-5.948-14.073-12.03-24.979-15.417l2.177-.236-2.326-9.867,4.941,9.583,7.445-.807-1.923-8.158,4.085,7.924,9.386-1.017q-.194-.38-.407-.754l-.01-.018,0,0c-4.155-7.322-13.207-12.758-23.73-13.38a31.448,31.448,0,0,0-10.62,1.142l3.348-3.758-5.522-1.9,6.811.457,4.086-4.584-3.45-1.189,4.254.285,4.8-5.388c-.143.007-.287.017-.434.03-.115.01-.233.022-.351.035l-.04,0h0c-5.433.611-13.052,4.7-19.816,11.068a47.372,47.372,0,0,0-8.11,9.825,53.252,53.252,0,0,0-8.485-18.4c-6.342-9.067-13.968-14.852-19.629-15.545-.149-.019-.3-.035-.443-.046l4.268,7.472,4.508-.335-3.792,1.588,3.632,6.357L1537.6,463l-6.071,2.541,4.538,7.942,1.525-.112-1.283.537.187.326a58.593,58.593,0,0,0-17.95-7.281c-14.327-3.308-27.831-1.393-35.19,4.173h0l-.008.006-.14.108c-.2.158-.406.317-.6.48l12.4,4.478,7.411-6.177-4.555,7.208,9.835,3.551,8.963-7.471-5.508,8.718,11.609,4.191,3.435-2.865-2.111,3.342,3.541,1.279a82.154,82.154,0,0,0-15.673,2.034c-13.986,3.142-25.538,9.139-30.4,15.146-.125.154-.247.307-.363.461L1492,504.089l2.966-5.162-1.152,4.907,9.2-1.3,4.749-8.263-1.845,7.855,11.495-1.619,1-1.746-.39,1.659L1535.267,498a34.393,34.393,0,0,0-10.027,9.062c-4.946,6.593-6.737,13.629-5.2,18.355v0l.02.056c.031.094.063.189.1.281.046.127.094.253.147.376l4.571-4.79-2.143-3.6,2.91,2.8,3.888-4.075-3.429-5.771,4.656,4.485,4.859-5.091-.725-1.219.984.948,13.1-13.726c-.022.064-.044.129-.064.194-.01.031-.018.063-.027.094q-.045.157-.081.318c-.008.034-.016.068-.023.1-.027.134-.051.269-.069.407,0,.024-.005.049-.008.073-.014.118-.025.238-.032.359,0,.039,0,.078-.006.118-.006.145-.009.291-.006.44l3.131.648,12.066,12.8.385-1.675-.093,1.987,5.492,5.825,1.826-7.93-.439,9.4,4.4,4.663,1.141-4.952-.275,5.872,5.167,5.482c-.006-.2-.017-.4-.029-.605-.008-.134-.018-.269-.029-.4,0-.034,0-.068-.007-.1v0c-.585-7.3-4.5-16.9-10.612-24.862q-.75-.978-1.51-1.879l3.367.7-.547-1.63,1.021,1.729,8.869,1.836-2.593-7.717,4.834,8.181,7.1,1.469-1.619-4.82,3.019,5.11Zm-33.835-18.846.548,1.064-.31-.05Z" transform="translate(-1481.19 -448.449)" fill="#239323"/>
            </g>
            <path id="Path_5826" data-name="Path 5826" d="M1775.925,673.358c-1.436-2.288-4.058-3.229-5.856-2.1a3.332,3.332,0,0,0-1.437,2.084,3.957,3.957,0,0,0-3.672-2.828,3.269,3.269,0,0,0-2.061.886,3.077,3.077,0,0,0-.783-.714c-1.8-1.131-4.42-.2-5.86,2.092s-1.15,5.056.647,6.188a3.065,3.065,0,0,0,.827.362,4.048,4.048,0,0,0,2.344,4.333,3.792,3.792,0,0,0,3.939-1.207,3.071,3.071,0,0,0,2.691-.1,3.913,3.913,0,0,0,4.121,1.8,4.044,4.044,0,0,0,2.618-4.142,3.2,3.2,0,0,0,1.827-.475C1777.068,678.416,1777.362,675.646,1775.925,673.358Z" transform="translate(-1697.767 -623.636)" fill="#5a3a19"/>
          </g>
          <g id="Group_13541" data-name="Group 13541">
            <g id="Group_13540" data-name="Group 13540">
              <path id="Path_5827" data-name="Path 5827" d="M1635.955,666.773c-2.644-24.828-3.438-45.281-3.446-45.485l-7.856.3c.008.206.811,20.913,3.485,46.021,2.618,24.565,1.89,23.38,3.886,32.4,2.978,1.31,5.691,1.439,8.055,0C1638.416,692.659,1638.723,692.745,1635.955,666.773Z" transform="translate(-1571.682 -567.997)" fill="#ad702f"/>
              <path id="Path_5828" data-name="Path 5828" d="M1479.551,427.608l-.026-.031h0c-3.83-4.43-12.4-8.8-22.716-11.122-7.263-1.632-14.025-1.939-19.1-1.117l14.033-5.066-1.836-2.906,2.987,2.491,10.094-3.645-4.789-7.58,7.793,6.5,8.553-3.088-3.96-6.267,6.443,5.37,10.781-3.893c-.176-.148-.359-.293-.545-.436l-.086-.067-.018-.013h0c-6.4-4.84-18.14-6.5-30.6-3.629a51.709,51.709,0,0,0-14.494,5.654l1.516-2.653-1.442-.6,1.714.126,5.093-8.916-6.816-2.852,8.1.6,4.077-7.136-4.256-1.781,5.059.374,4.792-8.388c-.161.012-.325.03-.49.051-6.356.773-14.923,7.269-22.045,17.453a59.782,59.782,0,0,0-9.526,20.659,53.173,53.173,0,0,0-9.105-11.028c-7.787-7.335-16.584-11.974-22.71-12.472q-.234-.02-.463-.032l5.391,6.05,4.776-.321-3.872,1.335,4.585,5.146,7.649-.513-6.2,2.138,3.37,3.782a35.934,35.934,0,0,0-11.946-1.562c-11.826.413-21.908,6.274-26.447,14.384h0l-.007.013-.078.143c-.127.231-.251.464-.369.7l10.576,1.4,4.45-8.787-2.015,9.109,6.555.865c-7.935,3.461-14.157,8.468-17.072,13.567-.1.17-.193.34-.283.51l8.707-1.456,2.221-5.635-.759,5.391,7.409-1.239,3.555-9.021-1.217,8.63,9.256-1.548.751-1.907-.257,1.824,6.039-1.01a53.319,53.319,0,0,0-5.456,6.13c-6.857,8.944-11.255,19.713-11.912,27.912v0c0,.029,0,.058-.006.088-.013.167-.026.335-.036.5-.014.223-.025.444-.032.662l5.8-6.154-.307-6.594,1.28,5.561,4.934-5.235-.492-10.555,2.05,8.9,6.166-6.541-.1-2.231.434,1.882,16.4-17.4.43.06,14.584,15.285,1.105-1.064-.814,1.368,5.455,5.717,5.228-5.036-3.85,6.48,4.366,4.575,3.265-3.145-2.4,4.047,5.131,5.377c.058-.137.112-.277.163-.419.038-.1.074-.208.109-.314.008-.023.016-.045.023-.068v0c1.73-5.305-.28-13.2-5.832-20.607a38.784,38.784,0,0,0-10.953-10l7.161,1.008-.295-1.256.759,1.321,8.7,1.225-1.4-5.944,3.594,6.253,6.961.98-.872-3.712,2.244,3.905,8.182,1.152c-.092-.123-.189-.245-.29-.367C1479.714,427.8,1479.633,427.7,1479.551,427.608Zm-80.359-21.956-1.852,8.375q-1.478.468-2.9,1.007Z" transform="translate(-1372.41 -367.528)" fill="#2fc62f"/>
            </g>
            <path id="Path_5829" data-name="Path 5829" d="M1606.341,619.375c-1.617-2.566-4.561-3.618-6.579-2.348a3.457,3.457,0,0,0-.879.8,3.67,3.67,0,0,0-2.315-1,4.444,4.444,0,0,0-4.122,3.175,3.744,3.744,0,0,0-1.612-2.34c-2.02-1.268-4.964-.212-6.576,2.357s-1.284,5.679.735,6.947a3.591,3.591,0,0,0,2.048.533c-.01,2.227,1.123,4.144,2.943,4.648a4.393,4.393,0,0,0,4.627-2.025,3.446,3.446,0,0,0,3.02.109,4.258,4.258,0,0,0,4.423,1.355c1.793-.624,2.8-2.628,2.635-4.865a3.439,3.439,0,0,0,.925-.406C1607.632,625.052,1607.957,621.941,1606.341,619.375Z" transform="translate(-1538.96 -564.205)" fill="#5b3c20"/>
          </g>
        </g>
      </g>
      <g id="Group_13547" data-name="Group 13547" transform="translate(1439.321 435.615)">
        <g id="Group_13545" data-name="Group 13545" transform="translate(15.551 0)">
          <path id="Path_5830" data-name="Path 5830" d="M2037.279,726.06l-.017.027-.433-.817Z" transform="translate(-1979.761 -718.23)" fill="#ab1212"/>
          <path id="Path_5831" data-name="Path 5831" d="M2033.354,725.073l-.924-.025.017-.027Z" transform="translate(-1976.285 -718.032)" fill="#ab1212"/>
          <path id="Path_5832" data-name="Path 5832" d="M1844.157,754.31l-17.447-20.335-2.442-2.846-6.17-3.83-2.888-1.793-1.355-.842-2.887-1.793-6.17-3.831-3.633-.926-25.963-6.621-10.122-1.982.575,1.413,5.947,14.648,18.5,16.055,9.541,5.924,1.357.842,9.541,5.926,5.744,2.4.22.092h0l.479.2,1.184.494,0,0,.533.225.972.407.447.187.076.032.758.317.12.05.68.286.674.281.89.374.044.019,2.982,1.247.153.065.1.04.4.17h0l2.529,1.058.132.055.122.05.4.168.561.235,2.388,1,15.765-1.163,1.523-.113Z" transform="translate(-1765.08 -705.779)" fill="#b3c5f0"/>
          <path id="Path_5833" data-name="Path 5833" d="M1831.1,782.512l-4.051,6.523-10.16,16.364-14.768,23.781-.865,1.39,0,0-1.833,2.955-.181.29-1.327,2.138-.1.155-.181.29-.22.355-.368.592v0l-.061.1h0l-.174.284-.823,1.323-.367.594-.554.89-.124.2-.055.088-.321.519-.466.75-.178.288-.254.407-.2.332-.181.288-.042.067-.277.449-.01.017-.5.8-.219.353-5.166,8.318h-1.877l5.229-8.421.359-.58.38-.609.227-.365.229-.37.118-.189.178-.288v0l.279-.449.256-.409.718-1.159.17-.275.181-.288.034-.055.036-.059.7-1.128.164-.265.168-.271.92-1.483.147-.233v0l.4-.645.063-.1.115-.189,1.424-2.293.107-.17v0l.073-.118.79-1.271v0l16.872-27.171,10.162-16.364,4.051-6.523Z" transform="translate(-1780.967 -762.785)" fill="#586d9c"/>
          <path id="Path_5834" data-name="Path 5834" d="M2037.909,692.965l-4.106,6.611-.017.027-.433-.817-.924-.025.017-.027,4.106-6.611a.8.8,0,0,1,1.357.842Z" transform="translate(-1976.285 -691.746)" fill="#586d9c"/>
          <path id="Path_5835" data-name="Path 5835" d="M1850.422,762.5l-1.523.113c-4.6-5.487-11.483-11.828-19.965-18.317-4-3.064-8.365-6.162-13.012-9.219q-2.334-1.531-4.763-3.051l-.676-.422-.678-.42q-2.435-1.5-4.849-2.913c-4.8-2.81-9.509-5.347-14.031-7.577-9.578-4.725-18.312-8.083-25.27-9.774l-.575-1.413,10.122,1.982,25.963,6.621,3.633.926,6.17,3.831,2.887,1.793,1.355.842,2.888,1.793,6.17,3.83,2.442,2.846,17.447,20.335Z" transform="translate(-1765.08 -705.779)" opacity="0.2"/>
          <g id="Group_13544" data-name="Group 13544" transform="translate(0 3.731)">
            <path id="Path_5836" data-name="Path 5836" d="M2037.279,726.06l-.017.027-.433-.817Z" transform="translate(-1979.761 -721.96)" fill="#fff5a6"/>
            <path id="Path_5837" data-name="Path 5837" d="M2033.354,725.073l-.924-.025.017-.027Z" transform="translate(-1976.285 -721.763)" fill="#fff5a6"/>
            <path id="Path_5838" data-name="Path 5838" d="M1850.422,762.5l-6.265-8.192-17.447-20.335-2.442-2.846-6.17-3.83-2.888-1.793-1.355-.842-2.888-1.793-6.17-3.831-3.633-.926-25.963-6.621-10.122-1.982,56.162,3.257-.017.027.924.025.433.817.017-.027Z" transform="translate(-1765.08 -709.51)" fill="#fff"/>
          </g>
        </g>
        <g id="Group_13546" data-name="Group 13546" transform="translate(0 49.599)">
          <path id="Path_5839" data-name="Path 5839" d="M1738.947,943.035h0l-.321-1.9,14.689-10.818-1.757-2.385h-1.026l-35.574,26.2-21.947-7.5h-1.025l-.958,2.8,20.7,7.076-13.668,10.067,1.757,2.385h1.026l15-11.047,1.688.577h0l30.631,10.469h1.026l.958-2.8-7.743-2.646Zm-19.877,12.5,17.616-12.974,3.4,20.158Z" transform="translate(-1691.028 -927.927)" fill="#efefef"/>
          <path id="Path_5840" data-name="Path 5840" d="M1781.456,934.332h-23.839a1.287,1.287,0,0,0-1.257,1.015h0a1.275,1.275,0,0,0-.029.271,1.3,1.3,0,0,0,.013.175l.006.042a1.28,1.28,0,0,0,.1.323l.017.036a1.274,1.274,0,0,0,.083.145h0l0,0c-2.265,3.949-11.051,18.588-20.194,24.918-.8-.4-1.554-.814-2.251-1.225a44.514,44.514,0,0,1-7.807-5.875,1.287,1.287,0,0,0-1.186-1.786h-23.839a1.287,1.287,0,0,0,0,2.574h.356l.006.006q.251.24.563.526l.045.041.283.256.047.042q.166.148.345.305l.054.046.31.268.1.084c.123.1.249.21.38.319l.014.012c.132.11.27.222.409.335l.128.1.336.268.119.094q.221.174.454.351l.121.091q.184.14.375.282l.156.115q.231.17.471.343l.058.042c.168.12.34.241.514.362l.166.114q.214.147.435.3l.141.095q.283.189.576.377l.138.088q.238.152.482.3l.176.109c.207.127.417.254.631.38a31.173,31.173,0,0,0,15.777,4.7c.2,0,.405,0,.607-.011l.245-.009.3-.017q.355-.021.708-.053h0c.135.011.269.021.4.03.218.015.436.028.654.038l.223.007c.275.009.55.016.823.016h.256l.14,0h.017c.424-.011.941-.039,1.511-.079h0c.343.028.685.049,1.026.063h0c.342.014.682.022,1.022.022h.2c.474-.006,1.107-.032,1.823-.074q.487.038.972.056h.006q.487.019.972.019l.183,0,.074,0,.126,0,.1,0,.112,0,.131-.007.1,0,.155-.009.086-.005.179-.012.068,0,.21-.015.042,0,.247-.02q.238.02.475.036c.206.014.412.026.617.035l.262.009c.27.009.538.016.806.016h.268l.192,0h.049l.234,0h.025c.475-.008,1.039-.022,1.651-.044h.016c.247.015.494.028.741.036.267.01.533.015.8.015l.208,0,.072,0,.16-.006.1,0,.159-.009.109-.007.168-.011.116-.008.183-.015.117-.009.214-.019.1-.009h.016c.756.067,1.508.1,2.255.1a23.892,23.892,0,0,0,5.658-.671c11.455-2.786,23.676-23.241,26.453-28.128h.066a1.287,1.287,0,0,0,0-2.573Z" transform="translate(-1698.108 -932.987)" fill="#c42600"/>
          <path id="Path_5841" data-name="Path 5841" d="M1857.346,943.035h0l-.321-1.9,14.688-10.818-1.757-2.385h-1.026l-35.574,26.2-21.947-7.5h-1.026l-.958,2.8,20.7,7.076-13.668,10.067,1.757,2.385h1.026l15-11.047,1.688.577h0l30.631,10.469h1.025l.958-2.8-7.743-2.646Zm-19.877,12.5,17.616-12.974,3.4,20.158Z" transform="translate(-1784.563 -927.927)" fill="#efefef"/>
        </g>
      </g>
    </g>
  </g>
  <g id="stars" transform="translate(-2807.517 -2143.083)">
    <g id="star" transform="translate(2885.805 2315.298)">
      <g id="Group_13491" data-name="Group 13491">
        <g id="Path_5752" data-name="Path 5752" transform="translate(-2702.16 -3953.653)" fill="#ffd500">
          <path d="M 2717.61279296875 3974.1533203125 C 2717.1728515625 3974.1533203125 2716.746337890625 3974.046630859375 2716.34521484375 3973.835693359375 L 2713.362060546875 3972.266845703125 C 2713.115966796875 3972.1376953125 2712.838623046875 3972.0693359375 2712.560302734375 3972.0693359375 C 2712.281982421875 3972.0693359375 2712.004638671875 3972.1376953125 2711.75830078125 3972.266845703125 L 2708.775146484375 3973.835693359375 C 2708.3740234375 3974.04638671875 2707.94775390625 3974.1533203125 2707.507568359375 3974.1533203125 C 2706.70458984375 3974.1533203125 2705.94287109375 3973.7958984375 2705.41748046875 3973.1728515625 C 2704.896728515625 3972.554931640625 2704.685791015625 3971.770751953125 2704.82421875 3970.96484375 L 2705.393798828125 3967.64306640625 C 2705.48974609375 3967.083984375 2705.304443359375 3966.513916015625 2704.898193359375 3966.11767578125 L 2702.48486328125 3963.765380859375 C 2701.7373046875 3963.036865234375 2701.47314453125 3961.96728515625 2701.795654296875 3960.97412109375 C 2702.118408203125 3959.98095703125 2702.960693359375 3959.27099609375 2703.994140625 3959.120849609375 L 2707.3291015625 3958.635986328125 C 2707.890869140625 3958.55419921875 2708.3759765625 3958.201904296875 2708.626708984375 3957.693359375 L 2710.118408203125 3954.6708984375 C 2710.58056640625 3953.734619140625 2711.516357421875 3953.1533203125 2712.560302734375 3953.1533203125 C 2713.604248046875 3953.1533203125 2714.5400390625 3953.734619140625 2715.001953125 3954.670654296875 L 2716.49365234375 3957.693359375 C 2716.74462890625 3958.201904296875 2717.229736328125 3958.55419921875 2717.791259765625 3958.635986328125 L 2721.12646484375 3959.120849609375 C 2722.15966796875 3959.270751953125 2723.001953125 3959.98095703125 2723.32470703125 3960.97412109375 C 2723.647216796875 3961.96728515625 2723.38330078125 3963.03662109375 2722.635498046875 3963.765380859375 L 2720.22216796875 3966.117919921875 C 2719.815673828125 3966.513916015625 2719.630615234375 3967.083984375 2719.726318359375 3967.64306640625 L 2720.29638671875 3970.96484375 C 2720.434326171875 3971.770751953125 2720.2236328125 3972.554931640625 2719.70263671875 3973.172607421875 C 2719.17724609375 3973.7958984375 2718.41552734375 3974.1533203125 2717.61279296875 3974.1533203125 Z" stroke="none"/>
          <path d="M 2712.560302734375 3953.653076171875 C 2711.767578125 3953.653076171875 2710.974609375 3954.066162109375 2710.56689453125 3954.89208984375 L 2709.0751953125 3957.91455078125 C 2708.75146484375 3958.57080078125 2708.12548828125 3959.025390625 2707.401123046875 3959.130859375 L 2704.06591796875 3959.61572265625 C 2702.242431640625 3959.88037109375 2701.514404296875 3962.12158203125 2702.833984375 3963.4072265625 L 2705.247314453125 3965.759765625 C 2705.77099609375 3966.2705078125 2706.01025390625 3967.00634765625 2705.88671875 3967.7275390625 L 2705.31689453125 3971.04931640625 C 2705.00537109375 3972.865966796875 2706.910888671875 3974.250732421875 2708.54248046875 3973.39306640625 L 2711.52587890625 3971.82421875 C 2712.173828125 3971.484619140625 2712.94775390625 3971.484619140625 2713.5947265625 3971.82421875 L 2716.577880859375 3973.39306640625 C 2718.20751953125 3974.251220703125 2720.11474609375 3972.86572265625 2719.803466796875 3971.04931640625 L 2719.233642578125 3967.7275390625 C 2719.10986328125 3967.00634765625 2719.34912109375 3966.2705078125 2719.873046875 3965.759765625 L 2722.28662109375 3963.4072265625 C 2723.60595703125 3962.12158203125 2722.8779296875 3959.88037109375 2721.054443359375 3959.61572265625 L 2717.71923828125 3959.130859375 C 2716.9951171875 3959.025390625 2716.369140625 3958.57080078125 2716.045166015625 3957.91455078125 L 2714.5537109375 3954.89208984375 C 2714.14599609375 3954.066162109375 2713.35302734375 3953.653076171875 2712.560302734375 3953.653076171875 M 2712.560302734375 3952.653076171875 C 2713.796142578125 3952.653076171875 2714.903564453125 3953.341552734375 2715.450439453125 3954.449462890625 L 2716.94189453125 3957.471923828125 C 2717.1201171875 3957.8330078125 2717.464599609375 3958.083251953125 2717.86328125 3958.141357421875 L 2721.1982421875 3958.626220703125 C 2722.421142578125 3958.8037109375 2723.418212890625 3959.64404296875 2723.800048828125 3960.819580078125 C 2724.18212890625 3961.9951171875 2723.86962890625 3963.260986328125 2722.984619140625 3964.12353515625 L 2720.571044921875 3966.475830078125 C 2720.28271484375 3966.757080078125 2720.151123046875 3967.16162109375 2720.21923828125 3967.558349609375 L 2720.7890625 3970.880126953125 C 2720.9501953125 3971.8203125 2720.693359375 3972.7734375 2720.084716796875 3973.495361328125 C 2719.464111328125 3974.231201171875 2718.563232421875 3974.6533203125 2717.61279296875 3974.6533203125 C 2717.0908203125 3974.6533203125 2716.5859375 3974.527099609375 2716.112548828125 3974.278076171875 L 2713.129150390625 3972.709228515625 C 2712.955078125 3972.617919921875 2712.758056640625 3972.5693359375 2712.560302734375 3972.5693359375 C 2712.362548828125 3972.5693359375 2712.16552734375 3972.617919921875 2711.99072265625 3972.709716796875 L 2709.0078125 3974.278076171875 C 2708.5341796875 3974.527099609375 2708.029541015625 3974.6533203125 2707.507568359375 3974.6533203125 C 2706.556884765625 3974.6533203125 2705.65576171875 3974.231201171875 2705.035400390625 3973.4951171875 C 2704.4267578125 3972.7734375 2704.170166015625 3971.8203125 2704.331298828125 3970.88037109375 L 2704.901123046875 3967.558349609375 C 2704.968994140625 3967.161865234375 2704.83740234375 3966.7568359375 2704.549072265625 3966.4755859375 L 2702.135986328125 3964.123291015625 C 2701.2509765625 3963.260986328125 2700.938232421875 3961.9951171875 2701.3203125 3960.819580078125 C 2701.7021484375 3959.64404296875 2702.69921875 3958.8037109375 2703.92236328125 3958.6259765625 L 2707.25732421875 3958.141357421875 C 2707.656005859375 3958.083251953125 2708.000244140625 3957.8330078125 2708.178466796875 3957.47216796875 L 2709.670166015625 3954.449462890625 C 2710.217041015625 3953.341552734375 2711.324462890625 3952.653076171875 2712.560302734375 3952.653076171875 Z" stroke="none" fill="#fff"/>
        </g>
        <path id="Path_5753" data-name="Path 5753" d="M2720.675,3965.023l1.309,2.5a1.947,1.947,0,0,0,1.469,1l2.927.4a1.809,1.809,0,0,1,1.081,3.131l-2.451,1.943a1.769,1.769,0,0,0-.561,1.625l.833,2.743a1.929,1.929,0,0,1-2.83,1.936l-2.617-1.3a2.059,2.059,0,0,0-1.815,0l-2.618,1.3a1.929,1.929,0,0,1-2.83-1.936l.5-2.743a1.77,1.77,0,0,0-.561-1.625l-2.117-1.943a1.809,1.809,0,0,1,1.081-3.131l3.26-.4a1.946,1.946,0,0,0,1.469-1l.975-2.5A2.007,2.007,0,0,1,2720.675,3965.023Z" transform="translate(-2708.526 -3962.274)" fill="#ffb300"/>
        <path id="Path_5753_-_Outline" data-name="Path 5753 - Outline" d="M2717.26,3962a2.392,2.392,0,0,1,1.164.3,2.205,2.205,0,0,1,.881.9l1.309,2.5a1.611,1.611,0,0,0,1.218.829l2.926.4a2.231,2.231,0,0,1,1.865,1.531,2.077,2.077,0,0,1,.033,1.134,2.142,2.142,0,0,1-.636,1.044l-.009.008-.01.008-2.441,1.935a1.439,1.439,0,0,0-.453,1.294l.833,2.742,0,.019a2.054,2.054,0,0,1-.453,1.711,2.315,2.315,0,0,1-.794.609,2.36,2.36,0,0,1-2.06-.026l-2.617-1.3a1.727,1.727,0,0,0-1.52,0l-2.617,1.3a2.36,2.36,0,0,1-2.06.026,2.322,2.322,0,0,1-.794-.609,2.055,2.055,0,0,1-.453-1.711l.5-2.743a1.438,1.438,0,0,0-.458-1.319l-2.118-1.943a2.138,2.138,0,0,1-.636-1.044,2.073,2.073,0,0,1,.033-1.134,2.23,2.23,0,0,1,1.864-1.531h0l3.258-.4a1.613,1.613,0,0,0,1.208-.813l.975-2.495.009-.016a2.2,2.2,0,0,1,.881-.9A2.391,2.391,0,0,1,2717.26,3962Zm8.317,8.135a1.408,1.408,0,0,0,.409-1.479,1.57,1.57,0,0,0-1.318-1.069l-2.927-.4a2.281,2.281,0,0,1-1.719-1.18l-1.309-2.5a1.674,1.674,0,0,0-2.9-.016l-.975,2.495-.009.016a2.28,2.28,0,0,1-1.719,1.18h0l-3.258.4a1.569,1.569,0,0,0-1.316,1.068,1.409,1.409,0,0,0,.417,1.486l2.118,1.943a2.1,2.1,0,0,1,.664,1.93l-.5,2.743a1.4,1.4,0,0,0,.308,1.164,1.69,1.69,0,0,0,2.046.413l2.617-1.3a2.392,2.392,0,0,1,2.112,0l2.617,1.3a1.691,1.691,0,0,0,2.046-.413,1.4,1.4,0,0,0,.312-1.146l-.833-2.742,0-.019a2.1,2.1,0,0,1,.664-1.93l.009-.008.009-.008Z" transform="translate(-2706.86 -3960.607)" fill="#fff"/>
        <path id="Path_5754" data-name="Path 5754" d="M2764.608,3975.244c-2.286-.326-1.633-4.734-3.265-4.408-.437.087-.84.176-.916.762s.681,3.693,2.5,3.952c2.1.3,3.448.15,3.6,1.05a.668.668,0,0,1-.45.6s-2.72,1.491-2.887,3.826a4.431,4.431,0,0,0,.7,3.245c.826.515,1.474.914,1.851.443.653-.816-.326-2.285-.816-4.081s3.116-3.592,3.116-3.592a.728.728,0,0,0,.49-.653C2768.363,3975.407,2766.894,3975.571,2764.608,3975.244Z" transform="translate(-2750.702 -3967.955)" fill="#ffe97a"/>
        <path id="Path_5755" data-name="Path 5755" d="M2721.922,3966.972a1.913,1.913,0,0,0-3.345.024l-.936,2.43a1.869,1.869,0,0,1-1.41.978l-3.131.39a1.767,1.767,0,0,0-1.038,3.049l2.033,1.891a1.737,1.737,0,0,1,.539,1.582l-.48,2.671a1.723,1.723,0,0,0,.676,1.7,4.884,4.884,0,0,1,.221-3.176c.961-2.436.961-4.061-.8-4.873s-1.762-2.274,1.122-2.436,3.524-.65,3.844-3.411C2719.433,3965.916,2720.9,3966.133,2721.922,3966.972Z" transform="translate(-2709.938 -3963.94)" fill="#ffe41f"/>
      </g>
    </g>
    <g id="star-2" data-name="star" transform="translate(2930.81 2315.297)">
      <g id="Path_5749" data-name="Path 5749" transform="translate(-2547.16 -3953.653)" fill="#ffd500">
        <path d="M 2562.3916015625 3974.1533203125 C 2561.95556640625 3974.1533203125 2561.533203125 3974.046142578125 2561.13623046875 3973.834228515625 L 2558.19580078125 3972.265380859375 C 2557.954833984375 3972.136962890625 2557.68359375 3972.069091796875 2557.411376953125 3972.069091796875 C 2557.13916015625 3972.069091796875 2556.867919921875 3972.136962890625 2556.626708984375 3972.265380859375 L 2553.6865234375 3973.834228515625 C 2553.28955078125 3974.0458984375 2552.8671875 3974.1533203125 2552.431396484375 3974.1533203125 C 2551.645263671875 3974.1533203125 2550.896728515625 3973.80126953125 2550.3779296875 3973.1875 C 2549.854248046875 3972.56787109375 2549.641357421875 3971.77880859375 2549.77880859375 3970.966064453125 L 2550.340576171875 3967.644287109375 C 2550.435302734375 3967.08349609375 2550.252685546875 3966.51220703125 2549.851806640625 3966.11572265625 L 2547.473388671875 3963.76318359375 C 2546.7314453125 3963.029296875 2546.47314453125 3961.95458984375 2546.7998046875 3960.9580078125 C 2547.1220703125 3959.974609375 2547.9521484375 3959.270751953125 2548.9658203125 3959.12109375 L 2552.253662109375 3958.63671875 C 2552.8037109375 3958.554931640625 2553.280029296875 3958.203369140625 2553.527099609375 3957.696044921875 L 2554.996826171875 3954.674072265625 C 2555.452880859375 3953.736083984375 2556.378173828125 3953.1533203125 2557.411376953125 3953.1533203125 C 2558.4443359375 3953.1533203125 2559.36962890625 3953.736083984375 2559.825927734375 3954.674072265625 L 2561.296142578125 3957.6962890625 C 2561.542724609375 3958.203369140625 2562.01904296875 3958.554931640625 2562.56982421875 3958.63671875 L 2565.856689453125 3959.12109375 C 2566.87060546875 3959.270751953125 2567.700927734375 3959.974609375 2568.023193359375 3960.958251953125 C 2568.349853515625 3961.95458984375 2568.091552734375 3963.029296875 2567.349609375 3963.76318359375 L 2564.970947265625 3966.11572265625 C 2564.570068359375 3966.51171875 2564.387451171875 3967.083251953125 2564.48193359375 3967.64453125 L 2565.043701171875 3970.966064453125 C 2565.18115234375 3971.779052734375 2564.96826171875 3972.56787109375 2564.4443359375 3973.1875 C 2563.92578125 3973.80126953125 2563.177490234375 3974.1533203125 2562.3916015625 3974.1533203125 Z" stroke="none"/>
        <path d="M 2557.411376953125 3953.6533203125 C 2556.6298828125 3953.6533203125 2555.84814453125 3954.06640625 2555.446533203125 3954.892822265625 L 2553.9765625 3957.9150390625 C 2553.6572265625 3958.57080078125 2553.040283203125 3959.025390625 2552.326416015625 3959.13134765625 L 2549.038818359375 3959.61572265625 C 2547.24169921875 3959.880859375 2546.52392578125 3962.12109375 2547.824951171875 3963.40771484375 L 2550.203369140625 3965.76025390625 C 2550.719482421875 3966.2705078125 2550.95556640625 3967.00634765625 2550.83349609375 3967.7275390625 L 2550.271728515625 3971.04931640625 C 2549.964599609375 3972.86572265625 2551.84423828125 3974.249755859375 2553.451171875 3973.39306640625 L 2556.3916015625 3971.82421875 C 2557.0302734375 3971.48388671875 2557.79248046875 3971.48388671875 2558.43115234375 3971.82421875 L 2561.37158203125 3973.39306640625 C 2562.977783203125 3974.250732421875 2564.857421875 3972.865966796875 2564.55078125 3971.04931640625 L 2563.989013671875 3967.7275390625 C 2563.867431640625 3967.00634765625 2564.10302734375 3966.2705078125 2564.619384765625 3965.76025390625 L 2566.998046875 3963.40771484375 C 2568.299072265625 3962.12109375 2567.581298828125 3959.880859375 2565.78369140625 3959.61572265625 L 2562.496337890625 3959.13134765625 C 2561.782470703125 3959.025390625 2561.16552734375 3958.57080078125 2560.846435546875 3957.9150390625 L 2559.376220703125 3954.892822265625 C 2558.974365234375 3954.06640625 2558.19287109375 3953.6533203125 2557.411376953125 3953.6533203125 M 2557.411376953125 3952.6533203125 C 2558.637451171875 3952.6533203125 2559.73486328125 3953.343994140625 2560.275390625 3954.45556640625 L 2561.74560546875 3957.4775390625 C 2561.920166015625 3957.836181640625 2562.255615234375 3958.084716796875 2562.64306640625 3958.14208984375 L 2565.929443359375 3958.62646484375 C 2567.13232421875 3958.8037109375 2568.11669921875 3959.6376953125 2568.498291015625 3960.802490234375 C 2568.88427734375 3961.980224609375 2568.578857421875 3963.250732421875 2567.701171875 3964.11865234375 L 2565.322509765625 3966.47119140625 C 2565.037353515625 3966.753173828125 2564.907470703125 3967.16064453125 2564.97509765625 3967.561279296875 L 2565.536865234375 3970.882568359375 C 2565.696533203125 3971.829345703125 2565.4375 3972.787353515625 2564.826171875 3973.510498046875 C 2564.212158203125 3974.23681640625 2563.32470703125 3974.6533203125 2562.3916015625 3974.6533203125 C 2561.87255859375 3974.6533203125 2561.37109375 3974.526123046875 2560.90087890625 3974.275390625 L 2557.96044921875 3972.70654296875 C 2557.791748046875 3972.61669921875 2557.601806640625 3972.569091796875 2557.411376953125 3972.569091796875 C 2557.220947265625 3972.569091796875 2557.031005859375 3972.61669921875 2556.862060546875 3972.70654296875 L 2553.921875 3974.275390625 C 2553.451904296875 3974.526123046875 2552.9501953125 3974.6533203125 2552.431396484375 3974.6533203125 C 2551.497802734375 3974.6533203125 2550.610107421875 3974.23681640625 2549.99609375 3973.51025390625 C 2549.384765625 3972.786865234375 2549.125732421875 3971.829345703125 2549.28564453125 3970.8828125 L 2549.847412109375 3967.560791015625 C 2549.915283203125 3967.160400390625 2549.785400390625 3966.753173828125 2549.500244140625 3966.471435546875 L 2547.121826171875 3964.11865234375 C 2546.244140625 3963.250732421875 2545.938720703125 3961.97998046875 2546.32470703125 3960.802490234375 C 2546.706298828125 3959.6376953125 2547.6904296875 3958.8037109375 2548.892822265625 3958.62646484375 L 2552.1806640625 3958.14208984375 C 2552.567138671875 3958.084716796875 2552.90283203125 3957.836181640625 2553.077392578125 3957.477294921875 L 2554.54736328125 3954.455322265625 C 2555.087646484375 3953.343994140625 2556.18505859375 3952.6533203125 2557.411376953125 3952.6533203125 Z" stroke="none" fill="#fff"/>
      </g>
      <path id="Path_5750" data-name="Path 5750" d="M2565.52,3965.024l1.29,2.5a1.92,1.92,0,0,0,1.448,1l2.884.4a1.815,1.815,0,0,1,1.066,3.132l-2.416,1.943a1.784,1.784,0,0,0-.553,1.625l.822,2.743a1.906,1.906,0,0,1-2.79,1.936l-2.58-1.3a2,2,0,0,0-1.789,0l-2.58,1.3a1.906,1.906,0,0,1-2.79-1.936l.492-2.743a1.786,1.786,0,0,0-.552-1.625l-2.088-1.943a1.815,1.815,0,0,1,1.066-3.132l3.214-.4a1.921,1.921,0,0,0,1.448-1l.961-2.5A1.964,1.964,0,0,1,2565.52,3965.024Z" transform="translate(-2553.545 -3962.274)" fill="#fff"/>
      <path id="Path_5751" data-name="Path 5751" d="M2565.5,3965a1.964,1.964,0,0,0-3.433.024l-.961,2.5a1.918,1.918,0,0,1-1.448,1l-3.214.4a1.815,1.815,0,0,0-1.066,3.131l2.088,1.943a1.785,1.785,0,0,1,.552,1.625l-.492,2.743a1.771,1.771,0,0,0,.693,1.743,5.021,5.021,0,0,1,.227-3.263c.987-2.5.987-4.171-.822-5s-1.809-2.335,1.151-2.5,3.618-.667,3.947-3.5C2562.949,3963.918,2564.455,3964.141,2565.5,3965Z" transform="translate(-2553.545 -3962.278)" fill="#dedede"/>
    </g>
    <g id="star-3" data-name="star" transform="translate(2908.307 2315.297)">
      <g id="Path_5749-2" data-name="Path 5749" transform="translate(-2547.16 -3953.653)" fill="#ffd500">
        <path d="M 2562.3916015625 3974.1533203125 C 2561.95556640625 3974.1533203125 2561.533203125 3974.046142578125 2561.13623046875 3973.834228515625 L 2558.19580078125 3972.265380859375 C 2557.954833984375 3972.136962890625 2557.68359375 3972.069091796875 2557.411376953125 3972.069091796875 C 2557.13916015625 3972.069091796875 2556.867919921875 3972.136962890625 2556.626708984375 3972.265380859375 L 2553.6865234375 3973.834228515625 C 2553.28955078125 3974.0458984375 2552.8671875 3974.1533203125 2552.431396484375 3974.1533203125 C 2551.645263671875 3974.1533203125 2550.896728515625 3973.80126953125 2550.3779296875 3973.1875 C 2549.854248046875 3972.56787109375 2549.641357421875 3971.77880859375 2549.77880859375 3970.966064453125 L 2550.340576171875 3967.644287109375 C 2550.435302734375 3967.08349609375 2550.252685546875 3966.51220703125 2549.851806640625 3966.11572265625 L 2547.473388671875 3963.76318359375 C 2546.7314453125 3963.029296875 2546.47314453125 3961.95458984375 2546.7998046875 3960.9580078125 C 2547.1220703125 3959.974609375 2547.9521484375 3959.270751953125 2548.9658203125 3959.12109375 L 2552.253662109375 3958.63671875 C 2552.8037109375 3958.554931640625 2553.280029296875 3958.203369140625 2553.527099609375 3957.696044921875 L 2554.996826171875 3954.674072265625 C 2555.452880859375 3953.736083984375 2556.378173828125 3953.1533203125 2557.411376953125 3953.1533203125 C 2558.4443359375 3953.1533203125 2559.36962890625 3953.736083984375 2559.825927734375 3954.674072265625 L 2561.296142578125 3957.6962890625 C 2561.542724609375 3958.203369140625 2562.01904296875 3958.554931640625 2562.56982421875 3958.63671875 L 2565.856689453125 3959.12109375 C 2566.87060546875 3959.270751953125 2567.700927734375 3959.974609375 2568.023193359375 3960.958251953125 C 2568.349853515625 3961.95458984375 2568.091552734375 3963.029296875 2567.349609375 3963.76318359375 L 2564.970947265625 3966.11572265625 C 2564.570068359375 3966.51171875 2564.387451171875 3967.083251953125 2564.48193359375 3967.64453125 L 2565.043701171875 3970.966064453125 C 2565.18115234375 3971.779052734375 2564.96826171875 3972.56787109375 2564.4443359375 3973.1875 C 2563.92578125 3973.80126953125 2563.177490234375 3974.1533203125 2562.3916015625 3974.1533203125 Z" stroke="none"/>
        <path d="M 2557.411376953125 3953.6533203125 C 2556.6298828125 3953.6533203125 2555.84814453125 3954.06640625 2555.446533203125 3954.892822265625 L 2553.9765625 3957.9150390625 C 2553.6572265625 3958.57080078125 2553.040283203125 3959.025390625 2552.326416015625 3959.13134765625 L 2549.038818359375 3959.61572265625 C 2547.24169921875 3959.880859375 2546.52392578125 3962.12109375 2547.824951171875 3963.40771484375 L 2550.203369140625 3965.76025390625 C 2550.719482421875 3966.2705078125 2550.95556640625 3967.00634765625 2550.83349609375 3967.7275390625 L 2550.271728515625 3971.04931640625 C 2549.964599609375 3972.86572265625 2551.84423828125 3974.249755859375 2553.451171875 3973.39306640625 L 2556.3916015625 3971.82421875 C 2557.0302734375 3971.48388671875 2557.79248046875 3971.48388671875 2558.43115234375 3971.82421875 L 2561.37158203125 3973.39306640625 C 2562.977783203125 3974.250732421875 2564.857421875 3972.865966796875 2564.55078125 3971.04931640625 L 2563.989013671875 3967.7275390625 C 2563.867431640625 3967.00634765625 2564.10302734375 3966.2705078125 2564.619384765625 3965.76025390625 L 2566.998046875 3963.40771484375 C 2568.299072265625 3962.12109375 2567.581298828125 3959.880859375 2565.78369140625 3959.61572265625 L 2562.496337890625 3959.13134765625 C 2561.782470703125 3959.025390625 2561.16552734375 3958.57080078125 2560.846435546875 3957.9150390625 L 2559.376220703125 3954.892822265625 C 2558.974365234375 3954.06640625 2558.19287109375 3953.6533203125 2557.411376953125 3953.6533203125 M 2557.411376953125 3952.6533203125 C 2558.637451171875 3952.6533203125 2559.73486328125 3953.343994140625 2560.275390625 3954.45556640625 L 2561.74560546875 3957.4775390625 C 2561.920166015625 3957.836181640625 2562.255615234375 3958.084716796875 2562.64306640625 3958.14208984375 L 2565.929443359375 3958.62646484375 C 2567.13232421875 3958.8037109375 2568.11669921875 3959.6376953125 2568.498291015625 3960.802490234375 C 2568.88427734375 3961.980224609375 2568.578857421875 3963.250732421875 2567.701171875 3964.11865234375 L 2565.322509765625 3966.47119140625 C 2565.037353515625 3966.753173828125 2564.907470703125 3967.16064453125 2564.97509765625 3967.561279296875 L 2565.536865234375 3970.882568359375 C 2565.696533203125 3971.829345703125 2565.4375 3972.787353515625 2564.826171875 3973.510498046875 C 2564.212158203125 3974.23681640625 2563.32470703125 3974.6533203125 2562.3916015625 3974.6533203125 C 2561.87255859375 3974.6533203125 2561.37109375 3974.526123046875 2560.90087890625 3974.275390625 L 2557.96044921875 3972.70654296875 C 2557.791748046875 3972.61669921875 2557.601806640625 3972.569091796875 2557.411376953125 3972.569091796875 C 2557.220947265625 3972.569091796875 2557.031005859375 3972.61669921875 2556.862060546875 3972.70654296875 L 2553.921875 3974.275390625 C 2553.451904296875 3974.526123046875 2552.9501953125 3974.6533203125 2552.431396484375 3974.6533203125 C 2551.497802734375 3974.6533203125 2550.610107421875 3974.23681640625 2549.99609375 3973.51025390625 C 2549.384765625 3972.786865234375 2549.125732421875 3971.829345703125 2549.28564453125 3970.8828125 L 2549.847412109375 3967.560791015625 C 2549.915283203125 3967.160400390625 2549.785400390625 3966.753173828125 2549.500244140625 3966.471435546875 L 2547.121826171875 3964.11865234375 C 2546.244140625 3963.250732421875 2545.938720703125 3961.97998046875 2546.32470703125 3960.802490234375 C 2546.706298828125 3959.6376953125 2547.6904296875 3958.8037109375 2548.892822265625 3958.62646484375 L 2552.1806640625 3958.14208984375 C 2552.567138671875 3958.084716796875 2552.90283203125 3957.836181640625 2553.077392578125 3957.477294921875 L 2554.54736328125 3954.455322265625 C 2555.087646484375 3953.343994140625 2556.18505859375 3952.6533203125 2557.411376953125 3952.6533203125 Z" stroke="none" fill="#fff"/>
      </g>
      <path id="Path_5750-2" data-name="Path 5750" d="M2565.52,3965.024l1.29,2.5a1.92,1.92,0,0,0,1.448,1l2.884.4a1.815,1.815,0,0,1,1.066,3.132l-2.416,1.943a1.784,1.784,0,0,0-.553,1.625l.822,2.743a1.906,1.906,0,0,1-2.79,1.936l-2.58-1.3a2,2,0,0,0-1.789,0l-2.58,1.3a1.906,1.906,0,0,1-2.79-1.936l.492-2.743a1.786,1.786,0,0,0-.552-1.625l-2.088-1.943a1.815,1.815,0,0,1,1.066-3.132l3.214-.4a1.921,1.921,0,0,0,1.448-1l.961-2.5A1.964,1.964,0,0,1,2565.52,3965.024Z" transform="translate(-2553.545 -3962.274)" fill="#fff"/>
      <path id="Path_5751-2" data-name="Path 5751" d="M2565.5,3965a1.964,1.964,0,0,0-3.433.024l-.961,2.5a1.918,1.918,0,0,1-1.448,1l-3.214.4a1.815,1.815,0,0,0-1.066,3.131l2.088,1.943a1.785,1.785,0,0,1,.552,1.625l-.492,2.743a1.771,1.771,0,0,0,.693,1.743,5.021,5.021,0,0,1,.227-3.263c.987-2.5.987-4.171-.822-5s-1.809-2.335,1.151-2.5,3.618-.667,3.947-3.5C2562.949,3963.918,2564.455,3964.141,2565.5,3965Z" transform="translate(-2553.545 -3962.278)" fill="#dedede"/>
    </g>
    <g id="star-4" data-name="star" transform="translate(2953.312 2315.297)">
      <g id="Path_5749-3" data-name="Path 5749" transform="translate(-2547.16 -3953.653)" fill="#ffd500">
        <path d="M 2562.3916015625 3974.1533203125 C 2561.95556640625 3974.1533203125 2561.533203125 3974.046142578125 2561.13623046875 3973.834228515625 L 2558.19580078125 3972.265380859375 C 2557.954833984375 3972.136962890625 2557.68359375 3972.069091796875 2557.411376953125 3972.069091796875 C 2557.13916015625 3972.069091796875 2556.867919921875 3972.136962890625 2556.626708984375 3972.265380859375 L 2553.6865234375 3973.834228515625 C 2553.28955078125 3974.0458984375 2552.8671875 3974.1533203125 2552.431396484375 3974.1533203125 C 2551.645263671875 3974.1533203125 2550.896728515625 3973.80126953125 2550.3779296875 3973.1875 C 2549.854248046875 3972.56787109375 2549.641357421875 3971.77880859375 2549.77880859375 3970.966064453125 L 2550.340576171875 3967.644287109375 C 2550.435302734375 3967.08349609375 2550.252685546875 3966.51220703125 2549.851806640625 3966.11572265625 L 2547.473388671875 3963.76318359375 C 2546.7314453125 3963.029296875 2546.47314453125 3961.95458984375 2546.7998046875 3960.9580078125 C 2547.1220703125 3959.974609375 2547.9521484375 3959.270751953125 2548.9658203125 3959.12109375 L 2552.253662109375 3958.63671875 C 2552.8037109375 3958.554931640625 2553.280029296875 3958.203369140625 2553.527099609375 3957.696044921875 L 2554.996826171875 3954.674072265625 C 2555.452880859375 3953.736083984375 2556.378173828125 3953.1533203125 2557.411376953125 3953.1533203125 C 2558.4443359375 3953.1533203125 2559.36962890625 3953.736083984375 2559.825927734375 3954.674072265625 L 2561.296142578125 3957.6962890625 C 2561.542724609375 3958.203369140625 2562.01904296875 3958.554931640625 2562.56982421875 3958.63671875 L 2565.856689453125 3959.12109375 C 2566.87060546875 3959.270751953125 2567.700927734375 3959.974609375 2568.023193359375 3960.958251953125 C 2568.349853515625 3961.95458984375 2568.091552734375 3963.029296875 2567.349609375 3963.76318359375 L 2564.970947265625 3966.11572265625 C 2564.570068359375 3966.51171875 2564.387451171875 3967.083251953125 2564.48193359375 3967.64453125 L 2565.043701171875 3970.966064453125 C 2565.18115234375 3971.779052734375 2564.96826171875 3972.56787109375 2564.4443359375 3973.1875 C 2563.92578125 3973.80126953125 2563.177490234375 3974.1533203125 2562.3916015625 3974.1533203125 Z" stroke="none"/>
        <path d="M 2557.411376953125 3953.6533203125 C 2556.6298828125 3953.6533203125 2555.84814453125 3954.06640625 2555.446533203125 3954.892822265625 L 2553.9765625 3957.9150390625 C 2553.6572265625 3958.57080078125 2553.040283203125 3959.025390625 2552.326416015625 3959.13134765625 L 2549.038818359375 3959.61572265625 C 2547.24169921875 3959.880859375 2546.52392578125 3962.12109375 2547.824951171875 3963.40771484375 L 2550.203369140625 3965.76025390625 C 2550.719482421875 3966.2705078125 2550.95556640625 3967.00634765625 2550.83349609375 3967.7275390625 L 2550.271728515625 3971.04931640625 C 2549.964599609375 3972.86572265625 2551.84423828125 3974.249755859375 2553.451171875 3973.39306640625 L 2556.3916015625 3971.82421875 C 2557.0302734375 3971.48388671875 2557.79248046875 3971.48388671875 2558.43115234375 3971.82421875 L 2561.37158203125 3973.39306640625 C 2562.977783203125 3974.250732421875 2564.857421875 3972.865966796875 2564.55078125 3971.04931640625 L 2563.989013671875 3967.7275390625 C 2563.867431640625 3967.00634765625 2564.10302734375 3966.2705078125 2564.619384765625 3965.76025390625 L 2566.998046875 3963.40771484375 C 2568.299072265625 3962.12109375 2567.581298828125 3959.880859375 2565.78369140625 3959.61572265625 L 2562.496337890625 3959.13134765625 C 2561.782470703125 3959.025390625 2561.16552734375 3958.57080078125 2560.846435546875 3957.9150390625 L 2559.376220703125 3954.892822265625 C 2558.974365234375 3954.06640625 2558.19287109375 3953.6533203125 2557.411376953125 3953.6533203125 M 2557.411376953125 3952.6533203125 C 2558.637451171875 3952.6533203125 2559.73486328125 3953.343994140625 2560.275390625 3954.45556640625 L 2561.74560546875 3957.4775390625 C 2561.920166015625 3957.836181640625 2562.255615234375 3958.084716796875 2562.64306640625 3958.14208984375 L 2565.929443359375 3958.62646484375 C 2567.13232421875 3958.8037109375 2568.11669921875 3959.6376953125 2568.498291015625 3960.802490234375 C 2568.88427734375 3961.980224609375 2568.578857421875 3963.250732421875 2567.701171875 3964.11865234375 L 2565.322509765625 3966.47119140625 C 2565.037353515625 3966.753173828125 2564.907470703125 3967.16064453125 2564.97509765625 3967.561279296875 L 2565.536865234375 3970.882568359375 C 2565.696533203125 3971.829345703125 2565.4375 3972.787353515625 2564.826171875 3973.510498046875 C 2564.212158203125 3974.23681640625 2563.32470703125 3974.6533203125 2562.3916015625 3974.6533203125 C 2561.87255859375 3974.6533203125 2561.37109375 3974.526123046875 2560.90087890625 3974.275390625 L 2557.96044921875 3972.70654296875 C 2557.791748046875 3972.61669921875 2557.601806640625 3972.569091796875 2557.411376953125 3972.569091796875 C 2557.220947265625 3972.569091796875 2557.031005859375 3972.61669921875 2556.862060546875 3972.70654296875 L 2553.921875 3974.275390625 C 2553.451904296875 3974.526123046875 2552.9501953125 3974.6533203125 2552.431396484375 3974.6533203125 C 2551.497802734375 3974.6533203125 2550.610107421875 3974.23681640625 2549.99609375 3973.51025390625 C 2549.384765625 3972.786865234375 2549.125732421875 3971.829345703125 2549.28564453125 3970.8828125 L 2549.847412109375 3967.560791015625 C 2549.915283203125 3967.160400390625 2549.785400390625 3966.753173828125 2549.500244140625 3966.471435546875 L 2547.121826171875 3964.11865234375 C 2546.244140625 3963.250732421875 2545.938720703125 3961.97998046875 2546.32470703125 3960.802490234375 C 2546.706298828125 3959.6376953125 2547.6904296875 3958.8037109375 2548.892822265625 3958.62646484375 L 2552.1806640625 3958.14208984375 C 2552.567138671875 3958.084716796875 2552.90283203125 3957.836181640625 2553.077392578125 3957.477294921875 L 2554.54736328125 3954.455322265625 C 2555.087646484375 3953.343994140625 2556.18505859375 3952.6533203125 2557.411376953125 3952.6533203125 Z" stroke="none" fill="#fff"/>
      </g>
      <path id="Path_5750-3" data-name="Path 5750" d="M2565.52,3965.024l1.29,2.5a1.92,1.92,0,0,0,1.448,1l2.884.4a1.815,1.815,0,0,1,1.066,3.132l-2.416,1.943a1.784,1.784,0,0,0-.553,1.625l.822,2.743a1.906,1.906,0,0,1-2.79,1.936l-2.58-1.3a2,2,0,0,0-1.789,0l-2.58,1.3a1.906,1.906,0,0,1-2.79-1.936l.492-2.743a1.786,1.786,0,0,0-.552-1.625l-2.088-1.943a1.815,1.815,0,0,1,1.066-3.132l3.214-.4a1.921,1.921,0,0,0,1.448-1l.961-2.5A1.964,1.964,0,0,1,2565.52,3965.024Z" transform="translate(-2553.545 -3962.274)" fill="#fff"/>
      <path id="Path_5751-3" data-name="Path 5751" d="M2565.5,3965a1.964,1.964,0,0,0-3.433.024l-.961,2.5a1.918,1.918,0,0,1-1.448,1l-3.214.4a1.815,1.815,0,0,0-1.066,3.131l2.088,1.943a1.785,1.785,0,0,1,.552,1.625l-.492,2.743a1.771,1.771,0,0,0,.693,1.743,5.021,5.021,0,0,1,.227-3.263c.987-2.5.987-4.171-.822-5s-1.809-2.335,1.151-2.5,3.618-.667,3.947-3.5C2562.949,3963.918,2564.455,3964.141,2565.5,3965Z" transform="translate(-2553.545 -3962.278)" fill="#dedede"/>
    </g>
    <g id="star-5" data-name="star" transform="translate(2975.814 2315.297)">
      <g id="Path_5749-4" data-name="Path 5749" transform="translate(-2547.16 -3953.653)" fill="#ffd500">
        <path d="M 2562.3916015625 3974.1533203125 C 2561.95556640625 3974.1533203125 2561.533203125 3974.046142578125 2561.13623046875 3973.834228515625 L 2558.19580078125 3972.265380859375 C 2557.954833984375 3972.136962890625 2557.68359375 3972.069091796875 2557.411376953125 3972.069091796875 C 2557.13916015625 3972.069091796875 2556.867919921875 3972.136962890625 2556.626708984375 3972.265380859375 L 2553.6865234375 3973.834228515625 C 2553.28955078125 3974.0458984375 2552.8671875 3974.1533203125 2552.431396484375 3974.1533203125 C 2551.645263671875 3974.1533203125 2550.896728515625 3973.80126953125 2550.3779296875 3973.1875 C 2549.854248046875 3972.56787109375 2549.641357421875 3971.77880859375 2549.77880859375 3970.966064453125 L 2550.340576171875 3967.644287109375 C 2550.435302734375 3967.08349609375 2550.252685546875 3966.51220703125 2549.851806640625 3966.11572265625 L 2547.473388671875 3963.76318359375 C 2546.7314453125 3963.029296875 2546.47314453125 3961.95458984375 2546.7998046875 3960.9580078125 C 2547.1220703125 3959.974609375 2547.9521484375 3959.270751953125 2548.9658203125 3959.12109375 L 2552.253662109375 3958.63671875 C 2552.8037109375 3958.554931640625 2553.280029296875 3958.203369140625 2553.527099609375 3957.696044921875 L 2554.996826171875 3954.674072265625 C 2555.452880859375 3953.736083984375 2556.378173828125 3953.1533203125 2557.411376953125 3953.1533203125 C 2558.4443359375 3953.1533203125 2559.36962890625 3953.736083984375 2559.825927734375 3954.674072265625 L 2561.296142578125 3957.6962890625 C 2561.542724609375 3958.203369140625 2562.01904296875 3958.554931640625 2562.56982421875 3958.63671875 L 2565.856689453125 3959.12109375 C 2566.87060546875 3959.270751953125 2567.700927734375 3959.974609375 2568.023193359375 3960.958251953125 C 2568.349853515625 3961.95458984375 2568.091552734375 3963.029296875 2567.349609375 3963.76318359375 L 2564.970947265625 3966.11572265625 C 2564.570068359375 3966.51171875 2564.387451171875 3967.083251953125 2564.48193359375 3967.64453125 L 2565.043701171875 3970.966064453125 C 2565.18115234375 3971.779052734375 2564.96826171875 3972.56787109375 2564.4443359375 3973.1875 C 2563.92578125 3973.80126953125 2563.177490234375 3974.1533203125 2562.3916015625 3974.1533203125 Z" stroke="none"/>
        <path d="M 2557.411376953125 3953.6533203125 C 2556.6298828125 3953.6533203125 2555.84814453125 3954.06640625 2555.446533203125 3954.892822265625 L 2553.9765625 3957.9150390625 C 2553.6572265625 3958.57080078125 2553.040283203125 3959.025390625 2552.326416015625 3959.13134765625 L 2549.038818359375 3959.61572265625 C 2547.24169921875 3959.880859375 2546.52392578125 3962.12109375 2547.824951171875 3963.40771484375 L 2550.203369140625 3965.76025390625 C 2550.719482421875 3966.2705078125 2550.95556640625 3967.00634765625 2550.83349609375 3967.7275390625 L 2550.271728515625 3971.04931640625 C 2549.964599609375 3972.86572265625 2551.84423828125 3974.249755859375 2553.451171875 3973.39306640625 L 2556.3916015625 3971.82421875 C 2557.0302734375 3971.48388671875 2557.79248046875 3971.48388671875 2558.43115234375 3971.82421875 L 2561.37158203125 3973.39306640625 C 2562.977783203125 3974.250732421875 2564.857421875 3972.865966796875 2564.55078125 3971.04931640625 L 2563.989013671875 3967.7275390625 C 2563.867431640625 3967.00634765625 2564.10302734375 3966.2705078125 2564.619384765625 3965.76025390625 L 2566.998046875 3963.40771484375 C 2568.299072265625 3962.12109375 2567.581298828125 3959.880859375 2565.78369140625 3959.61572265625 L 2562.496337890625 3959.13134765625 C 2561.782470703125 3959.025390625 2561.16552734375 3958.57080078125 2560.846435546875 3957.9150390625 L 2559.376220703125 3954.892822265625 C 2558.974365234375 3954.06640625 2558.19287109375 3953.6533203125 2557.411376953125 3953.6533203125 M 2557.411376953125 3952.6533203125 C 2558.637451171875 3952.6533203125 2559.73486328125 3953.343994140625 2560.275390625 3954.45556640625 L 2561.74560546875 3957.4775390625 C 2561.920166015625 3957.836181640625 2562.255615234375 3958.084716796875 2562.64306640625 3958.14208984375 L 2565.929443359375 3958.62646484375 C 2567.13232421875 3958.8037109375 2568.11669921875 3959.6376953125 2568.498291015625 3960.802490234375 C 2568.88427734375 3961.980224609375 2568.578857421875 3963.250732421875 2567.701171875 3964.11865234375 L 2565.322509765625 3966.47119140625 C 2565.037353515625 3966.753173828125 2564.907470703125 3967.16064453125 2564.97509765625 3967.561279296875 L 2565.536865234375 3970.882568359375 C 2565.696533203125 3971.829345703125 2565.4375 3972.787353515625 2564.826171875 3973.510498046875 C 2564.212158203125 3974.23681640625 2563.32470703125 3974.6533203125 2562.3916015625 3974.6533203125 C 2561.87255859375 3974.6533203125 2561.37109375 3974.526123046875 2560.90087890625 3974.275390625 L 2557.96044921875 3972.70654296875 C 2557.791748046875 3972.61669921875 2557.601806640625 3972.569091796875 2557.411376953125 3972.569091796875 C 2557.220947265625 3972.569091796875 2557.031005859375 3972.61669921875 2556.862060546875 3972.70654296875 L 2553.921875 3974.275390625 C 2553.451904296875 3974.526123046875 2552.9501953125 3974.6533203125 2552.431396484375 3974.6533203125 C 2551.497802734375 3974.6533203125 2550.610107421875 3974.23681640625 2549.99609375 3973.51025390625 C 2549.384765625 3972.786865234375 2549.125732421875 3971.829345703125 2549.28564453125 3970.8828125 L 2549.847412109375 3967.560791015625 C 2549.915283203125 3967.160400390625 2549.785400390625 3966.753173828125 2549.500244140625 3966.471435546875 L 2547.121826171875 3964.11865234375 C 2546.244140625 3963.250732421875 2545.938720703125 3961.97998046875 2546.32470703125 3960.802490234375 C 2546.706298828125 3959.6376953125 2547.6904296875 3958.8037109375 2548.892822265625 3958.62646484375 L 2552.1806640625 3958.14208984375 C 2552.567138671875 3958.084716796875 2552.90283203125 3957.836181640625 2553.077392578125 3957.477294921875 L 2554.54736328125 3954.455322265625 C 2555.087646484375 3953.343994140625 2556.18505859375 3952.6533203125 2557.411376953125 3952.6533203125 Z" stroke="none" fill="#fff"/>
      </g>
      <path id="Path_5750-4" data-name="Path 5750" d="M2565.52,3965.024l1.29,2.5a1.92,1.92,0,0,0,1.448,1l2.884.4a1.815,1.815,0,0,1,1.066,3.132l-2.416,1.943a1.784,1.784,0,0,0-.553,1.625l.822,2.743a1.906,1.906,0,0,1-2.79,1.936l-2.58-1.3a2,2,0,0,0-1.789,0l-2.58,1.3a1.906,1.906,0,0,1-2.79-1.936l.492-2.743a1.786,1.786,0,0,0-.552-1.625l-2.088-1.943a1.815,1.815,0,0,1,1.066-3.132l3.214-.4a1.921,1.921,0,0,0,1.448-1l.961-2.5A1.964,1.964,0,0,1,2565.52,3965.024Z" transform="translate(-2553.545 -3962.274)" fill="#fff"/>
      <path id="Path_5751-4" data-name="Path 5751" d="M2565.5,3965a1.964,1.964,0,0,0-3.433.024l-.961,2.5a1.918,1.918,0,0,1-1.448,1l-3.214.4a1.815,1.815,0,0,0-1.066,3.131l2.088,1.943a1.785,1.785,0,0,1,.552,1.625l-.492,2.743a1.771,1.771,0,0,0,.693,1.743,5.021,5.021,0,0,1,.227-3.263c.987-2.5.987-4.171-.822-5s-1.809-2.335,1.151-2.5,3.618-.667,3.947-3.5C2562.949,3963.918,2564.455,3964.141,2565.5,3965Z" transform="translate(-2553.545 -3962.278)" fill="#dedede"/>
    </g>
  </g>
</svg>
