<svg id="reward" xmlns="http://www.w3.org/2000/svg" xmlns:xlink="http://www.w3.org/1999/xlink" width="267.801" height="220.327" viewBox="0 0 267.801 220.327">
  <defs>
    <linearGradient id="linear-gradient" x1="0.5" x2="0.5" y2="1" gradientUnits="objectBoundingBox">
      <stop offset="0" stop-color="#dee8ff"/>
      <stop offset="1" stop-color="#fff"/>
    </linearGradient>
  </defs>
  <g id="bg" transform="translate(-634.634 -342.479)">
    <g id="icons_bg" transform="translate(683.923 372.646)">
      <path id="Path_4322" data-name="Path 4322" d="M69.553-20c39.406,0,87.754,48.348,87.754,87.754s-48.348,79.553-87.754,79.553S-10,107.16-10,67.754,30.146-20,69.553-20Z" transform="translate(10 29.697)" fill="#8baeff"/>
      <path id="Path_4323" data-name="Path 4323" d="M404.132-7650.633c3.529,11.292,32.816,16.937,44.813,46.577s14.467-6.7-6-26.817S400.6-7661.924,404.132-7650.633Z" transform="translate(-281.756 7660.628)" fill="#8baeff"/>
      <path id="Path_4324" data-name="Path 4324" d="M472.534-7556.358c-4.747,2.388-6.1,7.241.743,10.266S477.281-7558.746,472.534-7556.358Z" transform="translate(-360.328 7556.607)" fill="#8baeff"/>
    </g>
    <path id="Polygon_23" data-name="Polygon 23" d="M21.363,24.492a8,8,0,0,1,15.275,0L54.763,82.618A8,8,0,0,1,47.125,93H10.875A8,8,0,0,1,3.237,82.618Z" transform="translate(735.893 454.081) rotate(43)" opacity="0.5" fill="url(#linear-gradient)"/>
    <path id="Polygon_26" data-name="Polygon 26" d="M21.248,30.392c2.048-8.03,13.455-8.03,15.5,0l18.7,73.328A8,8,0,0,1,47.7,113.7H10.3a8,8,0,0,1-7.752-9.977Z" transform="translate(748.05 493.335) rotate(-67)" opacity="0.5" fill="url(#linear-gradient)"/>
    <path id="Polygon_24" data-name="Polygon 24" d="M15.546,25.782a4,4,0,0,1,7.908,0l14.84,96.766a4,4,0,0,1-3.954,4.606H4.66a4,4,0,0,1-3.954-4.606Z" transform="matrix(0.225, 0.974, -0.974, 0.225, 758.53, 451.21)" opacity="0.5" fill="url(#linear-gradient)"/>
    <path id="Polygon_25" data-name="Polygon 25" d="M15.563,22.01a4,4,0,0,1,7.875,0L38.158,104.3a4,4,0,0,1-3.937,4.7H4.779a4,4,0,0,1-3.937-4.7Z" transform="translate(795.438 470.669) rotate(-101)" opacity="0.5" fill="url(#linear-gradient)"/>
    <path id="Polygon_27" data-name="Polygon 27" d="M5.435,20.181a1,1,0,0,1,2,0l5.383,108.769a1,1,0,0,1-1,1.049H1.051a1,1,0,0,1-1-1.049Z" transform="translate(785.848 464.219) rotate(-120)" fill="#fff" opacity="0.5"/>
    <path id="Polygon_28" data-name="Polygon 28" d="M5.435,16.527a1,1,0,0,1,2,0L12.8,105.463a1,1,0,0,1-1,1.06H1.062a1,1,0,0,1-1-1.06Z" transform="translate(762.068 457.785) rotate(90)" fill="#fff" opacity="0.5"/>
    <path id="ic_circle" d="M628.18,100.74c-5.78-.02-8.53,2.73-8.53,8.53.01,5.33,3.45,8.91,8.55,8.88a9.044,9.044,0,0,0,8.86-8.79C637.1,104.42,633.32,100.75,628.18,100.74Zm-.2,13.72c-2.63-.9-5.11-2-4.89-5.25.22-3.19,2.25-5.14,5.43-5.01,3.12.12,4.69,2.56,4.64,5.33C633.1,112.48,630.9,114.02,627.98,114.46Z" transform="translate(201.862 444.656)" fill="#ffba00"/>
    <path id="ic_triangle" data-name="ic+triangle" d="M461.16,259.39c.12-10.77-.17-11.72-9.03-5.61-.14.09-.31.14-.45.22-8.91,5.25-8.94,5.3-.06,10.46,2.77,1.6,6.03,4.87,8.67,3.34C462.9,266.29,460.73,261.91,461.16,259.39Zm-3.62,2.92c-2.144,1.482-3.642-.808-5.743-1.937a1.347,1.347,0,0,1-.355-2.134c1.85-1.887,3.628-3.121,5.558-2.239C458.85,256.83,458.76,261.47,457.54,262.31Z" transform="translate(193.944 220.656)" fill="#b3c5f0"/>
    <path id="ic_triangle-2" data-name="ic+triangle" d="M461.16,259.39c.12-10.77-.17-11.72-9.03-5.61-.14.09-.31.14-.45.22-8.91,5.25-8.94,5.3-.06,10.46,2.77,1.6,6.03,4.87,8.67,3.34C462.9,266.29,460.73,261.91,461.16,259.39Zm-3.62,2.92c-2.144,1.482-3.642-.808-5.743-1.937a1.347,1.347,0,0,1-.355-2.134c1.85-1.887,3.628-3.121,5.558-2.239C458.85,256.83,458.76,261.47,457.54,262.31Z" transform="translate(938.018 -61.372) rotate(93)" fill="#ffba00"/>
    <path id="ic_med" d="M491.458,583.768c-.9,0-1.807-.069-2.695.015-1.876.178-2.332-.672-2.417-2.463-.44-8.832-.494-8.825-9.164-8.832-.9,0-1.807-.008-2.7-.008-4.648.008-5.868,1.228-5.914,5.937a22.392,22.392,0,0,0,.015,2.695c.232,1.977-.479,2.9-2.556,2.679a25.619,25.619,0,0,0-3.081-.023c-4.478.031-5.381.911-5.52,5.4-.031,1.158,0,2.316,0,3.474,0,8.639,0,8.686,8.616,9.242,1.683.108,2.455.4,2.579,2.347.571,8.856.641,8.848,9.5,8.8.772,0,1.536,0,2.308-.008,4.849-.039,5.891-1.058,5.968-5.837.085-5.219.085-5.219,5.358-5.25,4.617-.023,5.659-1.042,5.721-5.59.008-1.158,0-2.316,0-3.474,0-1.027.008-2.054,0-3.088C497.442,584.524,496.7,583.783,491.458,583.768Zm2.308,6.8a11.422,11.422,0,0,0-.015,1.544c0,5.628,0,5.628-5.775,5.628-5.458,0-5.5.046-5.52,5.675a6.442,6.442,0,0,0,.008,1.158c.595,3.59-.594,5.3-4.493,4.571a27.737,27.737,0,0,0-4.609-.116c-.062-1.884-.031-3.775-.2-5.644-.154-1.753.865-3.9-1.49-5.011-2.671-1.289-5.536-.54-8.307-.672-1.637-.077-2.409-.54-2.146-2.231a2.146,2.146,0,0,0,0-.386c-.239-7.157-.232-7.311,6.871-7.142,3.3.085,4.2-1.189,4.2-4.254.008-7.69.679-8.137,8.446-7.088,1.2.162,1.976.432,1.861,1.807a11.45,11.45,0,0,0,.008,1.15c.224,8.145.224,8.207,8.57,8.446C493.087,588.06,494.122,588.454,493.767,590.569Z" transform="translate(489.336 -291.508) rotate(9)" fill="#b3c5f0"/>
    <path id="ic_circle-2" data-name="ic_circle" d="M628.18,100.74c-5.78-.02-8.53,2.73-8.53,8.53.01,5.33,3.45,8.91,8.55,8.88a9.044,9.044,0,0,0,8.86-8.79C637.1,104.42,633.32,100.75,628.18,100.74Zm-.2,13.72c-2.63-.9-5.11-2-4.89-5.25.22-3.19,2.25-5.14,5.43-5.01,3.12.12,4.69,2.56,4.64,5.33C633.1,112.48,630.9,114.02,627.98,114.46Z" transform="translate(91.862 254.656)" fill="#b3c5f0"/>
  </g>
  <g id="Group_13496" data-name="Group 13496" transform="translate(-2787.728 -2916.125)">
    <path id="Path_5712" data-name="Path 5712" d="M3920.948,9105.553c-15.8,0-31.754-8.082-43.723-20.115,4.634-19.1,16.333-44.915,45.725-44.915,28.809,0,41.1,24.806,46.282,43.776C3955.455,9096.956,3937.243,9105.553,3920.948,9105.553Zm1.8-80.022c-34.938,0-50.05,25.125-56.571,45.791a67.231,67.231,0,0,1-3.871-7.42c8.149-21.284,25.14-44.761,60.442-44.761,35.948,0,53.424,24.365,61.852,45.944a67.659,67.659,0,0,1-4.119,6.546C3973.537,9050.895,3957.871,9025.53,3922.743,9025.53Z" transform="translate(-1005.025 -6022.56)" fill="#fff" stroke="rgba(0,0,0,0)" stroke-width="1" opacity="0.5"/>
    <g id="Group_13472" data-name="Group 13472" transform="translate(2812.172 3008.897)">
      <path id="Path_5698" data-name="Path 5698" d="M-566.856,4666.625a18.519,18.519,0,0,1-18.519,18.52c-10.228,0-19.625-8.292-19.625-18.52S-595.6,4647-585.375,4647-566.856,4656.4-566.856,4666.625Z" transform="translate(605 -4647)" fill="#f8d008"/>
      <g id="Group_13469" data-name="Group 13469" transform="translate(8.852 7.74)">
        <path id="Path_5703" data-name="Path 5703" d="M-588.008,4672.39a10.774,10.774,0,0,0,4.085,13.627,10.774,10.774,0,0,0,14.037-2.315Z" transform="translate(588.988 -4666.095)" fill="#fff"/>
        <path id="Path_5704" data-name="Path 5704" d="M-585.183,4665.391l18.218,11.372a10.774,10.774,0,0,0-3.84-14.127A10.774,10.774,0,0,0-585.183,4665.391Z" transform="translate(587.286 -4661.002)" fill="#fff"/>
      </g>
    </g>
    <path id="Path_5718" data-name="Path 5718" d="M-918.467-5904.179l-9.5.245" transform="translate(3889.187 8931.903)" fill="none" stroke="#8baeff" stroke-linecap="round" stroke-width="4"/>
    <path id="Path_5719" data-name="Path 5719" d="M-919.375-5904.179l-8.592.245" transform="translate(3790.608 8931.903)" fill="none" stroke="#8baeff" stroke-linecap="round" stroke-width="4"/>
    <path id="Path_5722" data-name="Path 5722" d="M10.695,0,0,.245" transform="translate(2917.377 2966.089) rotate(90)" fill="none" stroke="#8baeff" stroke-linecap="round" stroke-width="4"/>
    <path id="Path_5720" data-name="Path 5720" d="M7.591,0,0,.245" transform="matrix(0.829, 0.559, -0.559, 0.829, 2876.336, 2984.877)" fill="none" stroke="#8baeff" stroke-linecap="round" stroke-width="4"/>
    <path id="Path_5721" data-name="Path 5721" d="M7.639.245,0,0" transform="translate(2962.199 2988.536) rotate(146)" fill="none" stroke="#8baeff" stroke-linecap="round" stroke-width="4"/>
    <g id="Group_13474" data-name="Group 13474" transform="translate(2833.298 2947.016)">
      <path id="Path_5699" data-name="Path 5699" d="M-503.856,4569.625c0,10.228-9.4,18.519-19.625,18.519A18.519,18.519,0,0,1-542,4569.625c0-10.229,8.291-19.625,18.519-19.625S-503.856,4559.4-503.856,4569.625Z" transform="translate(542 -4550)" fill="#f8d008"/>
      <g id="Group_13470" data-name="Group 13470" transform="translate(7.257 7.163)">
        <path id="Path_5705" data-name="Path 5705" d="M-507.336,4577.361l4.5-4.5a5.8,5.8,0,0,0,0-8.209,5.805,5.805,0,0,0-8.209,0l-4.5,4.5Z" transform="translate(522.913 -4562.957)" fill="#fff"/>
        <path id="Path_5706" data-name="Path 5706" d="M-522.678,4576.285l-4.5,4.5a5.806,5.806,0,0,0,0,8.209,5.8,5.8,0,0,0,8.209,0l4.5-4.5Z" transform="translate(528.873 -4568.917)" fill="#fff"/>
      </g>
    </g>
    <g id="Group_13473" data-name="Group 13473" transform="translate(2895.11 2916.125)">
      <path id="Path_5700" data-name="Path 5700" d="M-368.856,4510.625a18.518,18.518,0,0,1-18.519,18.519c-10.228,0-19.625-8.29-19.625-18.519S-397.6,4491-387.375,4491-368.856,4500.4-368.856,4510.625Z" transform="translate(407 -4491)" fill="#f8d008"/>
      <path id="Path_5709" data-name="Path 5709" d="M-370.672,4523.041l-15.985,4.417-5.6-20.248,15.691-5.483Z" transform="translate(400.405 -4495.797)" fill="#fff"/>
      <path id="Path_5710" data-name="Path 5710" d="M-382.8,4528.514l2.061,7.459,12.255-3.386-1.914-6.927Z" transform="translate(396.18 -4506.5)" fill="#e0e1e2"/>
    </g>
    <g id="Group_13475" data-name="Group 13475" transform="translate(2963.747 2951.627)">
      <path id="Path_5701" data-name="Path 5701" d="M-216.856,4576.625c0,10.228-9.4,18.519-19.625,18.519A18.519,18.519,0,0,1-255,4576.625c0-10.229,8.291-19.625,18.519-19.625S-216.856,4566.4-216.856,4576.625Z" transform="translate(255 -4557)" fill="#f8d008"/>
      <path id="Path_5711" data-name="Path 5711" d="M-219.968,4586.544a8.016,8.016,0,0,1-8.016,8.015,8.016,8.016,0,0,1-8.016-8.015c0-4.427,8.016-13.544,8.016-13.544S-219.968,4582.118-219.968,4586.544Z" transform="translate(246.504 -4564.155)" fill="#fff"/>
    </g>
    <g id="Group_13476" data-name="Group 13476" transform="translate(2982.819 3008.898)">
      <path id="Path_5702" data-name="Path 5702" d="M-170.856,4674.625a18.519,18.519,0,0,1-18.519,18.519c-10.228,0-19.625-8.291-19.625-18.519S-199.6,4655-189.375,4655-170.856,4664.4-170.856,4674.625Z" transform="translate(209 -4655)" fill="#f8d008"/>
      <g id="Group_13471" data-name="Group 13471" transform="translate(8.49 6.397)">
        <path id="Path_5707" data-name="Path 5707" d="M-172.105,4679.9l4.5,4.5a5.805,5.805,0,0,1,0,8.209,5.8,5.8,0,0,1-8.209,0l-4.5-4.5Z" transform="translate(187.682 -4672.532)" fill="#fff"/>
        <path id="Path_5708" data-name="Path 5708" d="M-187.448,4680.976l-4.495-4.5a5.8,5.8,0,0,1,0-8.209,5.806,5.806,0,0,1,8.209,0l4.5,4.5Z" transform="translate(193.643 -4666.572)" fill="#fff"/>
      </g>
    </g>
    <g id="Group_13488" data-name="Group 13488" transform="translate(2879.372 2985.161)">
      <path id="Path_5729" data-name="Path 5729" d="M3389.593,3881.192c0,9.044-11.907,16.688-28.261,19.177q-.793.12-1.6.224a77.589,77.589,0,0,1-9.938.63c-21.979,0-39.8-8.969-39.8-20.032,0-5.521,4.436-10.521,11.613-14.142,3.555,5.732,10.572,10.181,19.217,12.075q1.623.356,3.32.59a44.7,44.7,0,0,0,6.047.409c12.639,0,23.517-5.238,28.386-12.762C3385.4,3870.957,3389.593,3875.829,3389.593,3881.192Z" transform="translate(-3310 -3791.687)" fill="#0f426d"/>
      <path id="Path_5730" data-name="Path 5730" d="M3406.154,3763c-.029.062-.059.123-.091.187-.083-.019-.163-.04-.243-.064C3405.929,3763.08,3406.042,3763.04,3406.154,3763Z" transform="translate(-3380.227 -3715.427)" fill="#fff"/>
      <path id="Path_5731" data-name="Path 5731" d="M3406.154,3763c-.029.062-.059.123-.091.187-.083-.019-.163-.04-.243-.064C3405.929,3763.08,3406.042,3763.04,3406.154,3763Z" transform="translate(-3380.227 -3715.427)" fill="#fff"/>
      <g id="Group_13487" data-name="Group 13487" transform="translate(23.771 84.965)">
        <path id="Path_5732" data-name="Path 5732" d="M3426.561,3926.717c-.529.08-1.06.155-1.6.224a31.719,31.719,0,0,0-19.073-20.694L3399,3903l7.059,2.473.3-.764.125.051q1.518.6,2.893,1.3a33.209,33.209,0,0,1,17.16,20.568C3426.548,3926.661,3426.553,3926.691,3426.561,3926.717Z" transform="translate(-3399 -3903)" fill="#b3c5f0"/>
      </g>
      <path id="Path_5733" data-name="Path 5733" d="M3437.434,3698.542v0a9.348,9.348,0,0,0-.558-2.209q-1.3-.2-2.765-.5a14.094,14.094,0,0,1-8.718-5.166,19.851,19.851,0,0,1-5.438,3.029c-2.222.828-4.215,1.49-6,1.982l-.577,6.776a18,18,0,0,0,3.9-.745c6.41-1.87,9.081,1.068,9.081,1.068,3.472-2.4,5.075-2.137,8.547-.267a6.85,6.85,0,0,0,1.977.689,10.181,10.181,0,0,0,.449-1.635,0,0,0,0,0,0-.005A9.623,9.623,0,0,0,3437.434,3698.542Z" transform="translate(-3385.768 -3662.408)" fill="#fde5c7"/>
      <path id="Path_5734" data-name="Path 5734" d="M3480.7,3619.717c-2.038,1.485-5.261,1.92-10.288,1.2-.187-.026-.374-.056-.566-.085q-1.3-.2-2.764-.5a14.093,14.093,0,0,1-8.718-5.165,18.48,18.48,0,0,0,3.323-3.4c6.8-8.99,4.66-22.438,4.359-24.115,3.977.719,17.409,4.025,17.863,15.852C3484.217,3611.626,3484.163,3617.192,3480.7,3619.717Z" transform="translate(-3418.735 -3586.911)" fill="#2195c7"/>
      <path id="Path_5735" data-name="Path 5735" d="M3388.047,3609.738a18.479,18.479,0,0,1-3.323,3.4,19.865,19.865,0,0,1-5.438,3.029c-2.222.828-4.214,1.49-6,1.982-.139.035-.272.072-.409.107-4.4,1.17-7.513,1.269-9.714.288-3.915-1.736-4.949-6.875-5.245-15.464-.8-13.889,14.957-17.628,19.764-17.9,4.273-.8,14.69.267,14.69.267l.032.174C3392.707,3587.3,3394.85,3600.748,3388.047,3609.738Z" transform="translate(-3345.099 -3584.884)" fill="#25a9e1"/>
      <path id="Path_5736" data-name="Path 5736" d="M3432.342,3715c-1.87,2.4-5.342,1.335-5.342,1.335" transform="translate(-3395.751 -3680.248)" fill="none" stroke="#bf9969" stroke-linecap="round" stroke-miterlimit="10" stroke-width="2"/>
      <path id="Path_5737" data-name="Path 5737" d="M3477.609,3715.4c-3.205.267-5.609-2.4-5.609-2.4" transform="translate(-3428.732 -3678.782)" fill="none" stroke="#bf9969" stroke-linecap="round" stroke-miterlimit="10" stroke-width="2"/>
      <path id="Path_5738" data-name="Path 5738" d="M3387.64,3709.42l-.577,6.776c-.08.005-.16.011-.238.011-2.89.12-3.6-1.023-3.6-1.023s.142,4.658,3.293,6.688a11.791,11.791,0,0,0-1.138,1.859c-.112.04-.224.08-.334.123-7.6-2.073-7.721-10.972-7.527-14.038,2.2.98,5.313.881,9.714-.288C3387.368,3709.492,3387.5,3709.455,3387.64,3709.42Z" transform="translate(-3359.452 -3676.158)" fill="#c5c4c7"/>
      <path id="Path_5739" data-name="Path 5739" d="M3426.7,3731.714c-.115-.016-.232-.035-.35-.056a6.847,6.847,0,0,1-1.977-.689c-3.472-1.87-5.074-2.137-8.547.267,0,0-2.671-2.938-9.081-1.068a18.033,18.033,0,0,1-3.905.745c-.08.005-.16.011-.238.011-2.89.12-3.6-1.023-3.6-1.023s.142,4.658,3.293,6.688a5.367,5.367,0,0,0,.855.449,5.878,5.878,0,0,0,1.338.382,7.534,7.534,0,0,0,1.565.091,9.823,9.823,0,0,0,1.229-.131c3.1-.518,5.083-.954,6.346-1.3h0c2-.537,2.2-.839,2.2-.839a10.126,10.126,0,0,0,1.531.844h0a12.123,12.123,0,0,0,7.014,1.025c.131-.021.259-.048.39-.077h0a7.621,7.621,0,0,0,1.1-.331c.1-.035.19-.075.283-.112v0a11.239,11.239,0,0,0,3.531-2.468,15.764,15.764,0,0,0,2.433-3.149A11.258,11.258,0,0,1,3426.7,3731.714Z" transform="translate(-3375.229 -3690.875)" fill="#fff"/>
      <path id="Path_5740" data-name="Path 5740" d="M3512.2,3707.71c-.059,9.6-4.6,13.066-6.159,13.969a21.792,21.792,0,0,0-1.349-3.528,15.764,15.764,0,0,0,2.434-3.149,11.259,11.259,0,0,1-5.417.742c-.115-.016-.232-.035-.35-.056a10.174,10.174,0,0,0,.449-1.635,0,0,0,0,0,0-.005,9.606,9.606,0,0,0,.1-3.01v0a9.353,9.353,0,0,0-.558-2.209c.192.03.379.059.566.085C3506.943,3709.63,3510.167,3709.195,3512.2,3707.71Z" transform="translate(-3450.243 -3674.905)" fill="#c5c4c7"/>
      <path id="Path_5741" data-name="Path 5741" d="M3424.691,3766.618c-7.479,3.2-4.541,6.677-5.876,3.739s-3.205-1.6-11.485-8.28c-4.776-3.852-4.308-7.967-3.01-10.764.032-.064.062-.125.091-.187a11.8,11.8,0,0,1,1.138-1.859,5.341,5.341,0,0,0,.854.449,5.883,5.883,0,0,0,1.338.382,7.541,7.541,0,0,0,1.565.091,9.871,9.871,0,0,0,1.229-.131c3.1-.518,5.083-.954,6.346-1.3h0c2-.537,2.2-.839,2.2-.839a10.129,10.129,0,0,0,1.53.844h0a12.126,12.126,0,0,0,7.014,1.025c.131-.021.259-.048.39-.077h0a7.621,7.621,0,0,0,1.1-.331c.1-.035.189-.075.283-.112v0a11.245,11.245,0,0,0,3.531-2.468,21.787,21.787,0,0,1,1.349,3.528c.142.5.257.977.342,1.448v0C3436.1,3759.529,3430.848,3763.979,3424.691,3766.618Z" transform="translate(-3378.485 -3703.554)" fill="#c5c4c7"/>
      <path id="Path_5742" data-name="Path 5742" d="M3406.231,3782.567a16.2,16.2,0,0,1-2.729,8.873c-4.869,7.524-15.748,12.762-28.386,12.762-12.812,0-23.813-5.382-28.584-13.074a16.118,16.118,0,0,1-2.532-8.56c0-8.28,6.688-15.472,16.511-19.107.08.024.16.045.243.064-1.3,2.8-1.766,6.912,3.01,10.764,8.28,6.677,10.149,5.342,11.485,8.28s-1.6-.534,5.875-3.739c6.157-2.639,11.41-7.089,9.938-14.839C3400.147,3767.763,3406.231,3774.672,3406.231,3782.567Z" transform="translate(-3334.919 -3715.764)" fill="#fff"/>
      <path id="Path_5743" data-name="Path 5743" d="M3412.645,3849.618c-11.271-2.6-7.922-11.618-7.922-11.618" transform="translate(-3379.082 -3770.396)" fill="none" stroke="#25a9e1" stroke-linecap="round" stroke-miterlimit="10" stroke-width="2"/>
      <path id="Path_5744" data-name="Path 5744" d="M3436.3,3866.888v-.029s-8.827-1.528-10.852,12.07c0,.008,0,.013-.005.021" transform="translate(-3394.607 -3791.509)" fill="none" stroke="#25a9e1" stroke-linecap="round" stroke-miterlimit="10" stroke-width="2"/>
      <path id="Path_5745" data-name="Path 5745" d="M3496.852,3838.28s3.349,9.019-7.922,11.618" transform="translate(-3441.139 -3770.601)" fill="none" stroke="#25a9e1" stroke-linecap="round" stroke-miterlimit="10" stroke-width="2"/>
      <path id="Path_5746" data-name="Path 5746" d="M3462.5,3880.149v-13.01a4.455,4.455,0,0,1,.958-.045c1.381.062,4,.652,6.1,3.918a20.331,20.331,0,0,1,2.687,7.93" transform="translate(-3421.769 -3791.714)" fill="none" stroke="#25a9e1" stroke-linecap="round" stroke-miterlimit="10" stroke-width="2"/>
      <path id="Path_5747" data-name="Path 5747" d="M3445.243,3616.273h-2.628v-2.628a1.645,1.645,0,0,0-1.645-1.645h-2.052a1.645,1.645,0,0,0-1.645,1.645v2.628h-2.628a1.646,1.646,0,0,0-1.646,1.645v2.051a1.646,1.646,0,0,0,1.646,1.646h2.628v2.628a1.646,1.646,0,0,0,1.645,1.646h2.052a1.645,1.645,0,0,0,1.645-1.646v-2.628h2.628a1.645,1.645,0,0,0,1.645-1.646v-2.051A1.645,1.645,0,0,0,3445.243,3616.273Z" transform="translate(-3400.148 -3604.758)" fill="#fff"/>
    </g>
  </g>
  <g id="stars" transform="translate(-2807.517 -2140.083)">
    <g id="star" transform="translate(2885.805 2315.298)">
      <g id="Group_13491" data-name="Group 13491">
        <g id="Path_5752" data-name="Path 5752" transform="translate(-2702.16 -3953.653)" fill="#ffd500">
          <path d="M 2717.61279296875 3974.1533203125 C 2717.1728515625 3974.1533203125 2716.746337890625 3974.046630859375 2716.34521484375 3973.835693359375 L 2713.362060546875 3972.266845703125 C 2713.115966796875 3972.1376953125 2712.838623046875 3972.0693359375 2712.560302734375 3972.0693359375 C 2712.281982421875 3972.0693359375 2712.004638671875 3972.1376953125 2711.75830078125 3972.266845703125 L 2708.775146484375 3973.835693359375 C 2708.3740234375 3974.04638671875 2707.94775390625 3974.1533203125 2707.507568359375 3974.1533203125 C 2706.70458984375 3974.1533203125 2705.94287109375 3973.7958984375 2705.41748046875 3973.1728515625 C 2704.896728515625 3972.554931640625 2704.685791015625 3971.770751953125 2704.82421875 3970.96484375 L 2705.393798828125 3967.64306640625 C 2705.48974609375 3967.083984375 2705.304443359375 3966.513916015625 2704.898193359375 3966.11767578125 L 2702.48486328125 3963.765380859375 C 2701.7373046875 3963.036865234375 2701.47314453125 3961.96728515625 2701.795654296875 3960.97412109375 C 2702.118408203125 3959.98095703125 2702.960693359375 3959.27099609375 2703.994140625 3959.120849609375 L 2707.3291015625 3958.635986328125 C 2707.890869140625 3958.55419921875 2708.3759765625 3958.201904296875 2708.626708984375 3957.693359375 L 2710.118408203125 3954.6708984375 C 2710.58056640625 3953.734619140625 2711.516357421875 3953.1533203125 2712.560302734375 3953.1533203125 C 2713.604248046875 3953.1533203125 2714.5400390625 3953.734619140625 2715.001953125 3954.670654296875 L 2716.49365234375 3957.693359375 C 2716.74462890625 3958.201904296875 2717.229736328125 3958.55419921875 2717.791259765625 3958.635986328125 L 2721.12646484375 3959.120849609375 C 2722.15966796875 3959.270751953125 2723.001953125 3959.98095703125 2723.32470703125 3960.97412109375 C 2723.647216796875 3961.96728515625 2723.38330078125 3963.03662109375 2722.635498046875 3963.765380859375 L 2720.22216796875 3966.117919921875 C 2719.815673828125 3966.513916015625 2719.630615234375 3967.083984375 2719.726318359375 3967.64306640625 L 2720.29638671875 3970.96484375 C 2720.434326171875 3971.770751953125 2720.2236328125 3972.554931640625 2719.70263671875 3973.172607421875 C 2719.17724609375 3973.7958984375 2718.41552734375 3974.1533203125 2717.61279296875 3974.1533203125 Z" stroke="none"/>
          <path d="M 2712.560302734375 3953.653076171875 C 2711.767578125 3953.653076171875 2710.974609375 3954.066162109375 2710.56689453125 3954.89208984375 L 2709.0751953125 3957.91455078125 C 2708.75146484375 3958.57080078125 2708.12548828125 3959.025390625 2707.401123046875 3959.130859375 L 2704.06591796875 3959.61572265625 C 2702.242431640625 3959.88037109375 2701.514404296875 3962.12158203125 2702.833984375 3963.4072265625 L 2705.247314453125 3965.759765625 C 2705.77099609375 3966.2705078125 2706.01025390625 3967.00634765625 2705.88671875 3967.7275390625 L 2705.31689453125 3971.04931640625 C 2705.00537109375 3972.865966796875 2706.910888671875 3974.250732421875 2708.54248046875 3973.39306640625 L 2711.52587890625 3971.82421875 C 2712.173828125 3971.484619140625 2712.94775390625 3971.484619140625 2713.5947265625 3971.82421875 L 2716.577880859375 3973.39306640625 C 2718.20751953125 3974.251220703125 2720.11474609375 3972.86572265625 2719.803466796875 3971.04931640625 L 2719.233642578125 3967.7275390625 C 2719.10986328125 3967.00634765625 2719.34912109375 3966.2705078125 2719.873046875 3965.759765625 L 2722.28662109375 3963.4072265625 C 2723.60595703125 3962.12158203125 2722.8779296875 3959.88037109375 2721.054443359375 3959.61572265625 L 2717.71923828125 3959.130859375 C 2716.9951171875 3959.025390625 2716.369140625 3958.57080078125 2716.045166015625 3957.91455078125 L 2714.5537109375 3954.89208984375 C 2714.14599609375 3954.066162109375 2713.35302734375 3953.653076171875 2712.560302734375 3953.653076171875 M 2712.560302734375 3952.653076171875 C 2713.796142578125 3952.653076171875 2714.903564453125 3953.341552734375 2715.450439453125 3954.449462890625 L 2716.94189453125 3957.471923828125 C 2717.1201171875 3957.8330078125 2717.464599609375 3958.083251953125 2717.86328125 3958.141357421875 L 2721.1982421875 3958.626220703125 C 2722.421142578125 3958.8037109375 2723.418212890625 3959.64404296875 2723.800048828125 3960.819580078125 C 2724.18212890625 3961.9951171875 2723.86962890625 3963.260986328125 2722.984619140625 3964.12353515625 L 2720.571044921875 3966.475830078125 C 2720.28271484375 3966.757080078125 2720.151123046875 3967.16162109375 2720.21923828125 3967.558349609375 L 2720.7890625 3970.880126953125 C 2720.9501953125 3971.8203125 2720.693359375 3972.7734375 2720.084716796875 3973.495361328125 C 2719.464111328125 3974.231201171875 2718.563232421875 3974.6533203125 2717.61279296875 3974.6533203125 C 2717.0908203125 3974.6533203125 2716.5859375 3974.527099609375 2716.112548828125 3974.278076171875 L 2713.129150390625 3972.709228515625 C 2712.955078125 3972.617919921875 2712.758056640625 3972.5693359375 2712.560302734375 3972.5693359375 C 2712.362548828125 3972.5693359375 2712.16552734375 3972.617919921875 2711.99072265625 3972.709716796875 L 2709.0078125 3974.278076171875 C 2708.5341796875 3974.527099609375 2708.029541015625 3974.6533203125 2707.507568359375 3974.6533203125 C 2706.556884765625 3974.6533203125 2705.65576171875 3974.231201171875 2705.035400390625 3973.4951171875 C 2704.4267578125 3972.7734375 2704.170166015625 3971.8203125 2704.331298828125 3970.88037109375 L 2704.901123046875 3967.558349609375 C 2704.968994140625 3967.161865234375 2704.83740234375 3966.7568359375 2704.549072265625 3966.4755859375 L 2702.135986328125 3964.123291015625 C 2701.2509765625 3963.260986328125 2700.938232421875 3961.9951171875 2701.3203125 3960.819580078125 C 2701.7021484375 3959.64404296875 2702.69921875 3958.8037109375 2703.92236328125 3958.6259765625 L 2707.25732421875 3958.141357421875 C 2707.656005859375 3958.083251953125 2708.000244140625 3957.8330078125 2708.178466796875 3957.47216796875 L 2709.670166015625 3954.449462890625 C 2710.217041015625 3953.341552734375 2711.324462890625 3952.653076171875 2712.560302734375 3952.653076171875 Z" stroke="none" fill="#fff"/>
        </g>
        <path id="Path_5753" data-name="Path 5753" d="M2720.675,3965.023l1.309,2.5a1.947,1.947,0,0,0,1.469,1l2.927.4a1.809,1.809,0,0,1,1.081,3.131l-2.451,1.943a1.769,1.769,0,0,0-.561,1.625l.833,2.743a1.929,1.929,0,0,1-2.83,1.936l-2.617-1.3a2.059,2.059,0,0,0-1.815,0l-2.618,1.3a1.929,1.929,0,0,1-2.83-1.936l.5-2.743a1.77,1.77,0,0,0-.561-1.625l-2.117-1.943a1.809,1.809,0,0,1,1.081-3.131l3.26-.4a1.946,1.946,0,0,0,1.469-1l.975-2.5A2.007,2.007,0,0,1,2720.675,3965.023Z" transform="translate(-2708.526 -3962.274)" fill="#ffb300"/>
        <path id="Path_5753_-_Outline" data-name="Path 5753 - Outline" d="M2717.26,3962a2.392,2.392,0,0,1,1.164.3,2.205,2.205,0,0,1,.881.9l1.309,2.5a1.611,1.611,0,0,0,1.218.829l2.926.4a2.231,2.231,0,0,1,1.865,1.531,2.077,2.077,0,0,1,.033,1.134,2.142,2.142,0,0,1-.636,1.044l-.009.008-.01.008-2.441,1.935a1.439,1.439,0,0,0-.453,1.294l.833,2.742,0,.019a2.054,2.054,0,0,1-.453,1.711,2.315,2.315,0,0,1-.794.609,2.36,2.36,0,0,1-2.06-.026l-2.617-1.3a1.727,1.727,0,0,0-1.52,0l-2.617,1.3a2.36,2.36,0,0,1-2.06.026,2.322,2.322,0,0,1-.794-.609,2.055,2.055,0,0,1-.453-1.711l.5-2.743a1.438,1.438,0,0,0-.458-1.319l-2.118-1.943a2.138,2.138,0,0,1-.636-1.044,2.073,2.073,0,0,1,.033-1.134,2.23,2.23,0,0,1,1.864-1.531h0l3.258-.4a1.613,1.613,0,0,0,1.208-.813l.975-2.495.009-.016a2.2,2.2,0,0,1,.881-.9A2.391,2.391,0,0,1,2717.26,3962Zm8.317,8.135a1.408,1.408,0,0,0,.409-1.479,1.57,1.57,0,0,0-1.318-1.069l-2.927-.4a2.281,2.281,0,0,1-1.719-1.18l-1.309-2.5a1.674,1.674,0,0,0-2.9-.016l-.975,2.495-.009.016a2.28,2.28,0,0,1-1.719,1.18h0l-3.258.4a1.569,1.569,0,0,0-1.316,1.068,1.409,1.409,0,0,0,.417,1.486l2.118,1.943a2.1,2.1,0,0,1,.664,1.93l-.5,2.743a1.4,1.4,0,0,0,.308,1.164,1.69,1.69,0,0,0,2.046.413l2.617-1.3a2.392,2.392,0,0,1,2.112,0l2.617,1.3a1.691,1.691,0,0,0,2.046-.413,1.4,1.4,0,0,0,.312-1.146l-.833-2.742,0-.019a2.1,2.1,0,0,1,.664-1.93l.009-.008.009-.008Z" transform="translate(-2706.86 -3960.607)" fill="#fff"/>
        <path id="Path_5754" data-name="Path 5754" d="M2764.608,3975.244c-2.286-.326-1.633-4.734-3.265-4.408-.437.087-.84.176-.916.762s.681,3.693,2.5,3.952c2.1.3,3.448.15,3.6,1.05a.668.668,0,0,1-.45.6s-2.72,1.491-2.887,3.826a4.431,4.431,0,0,0,.7,3.245c.826.515,1.474.914,1.851.443.653-.816-.326-2.285-.816-4.081s3.116-3.592,3.116-3.592a.728.728,0,0,0,.49-.653C2768.363,3975.407,2766.894,3975.571,2764.608,3975.244Z" transform="translate(-2750.702 -3967.955)" fill="#ffe97a"/>
        <path id="Path_5755" data-name="Path 5755" d="M2721.922,3966.972a1.913,1.913,0,0,0-3.345.024l-.936,2.43a1.869,1.869,0,0,1-1.41.978l-3.131.39a1.767,1.767,0,0,0-1.038,3.049l2.033,1.891a1.737,1.737,0,0,1,.539,1.582l-.48,2.671a1.723,1.723,0,0,0,.676,1.7,4.884,4.884,0,0,1,.221-3.176c.961-2.436.961-4.061-.8-4.873s-1.762-2.274,1.122-2.436,3.524-.65,3.844-3.411C2719.433,3965.916,2720.9,3966.133,2721.922,3966.972Z" transform="translate(-2709.938 -3963.94)" fill="#ffe41f"/>
      </g>
    </g>
    <g id="star-2" data-name="star" transform="translate(2930.81 2315.298)">
      <g id="Group_13491-2" data-name="Group 13491">
        <g id="Path_5752-2" data-name="Path 5752" transform="translate(-2702.16 -3953.653)" fill="#ffd500">
          <path d="M 2717.61279296875 3974.1533203125 C 2717.1728515625 3974.1533203125 2716.746337890625 3974.046630859375 2716.34521484375 3973.835693359375 L 2713.362060546875 3972.266845703125 C 2713.115966796875 3972.1376953125 2712.838623046875 3972.0693359375 2712.560302734375 3972.0693359375 C 2712.281982421875 3972.0693359375 2712.004638671875 3972.1376953125 2711.75830078125 3972.266845703125 L 2708.775146484375 3973.835693359375 C 2708.3740234375 3974.04638671875 2707.94775390625 3974.1533203125 2707.507568359375 3974.1533203125 C 2706.70458984375 3974.1533203125 2705.94287109375 3973.7958984375 2705.41748046875 3973.1728515625 C 2704.896728515625 3972.554931640625 2704.685791015625 3971.770751953125 2704.82421875 3970.96484375 L 2705.393798828125 3967.64306640625 C 2705.48974609375 3967.083984375 2705.304443359375 3966.513916015625 2704.898193359375 3966.11767578125 L 2702.48486328125 3963.765380859375 C 2701.7373046875 3963.036865234375 2701.47314453125 3961.96728515625 2701.795654296875 3960.97412109375 C 2702.118408203125 3959.98095703125 2702.960693359375 3959.27099609375 2703.994140625 3959.120849609375 L 2707.3291015625 3958.635986328125 C 2707.890869140625 3958.55419921875 2708.3759765625 3958.201904296875 2708.626708984375 3957.693359375 L 2710.118408203125 3954.6708984375 C 2710.58056640625 3953.734619140625 2711.516357421875 3953.1533203125 2712.560302734375 3953.1533203125 C 2713.604248046875 3953.1533203125 2714.5400390625 3953.734619140625 2715.001953125 3954.670654296875 L 2716.49365234375 3957.693359375 C 2716.74462890625 3958.201904296875 2717.229736328125 3958.55419921875 2717.791259765625 3958.635986328125 L 2721.12646484375 3959.120849609375 C 2722.15966796875 3959.270751953125 2723.001953125 3959.98095703125 2723.32470703125 3960.97412109375 C 2723.647216796875 3961.96728515625 2723.38330078125 3963.03662109375 2722.635498046875 3963.765380859375 L 2720.22216796875 3966.117919921875 C 2719.815673828125 3966.513916015625 2719.630615234375 3967.083984375 2719.726318359375 3967.64306640625 L 2720.29638671875 3970.96484375 C 2720.434326171875 3971.770751953125 2720.2236328125 3972.554931640625 2719.70263671875 3973.172607421875 C 2719.17724609375 3973.7958984375 2718.41552734375 3974.1533203125 2717.61279296875 3974.1533203125 Z" stroke="none"/>
          <path d="M 2712.560302734375 3953.653076171875 C 2711.767578125 3953.653076171875 2710.974609375 3954.066162109375 2710.56689453125 3954.89208984375 L 2709.0751953125 3957.91455078125 C 2708.75146484375 3958.57080078125 2708.12548828125 3959.025390625 2707.401123046875 3959.130859375 L 2704.06591796875 3959.61572265625 C 2702.242431640625 3959.88037109375 2701.514404296875 3962.12158203125 2702.833984375 3963.4072265625 L 2705.247314453125 3965.759765625 C 2705.77099609375 3966.2705078125 2706.01025390625 3967.00634765625 2705.88671875 3967.7275390625 L 2705.31689453125 3971.04931640625 C 2705.00537109375 3972.865966796875 2706.910888671875 3974.250732421875 2708.54248046875 3973.39306640625 L 2711.52587890625 3971.82421875 C 2712.173828125 3971.484619140625 2712.94775390625 3971.484619140625 2713.5947265625 3971.82421875 L 2716.577880859375 3973.39306640625 C 2718.20751953125 3974.251220703125 2720.11474609375 3972.86572265625 2719.803466796875 3971.04931640625 L 2719.233642578125 3967.7275390625 C 2719.10986328125 3967.00634765625 2719.34912109375 3966.2705078125 2719.873046875 3965.759765625 L 2722.28662109375 3963.4072265625 C 2723.60595703125 3962.12158203125 2722.8779296875 3959.88037109375 2721.054443359375 3959.61572265625 L 2717.71923828125 3959.130859375 C 2716.9951171875 3959.025390625 2716.369140625 3958.57080078125 2716.045166015625 3957.91455078125 L 2714.5537109375 3954.89208984375 C 2714.14599609375 3954.066162109375 2713.35302734375 3953.653076171875 2712.560302734375 3953.653076171875 M 2712.560302734375 3952.653076171875 C 2713.796142578125 3952.653076171875 2714.903564453125 3953.341552734375 2715.450439453125 3954.449462890625 L 2716.94189453125 3957.471923828125 C 2717.1201171875 3957.8330078125 2717.464599609375 3958.083251953125 2717.86328125 3958.141357421875 L 2721.1982421875 3958.626220703125 C 2722.421142578125 3958.8037109375 2723.418212890625 3959.64404296875 2723.800048828125 3960.819580078125 C 2724.18212890625 3961.9951171875 2723.86962890625 3963.260986328125 2722.984619140625 3964.12353515625 L 2720.571044921875 3966.475830078125 C 2720.28271484375 3966.757080078125 2720.151123046875 3967.16162109375 2720.21923828125 3967.558349609375 L 2720.7890625 3970.880126953125 C 2720.9501953125 3971.8203125 2720.693359375 3972.7734375 2720.084716796875 3973.495361328125 C 2719.464111328125 3974.231201171875 2718.563232421875 3974.6533203125 2717.61279296875 3974.6533203125 C 2717.0908203125 3974.6533203125 2716.5859375 3974.527099609375 2716.112548828125 3974.278076171875 L 2713.129150390625 3972.709228515625 C 2712.955078125 3972.617919921875 2712.758056640625 3972.5693359375 2712.560302734375 3972.5693359375 C 2712.362548828125 3972.5693359375 2712.16552734375 3972.617919921875 2711.99072265625 3972.709716796875 L 2709.0078125 3974.278076171875 C 2708.5341796875 3974.527099609375 2708.029541015625 3974.6533203125 2707.507568359375 3974.6533203125 C 2706.556884765625 3974.6533203125 2705.65576171875 3974.231201171875 2705.035400390625 3973.4951171875 C 2704.4267578125 3972.7734375 2704.170166015625 3971.8203125 2704.331298828125 3970.88037109375 L 2704.901123046875 3967.558349609375 C 2704.968994140625 3967.161865234375 2704.83740234375 3966.7568359375 2704.549072265625 3966.4755859375 L 2702.135986328125 3964.123291015625 C 2701.2509765625 3963.260986328125 2700.938232421875 3961.9951171875 2701.3203125 3960.819580078125 C 2701.7021484375 3959.64404296875 2702.69921875 3958.8037109375 2703.92236328125 3958.6259765625 L 2707.25732421875 3958.141357421875 C 2707.656005859375 3958.083251953125 2708.000244140625 3957.8330078125 2708.178466796875 3957.47216796875 L 2709.670166015625 3954.449462890625 C 2710.217041015625 3953.341552734375 2711.324462890625 3952.653076171875 2712.560302734375 3952.653076171875 Z" stroke="none" fill="#fff"/>
        </g>
        <path id="Path_5753-2" data-name="Path 5753" d="M2720.675,3965.023l1.309,2.5a1.947,1.947,0,0,0,1.469,1l2.927.4a1.809,1.809,0,0,1,1.081,3.131l-2.451,1.943a1.769,1.769,0,0,0-.561,1.625l.833,2.743a1.929,1.929,0,0,1-2.83,1.936l-2.617-1.3a2.059,2.059,0,0,0-1.815,0l-2.618,1.3a1.929,1.929,0,0,1-2.83-1.936l.5-2.743a1.77,1.77,0,0,0-.561-1.625l-2.117-1.943a1.809,1.809,0,0,1,1.081-3.131l3.26-.4a1.946,1.946,0,0,0,1.469-1l.975-2.5A2.007,2.007,0,0,1,2720.675,3965.023Z" transform="translate(-2708.526 -3962.274)" fill="#ffb300"/>
        <path id="Path_5753_-_Outline-2" data-name="Path 5753 - Outline" d="M2717.26,3962a2.392,2.392,0,0,1,1.164.3,2.205,2.205,0,0,1,.881.9l1.309,2.5a1.611,1.611,0,0,0,1.218.829l2.926.4a2.231,2.231,0,0,1,1.865,1.531,2.077,2.077,0,0,1,.033,1.134,2.142,2.142,0,0,1-.636,1.044l-.009.008-.01.008-2.441,1.935a1.439,1.439,0,0,0-.453,1.294l.833,2.742,0,.019a2.054,2.054,0,0,1-.453,1.711,2.315,2.315,0,0,1-.794.609,2.36,2.36,0,0,1-2.06-.026l-2.617-1.3a1.727,1.727,0,0,0-1.52,0l-2.617,1.3a2.36,2.36,0,0,1-2.06.026,2.322,2.322,0,0,1-.794-.609,2.055,2.055,0,0,1-.453-1.711l.5-2.743a1.438,1.438,0,0,0-.458-1.319l-2.118-1.943a2.138,2.138,0,0,1-.636-1.044,2.073,2.073,0,0,1,.033-1.134,2.23,2.23,0,0,1,1.864-1.531h0l3.258-.4a1.613,1.613,0,0,0,1.208-.813l.975-2.495.009-.016a2.2,2.2,0,0,1,.881-.9A2.391,2.391,0,0,1,2717.26,3962Zm8.317,8.135a1.408,1.408,0,0,0,.409-1.479,1.57,1.57,0,0,0-1.318-1.069l-2.927-.4a2.281,2.281,0,0,1-1.719-1.18l-1.309-2.5a1.674,1.674,0,0,0-2.9-.016l-.975,2.495-.009.016a2.28,2.28,0,0,1-1.719,1.18h0l-3.258.4a1.569,1.569,0,0,0-1.316,1.068,1.409,1.409,0,0,0,.417,1.486l2.118,1.943a2.1,2.1,0,0,1,.664,1.93l-.5,2.743a1.4,1.4,0,0,0,.308,1.164,1.69,1.69,0,0,0,2.046.413l2.617-1.3a2.392,2.392,0,0,1,2.112,0l2.617,1.3a1.691,1.691,0,0,0,2.046-.413,1.4,1.4,0,0,0,.312-1.146l-.833-2.742,0-.019a2.1,2.1,0,0,1,.664-1.93l.009-.008.009-.008Z" transform="translate(-2706.86 -3960.607)" fill="#fff"/>
        <path id="Path_5754-2" data-name="Path 5754" d="M2764.608,3975.244c-2.286-.326-1.633-4.734-3.265-4.408-.437.087-.84.176-.916.762s.681,3.693,2.5,3.952c2.1.3,3.448.15,3.6,1.05a.668.668,0,0,1-.45.6s-2.72,1.491-2.887,3.826a4.431,4.431,0,0,0,.7,3.245c.826.515,1.474.914,1.851.443.653-.816-.326-2.285-.816-4.081s3.116-3.592,3.116-3.592a.728.728,0,0,0,.49-.653C2768.363,3975.407,2766.894,3975.571,2764.608,3975.244Z" transform="translate(-2750.702 -3967.955)" fill="#ffe97a"/>
        <path id="Path_5755-2" data-name="Path 5755" d="M2721.922,3966.972a1.913,1.913,0,0,0-3.345.024l-.936,2.43a1.869,1.869,0,0,1-1.41.978l-3.131.39a1.767,1.767,0,0,0-1.038,3.049l2.033,1.891a1.737,1.737,0,0,1,.539,1.582l-.48,2.671a1.723,1.723,0,0,0,.676,1.7,4.884,4.884,0,0,1,.221-3.176c.961-2.436.961-4.061-.8-4.873s-1.762-2.274,1.122-2.436,3.524-.65,3.844-3.411C2719.433,3965.916,2720.9,3966.133,2721.922,3966.972Z" transform="translate(-2709.938 -3963.94)" fill="#ffe41f"/>
      </g>
    </g>
    <g id="star-3" data-name="star" transform="translate(2908.307 2315.298)">
      <g id="Group_13491-3" data-name="Group 13491">
        <g id="Path_5752-3" data-name="Path 5752" transform="translate(-2702.16 -3953.653)" fill="#ffd500">
          <path d="M 2717.61279296875 3974.1533203125 C 2717.1728515625 3974.1533203125 2716.746337890625 3974.046630859375 2716.34521484375 3973.835693359375 L 2713.362060546875 3972.266845703125 C 2713.115966796875 3972.1376953125 2712.838623046875 3972.0693359375 2712.560302734375 3972.0693359375 C 2712.281982421875 3972.0693359375 2712.004638671875 3972.1376953125 2711.75830078125 3972.266845703125 L 2708.775146484375 3973.835693359375 C 2708.3740234375 3974.04638671875 2707.94775390625 3974.1533203125 2707.507568359375 3974.1533203125 C 2706.70458984375 3974.1533203125 2705.94287109375 3973.7958984375 2705.41748046875 3973.1728515625 C 2704.896728515625 3972.554931640625 2704.685791015625 3971.770751953125 2704.82421875 3970.96484375 L 2705.393798828125 3967.64306640625 C 2705.48974609375 3967.083984375 2705.304443359375 3966.513916015625 2704.898193359375 3966.11767578125 L 2702.48486328125 3963.765380859375 C 2701.7373046875 3963.036865234375 2701.47314453125 3961.96728515625 2701.795654296875 3960.97412109375 C 2702.118408203125 3959.98095703125 2702.960693359375 3959.27099609375 2703.994140625 3959.120849609375 L 2707.3291015625 3958.635986328125 C 2707.890869140625 3958.55419921875 2708.3759765625 3958.201904296875 2708.626708984375 3957.693359375 L 2710.118408203125 3954.6708984375 C 2710.58056640625 3953.734619140625 2711.516357421875 3953.1533203125 2712.560302734375 3953.1533203125 C 2713.604248046875 3953.1533203125 2714.5400390625 3953.734619140625 2715.001953125 3954.670654296875 L 2716.49365234375 3957.693359375 C 2716.74462890625 3958.201904296875 2717.229736328125 3958.55419921875 2717.791259765625 3958.635986328125 L 2721.12646484375 3959.120849609375 C 2722.15966796875 3959.270751953125 2723.001953125 3959.98095703125 2723.32470703125 3960.97412109375 C 2723.647216796875 3961.96728515625 2723.38330078125 3963.03662109375 2722.635498046875 3963.765380859375 L 2720.22216796875 3966.117919921875 C 2719.815673828125 3966.513916015625 2719.630615234375 3967.083984375 2719.726318359375 3967.64306640625 L 2720.29638671875 3970.96484375 C 2720.434326171875 3971.770751953125 2720.2236328125 3972.554931640625 2719.70263671875 3973.172607421875 C 2719.17724609375 3973.7958984375 2718.41552734375 3974.1533203125 2717.61279296875 3974.1533203125 Z" stroke="none"/>
          <path d="M 2712.560302734375 3953.653076171875 C 2711.767578125 3953.653076171875 2710.974609375 3954.066162109375 2710.56689453125 3954.89208984375 L 2709.0751953125 3957.91455078125 C 2708.75146484375 3958.57080078125 2708.12548828125 3959.025390625 2707.401123046875 3959.130859375 L 2704.06591796875 3959.61572265625 C 2702.242431640625 3959.88037109375 2701.514404296875 3962.12158203125 2702.833984375 3963.4072265625 L 2705.247314453125 3965.759765625 C 2705.77099609375 3966.2705078125 2706.01025390625 3967.00634765625 2705.88671875 3967.7275390625 L 2705.31689453125 3971.04931640625 C 2705.00537109375 3972.865966796875 2706.910888671875 3974.250732421875 2708.54248046875 3973.39306640625 L 2711.52587890625 3971.82421875 C 2712.173828125 3971.484619140625 2712.94775390625 3971.484619140625 2713.5947265625 3971.82421875 L 2716.577880859375 3973.39306640625 C 2718.20751953125 3974.251220703125 2720.11474609375 3972.86572265625 2719.803466796875 3971.04931640625 L 2719.233642578125 3967.7275390625 C 2719.10986328125 3967.00634765625 2719.34912109375 3966.2705078125 2719.873046875 3965.759765625 L 2722.28662109375 3963.4072265625 C 2723.60595703125 3962.12158203125 2722.8779296875 3959.88037109375 2721.054443359375 3959.61572265625 L 2717.71923828125 3959.130859375 C 2716.9951171875 3959.025390625 2716.369140625 3958.57080078125 2716.045166015625 3957.91455078125 L 2714.5537109375 3954.89208984375 C 2714.14599609375 3954.066162109375 2713.35302734375 3953.653076171875 2712.560302734375 3953.653076171875 M 2712.560302734375 3952.653076171875 C 2713.796142578125 3952.653076171875 2714.903564453125 3953.341552734375 2715.450439453125 3954.449462890625 L 2716.94189453125 3957.471923828125 C 2717.1201171875 3957.8330078125 2717.464599609375 3958.083251953125 2717.86328125 3958.141357421875 L 2721.1982421875 3958.626220703125 C 2722.421142578125 3958.8037109375 2723.418212890625 3959.64404296875 2723.800048828125 3960.819580078125 C 2724.18212890625 3961.9951171875 2723.86962890625 3963.260986328125 2722.984619140625 3964.12353515625 L 2720.571044921875 3966.475830078125 C 2720.28271484375 3966.757080078125 2720.151123046875 3967.16162109375 2720.21923828125 3967.558349609375 L 2720.7890625 3970.880126953125 C 2720.9501953125 3971.8203125 2720.693359375 3972.7734375 2720.084716796875 3973.495361328125 C 2719.464111328125 3974.231201171875 2718.563232421875 3974.6533203125 2717.61279296875 3974.6533203125 C 2717.0908203125 3974.6533203125 2716.5859375 3974.527099609375 2716.112548828125 3974.278076171875 L 2713.129150390625 3972.709228515625 C 2712.955078125 3972.617919921875 2712.758056640625 3972.5693359375 2712.560302734375 3972.5693359375 C 2712.362548828125 3972.5693359375 2712.16552734375 3972.617919921875 2711.99072265625 3972.709716796875 L 2709.0078125 3974.278076171875 C 2708.5341796875 3974.527099609375 2708.029541015625 3974.6533203125 2707.507568359375 3974.6533203125 C 2706.556884765625 3974.6533203125 2705.65576171875 3974.231201171875 2705.035400390625 3973.4951171875 C 2704.4267578125 3972.7734375 2704.170166015625 3971.8203125 2704.331298828125 3970.88037109375 L 2704.901123046875 3967.558349609375 C 2704.968994140625 3967.161865234375 2704.83740234375 3966.7568359375 2704.549072265625 3966.4755859375 L 2702.135986328125 3964.123291015625 C 2701.2509765625 3963.260986328125 2700.938232421875 3961.9951171875 2701.3203125 3960.819580078125 C 2701.7021484375 3959.64404296875 2702.69921875 3958.8037109375 2703.92236328125 3958.6259765625 L 2707.25732421875 3958.141357421875 C 2707.656005859375 3958.083251953125 2708.000244140625 3957.8330078125 2708.178466796875 3957.47216796875 L 2709.670166015625 3954.449462890625 C 2710.217041015625 3953.341552734375 2711.324462890625 3952.653076171875 2712.560302734375 3952.653076171875 Z" stroke="none" fill="#fff"/>
        </g>
        <path id="Path_5753-3" data-name="Path 5753" d="M2720.675,3965.023l1.309,2.5a1.947,1.947,0,0,0,1.469,1l2.927.4a1.809,1.809,0,0,1,1.081,3.131l-2.451,1.943a1.769,1.769,0,0,0-.561,1.625l.833,2.743a1.929,1.929,0,0,1-2.83,1.936l-2.617-1.3a2.059,2.059,0,0,0-1.815,0l-2.618,1.3a1.929,1.929,0,0,1-2.83-1.936l.5-2.743a1.77,1.77,0,0,0-.561-1.625l-2.117-1.943a1.809,1.809,0,0,1,1.081-3.131l3.26-.4a1.946,1.946,0,0,0,1.469-1l.975-2.5A2.007,2.007,0,0,1,2720.675,3965.023Z" transform="translate(-2708.526 -3962.274)" fill="#ffb300"/>
        <path id="Path_5753_-_Outline-3" data-name="Path 5753 - Outline" d="M2717.26,3962a2.392,2.392,0,0,1,1.164.3,2.205,2.205,0,0,1,.881.9l1.309,2.5a1.611,1.611,0,0,0,1.218.829l2.926.4a2.231,2.231,0,0,1,1.865,1.531,2.077,2.077,0,0,1,.033,1.134,2.142,2.142,0,0,1-.636,1.044l-.009.008-.01.008-2.441,1.935a1.439,1.439,0,0,0-.453,1.294l.833,2.742,0,.019a2.054,2.054,0,0,1-.453,1.711,2.315,2.315,0,0,1-.794.609,2.36,2.36,0,0,1-2.06-.026l-2.617-1.3a1.727,1.727,0,0,0-1.52,0l-2.617,1.3a2.36,2.36,0,0,1-2.06.026,2.322,2.322,0,0,1-.794-.609,2.055,2.055,0,0,1-.453-1.711l.5-2.743a1.438,1.438,0,0,0-.458-1.319l-2.118-1.943a2.138,2.138,0,0,1-.636-1.044,2.073,2.073,0,0,1,.033-1.134,2.23,2.23,0,0,1,1.864-1.531h0l3.258-.4a1.613,1.613,0,0,0,1.208-.813l.975-2.495.009-.016a2.2,2.2,0,0,1,.881-.9A2.391,2.391,0,0,1,2717.26,3962Zm8.317,8.135a1.408,1.408,0,0,0,.409-1.479,1.57,1.57,0,0,0-1.318-1.069l-2.927-.4a2.281,2.281,0,0,1-1.719-1.18l-1.309-2.5a1.674,1.674,0,0,0-2.9-.016l-.975,2.495-.009.016a2.28,2.28,0,0,1-1.719,1.18h0l-3.258.4a1.569,1.569,0,0,0-1.316,1.068,1.409,1.409,0,0,0,.417,1.486l2.118,1.943a2.1,2.1,0,0,1,.664,1.93l-.5,2.743a1.4,1.4,0,0,0,.308,1.164,1.69,1.69,0,0,0,2.046.413l2.617-1.3a2.392,2.392,0,0,1,2.112,0l2.617,1.3a1.691,1.691,0,0,0,2.046-.413,1.4,1.4,0,0,0,.312-1.146l-.833-2.742,0-.019a2.1,2.1,0,0,1,.664-1.93l.009-.008.009-.008Z" transform="translate(-2706.86 -3960.607)" fill="#fff"/>
        <path id="Path_5754-3" data-name="Path 5754" d="M2764.608,3975.244c-2.286-.326-1.633-4.734-3.265-4.408-.437.087-.84.176-.916.762s.681,3.693,2.5,3.952c2.1.3,3.448.15,3.6,1.05a.668.668,0,0,1-.45.6s-2.72,1.491-2.887,3.826a4.431,4.431,0,0,0,.7,3.245c.826.515,1.474.914,1.851.443.653-.816-.326-2.285-.816-4.081s3.116-3.592,3.116-3.592a.728.728,0,0,0,.49-.653C2768.363,3975.407,2766.894,3975.571,2764.608,3975.244Z" transform="translate(-2750.702 -3967.955)" fill="#ffe97a"/>
        <path id="Path_5755-3" data-name="Path 5755" d="M2721.922,3966.972a1.913,1.913,0,0,0-3.345.024l-.936,2.43a1.869,1.869,0,0,1-1.41.978l-3.131.39a1.767,1.767,0,0,0-1.038,3.049l2.033,1.891a1.737,1.737,0,0,1,.539,1.582l-.48,2.671a1.723,1.723,0,0,0,.676,1.7,4.884,4.884,0,0,1,.221-3.176c.961-2.436.961-4.061-.8-4.873s-1.762-2.274,1.122-2.436,3.524-.65,3.844-3.411C2719.433,3965.916,2720.9,3966.133,2721.922,3966.972Z" transform="translate(-2709.938 -3963.94)" fill="#ffe41f"/>
      </g>
    </g>
    <g id="star-4" data-name="star" transform="translate(2953.312 2315.298)">
      <g id="Group_13491-4" data-name="Group 13491">
        <g id="Path_5752-4" data-name="Path 5752" transform="translate(-2702.16 -3953.653)" fill="#ffd500">
          <path d="M 2717.61279296875 3974.1533203125 C 2717.1728515625 3974.1533203125 2716.746337890625 3974.046630859375 2716.34521484375 3973.835693359375 L 2713.362060546875 3972.266845703125 C 2713.115966796875 3972.1376953125 2712.838623046875 3972.0693359375 2712.560302734375 3972.0693359375 C 2712.281982421875 3972.0693359375 2712.004638671875 3972.1376953125 2711.75830078125 3972.266845703125 L 2708.775146484375 3973.835693359375 C 2708.3740234375 3974.04638671875 2707.94775390625 3974.1533203125 2707.507568359375 3974.1533203125 C 2706.70458984375 3974.1533203125 2705.94287109375 3973.7958984375 2705.41748046875 3973.1728515625 C 2704.896728515625 3972.554931640625 2704.685791015625 3971.770751953125 2704.82421875 3970.96484375 L 2705.393798828125 3967.64306640625 C 2705.48974609375 3967.083984375 2705.304443359375 3966.513916015625 2704.898193359375 3966.11767578125 L 2702.48486328125 3963.765380859375 C 2701.7373046875 3963.036865234375 2701.47314453125 3961.96728515625 2701.795654296875 3960.97412109375 C 2702.118408203125 3959.98095703125 2702.960693359375 3959.27099609375 2703.994140625 3959.120849609375 L 2707.3291015625 3958.635986328125 C 2707.890869140625 3958.55419921875 2708.3759765625 3958.201904296875 2708.626708984375 3957.693359375 L 2710.118408203125 3954.6708984375 C 2710.58056640625 3953.734619140625 2711.516357421875 3953.1533203125 2712.560302734375 3953.1533203125 C 2713.604248046875 3953.1533203125 2714.5400390625 3953.734619140625 2715.001953125 3954.670654296875 L 2716.49365234375 3957.693359375 C 2716.74462890625 3958.201904296875 2717.229736328125 3958.55419921875 2717.791259765625 3958.635986328125 L 2721.12646484375 3959.120849609375 C 2722.15966796875 3959.270751953125 2723.001953125 3959.98095703125 2723.32470703125 3960.97412109375 C 2723.647216796875 3961.96728515625 2723.38330078125 3963.03662109375 2722.635498046875 3963.765380859375 L 2720.22216796875 3966.117919921875 C 2719.815673828125 3966.513916015625 2719.630615234375 3967.083984375 2719.726318359375 3967.64306640625 L 2720.29638671875 3970.96484375 C 2720.434326171875 3971.770751953125 2720.2236328125 3972.554931640625 2719.70263671875 3973.172607421875 C 2719.17724609375 3973.7958984375 2718.41552734375 3974.1533203125 2717.61279296875 3974.1533203125 Z" stroke="none"/>
          <path d="M 2712.560302734375 3953.653076171875 C 2711.767578125 3953.653076171875 2710.974609375 3954.066162109375 2710.56689453125 3954.89208984375 L 2709.0751953125 3957.91455078125 C 2708.75146484375 3958.57080078125 2708.12548828125 3959.025390625 2707.401123046875 3959.130859375 L 2704.06591796875 3959.61572265625 C 2702.242431640625 3959.88037109375 2701.514404296875 3962.12158203125 2702.833984375 3963.4072265625 L 2705.247314453125 3965.759765625 C 2705.77099609375 3966.2705078125 2706.01025390625 3967.00634765625 2705.88671875 3967.7275390625 L 2705.31689453125 3971.04931640625 C 2705.00537109375 3972.865966796875 2706.910888671875 3974.250732421875 2708.54248046875 3973.39306640625 L 2711.52587890625 3971.82421875 C 2712.173828125 3971.484619140625 2712.94775390625 3971.484619140625 2713.5947265625 3971.82421875 L 2716.577880859375 3973.39306640625 C 2718.20751953125 3974.251220703125 2720.11474609375 3972.86572265625 2719.803466796875 3971.04931640625 L 2719.233642578125 3967.7275390625 C 2719.10986328125 3967.00634765625 2719.34912109375 3966.2705078125 2719.873046875 3965.759765625 L 2722.28662109375 3963.4072265625 C 2723.60595703125 3962.12158203125 2722.8779296875 3959.88037109375 2721.054443359375 3959.61572265625 L 2717.71923828125 3959.130859375 C 2716.9951171875 3959.025390625 2716.369140625 3958.57080078125 2716.045166015625 3957.91455078125 L 2714.5537109375 3954.89208984375 C 2714.14599609375 3954.066162109375 2713.35302734375 3953.653076171875 2712.560302734375 3953.653076171875 M 2712.560302734375 3952.653076171875 C 2713.796142578125 3952.653076171875 2714.903564453125 3953.341552734375 2715.450439453125 3954.449462890625 L 2716.94189453125 3957.471923828125 C 2717.1201171875 3957.8330078125 2717.464599609375 3958.083251953125 2717.86328125 3958.141357421875 L 2721.1982421875 3958.626220703125 C 2722.421142578125 3958.8037109375 2723.418212890625 3959.64404296875 2723.800048828125 3960.819580078125 C 2724.18212890625 3961.9951171875 2723.86962890625 3963.260986328125 2722.984619140625 3964.12353515625 L 2720.571044921875 3966.475830078125 C 2720.28271484375 3966.757080078125 2720.151123046875 3967.16162109375 2720.21923828125 3967.558349609375 L 2720.7890625 3970.880126953125 C 2720.9501953125 3971.8203125 2720.693359375 3972.7734375 2720.084716796875 3973.495361328125 C 2719.464111328125 3974.231201171875 2718.563232421875 3974.6533203125 2717.61279296875 3974.6533203125 C 2717.0908203125 3974.6533203125 2716.5859375 3974.527099609375 2716.112548828125 3974.278076171875 L 2713.129150390625 3972.709228515625 C 2712.955078125 3972.617919921875 2712.758056640625 3972.5693359375 2712.560302734375 3972.5693359375 C 2712.362548828125 3972.5693359375 2712.16552734375 3972.617919921875 2711.99072265625 3972.709716796875 L 2709.0078125 3974.278076171875 C 2708.5341796875 3974.527099609375 2708.029541015625 3974.6533203125 2707.507568359375 3974.6533203125 C 2706.556884765625 3974.6533203125 2705.65576171875 3974.231201171875 2705.035400390625 3973.4951171875 C 2704.4267578125 3972.7734375 2704.170166015625 3971.8203125 2704.331298828125 3970.88037109375 L 2704.901123046875 3967.558349609375 C 2704.968994140625 3967.161865234375 2704.83740234375 3966.7568359375 2704.549072265625 3966.4755859375 L 2702.135986328125 3964.123291015625 C 2701.2509765625 3963.260986328125 2700.938232421875 3961.9951171875 2701.3203125 3960.819580078125 C 2701.7021484375 3959.64404296875 2702.69921875 3958.8037109375 2703.92236328125 3958.6259765625 L 2707.25732421875 3958.141357421875 C 2707.656005859375 3958.083251953125 2708.000244140625 3957.8330078125 2708.178466796875 3957.47216796875 L 2709.670166015625 3954.449462890625 C 2710.217041015625 3953.341552734375 2711.324462890625 3952.653076171875 2712.560302734375 3952.653076171875 Z" stroke="none" fill="#fff"/>
        </g>
        <path id="Path_5753-4" data-name="Path 5753" d="M2720.675,3965.023l1.309,2.5a1.947,1.947,0,0,0,1.469,1l2.927.4a1.809,1.809,0,0,1,1.081,3.131l-2.451,1.943a1.769,1.769,0,0,0-.561,1.625l.833,2.743a1.929,1.929,0,0,1-2.83,1.936l-2.617-1.3a2.059,2.059,0,0,0-1.815,0l-2.618,1.3a1.929,1.929,0,0,1-2.83-1.936l.5-2.743a1.77,1.77,0,0,0-.561-1.625l-2.117-1.943a1.809,1.809,0,0,1,1.081-3.131l3.26-.4a1.946,1.946,0,0,0,1.469-1l.975-2.5A2.007,2.007,0,0,1,2720.675,3965.023Z" transform="translate(-2708.526 -3962.274)" fill="#ffb300"/>
        <path id="Path_5753_-_Outline-4" data-name="Path 5753 - Outline" d="M2717.26,3962a2.392,2.392,0,0,1,1.164.3,2.205,2.205,0,0,1,.881.9l1.309,2.5a1.611,1.611,0,0,0,1.218.829l2.926.4a2.231,2.231,0,0,1,1.865,1.531,2.077,2.077,0,0,1,.033,1.134,2.142,2.142,0,0,1-.636,1.044l-.009.008-.01.008-2.441,1.935a1.439,1.439,0,0,0-.453,1.294l.833,2.742,0,.019a2.054,2.054,0,0,1-.453,1.711,2.315,2.315,0,0,1-.794.609,2.36,2.36,0,0,1-2.06-.026l-2.617-1.3a1.727,1.727,0,0,0-1.52,0l-2.617,1.3a2.36,2.36,0,0,1-2.06.026,2.322,2.322,0,0,1-.794-.609,2.055,2.055,0,0,1-.453-1.711l.5-2.743a1.438,1.438,0,0,0-.458-1.319l-2.118-1.943a2.138,2.138,0,0,1-.636-1.044,2.073,2.073,0,0,1,.033-1.134,2.23,2.23,0,0,1,1.864-1.531h0l3.258-.4a1.613,1.613,0,0,0,1.208-.813l.975-2.495.009-.016a2.2,2.2,0,0,1,.881-.9A2.391,2.391,0,0,1,2717.26,3962Zm8.317,8.135a1.408,1.408,0,0,0,.409-1.479,1.57,1.57,0,0,0-1.318-1.069l-2.927-.4a2.281,2.281,0,0,1-1.719-1.18l-1.309-2.5a1.674,1.674,0,0,0-2.9-.016l-.975,2.495-.009.016a2.28,2.28,0,0,1-1.719,1.18h0l-3.258.4a1.569,1.569,0,0,0-1.316,1.068,1.409,1.409,0,0,0,.417,1.486l2.118,1.943a2.1,2.1,0,0,1,.664,1.93l-.5,2.743a1.4,1.4,0,0,0,.308,1.164,1.69,1.69,0,0,0,2.046.413l2.617-1.3a2.392,2.392,0,0,1,2.112,0l2.617,1.3a1.691,1.691,0,0,0,2.046-.413,1.4,1.4,0,0,0,.312-1.146l-.833-2.742,0-.019a2.1,2.1,0,0,1,.664-1.93l.009-.008.009-.008Z" transform="translate(-2706.86 -3960.607)" fill="#fff"/>
        <path id="Path_5754-4" data-name="Path 5754" d="M2764.608,3975.244c-2.286-.326-1.633-4.734-3.265-4.408-.437.087-.84.176-.916.762s.681,3.693,2.5,3.952c2.1.3,3.448.15,3.6,1.05a.668.668,0,0,1-.45.6s-2.72,1.491-2.887,3.826a4.431,4.431,0,0,0,.7,3.245c.826.515,1.474.914,1.851.443.653-.816-.326-2.285-.816-4.081s3.116-3.592,3.116-3.592a.728.728,0,0,0,.49-.653C2768.363,3975.407,2766.894,3975.571,2764.608,3975.244Z" transform="translate(-2750.702 -3967.955)" fill="#ffe97a"/>
        <path id="Path_5755-4" data-name="Path 5755" d="M2721.922,3966.972a1.913,1.913,0,0,0-3.345.024l-.936,2.43a1.869,1.869,0,0,1-1.41.978l-3.131.39a1.767,1.767,0,0,0-1.038,3.049l2.033,1.891a1.737,1.737,0,0,1,.539,1.582l-.48,2.671a1.723,1.723,0,0,0,.676,1.7,4.884,4.884,0,0,1,.221-3.176c.961-2.436.961-4.061-.8-4.873s-1.762-2.274,1.122-2.436,3.524-.65,3.844-3.411C2719.433,3965.916,2720.9,3966.133,2721.922,3966.972Z" transform="translate(-2709.938 -3963.94)" fill="#ffe41f"/>
      </g>
    </g>
    <g id="star-5" data-name="star" transform="translate(2975.814 2315.298)">
      <g id="Group_13491-5" data-name="Group 13491">
        <g id="Path_5752-5" data-name="Path 5752" transform="translate(-2702.16 -3953.653)" fill="#ffd500">
          <path d="M 2717.61279296875 3974.1533203125 C 2717.1728515625 3974.1533203125 2716.746337890625 3974.046630859375 2716.34521484375 3973.835693359375 L 2713.362060546875 3972.266845703125 C 2713.115966796875 3972.1376953125 2712.838623046875 3972.0693359375 2712.560302734375 3972.0693359375 C 2712.281982421875 3972.0693359375 2712.004638671875 3972.1376953125 2711.75830078125 3972.266845703125 L 2708.775146484375 3973.835693359375 C 2708.3740234375 3974.04638671875 2707.94775390625 3974.1533203125 2707.507568359375 3974.1533203125 C 2706.70458984375 3974.1533203125 2705.94287109375 3973.7958984375 2705.41748046875 3973.1728515625 C 2704.896728515625 3972.554931640625 2704.685791015625 3971.770751953125 2704.82421875 3970.96484375 L 2705.393798828125 3967.64306640625 C 2705.48974609375 3967.083984375 2705.304443359375 3966.513916015625 2704.898193359375 3966.11767578125 L 2702.48486328125 3963.765380859375 C 2701.7373046875 3963.036865234375 2701.47314453125 3961.96728515625 2701.795654296875 3960.97412109375 C 2702.118408203125 3959.98095703125 2702.960693359375 3959.27099609375 2703.994140625 3959.120849609375 L 2707.3291015625 3958.635986328125 C 2707.890869140625 3958.55419921875 2708.3759765625 3958.201904296875 2708.626708984375 3957.693359375 L 2710.118408203125 3954.6708984375 C 2710.58056640625 3953.734619140625 2711.516357421875 3953.1533203125 2712.560302734375 3953.1533203125 C 2713.604248046875 3953.1533203125 2714.5400390625 3953.734619140625 2715.001953125 3954.670654296875 L 2716.49365234375 3957.693359375 C 2716.74462890625 3958.201904296875 2717.229736328125 3958.55419921875 2717.791259765625 3958.635986328125 L 2721.12646484375 3959.120849609375 C 2722.15966796875 3959.270751953125 2723.001953125 3959.98095703125 2723.32470703125 3960.97412109375 C 2723.647216796875 3961.96728515625 2723.38330078125 3963.03662109375 2722.635498046875 3963.765380859375 L 2720.22216796875 3966.117919921875 C 2719.815673828125 3966.513916015625 2719.630615234375 3967.083984375 2719.726318359375 3967.64306640625 L 2720.29638671875 3970.96484375 C 2720.434326171875 3971.770751953125 2720.2236328125 3972.554931640625 2719.70263671875 3973.172607421875 C 2719.17724609375 3973.7958984375 2718.41552734375 3974.1533203125 2717.61279296875 3974.1533203125 Z" stroke="none"/>
          <path d="M 2712.560302734375 3953.653076171875 C 2711.767578125 3953.653076171875 2710.974609375 3954.066162109375 2710.56689453125 3954.89208984375 L 2709.0751953125 3957.91455078125 C 2708.75146484375 3958.57080078125 2708.12548828125 3959.025390625 2707.401123046875 3959.130859375 L 2704.06591796875 3959.61572265625 C 2702.242431640625 3959.88037109375 2701.514404296875 3962.12158203125 2702.833984375 3963.4072265625 L 2705.247314453125 3965.759765625 C 2705.77099609375 3966.2705078125 2706.01025390625 3967.00634765625 2705.88671875 3967.7275390625 L 2705.31689453125 3971.04931640625 C 2705.00537109375 3972.865966796875 2706.910888671875 3974.250732421875 2708.54248046875 3973.39306640625 L 2711.52587890625 3971.82421875 C 2712.173828125 3971.484619140625 2712.94775390625 3971.484619140625 2713.5947265625 3971.82421875 L 2716.577880859375 3973.39306640625 C 2718.20751953125 3974.251220703125 2720.11474609375 3972.86572265625 2719.803466796875 3971.04931640625 L 2719.233642578125 3967.7275390625 C 2719.10986328125 3967.00634765625 2719.34912109375 3966.2705078125 2719.873046875 3965.759765625 L 2722.28662109375 3963.4072265625 C 2723.60595703125 3962.12158203125 2722.8779296875 3959.88037109375 2721.054443359375 3959.61572265625 L 2717.71923828125 3959.130859375 C 2716.9951171875 3959.025390625 2716.369140625 3958.57080078125 2716.045166015625 3957.91455078125 L 2714.5537109375 3954.89208984375 C 2714.14599609375 3954.066162109375 2713.35302734375 3953.653076171875 2712.560302734375 3953.653076171875 M 2712.560302734375 3952.653076171875 C 2713.796142578125 3952.653076171875 2714.903564453125 3953.341552734375 2715.450439453125 3954.449462890625 L 2716.94189453125 3957.471923828125 C 2717.1201171875 3957.8330078125 2717.464599609375 3958.083251953125 2717.86328125 3958.141357421875 L 2721.1982421875 3958.626220703125 C 2722.421142578125 3958.8037109375 2723.418212890625 3959.64404296875 2723.800048828125 3960.819580078125 C 2724.18212890625 3961.9951171875 2723.86962890625 3963.260986328125 2722.984619140625 3964.12353515625 L 2720.571044921875 3966.475830078125 C 2720.28271484375 3966.757080078125 2720.151123046875 3967.16162109375 2720.21923828125 3967.558349609375 L 2720.7890625 3970.880126953125 C 2720.9501953125 3971.8203125 2720.693359375 3972.7734375 2720.084716796875 3973.495361328125 C 2719.464111328125 3974.231201171875 2718.563232421875 3974.6533203125 2717.61279296875 3974.6533203125 C 2717.0908203125 3974.6533203125 2716.5859375 3974.527099609375 2716.112548828125 3974.278076171875 L 2713.129150390625 3972.709228515625 C 2712.955078125 3972.617919921875 2712.758056640625 3972.5693359375 2712.560302734375 3972.5693359375 C 2712.362548828125 3972.5693359375 2712.16552734375 3972.617919921875 2711.99072265625 3972.709716796875 L 2709.0078125 3974.278076171875 C 2708.5341796875 3974.527099609375 2708.029541015625 3974.6533203125 2707.507568359375 3974.6533203125 C 2706.556884765625 3974.6533203125 2705.65576171875 3974.231201171875 2705.035400390625 3973.4951171875 C 2704.4267578125 3972.7734375 2704.170166015625 3971.8203125 2704.331298828125 3970.88037109375 L 2704.901123046875 3967.558349609375 C 2704.968994140625 3967.161865234375 2704.83740234375 3966.7568359375 2704.549072265625 3966.4755859375 L 2702.135986328125 3964.123291015625 C 2701.2509765625 3963.260986328125 2700.938232421875 3961.9951171875 2701.3203125 3960.819580078125 C 2701.7021484375 3959.64404296875 2702.69921875 3958.8037109375 2703.92236328125 3958.6259765625 L 2707.25732421875 3958.141357421875 C 2707.656005859375 3958.083251953125 2708.000244140625 3957.8330078125 2708.178466796875 3957.47216796875 L 2709.670166015625 3954.449462890625 C 2710.217041015625 3953.341552734375 2711.324462890625 3952.653076171875 2712.560302734375 3952.653076171875 Z" stroke="none" fill="#fff"/>
        </g>
        <path id="Path_5753-5" data-name="Path 5753" d="M2720.675,3965.023l1.309,2.5a1.947,1.947,0,0,0,1.469,1l2.927.4a1.809,1.809,0,0,1,1.081,3.131l-2.451,1.943a1.769,1.769,0,0,0-.561,1.625l.833,2.743a1.929,1.929,0,0,1-2.83,1.936l-2.617-1.3a2.059,2.059,0,0,0-1.815,0l-2.618,1.3a1.929,1.929,0,0,1-2.83-1.936l.5-2.743a1.77,1.77,0,0,0-.561-1.625l-2.117-1.943a1.809,1.809,0,0,1,1.081-3.131l3.26-.4a1.946,1.946,0,0,0,1.469-1l.975-2.5A2.007,2.007,0,0,1,2720.675,3965.023Z" transform="translate(-2708.526 -3962.274)" fill="#ffb300"/>
        <path id="Path_5753_-_Outline-5" data-name="Path 5753 - Outline" d="M2717.26,3962a2.392,2.392,0,0,1,1.164.3,2.205,2.205,0,0,1,.881.9l1.309,2.5a1.611,1.611,0,0,0,1.218.829l2.926.4a2.231,2.231,0,0,1,1.865,1.531,2.077,2.077,0,0,1,.033,1.134,2.142,2.142,0,0,1-.636,1.044l-.009.008-.01.008-2.441,1.935a1.439,1.439,0,0,0-.453,1.294l.833,2.742,0,.019a2.054,2.054,0,0,1-.453,1.711,2.315,2.315,0,0,1-.794.609,2.36,2.36,0,0,1-2.06-.026l-2.617-1.3a1.727,1.727,0,0,0-1.52,0l-2.617,1.3a2.36,2.36,0,0,1-2.06.026,2.322,2.322,0,0,1-.794-.609,2.055,2.055,0,0,1-.453-1.711l.5-2.743a1.438,1.438,0,0,0-.458-1.319l-2.118-1.943a2.138,2.138,0,0,1-.636-1.044,2.073,2.073,0,0,1,.033-1.134,2.23,2.23,0,0,1,1.864-1.531h0l3.258-.4a1.613,1.613,0,0,0,1.208-.813l.975-2.495.009-.016a2.2,2.2,0,0,1,.881-.9A2.391,2.391,0,0,1,2717.26,3962Zm8.317,8.135a1.408,1.408,0,0,0,.409-1.479,1.57,1.57,0,0,0-1.318-1.069l-2.927-.4a2.281,2.281,0,0,1-1.719-1.18l-1.309-2.5a1.674,1.674,0,0,0-2.9-.016l-.975,2.495-.009.016a2.28,2.28,0,0,1-1.719,1.18h0l-3.258.4a1.569,1.569,0,0,0-1.316,1.068,1.409,1.409,0,0,0,.417,1.486l2.118,1.943a2.1,2.1,0,0,1,.664,1.93l-.5,2.743a1.4,1.4,0,0,0,.308,1.164,1.69,1.69,0,0,0,2.046.413l2.617-1.3a2.392,2.392,0,0,1,2.112,0l2.617,1.3a1.691,1.691,0,0,0,2.046-.413,1.4,1.4,0,0,0,.312-1.146l-.833-2.742,0-.019a2.1,2.1,0,0,1,.664-1.93l.009-.008.009-.008Z" transform="translate(-2706.86 -3960.607)" fill="#fff"/>
        <path id="Path_5754-5" data-name="Path 5754" d="M2764.608,3975.244c-2.286-.326-1.633-4.734-3.265-4.408-.437.087-.84.176-.916.762s.681,3.693,2.5,3.952c2.1.3,3.448.15,3.6,1.05a.668.668,0,0,1-.45.6s-2.72,1.491-2.887,3.826a4.431,4.431,0,0,0,.7,3.245c.826.515,1.474.914,1.851.443.653-.816-.326-2.285-.816-4.081s3.116-3.592,3.116-3.592a.728.728,0,0,0,.49-.653C2768.363,3975.407,2766.894,3975.571,2764.608,3975.244Z" transform="translate(-2750.702 -3967.955)" fill="#ffe97a"/>
        <path id="Path_5755-5" data-name="Path 5755" d="M2721.922,3966.972a1.913,1.913,0,0,0-3.345.024l-.936,2.43a1.869,1.869,0,0,1-1.41.978l-3.131.39a1.767,1.767,0,0,0-1.038,3.049l2.033,1.891a1.737,1.737,0,0,1,.539,1.582l-.48,2.671a1.723,1.723,0,0,0,.676,1.7,4.884,4.884,0,0,1,.221-3.176c.961-2.436.961-4.061-.8-4.873s-1.762-2.274,1.122-2.436,3.524-.65,3.844-3.411C2719.433,3965.916,2720.9,3966.133,2721.922,3966.972Z" transform="translate(-2709.938 -3963.94)" fill="#ffe41f"/>
      </g>
    </g>
  </g>
</svg>
