<svg id="reward" xmlns="http://www.w3.org/2000/svg" xmlns:xlink="http://www.w3.org/1999/xlink" width="267.801" height="217.327" viewBox="0 0 267.801 217.327">
  <defs>
    <linearGradient id="linear-gradient" x1="0.5" x2="0.5" y2="1" gradientUnits="objectBoundingBox">
      <stop offset="0" stop-color="#dee8ff"/>
      <stop offset="1" stop-color="#fff"/>
    </linearGradient>
  </defs>
  <g id="bg" transform="translate(-634.634 -345.479)">
    <g id="icons_bg" transform="translate(683.923 372.646)">
      <path id="Path_4322" data-name="Path 4322" d="M69.553-20c39.406,0,87.754,48.348,87.754,87.754s-48.348,79.553-87.754,79.553S-10,107.16-10,67.754,30.146-20,69.553-20Z" transform="translate(10 29.697)" fill="#8baeff"/>
      <path id="Path_4323" data-name="Path 4323" d="M404.132-7650.633c3.529,11.292,32.816,16.937,44.813,46.577s14.467-6.7-6-26.817S400.6-7661.924,404.132-7650.633Z" transform="translate(-281.756 7660.628)" fill="#8baeff"/>
      <path id="Path_4324" data-name="Path 4324" d="M472.534-7556.358c-4.747,2.388-6.1,7.241.743,10.266S477.281-7558.746,472.534-7556.358Z" transform="translate(-360.328 7556.607)" fill="#8baeff"/>
    </g>
    <path id="Polygon_23" data-name="Polygon 23" d="M21.363,24.492a8,8,0,0,1,15.275,0L54.763,82.618A8,8,0,0,1,47.125,93H10.875A8,8,0,0,1,3.237,82.618Z" transform="translate(735.893 454.081) rotate(43)" opacity="0.5" fill="url(#linear-gradient)"/>
    <path id="Polygon_26" data-name="Polygon 26" d="M21.248,30.392c2.048-8.03,13.455-8.03,15.5,0l18.7,73.328A8,8,0,0,1,47.7,113.7H10.3a8,8,0,0,1-7.752-9.977Z" transform="translate(748.05 493.335) rotate(-67)" opacity="0.5" fill="url(#linear-gradient)"/>
    <path id="Polygon_24" data-name="Polygon 24" d="M15.546,25.782a4,4,0,0,1,7.908,0l14.84,96.766a4,4,0,0,1-3.954,4.606H4.66a4,4,0,0,1-3.954-4.606Z" transform="matrix(0.225, 0.974, -0.974, 0.225, 758.53, 451.21)" opacity="0.5" fill="url(#linear-gradient)"/>
    <path id="Polygon_25" data-name="Polygon 25" d="M15.563,22.01a4,4,0,0,1,7.875,0L38.158,104.3a4,4,0,0,1-3.937,4.7H4.779a4,4,0,0,1-3.937-4.7Z" transform="translate(795.438 470.669) rotate(-101)" opacity="0.5" fill="url(#linear-gradient)"/>
    <path id="Polygon_27" data-name="Polygon 27" d="M5.435,20.181a1,1,0,0,1,2,0l5.383,108.769a1,1,0,0,1-1,1.049H1.051a1,1,0,0,1-1-1.049Z" transform="translate(785.848 464.219) rotate(-120)" fill="#fff" opacity="0.5"/>
    <path id="Polygon_28" data-name="Polygon 28" d="M5.435,16.527a1,1,0,0,1,2,0L12.8,105.463a1,1,0,0,1-1,1.06H1.062a1,1,0,0,1-1-1.06Z" transform="translate(762.068 457.785) rotate(90)" fill="#fff" opacity="0.5"/>
    <path id="ic_circle" d="M628.18,100.74c-5.78-.02-8.53,2.73-8.53,8.53.01,5.33,3.45,8.91,8.55,8.88a9.044,9.044,0,0,0,8.86-8.79C637.1,104.42,633.32,100.75,628.18,100.74Zm-.2,13.72c-2.63-.9-5.11-2-4.89-5.25.22-3.19,2.25-5.14,5.43-5.01,3.12.12,4.69,2.56,4.64,5.33C633.1,112.48,630.9,114.02,627.98,114.46Z" transform="translate(201.862 444.656)" fill="#ffba00"/>
    <path id="ic_triangle" data-name="ic+triangle" d="M461.16,259.39c.12-10.77-.17-11.72-9.03-5.61-.14.09-.31.14-.45.22-8.91,5.25-8.94,5.3-.06,10.46,2.77,1.6,6.03,4.87,8.67,3.34C462.9,266.29,460.73,261.91,461.16,259.39Zm-3.62,2.92c-2.144,1.482-3.642-.808-5.743-1.937a1.347,1.347,0,0,1-.355-2.134c1.85-1.887,3.628-3.121,5.558-2.239C458.85,256.83,458.76,261.47,457.54,262.31Z" transform="translate(193.944 220.656)" fill="#b3c5f0"/>
    <path id="ic_triangle-2" data-name="ic+triangle" d="M461.16,259.39c.12-10.77-.17-11.72-9.03-5.61-.14.09-.31.14-.45.22-8.91,5.25-8.94,5.3-.06,10.46,2.77,1.6,6.03,4.87,8.67,3.34C462.9,266.29,460.73,261.91,461.16,259.39Zm-3.62,2.92c-2.144,1.482-3.642-.808-5.743-1.937a1.347,1.347,0,0,1-.355-2.134c1.85-1.887,3.628-3.121,5.558-2.239C458.85,256.83,458.76,261.47,457.54,262.31Z" transform="translate(938.018 -61.372) rotate(93)" fill="#ffba00"/>
    <path id="ic_med" d="M491.458,583.768c-.9,0-1.807-.069-2.695.015-1.876.178-2.332-.672-2.417-2.463-.44-8.832-.494-8.825-9.164-8.832-.9,0-1.807-.008-2.7-.008-4.648.008-5.868,1.228-5.914,5.937a22.392,22.392,0,0,0,.015,2.695c.232,1.977-.479,2.9-2.556,2.679a25.619,25.619,0,0,0-3.081-.023c-4.478.031-5.381.911-5.52,5.4-.031,1.158,0,2.316,0,3.474,0,8.639,0,8.686,8.616,9.242,1.683.108,2.455.4,2.579,2.347.571,8.856.641,8.848,9.5,8.8.772,0,1.536,0,2.308-.008,4.849-.039,5.891-1.058,5.968-5.837.085-5.219.085-5.219,5.358-5.25,4.617-.023,5.659-1.042,5.721-5.59.008-1.158,0-2.316,0-3.474,0-1.027.008-2.054,0-3.088C497.442,584.524,496.7,583.783,491.458,583.768Zm2.308,6.8a11.422,11.422,0,0,0-.015,1.544c0,5.628,0,5.628-5.775,5.628-5.458,0-5.5.046-5.52,5.675a6.442,6.442,0,0,0,.008,1.158c.595,3.59-.594,5.3-4.493,4.571a27.737,27.737,0,0,0-4.609-.116c-.062-1.884-.031-3.775-.2-5.644-.154-1.753.865-3.9-1.49-5.011-2.671-1.289-5.536-.54-8.307-.672-1.637-.077-2.409-.54-2.146-2.231a2.146,2.146,0,0,0,0-.386c-.239-7.157-.232-7.311,6.871-7.142,3.3.085,4.2-1.189,4.2-4.254.008-7.69.679-8.137,8.446-7.088,1.2.162,1.976.432,1.861,1.807a11.45,11.45,0,0,0,.008,1.15c.224,8.145.224,8.207,8.57,8.446C493.087,588.06,494.122,588.454,493.767,590.569Z" transform="translate(489.336 -291.508) rotate(9)" fill="#b3c5f0"/>
    <path id="ic_circle-2" data-name="ic_circle" d="M628.18,100.74c-5.78-.02-8.53,2.73-8.53,8.53.01,5.33,3.45,8.91,8.55,8.88a9.044,9.044,0,0,0,8.86-8.79C637.1,104.42,633.32,100.75,628.18,100.74Zm-.2,13.72c-2.63-.9-5.11-2-4.89-5.25.22-3.19,2.25-5.14,5.43-5.01,3.12.12,4.69,2.56,4.64,5.33C633.1,112.48,630.9,114.02,627.98,114.46Z" transform="translate(91.862 254.656)" fill="#b3c5f0"/>
  </g>
  <g id="Polygon_31" data-name="Polygon 31" transform="matrix(0.719, 0.695, -0.695, 0.719, 170.05, 35.071)" fill="#f8d008" stroke-linecap="round" stroke-linejoin="round">
    <path d="M 36.2752799987793 44.70986938476562 C 36.01082992553711 44.70988082885742 35.74662017822266 44.67467880249023 35.4900016784668 44.60525131225586 L 23 41.22587585449219 L 10.50998973846436 44.60525131225586 C 10.25343036651611 44.6746711730957 9.989250183105469 44.70986938476562 9.724809646606445 44.70986938476562 C 8.119709968566895 44.70986938476562 6.804090023040771 43.45293045043945 6.729680061340332 41.84833145141602 L 6.142087936401367 29.17407989501953 L -0.953760027885437 18.59317016601562 C -1.469159960746765 17.82463073730469 -1.601349949836731 16.87891006469727 -1.316409945487976 15.99850082397461 C -1.031469941139221 15.11809062957764 -0.3702400028705597 14.42915058135986 0.4977400004863739 14.10832023620605 L 12.59299087524414 9.637665748596191 L 20.67160034179688 -0.3058393001556396 C 21.24383926391602 -1.010169267654419 22.09251022338867 -1.414129257202148 23 -1.414129257202148 C 23.90748977661133 -1.414129257202148 24.75616073608398 -1.010169267654419 25.32839012145996 -0.3058393001556396 L 33.40700149536133 9.637672424316406 L 45.50225830078125 14.10831069946289 C 46.3702507019043 14.42915058135986 47.03147888183594 15.11810111999512 47.31641006469727 15.99851036071777 C 47.60134887695312 16.87891006469727 47.46915817260742 17.82463073730469 46.95375823974609 18.59317016601562 L 39.85791778564453 29.17407417297363 L 39.27032089233398 41.84831237792969 C 39.19593811035156 43.45285034179688 37.8803596496582 44.70980072021484 36.2752799987793 44.70986938476562 Z" stroke="none"/>
    <path d="M 23 0.5858650207519531 C 22.71198272705078 0.5858650207519531 22.42396545410156 0.7090110778808594 22.22386932373047 0.9552993774414062 L 13.97262954711914 11.11128997802734 C 13.859619140625 11.25038909912109 13.71129989624023 11.35655975341797 13.5432014465332 11.418701171875 L 1.191131591796875 15.9842700958252 C 0.5841217041015625 16.20864105224609 0.3468513488769531 16.94174003601074 0.7072982788085938 17.47922134399414 L 7.958610534667969 28.29195022583008 C 8.060321807861328 28.44359970092773 8.118560791015625 28.62021064758301 8.127010345458984 28.80261039733887 L 8.727531433105469 41.75569152832031 C 8.75714111328125 42.39443969726562 9.370376586914062 42.84167098999023 9.987640380859375 42.6746711730957 L 22.73881912231445 39.22463226318359 C 22.90987014770508 39.17835235595703 23.09013748168945 39.17835235595703 23.26118087768555 39.22463226318359 L 36.01237106323242 42.6746711730957 C 36.62960815429688 42.84167098999023 37.24285125732422 42.39443969726562 37.27246856689453 41.75569152832031 L 37.87298965454102 28.80261039733887 C 37.88143920898438 28.62021064758301 37.93968200683594 28.44359970092773 38.04138946533203 28.29195022583008 L 45.29270172119141 17.47922134399414 C 45.65314865112305 16.94174003601074 45.41587829589844 16.20864105224609 44.80886840820312 15.9842700958252 L 32.45680236816406 11.41869163513184 C 32.28868865966797 11.35655975341797 32.140380859375 11.25038909912109 32.02735900878906 11.11128234863281 L 23.77613067626953 0.9552993774414062 C 23.57603454589844 0.7090110778808594 23.28801727294922 0.5858650207519531 23 0.5858650207519531 M 23 -3.414138793945312 C 24.51247024536133 -3.414138793945312 25.92691993713379 -2.740879058837891 26.88064956665039 -1.566989898681641 L 34.61397933959961 7.951534271240234 L 46.19564819335938 12.23236083984375 C 47.64231109619141 12.76708984375 48.74435043334961 13.91533088684082 49.21923828125 15.38268089294434 C 49.69412994384766 16.85002136230469 49.47381973266602 18.42621994018555 48.61481094360352 19.70713043212891 L 41.82991027832031 29.82437896728516 L 41.26818084716797 41.94094085693359 C 41.14418792724609 44.6151123046875 38.95101165771484 46.70986938476562 36.27518081665039 46.70986938476562 C 35.83444213867188 46.70986938476562 35.39456939697266 46.65132904052734 34.96778869628906 46.53586959838867 L 22.9999885559082 43.29779052734375 L 11.03234100341797 46.53583908081055 C 10.60546112060547 46.65132141113281 10.16558074951172 46.70986938476562 9.724819183349609 46.70986938476562 C 7.048988342285156 46.70986938476562 4.855800628662109 44.6151008605957 4.731819152832031 41.94094085693359 L 4.170082092285156 29.82435989379883 L -2.614818572998047 19.70712089538574 C -3.473819732666016 18.42621994018555 -3.694129943847656 16.85002136230469 -3.21923828125 15.38268089294434 C -2.744350433349609 13.91533088684082 -1.642311096191406 12.76708984375 -0.1956901550292969 12.23237037658691 L 11.38600921630859 7.951549530029297 L 19.11934089660645 -1.566978454589844 C 20.0730094909668 -2.740848541259766 21.48748016357422 -3.414138793945312 23 -3.414138793945312 Z" stroke="none" fill="#fff"/>
  </g>
  <g id="Group_13571" data-name="Group 13571" transform="translate(713.113 -3959.68)">
    <path id="Path_5680" data-name="Path 5680" d="M-505.973,4061.567l-45.232,81.554-51.249-25.913-4.962-2.508-64.407-32.574-6.147-22.719,24.761-46.369,16.941-5.339,11.733-3.7,106.418,51.667Z" transform="translate(0 0)" fill="#5fbe5f"/>
    <path id="Path_5681" data-name="Path 5681" d="M-498.969,4055.667l-84.336,61.542-4.962-2.508-28.852-107,11.733-3.7Z" transform="translate(-19.148 0)" fill="#3ba13b"/>
    <path id="Path_5682" data-name="Path 5682" d="M-599,4011.056l111.023,56.2,2.056-2.741L-598.315,4009Z" transform="translate(-24.85 -1.573)" fill="#dee8ff"/>
    <path id="Path_5683" data-name="Path 5683" d="M-667,4112.056l118.562,60.994,2.741-4.8L-664.944,4110Z" transform="translate(-3.452 -33.355)" fill="#dee8ff"/>
    <g id="Group_13467" data-name="Group 13467" transform="translate(-651.777 4035.236)">
      <circle id="Ellipse_307" data-name="Ellipse 307" cx="10.965" cy="10.965" r="10.965" transform="translate(0 0)" fill="#3ba13b"/>
      <circle id="Ellipse_309" data-name="Ellipse 309" cx="8.567" cy="8.567" r="8.567" transform="translate(2.399 2.399)" fill="#207e20"/>
    </g>
    <g id="Group_13532" data-name="Group 13532" transform="matrix(0.883, 0.469, -0.469, 0.883, 1834.454, 754.915)">
      <rect id="Rectangle_3355" data-name="Rectangle 3355" width="21" height="42.954" rx="10.5" transform="translate(-611.239 4045.276)" fill="#fff"/>
      <path id="Rectangle_3353" data-name="Rectangle 3353" d="M8.778,0h0a8.778,8.778,0,0,1,8.778,8.778V19.507a0,0,0,0,1,0,0H0a0,0,0,0,1,0,0V8.778A8.778,8.778,0,0,1,8.778,0Z" transform="translate(-609.517 4047.246)" fill="#e8ab07"/>
      <path id="Rectangle_3354" data-name="Rectangle 3354" d="M8.778,0h0a8.778,8.778,0,0,1,8.778,8.778V19.507a0,0,0,0,1,0,0H0a0,0,0,0,1,0,0V8.778A8.778,8.778,0,0,1,8.778,0Z" transform="translate(-591.961 4086.26) rotate(180)" fill="#fd0"/>
    </g>
    <g id="Group_13533" data-name="Group 13533" transform="matrix(0.891, 0.454, -0.454, 0.891, 1813.275, 731.842)">
      <rect id="Rectangle_3355-2" data-name="Rectangle 3355" width="21" height="42.954" rx="10.5" transform="translate(-611.239 4045.276)" fill="#fff"/>
      <path id="Rectangle_3353-2" data-name="Rectangle 3353" d="M8.778,0h0a8.778,8.778,0,0,1,8.778,8.778V19.507a0,0,0,0,1,0,0H0a0,0,0,0,1,0,0V8.778A8.778,8.778,0,0,1,8.778,0Z" transform="translate(-609.517 4047.246)" fill="#e8ab07"/>
      <path id="Rectangle_3354-2" data-name="Rectangle 3354" d="M8.778,0h0a8.778,8.778,0,0,1,8.778,8.778V19.507a0,0,0,0,1,0,0H0a0,0,0,0,1,0,0V8.778A8.778,8.778,0,0,1,8.778,0Z" transform="translate(-591.961 4086.26) rotate(180)" fill="#fd0"/>
    </g>
  </g>
  <g id="stars" transform="translate(-2807.517 -2143.083)">
    <g id="star" transform="translate(2885.805 2315.298)">
      <g id="Group_13491" data-name="Group 13491">
        <g id="Path_5752" data-name="Path 5752" transform="translate(-2702.16 -3953.653)" fill="#ffd500">
          <path d="M 2717.61279296875 3974.1533203125 C 2717.1728515625 3974.1533203125 2716.746337890625 3974.046630859375 2716.34521484375 3973.835693359375 L 2713.362060546875 3972.266845703125 C 2713.115966796875 3972.1376953125 2712.838623046875 3972.0693359375 2712.560302734375 3972.0693359375 C 2712.281982421875 3972.0693359375 2712.004638671875 3972.1376953125 2711.75830078125 3972.266845703125 L 2708.775146484375 3973.835693359375 C 2708.3740234375 3974.04638671875 2707.94775390625 3974.1533203125 2707.507568359375 3974.1533203125 C 2706.70458984375 3974.1533203125 2705.94287109375 3973.7958984375 2705.41748046875 3973.1728515625 C 2704.896728515625 3972.554931640625 2704.685791015625 3971.770751953125 2704.82421875 3970.96484375 L 2705.393798828125 3967.64306640625 C 2705.48974609375 3967.083984375 2705.304443359375 3966.513916015625 2704.898193359375 3966.11767578125 L 2702.48486328125 3963.765380859375 C 2701.7373046875 3963.036865234375 2701.47314453125 3961.96728515625 2701.795654296875 3960.97412109375 C 2702.118408203125 3959.98095703125 2702.960693359375 3959.27099609375 2703.994140625 3959.120849609375 L 2707.3291015625 3958.635986328125 C 2707.890869140625 3958.55419921875 2708.3759765625 3958.201904296875 2708.626708984375 3957.693359375 L 2710.118408203125 3954.6708984375 C 2710.58056640625 3953.734619140625 2711.516357421875 3953.1533203125 2712.560302734375 3953.1533203125 C 2713.604248046875 3953.1533203125 2714.5400390625 3953.734619140625 2715.001953125 3954.670654296875 L 2716.49365234375 3957.693359375 C 2716.74462890625 3958.201904296875 2717.229736328125 3958.55419921875 2717.791259765625 3958.635986328125 L 2721.12646484375 3959.120849609375 C 2722.15966796875 3959.270751953125 2723.001953125 3959.98095703125 2723.32470703125 3960.97412109375 C 2723.647216796875 3961.96728515625 2723.38330078125 3963.03662109375 2722.635498046875 3963.765380859375 L 2720.22216796875 3966.117919921875 C 2719.815673828125 3966.513916015625 2719.630615234375 3967.083984375 2719.726318359375 3967.64306640625 L 2720.29638671875 3970.96484375 C 2720.434326171875 3971.770751953125 2720.2236328125 3972.554931640625 2719.70263671875 3973.172607421875 C 2719.17724609375 3973.7958984375 2718.41552734375 3974.1533203125 2717.61279296875 3974.1533203125 Z" stroke="none"/>
          <path d="M 2712.560302734375 3953.653076171875 C 2711.767578125 3953.653076171875 2710.974609375 3954.066162109375 2710.56689453125 3954.89208984375 L 2709.0751953125 3957.91455078125 C 2708.75146484375 3958.57080078125 2708.12548828125 3959.025390625 2707.401123046875 3959.130859375 L 2704.06591796875 3959.61572265625 C 2702.242431640625 3959.88037109375 2701.514404296875 3962.12158203125 2702.833984375 3963.4072265625 L 2705.247314453125 3965.759765625 C 2705.77099609375 3966.2705078125 2706.01025390625 3967.00634765625 2705.88671875 3967.7275390625 L 2705.31689453125 3971.04931640625 C 2705.00537109375 3972.865966796875 2706.910888671875 3974.250732421875 2708.54248046875 3973.39306640625 L 2711.52587890625 3971.82421875 C 2712.173828125 3971.484619140625 2712.94775390625 3971.484619140625 2713.5947265625 3971.82421875 L 2716.577880859375 3973.39306640625 C 2718.20751953125 3974.251220703125 2720.11474609375 3972.86572265625 2719.803466796875 3971.04931640625 L 2719.233642578125 3967.7275390625 C 2719.10986328125 3967.00634765625 2719.34912109375 3966.2705078125 2719.873046875 3965.759765625 L 2722.28662109375 3963.4072265625 C 2723.60595703125 3962.12158203125 2722.8779296875 3959.88037109375 2721.054443359375 3959.61572265625 L 2717.71923828125 3959.130859375 C 2716.9951171875 3959.025390625 2716.369140625 3958.57080078125 2716.045166015625 3957.91455078125 L 2714.5537109375 3954.89208984375 C 2714.14599609375 3954.066162109375 2713.35302734375 3953.653076171875 2712.560302734375 3953.653076171875 M 2712.560302734375 3952.653076171875 C 2713.796142578125 3952.653076171875 2714.903564453125 3953.341552734375 2715.450439453125 3954.449462890625 L 2716.94189453125 3957.471923828125 C 2717.1201171875 3957.8330078125 2717.464599609375 3958.083251953125 2717.86328125 3958.141357421875 L 2721.1982421875 3958.626220703125 C 2722.421142578125 3958.8037109375 2723.418212890625 3959.64404296875 2723.800048828125 3960.819580078125 C 2724.18212890625 3961.9951171875 2723.86962890625 3963.260986328125 2722.984619140625 3964.12353515625 L 2720.571044921875 3966.475830078125 C 2720.28271484375 3966.757080078125 2720.151123046875 3967.16162109375 2720.21923828125 3967.558349609375 L 2720.7890625 3970.880126953125 C 2720.9501953125 3971.8203125 2720.693359375 3972.7734375 2720.084716796875 3973.495361328125 C 2719.464111328125 3974.231201171875 2718.563232421875 3974.6533203125 2717.61279296875 3974.6533203125 C 2717.0908203125 3974.6533203125 2716.5859375 3974.527099609375 2716.112548828125 3974.278076171875 L 2713.129150390625 3972.709228515625 C 2712.955078125 3972.617919921875 2712.758056640625 3972.5693359375 2712.560302734375 3972.5693359375 C 2712.362548828125 3972.5693359375 2712.16552734375 3972.617919921875 2711.99072265625 3972.709716796875 L 2709.0078125 3974.278076171875 C 2708.5341796875 3974.527099609375 2708.029541015625 3974.6533203125 2707.507568359375 3974.6533203125 C 2706.556884765625 3974.6533203125 2705.65576171875 3974.231201171875 2705.035400390625 3973.4951171875 C 2704.4267578125 3972.7734375 2704.170166015625 3971.8203125 2704.331298828125 3970.88037109375 L 2704.901123046875 3967.558349609375 C 2704.968994140625 3967.161865234375 2704.83740234375 3966.7568359375 2704.549072265625 3966.4755859375 L 2702.135986328125 3964.123291015625 C 2701.2509765625 3963.260986328125 2700.938232421875 3961.9951171875 2701.3203125 3960.819580078125 C 2701.7021484375 3959.64404296875 2702.69921875 3958.8037109375 2703.92236328125 3958.6259765625 L 2707.25732421875 3958.141357421875 C 2707.656005859375 3958.083251953125 2708.000244140625 3957.8330078125 2708.178466796875 3957.47216796875 L 2709.670166015625 3954.449462890625 C 2710.217041015625 3953.341552734375 2711.324462890625 3952.653076171875 2712.560302734375 3952.653076171875 Z" stroke="none" fill="#fff"/>
        </g>
        <path id="Path_5753" data-name="Path 5753" d="M2720.675,3965.023l1.309,2.5a1.947,1.947,0,0,0,1.469,1l2.927.4a1.809,1.809,0,0,1,1.081,3.131l-2.451,1.943a1.769,1.769,0,0,0-.561,1.625l.833,2.743a1.929,1.929,0,0,1-2.83,1.936l-2.617-1.3a2.059,2.059,0,0,0-1.815,0l-2.618,1.3a1.929,1.929,0,0,1-2.83-1.936l.5-2.743a1.77,1.77,0,0,0-.561-1.625l-2.117-1.943a1.809,1.809,0,0,1,1.081-3.131l3.26-.4a1.946,1.946,0,0,0,1.469-1l.975-2.5A2.007,2.007,0,0,1,2720.675,3965.023Z" transform="translate(-2708.526 -3962.274)" fill="#ffb300"/>
        <path id="Path_5753_-_Outline" data-name="Path 5753 - Outline" d="M2717.26,3962a2.392,2.392,0,0,1,1.164.3,2.205,2.205,0,0,1,.881.9l1.309,2.5a1.611,1.611,0,0,0,1.218.829l2.926.4a2.231,2.231,0,0,1,1.865,1.531,2.077,2.077,0,0,1,.033,1.134,2.142,2.142,0,0,1-.636,1.044l-.009.008-.01.008-2.441,1.935a1.439,1.439,0,0,0-.453,1.294l.833,2.742,0,.019a2.054,2.054,0,0,1-.453,1.711,2.315,2.315,0,0,1-.794.609,2.36,2.36,0,0,1-2.06-.026l-2.617-1.3a1.727,1.727,0,0,0-1.52,0l-2.617,1.3a2.36,2.36,0,0,1-2.06.026,2.322,2.322,0,0,1-.794-.609,2.055,2.055,0,0,1-.453-1.711l.5-2.743a1.438,1.438,0,0,0-.458-1.319l-2.118-1.943a2.138,2.138,0,0,1-.636-1.044,2.073,2.073,0,0,1,.033-1.134,2.23,2.23,0,0,1,1.864-1.531h0l3.258-.4a1.613,1.613,0,0,0,1.208-.813l.975-2.495.009-.016a2.2,2.2,0,0,1,.881-.9A2.391,2.391,0,0,1,2717.26,3962Zm8.317,8.135a1.408,1.408,0,0,0,.409-1.479,1.57,1.57,0,0,0-1.318-1.069l-2.927-.4a2.281,2.281,0,0,1-1.719-1.18l-1.309-2.5a1.674,1.674,0,0,0-2.9-.016l-.975,2.495-.009.016a2.28,2.28,0,0,1-1.719,1.18h0l-3.258.4a1.569,1.569,0,0,0-1.316,1.068,1.409,1.409,0,0,0,.417,1.486l2.118,1.943a2.1,2.1,0,0,1,.664,1.93l-.5,2.743a1.4,1.4,0,0,0,.308,1.164,1.69,1.69,0,0,0,2.046.413l2.617-1.3a2.392,2.392,0,0,1,2.112,0l2.617,1.3a1.691,1.691,0,0,0,2.046-.413,1.4,1.4,0,0,0,.312-1.146l-.833-2.742,0-.019a2.1,2.1,0,0,1,.664-1.93l.009-.008.009-.008Z" transform="translate(-2706.86 -3960.607)" fill="#fff"/>
        <path id="Path_5754" data-name="Path 5754" d="M2764.608,3975.244c-2.286-.326-1.633-4.734-3.265-4.408-.437.087-.84.176-.916.762s.681,3.693,2.5,3.952c2.1.3,3.448.15,3.6,1.05a.668.668,0,0,1-.45.6s-2.72,1.491-2.887,3.826a4.431,4.431,0,0,0,.7,3.245c.826.515,1.474.914,1.851.443.653-.816-.326-2.285-.816-4.081s3.116-3.592,3.116-3.592a.728.728,0,0,0,.49-.653C2768.363,3975.407,2766.894,3975.571,2764.608,3975.244Z" transform="translate(-2750.702 -3967.955)" fill="#ffe97a"/>
        <path id="Path_5755" data-name="Path 5755" d="M2721.922,3966.972a1.913,1.913,0,0,0-3.345.024l-.936,2.43a1.869,1.869,0,0,1-1.41.978l-3.131.39a1.767,1.767,0,0,0-1.038,3.049l2.033,1.891a1.737,1.737,0,0,1,.539,1.582l-.48,2.671a1.723,1.723,0,0,0,.676,1.7,4.884,4.884,0,0,1,.221-3.176c.961-2.436.961-4.061-.8-4.873s-1.762-2.274,1.122-2.436,3.524-.65,3.844-3.411C2719.433,3965.916,2720.9,3966.133,2721.922,3966.972Z" transform="translate(-2709.938 -3963.94)" fill="#ffe41f"/>
      </g>
    </g>
    <g id="star-2" data-name="star" transform="translate(2930.81 2315.298)">
      <g id="Group_13491-2" data-name="Group 13491">
        <g id="Path_5752-2" data-name="Path 5752" transform="translate(-2702.16 -3953.653)" fill="#ffd500">
          <path d="M 2717.61279296875 3974.1533203125 C 2717.1728515625 3974.1533203125 2716.746337890625 3974.046630859375 2716.34521484375 3973.835693359375 L 2713.362060546875 3972.266845703125 C 2713.115966796875 3972.1376953125 2712.838623046875 3972.0693359375 2712.560302734375 3972.0693359375 C 2712.281982421875 3972.0693359375 2712.004638671875 3972.1376953125 2711.75830078125 3972.266845703125 L 2708.775146484375 3973.835693359375 C 2708.3740234375 3974.04638671875 2707.94775390625 3974.1533203125 2707.507568359375 3974.1533203125 C 2706.70458984375 3974.1533203125 2705.94287109375 3973.7958984375 2705.41748046875 3973.1728515625 C 2704.896728515625 3972.554931640625 2704.685791015625 3971.770751953125 2704.82421875 3970.96484375 L 2705.393798828125 3967.64306640625 C 2705.48974609375 3967.083984375 2705.304443359375 3966.513916015625 2704.898193359375 3966.11767578125 L 2702.48486328125 3963.765380859375 C 2701.7373046875 3963.036865234375 2701.47314453125 3961.96728515625 2701.795654296875 3960.97412109375 C 2702.118408203125 3959.98095703125 2702.960693359375 3959.27099609375 2703.994140625 3959.120849609375 L 2707.3291015625 3958.635986328125 C 2707.890869140625 3958.55419921875 2708.3759765625 3958.201904296875 2708.626708984375 3957.693359375 L 2710.118408203125 3954.6708984375 C 2710.58056640625 3953.734619140625 2711.516357421875 3953.1533203125 2712.560302734375 3953.1533203125 C 2713.604248046875 3953.1533203125 2714.5400390625 3953.734619140625 2715.001953125 3954.670654296875 L 2716.49365234375 3957.693359375 C 2716.74462890625 3958.201904296875 2717.229736328125 3958.55419921875 2717.791259765625 3958.635986328125 L 2721.12646484375 3959.120849609375 C 2722.15966796875 3959.270751953125 2723.001953125 3959.98095703125 2723.32470703125 3960.97412109375 C 2723.647216796875 3961.96728515625 2723.38330078125 3963.03662109375 2722.635498046875 3963.765380859375 L 2720.22216796875 3966.117919921875 C 2719.815673828125 3966.513916015625 2719.630615234375 3967.083984375 2719.726318359375 3967.64306640625 L 2720.29638671875 3970.96484375 C 2720.434326171875 3971.770751953125 2720.2236328125 3972.554931640625 2719.70263671875 3973.172607421875 C 2719.17724609375 3973.7958984375 2718.41552734375 3974.1533203125 2717.61279296875 3974.1533203125 Z" stroke="none"/>
          <path d="M 2712.560302734375 3953.653076171875 C 2711.767578125 3953.653076171875 2710.974609375 3954.066162109375 2710.56689453125 3954.89208984375 L 2709.0751953125 3957.91455078125 C 2708.75146484375 3958.57080078125 2708.12548828125 3959.025390625 2707.401123046875 3959.130859375 L 2704.06591796875 3959.61572265625 C 2702.242431640625 3959.88037109375 2701.514404296875 3962.12158203125 2702.833984375 3963.4072265625 L 2705.247314453125 3965.759765625 C 2705.77099609375 3966.2705078125 2706.01025390625 3967.00634765625 2705.88671875 3967.7275390625 L 2705.31689453125 3971.04931640625 C 2705.00537109375 3972.865966796875 2706.910888671875 3974.250732421875 2708.54248046875 3973.39306640625 L 2711.52587890625 3971.82421875 C 2712.173828125 3971.484619140625 2712.94775390625 3971.484619140625 2713.5947265625 3971.82421875 L 2716.577880859375 3973.39306640625 C 2718.20751953125 3974.251220703125 2720.11474609375 3972.86572265625 2719.803466796875 3971.04931640625 L 2719.233642578125 3967.7275390625 C 2719.10986328125 3967.00634765625 2719.34912109375 3966.2705078125 2719.873046875 3965.759765625 L 2722.28662109375 3963.4072265625 C 2723.60595703125 3962.12158203125 2722.8779296875 3959.88037109375 2721.054443359375 3959.61572265625 L 2717.71923828125 3959.130859375 C 2716.9951171875 3959.025390625 2716.369140625 3958.57080078125 2716.045166015625 3957.91455078125 L 2714.5537109375 3954.89208984375 C 2714.14599609375 3954.066162109375 2713.35302734375 3953.653076171875 2712.560302734375 3953.653076171875 M 2712.560302734375 3952.653076171875 C 2713.796142578125 3952.653076171875 2714.903564453125 3953.341552734375 2715.450439453125 3954.449462890625 L 2716.94189453125 3957.471923828125 C 2717.1201171875 3957.8330078125 2717.464599609375 3958.083251953125 2717.86328125 3958.141357421875 L 2721.1982421875 3958.626220703125 C 2722.421142578125 3958.8037109375 2723.418212890625 3959.64404296875 2723.800048828125 3960.819580078125 C 2724.18212890625 3961.9951171875 2723.86962890625 3963.260986328125 2722.984619140625 3964.12353515625 L 2720.571044921875 3966.475830078125 C 2720.28271484375 3966.757080078125 2720.151123046875 3967.16162109375 2720.21923828125 3967.558349609375 L 2720.7890625 3970.880126953125 C 2720.9501953125 3971.8203125 2720.693359375 3972.7734375 2720.084716796875 3973.495361328125 C 2719.464111328125 3974.231201171875 2718.563232421875 3974.6533203125 2717.61279296875 3974.6533203125 C 2717.0908203125 3974.6533203125 2716.5859375 3974.527099609375 2716.112548828125 3974.278076171875 L 2713.129150390625 3972.709228515625 C 2712.955078125 3972.617919921875 2712.758056640625 3972.5693359375 2712.560302734375 3972.5693359375 C 2712.362548828125 3972.5693359375 2712.16552734375 3972.617919921875 2711.99072265625 3972.709716796875 L 2709.0078125 3974.278076171875 C 2708.5341796875 3974.527099609375 2708.029541015625 3974.6533203125 2707.507568359375 3974.6533203125 C 2706.556884765625 3974.6533203125 2705.65576171875 3974.231201171875 2705.035400390625 3973.4951171875 C 2704.4267578125 3972.7734375 2704.170166015625 3971.8203125 2704.331298828125 3970.88037109375 L 2704.901123046875 3967.558349609375 C 2704.968994140625 3967.161865234375 2704.83740234375 3966.7568359375 2704.549072265625 3966.4755859375 L 2702.135986328125 3964.123291015625 C 2701.2509765625 3963.260986328125 2700.938232421875 3961.9951171875 2701.3203125 3960.819580078125 C 2701.7021484375 3959.64404296875 2702.69921875 3958.8037109375 2703.92236328125 3958.6259765625 L 2707.25732421875 3958.141357421875 C 2707.656005859375 3958.083251953125 2708.000244140625 3957.8330078125 2708.178466796875 3957.47216796875 L 2709.670166015625 3954.449462890625 C 2710.217041015625 3953.341552734375 2711.324462890625 3952.653076171875 2712.560302734375 3952.653076171875 Z" stroke="none" fill="#fff"/>
        </g>
        <path id="Path_5753-2" data-name="Path 5753" d="M2720.675,3965.023l1.309,2.5a1.947,1.947,0,0,0,1.469,1l2.927.4a1.809,1.809,0,0,1,1.081,3.131l-2.451,1.943a1.769,1.769,0,0,0-.561,1.625l.833,2.743a1.929,1.929,0,0,1-2.83,1.936l-2.617-1.3a2.059,2.059,0,0,0-1.815,0l-2.618,1.3a1.929,1.929,0,0,1-2.83-1.936l.5-2.743a1.77,1.77,0,0,0-.561-1.625l-2.117-1.943a1.809,1.809,0,0,1,1.081-3.131l3.26-.4a1.946,1.946,0,0,0,1.469-1l.975-2.5A2.007,2.007,0,0,1,2720.675,3965.023Z" transform="translate(-2708.526 -3962.274)" fill="#ffb300"/>
        <path id="Path_5753_-_Outline-2" data-name="Path 5753 - Outline" d="M2717.26,3962a2.392,2.392,0,0,1,1.164.3,2.205,2.205,0,0,1,.881.9l1.309,2.5a1.611,1.611,0,0,0,1.218.829l2.926.4a2.231,2.231,0,0,1,1.865,1.531,2.077,2.077,0,0,1,.033,1.134,2.142,2.142,0,0,1-.636,1.044l-.009.008-.01.008-2.441,1.935a1.439,1.439,0,0,0-.453,1.294l.833,2.742,0,.019a2.054,2.054,0,0,1-.453,1.711,2.315,2.315,0,0,1-.794.609,2.36,2.36,0,0,1-2.06-.026l-2.617-1.3a1.727,1.727,0,0,0-1.52,0l-2.617,1.3a2.36,2.36,0,0,1-2.06.026,2.322,2.322,0,0,1-.794-.609,2.055,2.055,0,0,1-.453-1.711l.5-2.743a1.438,1.438,0,0,0-.458-1.319l-2.118-1.943a2.138,2.138,0,0,1-.636-1.044,2.073,2.073,0,0,1,.033-1.134,2.23,2.23,0,0,1,1.864-1.531h0l3.258-.4a1.613,1.613,0,0,0,1.208-.813l.975-2.495.009-.016a2.2,2.2,0,0,1,.881-.9A2.391,2.391,0,0,1,2717.26,3962Zm8.317,8.135a1.408,1.408,0,0,0,.409-1.479,1.57,1.57,0,0,0-1.318-1.069l-2.927-.4a2.281,2.281,0,0,1-1.719-1.18l-1.309-2.5a1.674,1.674,0,0,0-2.9-.016l-.975,2.495-.009.016a2.28,2.28,0,0,1-1.719,1.18h0l-3.258.4a1.569,1.569,0,0,0-1.316,1.068,1.409,1.409,0,0,0,.417,1.486l2.118,1.943a2.1,2.1,0,0,1,.664,1.93l-.5,2.743a1.4,1.4,0,0,0,.308,1.164,1.69,1.69,0,0,0,2.046.413l2.617-1.3a2.392,2.392,0,0,1,2.112,0l2.617,1.3a1.691,1.691,0,0,0,2.046-.413,1.4,1.4,0,0,0,.312-1.146l-.833-2.742,0-.019a2.1,2.1,0,0,1,.664-1.93l.009-.008.009-.008Z" transform="translate(-2706.86 -3960.607)" fill="#fff"/>
        <path id="Path_5754-2" data-name="Path 5754" d="M2764.608,3975.244c-2.286-.326-1.633-4.734-3.265-4.408-.437.087-.84.176-.916.762s.681,3.693,2.5,3.952c2.1.3,3.448.15,3.6,1.05a.668.668,0,0,1-.45.6s-2.72,1.491-2.887,3.826a4.431,4.431,0,0,0,.7,3.245c.826.515,1.474.914,1.851.443.653-.816-.326-2.285-.816-4.081s3.116-3.592,3.116-3.592a.728.728,0,0,0,.49-.653C2768.363,3975.407,2766.894,3975.571,2764.608,3975.244Z" transform="translate(-2750.702 -3967.955)" fill="#ffe97a"/>
        <path id="Path_5755-2" data-name="Path 5755" d="M2721.922,3966.972a1.913,1.913,0,0,0-3.345.024l-.936,2.43a1.869,1.869,0,0,1-1.41.978l-3.131.39a1.767,1.767,0,0,0-1.038,3.049l2.033,1.891a1.737,1.737,0,0,1,.539,1.582l-.48,2.671a1.723,1.723,0,0,0,.676,1.7,4.884,4.884,0,0,1,.221-3.176c.961-2.436.961-4.061-.8-4.873s-1.762-2.274,1.122-2.436,3.524-.65,3.844-3.411C2719.433,3965.916,2720.9,3966.133,2721.922,3966.972Z" transform="translate(-2709.938 -3963.94)" fill="#ffe41f"/>
      </g>
    </g>
    <g id="star-3" data-name="star" transform="translate(2908.307 2315.298)">
      <g id="Group_13491-3" data-name="Group 13491">
        <g id="Path_5752-3" data-name="Path 5752" transform="translate(-2702.16 -3953.653)" fill="#ffd500">
          <path d="M 2717.61279296875 3974.1533203125 C 2717.1728515625 3974.1533203125 2716.746337890625 3974.046630859375 2716.34521484375 3973.835693359375 L 2713.362060546875 3972.266845703125 C 2713.115966796875 3972.1376953125 2712.838623046875 3972.0693359375 2712.560302734375 3972.0693359375 C 2712.281982421875 3972.0693359375 2712.004638671875 3972.1376953125 2711.75830078125 3972.266845703125 L 2708.775146484375 3973.835693359375 C 2708.3740234375 3974.04638671875 2707.94775390625 3974.1533203125 2707.507568359375 3974.1533203125 C 2706.70458984375 3974.1533203125 2705.94287109375 3973.7958984375 2705.41748046875 3973.1728515625 C 2704.896728515625 3972.554931640625 2704.685791015625 3971.770751953125 2704.82421875 3970.96484375 L 2705.393798828125 3967.64306640625 C 2705.48974609375 3967.083984375 2705.304443359375 3966.513916015625 2704.898193359375 3966.11767578125 L 2702.48486328125 3963.765380859375 C 2701.7373046875 3963.036865234375 2701.47314453125 3961.96728515625 2701.795654296875 3960.97412109375 C 2702.118408203125 3959.98095703125 2702.960693359375 3959.27099609375 2703.994140625 3959.120849609375 L 2707.3291015625 3958.635986328125 C 2707.890869140625 3958.55419921875 2708.3759765625 3958.201904296875 2708.626708984375 3957.693359375 L 2710.118408203125 3954.6708984375 C 2710.58056640625 3953.734619140625 2711.516357421875 3953.1533203125 2712.560302734375 3953.1533203125 C 2713.604248046875 3953.1533203125 2714.5400390625 3953.734619140625 2715.001953125 3954.670654296875 L 2716.49365234375 3957.693359375 C 2716.74462890625 3958.201904296875 2717.229736328125 3958.55419921875 2717.791259765625 3958.635986328125 L 2721.12646484375 3959.120849609375 C 2722.15966796875 3959.270751953125 2723.001953125 3959.98095703125 2723.32470703125 3960.97412109375 C 2723.647216796875 3961.96728515625 2723.38330078125 3963.03662109375 2722.635498046875 3963.765380859375 L 2720.22216796875 3966.117919921875 C 2719.815673828125 3966.513916015625 2719.630615234375 3967.083984375 2719.726318359375 3967.64306640625 L 2720.29638671875 3970.96484375 C 2720.434326171875 3971.770751953125 2720.2236328125 3972.554931640625 2719.70263671875 3973.172607421875 C 2719.17724609375 3973.7958984375 2718.41552734375 3974.1533203125 2717.61279296875 3974.1533203125 Z" stroke="none"/>
          <path d="M 2712.560302734375 3953.653076171875 C 2711.767578125 3953.653076171875 2710.974609375 3954.066162109375 2710.56689453125 3954.89208984375 L 2709.0751953125 3957.91455078125 C 2708.75146484375 3958.57080078125 2708.12548828125 3959.025390625 2707.401123046875 3959.130859375 L 2704.06591796875 3959.61572265625 C 2702.242431640625 3959.88037109375 2701.514404296875 3962.12158203125 2702.833984375 3963.4072265625 L 2705.247314453125 3965.759765625 C 2705.77099609375 3966.2705078125 2706.01025390625 3967.00634765625 2705.88671875 3967.7275390625 L 2705.31689453125 3971.04931640625 C 2705.00537109375 3972.865966796875 2706.910888671875 3974.250732421875 2708.54248046875 3973.39306640625 L 2711.52587890625 3971.82421875 C 2712.173828125 3971.484619140625 2712.94775390625 3971.484619140625 2713.5947265625 3971.82421875 L 2716.577880859375 3973.39306640625 C 2718.20751953125 3974.251220703125 2720.11474609375 3972.86572265625 2719.803466796875 3971.04931640625 L 2719.233642578125 3967.7275390625 C 2719.10986328125 3967.00634765625 2719.34912109375 3966.2705078125 2719.873046875 3965.759765625 L 2722.28662109375 3963.4072265625 C 2723.60595703125 3962.12158203125 2722.8779296875 3959.88037109375 2721.054443359375 3959.61572265625 L 2717.71923828125 3959.130859375 C 2716.9951171875 3959.025390625 2716.369140625 3958.57080078125 2716.045166015625 3957.91455078125 L 2714.5537109375 3954.89208984375 C 2714.14599609375 3954.066162109375 2713.35302734375 3953.653076171875 2712.560302734375 3953.653076171875 M 2712.560302734375 3952.653076171875 C 2713.796142578125 3952.653076171875 2714.903564453125 3953.341552734375 2715.450439453125 3954.449462890625 L 2716.94189453125 3957.471923828125 C 2717.1201171875 3957.8330078125 2717.464599609375 3958.083251953125 2717.86328125 3958.141357421875 L 2721.1982421875 3958.626220703125 C 2722.421142578125 3958.8037109375 2723.418212890625 3959.64404296875 2723.800048828125 3960.819580078125 C 2724.18212890625 3961.9951171875 2723.86962890625 3963.260986328125 2722.984619140625 3964.12353515625 L 2720.571044921875 3966.475830078125 C 2720.28271484375 3966.757080078125 2720.151123046875 3967.16162109375 2720.21923828125 3967.558349609375 L 2720.7890625 3970.880126953125 C 2720.9501953125 3971.8203125 2720.693359375 3972.7734375 2720.084716796875 3973.495361328125 C 2719.464111328125 3974.231201171875 2718.563232421875 3974.6533203125 2717.61279296875 3974.6533203125 C 2717.0908203125 3974.6533203125 2716.5859375 3974.527099609375 2716.112548828125 3974.278076171875 L 2713.129150390625 3972.709228515625 C 2712.955078125 3972.617919921875 2712.758056640625 3972.5693359375 2712.560302734375 3972.5693359375 C 2712.362548828125 3972.5693359375 2712.16552734375 3972.617919921875 2711.99072265625 3972.709716796875 L 2709.0078125 3974.278076171875 C 2708.5341796875 3974.527099609375 2708.029541015625 3974.6533203125 2707.507568359375 3974.6533203125 C 2706.556884765625 3974.6533203125 2705.65576171875 3974.231201171875 2705.035400390625 3973.4951171875 C 2704.4267578125 3972.7734375 2704.170166015625 3971.8203125 2704.331298828125 3970.88037109375 L 2704.901123046875 3967.558349609375 C 2704.968994140625 3967.161865234375 2704.83740234375 3966.7568359375 2704.549072265625 3966.4755859375 L 2702.135986328125 3964.123291015625 C 2701.2509765625 3963.260986328125 2700.938232421875 3961.9951171875 2701.3203125 3960.819580078125 C 2701.7021484375 3959.64404296875 2702.69921875 3958.8037109375 2703.92236328125 3958.6259765625 L 2707.25732421875 3958.141357421875 C 2707.656005859375 3958.083251953125 2708.000244140625 3957.8330078125 2708.178466796875 3957.47216796875 L 2709.670166015625 3954.449462890625 C 2710.217041015625 3953.341552734375 2711.324462890625 3952.653076171875 2712.560302734375 3952.653076171875 Z" stroke="none" fill="#fff"/>
        </g>
        <path id="Path_5753-3" data-name="Path 5753" d="M2720.675,3965.023l1.309,2.5a1.947,1.947,0,0,0,1.469,1l2.927.4a1.809,1.809,0,0,1,1.081,3.131l-2.451,1.943a1.769,1.769,0,0,0-.561,1.625l.833,2.743a1.929,1.929,0,0,1-2.83,1.936l-2.617-1.3a2.059,2.059,0,0,0-1.815,0l-2.618,1.3a1.929,1.929,0,0,1-2.83-1.936l.5-2.743a1.77,1.77,0,0,0-.561-1.625l-2.117-1.943a1.809,1.809,0,0,1,1.081-3.131l3.26-.4a1.946,1.946,0,0,0,1.469-1l.975-2.5A2.007,2.007,0,0,1,2720.675,3965.023Z" transform="translate(-2708.526 -3962.274)" fill="#ffb300"/>
        <path id="Path_5753_-_Outline-3" data-name="Path 5753 - Outline" d="M2717.26,3962a2.392,2.392,0,0,1,1.164.3,2.205,2.205,0,0,1,.881.9l1.309,2.5a1.611,1.611,0,0,0,1.218.829l2.926.4a2.231,2.231,0,0,1,1.865,1.531,2.077,2.077,0,0,1,.033,1.134,2.142,2.142,0,0,1-.636,1.044l-.009.008-.01.008-2.441,1.935a1.439,1.439,0,0,0-.453,1.294l.833,2.742,0,.019a2.054,2.054,0,0,1-.453,1.711,2.315,2.315,0,0,1-.794.609,2.36,2.36,0,0,1-2.06-.026l-2.617-1.3a1.727,1.727,0,0,0-1.52,0l-2.617,1.3a2.36,2.36,0,0,1-2.06.026,2.322,2.322,0,0,1-.794-.609,2.055,2.055,0,0,1-.453-1.711l.5-2.743a1.438,1.438,0,0,0-.458-1.319l-2.118-1.943a2.138,2.138,0,0,1-.636-1.044,2.073,2.073,0,0,1,.033-1.134,2.23,2.23,0,0,1,1.864-1.531h0l3.258-.4a1.613,1.613,0,0,0,1.208-.813l.975-2.495.009-.016a2.2,2.2,0,0,1,.881-.9A2.391,2.391,0,0,1,2717.26,3962Zm8.317,8.135a1.408,1.408,0,0,0,.409-1.479,1.57,1.57,0,0,0-1.318-1.069l-2.927-.4a2.281,2.281,0,0,1-1.719-1.18l-1.309-2.5a1.674,1.674,0,0,0-2.9-.016l-.975,2.495-.009.016a2.28,2.28,0,0,1-1.719,1.18h0l-3.258.4a1.569,1.569,0,0,0-1.316,1.068,1.409,1.409,0,0,0,.417,1.486l2.118,1.943a2.1,2.1,0,0,1,.664,1.93l-.5,2.743a1.4,1.4,0,0,0,.308,1.164,1.69,1.69,0,0,0,2.046.413l2.617-1.3a2.392,2.392,0,0,1,2.112,0l2.617,1.3a1.691,1.691,0,0,0,2.046-.413,1.4,1.4,0,0,0,.312-1.146l-.833-2.742,0-.019a2.1,2.1,0,0,1,.664-1.93l.009-.008.009-.008Z" transform="translate(-2706.86 -3960.607)" fill="#fff"/>
        <path id="Path_5754-3" data-name="Path 5754" d="M2764.608,3975.244c-2.286-.326-1.633-4.734-3.265-4.408-.437.087-.84.176-.916.762s.681,3.693,2.5,3.952c2.1.3,3.448.15,3.6,1.05a.668.668,0,0,1-.45.6s-2.72,1.491-2.887,3.826a4.431,4.431,0,0,0,.7,3.245c.826.515,1.474.914,1.851.443.653-.816-.326-2.285-.816-4.081s3.116-3.592,3.116-3.592a.728.728,0,0,0,.49-.653C2768.363,3975.407,2766.894,3975.571,2764.608,3975.244Z" transform="translate(-2750.702 -3967.955)" fill="#ffe97a"/>
        <path id="Path_5755-3" data-name="Path 5755" d="M2721.922,3966.972a1.913,1.913,0,0,0-3.345.024l-.936,2.43a1.869,1.869,0,0,1-1.41.978l-3.131.39a1.767,1.767,0,0,0-1.038,3.049l2.033,1.891a1.737,1.737,0,0,1,.539,1.582l-.48,2.671a1.723,1.723,0,0,0,.676,1.7,4.884,4.884,0,0,1,.221-3.176c.961-2.436.961-4.061-.8-4.873s-1.762-2.274,1.122-2.436,3.524-.65,3.844-3.411C2719.433,3965.916,2720.9,3966.133,2721.922,3966.972Z" transform="translate(-2709.938 -3963.94)" fill="#ffe41f"/>
      </g>
    </g>
    <g id="star-4" data-name="star" transform="translate(2953.312 2315.298)">
      <g id="Group_13491-4" data-name="Group 13491">
        <g id="Path_5752-4" data-name="Path 5752" transform="translate(-2702.16 -3953.653)" fill="#ffd500">
          <path d="M 2717.61279296875 3974.1533203125 C 2717.1728515625 3974.1533203125 2716.746337890625 3974.046630859375 2716.34521484375 3973.835693359375 L 2713.362060546875 3972.266845703125 C 2713.115966796875 3972.1376953125 2712.838623046875 3972.0693359375 2712.560302734375 3972.0693359375 C 2712.281982421875 3972.0693359375 2712.004638671875 3972.1376953125 2711.75830078125 3972.266845703125 L 2708.775146484375 3973.835693359375 C 2708.3740234375 3974.04638671875 2707.94775390625 3974.1533203125 2707.507568359375 3974.1533203125 C 2706.70458984375 3974.1533203125 2705.94287109375 3973.7958984375 2705.41748046875 3973.1728515625 C 2704.896728515625 3972.554931640625 2704.685791015625 3971.770751953125 2704.82421875 3970.96484375 L 2705.393798828125 3967.64306640625 C 2705.48974609375 3967.083984375 2705.304443359375 3966.513916015625 2704.898193359375 3966.11767578125 L 2702.48486328125 3963.765380859375 C 2701.7373046875 3963.036865234375 2701.47314453125 3961.96728515625 2701.795654296875 3960.97412109375 C 2702.118408203125 3959.98095703125 2702.960693359375 3959.27099609375 2703.994140625 3959.120849609375 L 2707.3291015625 3958.635986328125 C 2707.890869140625 3958.55419921875 2708.3759765625 3958.201904296875 2708.626708984375 3957.693359375 L 2710.118408203125 3954.6708984375 C 2710.58056640625 3953.734619140625 2711.516357421875 3953.1533203125 2712.560302734375 3953.1533203125 C 2713.604248046875 3953.1533203125 2714.5400390625 3953.734619140625 2715.001953125 3954.670654296875 L 2716.49365234375 3957.693359375 C 2716.74462890625 3958.201904296875 2717.229736328125 3958.55419921875 2717.791259765625 3958.635986328125 L 2721.12646484375 3959.120849609375 C 2722.15966796875 3959.270751953125 2723.001953125 3959.98095703125 2723.32470703125 3960.97412109375 C 2723.647216796875 3961.96728515625 2723.38330078125 3963.03662109375 2722.635498046875 3963.765380859375 L 2720.22216796875 3966.117919921875 C 2719.815673828125 3966.513916015625 2719.630615234375 3967.083984375 2719.726318359375 3967.64306640625 L 2720.29638671875 3970.96484375 C 2720.434326171875 3971.770751953125 2720.2236328125 3972.554931640625 2719.70263671875 3973.172607421875 C 2719.17724609375 3973.7958984375 2718.41552734375 3974.1533203125 2717.61279296875 3974.1533203125 Z" stroke="none"/>
          <path d="M 2712.560302734375 3953.653076171875 C 2711.767578125 3953.653076171875 2710.974609375 3954.066162109375 2710.56689453125 3954.89208984375 L 2709.0751953125 3957.91455078125 C 2708.75146484375 3958.57080078125 2708.12548828125 3959.025390625 2707.401123046875 3959.130859375 L 2704.06591796875 3959.61572265625 C 2702.242431640625 3959.88037109375 2701.514404296875 3962.12158203125 2702.833984375 3963.4072265625 L 2705.247314453125 3965.759765625 C 2705.77099609375 3966.2705078125 2706.01025390625 3967.00634765625 2705.88671875 3967.7275390625 L 2705.31689453125 3971.04931640625 C 2705.00537109375 3972.865966796875 2706.910888671875 3974.250732421875 2708.54248046875 3973.39306640625 L 2711.52587890625 3971.82421875 C 2712.173828125 3971.484619140625 2712.94775390625 3971.484619140625 2713.5947265625 3971.82421875 L 2716.577880859375 3973.39306640625 C 2718.20751953125 3974.251220703125 2720.11474609375 3972.86572265625 2719.803466796875 3971.04931640625 L 2719.233642578125 3967.7275390625 C 2719.10986328125 3967.00634765625 2719.34912109375 3966.2705078125 2719.873046875 3965.759765625 L 2722.28662109375 3963.4072265625 C 2723.60595703125 3962.12158203125 2722.8779296875 3959.88037109375 2721.054443359375 3959.61572265625 L 2717.71923828125 3959.130859375 C 2716.9951171875 3959.025390625 2716.369140625 3958.57080078125 2716.045166015625 3957.91455078125 L 2714.5537109375 3954.89208984375 C 2714.14599609375 3954.066162109375 2713.35302734375 3953.653076171875 2712.560302734375 3953.653076171875 M 2712.560302734375 3952.653076171875 C 2713.796142578125 3952.653076171875 2714.903564453125 3953.341552734375 2715.450439453125 3954.449462890625 L 2716.94189453125 3957.471923828125 C 2717.1201171875 3957.8330078125 2717.464599609375 3958.083251953125 2717.86328125 3958.141357421875 L 2721.1982421875 3958.626220703125 C 2722.421142578125 3958.8037109375 2723.418212890625 3959.64404296875 2723.800048828125 3960.819580078125 C 2724.18212890625 3961.9951171875 2723.86962890625 3963.260986328125 2722.984619140625 3964.12353515625 L 2720.571044921875 3966.475830078125 C 2720.28271484375 3966.757080078125 2720.151123046875 3967.16162109375 2720.21923828125 3967.558349609375 L 2720.7890625 3970.880126953125 C 2720.9501953125 3971.8203125 2720.693359375 3972.7734375 2720.084716796875 3973.495361328125 C 2719.464111328125 3974.231201171875 2718.563232421875 3974.6533203125 2717.61279296875 3974.6533203125 C 2717.0908203125 3974.6533203125 2716.5859375 3974.527099609375 2716.112548828125 3974.278076171875 L 2713.129150390625 3972.709228515625 C 2712.955078125 3972.617919921875 2712.758056640625 3972.5693359375 2712.560302734375 3972.5693359375 C 2712.362548828125 3972.5693359375 2712.16552734375 3972.617919921875 2711.99072265625 3972.709716796875 L 2709.0078125 3974.278076171875 C 2708.5341796875 3974.527099609375 2708.029541015625 3974.6533203125 2707.507568359375 3974.6533203125 C 2706.556884765625 3974.6533203125 2705.65576171875 3974.231201171875 2705.035400390625 3973.4951171875 C 2704.4267578125 3972.7734375 2704.170166015625 3971.8203125 2704.331298828125 3970.88037109375 L 2704.901123046875 3967.558349609375 C 2704.968994140625 3967.161865234375 2704.83740234375 3966.7568359375 2704.549072265625 3966.4755859375 L 2702.135986328125 3964.123291015625 C 2701.2509765625 3963.260986328125 2700.938232421875 3961.9951171875 2701.3203125 3960.819580078125 C 2701.7021484375 3959.64404296875 2702.69921875 3958.8037109375 2703.92236328125 3958.6259765625 L 2707.25732421875 3958.141357421875 C 2707.656005859375 3958.083251953125 2708.000244140625 3957.8330078125 2708.178466796875 3957.47216796875 L 2709.670166015625 3954.449462890625 C 2710.217041015625 3953.341552734375 2711.324462890625 3952.653076171875 2712.560302734375 3952.653076171875 Z" stroke="none" fill="#fff"/>
        </g>
        <path id="Path_5753-4" data-name="Path 5753" d="M2720.675,3965.023l1.309,2.5a1.947,1.947,0,0,0,1.469,1l2.927.4a1.809,1.809,0,0,1,1.081,3.131l-2.451,1.943a1.769,1.769,0,0,0-.561,1.625l.833,2.743a1.929,1.929,0,0,1-2.83,1.936l-2.617-1.3a2.059,2.059,0,0,0-1.815,0l-2.618,1.3a1.929,1.929,0,0,1-2.83-1.936l.5-2.743a1.77,1.77,0,0,0-.561-1.625l-2.117-1.943a1.809,1.809,0,0,1,1.081-3.131l3.26-.4a1.946,1.946,0,0,0,1.469-1l.975-2.5A2.007,2.007,0,0,1,2720.675,3965.023Z" transform="translate(-2708.526 -3962.274)" fill="#ffb300"/>
        <path id="Path_5753_-_Outline-4" data-name="Path 5753 - Outline" d="M2717.26,3962a2.392,2.392,0,0,1,1.164.3,2.205,2.205,0,0,1,.881.9l1.309,2.5a1.611,1.611,0,0,0,1.218.829l2.926.4a2.231,2.231,0,0,1,1.865,1.531,2.077,2.077,0,0,1,.033,1.134,2.142,2.142,0,0,1-.636,1.044l-.009.008-.01.008-2.441,1.935a1.439,1.439,0,0,0-.453,1.294l.833,2.742,0,.019a2.054,2.054,0,0,1-.453,1.711,2.315,2.315,0,0,1-.794.609,2.36,2.36,0,0,1-2.06-.026l-2.617-1.3a1.727,1.727,0,0,0-1.52,0l-2.617,1.3a2.36,2.36,0,0,1-2.06.026,2.322,2.322,0,0,1-.794-.609,2.055,2.055,0,0,1-.453-1.711l.5-2.743a1.438,1.438,0,0,0-.458-1.319l-2.118-1.943a2.138,2.138,0,0,1-.636-1.044,2.073,2.073,0,0,1,.033-1.134,2.23,2.23,0,0,1,1.864-1.531h0l3.258-.4a1.613,1.613,0,0,0,1.208-.813l.975-2.495.009-.016a2.2,2.2,0,0,1,.881-.9A2.391,2.391,0,0,1,2717.26,3962Zm8.317,8.135a1.408,1.408,0,0,0,.409-1.479,1.57,1.57,0,0,0-1.318-1.069l-2.927-.4a2.281,2.281,0,0,1-1.719-1.18l-1.309-2.5a1.674,1.674,0,0,0-2.9-.016l-.975,2.495-.009.016a2.28,2.28,0,0,1-1.719,1.18h0l-3.258.4a1.569,1.569,0,0,0-1.316,1.068,1.409,1.409,0,0,0,.417,1.486l2.118,1.943a2.1,2.1,0,0,1,.664,1.93l-.5,2.743a1.4,1.4,0,0,0,.308,1.164,1.69,1.69,0,0,0,2.046.413l2.617-1.3a2.392,2.392,0,0,1,2.112,0l2.617,1.3a1.691,1.691,0,0,0,2.046-.413,1.4,1.4,0,0,0,.312-1.146l-.833-2.742,0-.019a2.1,2.1,0,0,1,.664-1.93l.009-.008.009-.008Z" transform="translate(-2706.86 -3960.607)" fill="#fff"/>
        <path id="Path_5754-4" data-name="Path 5754" d="M2764.608,3975.244c-2.286-.326-1.633-4.734-3.265-4.408-.437.087-.84.176-.916.762s.681,3.693,2.5,3.952c2.1.3,3.448.15,3.6,1.05a.668.668,0,0,1-.45.6s-2.72,1.491-2.887,3.826a4.431,4.431,0,0,0,.7,3.245c.826.515,1.474.914,1.851.443.653-.816-.326-2.285-.816-4.081s3.116-3.592,3.116-3.592a.728.728,0,0,0,.49-.653C2768.363,3975.407,2766.894,3975.571,2764.608,3975.244Z" transform="translate(-2750.702 -3967.955)" fill="#ffe97a"/>
        <path id="Path_5755-4" data-name="Path 5755" d="M2721.922,3966.972a1.913,1.913,0,0,0-3.345.024l-.936,2.43a1.869,1.869,0,0,1-1.41.978l-3.131.39a1.767,1.767,0,0,0-1.038,3.049l2.033,1.891a1.737,1.737,0,0,1,.539,1.582l-.48,2.671a1.723,1.723,0,0,0,.676,1.7,4.884,4.884,0,0,1,.221-3.176c.961-2.436.961-4.061-.8-4.873s-1.762-2.274,1.122-2.436,3.524-.65,3.844-3.411C2719.433,3965.916,2720.9,3966.133,2721.922,3966.972Z" transform="translate(-2709.938 -3963.94)" fill="#ffe41f"/>
      </g>
    </g>
    <g id="star-5" data-name="star" transform="translate(2975.814 2315.297)">
      <g id="Path_5749" data-name="Path 5749" transform="translate(-2547.16 -3953.653)" fill="#ffd500">
        <path d="M 2562.3916015625 3974.1533203125 C 2561.95556640625 3974.1533203125 2561.533203125 3974.046142578125 2561.13623046875 3973.834228515625 L 2558.19580078125 3972.265380859375 C 2557.954833984375 3972.136962890625 2557.68359375 3972.069091796875 2557.411376953125 3972.069091796875 C 2557.13916015625 3972.069091796875 2556.867919921875 3972.136962890625 2556.626708984375 3972.265380859375 L 2553.6865234375 3973.834228515625 C 2553.28955078125 3974.0458984375 2552.8671875 3974.1533203125 2552.431396484375 3974.1533203125 C 2551.645263671875 3974.1533203125 2550.896728515625 3973.80126953125 2550.3779296875 3973.1875 C 2549.854248046875 3972.56787109375 2549.641357421875 3971.77880859375 2549.77880859375 3970.966064453125 L 2550.340576171875 3967.644287109375 C 2550.435302734375 3967.08349609375 2550.252685546875 3966.51220703125 2549.851806640625 3966.11572265625 L 2547.473388671875 3963.76318359375 C 2546.7314453125 3963.029296875 2546.47314453125 3961.95458984375 2546.7998046875 3960.9580078125 C 2547.1220703125 3959.974609375 2547.9521484375 3959.270751953125 2548.9658203125 3959.12109375 L 2552.253662109375 3958.63671875 C 2552.8037109375 3958.554931640625 2553.280029296875 3958.203369140625 2553.527099609375 3957.696044921875 L 2554.996826171875 3954.674072265625 C 2555.452880859375 3953.736083984375 2556.378173828125 3953.1533203125 2557.411376953125 3953.1533203125 C 2558.4443359375 3953.1533203125 2559.36962890625 3953.736083984375 2559.825927734375 3954.674072265625 L 2561.296142578125 3957.6962890625 C 2561.542724609375 3958.203369140625 2562.01904296875 3958.554931640625 2562.56982421875 3958.63671875 L 2565.856689453125 3959.12109375 C 2566.87060546875 3959.270751953125 2567.700927734375 3959.974609375 2568.023193359375 3960.958251953125 C 2568.349853515625 3961.95458984375 2568.091552734375 3963.029296875 2567.349609375 3963.76318359375 L 2564.970947265625 3966.11572265625 C 2564.570068359375 3966.51171875 2564.387451171875 3967.083251953125 2564.48193359375 3967.64453125 L 2565.043701171875 3970.966064453125 C 2565.18115234375 3971.779052734375 2564.96826171875 3972.56787109375 2564.4443359375 3973.1875 C 2563.92578125 3973.80126953125 2563.177490234375 3974.1533203125 2562.3916015625 3974.1533203125 Z" stroke="none"/>
        <path d="M 2557.411376953125 3953.6533203125 C 2556.6298828125 3953.6533203125 2555.84814453125 3954.06640625 2555.446533203125 3954.892822265625 L 2553.9765625 3957.9150390625 C 2553.6572265625 3958.57080078125 2553.040283203125 3959.025390625 2552.326416015625 3959.13134765625 L 2549.038818359375 3959.61572265625 C 2547.24169921875 3959.880859375 2546.52392578125 3962.12109375 2547.824951171875 3963.40771484375 L 2550.203369140625 3965.76025390625 C 2550.719482421875 3966.2705078125 2550.95556640625 3967.00634765625 2550.83349609375 3967.7275390625 L 2550.271728515625 3971.04931640625 C 2549.964599609375 3972.86572265625 2551.84423828125 3974.249755859375 2553.451171875 3973.39306640625 L 2556.3916015625 3971.82421875 C 2557.0302734375 3971.48388671875 2557.79248046875 3971.48388671875 2558.43115234375 3971.82421875 L 2561.37158203125 3973.39306640625 C 2562.977783203125 3974.250732421875 2564.857421875 3972.865966796875 2564.55078125 3971.04931640625 L 2563.989013671875 3967.7275390625 C 2563.867431640625 3967.00634765625 2564.10302734375 3966.2705078125 2564.619384765625 3965.76025390625 L 2566.998046875 3963.40771484375 C 2568.299072265625 3962.12109375 2567.581298828125 3959.880859375 2565.78369140625 3959.61572265625 L 2562.496337890625 3959.13134765625 C 2561.782470703125 3959.025390625 2561.16552734375 3958.57080078125 2560.846435546875 3957.9150390625 L 2559.376220703125 3954.892822265625 C 2558.974365234375 3954.06640625 2558.19287109375 3953.6533203125 2557.411376953125 3953.6533203125 M 2557.411376953125 3952.6533203125 C 2558.637451171875 3952.6533203125 2559.73486328125 3953.343994140625 2560.275390625 3954.45556640625 L 2561.74560546875 3957.4775390625 C 2561.920166015625 3957.836181640625 2562.255615234375 3958.084716796875 2562.64306640625 3958.14208984375 L 2565.929443359375 3958.62646484375 C 2567.13232421875 3958.8037109375 2568.11669921875 3959.6376953125 2568.498291015625 3960.802490234375 C 2568.88427734375 3961.980224609375 2568.578857421875 3963.250732421875 2567.701171875 3964.11865234375 L 2565.322509765625 3966.47119140625 C 2565.037353515625 3966.753173828125 2564.907470703125 3967.16064453125 2564.97509765625 3967.561279296875 L 2565.536865234375 3970.882568359375 C 2565.696533203125 3971.829345703125 2565.4375 3972.787353515625 2564.826171875 3973.510498046875 C 2564.212158203125 3974.23681640625 2563.32470703125 3974.6533203125 2562.3916015625 3974.6533203125 C 2561.87255859375 3974.6533203125 2561.37109375 3974.526123046875 2560.90087890625 3974.275390625 L 2557.96044921875 3972.70654296875 C 2557.791748046875 3972.61669921875 2557.601806640625 3972.569091796875 2557.411376953125 3972.569091796875 C 2557.220947265625 3972.569091796875 2557.031005859375 3972.61669921875 2556.862060546875 3972.70654296875 L 2553.921875 3974.275390625 C 2553.451904296875 3974.526123046875 2552.9501953125 3974.6533203125 2552.431396484375 3974.6533203125 C 2551.497802734375 3974.6533203125 2550.610107421875 3974.23681640625 2549.99609375 3973.51025390625 C 2549.384765625 3972.786865234375 2549.125732421875 3971.829345703125 2549.28564453125 3970.8828125 L 2549.847412109375 3967.560791015625 C 2549.915283203125 3967.160400390625 2549.785400390625 3966.753173828125 2549.500244140625 3966.471435546875 L 2547.121826171875 3964.11865234375 C 2546.244140625 3963.250732421875 2545.938720703125 3961.97998046875 2546.32470703125 3960.802490234375 C 2546.706298828125 3959.6376953125 2547.6904296875 3958.8037109375 2548.892822265625 3958.62646484375 L 2552.1806640625 3958.14208984375 C 2552.567138671875 3958.084716796875 2552.90283203125 3957.836181640625 2553.077392578125 3957.477294921875 L 2554.54736328125 3954.455322265625 C 2555.087646484375 3953.343994140625 2556.18505859375 3952.6533203125 2557.411376953125 3952.6533203125 Z" stroke="none" fill="#fff"/>
      </g>
      <path id="Path_5750" data-name="Path 5750" d="M2565.52,3965.024l1.29,2.5a1.92,1.92,0,0,0,1.448,1l2.884.4a1.815,1.815,0,0,1,1.066,3.132l-2.416,1.943a1.784,1.784,0,0,0-.553,1.625l.822,2.743a1.906,1.906,0,0,1-2.79,1.936l-2.58-1.3a2,2,0,0,0-1.789,0l-2.58,1.3a1.906,1.906,0,0,1-2.79-1.936l.492-2.743a1.786,1.786,0,0,0-.552-1.625l-2.088-1.943a1.815,1.815,0,0,1,1.066-3.132l3.214-.4a1.921,1.921,0,0,0,1.448-1l.961-2.5A1.964,1.964,0,0,1,2565.52,3965.024Z" transform="translate(-2553.545 -3962.274)" fill="#fff"/>
      <path id="Path_5751" data-name="Path 5751" d="M2565.5,3965a1.964,1.964,0,0,0-3.433.024l-.961,2.5a1.918,1.918,0,0,1-1.448,1l-3.214.4a1.815,1.815,0,0,0-1.066,3.131l2.088,1.943a1.785,1.785,0,0,1,.552,1.625l-.492,2.743a1.771,1.771,0,0,0,.693,1.743,5.021,5.021,0,0,1,.227-3.263c.987-2.5.987-4.171-.822-5s-1.809-2.335,1.151-2.5,3.618-.667,3.947-3.5C2562.949,3963.918,2564.455,3964.141,2565.5,3965Z" transform="translate(-2553.545 -3962.278)" fill="#dedede"/>
    </g>
  </g>
</svg>
