<svg xmlns="http://www.w3.org/2000/svg" xmlns:xlink="http://www.w3.org/1999/xlink" width="75.522" height="77.095" viewBox="0 0 75.522 77.095"><defs><style>.a,.b{fill:#ffba00;}.a{opacity:0.3;}.c{fill:#fff;stroke-linecap:round;}.d{fill:#dee8ff;}.e,.f{stroke:none;}.f{fill:#f80;}.g{filter:url(#a);}</style><filter id="a" x="8" y="7.816" width="59.522" height="61.095" filterUnits="userSpaceOnUse"><feOffset dy="6" input="SourceAlpha"/><feGaussianBlur result="b"/><feFlood flood-color="#f80"/><feComposite operator="in" in2="b"/><feComposite in="SourceGraphic"/></filter></defs><g transform="translate(-0.5 -0.184)"><rect class="a" width="75.522" height="77.095" rx="37.761" transform="translate(0.5 0.184)"/><g class="g" transform="matrix(1, 0, 0, 1, 0.5, 0.18)"><rect class="b" width="59.522" height="55.095" rx="27.548" transform="translate(8 7.82)"/></g><g class="c" transform="translate(-1238.873 4027.848)"><path class="e" d="M 1277.597412109375 -3970.5712890625 C 1273.873657226563 -3970.5712890625 1270.269409179688 -3971.700439453125 1266.884643554688 -3973.927490234375 C 1264.083862304688 -3975.770263671875 1261.371459960938 -3978.410400390625 1258.822875976563 -3981.774658203125 C 1255.700805664063 -3985.895751953125 1256.404418945313 -3988.86474609375 1257.101684570313 -3990.267822265625 C 1258.14697265625 -3992.37109375 1260.500366210938 -3993.72998046875 1263.097290039063 -3993.72998046875 C 1263.514770507813 -3993.72998046875 1263.933227539063 -3993.694091796875 1264.341064453125 -3993.62353515625 C 1266.541137695313 -3993.24169921875 1267.596923828125 -3990.896240234375 1268.71484375 -3988.4130859375 C 1270.320556640625 -3984.84619140625 1272.140502929688 -3980.80322265625 1277.510986328125 -3980.80322265625 C 1277.9677734375 -3980.80322265625 1278.45068359375 -3980.832275390625 1278.946166992188 -3980.889404296875 C 1283.69873046875 -3981.472412109375 1286.85595703125 -3982.87744140625 1288.597412109375 -3985.184326171875 C 1290.135986328125 -3987.22265625 1290.427368164063 -3989.7900390625 1290.51318359375 -3992.2607421875 C 1290.6259765625 -3995.4912109375 1287.672607421875 -3998.055908203125 1284.57861328125 -3999.293212890625 C 1284.279418945313 -3998.2421875 1283.972290039063 -3997.32275390625 1283.676391601563 -3996.595703125 C 1283.133911132813 -3995.2626953125 1282.647827148438 -3994.5791015625 1282.051147460938 -3994.3095703125 C 1281.822143554688 -3994.2060546875 1281.560424804688 -3994.153564453125 1281.2734375 -3994.153564453125 C 1281.273315429688 -3994.153564453125 1281.273071289063 -3994.153564453125 1281.27294921875 -3994.153564453125 C 1280.041870117188 -3994.153564453125 1278.374877929688 -3995.130615234375 1277.193115234375 -3995.950439453125 C 1275.591674804688 -3997.061279296875 1274.00732421875 -3998.505859375 1272.846313476563 -3999.9140625 C 1271.063110351563 -4002.07666015625 1270.291015625 -4004.09716796875 1270.613647460938 -4005.75732421875 C 1271.124267578125 -4008.38427734375 1274.377685546875 -4010.4306640625 1276.271606445313 -4011.41650390625 C 1278.9228515625 -4012.796875 1281.950805664063 -4013.724365234375 1283.806396484375 -4013.724365234375 C 1284.643310546875 -4013.724365234375 1285.250122070313 -4013.5400390625 1285.66162109375 -4013.160888671875 C 1286.167358398438 -4012.695068359375 1286.3984375 -4011.853759765625 1286.410888671875 -4010.43310546875 C 1286.418212890625 -4009.601806640625 1286.351440429688 -4008.590576171875 1286.2119140625 -4007.41845703125 C 1286.424682617188 -4007.35546875 1286.7353515625 -4007.28271484375 1287.0888671875 -4007.2001953125 C 1288.852783203125 -4006.78759765625 1292.136108398438 -4006.01953125 1294.874633789063 -4003.7158203125 C 1298.22802734375 -4000.894775390625 1299.8232421875 -3996.62451171875 1299.61572265625 -3991.0234375 C 1299.368774414063 -3984.357421875 1297.42578125 -3979.49462890625 1293.675903320313 -3976.15673828125 C 1292.070556640625 -3974.72802734375 1290.158081054688 -3973.593994140625 1287.828857421875 -3972.68994140625 C 1285.92529296875 -3971.950927734375 1283.711303710938 -3971.360595703125 1281.060546875 -3970.88525390625 C 1279.898193359375 -3970.677001953125 1278.733032226563 -3970.5712890625 1277.597412109375 -3970.5712890625 Z"/><path class="f" d="M 1277.597412109375 -3971.5712890625 C 1278.65966796875 -3971.5712890625 1279.755126953125 -3971.667236328125 1280.884033203125 -3971.86962890625 C 1290.091186523438 -3973.520751953125 1298.104614257813 -3977.245849609375 1298.616455078125 -3991.060546875 C 1299.128173828125 -4004.87646484375 1288.120849609375 -4005.745849609375 1285.826171875 -4006.4912109375 C 1285.59130859375 -4006.5673828125 1285.353271484375 -4006.63916015625 1285.111572265625 -4006.70654296875 C 1285.503784179688 -4009.526123046875 1285.560302734375 -4011.89453125 1284.984008789063 -4012.425537109375 C 1283.4228515625 -4013.864013671875 1272.431396484375 -4009.8681640625 1271.595336914063 -4005.56640625 C 1270.75927734375 -4001.26513671875 1279.821899414063 -3994.399658203125 1281.639526367188 -3995.220947265625 C 1282.3173828125 -3995.527099609375 1283.171508789063 -3997.794921875 1283.8955078125 -4000.594482421875 C 1287.917846679688 -3999.357177734375 1291.650634765625 -3996.181396484375 1291.512573242188 -3992.22607421875 C 1291.328247070313 -3986.91650390625 1290.201049804688 -3981.26123046875 1279.063842773438 -3979.896240234375 C 1278.518188476563 -3979.833251953125 1278.001586914063 -3979.80322265625 1277.510986328125 -3979.80322265625 C 1267.668701171875 -3979.80322265625 1268.485107421875 -3991.8896484375 1264.170166015625 -3992.63818359375 C 1259.639404296875 -3993.42236328125 1254.526733398438 -3989.10107421875 1259.619995117188 -3982.37841796875 C 1264.088623046875 -3976.479736328125 1269.9970703125 -3971.5712890625 1277.597412109375 -3971.5712890625 M 1277.597412109375 -3969.5712890625 C 1270.441528320313 -3969.5712890625 1263.856689453125 -3973.473876953125 1258.025756835938 -3981.170654296875 C 1254.578125 -3985.7216796875 1255.405883789063 -3989.1025390625 1256.206176757813 -3990.712890625 C 1257.419067382813 -3993.1533203125 1260.123901367188 -3994.72998046875 1263.097290039063 -3994.72998046875 C 1263.57177734375 -3994.72998046875 1264.047729492188 -3994.689208984375 1264.511962890625 -3994.60888671875 C 1265.829833984375 -3994.380126953125 1266.9287109375 -3993.597900390625 1267.871704101563 -3992.21728515625 C 1268.538330078125 -3991.241455078125 1269.06689453125 -3990.067138671875 1269.626708984375 -3988.82373046875 C 1271.53564453125 -3984.5830078125 1273.115844726563 -3981.80322265625 1277.510986328125 -3981.80322265625 C 1277.928344726563 -3981.80322265625 1278.371215820313 -3981.829833984375 1278.827392578125 -3981.88232421875 C 1288.415893554688 -3983.059326171875 1289.340209960938 -3987.294677734375 1289.513793945313 -3992.29541015625 C 1289.5703125 -3993.913818359375 1288.633666992188 -3995.218017578125 1287.838012695313 -3996.02734375 C 1287.118774414063 -3996.759033203125 1286.217895507813 -3997.402587890625 1285.208251953125 -3997.91552734375 C 1285.005737304688 -3997.280029296875 1284.802124023438 -3996.708740234375 1284.602661132813 -3996.21875 C 1283.95458984375 -3994.62646484375 1283.314575195313 -3993.782958984375 1282.462768554688 -3993.398193359375 C 1282.103637695313 -3993.236083984375 1281.703491210938 -3993.153564453125 1281.273681640625 -3993.153564453125 C 1281.2734375 -3993.153564453125 1281.273193359375 -3993.153564453125 1281.27294921875 -3993.153564453125 C 1280.077026367188 -3993.153564453125 1278.512573242188 -3993.818115234375 1276.623168945313 -3995.128662109375 C 1274.9248046875 -3996.306640625 1273.3095703125 -3997.7802734375 1272.07470703125 -3999.27783203125 C 1270.06689453125 -4001.712890625 1269.2451171875 -4003.95703125 1269.632080078125 -4005.947998046875 C 1270.193115234375 -4008.834716796875 1273.30126953125 -4010.99755859375 1275.809814453125 -4012.303466796875 C 1278.63427734375 -4013.774169921875 1281.773193359375 -4014.724365234375 1283.806396484375 -4014.724365234375 C 1284.906005859375 -4014.724365234375 1285.734497070313 -4014.45361328125 1286.339111328125 -4013.896484375 C 1287.075073242188 -4013.21826171875 1287.395629882813 -4012.185302734375 1287.410888671875 -4010.44189453125 C 1287.416625976563 -4009.78662109375 1287.379028320313 -4009.029052734375 1287.298828125 -4008.177978515625 C 1287.304809570313 -4008.176513671875 1287.310668945313 -4008.17529296875 1287.316650390625 -4008.173828125 C 1289.161865234375 -4007.7421875 1292.596801757813 -4006.93896484375 1295.518310546875 -4004.481201171875 C 1299.119750976563 -4001.451416015625 1300.83447265625 -3996.9111328125 1300.615112304688 -3990.986572265625 C 1300.483764648438 -3987.4404296875 1299.863037109375 -3984.314697265625 1298.770385742188 -3981.69580078125 C 1297.738159179688 -3979.22216796875 1296.247802734375 -3977.107421875 1294.340698242188 -3975.409912109375 C 1292.644775390625 -3973.900390625 1290.633056640625 -3972.70556640625 1288.190673828125 -3971.757568359375 C 1286.226440429688 -3970.9951171875 1283.951904296875 -3970.387939453125 1281.237060546875 -3969.901123046875 C 1280.0166015625 -3969.68212890625 1278.792114257813 -3969.5712890625 1277.597412109375 -3969.5712890625 Z"/></g><path class="d" d="M1266.37-3984.47c-5.093-6.722.02-11.045,4.551-10.259a2.556,2.556,0,0,1,1.274.641c-1.719.535-6.76,2.575-3.983,7.5,3.319,5.884,10.562,12.373,20.519,10.637s13.051-4.9,14.485-13.5a29.335,29.335,0,0,1,2.016-7.179,21.788,21.788,0,0,1,.134,3.482c-.512,13.815-8.525,17.54-17.733,19.191a18.594,18.594,0,0,1-3.287.3C1276.747-3973.663,1270.839-3978.571,1266.37-3984.47Z" transform="translate(-1245.623 4029.94)"/><path class="d" d="M1278.361-3998.466a33.091,33.091,0,0,0,2.749-3.893c.981-1.8,1.707-1.55,2.994-.261l-.209-.066c-.724,2.8-1.578,5.068-2.256,5.374a.889.889,0,0,1-.366.068A6.625,6.625,0,0,1,1278.361-3998.466Z" transform="translate(-1238.872 4029.94)"/></g></svg>