<svg xmlns="http://www.w3.org/2000/svg" width="1699.709" height="358.641" viewBox="0 0 1699.709 358.641"><defs><style>.a{fill:#dee8ff;}.b{fill:#fff;}.c{fill:#b3c5f0;}.d{fill:#f8d008;}.e{fill:#ffba00;}.f{fill:#0f426d;}.g,.q,.r,.s{fill:#8baeff;}.h{fill:#ecf2ff;}.i,.n{fill:#5fbe5f;}.j{fill:#bcc9e7;}.k,.p{fill:none;stroke-linecap:round;}.k{stroke:#0f426d;stroke-width:4px;stroke-dasharray:0 10;}.l{fill:#e7ab79;}.m{fill:#ffc498;stroke:rgba(0,0,0,0);stroke-miterlimit:10;}.n{opacity:0.1;}.o{fill:#ffa000;}.p{stroke:#5fbe5f;stroke-linejoin:round;stroke-width:8px;}.q{opacity:0.5;}.r{opacity:0.58;}.s{font-size:20px;font-family:BalsamiqSans-Bold, Balsamiq Sans;font-weight:700;}</style></defs><g transform="translate(-135.377 -1291.183)"><g transform="translate(160 1296.176)"><path class="a" d="M87-20c48.049,0,107,58.951,107,107s-58.951,97-107,97-97-48.951-97-97S38.951-20,87-20Z" transform="translate(10 31.824)"/><path class="a" d="M404.215-7649.637c4.3,13.768,40.013,20.651,54.641,56.792s17.64-8.175-7.314-32.7S399.912-7663.4,404.215-7649.637Z" transform="translate(-255 7661.824)"/><path class="a" d="M473.406-7556.3c-5.788,2.911-7.438,8.829.906,12.517S479.194-7559.215,473.406-7556.3Z" transform="translate(-336.592 7556.607)"/></g><g transform="translate(890 1310.876)"><path class="a" d="M87-20c48.049,0,107,58.951,107,107s-58.951,97-107,97-97-48.951-97-97S38.951-20,87-20Z" transform="translate(10 31.824)"/><path class="a" d="M404.215-7649.637c4.3,13.768,40.013,20.651,54.641,56.792s17.64-8.175-7.314-32.7S399.912-7663.4,404.215-7649.637Z" transform="translate(-255 7661.824)"/><path class="a" d="M473.406-7556.3c-5.788,2.911-7.438,8.829.906,12.517S479.194-7559.215,473.406-7556.3Z" transform="translate(-336.592 7556.607)"/></g><g transform="translate(1620 1301.217)"><path class="a" d="M87-20c48.049,0,107,58.951,107,107s-58.951,97-107,97-97-48.951-97-97S38.951-20,87-20Z" transform="translate(10 31.823)"/><path class="a" d="M404.215-7649.637c4.3,13.768,40.013,20.651,54.641,56.792s17.64-8.175-7.314-32.7S399.912-7663.4,404.215-7649.637Z" transform="translate(-255 7661.824)"/><path class="a" d="M473.406-7556.3c-5.788,2.911-7.438,8.829.906,12.517S479.194-7559.215,473.406-7556.3Z" transform="translate(-336.592 7556.607)"/><g transform="translate(-2449.548 -2840.928)"><path class="b" d="M2773.96,2981.663c2.253,4.959,2.277,8.182,1.155,9.116-.913.77-2.588.012-4.431-2.564-4.1-5.734-7.782-13.515-5.324-14.743a2.517,2.517,0,0,1,.623,0C2767.354,2973.595,2770.782,2974.668,2773.96,2981.663Z" transform="translate(-169.539 -58.513)"/><path class="c" d="M2757.647,2987.653c1.843,2.576,3.518,3.333,4.432,2.563l.094.185-5.734,5.553-2.44,2.363a163.16,163.16,0,0,1-11.509-23.164l3.014-.782h0l7.224-1.872.213.406a2.527,2.527,0,0,0-.623,0C2749.866,2974.138,2753.552,2981.919,2757.647,2987.653Z" transform="translate(-156.502 -57.951)"/><path class="d" d="M2748.574,2922.084c22.115,41.773,21.3,61.841,11.467,52.012-2.232-2.232-4.591-4.78-7.015-7.667l0,0a140.093,140.093,0,0,1-12.6-17.7l2.441-2.363,5.733-5.553-.094-.184c1.122-.934,1.1-4.157-1.155-9.116-3.178-6.995-6.606-8.068-7.978-8.2l-.213-.405-7.224,1.872h0l-3.014.782c-.135-.336-.27-.676-.405-1.016a213.712,213.712,0,0,1-7.576-21.476v-.008c-2.109-7.806-1.77-11.512.2-13.736C2721.135,2889.32,2726.459,2880.31,2748.574,2922.084Z" transform="translate(-142.924 -8.353)"/><path class="b" d="M2740.751,2908c15.563,24.163,24.163,64.3,18.839,67.165-1.63.876-4.022.909-7.126-.582,0,0,0,0-.008,0-7.04-3.379-17.725-14.6-31.363-41.6-12.958-25.646-14.526-42.572-14.093-51.131v0a30.227,30.227,0,0,1,.852-6.155c.049-.177.086-.3.111-.373.008-.024.012-.041.016-.057a.115.115,0,0,1,.008-.025C2719.046,2870.729,2725.189,2883.834,2740.751,2908Zm11.877,57.745c9.829,9.829,10.648-10.239-11.467-52.012s-27.439-32.764-27.439-32.764c-1.974,2.224-2.314,5.93-.2,13.736v.008a213.712,213.712,0,0,0,7.576,21.477c.135.34.27.679.405,1.015a163.153,163.153,0,0,0,11.509,23.164,140.1,140.1,0,0,0,12.6,17.7l0,0C2748.037,2960.963,2750.4,2963.51,2752.628,2965.742Z" transform="translate(-135.511 0)"/><path class="b" d="M2653.8,2934.9c13.638,27,24.323,38.219,31.363,41.6-6.315-1.982-27.935-8.3-44.877-7.6a72.86,72.86,0,0,0-29.774,7.982c-4.222-2.805-11.328-8.334-14.662-15.559-3.37-7.306-3.08-16.345-2.568-21.3q.811-.51,1.8-1.159s.012-.008.017-.012l1.572-.872-.139-.082c3.563-2.4,8.58-5.954,15.5-11.18,17.2-13,27.271-44.919,28.533-49.1a30.231,30.231,0,0,0-.852,6.156v0C2639.273,2892.329,2640.842,2909.256,2653.8,2934.9Z" transform="translate(-68.217 -1.922)"/><path class="c" d="M2489.135,3106.353a64.457,64.457,0,0,0,10.177,11.639c-4.062,1.172-12.274,1.757-18.778-9.182-6.638-11.164-1.048-19.437,2.355-23.021A31.694,31.694,0,0,0,2489.135,3106.353Z" transform="translate(0 -124.843)"/><path class="e" d="M2564.806,3113.6c2.458,1.638,2.458,2.048,2.458,2.048l-27.439,13.515s-3.277-1.638-4.1-3.276a18.1,18.1,0,0,1-1.229-3.277l26.62-13.105A11.936,11.936,0,0,0,2564.806,3113.6Z" transform="translate(-33.693 -138.843)"/><path class="e" d="M2540.94,3080.5a33.6,33.6,0,0,0,1.638,4.5,6.116,6.116,0,0,0,2.457,2.457l-27.849,13.924a42.761,42.761,0,0,1-2.523-4.517,9.714,9.714,0,0,1-1.163-3.264Z" transform="translate(-21.293 -121.72)"/><path class="e" d="M2535.184,3049.6a33.383,33.383,0,0,1,.41,4.1l-27.439,13.515-.819-4.1a10.37,10.37,0,0,1,.41-4.505l27.849-13.105S2534.774,3046.729,2535.184,3049.6Z" transform="translate(-17.585 -101.054)"/><path class="f" d="M2499.991,3058.473a9.716,9.716,0,0,0,1.163,3.264,42.81,42.81,0,0,0,2.523,4.517l27.849-13.925a6.118,6.118,0,0,1-2.457-2.457,33.537,33.537,0,0,1-1.638-4.505Zm-2.048-14.334a10.371,10.371,0,0,0-.409,4.5l.819,4.1,27.439-13.515a33.384,33.384,0,0,0-.41-4.1c-.409-2.866.41-4.1.41-4.1Zm15.972,32.764,27.439-13.515s0-.409-2.457-2.048a11.934,11.934,0,0,1-3.686-4.1l-26.62,13.105a18.107,18.107,0,0,0,1.229,3.276C2510.639,3075.264,2513.915,3076.9,2513.915,3076.9Zm36.437-15.182c1.851,1.216,3.084,1.872,3.084,1.872l-12.847,6.229-23.43,11.361-4.267,2.068s-2.015-.287-5.795-3.514a64.457,64.457,0,0,1-10.177-11.639,31.7,31.7,0,0,1-6.246-20.563,23.756,23.756,0,0,1,1.331-6.876L2533.369,3021s-.271,1.344-.5,3.51c-.008.057-.012.115-.02.172-.512,4.955-.8,13.994,2.568,21.3,3.334,7.224,10.439,12.753,14.662,15.559C2550.172,3061.6,2550.262,3061.664,2550.352,3061.721Z" transform="translate(-7.784 -86.588)"/><path class="c" d="M2640.782,3116l-1.229,3.686s-1.233-.655-3.084-1.872Z" transform="translate(-93.902 -142.681)"/><path class="g" d="M2578.85,3140.21c3.465,6.835,14.207,28.091,16.943,33.906,3.277,6.963.41,10.239.41,10.239s-2.457,1.229-11.467,6.143-11.877-2.867-11.877-2.867l-17.438-36.06Z" transform="translate(-46.045 -156.976)"/><path class="d" d="M2599.732,3024.882l-1.572.872c.451-.295.925-.614,1.433-.954Z" transform="translate(-71.281 -88.832)"/><path class="c" d="M2594.28,3021l2.727,1.556c-.508.34-.983.659-1.433.954,0,0-.012.008-.016.012l-1.777.987C2594.01,3022.344,2594.28,3021,2594.28,3021Z" transform="translate(-68.695 -86.588)"/></g></g><g transform="translate(740.086 1649.824) rotate(180)"><path class="a" d="M87-20c48.049,0,107,58.951,107,107s-58.951,97-107,97-97-48.951-97-97S38.951-20,87-20Z" transform="translate(10 31.824)"/><path class="a" d="M404.215-7649.637c4.3,13.768,40.013,20.651,54.641,56.792s17.64-8.175-7.314-32.7S399.912-7663.4,404.215-7649.637Z" transform="translate(-255 7661.824)"/><path class="a" d="M473.406-7556.3c-5.788,2.911-7.438,8.829.906,12.517S479.194-7559.215,473.406-7556.3Z" transform="translate(-336.592 7556.607)"/></g><path class="c" d="M236.377-7577.519l19.609,130.725,168.229-48.794L382.7-7570.6Z" transform="translate(-101 8960)"/><path class="b" d="M-101,9000.464l162.245-40.44,25.619,123.89L-73.2,9120.869Z" transform="translate(237.031 -7619.209)"/><path class="h" d="M-101.3,8988.373l87.95-19.836-6.932,19.836-74.975,17.309Z" transform="matrix(0.998, -0.07, 0.07, 0.998, -325.602, -7557.289)"/><path class="h" d="M-101.3,8988.373l87.95-19.836-6.932,19.836-74.975,17.309Z" transform="matrix(0.995, -0.105, 0.105, 0.995, -630.276, -7504.734)"/><circle class="h" cx="13.5" cy="13.5" r="13.5" transform="translate(158 1417)"/><circle class="h" cx="13.5" cy="13.5" r="13.5" transform="translate(171.5 1451)"/><path class="i" d="M265.073-7551.181c-2.016,4.928,7.784,9.307,12.992,6.4s1.569-12.667,7.842-18.044-10.081-3.361-10.753,6.5S267.089-7556.109,265.073-7551.181Z" transform="translate(-99 8983)"/><path class="i" d="M265.073-7551.181c-2.016,4.928,7.784,9.307,12.992,6.4s1.569-12.667,7.842-18.044-10.081-3.361-10.753,6.5S267.089-7556.109,265.073-7551.181Z" transform="translate(-85.5 9017)"/><path class="j" d="M321.31-7600.159s21.567,26.036,41.29,29.019,44.253-13.425,41.27-21.878c-2.184-6.187-61.875-11.665-61.875-11.665Z" transform="translate(-101 8960)"/><path class="b" d="M35.628-1C55.3-1,74,17.692,74,37.368S55.3,73,35.628,73A35.628,35.628,0,0,1,0,37.368C0,17.692,15.951-1,35.628-1Z" transform="translate(234.759 1311.876)"/><path class="e" d="M31.2,11C19.293,11,12,20.693,12,32.6s7.291,21.6,19.2,21.6A21.6,21.6,0,0,0,31.2,11m0-12c17.234,0,33.6,16.371,33.6,33.6s-16.371,31.2-33.6,31.2A31.2,31.2,0,0,1,0,32.6C0,15.371,13.971-1,31.2-1Z" transform="translate(239.352 1316.47)"/><path class="f" d="M-92.392,8989.519c-7.322-3.871-3.052-12.624-2.025-16.306s9.87-4.83,5,5.327c-2.386,4.977-.388,6.247.648,6.374,1.445.212,2-.871,2.772-3.215,1.514-4.595,5.351-2.5,5.351-2.5s-3.43,10.986-9.241,10.984A5.328,5.328,0,0,1-92.392,8989.519Zm-.589-26.229c1.424-5.047,6.731-2.2,7.893-.69s-.016,6.288-2.133,6.769a3.809,3.809,0,0,1-.836.084C-90.421,8969.451-94.239,8967.751-92.981,8963.289Z" transform="translate(360.372 -7627.432)"/><g transform="translate(409.252 1401.909)"><g transform="matrix(0.921, -0.391, 0.391, 0.921, -981.257, -1131.205)"><path class="k" d="M550.976-7508.742s44.27,9.019,62.668,48.9c2.69,5.831,2.581,3.959,3.924,11.417" transform="translate(-101 8960)"/><path class="f" d="M624.853-7458.34l-5.068,18.044-13.514-11.825s5.809,1.555,10.455,0S624.853-7458.34,624.853-7458.34Z" transform="translate(-101 8960)"/></g></g><g transform="translate(1151.626 1347.264)"><g transform="matrix(0.921, -0.391, 0.391, 0.921, -981.257, -1131.205)"><path class="k" d="M550.976-7508.742s44.27,9.019,62.668,48.9c2.69,5.831,2.581,3.959,3.924,11.417" transform="translate(-101 8960)"/><path class="f" d="M624.853-7458.34l-5.068,18.044-13.514-11.825s5.809,1.555,10.455,0S624.853-7458.34,624.853-7458.34Z" transform="translate(-101 8960)"/></g></g><g transform="translate(-29)"><path class="c" d="M855.624-7580.416l34.985,39.982-81.564,43.181v-40.982Z" transform="translate(-101 8960)"/><path class="b" d="M785.666-7534.925l23.111,37.685,75.368-42.823-29.69-42.822Z" transform="translate(-101 8960)"/><path class="l" d="M1711.77,1910.412a337.115,337.115,0,0,1,25.208-33.094l54.676-30.949s9.728.928,24.362,3.219l-25.135-7.087s-47.455,20.117-55.192,28.37C1731.335,1875.512,1720.456,1894.6,1711.77,1910.412Z" transform="matrix(0.914, -0.407, 0.407, 0.914, -1748.954, 457.908)"/><path class="l" d="M1749,1923.123l9.321,8.831c-.49.155-1.367,1.893-2.62,9.733-2.063,12.9,12.379,18.053,12.379,18.053s9.8-20.117,6.706-28.885c-1.986-5.633-11.208-18.074-17.553-26.255a93.616,93.616,0,0,0-10.043,9.491c-7.221,8.253-11.864,19.085-11.864,19.085s.052.289.144.815l5.272,2.538a57.2,57.2,0,0,0-3.394,6.52,123.39,123.39,0,0,0,5.23,17.765,26.4,26.4,0,0,0,3.322.99s4.126-11.348,7.221-19.085C1756.178,1935.079,1749.183,1923.422,1749,1923.123Z" transform="matrix(0.914, -0.407, 0.407, 0.914, -1735.173, 418.859)"/><path class="m" d="M47.928,9206.942h0c-40.783-1.322-69.629-31.2-77.5-40.326-2.9-11.655-5.152-21.765-6.684-30.051a133.228,133.228,0,0,1-1.592-30.162,251.678,251.678,0,0,1,3.477-30.4.072.072,0,0,1,0-.026.084.084,0,0,0,0-.016,343.67,343.67,0,0,1,9.567-40.484l37.361-50.514c.088-.03,9.435-3.153,23.566-6.966l.021,0c.475-.129.947-.255,1.435-.386l.5-.133.455-.121a55.376,55.376,0,0,1,14.148-1.722,70.905,70.905,0,0,1,17.7,2.225,9.135,9.135,0,0,1,.271,3.621,10.957,10.957,0,0,1-1.083,3.649,14.014,14.014,0,0,1-3.16,4.1,15.855,15.855,0,0,1-7.541,3.39,40.47,40.47,0,0,1-8.187.757c-2.578,0-4.458-.2-4.536-.205l-20.892,7.607c-.033.055-3.393,5.7-6.664,12.34a91.789,91.789,0,0,0-5.313,12.756c-3.2,10.354-3.077,22.142-3.075,22.26l.463.686c.964,1.4,2.948,4.243,5.4,7.51a124.66,124.66,0,0,0,12,14.1c3.267,3.127,5.81,4.713,7.558,4.713.057,0,.107,0,.152,0,3.873-.2,7.2-1.792,10.472-5.014,3.6-3.55,7.387-9.366,11.563-17.783,7.992-16.107,12.936-18.268,21.912-22.189.67-.292,1.429-.624,2.217-.975a15.582,15.582,0,0,1,6.375-1.376,18.9,18.9,0,0,1,9.191,2.619,20.522,20.522,0,0,1,3.658,2.62c-2.157,4.508-6.877,8.056-11.442,11.487-3.88,2.917-7.541,5.669-9.677,8.925-4.686,7.145-22.674,50.951-22.855,51.393L24.008,9144.46l23.92,62.481Z" transform="translate(626.226 -7569.047)"/><g transform="translate(-7 -2.063)"><rect class="f" width="18" height="41" rx="9" transform="matrix(0.602, 0.799, -0.799, 0.602, 749.956, 1402.476)"/><path class="e" d="M9,0H9a9,9,0,0,1,9,9V21a0,0,0,0,1,0,0H0a0,0,0,0,1,0,0V9A9,9,0,0,1,9,0Z" transform="matrix(0.602, 0.799, -0.799, 0.602, 749.956, 1402.476)"/><path class="a" d="M761.671,1413.232c-2.73,2.8.7,8.89-10.359,16.729s0,7.91,7.979-1.4S764.4,1410.432,761.671,1413.232Z"/><path class="b" d="M737.086,1417.285c-4.55,3.64-11.759,6.51-12.459,11.549s-3.15-.49-.56-3.709,13.579-10.429,13.579-10.429S741.635,1413.645,737.086,1417.285Z"/></g></g><g transform="translate(781.608 1464.629)"><g transform="matrix(0.921, 0.391, -0.391, 0.921, 26.744, 0)"><path class="k" d="M0,60.317s44.27-9.019,62.668-48.9C65.358,5.587,65.25,7.458,66.592,0" transform="translate(0 8.129)"/><path class="f" d="M18.582,18.044,13.514,0,0,11.825s5.809-1.555,10.455,0S18.582,18.044,18.582,18.044Z" transform="translate(55.295 0)"/></g></g><g transform="translate(1513.709 1456.049)"><g transform="matrix(0.921, 0.391, -0.391, 0.921, 26.744, 0)"><path class="k" d="M0,60.317s44.27-9.019,62.668-48.9C65.358,5.587,65.25,7.458,66.592,0" transform="translate(0 8.129)"/><path class="f" d="M18.582,18.044,13.514,0,0,11.825s5.809-1.555,10.455,0S18.582,18.044,18.582,18.044Z" transform="translate(55.295 0)"/></g></g><g transform="matrix(0.899, 0.438, -0.438, 0.899, 744.624, -318.284)"><path class="c" d="M380.894-7591.935l-8.372,174.494L236.377-7446.5l42.006-75.062Z" transform="matrix(0.951, -0.309, 0.309, 0.951, 3032.492, 8687.589)"/><path class="b" d="M-101,9000.464l132.245-30.44,35.619,163.89L-63.2,9160.869Z" transform="translate(1017.395 -7626.283)"/><path class="a" d="M1031.153-7569.169c-3.3.92,21.391,73.369,21.391,73.369s106.057-22.911,104.258-27.909-100.942,20.14-100.942,20.14S1034.454-7570.09,1031.153-7569.169Z" transform="translate(-101 8960)"/><path class="n" d="M1037.992-7566.7l9.616,32.226,101.1-24.689-9.356-35.6Z" transform="translate(-100.552 8960)"/><path class="j" d="M328.34-7598.354c5.151,8.386,14.537,24.232,34.26,27.215s44.253-13.425,41.27-21.878c-2.184-6.187-61.875-11.665-61.875-11.665S323.189-7606.74,328.34-7598.354Z" transform="translate(674.486 9078.016)"/><path class="b" d="M35.628-1C55.3-1,74,17.692,74,37.368S55.3,73,35.628,73A35.628,35.628,0,0,1,0,37.368C0,17.692,15.951-1,35.628-1Z" transform="translate(1007.244 1427.893)"/><path class="a" d="M-69.8,9024.81a31.015,31.015,0,0,1-12.146-2.452,31.111,31.111,0,0,1-9.919-6.687,31.113,31.113,0,0,1-6.687-9.92A31.017,31.017,0,0,1-101,8993.6a35.215,35.215,0,0,1,9.139-23.265,32.341,32.341,0,0,1,9.918-7.513A27.723,27.723,0,0,1-69.8,8960c8.214,0,16.694,3.769,23.265,10.34s10.34,15.052,10.34,23.265a27.73,27.73,0,0,1-2.827,12.147,32.311,32.311,0,0,1-7.512,9.919A35.208,35.208,0,0,1-69.8,9024.81Zm.125-61.465c-14.908,0-27.985,14.083-27.985,30.137a28.017,28.017,0,0,0,27.985,27.985c16.054,0,30.137-13.077,30.137-27.985C-39.534,8977.99-54.18,8963.345-69.671,8963.345Z" transform="translate(1112.838 -7528.516)"/><path class="e" d="M29.92,0,41.888,14.99l17.952,6.752L49.285,37.759l-.873,19.163L29.92,51.83,11.429,56.922l-.873-19.163L0,21.742,17.952,14.99Z" transform="matrix(0.951, -0.309, 0.309, 0.951, 1005.404, 1437.279)"/><path class="b" d="M1158.728-7525.333c-2.013-1.351-3.623,4.259-8.649,5.678s-10.659-2.251-11.457,0,7.465,5.962,12.491,4.543S1160.741-7523.982,1158.728-7525.333Z" transform="translate(3917.348 8488.614) rotate(-31)"/><path class="o" d="M-63.674,9011.142l-14.988-11.973,2.388-1.907c6.4,1.55,17.6,5.094,19.854,11.3,3.2,8.8-3,14.792,8.4,9.595,9.377-4.278,21.865-2.327,26-1.5l.279,1.014-19.161.872L-56.921,9029.1Z" transform="translate(1090.785 -7541.213)"/><path class="p" d="M1058.171-7517.825l6.734-20.248,12.827,7.511,6.734-24.82,23.089-6.858,9.62-23.84,18.92-7.185" transform="translate(-97.473 8964.674)"/></g><g transform="translate(0 78.507)"><g transform="translate(1470.086 1570.66) rotate(180)"><path class="a" d="M87-20c48.049,0,107,58.951,107,107s-58.951,97-107,97-97-48.951-97-97S38.951-20,87-20Z" transform="translate(10 31.824)"/><path class="a" d="M404.215-7649.637c4.3,13.768,40.013,20.651,54.641,56.792s17.64-8.175-7.314-32.7S399.912-7663.4,404.215-7649.637Z" transform="translate(-255 7661.824)"/><path class="a" d="M473.406-7556.3c-5.788,2.911-7.438,8.829.906,12.517S479.194-7559.215,473.406-7556.3Z" transform="translate(-336.592 7556.607)"/></g><path class="e" d="M1485.764-7563l25.854-52.07,40.783,26.581Z" transform="translate(-82 8968)"/><path class="b" d="M3.657,6.939,9.524,50.275l65.039-32.75Z" transform="translate(1289.9 1356.07) rotate(47)"/><path class="q" d="M1.2,4.151-10.129,24.518,51.953,47.352Z" transform="translate(1333.165 1340.07) rotate(47)"/><path class="q" d="M1.2,4.151-10.129,24.518,51.953,47.352Z" transform="translate(1307.647 1529.034) rotate(-91)"/><path class="r" d="M-1.179,4.151l-8.95,15.1L38.9,36.182Z" transform="matrix(-0.799, 0.602, -0.602, -0.799, 1460.71, 1417.808)"/><path class="b" d="M31.551,9037.479c-2.127,3.4-13.7,3.024-17.059,3.12-15.025.422-28.7-2.846-56.175-2.846-32.948,0-43.016,3.646-49.451.679S-89,9032.512-89,9027c0-4.331-6.87-4.752-6.87-9.5s6.87-5.171,6.87-9.5-6.87-4.75-6.87-9.5,6.87-5.171,6.87-9.5-6.87-4.75-6.87-9.5,6.87-5.174,6.87-9.5c0-5.514-13.993-15.268,14.179-13.85s57.59-.66,88.091,1.84S23,8964.487,23,8970c0,4.329,6.867,4.748,6.867,9.5S23,8984.672,23,8989s6.867,4.749,6.867,9.5S23,9003.671,23,9008s6.867,4.748,6.867,9.5S23,9022.673,23,9027C23,9032.407,33.678,9034.08,31.551,9037.479ZM-101,9037v0Z" transform="translate(1397.001 -7544)"/><path class="e" d="M-101,9027a10.007,10.007,0,0,1,6.869-9.5A10,10,0,0,1-101,9008a10,10,0,0,1,6.869-9.5A10,10,0,0,1-101,8989a10.007,10.007,0,0,1,6.869-9.5A10,10,0,0,1-101,8970a10,10,0,0,1,10-10,10,10,0,0,1,10,10c0,4.43-6.871,4.749-6.871,9.5S-81,8984.571-81,8989s-6.871,4.749-6.871,9.5S-81,9003.57-81,9008s-6.871,4.749-6.871,9.5S-81,9022.571-81,9027a10,10,0,0,1-10,10A10,10,0,0,1-101,9027Z" transform="translate(1384 -7544)"/><path class="o" d="M-91,9037a10.01,10.01,0,0,1-10-10,9.986,9.986,0,0,1,6.87-9.5A9.98,9.98,0,0,1-101,9008a9.985,9.985,0,0,1,6.87-9.5A9.98,9.98,0,0,1-101,8989a9.981,9.981,0,0,1,6.87-9.5A9.986,9.986,0,0,1-101,8970a10.01,10.01,0,0,1,10-10,10.121,10.121,0,0,1,1.5.112A10.054,10.054,0,0,0-98,8970a9.987,9.987,0,0,0,6.87,9.5A9.98,9.98,0,0,0-98,8989a9.978,9.978,0,0,0,6.87,9.5A9.986,9.986,0,0,0-98,9008a9.978,9.978,0,0,0,6.87,9.5A9.987,9.987,0,0,0-98,9027a10.057,10.057,0,0,0,8.5,9.888A10.166,10.166,0,0,1-91,9037Z" transform="translate(1384 -7544)"/><path class="f" d="M-29.184,8981.059c-1.1-1.8,2.585-6.345,4.073-7.912.3-.317.9-1.111,1.693-2.157-1.1-1.44-1.932-2.571-2.308-2.969-1.488-1.566-5.169-6.11-4.073-7.912.487-.8,4.754,2.922,9.032,7.446,3.183-3.983,7.227-8.41,9.366-7.412,1.657.773-1.925,5.832-6.3,10.793,4.089,4.727,7.265,9.354,5.687,10.09a1.575,1.575,0,0,1-.674.142c-2.1,0-5.363-3.462-8.126-6.854-3.653,3.793-7.154,6.855-8.14,6.855A.245.245,0,0,1-29.184,8981.059Zm-21,0c-1.1-1.8,2.583-6.345,4.073-7.912.3-.317.9-1.111,1.693-2.157-1.1-1.44-1.932-2.571-2.308-2.969-1.488-1.566-5.169-6.11-4.073-7.912.487-.8,4.754,2.922,9.032,7.446,3.183-3.983,7.225-8.41,9.366-7.412,1.655.773-1.925,5.832-6.3,10.793,4.089,4.727,7.265,9.354,5.687,10.09a1.575,1.575,0,0,1-.674.142c-2.1,0-5.363-3.462-8.128-6.854-3.651,3.793-7.151,6.855-8.137,6.855A.245.245,0,0,1-50.184,8981.059Zm-29,0c-1.1-1.8,2.585-6.345,4.075-7.912.3-.317.9-1.111,1.693-2.157-1.1-1.44-1.932-2.571-2.308-2.969-1.488-1.566-5.169-6.11-4.073-7.912.487-.8,4.754,2.922,9.032,7.446,3.181-3.983,7.225-8.41,9.364-7.412,1.657.773-1.925,5.832-6.3,10.793,4.091,4.727,7.267,9.354,5.689,10.09a1.578,1.578,0,0,1-.676.142c-2.1,0-5.363-3.462-8.126-6.854-3.653,3.793-7.154,6.855-8.14,6.855A.245.245,0,0,1-79.186,8981.059Zm-21,0c-1.1-1.8,2.585-6.345,4.073-7.912.3-.317.9-1.111,1.693-2.157-1.1-1.44-1.93-2.571-2.306-2.969-1.49-1.566-5.171-6.11-4.073-7.912.487-.8,4.754,2.922,9.032,7.446,3.181-3.983,7.225-8.41,9.364-7.412,1.657.773-1.925,5.832-6.3,10.793,4.089,4.727,7.267,9.354,5.689,10.09a1.593,1.593,0,0,1-.676.142c-2.1,0-5.363-3.462-8.126-6.854-3.653,3.793-7.154,6.855-8.14,6.855A.245.245,0,0,1-100.185,8981.059Zm39.2-10.475c.144-2.11,7.68-1.95,10.869,0,1.625.993-1.27,1.521-4.479,1.521C-57.683,8972.105-61.059,8971.617-60.988,8970.584Z" transform="translate(1420.978 -7509.533)"/><path class="e" d="M628.18,100.74c-5.78-.02-8.53,2.73-8.53,8.53.01,5.33,3.45,8.91,8.55,8.88a9.044,9.044,0,0,0,8.86-8.79C637.1,104.42,633.32,100.75,628.18,100.74Zm-.2,13.72c-2.63-.9-5.11-2-4.89-5.25.22-3.19,2.25-5.14,5.43-5.01,3.12.12,4.69,2.56,4.64,5.33C633.1,112.48,630.9,114.02,627.98,114.46Z" transform="translate(791.396 1425.96)"/><path class="b" d="M461.16,259.39c.12-10.77-.17-11.72-9.03-5.61-.14.09-.31.14-.45.22-8.91,5.25-8.94,5.3-.06,10.46,2.77,1.6,6.03,4.87,8.67,3.34C462.9,266.29,460.73,261.91,461.16,259.39Zm-3.62,2.92c-2.144,1.482-3.642-.808-5.743-1.937a1.347,1.347,0,0,1-.355-2.134c1.85-1.887,3.628-3.121,5.558-2.239C458.85,256.83,458.76,261.47,457.54,262.31Z" transform="translate(929.818 1260.676)"/><path class="g" d="M461.16,259.39c.12-10.77-.17-11.72-9.03-5.61-.14.09-.31.14-.45.22-8.91,5.25-8.94,5.3-.06,10.46,2.77,1.6,6.03,4.87,8.67,3.34C462.9,266.29,460.73,261.91,461.16,259.39Zm-3.62,2.92c-2.144,1.482-3.642-.808-5.743-1.937a1.347,1.347,0,0,1-.355-2.134c1.85-1.887,3.628-3.121,5.558-2.239C458.85,256.83,458.76,261.47,457.54,262.31Z" transform="matrix(0.017, 1, -1, 0.017, 1616.716, 915.981)"/><text class="s" transform="translate(1362 1441)"><tspan x="-36.84" y="0">ПРОМО</tspan></text></g></g></svg>