<svg xmlns="http://www.w3.org/2000/svg" xmlns:xlink="http://www.w3.org/1999/xlink" width="180" height="80" viewBox="0 0 180 80">
  <defs>
    <filter id="Polygon_1" x="27.52" y="26.606" width="25.96" height="25.097" filterUnits="userSpaceOnUse">
      <feOffset dx="1" dy="1" input="SourceAlpha"/>
      <feGaussianBlur result="blur"/>
      <feFlood flood-color="#215d21"/>
      <feComposite operator="in" in2="blur"/>
      <feComposite in="SourceGraphic"/>
    </filter>
  </defs>
  <g id="Group_59" data-name="Group 59" transform="translate(-1669 -31)">
    <g id="Rectangle_95" data-name="Rectangle 95" transform="translate(1679 41)" fill="#5fbe5f" stroke="#86df86" stroke-width="10">
      <rect width="160" height="60" rx="30" stroke="none"/>
      <rect x="-5" y="-5" width="170" height="70" rx="35" fill="none"/>
    </g>
    <rect id="Rectangle_100" data-name="Rectangle 100" width="36" height="36" rx="18" transform="translate(1691 53)" fill="#448b44"/>
    <g transform="matrix(1, 0, 0, 1, 1669, 31)" filter="url(#Polygon_1)">
      <g id="Polygon_1-2" data-name="Polygon 1" transform="translate(29 28)" fill="#ffd500" stroke-linecap="round" stroke-linejoin="round">
        <path d="M 16.85795974731445 21.70274925231934 C 16.67814064025879 21.70276832580566 16.49836921691895 21.67828941345215 16.32362937927246 21.63001823425293 L 11 20.1591682434082 L 5.676360130310059 21.63001823425293 C 5.501669883728027 21.67827796936035 5.321929931640625 21.70274925231934 5.142119884490967 21.70274925231934 C 4.071300029754639 21.70274925231934 3.194410085678101 20.86385917663574 3.145800113677979 19.79293823242188 L 2.894129991531372 14.24974822998047 L -0.1504600048065186 9.613858222961426 C -0.4855700135231018 9.103598594665527 -0.5694900155067444 8.477998733520508 -0.3807100057601929 7.897468566894531 C -0.1919299960136414 7.316948413848877 0.2439000010490417 6.860368728637695 0.8150200247764587 6.644808769226074 L 5.989049911499023 4.691948413848877 L 9.434929847717285 0.3609285950660706 C 9.816579818725586 -0.1187513992190361 10.38702011108398 -0.3938513994216919 11 -0.3938513994216919 C 11.61297988891602 -0.3938513994216919 12.18342018127441 -0.118741400539875 12.56507015228271 0.3609386086463928 L 16.01095008850098 4.691948413848877 L 21.18498039245605 6.644808769226074 C 21.75609970092773 6.860368728637695 22.19193077087402 7.316948413848877 22.38071060180664 7.897468566894531 C 22.56949043273926 8.477998733520508 22.48557090759277 9.103598594665527 22.15045928955078 9.613858222961426 L 19.10586929321289 14.24974822998047 L 18.85420036315918 19.79294776916504 C 18.80558013916016 20.86378860473633 17.92873001098633 21.70266914367676 16.85795974731445 21.70274925231934 Z" stroke="none"/>
        <path d="M 10.99999904632568 0.6061458587646484 C 10.70882034301758 0.6061458587646484 10.41763973236084 0.7319431304931641 10.2174596786499 0.9835376739501953 L 6.771579742431641 5.314558029174805 C 6.659279823303223 5.45569896697998 6.510910034179688 5.563838958740234 6.342160224914551 5.627528190612793 L 1.168130874633789 7.580389022827148 C 0.5690097808837891 7.8065185546875 0.3338699340820312 8.529648780822754 0.6854000091552734 9.064918518066406 L 3.729990005493164 13.70080852508545 C 3.828609466552734 13.8509693145752 3.884950637817383 14.02492904663086 3.893100738525391 14.20439910888672 L 4.144769668579102 19.74759864807129 C 4.173891067504883 20.38894844055176 4.791215896606445 20.83709716796875 5.410049438476562 20.66612815856934 L 10.73369026184082 19.19527816772461 C 10.9079704284668 19.14712905883789 11.0920295715332 19.14712905883789 11.26630973815918 19.19527816772461 L 16.58995056152344 20.66612815856934 C 17.20877838134766 20.83710861206055 17.82611083984375 20.38894844055176 17.8552303314209 19.74759864807129 L 18.10689926147461 14.20439910888672 C 18.11504936218262 14.02492904663086 18.17139053344727 13.8509693145752 18.27000999450684 13.70080852508545 L 21.31459999084473 9.064918518066406 C 21.66613006591797 8.529648780822754 21.43099021911621 7.8065185546875 20.83185958862305 7.580389022827148 L 15.65783023834229 5.627528190612793 C 15.48908996582031 5.563838958740234 15.3407096862793 5.45569896697998 15.22842025756836 5.314558029174805 L 11.78252983093262 0.9835376739501953 C 11.58235454559326 0.7319431304931641 11.29117774963379 0.6061458587646484 10.99999904632568 0.6061458587646484 M 11 -1.393852233886719 C 11.91946983337402 -1.393852233886719 12.77513027191162 -0.9811916351318359 13.34759998321533 -0.2616710662841797 L 16.62191390991211 3.853689193725586 L 21.53809928894043 5.709228515625 C 22.39477920532227 6.03256893157959 23.04851913452148 6.717438697814941 23.33168983459473 7.588228225708008 C 23.61486053466797 8.459018707275391 23.48897933959961 9.397408485412598 22.98632049560547 10.16279888153076 L 20.09239196777344 14.5692892074585 L 19.85317039489746 19.83830833435059 C 19.78022956848145 21.44454956054688 18.46455001831055 22.70274925231934 16.85789108276367 22.70274925231934 C 16.58806037902832 22.70274925231934 16.31869888305664 22.66611862182617 16.05727958679199 22.5938892364502 L 10.99999141693115 21.19663429260254 L 5.942670822143555 22.59390830993652 C 5.681320190429688 22.66611862182617 5.411949157714844 22.70274925231934 5.142120361328125 22.70274925231934 C 3.535449981689453 22.70274925231934 2.219760894775391 21.44453811645508 2.146829605102539 19.83831787109375 L 1.907608032226562 14.56929111480713 L -0.9863204956054688 10.16280841827393 C -1.488979339599609 9.397418975830078 -1.614860534667969 8.459018707275391 -1.331689834594727 7.588228225708008 C -1.048530578613281 6.717438697814941 -0.3947906494140625 6.032578468322754 0.4618892669677734 5.70923900604248 L 5.378101348876953 3.853679656982422 L 8.652389526367188 -0.2616710662841797 C 9.224860191345215 -0.9811916351318359 10.08053016662598 -1.393852233886719 11 -1.393852233886719 Z" stroke="none" fill="#fff4b9"/>
      </g>
    </g>
  </g>
</svg>
