<svg xmlns="http://www.w3.org/2000/svg" xmlns:xlink="http://www.w3.org/1999/xlink" width="118.585" height="125.12" viewBox="0 0 118.585 125.12"><defs><style>.a{stroke:#fdfdff;stroke-width:2px;fill:url(#a);}.b,.c{fill:#fcffb1;}.b{opacity:0.5;}.d,.f{fill:#fff;}.e{fill:#f90;}.g{fill:#0f426d;}.h,.i,.j{stroke:none;}.i{fill:#f80;}.j{fill:#fff;}.k{filter:url(#d);}.l{filter:url(#b);}</style><linearGradient id="a" x1="0.5" x2="0.5" y2="1" gradientUnits="objectBoundingBox"><stop offset="0" stop-color="#fd0"/><stop offset="1" stop-color="#ffba00"/></linearGradient><filter id="b" x="19.765" y="0" width="75.047" height="80.527" filterUnits="userSpaceOnUse"><feOffset dx="2" dy="2" input="SourceAlpha"/><feGaussianBlur result="c"/><feFlood flood-color="#0f426d" flood-opacity="0.149"/><feComposite operator="in" in2="c"/><feComposite in="SourceGraphic"/></filter><filter id="d" x="0" y="93.724" width="118.585" height="31.396" filterUnits="userSpaceOnUse"><feOffset dx="3" dy="3" input="SourceAlpha"/><feGaussianBlur result="e"/><feFlood flood-opacity="0.161"/><feComposite operator="in" in2="e"/><feComposite in="SourceGraphic"/></filter></defs><g transform="translate(-350.229 -1081.969)"><g transform="translate(371 1083)"><g class="l" transform="matrix(1, 0, 0, 1, -20.77, -1.03)"><path class="a" d="M-595.994,123.424s2.178-26.135,28.313-29.4,44.647,23.957,42.469,39.2-17.423,37.024-39.2,37.024S-597.083,136.723-595.994,123.424Z" transform="translate(616.84 -92.72)"/></g><path class="b" d="M-3355.13-6939.682c-19.027-4.157,0,16,10.207,17.264s16.507,20.792,8.568,22.3-16.254,27.343-8.568,25.326,16.507-17.261,17.263-27.847S-3336.1-6935.523-3355.13-6939.682Z" transform="translate(3396.999 6941.551)"/><path class="c" d="M6.343.281C6.343-1.3.56,3.961.029,12.291S6.343,1.866,6.343.281Z" transform="matrix(-0.259, 0.966, -0.966, -0.259, 55.953, 10.484)"/><path class="d" d="M3867.554,8988.793s1.636-19.605,19.054-26.977l.3.053s-27.7,30.879-4.279,54.941,38.759,5.324,47.277-6.389,7.665-17.674,7.665-17.674l.908,2.16a18.922,18.922,0,0,1-.143,3.688c-2.176,15.242-17.422,37.021-39.2,37.021S3866.465,9002.092,3867.554,8988.793Z" transform="translate(-3867.479 -8959.122)"/><path class="e" d="M3867.55,8986.477s1.564-17.923,18.214-24.658l.286.047s-26.482,28.227-4.09,50.221,37.05,4.868,45.192-5.842,7.328-16.152,7.328-16.152l.868,1.973a16.613,16.613,0,0,1-.136,3.371c-2.081,13.934-16.655,33.841-37.473,33.841S3866.51,8998.631,3867.55,8986.477Z" transform="translate(-3865.996 -8957.642)"/><path class="c" d="M-3374.454-6933.065c0-1.778-6.252,4.131-6.825,13.479S-3374.454-6931.286-3374.454-6933.065Z" transform="translate(3386.785 6947.834)"/><path class="b" d="M.429,13.989C-1.951,10.335,5.582.254,22.634,0s5.948,18.523,5.948,18.523S2.809,17.644.429,13.989Z" transform="translate(15.264 41.339) rotate(47)"/></g><g class="f" transform="matrix(0.848, 0.53, -0.53, 0.848, 1618.421, -7425.114)"><path class="h" d="M 3506.214599609375 7905.34228515625 C 3506.0380859375 7905.34228515625 3505.86181640625 7905.33447265625 3505.69091796875 7905.31884765625 C 3503.946533203125 7905.16552734375 3502.405029296875 7904.06103515625 3500.62744140625 7902.4501953125 C 3500.016357421875 7901.8974609375 3495.881103515625 7897.328125 3492.799560546875 7892.8828125 C 3491.794677734375 7891.4326171875 3490.883056640625 7890.00439453125 3490.104736328125 7888.7265625 C 3489.573486328125 7889.93310546875 3488.8564453125 7891.27099609375 3487.829345703125 7892.7197265625 C 3487.501708984375 7893.18115234375 3486.50634765625 7894.58447265625 3484.937255859375 7894.5849609375 C 3484.353759765625 7894.5849609375 3482.9228515625 7894.36572265625 3482.244384765625 7892.333984375 C 3481.45556640625 7889.97265625 3481.812744140625 7885.5087890625 3482.3583984375 7882.404296875 C 3482.713623046875 7880.3818359375 3483.20556640625 7878.51953125 3483.781005859375 7877.0185546875 C 3484.531005859375 7875.06201171875 3485.403564453125 7873.72900390625 3486.447998046875 7872.94384765625 C 3487.708984375 7871.99462890625 3489.5595703125 7871.51318359375 3491.947509765625 7871.51318359375 C 3494.4794921875 7871.51318359375 3497.635498046875 7872.06494140625 3500.6064453125 7873.0263671875 C 3502.406982421875 7873.609375 3505.622802734375 7874.833984375 3506.927001953125 7876.4892578125 C 3507.74755859375 7877.5302734375 3507.673583984375 7878.50244140625 3507.556640625 7878.98876953125 C 3507.395263671875 7879.6572265625 3506.919677734375 7880.583984375 3505.568359375 7881.2138671875 C 3504.945556640625 7881.50439453125 3504.1572265625 7881.72412109375 3503.158203125 7881.88671875 C 3501.990234375 7882.07666015625 3500.638427734375 7882.1728515625 3499.2587890625 7882.24169921875 C 3500.137451171875 7883.390625 3501.045166015625 7884.60009765625 3501.9365234375 7885.81103515625 C 3504.1435546875 7888.81005859375 3506.150390625 7891.6767578125 3507.58740234375 7893.88330078125 C 3510.0869140625 7897.71826171875 3510.685791015625 7899.22216796875 3510.83984375 7900.40234375 C 3510.981201171875 7901.47021484375 3510.76220703125 7902.4892578125 3510.20703125 7903.34912109375 C 3509.7158203125 7904.10986328125 3508.98095703125 7904.6982421875 3508.137451171875 7905.00537109375 C 3507.526611328125 7905.22900390625 3506.879150390625 7905.34228515625 3506.214599609375 7905.34228515625 Z"/><path class="i" d="M 3506.214599609375 7903.34228515625 C 3506.646240234375 7903.34228515625 3507.0625 7903.26904296875 3507.45263671875 7903.12646484375 C 3508.27392578125 7902.8271484375 3509.027587890625 7901.9482421875 3508.85693359375 7900.6630859375 C 3508.7578125 7899.9013671875 3508.331298828125 7898.6875 3505.91162109375 7894.974609375 C 3504.4814453125 7892.77880859375 3502.498046875 7889.9482421875 3500.325927734375 7886.99658203125 C 3498.590087890625 7884.638671875 3496.802490234375 7882.30029296875 3495.303466796875 7880.4228515625 C 3499.427734375 7880.173828125 3505.182373046875 7880.30078125 3505.612060546875 7878.521484375 C 3506.197509765625 7876.08740234375 3491.762451171875 7871.44775390625 3487.649658203125 7874.54248046875 C 3483.53564453125 7877.634765625 3482.179443359375 7897.228515625 3486.19775390625 7891.56298828125 C 3488.443359375 7888.3955078125 3489.06640625 7885.81201171875 3489.65576171875 7883.9501953125 C 3490.83740234375 7886.1181640625 3492.524658203125 7888.97509765625 3494.443115234375 7891.7431640625 C 3497.509521484375 7896.16650390625 3501.57373046875 7900.609375 3501.970458984375 7900.96826171875 C 3503.7216796875 7902.55517578125 3504.850341796875 7903.23779296875 3505.867919921875 7903.32666015625 C 3505.984375 7903.33740234375 3506.10009765625 7903.34228515625 3506.214599609375 7903.34228515625 M 3506.214599609375 7907.34228515625 C 3505.978271484375 7907.34228515625 3505.741455078125 7907.33154296875 3505.5107421875 7907.310546875 C 3503.0771484375 7907.0947265625 3501.080078125 7905.5595703125 3499.284423828125 7903.93212890625 C 3498.61865234375 7903.330078125 3494.38037109375 7898.673828125 3491.15576171875 7894.02197265625 C 3490.845947265625 7893.5751953125 3490.544921875 7893.1298828125 3490.253662109375 7892.69091796875 C 3490.009521484375 7893.07861328125 3489.74609375 7893.47412109375 3489.4609375 7893.87646484375 C 3488.185791015625 7895.673828125 3486.6640625 7896.58447265625 3484.9375 7896.5849609375 C 3483.605224609375 7896.5849609375 3482.374755859375 7896.01904296875 3481.47314453125 7894.99072265625 C 3480.984130859375 7894.43310546875 3480.615966796875 7893.771484375 3480.347412109375 7892.9677734375 C 3479.20703125 7889.552734375 3480.090576171875 7883.75390625 3480.388427734375 7882.05810546875 C 3480.765625 7879.91162109375 3481.29296875 7877.92138671875 3481.913330078125 7876.302734375 C 3482.80224609375 7873.984375 3483.892333984375 7872.36279296875 3485.24609375 7871.34521484375 C 3486.860595703125 7870.1298828125 3489.115966796875 7869.51318359375 3491.947509765625 7869.51318359375 C 3494.68017578125 7869.51318359375 3498.060791015625 7870.10009765625 3501.22216796875 7871.12353515625 C 3504.8056640625 7872.28369140625 3507.25341796875 7873.67236328125 3508.497802734375 7875.2509765625 C 3509.4931640625 7876.51416015625 3509.849609375 7878.0078125 3509.501220703125 7879.45654296875 C 3509.2841796875 7880.35595703125 3508.595458984375 7882.009765625 3506.413330078125 7883.02685546875 C 3505.621826171875 7883.3955078125 3504.662109375 7883.66845703125 3503.479248046875 7883.86083984375 C 3503.332275390625 7883.884765625 3503.18310546875 7883.9072265625 3503.0322265625 7883.92822265625 C 3503.204345703125 7884.16015625 3503.3759765625 7884.392578125 3503.547119140625 7884.625 C 3505.7763671875 7887.654296875 3507.80615234375 7890.55419921875 3509.263427734375 7892.79150390625 C 3511.97900390625 7896.95849609375 3512.62646484375 7898.6435546875 3512.822509765625 7900.1396484375 C 3513.21533203125 7903.109375 3511.57080078125 7905.8828125 3508.822265625 7906.884765625 C 3507.99267578125 7907.18798828125 3507.114013671875 7907.34228515625 3506.214599609375 7907.34228515625 Z"/></g><g class="k" transform="matrix(1, 0, 0, 1, 350.23, 1081.97)"><g class="g" transform="translate(56.77 118.03)"><path class="h" d="M 53.1011848449707 2.088533878326416 C 52.92421340942383 2.088533878326416 52.74347686767578 2.076056957244873 52.56401443481445 2.051410675048828 C 51.57946014404297 1.916303038597107 50.73162841796875 1.435626029968262 50.11224365234375 0.6613645553588867 L 50.0993537902832 0.6452414989471436 L 50.08678436279297 0.6288568377494812 L 46.46853256225586 -4.090603351593018 L 42.55190658569336 0.6809183955192566 L 42.54393768310547 0.6906260848045349 L 42.53584671020508 0.7002260684967041 C 41.9080924987793 1.44571840763092 41.05170822143555 1.90030300617218 40.05924606323242 2.014810800552368 L 40.02140045166016 2.019179821014404 L 39.98341369628906 2.022103071212769 C 39.87890625 2.030149221420288 39.77355194091797 2.034226179122925 39.6702766418457 2.034226179122925 C 38.79881286621094 2.034226179122925 37.97663116455078 1.744964599609375 37.29259872436523 1.197718381881714 C 36.49529266357422 0.5599030256271362 36.02116775512695 -0.3144816160202026 35.92153930664063 -1.330881595611572 C 35.82221221923828 -2.344138145446777 36.1197509765625 -3.294712066650391 36.78211975097656 -4.081110000610352 L 41.82904052734375 -10.20283889770508 C 41.05239868164063 -11.25809478759766 40.31385803222656 -12.27485466003418 39.61635208129883 -13.24903964996338 C 39.59571075439453 -12.49323844909668 39.45174407958984 -11.72900009155273 39.18476867675781 -10.9622974395752 C 38.68862915039063 -9.537481307983398 37.75347518920898 -8.305481910705566 36.40530776977539 -7.300497055053711 C 34.80824661254883 -6.108650684356689 32.6441535949707 -5.50400447845459 29.9739990234375 -5.50400447845459 C 29.47757339477539 -5.50400447845459 28.91915321350098 -5.525909900665283 28.30599975585938 -5.56931209564209 L 28.30599975585938 -1.712707877159119 C 28.33412742614746 -0.7009385824203491 27.96275520324707 0.2197000086307526 27.23018455505371 0.9522414803504944 C 26.5186767578125 1.663749217987061 25.61716842651367 2.050149202346802 24.6231689453125 2.069610595703125 C 24.59759902954102 2.070118427276611 24.57198333740234 2.070364475250244 24.54653739929199 2.070364475250244 C 23.55306053161621 2.070364475250244 22.65096855163574 1.693395376205444 21.93778419494629 0.9802107214927673 C 21.58943176269531 0.6318724155426025 21.32026863098145 0.2374208569526672 21.13499450683594 -0.1918330937623978 C 20.95260810852051 0.2226759642362595 20.69157981872559 0.6028386950492859 20.35621452331543 0.9382107257843018 C 19.64326095581055 1.651149153709412 18.72822952270508 2.027995347976685 17.70999908447266 2.027995347976685 C 14.76424980163574 2.027995347976685 10.93168926239014 1.980864286422729 6.31803035736084 1.887924790382385 C 5.298888683319092 1.881952166557312 4.385995388031006 1.493868231773376 3.676537752151489 0.7646875977516174 C 2.964591026306152 0.03298990800976753 2.604634523391724 -0.8925236463546753 2.634172201156616 -1.914100289344788 C 2.635692119598389 -2.081701040267944 2.647239208221436 -2.247330904006958 2.668676853179932 -2.409839868545532 C 2.593836784362793 -3.040844917297363 2.524578809738159 -3.676165342330933 2.460840702056885 -4.316266059875488 C 2.160907030105591 -3.232927322387695 1.628086090087891 -2.230576276779175 0.8737839460372925 -1.332066178321838 C 0.06521471589803696 -0.3689123690128326 -0.921708345413208 0.407918393611908 -2.059569835662842 0.9768568277359009 L -2.097339153289795 0.9957337975502014 L -2.135862112045288 1.013010740280151 C -2.78617000579834 1.304533720016479 -3.486985206604004 1.542302966117859 -4.218831539154053 1.719702959060669 C -4.960893154144287 1.899610757827759 -5.771862030029297 2.007549047470093 -6.629138946533203 2.040518283843994 C -7.198108196258545 2.062395334243774 -7.703523635864258 2.073503017425537 -8.131339073181152 2.073503017425537 C -8.27849292755127 2.073503017425537 -8.419770240783691 2.072195291519165 -8.551231384277344 2.069610595703125 C -9.052862167358398 2.05977988243103 -9.702908515930176 2.030380010604858 -10.48324680328369 1.982195258140564 C -11.33538722991943 1.92959988117218 -11.68994426727295 1.902464747428894 -11.86801147460938 1.885795474052429 C -12.2138500213623 1.873296976089478 -12.55063629150391 1.807563304901123 -12.87421226501465 1.689575433731079 C -13.61762237548828 1.548442006111145 -14.28933906555176 1.183743953704834 -14.83376979827881 0.6223183870315552 C -14.87649250030518 0.5782601833343506 -14.91792583465576 0.5334768891334534 -14.95803833007813 0.4880175888538361 C -15.34852027893066 1.018648386001587 -15.85655689239502 1.430342316627502 -16.46013832092285 1.700026035308838 C -16.94212341308594 1.915379881858826 -17.44466209411621 2.024580001831055 -17.9537239074707 2.024580001831055 C -18.43446159362793 2.024580001831055 -18.91273880004883 1.926856875419617 -19.3752613067627 1.734133720397949 C -20.2996997833252 1.348970532417297 -20.99632453918457 0.6685277819633484 -21.39004135131836 -0.2337459474802017 L -21.39004707336426 -0.2337431460618973 L -22.70916938781738 -3.246068239212036 C -22.76908111572266 -3.243172645568848 -22.82839393615723 -3.24044942855835 -22.88715362548828 -3.237896919250488 L -22.90280151367188 -3.237204790115356 L -22.9184627532959 -3.23677396774292 L -23.8778018951416 -3.210125684738159 C -24.11204147338867 -3.192288637161255 -24.3658390045166 -3.174240589141846 -24.63300132751465 -3.156435489654541 C -24.99286270141602 -3.13243556022644 -25.08270835876465 -3.123143196105957 -25.09175491333008 -3.122174024581909 C -25.25429344177246 -3.10409688949585 -25.4562931060791 -3.096004724502563 -25.74600028991699 -3.096004724502563 L -26.09700584411621 -3.096004724502563 C -26.11904907226563 -3.095462322235107 -26.19678688049316 -3.093163251876831 -26.43615531921387 -3.083604574203491 C -26.58066177368164 -3.077820062637329 -26.70300102233887 -3.075004577636719 -26.81000137329102 -3.075004577636719 C -26.95010948181152 -3.075004577636719 -27.06725883483887 -3.079881429672241 -27.17489624023438 -3.090293407440186 C -27.19058036804199 -3.090975761413574 -27.22280883789063 -3.092116117477417 -27.28093910217285 -3.093199014663696 C -27.66789054870605 -2.196983337402344 -28.01223182678223 -1.31619393825531 -28.30900001525879 -0.4629585146903992 L -28.31690788269043 -0.4402662217617035 L -28.32533836364746 -0.4177585244178772 C -28.67529296875 0.5154260993003845 -29.33429336547852 1.235395312309265 -30.23113822937012 1.664287567138672 C -30.74366188049316 1.909426093101501 -31.28293991088867 2.03373384475708 -31.83389282226563 2.033749103546143 C -32.25070953369141 2.033749103546143 -32.66981506347656 1.961672186851501 -33.07957077026367 1.819502949714661 C -33.83266830444336 1.558220505714417 -34.44943618774414 1.098644614219666 -34.8917121887207 0.4747759997844696 C -35.01432418823242 0.6474373340606689 -35.15316009521484 0.811591625213623 -35.30781555175781 0.9662414789199829 C -36.0207405090332 1.679149150848389 -36.93576812744141 2.055995225906372 -37.95398712158203 2.055995225906372 C -38.97218704223633 2.055995225906372 -39.88722991943359 1.679164528846741 -40.60018539428711 0.9662414789199829 C -41.31318664550781 0.2532414793968201 -41.69001770019531 -0.6618200540542603 -41.68998718261719 -1.680066227912903 C -41.68998718261719 -3.368059396743774 -41.68023300170898 -5.082694530487061 -41.66093063354492 -6.799586296081543 C -42.41849899291992 -6.804269313812256 -43.29520416259766 -6.811110973358154 -44.28610992431641 -6.82008171081543 C -45.24678039550781 -6.828772068023682 -46.09857177734375 -6.83545446395874 -46.83705902099609 -6.840099811553955 C -46.77046966552734 -4.81754732131958 -46.70884704589844 -3.164216279983521 -46.65315246582031 -1.907490372657776 C -46.58367156982422 -0.8781183362007141 -46.91508865356445 0.06534150242805481 -47.61293792724609 0.8229799270629883 C -48.29203033447266 1.560302972793579 -49.18207931518555 1.980702996253967 -50.18681716918945 2.038672208786011 C -50.26312255859375 2.04307222366333 -50.34015274047852 2.045318365097046 -50.41572189331055 2.045318365097046 C -51.35581588745117 2.045318365097046 -52.22072219848633 1.70634913444519 -52.91695404052734 1.065087676048279 C -53.65984344482422 0.3808473646640778 -54.07542037963867 -0.5146187543869019 -54.1196403503418 -1.525661826133728 C -54.21212768554688 -3.159974813461304 -54.31473541259766 -5.973632335662842 -54.42467498779297 -9.890005111694336 C -54.46540451049805 -10.12960433959961 -54.48600006103516 -10.37160778045654 -54.48600006103516 -10.61200428009033 C -54.48600006103516 -10.7853422164917 -54.47775650024414 -10.95538902282715 -54.4614372253418 -11.11977672576904 C -54.55233383178711 -14.19503879547119 -54.65303421020508 -16.54712104797363 -54.76088333129883 -18.11290550231934 C -54.83667373657227 -19.13198471069336 -54.52305221557617 -20.07628440856934 -53.85356903076172 -20.84425163269043 C -53.1805534362793 -21.61622047424316 -52.28275299072266 -22.05551147460938 -51.2572021484375 -22.11468124389648 C -51.17984771728516 -22.11914253234863 -51.10176849365234 -22.12140464782715 -51.02515411376953 -22.12140464782715 C -50.10614013671875 -22.12140464782715 -49.25153732299805 -21.79988098144531 -48.55375289916992 -21.19157409667969 C -47.78178405761719 -20.51855659484863 -47.34800338745117 -19.62363624572754 -47.29743194580078 -18.60128402709961 C -47.21381759643555 -17.50663948059082 -47.13478851318359 -16.07885360717773 -47.06150436401367 -14.34114074707031 C -46.26579666137695 -14.33645153045654 -45.33140182495117 -14.32936859130859 -44.26430892944336 -14.31992816925049 C -43.19265365600586 -14.31044101715088 -42.25137329101563 -14.30334758758545 -41.44636154174805 -14.29868412017822 C -41.38174438476563 -15.81203842163086 -41.30303955078125 -17.29507064819336 -41.21125793457031 -18.72687149047852 C -41.16408920288086 -19.75530052185059 -40.72986602783203 -20.6553783416748 -39.95427703857422 -21.33154296875 C -39.25646209716797 -21.93988227844238 -38.40184783935547 -22.26140403747559 -37.4827995300293 -22.26140403747559 C -37.40621566772461 -22.26140403747559 -37.32818603515625 -22.2591438293457 -37.25086212158203 -22.25468254089355 C -36.22521591186523 -22.19551277160645 -35.32740020751953 -21.75620460510254 -34.6544303894043 -20.98425102233887 C -33.98665618896484 -20.21827507019043 -33.67290496826172 -19.27691650390625 -33.74653244018555 -18.26079940795898 C -33.98424911499023 -14.38369178771973 -34.1329345703125 -10.23125648498535 -34.19061660766602 -5.872332096099854 C -34.09342956542969 -6.107243537902832 -33.99444198608398 -6.346344947814941 -33.89372253417969 -6.589466094970703 L -33.89193725585938 -6.59377384185791 L -33.8901252746582 -6.598081588745117 L -31.98612403869629 -11.13408184051514 L -30.41933822631836 -14.88318920135498 L -30.41584777832031 -14.89152812957764 L -30.41229248046875 -14.89985084533691 C -30.25736999511719 -15.26131248474121 -30.0384464263916 -15.82046604156494 -29.76160049438477 -16.56174278259277 C -29.41321563720703 -17.49446678161621 -29.28532409667969 -17.85457420349121 -29.2393856048584 -17.9924201965332 L -29.22244644165039 -18.04322052001953 L -29.20281600952148 -18.0930347442627 C -28.93035507202148 -18.78469657897949 -28.6983699798584 -19.30895805358887 -28.49358558654785 -19.69577407836914 L -28.49213981628418 -19.6984977722168 L -28.49069213867188 -19.70120429992676 C -28.26203727722168 -20.12991333007813 -28.01126861572266 -20.48479080200195 -27.72586631774902 -20.78318023681641 C -26.74263954162598 -21.90993118286133 -25.60926628112793 -22.14880561828613 -24.82533836364746 -22.14880561828613 C -24.55464744567871 -22.14880561828613 -24.27700042724609 -22.12000465393066 -24.0001392364502 -22.0632209777832 L -23.99503135681152 -22.06217384338379 L -23.98993873596191 -22.06109619140625 C -23.27515411376953 -21.91060447692871 -22.63437080383301 -21.57449722290039 -22.08538436889648 -21.06214332580566 L -22.0601692199707 -21.03860473632813 L -22.03578567504883 -21.01421928405762 C -21.82426643371582 -20.80270195007324 -21.63144683837891 -20.56048202514648 -21.46233367919922 -20.29393577575684 C -21.31079483032227 -20.06408500671387 -21.15868377685547 -19.7961540222168 -20.99813842773438 -19.47639656066895 C -20.77827835083008 -19.05617141723633 -20.54099464416504 -18.52088737487793 -20.27318572998047 -17.84103584289551 L -20.26852416992188 -17.82920455932617 L -20.26399993896484 -17.81731224060059 L -19.34000015258789 -15.38131237030029 L -19.33603096008301 -15.37085056304932 L -19.33218574523926 -15.36034297943115 C -18.01566886901855 -11.76879119873047 -16.89226531982422 -8.830872535705566 -15.97326850891113 -6.575090408325195 C -16.04097938537598 -10.31802749633789 -16.03598976135254 -14.1529369354248 -15.95793151855469 -18.0272216796875 C -15.9528636932373 -18.88845825195313 -15.66611576080322 -19.690673828125 -15.12790870666504 -20.34848213195801 C -14.60609531402588 -20.98625755310059 -13.91852855682373 -21.41594886779785 -13.13441848754883 -21.59567451477051 C -12.99208164215088 -21.63430023193359 -12.84746837615967 -21.66034889221191 -12.7016773223877 -21.67364311218262 L -12.00089359283447 -21.79043960571289 C -11.25843620300293 -21.94355583190918 -10.98715400695801 -21.98475456237793 -10.79975605010986 -21.9996223449707 C -10.76591968536377 -22.00300979614258 -10.59276580810547 -22.02258682250977 -9.933600425720215 -22.12312698364258 C -9.258646965026855 -22.22609710693359 -8.807247161865234 -22.27200508117676 -8.470000267028809 -22.27200508117676 C -8.333431243896484 -22.27200508117676 -8.04596996307373 -22.27662086486816 -7.452062129974365 -22.29863548278809 C -7.302046775817871 -22.30418968200684 -7.155877590179443 -22.30700492858887 -7.017523765563965 -22.30700492858887 C -6.553462028503418 -22.30700492858887 -6.154693126678467 -22.27643585205078 -5.798431396484375 -22.21357345581055 L -5.776046752929688 -22.20961952209473 L -5.753769874572754 -22.20515823364258 L -4.633769989013672 -21.98115921020508 L -4.608185291290283 -21.97605133056641 L -4.582723617553711 -21.97026634216309 C -4.072231292724609 -21.85423469543457 -3.57581615447998 -21.70037460327148 -3.107277631759644 -21.51297378540039 L -3.067923784255981 -21.49723625183105 L -3.029277563095093 -21.47985076904297 C -2.567674160003662 -21.27213478088379 -2.121982336044312 -21.02677154541016 -1.70407509803772 -20.7503547668457 C -0.3211565017700195 -19.88616371154785 0.70328289270401 -18.80157661437988 1.340860843658447 -17.52643585205078 C 1.613908767700195 -16.98032760620117 1.805570483207703 -16.42844009399414 1.915614366531372 -15.87292385101318 C 1.916789174079895 -16.44271659851074 1.921907782554626 -17.01374626159668 1.930986404418945 -17.58710861206055 C 1.89577853679657 -17.81387901306152 1.877999305725098 -18.04728126525879 1.877999305725098 -18.28400421142578 C 1.877999305725098 -19.28391265869141 2.259676218032837 -20.19411277770996 2.981783866882324 -20.91621971130371 C 3.686553239822388 -21.62095832824707 4.580799102783203 -21.99343490600586 5.567906856536865 -21.99343490600586 C 5.606418609619141 -21.99343490600586 5.645145893096924 -21.99286842346191 5.684103488922119 -21.99171257019043 C 7.745730400085449 -21.97333145141602 11.65023899078369 -21.96400451660156 17.28999900817871 -21.96400451660156 C 18.30822944641113 -21.96400451660156 19.2232608795166 -21.587158203125 19.93621444702148 -20.87421989440918 C 20.19917106628418 -20.61125755310059 20.41640663146973 -20.32080459594727 20.58587455749512 -20.00782203674316 C 20.69289970397949 -20.15776443481445 20.81248474121094 -20.30104064941406 20.94432640075684 -20.43688774108887 C 21.57677459716797 -21.42443656921387 22.55995178222656 -22.01923751831055 23.75021553039551 -22.12426567077637 C 23.86682510375977 -22.13470268249512 23.98456382751465 -22.14000511169434 24.10026168823242 -22.14000511169434 C 24.5401496887207 -22.14000511169434 24.96524429321289 -22.06655311584473 25.37122344970703 -21.92092514038086 C 25.97660636901855 -22.01003837585449 26.51629257202148 -22.07769203186035 26.98135375976563 -22.1226978302002 C 27.59927558898926 -22.18249702453613 28.36259841918945 -22.2276668548584 29.25010681152344 -22.25691223144531 C 29.39875411987305 -22.26181983947754 29.54846000671387 -22.26429748535156 29.69503021240234 -22.26429748535156 C 30.53949165344238 -22.26429748535156 31.36035346984863 -22.1818962097168 32.13478469848633 -22.01935768127441 C 33.0473518371582 -21.82781982421875 33.91436767578125 -21.53432846069336 34.71178436279297 -21.14703559875488 L 34.72975158691406 -21.13831329345703 L 34.74755477905273 -21.12922096252441 C 35.57913589477539 -20.70458602905273 36.33366012573242 -20.14066696166992 37.00048828125 -19.44651412963867 C 37.24959945678711 -20.28433799743652 37.7729606628418 -20.97992324829102 38.52864456176758 -21.47200393676758 C 39.15316772460938 -21.8786506652832 39.83673858642578 -22.08483505249023 40.56038284301758 -22.08483505249023 C 40.80950546264648 -22.08483505249023 41.0631217956543 -22.05938911437988 41.3141975402832 -22.00917434692383 C 42.28202819824219 -21.81559562683105 43.08757781982422 -21.29593086242676 43.64461517333984 -20.50609970092773 L 46.60249328613281 -16.38684844970703 C 47.63310623168945 -17.81947326660156 48.57709884643555 -19.2146110534668 49.42230606079102 -20.55485153198242 L 49.44795227050781 -20.59552764892578 L 49.47552108764648 -20.63492774963379 C 50.02627563476563 -21.42171287536621 50.82947540283203 -21.94806671142578 51.79827499389648 -22.15703582763672 C 52.07749176025391 -22.21725082397461 52.35886001586914 -22.24778938293457 52.63462829589844 -22.24778938293457 C 53.32204437255859 -22.24778938293457 53.97347640991211 -22.06465148925781 54.57081604003906 -21.70348167419434 C 55.44495391845703 -21.17491149902344 56.02396774291992 -20.36377334594727 56.24529266357422 -19.35771179199219 C 56.45672225952148 -18.39657402038574 56.3040771484375 -17.44109725952148 55.80385971069336 -16.59455871582031 L 55.77902984619141 -16.55254364013672 L 55.7521858215332 -16.51178932189941 C 54.42562484741211 -14.4979829788208 52.91350555419922 -12.35272407531738 51.24675369262695 -10.11940765380859 L 56.06035232543945 -3.849989414215088 L 56.06723022460938 -3.84103536605835 L 56.07401657104492 -3.831989288330078 C 56.67266082763672 -3.033773899078369 56.91564559936523 -2.087219953536987 56.77667617797852 -1.094681620597839 C 56.63586044311523 -0.08891237527132034 56.12696838378906 0.7606106996536255 55.30503082275391 1.362041473388672 C 54.6555061340332 1.837318420410156 53.89342880249023 2.088533878326416 53.1011848449707 2.088533878326416 Z M 9.881616592407227 -5.522250652313232 C 12.87060165405273 -5.47029447555542 15.49779987335205 -5.444004535675049 17.70999908447266 -5.444004535675049 C 18.72822952270508 -5.444004535675049 19.64326095581055 -5.067158699035645 20.35621452331543 -4.354219913482666 C 20.53497123718262 -4.175459384918213 20.69256401062012 -3.984044313430786 20.82842063903809 -3.781434535980225 C 20.82625389099121 -4.230534553527832 20.82346153259277 -4.701967239379883 20.82004547119141 -5.194127559661865 C 20.81072235107422 -6.535696983337402 20.80599975585938 -7.812158584594727 20.80599975585938 -8.988004684448242 C 20.80599975585938 -10.13086605072021 20.77832221984863 -11.37463569641113 20.7237377166748 -12.68474292755127 C 20.67882537841797 -13.76267242431641 20.62100028991699 -14.80234718322754 20.55141639709473 -15.7843017578125 C 20.48431968688965 -15.8838472366333 20.42232131958008 -15.9865083694458 20.36556243896484 -16.09206008911133 C 20.2397289276123 -15.91249370574951 20.09647750854492 -15.74205589294434 19.93621444702148 -15.58178901672363 C 19.2232608795166 -14.86885070800781 18.30822944641113 -14.49200439453125 17.28999900817871 -14.49200439453125 L 9.417388916015625 -14.49200439453125 C 9.418973922729492 -14.35421848297119 9.420721054077148 -14.21698379516602 9.422635078430176 -14.08003330230713 C 11.18352890014648 -14.08114814758301 13.54623889923096 -14.11449813842773 16.44746208190918 -14.17920207977295 C 16.49160957336426 -14.1807279586792 16.53553199768066 -14.18148136138916 16.57919883728027 -14.18148136138916 C 17.52895355224609 -14.18148136138916 18.40529251098633 -13.82683563232422 19.11349105834961 -13.15589714050293 C 19.85912322998047 -12.44951248168945 20.26373863220215 -11.53981971740723 20.28361511230469 -10.52517414093018 C 20.30329132080078 -9.521927833557129 19.94445991516113 -8.601865768432617 19.24589157104492 -7.86451244354248 C 18.53536605834961 -7.114485263824463 17.61719131469727 -6.714965343475342 16.58903503417969 -6.708096504211426 C 13.83553695678711 -6.645011425018311 11.55632019042969 -6.607250690460205 9.79100513458252 -6.595391750335693 C 9.819963455200195 -6.243477344512939 9.850174903869629 -5.885670185089111 9.881616592407227 -5.522250652313232 Z M -8.565339088439941 -5.296345710754395 C -8.385083198547363 -5.292122364044189 -8.204219818115234 -5.290004730224609 -8.02287769317627 -5.290004730224609 C -7.762923717498779 -5.290004730224609 -7.497169971466064 -5.294358730316162 -7.233016014099121 -5.302943229675293 C -6.175031185150146 -5.337337493896484 -5.605332374572754 -5.500941753387451 -5.31076717376709 -5.635786533355713 C -4.728189468383789 -5.932705879211426 -4.652598857879639 -6.203656673431396 -4.623415946960449 -6.327080726623535 C -4.621240615844727 -6.337060451507568 -4.619938850402832 -6.344834804534912 -4.619160175323486 -6.350541591644287 C -4.637831687927246 -6.385584354400635 -4.697742938995361 -6.470248699188232 -4.831000804901123 -6.586850643157959 L -4.88109302520752 -6.63068151473999 L -4.928154468536377 -6.677742958068848 C -4.989474773406982 -6.739050388336182 -5.038421154022217 -6.783341407775879 -5.074994564056396 -6.814364910125732 C -5.332535743713379 -6.84761381149292 -5.427897453308105 -6.848004817962646 -5.432000637054443 -6.848004817962646 C -5.50723123550415 -6.848004817962646 -5.728785514831543 -6.844542980194092 -6.367339134216309 -6.821327686309814 C -6.865454196929932 -6.803194999694824 -7.270017623901367 -6.793631553649902 -7.600055694580078 -6.792195320129395 C -7.670729637145996 -6.787415504455566 -7.741616249084473 -6.785004615783691 -7.811985492706299 -6.785004615783691 C -8.000589370727539 -6.784996032714844 -8.188963890075684 -6.802070140838623 -8.375479698181152 -6.835950374603271 C -8.442309379577637 -6.834642887115479 -8.515727043151855 -6.834019184112549 -8.59742546081543 -6.833992004394531 C -8.588212966918945 -6.317890644073486 -8.577505111694336 -5.804770469665527 -8.565339088439941 -5.296345710754395 Z M 0.9554769396781921 -11.2474308013916 C 1.410906553268433 -10.69862461090088 1.783841252326965 -10.11193752288818 2.071507453918457 -9.491678237915039 C 1.999861717224121 -10.87786483764648 1.952803730964661 -12.27982425689697 1.930471181869507 -13.69504261016846 C 1.905275225639343 -13.55738639831543 1.87512218952179 -13.41963863372803 1.840030074119568 -13.28197383880615 C 1.660962581634521 -12.57946491241455 1.365079045295715 -11.89955806732178 0.9554769396781921 -11.2474308013916 Z M 28.20151901245117 -13.12011051177979 C 28.91778564453125 -13.04304695129395 29.5230770111084 -13.00400447845459 30.00199890136719 -13.00400447845459 C 31.41568946838379 -13.00400447845459 31.87717056274414 -13.26553058624268 31.9446907043457 -13.30948257446289 C 32.01727294921875 -13.36776733398438 32.04401016235352 -13.41343688964844 32.06392288208008 -13.50688171386719 C 32.07256698608398 -13.54745101928711 32.09553909301758 -13.65515899658203 31.96833801269531 -13.89798927307129 C 31.89864540100098 -14.03105068206787 31.76136779785156 -14.23025131225586 31.37556838989258 -14.42314338684082 L 31.35038375854492 -14.43574333190918 L 31.32555389404297 -14.44905090332031 C 31.04456901550293 -14.59957408905029 30.66704559326172 -14.69672775268555 30.20346069335938 -14.7378044128418 C 29.86676788330078 -14.76765060424805 29.54864501953125 -14.78277397155762 29.25795364379883 -14.78277397155762 C 29.02253723144531 -14.78277397155762 28.80072212219238 -14.77286624908447 28.59864616394043 -14.75331211090088 C 28.45882034301758 -14.73977947235107 28.30405235290527 -14.72312068939209 28.13473320007324 -14.7033863067627 C 28.16042900085449 -14.18995761871338 28.18270874023438 -13.66181945800781 28.20151901245117 -13.12011051177979 Z M -8.634276390075684 -14.83895492553711 C -8.637477874755859 -14.63236522674561 -8.640291213989258 -14.42437744140625 -8.642716407775879 -14.21500873565674 C -8.420146942138672 -14.21512699127197 -8.328522682189941 -14.21833896636963 -8.299185752868652 -14.21974277496338 C -8.184646606445313 -14.22518920898438 -7.948846817016602 -14.24071216583252 -7.475092887878418 -14.28378963470459 C -7.148846626281738 -14.31343555450439 -6.873769760131836 -14.35246658325195 -6.657431602478027 -14.39978885650635 C -6.495020866394043 -14.43532276153564 -6.326789379119873 -14.49022006988525 -6.156971454620361 -14.56308364868164 C -6.08376932144165 -14.59769344329834 -6.016605377197266 -14.63164901733398 -5.954901218414307 -14.66478061676025 C -6.317034244537354 -14.80136013031006 -6.772337436676025 -14.87503242492676 -7.314200878143311 -14.88429737091064 C -7.386769771575928 -14.88554286956787 -7.45946216583252 -14.88615894317627 -7.532200813293457 -14.88615894317627 C -7.895699977874756 -14.88615894317627 -8.263707160949707 -14.87035846710205 -8.634276390075684 -14.83895492553711 Z"/><path class="j" d="M 53.10114288330078 0.08854471892118454 C 53.47275924682617 0.08853744715452194 53.8137321472168 -0.02497201040387154 54.12400054931641 -0.2519935071468353 C 54.50667190551758 -0.5319935083389282 54.73067092895508 -0.9053389430046082 54.79599761962891 -1.371993541717529 C 54.861328125 -1.838666200637817 54.75399780273438 -2.258666276931763 54.4739990234375 -2.631993532180786 L 48.73400115966797 -10.10799312591553 C 50.75 -12.75866603851318 52.53267288208008 -15.25999355316162 54.08200073242188 -17.61199378967285 C 54.32465362548828 -18.02266693115234 54.39467239379883 -18.46133804321289 54.29199981689453 -18.92799377441406 C 54.18932723999023 -19.39466667175293 53.93732833862305 -19.74933815002441 53.5359992980957 -19.99199295043945 C 53.13467025756836 -20.23466873168945 52.69599151611328 -20.3046703338623 52.22000122070313 -20.20199394226074 C 51.74399948120117 -20.09933853149414 51.37532806396484 -19.8613395690918 51.11399841308594 -19.48799324035645 C 49.80732727050781 -17.41599273681641 48.29532623291016 -15.25066661834717 46.57799911499023 -12.99199390411377 L 42.01399993896484 -19.34799385070801 C 41.75267028808594 -19.72133827209473 41.38865280151367 -19.95466613769531 40.92200088500977 -20.04799270629883 C 40.455322265625 -20.1413459777832 40.02132415771484 -20.05733871459961 39.61999893188477 -19.79599380493164 C 39.21867370605469 -19.53466606140137 38.9713249206543 -19.17533874511719 38.87799835205078 -18.71799278259277 C 38.78465270996094 -18.26066589355469 38.86865234375 -17.8266658782959 39.13000106811523 -17.41599273681641 C 40.62332534790039 -15.25066661834717 42.36867141723633 -12.82399368286133 44.36600112915039 -10.13599395751953 L 38.31800079345703 -2.799993515014648 C 38.00065231323242 -2.426666259765625 37.86532592773438 -2.001993417739868 37.9119987487793 -1.525993466377258 C 37.95865249633789 -1.049993515014648 38.16867065429688 -0.6626662015914917 38.54199981689453 -0.3639934957027435 C 38.91532516479492 -0.06534036248922348 39.34466171264648 0.0653352215886116 39.82999801635742 0.02800650522112846 C 40.31532669067383 -0.02799349464476109 40.70732498168945 -0.2333389520645142 41.00600051879883 -0.5879935026168823 L 46.52199935913086 -7.307993412017822 L 51.67399978637695 -0.5879935026168823 C 51.97265243530273 -0.2146662175655365 52.36000061035156 0.004661051090806723 52.83599853515625 0.07000650465488434 C 52.92606353759766 0.08236701041460037 53.01441955566406 0.08854641020298004 53.10114288330078 0.08854471892118454 M -8.131424903869629 0.07350394874811172 C -7.727174758911133 0.07350394874811172 -7.25200080871582 0.06300650537014008 -6.706000804901123 0.04200650751590729 C -5.978000640869141 0.01400650572031736 -5.306000709533691 -0.07466622442007065 -4.690000534057617 -0.2239934951066971 C -4.074000835418701 -0.3733389377593994 -3.495327949523926 -0.5693389773368835 -2.95400071144104 -0.8119934797286987 C -2.058000564575195 -1.259993553161621 -1.292673349380493 -1.861993551254272 -0.658000648021698 -2.617993593215942 C -0.02332794480025768 -3.373993396759033 0.3966720700263977 -4.209339141845703 0.6019993424415588 -5.123993396759033 C 0.8446720838546753 -6.094666004180908 0.80732661485672 -7.074666023254395 0.4899993240833282 -8.063993453979492 C 0.1726720631122589 -9.015993118286133 -0.3966734111309052 -9.874666213989258 -1.218000650405884 -10.63999366760254 C -1.404673457145691 -10.78933906555176 -1.582000613212585 -10.92933940887451 -1.750000715255737 -11.05999374389648 C -0.8913279175758362 -11.91866588592529 -0.3406733870506287 -12.82399368286133 -0.098000667989254 -13.77599334716797 C 0.1446720510721207 -14.72799396514893 0.02799932844936848 -15.67999362945557 -0.4480006694793701 -16.63199424743652 C -0.9240006804466248 -17.58401107788086 -1.703327894210815 -18.39599418640137 -2.786000728607178 -19.0679931640625 C -3.122000694274902 -19.29199409484863 -3.476673364639282 -19.48799324035645 -3.850000619888306 -19.6559944152832 C -4.223328113555908 -19.80533981323242 -4.615327835083008 -19.92666625976563 -5.026000499725342 -20.01999282836914 L -6.146000862121582 -20.24399375915527 C -6.46332836151123 -20.29999542236328 -6.874003887176514 -20.31866455078125 -7.378000736236572 -20.29999351501465 C -7.88200044631958 -20.28133964538574 -8.246000289916992 -20.27199363708496 -8.470000267028809 -20.27199363708496 C -8.694000244140625 -20.27199363708496 -9.081328392028809 -20.22999382019043 -9.632000923156738 -20.14599418640137 C -10.18265533447266 -20.06199264526367 -10.51865482330322 -20.01533889770508 -10.64000034332275 -20.0059928894043 C -10.76132774353027 -19.99666595458984 -11.09265518188477 -19.93599319458008 -11.63400077819824 -19.82399368286133 L -12.47400093078613 -19.68399429321289 C -12.53000068664551 -19.68399429321289 -12.58600044250488 -19.6746654510498 -12.64200019836426 -19.6559944152832 C -13.0153284072876 -19.58133888244629 -13.32800102233887 -19.38999366760254 -13.58000087738037 -19.08199310302734 C -13.83200073242188 -18.77399444580078 -13.95800113677979 -18.4146671295166 -13.95800113677979 -18.00399398803711 C -14.07000064849854 -12.45999336242676 -14.03267383575439 -7.074666023254395 -13.84600067138672 -1.847993493080139 C -13.84600067138672 -1.437338948249817 -13.69667339324951 -1.077993512153625 -13.39800071716309 -0.7699934840202332 C -13.09932804107666 -0.4619934856891632 -12.74467372894287 -0.2893389463424683 -12.33400058746338 -0.2519935071468353 C -12.14732837677002 -0.1586662232875824 -11.95132827758789 -0.1119934916496277 -11.74600028991699 -0.1119934916496277 C -11.57800102233887 -0.09333895146846771 -11.11600112915039 -0.06066622212529182 -10.36000061035156 -0.01399349421262741 C -9.604001045227051 0.03266105055809021 -8.988000869750977 0.06066105142235756 -8.512001037597656 0.07000650465488434 C -8.393000602722168 0.07233832031488419 -8.266175270080566 0.07350394874811172 -8.131424903869629 0.07350394874811172 M -10.62600040435791 -8.875993728637695 C -10.5513277053833 -8.875993728637695 -10.15932750701904 -8.866665840148926 -9.450000762939453 -8.847993850708008 C -8.740673065185547 -8.829338073730469 -8.320672988891602 -8.829338073730469 -8.190000534057617 -8.847993850708008 C -8.022000312805176 -8.791993141174316 -7.854001045227051 -8.773338317871094 -7.686000823974609 -8.791993141174316 C -7.368673324584961 -8.791993141174316 -6.953328132629395 -8.801339149475098 -6.440000534057617 -8.819993019104004 C -5.926673412322998 -8.838665962219238 -5.590673446655273 -8.847993850708008 -5.432000637054443 -8.847993850708008 C -5.273327827453613 -8.847993850708008 -5.054000854492188 -8.829339027404785 -4.774000644683838 -8.791993141174316 C -4.494000434875488 -8.754666328430176 -4.265327930450439 -8.679993629455566 -4.088000774383545 -8.5679931640625 C -3.910673379898071 -8.45599365234375 -3.719327926635742 -8.297338485717773 -3.514000654220581 -8.09199333190918 C -2.767328023910522 -7.438666343688965 -2.487328052520752 -6.701338768005371 -2.67400074005127 -5.879993438720703 C -2.879328012466431 -5.002665996551514 -3.467327833175659 -4.321339130401611 -4.438000679016113 -3.835993528366089 C -5.110000610351563 -3.51866626739502 -6.020000457763672 -3.341338872909546 -7.1680006980896 -3.303993463516235 C -8.316001892089844 -3.266666412353516 -9.431327819824219 -3.303993463516235 -10.51400089263916 -3.415993452072144 C -10.57000064849854 -5.189339160919189 -10.60732841491699 -7.009338855743408 -10.62600040435791 -8.875993728637695 M -7.532307147979736 -16.88614845275879 C -7.448162078857422 -16.88614845275879 -7.363980293273926 -16.88542938232422 -7.280000686645508 -16.88399314880371 C -6.188000679016113 -16.8653392791748 -5.287327766418457 -16.64133834838867 -4.578000545501709 -16.21199417114258 C -3.644655227661133 -15.63333892822266 -3.252673387527466 -15.10133934020996 -3.402000665664673 -14.61599349975586 C -3.458000659942627 -14.29866600036621 -3.654000759124756 -13.9719934463501 -3.99000072479248 -13.63599395751953 C -4.326000690460205 -13.29999351501465 -4.774000644683838 -13.00133895874023 -5.334000587463379 -12.73999309539795 C -5.632673263549805 -12.60933876037598 -5.931327819824219 -12.51133918762207 -6.230000495910645 -12.44599342346191 C -6.528655052185059 -12.38066577911377 -6.883327960968018 -12.32933902740479 -7.294000625610352 -12.29199314117432 C -7.704673290252686 -12.25466632843018 -8.008000373840332 -12.23133850097656 -8.204000473022461 -12.2219934463501 C -8.400001525878906 -12.21266651153564 -8.805999755859375 -12.21266651153564 -9.422000885009766 -12.2219934463501 C -10.03800106048584 -12.23133850097656 -10.44867324829102 -12.23599338531494 -10.6540002822876 -12.23599338531494 C -10.6540002822876 -13.74799346923828 -10.63532829284668 -15.19466590881348 -10.59800052642822 -16.57599258422852 C -9.564133644104004 -16.78276634216309 -8.542315483093262 -16.88614845275879 -7.532307147979736 -16.88614845275879 M 24.54657936096191 0.07037440687417984 C 24.55898094177246 0.07037440687417984 24.57150650024414 0.07025130093097687 24.58399963378906 0.07000650465488434 C 25.05999946594238 0.06066105142235756 25.47067260742188 -0.1166662201285362 25.81599998474121 -0.4619934856891632 C 26.16132736206055 -0.8073389530181885 26.32467269897461 -1.213338971138 26.30599975585938 -1.679993510246277 L 26.30599975585938 -7.783993721008301 C 26.95932579040527 -7.709339141845703 27.36067199707031 -7.662666320800781 27.51000022888184 -7.643993377685547 C 28.46199989318848 -7.550666332244873 29.28332710266113 -7.503993511199951 29.9739990234375 -7.503993511199951 C 32.2140007019043 -7.503993511199951 33.95932769775391 -7.970666408538818 35.20999908447266 -8.903993606567383 C 36.23667144775391 -9.669339179992676 36.93199920654297 -10.57466602325439 37.29599761962891 -11.61999320983887 C 37.65999984741211 -12.66533851623535 37.71599960327148 -13.67799377441406 37.4640007019043 -14.65799331665039 C 37.21199798583984 -15.63799381256104 36.76399993896484 -16.55266571044922 36.11999893188477 -17.40199279785156 C 35.47599792480469 -18.25133895874023 34.71532821655273 -18.89999389648438 33.83799743652344 -19.34799385070801 C 33.18467330932617 -19.66533851623535 32.47999954223633 -19.90333938598633 31.7239990234375 -20.06199264526367 C 30.96799850463867 -20.22066688537598 30.16532897949219 -20.28598403930664 29.31599998474121 -20.25799369812012 C 28.46667289733887 -20.22999382019043 27.75267219543457 -20.1879940032959 27.17399978637695 -20.13199424743652 C 26.59532737731934 -20.07599258422852 25.89532661437988 -19.982666015625 25.07399940490723 -19.85199356079102 C 24.71932601928711 -20.07599258422852 24.33668518066406 -20.16934204101563 23.92599868774414 -20.13199424743652 C 23.29132652282715 -20.07599258422852 22.82467269897461 -19.7586669921875 22.52599906921387 -19.17999267578125 C 22.059326171875 -18.78799438476563 21.86332702636719 -18.27466583251953 21.9379997253418 -17.63999366760254 C 21.99399948120117 -17.21066665649414 22.18067169189453 -16.85599327087402 22.49799919128418 -16.57599258422852 C 22.5913257598877 -15.38133907318115 22.6659984588623 -14.11199378967285 22.72200012207031 -12.76799392700195 C 22.77799987792969 -11.42399311065674 22.80599975585938 -10.16399383544922 22.80599975585938 -8.987993240356445 C 22.80599975585938 -7.811993598937988 22.81067276000977 -6.551993370056152 22.81999969482422 -5.207993507385254 C 22.82932662963867 -3.863993406295776 22.83399963378906 -2.68799352645874 22.83399963378906 -1.679993510246277 C 22.83399963378906 -1.194666266441345 23.00667190551758 -0.7793389558792114 23.35199928283691 -0.4339934885501862 C 23.68826293945313 -0.09772937744855881 24.08641052246094 0.07037440687417984 24.54657936096191 0.07037440687417984 M 29.25792694091797 -16.78277397155762 C 29.60894393920898 -16.78277397155762 29.98298454284668 -16.76517868041992 30.3799991607666 -16.72999382019043 C 31.1173267364502 -16.6646671295166 31.7473258972168 -16.49199295043945 32.27000045776367 -16.21199417114258 C 32.94199752807617 -15.8759937286377 33.43199920654297 -15.41399383544922 33.73999786376953 -14.82599353790283 C 34.04800033569336 -14.23799324035645 34.14132690429688 -13.65933895111084 34.02000045776367 -13.08999347686768 C 33.8986701965332 -12.52066612243652 33.60467147827148 -12.05866622924805 33.13800048828125 -11.70399379730225 C 32.50332641601563 -11.23733901977539 31.45800018310547 -11.00399303436279 30.00199890136719 -11.00399303436279 C 29.42332649230957 -11.00399303436279 28.71399879455566 -11.05066585540771 27.87399864196777 -11.14399337768555 C 27.64999961853027 -11.16266632080078 27.35599899291992 -11.19066619873047 26.99199867248535 -11.22799396514893 C 26.62800025939941 -11.26533889770508 26.38067245483398 -11.29333877563477 26.25 -11.31199359893799 C 26.21267127990723 -13.17866611480713 26.13799858093262 -14.8866662979126 26.02599906921387 -16.43599319458008 C 27.03399848937988 -16.5853385925293 27.82732582092285 -16.6879940032959 28.4060001373291 -16.74399375915527 C 28.6730842590332 -16.76984786987305 28.95704460144043 -16.78277397155762 29.25792694091797 -16.78277397155762 M -37.95400238037109 0.05600650608539581 C -37.46865463256836 0.05600650608539581 -37.05800247192383 -0.1119934916496277 -36.72200012207031 -0.4479934871196747 C -36.38600158691406 -0.7839934825897217 -36.21800231933594 -1.194666266441345 -36.21800231933594 -1.679993510246277 C -36.21800231933594 -7.65333890914917 -36.059326171875 -13.22533893585205 -35.74200057983398 -18.39599418640137 C -35.70465469360352 -18.88133811950684 -35.84465408325195 -19.30599403381348 -36.16200256347656 -19.66999435424805 C -36.47932815551758 -20.03399276733398 -36.88065338134766 -20.22999382019043 -37.36600112915039 -20.25799369812012 C -37.85130310058594 -20.28599166870117 -38.2760009765625 -20.14133834838867 -38.63999938964844 -19.82399368286133 C -39.00400161743164 -19.50666618347168 -39.19532775878906 -19.10533905029297 -39.2140007019043 -18.61999320983887 C -39.34465408325195 -16.5853385925293 -39.44732666015625 -14.47599315643311 -39.52199935913086 -12.29199314117432 C -40.58600234985352 -12.29199314117432 -42.17265701293945 -12.3013391494751 -44.28200149536133 -12.319993019104 C -46.39132690429688 -12.33866596221924 -47.95932769775391 -12.34799385070801 -48.98600006103516 -12.34799385070801 C -49.07932662963867 -14.97999382019043 -49.18199920654297 -17.02399444580078 -49.29400253295898 -18.47999382019043 C -49.31265640258789 -18.96533966064453 -49.50400161743164 -19.36666679382324 -49.86800003051758 -19.68399429321289 C -50.23199844360352 -20.0013370513916 -50.65663528442383 -20.14597320556641 -51.14200210571289 -20.11799430847168 C -51.62732696533203 -20.08999443054199 -52.02865600585938 -19.89399337768555 -52.34600067138672 -19.52999305725098 C -52.66332626342773 -19.16599273681641 -52.80332946777344 -18.7413387298584 -52.76599884033203 -18.2559928894043 C -52.65399932861328 -16.63199424743652 -52.55132675170898 -14.2239933013916 -52.45800018310547 -11.0319938659668 C -52.47665405273438 -10.90133857727051 -52.48600006103516 -10.76133918762207 -52.48600006103516 -10.61199378967285 C -52.48600006103516 -10.44399356842041 -52.46732711791992 -10.27599334716797 -52.43000030517578 -10.10799312591553 C -52.31800079345703 -6.094666004180908 -52.21532821655273 -3.266666173934937 -52.12200164794922 -1.623993515968323 C -52.10332870483398 -1.138666272163391 -51.91665649414063 -0.7326661944389343 -51.5620002746582 -0.4059934914112091 C -51.20732879638672 -0.0793394073843956 -50.78733825683594 0.07000697404146194 -50.302001953125 0.04200650751590729 C -49.81665420532227 0.01400650572031736 -49.4106559753418 -0.1773389428853989 -49.08399963378906 -0.5319935083389282 C -48.75732803344727 -0.8866662383079529 -48.61265563964844 -1.306666254997253 -48.65000152587891 -1.791993498802185 C -48.72465515136719 -3.471993446350098 -48.80865478515625 -5.823993682861328 -48.90200042724609 -8.847993850708008 C -47.87532806396484 -8.847993850708008 -46.33065414428711 -8.838665962219238 -44.26800155639648 -8.819993019104004 C -42.20532608032227 -8.801339149475098 -40.6606559753418 -8.791993141174316 -39.63399887084961 -8.791993141174316 C -39.67132949829102 -6.402666091918945 -39.69000244140625 -4.031993389129639 -39.69000244140625 -1.679993510246277 C -39.69000244140625 -1.194666266441345 -39.52199935913086 -0.7839934825897217 -39.18600082397461 -0.4479934871196747 C -38.85000228881836 -0.1119934916496277 -38.43932723999023 0.05600650608539581 -37.95400238037109 0.05600650608539581 M -31.83392906188965 0.03374308347702026 C -31.58283615112305 0.03374002501368523 -31.33617782592773 -0.02417106740176678 -31.0939998626709 -0.1399934887886047 C -30.6646556854248 -0.3453389406204224 -30.36600112915039 -0.6719934940338135 -30.19799995422363 -1.119993448257446 C -29.75 -2.40799355506897 -29.20867347717285 -3.733338832855225 -28.57400131225586 -5.095993518829346 L -27.67800140380859 -5.095993518829346 C -27.30467414855957 -5.095993518829346 -27.07600021362305 -5.091339111328125 -26.99200057983398 -5.081993579864502 C -26.90800094604492 -5.072665691375732 -26.74933052062988 -5.072665691375732 -26.51600074768066 -5.081993579864502 C -26.28265571594238 -5.091339111328125 -26.1473274230957 -5.095993518829346 -26.11000061035156 -5.095993518829346 L -25.74600028991699 -5.095993518829346 C -25.54067420959473 -5.095993518829346 -25.39599990844727 -5.100666046142578 -25.3120002746582 -5.109993457794189 C -25.22800064086914 -5.119338989257813 -25.04600143432617 -5.133338928222656 -24.76600074768066 -5.151993274688721 C -24.48600006103516 -5.170666217803955 -24.22465515136719 -5.189339160919189 -23.98200035095215 -5.207993507385254 L -22.97400093078613 -5.235993385314941 C -22.54465484619141 -5.254666328430176 -22.08732795715332 -5.282666206359863 -21.60200119018555 -5.319993495941162 L -21.43400001525879 -5.319993495941162 L -19.5580005645752 -1.035993456840515 C -19.37132835388184 -0.6066662073135376 -19.05400085449219 -0.2986662089824677 -18.60600090026855 -0.1119934916496277 C -18.15799903869629 0.07466205954551697 -17.71465301513672 0.07000549137592316 -17.2760009765625 -0.1259934902191162 C -16.83732795715332 -0.321993499994278 -16.51532745361328 -0.6673389673233032 -16.31000137329102 -1.161993503570557 C -16.10465431213379 -1.656666278839111 -16.12332725524902 -2.081338882446289 -16.36600112915039 -2.435993432998657 C -17.46732711791992 -4.787993431091309 -19.08200073242188 -8.866665840148926 -21.21000099182129 -14.67199325561523 L -22.13400077819824 -17.10799407958984 C -22.37665557861328 -17.7239933013916 -22.59132766723633 -18.2093391418457 -22.77799987792969 -18.56399345397949 C -22.90865516662598 -18.82533836364746 -23.03000068664551 -19.03999328613281 -23.14200019836426 -19.20799255371094 C -23.23532867431641 -19.35733985900879 -23.3380012512207 -19.48799324035645 -23.45000076293945 -19.5999927520752 C -23.73000144958496 -19.8613395690918 -24.04732704162598 -20.02933883666992 -24.40200042724609 -20.10399436950684 C -25.13000297546387 -20.25333976745605 -25.74600219726563 -20.02934074401855 -26.25 -19.43199348449707 C -26.41800117492676 -19.26399421691895 -26.57667350769043 -19.03999328613281 -26.72599983215332 -18.7599925994873 C -26.89400100708008 -18.44266700744629 -27.09932708740234 -17.97599411010742 -27.34200096130371 -17.35999298095703 C -27.41667366027832 -17.13599395751953 -27.59865570068359 -16.63666534423828 -27.88800048828125 -15.86199378967285 C -28.17732810974121 -15.08733940124512 -28.4060001373291 -14.50399303436279 -28.57400131225586 -14.11199378967285 L -30.14200019836426 -10.35999393463135 L -32.04600143432617 -5.823993682861328 C -32.58732604980469 -4.517338752746582 -33.07267379760742 -3.341338872909546 -33.50199890136719 -2.295993566513062 C -33.65132904052734 -1.829338908195496 -33.62332916259766 -1.381338953971863 -33.41799926757813 -0.951993465423584 C -33.21267318725586 -0.5226662158966064 -32.88132858276367 -0.228666216135025 -32.42399978637695 -0.06999349594116211 C -32.22464752197266 -0.000833901867736131 -32.02796936035156 0.03374544531106949 -31.83392906188965 0.03374308347702026 M -24.76600074768066 -14.2239933013916 L -24.51399993896484 -13.4399938583374 L -22.75 -8.763993263244629 C -25.10200119018555 -8.633338928222656 -26.5580005645752 -8.5679931640625 -27.11800003051758 -8.5679931640625 L -25.32600021362305 -12.76799392700195 L -24.76600074768066 -14.2239933013916 M 17.70999908447266 0.02800650522112846 C 18.19532585144043 0.02800650522112846 18.60599899291992 -0.1399934887886047 18.9419994354248 -0.4759934842586517 C 19.27799987792969 -0.8119934797286987 19.44599914550781 -1.222666263580322 19.44599914550781 -1.707993507385254 C 19.44599914550781 -2.193338871002197 19.27799987792969 -2.60399341583252 18.9419994354248 -2.939993381500244 C 18.60599899291992 -3.275993585586548 18.19532585144043 -3.44399356842041 17.70999908447266 -3.44399356842041 C 15.04067230224609 -3.44399356842041 11.82067203521729 -3.481338977813721 8.049999237060547 -3.555993556976318 C 7.881999492645264 -5.366666316986084 7.74199914932251 -7.046666145324707 7.629999160766602 -8.595993041992188 C 9.515325546264648 -8.577340126037598 12.49267101287842 -8.614665031433105 16.5620002746582 -8.707993507385254 C 17.04732704162598 -8.707993507385254 17.45800018310547 -8.88533878326416 17.79399871826172 -9.239993095397949 C 18.1299991607666 -9.594666481018066 18.29332733154297 -10.00999355316162 18.28399848937988 -10.48599338531494 C 18.27467155456543 -10.96199321746826 18.09267234802246 -11.36799335479736 17.73799896240234 -11.70399379730225 C 17.38332748413086 -12.03999328613281 16.97269058227539 -12.1986608505249 16.5059986114502 -12.17999362945557 C 12.32467079162598 -12.08666706085205 9.309998512268066 -12.05866527557373 7.461999416351318 -12.09599304199219 C 7.42467212677002 -13.51466655731201 7.405999183654785 -14.97999382019043 7.405999183654785 -16.49199295043945 L 17.28999900817871 -16.49199295043945 C 17.77534484863281 -16.49199295043945 18.18599891662598 -16.65999412536621 18.52199935913086 -16.99599266052246 C 18.85799980163574 -17.33199310302734 19.02599906921387 -17.74266624450684 19.02599906921387 -18.22799301147461 C 19.02599906921387 -18.71333885192871 18.85799980163574 -19.12399291992188 18.52199935913086 -19.45999336242676 C 18.18599891662598 -19.79599380493164 17.77534484863281 -19.96399307250977 17.28999900817871 -19.96399307250977 C 11.59667205810547 -19.96399307250977 7.713999271392822 -19.97333908081055 5.641999244689941 -19.99199295043945 C 5.156678676605225 -20.01066970825195 4.741326332092285 -19.84733772277832 4.395999431610107 -19.50199317932129 C 4.050672054290771 -19.15666580200195 3.877999305725098 -18.75066566467285 3.877999305725098 -18.28399276733398 C 3.877999305725098 -18.09733963012695 3.896672010421753 -17.91999435424805 3.933999300003052 -17.75199317932129 C 3.840672016143799 -12.39466667175293 4.092671871185303 -7.261338710784912 4.689999103546143 -2.351993560791016 C 4.652672290802002 -2.202666282653809 4.633999347686768 -2.043993473052979 4.633999347686768 -1.875993490219116 C 4.615326404571533 -1.390666246414185 4.773999214172363 -0.9753389358520508 5.109999179840088 -0.6299934983253479 C 5.445999145507813 -0.2846662104129791 5.856672286987305 -0.1119934916496277 6.341999530792236 -0.1119934916496277 C 10.97132682800293 -0.0186662208288908 14.76067161560059 0.02800650522112846 17.70999908447266 0.02800650522112846 M 53.10134506225586 4.088551998138428 L 53.10114288330078 4.088551998138428 C 52.83348846435547 4.088551998138428 52.56123733520508 4.069806575775146 52.29194641113281 4.032842636108398 C 50.7899284362793 3.826642751693726 49.49612808227539 3.092824697494507 48.55049133300781 1.910751938819885 L 48.49958038330078 1.845733761787415 L 46.41506195068359 -0.8732020854949951 L 44.06558227539063 1.988624691963196 C 43.10310745239258 3.131497383117676 41.79701614379883 3.827570199966431 40.28850936889648 4.00164270401001 L 40.21272659301758 4.010388374328613 L 40.13669204711914 4.01622486114502 C 39.98141860961914 4.028170108795166 39.82452774047852 4.034224510192871 39.67032623291016 4.034224510192871 C 38.33992767333984 4.034224510192871 37.08570861816406 3.593442916870117 36.04328918457031 2.759533882141113 C 34.83241653442383 1.790806531906128 34.08234405517578 0.4074428677558899 33.93107223510742 -1.135811686515808 C 33.82902908325195 -2.17650032043457 34.01022720336914 -3.200115919113159 34.44805145263672 -4.12209939956665 C 33.2066535949707 -3.738904476165771 31.82288360595703 -3.532943248748779 30.30599975585938 -3.506833076477051 L 30.30599975585938 -1.736944198608398 C 30.34016990661621 -0.1952362656593323 29.75248146057129 1.258326053619385 28.64450836181641 2.366351842880249 C 27.5757999420166 3.435060977935791 26.16165351867676 4.039806365966797 24.66250801086426 4.06924295425415 C 24.62192726135254 4.070006370544434 24.58405303955078 4.070370197296143 24.54658126831055 4.070370197296143 C 23.29651641845703 4.070370197296143 22.10439682006836 3.664432048797607 21.11831092834473 2.914173603057861 C 20.13938140869141 3.637286424636841 18.95615577697754 4.028006553649902 17.70999908447266 4.028006553649902 C 14.75430870056152 4.028006553649902 10.91252517700195 3.980826139450073 6.291036605834961 3.887785673141479 C 4.751686096191406 3.874531984329224 3.31584095954895 3.261955499649048 2.243126630783081 2.159442901611328 C 1.904862523078918 1.811776995658875 1.61669659614563 1.429804563522339 1.381654858589172 1.021474957466125 C 0.6230556964874268 1.71369731426239 -0.2292628735303879 2.297774076461792 -1.165146112442017 2.765715599060059 L -1.24072790145874 2.803497314453125 L -1.317836999893188 2.838061094284058 C -2.079527854919434 3.179497480392456 -2.897000789642334 3.457188367843628 -3.747527837753296 3.663388252258301 C -4.618800640106201 3.874606609344482 -5.562418937683105 4.000988483428955 -6.552273273468018 4.039042949676514 C -7.146546363830566 4.061915397644043 -7.677855014801025 4.073497295379639 -8.13141918182373 4.073497295379639 C -8.291455268859863 4.073497295379639 -8.445818901062012 4.072061061859131 -8.590218544006348 4.06924295425415 C -9.12749195098877 4.05869722366333 -9.786891937255859 4.028988361358643 -10.60638236999512 3.978406429290771 C -11.39803314208984 3.929536819458008 -11.78034210205078 3.901509284973145 -11.99961471557617 3.882089614868164 C -12.48011302947998 3.859587907791138 -12.94929885864258 3.772979021072388 -13.40262794494629 3.623322486877441 C -13.90947246551514 3.513034582138062 -14.39310741424561 3.335030317306519 -14.84596252441406 3.093007326126099 C -15.09769821166992 3.256198167800903 -15.36411762237549 3.400876522064209 -15.64425563812256 3.526042938232422 C -16.38458251953125 3.856842756271362 -17.16161918640137 4.024588108062744 -17.95371055603027 4.024588108062744 C -18.69976425170898 4.024588108062744 -19.43676376342773 3.875133752822876 -20.14427375793457 3.580388307571411 C -21.5359935760498 3.000487089157104 -22.62988471984863 1.928597211837769 -23.22502899169922 0.5617846250534058 L -23.9947509765625 -1.195940613746643 C -24.15694999694824 -1.18419361114502 -24.32587051391602 -1.172461152076721 -24.49983787536621 -1.160866260528564 C -24.76542472839355 -1.143163681030273 -24.86191558837891 -1.134922385215759 -24.88522529602051 -1.132821679115295 C -25.12432670593262 -1.107000708580017 -25.38284111022949 -1.095993518829346 -25.74600028991699 -1.095993518829346 L -25.94169616699219 -1.095993518829346 C -26.11322975158691 -0.6594629883766174 -26.27286911010742 -0.2289494574069977 -26.42001914978027 0.1940974146127701 L -26.45269203186035 0.2844974100589752 C -26.98003768920898 1.690788269042969 -28.01543617248535 2.821552038192749 -29.36812782287598 3.468515634536743 C -30.15232849121094 3.843533754348755 -30.98178291320801 4.033697605133057 -31.83363723754883 4.033751964569092 L -31.83392715454102 4.033751964569092 C -32.474365234375 4.033751964569092 -33.11398315429688 3.92451548576355 -33.73503875732422 3.709061145782471 C -34.1392936706543 3.568799734115601 -34.52132415771484 3.387371778488159 -34.87641906738281 3.168947219848633 C -35.78605651855469 3.746649980545044 -36.84507369995117 4.05600643157959 -37.95400238037109 4.05600643157959 C -39.49188995361328 4.05600643157959 -40.93391036987305 3.460952043533325 -42.01441955566406 2.380424737930298 C -43.09494781494141 1.299915552139282 -43.69000244140625 -0.1421025842428207 -43.69000244140625 -1.679993510246277 C -43.69000244140625 -2.716693162918091 -43.68634033203125 -3.76339864730835 -43.67905807495117 -4.81465482711792 C -43.88207626342773 -4.816390037536621 -44.09053039550781 -4.818224430084229 -44.30418395996094 -4.820157051086426 C -44.46121978759766 -4.821578979492188 -44.61550521850586 -4.822948455810547 -44.76667785644531 -4.824262142181396 C -44.72762680053711 -3.738295555114746 -44.69066619873047 -2.800117492675781 -44.65603637695313 -2.016769886016846 C -44.55777740478516 -0.4576080143451691 -45.08367919921875 1.029072046279907 -46.14181900024414 2.177915573120117 C -47.16474533081055 3.288515567779541 -48.56038284301758 3.948188304901123 -50.07161712646484 4.035370349884033 C -50.18534469604492 4.041952133178711 -50.30139923095703 4.045315742492676 -50.41571044921875 4.045315742492676 C -51.866455078125 4.045315742492676 -53.19985580444336 3.523515701293945 -54.27176284790039 2.536315679550171 C -55.39217376708984 1.504298329353333 -56.04624938964844 0.09980836510658264 -56.11703109741211 -1.4229816198349 C -56.21072387695313 -3.081973314285278 -56.31003570556641 -5.794205188751221 -56.42031097412109 -9.706649780273438 C -56.46396636962891 -10.0072717666626 -56.48600006103516 -10.3102970123291 -56.48600006103516 -10.61199378967285 C -56.48600006103516 -10.80292415618896 -56.47864532470703 -10.99206161499023 -56.46404647827148 -11.17775058746338 C -56.55317687988281 -14.16737079620361 -56.65131759643555 -16.45204925537109 -56.75592803955078 -17.97207641601563 C -56.86832046508789 -19.51126670837402 -56.37344360351563 -20.99727249145508 -55.36111068725586 -22.15850257873535 C -54.34127426147461 -23.32828521728516 -52.92472839355469 -24.02179336547852 -51.37238311767578 -24.11135673522949 C -51.25714492797852 -24.11801147460938 -51.14022064208984 -24.12139320373535 -51.02512741088867 -24.12139320373535 C -49.61579895019531 -24.12139320373535 -48.30672836303711 -23.62955665588379 -47.23939895629883 -22.69902992248535 C -46.07187652587891 -21.68121910095215 -45.38602828979492 -20.27467727661133 -45.30142974853516 -18.72982597351074 C -45.24977874755859 -18.05012130737305 -45.19992446899414 -17.24764251708984 -45.15213394165039 -16.32754325866699 C -44.86173629760742 -16.32517433166504 -44.55988311767578 -16.32260513305664 -44.24660110473633 -16.3198299407959 C -43.93803024291992 -16.31710052490234 -43.64044570922852 -16.31457138061523 -43.35381317138672 -16.31224250793457 C -43.30970764160156 -17.16872978210449 -43.26108932495117 -18.01244354248047 -43.20814514160156 -18.83949089050293 C -43.13095092773438 -20.39632034301758 -42.44377899169922 -21.81455230712891 -41.26850891113281 -22.83910179138184 C -40.20127487182617 -23.76955795288086 -38.89218139648438 -24.26139259338379 -37.48285675048828 -24.26139259338379 C -37.36783599853516 -24.26139259338379 -37.25094604492188 -24.25801086425781 -37.13543701171875 -24.25133895874023 C -35.58321762084961 -24.16179275512695 -34.16665649414063 -23.46826553344727 -33.14689254760742 -22.29850196838379 C -32.1380615234375 -21.1413688659668 -31.64307975769043 -19.66179656982422 -31.75090217590332 -18.12827301025391 C -31.77899932861328 -17.66965293884277 -31.80580902099609 -17.20769500732422 -31.83139228820801 -16.74139022827148 C -31.7724609375 -16.89584732055664 -31.70724296569824 -17.06855964660645 -31.63516426086426 -17.26153945922852 C -31.26616477966309 -18.24946594238281 -31.16365432739258 -18.54415702819824 -31.13670921325684 -18.6249942779541 L -31.10285568237305 -18.72653961181641 L -31.06361961364746 -18.82612037658691 C -30.75936508178711 -19.59844779968262 -30.50436401367188 -20.17213821411133 -30.26114654541016 -20.6315746307373 L -30.25543785095215 -20.64228439331055 C -29.9527530670166 -21.20984268188477 -29.59969711303711 -21.70961952209473 -29.20441627502441 -22.13039398193359 C -28.05138969421387 -23.43326377868652 -26.5022087097168 -24.14879417419434 -24.82538223266602 -24.14879417419434 C -24.41985511779785 -24.14879417419434 -24.00692749023438 -24.10626602172852 -23.59807395935059 -24.02237510681152 L -23.57809066772461 -24.01823043823242 C -22.51654624938965 -23.79477500915527 -21.52847290039063 -23.27813911437988 -20.72065544128418 -22.52415657043457 L -20.62158203125 -22.42841148376465 C -20.31027412414551 -22.11712074279785 -20.02828407287598 -21.76459503173828 -19.78279876708984 -21.37990951538086 C -19.59360313415527 -21.09146690368652 -19.40848922729492 -20.76644706726074 -19.21853828430176 -20.38920021057129 C -18.96748924255371 -19.90760040283203 -18.70352172851563 -19.31322479248047 -18.41234588623047 -18.57402992248535 L -18.39401817321777 -18.526611328125 L -17.97010612487793 -17.40902137756348 C -17.96622276306152 -17.6241397857666 -17.96211624145508 -17.83952903747559 -17.95778465270996 -18.05489921569824 C -17.94667816162109 -19.37279319763184 -17.50398826599121 -20.60275459289551 -16.67583656311035 -21.61493873596191 C -15.87720489501953 -22.59105110168457 -14.82306861877441 -23.25261116027832 -13.61776065826416 -23.53666496276855 C -13.40364074707031 -23.59268188476563 -13.18642616271973 -23.63284492492676 -12.967360496521 -23.65694808959961 L -12.36659145355225 -23.75707626342773 C -11.58218669891357 -23.91830253601074 -11.25980949401855 -23.9673900604248 -10.99586200714111 -23.99020957946777 C -10.94438076019287 -23.99645233154297 -10.75581836700439 -24.02082633972168 -10.23520088195801 -24.10024833679199 C -9.446019172668457 -24.22063064575195 -8.91812801361084 -24.27199363708496 -8.470000267028809 -24.27199363708496 C -8.37232780456543 -24.27199363708496 -8.119818687438965 -24.27528381347656 -7.525946140289307 -24.29724884033203 C -7.351819038391113 -24.30372047424316 -7.180655002593994 -24.30699348449707 -7.017473220825195 -24.30699348449707 C -6.435618877410889 -24.30699348449707 -5.923164367675781 -24.2664852142334 -5.450855255126953 -24.18312072753906 L -5.361527919769287 -24.16632080078125 L -4.139582633972168 -23.92053985595703 C -3.527091503143311 -23.78135681152344 -2.929800748825073 -23.59606552124023 -2.364309787750244 -23.36984825134277 L -2.285709857940674 -23.33841133117676 L -2.2085280418396 -23.30366706848145 C -1.656812191009521 -23.05539703369141 -1.123456001281738 -22.76252174377441 -0.6221806406974792 -22.43260955810547 C -0.108427494764328 -22.11010932922363 0.3660127520561218 -21.76069831848145 0.7998351454734802 -21.38563346862793 C 1.019259572029114 -21.72211837768555 1.275843143463135 -22.0386791229248 1.567581176757813 -22.33041191101074 C 2.639890193939209 -23.40279388427734 4.060581207275391 -23.99342918395996 5.567853927612305 -23.99342918395996 C 5.618560314178467 -23.99342918395996 5.669740200042725 -23.99276351928711 5.720775604248047 -23.9914493560791 C 7.78374195098877 -23.97322845458984 11.6755542755127 -23.96399307250977 17.28999900817871 -23.96399307250977 C 18.47861671447754 -23.96399307250977 19.61004447937012 -23.60847663879395 20.56147956848145 -22.94815063476563 C 21.4101448059082 -23.60940551757813 22.44060516357422 -24.01647567749023 23.57443618774414 -24.11651992797852 C 24.23165893554688 -24.17507934570313 24.8890323638916 -24.12241363525391 25.51922225952148 -23.96237564086914 C 25.98180198669434 -24.0260181427002 26.4021053314209 -24.07597541809082 26.7887077331543 -24.11339378356934 C 27.45790863037109 -24.17815780639648 28.2414722442627 -24.22473907470703 29.1841983795166 -24.25583076477051 C 29.35483551025391 -24.26144790649414 29.5267448425293 -24.26430320739746 29.69507217407227 -24.26430320739746 C 30.67725372314453 -24.26430320739746 31.63630867004395 -24.16753959655762 32.54560089111328 -23.9767017364502 C 33.61825561523438 -23.7515926361084 34.64109039306641 -23.40481185913086 35.58568954467773 -22.94599342346191 L 35.65712738037109 -22.9104118347168 C 35.95439529418945 -22.75861358642578 36.24343490600586 -22.5927619934082 36.52394485473633 -22.41312789916992 C 36.79925918579102 -22.6850643157959 37.10461807250977 -22.93135070800781 37.43732833862305 -23.14799308776855 C 38.37847137451172 -23.76086616516113 39.45843505859375 -24.08484840393066 40.56034469604492 -24.08484840393066 C 40.94087219238281 -24.08484840393066 41.32647323608398 -24.04631996154785 41.70647048950195 -23.97032165527344 C 43.16106796264648 -23.67941284179688 44.42603302001953 -22.86251831054688 45.27192687988281 -21.66880989074707 L 46.57710266113281 -19.85117340087891 C 46.98016357421875 -20.45129013061523 47.36492919921875 -21.04183769226074 47.73059844970703 -21.62168502807617 L 47.78189086914063 -21.70299339294434 L 47.83701705932617 -21.78175735473633 C 48.68212509155273 -22.98912048339844 49.90614318847656 -23.7949390411377 51.37674331665039 -24.11210250854492 C 51.79397964477539 -24.20210266113281 52.21728897094727 -24.24777603149414 52.6346549987793 -24.24777603149414 C 53.6772346496582 -24.24777603149414 54.70459747314453 -23.95977592468262 55.60572814941406 -23.41490173339844 C 56.94065475463867 -22.60775756835938 57.86150741577148 -21.31950187683105 58.19856262207031 -19.78748512268066 C 58.52072525024414 -18.3232479095459 58.28807067871094 -16.8673210144043 57.52576446533203 -15.57717514038086 L 57.47608947753906 -15.49312114715576 L 57.42238235473633 -15.41159343719482 C 56.31813049316406 -13.73524475097656 55.08853912353516 -11.97086906433105 53.75062561035156 -10.14236640930176 L 57.67398071289063 -5.03201150894165 C 58.58334350585938 -3.819557189941406 58.96809005737305 -2.322793483734131 58.75738143920898 -0.8174661993980408 C 58.5429801940918 0.7140428423881531 57.736328125 2.061297416687012 56.48601913452148 2.976151943206787 C 55.491455078125 3.703842878341675 54.32107162475586 4.088497638702393 53.10134506225586 4.088551998138428 Z"/></g></g></g></svg>