<svg xmlns="http://www.w3.org/2000/svg" xmlns:xlink="http://www.w3.org/1999/xlink" width="75.522" height="77.095" viewBox="0 0 75.522 77.095">
  <defs>
    <filter id="Rectangle_106" x="8" y="8" width="59.522" height="61.095" filterUnits="userSpaceOnUse">
      <feOffset dy="6" input="SourceAlpha"/>
      <feGaussianBlur result="blur"/>
      <feFlood flood-color="#547bd6"/>
      <feComposite operator="in" in2="blur"/>
      <feComposite in="SourceGraphic"/>
    </filter>
  </defs>
  <g id="bg" transform="translate(-0.5)">
    <rect id="Rectangle_105" data-name="Rectangle 105" width="75.522" height="77.095" rx="37.761" transform="translate(0.5)" fill="#8baeff" opacity="0.3"/>
    <g transform="matrix(1, 0, 0, 1, 0.5, 0)" filter="url(#Rectangle_106)">
      <rect id="Rectangle_106-2" data-name="Rectangle 106" width="59.522" height="55.095" rx="27.548" transform="translate(8 8)" fill="#8baeff"/>
    </g>
    <g id="Path_5622" data-name="Path 5622" transform="translate(5079.078 3940.931)" fill="#fff">
      <path d="M -5034.7568359375 -3888.7666015625 C -5036.4599609375 -3888.7666015625 -5038.0869140625 -3889.40283203125 -5039.33740234375 -3890.557861328125 C -5040.4716796875 -3891.60546875 -5041.20654296875 -3892.994384765625 -5041.43408203125 -3894.50634765625 L -5050.7578125 -3902.037841796875 C -5051.1611328125 -3901.957763671875 -5051.58251953125 -3901.91748046875 -5052.017578125 -3901.91748046875 C -5054.95166015625 -3901.91748046875 -5057.0009765625 -3903.73291015625 -5057.0009765625 -3906.33203125 C -5057.0009765625 -3909.07958984375 -5054.765625 -3911.31494140625 -5052.017578125 -3911.31494140625 C -5051.28466796875 -3911.31494140625 -5050.5654296875 -3911.15478515625 -5049.90869140625 -3910.847900390625 L -5041.509765625 -3915.259765625 C -5041.50244140625 -3918.977783203125 -5038.47607421875 -3922 -5034.7568359375 -3922 C -5031.03271484375 -3922 -5028.0029296875 -3918.97021484375 -5028.0029296875 -3915.24609375 C -5028.0029296875 -3913.4248046875 -5028.71484375 -3911.890625 -5030.0625 -3910.809326171875 C -5031.26318359375 -3909.845703125 -5032.93017578125 -3909.31494140625 -5034.7568359375 -3909.31494140625 C -5036.42138671875 -3909.31494140625 -5037.9375 -3909.75 -5039.103515625 -3910.551513671875 L -5047.0341796875 -3906.385498046875 C -5047.03369140625 -3906.36767578125 -5047.03369140625 -3906.349853515625 -5047.03369140625 -3906.33203125 C -5047.03369140625 -3906.16796875 -5047.0419921875 -3906.006103515625 -5047.0576171875 -3905.8466796875 L -5039.60546875 -3899.827392578125 C -5038.392578125 -3900.869140625 -5036.67919921875 -3901.45166015625 -5034.7568359375 -3901.45166015625 C -5032.93017578125 -3901.45166015625 -5031.26318359375 -3900.9208984375 -5030.0625 -3899.957275390625 C -5028.71484375 -3898.8759765625 -5028.0029296875 -3897.341552734375 -5028.0029296875 -3895.519775390625 C -5028.0029296875 -3891.796142578125 -5031.03271484375 -3888.7666015625 -5034.7568359375 -3888.7666015625 Z" stroke="none"/>
      <path d="M -5034.7568359375 -3889.7666015625 C -5031.5791015625 -3889.7666015625 -5029.0029296875 -3892.343017578125 -5029.0029296875 -3895.519775390625 C -5029.0029296875 -3898.697509765625 -5031.5791015625 -3900.45166015625 -5034.7568359375 -3900.45166015625 C -5036.7421875 -3900.45166015625 -5038.49267578125 -3899.766845703125 -5039.5263671875 -3898.478271484375 L -5048.14208984375 -3905.43701171875 C -5048.0712890625 -3905.714111328125 -5048.03369140625 -3906.0126953125 -5048.03369140625 -3906.33203125 C -5048.03369140625 -3906.546875 -5048.05078125 -3906.758056640625 -5048.08349609375 -3906.963623046875 L -5038.9990234375 -3911.736083984375 C -5037.947265625 -3910.804931640625 -5036.4365234375 -3910.31494140625 -5034.7568359375 -3910.31494140625 C -5031.5791015625 -3910.31494140625 -5029.0029296875 -3912.0693359375 -5029.0029296875 -3915.24609375 C -5029.0029296875 -3918.423828125 -5031.5791015625 -3921 -5034.7568359375 -3921 C -5037.9345703125 -3921 -5040.509765625 -3918.423828125 -5040.509765625 -3915.24609375 C -5040.509765625 -3915.048828125 -5040.49951171875 -3914.85693359375 -5040.48046875 -3914.6708984375 L -5049.9140625 -3909.71533203125 C -5050.5244140625 -3910.09521484375 -5051.24560546875 -3910.31494140625 -5052.017578125 -3910.31494140625 C -5054.21728515625 -3910.31494140625 -5056.0009765625 -3908.531494140625 -5056.0009765625 -3906.33203125 C -5056.0009765625 -3904.13134765625 -5054.21728515625 -3902.91748046875 -5052.017578125 -3902.91748046875 C -5051.48583984375 -3902.91748046875 -5050.978515625 -3902.98828125 -5050.5146484375 -3903.126953125 L -5040.4892578125 -3895.028564453125 C -5040.23974609375 -3892.08154296875 -5037.76904296875 -3889.7666015625 -5034.7568359375 -3889.7666015625 M -5034.7568359375 -3887.7666015625 C -5036.71240234375 -3887.7666015625 -5038.580078125 -3888.4970703125 -5040.01611328125 -3889.8232421875 C -5041.21923828125 -3890.9345703125 -5042.0302734375 -3892.38037109375 -5042.35302734375 -3893.96337890625 L -5051.03857421875 -3900.979248046875 C -5051.35791015625 -3900.938232421875 -5051.6845703125 -3900.91748046875 -5052.017578125 -3900.91748046875 C -5053.57861328125 -3900.91748046875 -5055.0234375 -3901.386962890625 -5056.0859375 -3902.23974609375 C -5057.32080078125 -3903.230712890625 -5058.0009765625 -3904.68408203125 -5058.0009765625 -3906.33203125 C -5058.0009765625 -3909.631103515625 -5055.31689453125 -3912.31494140625 -5052.017578125 -3912.31494140625 C -5051.31103515625 -3912.31494140625 -5050.61474609375 -3912.190673828125 -5049.958984375 -3911.95068359375 L -5042.484375 -3915.87744140625 C -5042.162109375 -3919.85888671875 -5038.8193359375 -3923 -5034.7568359375 -3923 C -5030.4814453125 -3923 -5027.0029296875 -3919.521728515625 -5027.0029296875 -3915.24609375 C -5027.0029296875 -3913.1416015625 -5027.8671875 -3911.288818359375 -5029.4365234375 -3910.029541015625 C -5030.81396484375 -3908.923828125 -5032.70361328125 -3908.31494140625 -5034.7568359375 -3908.31494140625 C -5036.3876953125 -3908.31494140625 -5037.900390625 -3908.69384765625 -5039.1455078125 -3909.39990234375 L -5045.640625 -3905.987548828125 L -5039.58349609375 -3901.09521484375 C -5038.2666015625 -3901.970947265625 -5036.5908203125 -3902.45166015625 -5034.7568359375 -3902.45166015625 C -5032.70361328125 -3902.45166015625 -5030.81396484375 -3901.8427734375 -5029.4365234375 -3900.737060546875 C -5027.8671875 -3899.4775390625 -5027.0029296875 -3897.624755859375 -5027.0029296875 -3895.519775390625 C -5027.0029296875 -3891.24462890625 -5030.4814453125 -3887.7666015625 -5034.7568359375 -3887.7666015625 Z" stroke="none" fill="#5a7fd3"/>
    </g>
  </g>
</svg>
