<svg xmlns="http://www.w3.org/2000/svg" xmlns:xlink="http://www.w3.org/1999/xlink" width="180" height="80" viewBox="0 0 180 80">
  <defs>
    <filter id="Union_5" x="25" y="23.999" width="32" height="33.001" filterUnits="userSpaceOnUse">
      <feOffset dx="1" dy="1" input="SourceAlpha"/>
      <feGaussianBlur result="blur"/>
      <feFlood flood-opacity="0.161"/>
      <feComposite operator="in" in2="blur"/>
      <feComposite in="SourceGraphic"/>
    </filter>
    <filter id="Union_6" x="36" y="28.987" width="14.742" height="20.688" filterUnits="userSpaceOnUse">
      <feOffset dx="1" dy="1" input="SourceAlpha"/>
      <feGaussianBlur result="blur-2"/>
      <feFlood flood-opacity="0.161"/>
      <feComposite operator="in" in2="blur-2"/>
      <feComposite in="SourceGraphic"/>
    </filter>
  </defs>
  <g id="Group_60" data-name="Group 60" transform="translate(-1463 -31)">
    <g id="Rectangle_98" data-name="Rectangle 98" transform="translate(1473 41)" fill="#8baeff" stroke="rgba(139,174,255,0.47)" stroke-width="10">
      <rect width="160" height="60" rx="30" stroke="none"/>
      <rect x="-5" y="-5" width="170" height="70" rx="35" fill="none"/>
    </g>
    <rect id="Rectangle_101" data-name="Rectangle 101" width="36" height="36" rx="18" transform="translate(1485 53)" fill="#3b61b8"/>
    <g id="Group_57" data-name="Group 57">
      <g transform="matrix(1, 0, 0, 1, 1463, 31)" filter="url(#Union_5)">
        <path id="Union_5-2" data-name="Union 5" d="M-7008,28.5a2.5,2.5,0,0,1,2.5-2.5,2.5,2.5,0,0,1,2.5,2.5,2.5,2.5,0,0,1-2.5,2.5A2.5,2.5,0,0,1-7008,28.5Zm14-14a2.5,2.5,0,0,1,2.5-2.5,2.5,2.5,0,0,1,2.5,2.5,2.5,2.5,0,0,1-2.5,2.5A2.5,2.5,0,0,1-6994,14.5Zm-26,0a2.5,2.5,0,0,1,2.5-2.5,2.5,2.5,0,0,1,2.5,2.5,2.5,2.5,0,0,1-2.5,2.5A2.5,2.5,0,0,1-7020,14.5Zm12-13a2.5,2.5,0,0,1,2.5-2.5,2.5,2.5,0,0,1,2.5,2.5,2.5,2.5,0,0,1-2.5,2.5A2.5,2.5,0,0,1-7008,1.5Z" transform="translate(7045 25)" fill="#fff"/>
      </g>
      <g transform="matrix(1, 0, 0, 1, 1463, 31)" filter="url(#Union_6)">
        <path id="Union_6-2" data-name="Union 6" d="M-7007.386,22.988l-4.894-.625a1,1,0,0,1-.642-1.633l.752-.9-2.209-1.854a3.985,3.985,0,0,1-1.621.342,4,4,0,0,1-4-4,4,4,0,0,1,4-4,4,4,0,0,1,1.27.206l2.717-3.237-.9-.751a1,1,0,0,1,.345-1.721l4.713-1.464a1,1,0,0,1,1.288,1.082l-.624,4.894a1,1,0,0,1-1.635.64l-.895-.751-2.735,3.259a3.982,3.982,0,0,1,.449,1.844,3.987,3.987,0,0,1-.289,1.5l2.048,1.718.751-.9a1,1,0,0,1,1.72.347l1.466,4.711a1,1,0,0,1-.952,1.3A1.034,1.034,0,0,1-7007.386,22.988Z" transform="translate(7056 25.68)" fill="#fff"/>
      </g>
      <circle id="Ellipse_22" data-name="Ellipse 22" cx="2" cy="2" r="2" transform="translate(1501 69)" fill="#5477c6"/>
    </g>
  </g>
</svg>
